<svg width="607" height="263" viewBox="0 0 607 263" xmlns="http://www.w3.org/2000/svg" xmlns:xlink="http://www.w3.org/1999/xlink"><title>challenge</title><defs><path id="a" d="M0 263h606.727V.208H0z"/></defs><g fill="none" fill-rule="evenodd"><path fill="#2A67DC" d="M6 257.792h594.727v-2H6z"/><g transform="translate(0 -.208)"><path d="M1 257a5 5 0 1 1 10.001.001 5 5 0 0 1-10-.001" fill="#FFF"/><path d="M6 253c-2.206 0-4 1.794-4 4s1.794 4 4 4 4-1.794 4-4-1.794-4-4-4m0 10c-3.309 0-6-2.691-6-6s2.691-6 6-6 6 2.691 6 6-2.691 6-6 6" fill="#2A67DC"/><path d="M595.726 257a5 5 0 1 1 10.001.001 5 5 0 0 1-10-.001" fill="#FFF"/><path d="M600.727 253c-2.206 0-4 1.794-4 4s1.794 4 4 4 4-1.794 4-4-1.794-4-4-4m0 10c-3.31 0-6-2.691-6-6s2.69-6 6-6c3.309 0 6 2.691 6 6s-2.691 6-6 6" fill="#2A67DC"/><mask id="b" fill="#fff"><use xlink:href="#a"/></mask><path d="M523.219 35.36h2v-2h-2v2zm0 4h2v-2h-2v2zm0 4h2v-2h-2v2zm0 4h2v-2h-2v2zm0 4h2v-2h-2v2zm0 4h2v-2h-2v2zm0 4h2v-2h-2v2zm0 4h2v-2h-2v2zm0 4h2v-2h-2v2zm0 4h2v-2h-2v2zm0 4h2v-2h-2v2zm0 4h2v-2h-2v2zm0 4h2v-2h-2v2zm0 4h2v-2h-2v2zm0 3.999h2v-2h-2v2zm0 4h2v-2h-2v2zm0 4h2v-2h-2v2zm0 4h2v-2h-2v2zm0 4h2v-2h-2v2zm0 4h2v-2h-2v2zm0 4h2v-2h-2v2zm0 4h2v-2h-2v2zm0 4h2v-2h-2v2zm0 4h2v-2h-2v2zm0 4.001h2v-2h-2v2zm0 4h2v-2h-2v2zm0 4h2v-2h-2v2zm0 4h2v-2h-2v2zm0 4h2v-2h-2v2zm0 4h2v-2h-2v2zm0 4h2v-2h-2v2zm0 4h2v-2h-2v2zm0 4h2v-2h-2v2zm0 4h2v-2h-2v2zm0 4h2v-2h-2v2zm0 4h2v-2h-2v2zm0 4h2v-2h-2v2zm0 4h2v-2h-2v2zm0 4h2v-2h-2v2zm0 4h2v-2h-2v2zm0 4h2v-2h-2v2zm-167.526-160h2v-2h-2v2zm0 4h2v-2h-2v2zm0 4h2v-2h-2v2zm0 4h2v-2h-2v2zm0 4h2v-2h-2v2zm0 4h2v-2h-2v2zm0 4h2v-2h-2v2zm0 4h2v-2h-2v2zm0 4h2v-2h-2v2zm0 4h2v-2h-2v2zm0 4h2v-2h-2v2zm0 4h2v-2h-2v2zm0 4h2v-2h-2v2zm0 4h2v-2h-2v2zm0 4h2v-2h-2v2zm0 3.999h2v-2h-2v2zm0 4.001h2v-2.001h-2v2.001zm0 4h2v-2h-2v2zm0 4h2v-2h-2v2zm0 4h2v-2h-2v2zm0 4h2v-2h-2v2zm0 4h2v-2h-2v2zm0 4h2v-2h-2v2zm0 4h2v-2h-2v2zm0 4h2v-2h-2v2zm0 4h2v-2h-2v2zm0 4h2v-2h-2v2zm0 4h2v-2h-2v2zm0 4h2v-2h-2v2zm0 2.493h2v-.492h-2v.492z" fill="#CEDAF2" mask="url(#b)"/><path d="M164.689 120.32H107.71c-5.63 0-10.235 4.606-10.235 10.236v17.478h77.449v-17.478c0-5.629-4.606-10.237-10.236-10.237" fill="#FFF" mask="url(#b)"/><path d="M98.475 147.033h75.45v-16.478c0-5.093-4.144-9.236-9.236-9.236h-56.978c-5.093 0-9.236 4.143-9.236 9.236v16.478zm76.45 2h-77.45a1 1 0 0 1-1-1v-17.478c0-6.195 5.04-11.236 11.236-11.236h56.978c6.195 0 11.235 5.041 11.235 11.236v17.478a1 1 0 0 1-1 1z" fill="#2A67DC" mask="url(#b)"/><path d="M107.711 120.32h56.978c5.63 0 10.235 4.608 10.235 10.236v5.535H97.475v-5.536c0-5.63 4.606-10.236 10.236-10.236" fill="#FFF" mask="url(#b)"/><path d="M98.475 135.092h75.45v-4.537c0-5.092-4.144-9.235-9.237-9.235h-56.977c-5.093 0-9.236 4.143-9.236 9.235v4.537zm76.45 2h-77.45a1 1 0 0 1-1-1v-5.537c0-6.195 5.04-11.235 11.236-11.235h56.977c6.196 0 11.236 5.04 11.236 11.235v5.537a1 1 0 0 1-1 1z" fill="#2A67DC" mask="url(#b)"/><path d="M104.566 123.405c.638 0 1.156.456 1.156 1.018 0 .563-.518 1.018-1.156 1.018-.638 0-1.156-.455-1.156-1.018 0-.562.518-1.018 1.156-1.018m6.592 2.832c.638 0 1.156.456 1.156 1.017 0 .563-.518 1.019-1.156 1.019-.638 0-1.155-.456-1.155-1.019 0-.562.517-1.017 1.155-1.017m-7.296 3.583c.467 0 .846.334.846.744s-.38.744-.846.744c-.466 0-.844-.333-.844-.744 0-.41.377-.744.844-.744m8.028-7.514c.467 0 .845.334.845.744 0 .411-.378.745-.845.745-.466 0-.845-.334-.845-.745 0-.41.379-.744.845-.744m3.66 9.387c.465 0 .844.334.844.744 0 .412-.379.745-.845.745-.466 0-.845-.333-.845-.745 0-.41.38-.744.845-.744m17.801.791c.367 0 .666.263.666.587 0 .325-.299.588-.667.588-.368 0-.666-.263-.666-.588 0-.324.298-.587.666-.587m10.63-9.861c.368 0 .667.263.667.587 0 .325-.3.588-.667.588-.368 0-.667-.263-.667-.588 0-.324.299-.587.667-.587m7.001 9.784c.367 0 .666.262.666.587 0 .324-.299.588-.667.588-.368 0-.667-.264-.667-.588 0-.325.3-.587.667-.587m-13.603-5.489c.368 0 .666.263.666.587 0 .324-.298.587-.666.587-.368 0-.667-.263-.667-.587 0-.324.299-.587.667-.587m29.959 2.148c.368 0 .667.262.667.587 0 .324-.299.587-.667.587-.368 0-.667-.263-.667-.587 0-.325.3-.587.667-.587m-4.057-6.126c.368 0 .667.263.667.588 0 .324-.299.587-.667.587-.368 0-.667-.263-.667-.587 0-.325.299-.587.667-.587m-2.068 10.818c.368 0 .667.263.667.587 0 .324-.299.588-.667.588-.368 0-.667-.264-.667-.588 0-.324.3-.587.667-.587m10.898-3.5c.368 0 .667.262.667.587 0 .324-.299.588-.667.588-.368 0-.667-.264-.667-.588 0-.325.3-.587.667-.587m-47.73-7.159c.368 0 .667.263.667.587 0 .324-.299.587-.667.587-.368 0-.667-.263-.667-.587 0-.324.3-.587.667-.587m-6.21.258c.638 0 1.156.456 1.156 1.018s-.518 1.018-1.156 1.018c-.638 0-1.156-.456-1.156-1.018s.518-1.018 1.156-1.018m8.248 3.026c.638 0 1.156.456 1.156 1.018 0 .563-.518 1.018-1.156 1.018-.638 0-1.156-.455-1.156-1.018 0-.562.518-1.018 1.156-1.018m6.685-3.529c.638 0 1.156.456 1.156 1.02 0 .561-.518 1.017-1.156 1.017-.638 0-1.156-.456-1.156-1.018 0-.563.518-1.019 1.156-1.019m10.77 3.714c.638 0 1.156.456 1.156 1.018 0 .563-.517 1.019-1.155 1.019-.639 0-1.157-.456-1.157-1.019 0-.562.518-1.018 1.156-1.018m7.892-3.156c.64 0 1.156.456 1.156 1.018 0 .563-.517 1.018-1.156 1.018-.638 0-1.155-.455-1.155-1.018 0-.562.517-1.018 1.155-1.018m8.037 2.692c.638 0 1.155.456 1.155 1.019 0 .562-.517 1.018-1.156 1.018-.638 0-1.156-.456-1.156-1.018 0-.563.518-1.019 1.156-1.019m8.398-2.321c.638 0 1.156.456 1.156 1.018s-.518 1.018-1.156 1.018c-.638 0-1.156-.456-1.156-1.018s.518-1.018 1.156-1.018" fill="#2A67DC" mask="url(#b)"/><path d="M357.595 25.033c-4.608 0-8.345-3.78-8.345-8.441 0-4.662 3.737-8.441 8.345-8.441 4.608 0 8.344 3.779 8.344 8.44 0 4.663-3.736 8.442-8.344 8.442m0-23.825c-8.399 0-15.208 6.887-15.208 15.384 0 8.496 6.81 15.384 15.208 15.384 8.4 0 15.207-6.888 15.207-15.384 0-8.497-6.808-15.384-15.207-15.384" fill="#FFF" mask="url(#b)"/><path d="M357.596 9.15c-4.05 0-7.346 3.339-7.346 7.442s3.296 7.44 7.346 7.44c4.048 0 7.344-3.337 7.344-7.44s-3.296-7.441-7.344-7.441m0 16.882c-5.154 0-9.346-4.236-9.346-9.441 0-5.206 4.192-9.441 9.346-9.441 5.151 0 9.344 4.235 9.344 9.44 0 5.206-4.192 9.442-9.344 9.442m0-23.825c-7.836 0-14.209 6.452-14.209 14.384 0 7.93 6.373 14.384 14.209 14.384 7.832 0 14.207-6.453 14.207-14.384 0-7.932-6.375-14.384-14.207-14.384m0 30.768c-8.938 0-16.209-7.35-16.209-16.384S348.66.208 357.596.208s16.207 7.35 16.207 16.384-7.27 16.384-16.207 16.384" fill="#2A67DC" mask="url(#b)"/><path d="M351.911 4.752c.27 0 .487.204.487.455 0 .25-.218.455-.487.455s-.487-.205-.487-.455c0-.252.218-.455.487-.455m3.071-1.349c.269 0 .488.204.488.455 0 .25-.219.455-.488.455s-.487-.204-.487-.455.218-.455.487-.455m-7.474 4.939c.269 0 .488.204.488.455s-.22.455-.488.455c-.27 0-.487-.204-.487-.455 0-.25.218-.455.487-.455m2.978-1.166c.191 0 .346.145.346.323 0 .178-.155.323-.346.323-.19 0-.346-.145-.346-.323 0-.178.155-.323.346-.323m7.258-1.724c.191 0 .347.145.347.323 0 .18-.156.323-.347.323-.19 0-.346-.144-.346-.323 0-.178.155-.323.346-.323m1.269-1.594c.19 0 .346.145.346.323 0 .178-.155.323-.346.323-.191 0-.346-.145-.346-.323 0-.178.155-.323.346-.323m4.484 1.982c.19 0 .346.144.346.323 0 .178-.155.323-.346.323-.191 0-.346-.145-.346-.323 0-.179.155-.323.346-.323m4.29 2.762c.19 0 .346.145.346.323 0 .178-.155.323-.346.323-.191 0-.346-.145-.346-.323 0-.178.155-.323.346-.323m-.877 5.463c.19 0 .345.144.345.323 0 .178-.155.323-.346.323-.19 0-.346-.145-.346-.323 0-.179.155-.323.346-.323m2.795-2.275c.191 0 .346.145.346.324 0 .178-.155.322-.346.322-.192 0-.346-.144-.346-.322 0-.179.154-.324.346-.324m.13 4.028c.191 0 .346.145.346.323 0 .178-.155.323-.346.323-.19 0-.346-.145-.346-.323 0-.178.155-.323.346-.323m-5.557-5.721c.19 0 .346.145.346.323 0 .179-.155.323-.346.323-.191 0-.346-.144-.346-.323 0-.178.155-.323.346-.323m.682 11.536c.192 0 .346.145.346.323 0 .178-.154.323-.346.323-.191 0-.346-.145-.346-.323 0-.178.155-.323.346-.323m-8.612 3.673c.191 0 .346.145.346.323 0 .178-.155.323-.346.323-.19 0-.346-.145-.346-.323 0-.178.155-.323.346-.323m-6.757-4.517c.19 0 .345.145.345.324 0 .178-.155.322-.346.322-.19 0-.346-.144-.346-.322 0-.18.155-.324.346-.324m.521-9.717c.19 0 .345.145.345.323 0 .178-.155.323-.346.323-.19 0-.346-.145-.346-.323 0-.178.155-.323.346-.323m5.881-3.802c.192 0 .347.145.347.323 0 .178-.155.323-.346.323-.191 0-.346-.145-.346-.323 0-.178.155-.323.346-.323m-11.015 5.039c.19 0 .346.145.346.323 0 .178-.155.323-.346.323-.192 0-.346-.145-.346-.323 0-.178.154-.323.346-.323m1.364 3.835c.191 0 .346.145.346.323 0 .178-.155.323-.346.323-.192 0-.346-.145-.346-.323 0-.178.154-.323.346-.323m-1.43 2.924c.191 0 .347.145.347.323 0 .178-.156.323-.347.323-.19 0-.346-.145-.346-.323 0-.178.155-.323.346-.323m2.795 3.64c.191 0 .346.144.346.323 0 .178-.155.323-.346.323-.191 0-.346-.145-.346-.323 0-.179.155-.323.346-.323m2.21 4.81c.19 0 .346.145.346.323 0 .178-.155.323-.346.323-.191 0-.346-.145-.346-.323 0-.178.155-.323.346-.323m5.33-.391c.19 0 .346.145.346.323 0 .178-.155.323-.346.323-.191 0-.346-.145-.346-.323 0-.178.155-.323.346-.323m9.879-1.69c.191 0 .346.145.346.323 0 .178-.155.323-.346.323-.192 0-.346-.145-.346-.323 0-.178.154-.323.346-.323m3.964-1.429c.192 0 .346.145.346.323 0 .178-.154.323-.346.323-.191 0-.346-.145-.346-.323 0-.178.155-.323.346-.323m-7.929 3.964c.19 0 .346.145.346.323 0 .178-.155.323-.346.323-.191 0-.346-.145-.346-.323 0-.178.155-.323.346-.323m8.254-7.929c.191 0 .346.145.346.323 0 .178-.155.323-.346.323-.192 0-.346-.145-.346-.323 0-.178.154-.323.346-.323m-23.683-5.596c.158 0 .285.119.285.264 0 .146-.127.264-.284.264-.156 0-.283-.117-.283-.264 0-.146.127-.264.283-.264m.776 5.946c.156 0 .283.12.283.265 0 .146-.127.264-.283.264-.157 0-.284-.117-.284-.264 0-.146.127-.265.284-.265m4.738 5.807c.156 0 .283.12.283.266 0 .146-.127.264-.283.264-.157 0-.283-.118-.283-.264 0-.146.126-.265.283-.265m6.16 2.386c.156 0 .283.118.283.265 0 .146-.127.264-.283.264-.157 0-.284-.118-.284-.264 0-.147.127-.265.284-.265m9.943-5.329c.156 0 .283.117.283.264 0 .147-.127.265-.283.265-.157 0-.284-.118-.284-.265 0-.146.127-.264.284-.264m1.83-9.069c.157 0 .284.119.284.265 0 .146-.127.264-.284.264-.156 0-.283-.118-.283-.264 0-.146.127-.265.283-.265m-3.5-7.08c.156 0 .283.119.283.264 0 .146-.127.264-.283.264-.157 0-.284-.117-.284-.263 0-.146.127-.265.284-.265m-11.45-1.631c.156 0 .283.118.283.264 0 .147-.127.265-.283.265-.157 0-.283-.118-.283-.265 0-.146.126-.264.283-.264m-5.33 1.512c.156 0 .283.118.283.264 0 .146-.127.264-.283.264-.157 0-.284-.118-.284-.264 0-.146.127-.265.284-.265m13.364-2.108c.156 0 .284.12.284.265 0 .147-.127.264-.284.264-.156 0-.284-.117-.284-.264 0-.146.127-.264.284-.264m-14.921 5.727c.157 0 .284.119.284.265 0 .146-.127.264-.284.264-.156 0-.283-.118-.283-.264 0-.146.127-.265.283-.265m13.132-5.25c.156 0 .283.119.283.264 0 .146-.127.264-.283.264-.157 0-.284-.117-.284-.263 0-.146.127-.265.284-.265m7.87 13.285c.156 0 .283.119.283.265 0 .146-.127.264-.283.264-.157 0-.283-.118-.283-.264 0-.146.126-.265.283-.265m-8.113 6.921c.155 0 .282.118.282.264 0 .147-.127.265-.283.265-.157 0-.283-.118-.283-.265 0-.146.126-.264.283-.264m3.938 1.869c.157 0 .284.119.284.265 0 .146-.127.264-.284.264-.156 0-.283-.118-.283-.264 0-.146.127-.265.283-.265m-15.313-1.671c.156 0 .283.12.283.265 0 .146-.127.264-.283.264-.157 0-.283-.118-.283-.264 0-.146.126-.265.283-.265m-4.535-9.267c.157 0 .284.118.284.265 0 .146-.127.264-.284.264-.156 0-.283-.118-.283-.264 0-.147.127-.265.283-.265m22.513-6.086c.157 0 .284.12.284.265 0 .146-.127.264-.284.264-.156 0-.283-.118-.283-.264 0-.146.127-.265.283-.265m3.896 8.133c.092 0 .167.07.167.156s-.075.156-.167.156c-.092 0-.167-.07-.167-.156s.075-.156.167-.156m-4.909-6.055c.093 0 .167.07.167.156s-.074.156-.167.156c-.092 0-.167-.07-.167-.156s.075-.156.167-.156m-8.432-8.793c.091 0 .166.069.166.155 0 .087-.075.155-.166.155-.092 0-.168-.068-.168-.155s.076-.155.168-.155m-4.582 4.498c.093 0 .167.069.167.155 0 .085-.074.155-.167.155-.092 0-.167-.07-.167-.155 0-.087.075-.155.167-.155m-6.006 9.665c.092 0 .167.069.167.155s-.075.156-.167.156c-.092 0-.167-.07-.167-.156s.075-.155.167-.155m.048 6.008c.092 0 .167.07.167.157 0 .085-.075.155-.167.155-.092 0-.167-.07-.167-.155 0-.087.075-.157.167-.157m6.643 4.416c.091 0 .166.07.166.156s-.075.156-.167.156c-.093 0-.167-.07-.167-.156s.074-.156.167-.156m5.927 1.508c.092 0 .167.07.167.156s-.075.155-.167.155c-.093 0-.167-.07-.167-.155 0-.086.074-.156.167-.156m3.54-3.898c.092 0 .167.069.167.156 0 .086-.075.155-.167.155-.092 0-.167-.069-.167-.155 0-.087.075-.156.167-.156" fill="#2A67DC" mask="url(#b)"/><path d="M524.219 34.76c-3.788 0-6.859-3.107-6.859-6.939s3.071-6.938 6.859-6.938 6.858 3.106 6.858 6.938-3.07 6.938-6.858 6.938m0-19.583c-6.904 0-12.5 5.661-12.5 12.645s5.596 12.645 12.5 12.645c6.903 0 12.5-5.66 12.5-12.645 0-6.984-5.597-12.645-12.5-12.645" fill="#FFF" mask="url(#b)"/><path d="M524.219 21.883c-3.23 0-5.859 2.664-5.859 5.938 0 3.274 2.629 5.938 5.859 5.938 3.231 0 5.858-2.664 5.858-5.938 0-3.274-2.627-5.938-5.858-5.938m0 13.876c-4.333 0-7.859-3.56-7.859-7.938 0-4.377 3.526-7.938 7.859-7.938s7.858 3.56 7.858 7.938-3.525 7.938-7.858 7.938m0-19.583c-6.341 0-11.5 5.224-11.5 11.645 0 6.42 5.159 11.645 11.5 11.645s11.5-5.224 11.5-11.645c0-6.421-5.159-11.645-11.5-11.645m0 25.29c-7.444 0-13.5-6.121-13.5-13.645 0-7.524 6.056-13.645 13.5-13.645s13.5 6.12 13.5 13.645c0 7.524-6.056 13.645-13.5 13.645" fill="#2A67DC" mask="url(#b)"/><path d="M519.547 18.089c.221 0 .401.168.401.374s-.18.374-.401.374c-.221 0-.401-.168-.401-.374s.18-.374.401-.374m2.523-1.109c.222 0 .402.168.402.374s-.18.374-.401.374c-.221 0-.401-.168-.401-.374s.18-.374.4-.374m-6.143 4.06c.221 0 .401.168.401.374s-.18.374-.4.374c-.222 0-.402-.168-.402-.374s.18-.374.401-.374m2.448-.958c.158 0 .284.119.284.266 0 .146-.126.265-.284.265-.157 0-.284-.12-.284-.265 0-.147.127-.266.284-.266m5.966-1.417c.158 0 .285.119.285.266 0 .147-.127.265-.284.265-.158 0-.284-.118-.284-.265 0-.147.126-.266.284-.266m1.042-1.311c.157 0 .284.119.284.266 0 .146-.127.265-.284.265-.157 0-.285-.12-.285-.265 0-.147.128-.266.285-.266m3.686 1.629c.157 0 .285.12.285.266 0 .146-.128.265-.285.265-.157 0-.284-.119-.284-.265 0-.147.127-.266.284-.266m3.526 2.271c.157 0 .284.119.284.266 0 .146-.127.265-.284.265-.157 0-.284-.12-.284-.265 0-.147.127-.266.284-.266m-.721 4.49c.157 0 .284.12.284.265 0 .147-.127.266-.284.266-.157 0-.284-.119-.284-.266 0-.146.127-.265.284-.265m2.297-1.87c.157 0 .284.12.284.266 0 .146-.127.265-.284.265-.158 0-.285-.119-.285-.265 0-.147.127-.266.285-.266m.107 3.311c.157 0 .284.12.284.266 0 .146-.127.265-.284.265-.157 0-.284-.119-.284-.265 0-.147.127-.266.284-.266m-4.569-4.703c.158 0 .285.12.285.266 0 .147-.127.265-.284.265-.157 0-.285-.118-.285-.265 0-.147.128-.266.285-.266m.56 9.483c.158 0 .285.119.285.266 0 .146-.127.265-.285.265-.157 0-.284-.12-.284-.265 0-.147.127-.266.284-.266m-7.078 3.018c.157 0 .284.12.284.266 0 .146-.127.265-.284.265-.157 0-.284-.119-.284-.265 0-.147.127-.266.284-.266m-5.555-3.713c.157 0 .284.12.284.267 0 .146-.127.265-.284.265-.157 0-.284-.119-.284-.265 0-.147.127-.267.284-.267m.428-7.986c.157 0 .284.12.284.266 0 .146-.127.265-.284.265-.157 0-.285-.119-.285-.265 0-.147.128-.266.285-.266m4.834-3.125c.157 0 .285.119.285.266 0 .146-.128.265-.285.265-.157 0-.284-.12-.284-.265 0-.147.127-.266.284-.266m-9.054 4.141c.157 0 .284.12.284.266 0 .146-.127.265-.284.265-.158 0-.285-.119-.285-.265 0-.147.127-.266.285-.266m1.122 3.153c.157 0 .284.119.284.265 0 .146-.127.265-.284.265-.157 0-.285-.119-.285-.265 0-.146.128-.265.285-.265m-1.176 2.404c.157 0 .285.119.285.265 0 .146-.128.265-.285.265-.157 0-.284-.119-.284-.265 0-.146.127-.265.284-.265m2.298 2.991c.156 0 .284.12.284.265 0 .147-.128.266-.284.266-.158 0-.284-.119-.284-.266 0-.146.126-.265.284-.265m1.816 3.954c.157 0 .284.119.284.265 0 .147-.127.266-.284.266-.157 0-.284-.12-.284-.266 0-.146.127-.265.284-.265m4.381-.322c.157 0 .284.12.284.267 0 .146-.127.265-.284.265-.157 0-.285-.12-.285-.265 0-.147.128-.266.285-.266m8.12-1.389c.157 0 .284.119.284.266 0 .146-.127.265-.284.265-.158 0-.285-.12-.285-.265 0-.147.127-.266.285-.266m3.258-1.175c.158 0 .286.119.286.266 0 .146-.129.265-.286.265-.156 0-.284-.12-.284-.265 0-.147.128-.266.284-.266m-6.517 3.258c.157 0 .284.12.284.266 0 .146-.127.265-.284.265-.157 0-.284-.119-.284-.265 0-.147.127-.266.284-.266m6.785-6.517c.157 0 .284.119.284.265 0 .147-.127.266-.284.266-.157 0-.285-.119-.285-.266 0-.146.128-.265.285-.265m-19.466-4.6c.129 0 .233.098.233.218s-.104.216-.233.216c-.13 0-.233-.097-.233-.216 0-.12.104-.218.233-.218m.637 4.888c.13 0 .233.098.233.218s-.104.217-.233.217-.233-.097-.233-.217.104-.218.233-.218M519 35.72c.128 0 .232.096.232.216s-.104.218-.233.218-.233-.098-.233-.218.104-.217.233-.217m5.063 1.961c.128 0 .233.098.233.218s-.105.218-.233.218c-.129 0-.233-.097-.233-.218 0-.12.104-.217.233-.217m8.174-4.381c.128 0 .233.097.233.217s-.105.218-.233.218c-.13 0-.233-.097-.233-.218 0-.12.104-.217.233-.217m1.504-7.454c.129 0 .232.096.232.218 0 .12-.103.216-.232.216s-.234-.097-.234-.216c0-.122.106-.218.234-.218m-2.877-5.82c.129 0 .233.098.233.217 0 .12-.104.218-.233.218-.13 0-.233-.097-.233-.218 0-.12.104-.217.233-.217m-9.412-1.34c.13 0 .233.097.233.217s-.104.218-.233.218-.233-.097-.233-.218c0-.12.104-.217.233-.217m-4.381 1.242c.13 0 .233.098.233.217 0 .121-.104.218-.233.218s-.233-.097-.233-.218c0-.119.104-.217.233-.217m10.985-1.733c.13 0 .233.097.233.218 0 .12-.104.217-.233.217s-.233-.097-.233-.217.104-.218.233-.218m-12.265 4.708c.13 0 .234.097.234.218 0 .12-.104.217-.233.217-.128 0-.233-.097-.233-.217s.105-.218.233-.218m10.793-4.316c.128 0 .233.099.233.218 0 .12-.105.218-.233.218-.129 0-.233-.098-.233-.218s.104-.218.233-.218m6.469 10.92c.13 0 .233.098.233.217 0 .121-.104.218-.233.218s-.233-.097-.233-.218c0-.119.104-.217.233-.217m-6.669 5.689c.129 0 .233.097.233.217 0 .121-.104.218-.233.218s-.233-.097-.233-.218c0-.12.104-.217.233-.217m3.236 1.537c.13 0 .234.097.234.217s-.105.218-.234.218c-.128 0-.232-.097-.232-.218 0-.12.104-.217.232-.217m-12.586-1.373c.129 0 .233.096.233.216s-.104.218-.233.218c-.13 0-.233-.098-.233-.218s.104-.217.233-.217m-3.728-7.617c.13 0 .233.097.233.217s-.104.218-.233.218c-.128 0-.233-.098-.233-.218s.105-.217.233-.217m18.505-5.002c.13 0 .233.098.233.217 0 .12-.104.218-.233.218-.128 0-.233-.097-.233-.218 0-.12.105-.217.233-.217m3.203 6.685c.076 0 .137.057.137.128 0 .07-.061.128-.137.128-.076 0-.137-.057-.137-.128 0-.071.06-.128.137-.128m-4.035-4.977c.075 0 .136.057.136.128 0 .07-.06.128-.136.128-.077 0-.138-.057-.138-.128 0-.071.062-.128.138-.128m-6.932-7.228c.076 0 .137.057.137.128 0 .07-.06.128-.137.128-.076 0-.137-.057-.137-.128 0-.071.061-.128.137-.128m-3.766 3.697c.076 0 .137.057.137.128 0 .07-.06.128-.137.128-.076 0-.137-.058-.137-.128 0-.071.061-.128.137-.128m-4.936 7.945c.075 0 .136.057.136.128 0 .07-.06.128-.136.128-.077 0-.138-.058-.138-.128 0-.071.062-.128.138-.128m.039 4.938c.076 0 .137.057.137.128 0 .071-.06.128-.137.128-.076 0-.137-.057-.137-.128 0-.07.061-.128.137-.128m5.46 3.63c.076 0 .137.056.137.127 0 .072-.06.128-.137.128-.076 0-.138-.056-.138-.128 0-.07.062-.128.138-.128m4.872 1.241c.076 0 .137.056.137.127 0 .071-.061.128-.137.128-.076 0-.138-.057-.138-.128 0-.07.062-.128.138-.128m2.909-3.204c.076 0 .137.057.137.128 0 .071-.06.128-.137.128-.076 0-.137-.057-.137-.128 0-.07.061-.128.137-.128" fill="#2A67DC" mask="url(#b)"/><path d="M452.767 141.996a4.704 4.704 0 0 1-4.706 4.7H405.73a4.704 4.704 0 0 1-4.704-4.7V64.383a4.706 4.706 0 0 1 4.704-4.705h42.332a4.706 4.706 0 0 1 4.706 4.705v77.613z" fill="#FFF" mask="url(#b)"/><path d="M405.73 60.678a3.708 3.708 0 0 0-3.704 3.704v77.614a3.706 3.706 0 0 0 3.704 3.701h42.332a3.708 3.708 0 0 0 3.706-3.7V64.381a3.71 3.71 0 0 0-3.706-3.704H405.73zm42.332 87.02H405.73a5.71 5.71 0 0 1-5.704-5.702V64.382a5.71 5.71 0 0 1 5.704-5.704h42.332a5.712 5.712 0 0 1 5.706 5.704v77.614a5.71 5.71 0 0 1-5.706 5.701z" fill="#2A67DC" mask="url(#b)"/><path fill="#CEDAF2" mask="url(#b)" d="M405.73 134.715h42.331V70.039H405.73z"/><path d="M463.313 127.165l-11.109-22.155a7.22 7.22 0 0 0-4.162-3.217L428.86 93.16c-3.697-1.535-6.372-.796-7.906 2.903a7.25 7.25 0 0 0 3.918 9.477l15.704 8.548 5.884 11.733c-4.01 2.772-6.923 7.853-6.923 13.681 0 2.916-.114 5.64-.016 7.99h-25.209l9.547 23.653h36.021l4.24-38.496a7.22 7.22 0 0 0-.807-5.484" fill="#FFF" mask="url(#b)"/><path d="M424.534 170.145h34.45l4.165-37.74a6.202 6.202 0 0 0-.694-4.726l-.036-.065-11.109-22.155c-.767-1.274-2.04-2.258-3.552-2.706l-.127-.046-19.18-8.634c-1.62-.672-2.987-.836-4.03-.48-1.069.369-1.9 1.302-2.544 2.853-1.322 3.183.194 6.849 3.378 8.172l.095.046 15.98 8.696 6.414 12.789-.715.494c-4.004 2.769-6.492 7.695-6.492 12.859 0 1.06-.015 2.095-.029 3.096-.026 1.739-.05 3.382.011 4.853l.044 1.042h-24.77l8.741 21.652zm36.242 2h-37.592l-10.354-25.652h25.661c-.022-1.235-.003-2.55.017-3.924.014-.991.03-2.017.03-3.067 0-5.503 2.528-10.781 6.65-13.988l-5.365-10.697-15.385-8.373a8.2 8.2 0 0 1-4.413-4.448 8.197 8.197 0 0 1 .005-6.317c.863-2.081 2.122-3.42 3.74-3.975 1.541-.532 3.331-.357 5.474.533l19.148 8.619a8.22 8.22 0 0 1 4.67 3.642l11.128 22.187a8.182 8.182 0 0 1 .916 6.139l-4.33 39.32z" fill="#2A67DC" mask="url(#b)"/><path d="M412.576 128.696a5.994 5.994 0 0 1-5.994 5.994h-6.69a5.993 5.993 0 0 1-5.994-5.994 5.993 5.993 0 0 1 5.994-5.995h6.69a5.994 5.994 0 0 1 5.994 5.995" fill="#FFF" mask="url(#b)"/><path d="M399.892 123.701a5 5 0 0 0-4.995 4.994 5 5 0 0 0 4.995 4.994h6.689a5 5 0 0 0 4.995-4.994 5 5 0 0 0-4.995-4.994h-6.69zm6.689 11.988h-6.69a7.002 7.002 0 0 1-6.994-6.994c0-3.856 3.138-6.994 6.995-6.994h6.689c3.857 0 6.995 3.138 6.995 6.994 0 3.857-3.138 6.994-6.995 6.994z" fill="#2A67DC" mask="url(#b)"/><path d="M416.482 115.394a5.995 5.995 0 0 1-5.994 5.995h-10.596a5.994 5.994 0 0 1 0-11.989h10.596a5.995 5.995 0 0 1 5.994 5.994" fill="#FFF" mask="url(#b)"/><path d="M399.892 110.4a5 5 0 0 0-4.995 4.994 5 5 0 0 0 4.995 4.994h10.595a5 5 0 0 0 4.995-4.994 5 5 0 0 0-4.995-4.994h-10.595zm10.595 11.988h-10.595c-3.857 0-6.995-3.137-6.995-6.994 0-3.856 3.138-6.994 6.995-6.994h10.595c3.857 0 6.995 3.138 6.995 6.994 0 3.857-3.138 6.994-6.995 6.994z" fill="#2A67DC" mask="url(#b)"/><path d="M419.479 102.093a5.995 5.995 0 0 1-5.994 5.995h-13.593a5.994 5.994 0 0 1 0-11.989h13.593a5.995 5.995 0 0 1 5.994 5.994" fill="#FFF" mask="url(#b)"/><path d="M399.892 97.1a5 5 0 0 0-4.995 4.994 5 5 0 0 0 4.995 4.994h13.593a5 5 0 0 0 4.994-4.994 5 5 0 0 0-4.994-4.994h-13.593zm13.593 11.988h-13.593c-3.857 0-6.995-3.137-6.995-6.994 0-3.856 3.138-6.994 6.995-6.994h13.593c3.856 0 6.994 3.138 6.994 6.994a7.002 7.002 0 0 1-6.994 6.994z" fill="#2A67DC" mask="url(#b)"/><path d="M415.573 88.792a5.994 5.994 0 0 1-5.994 5.994h-9.687a5.994 5.994 0 1 1 0-11.988h9.687a5.995 5.995 0 0 1 5.994 5.994" fill="#FFF" mask="url(#b)"/><path d="M399.892 83.798a5 5 0 0 0-4.995 4.994 5.002 5.002 0 0 0 4.995 4.995h9.686a5.002 5.002 0 0 0 4.995-4.995 5 5 0 0 0-4.995-4.994h-9.686zm9.686 11.99h-9.686a7.003 7.003 0 0 1-6.995-6.996c0-3.857 3.138-6.994 6.995-6.994h9.686c3.857 0 6.995 3.137 6.995 6.994a7.003 7.003 0 0 1-6.995 6.995z" fill="#2A67DC" mask="url(#b)"/><path d="M411.8 89.473a2.726 2.726 0 0 1-5.45 0v-1.66a2.725 2.725 0 1 1 5.45 0v1.66z" fill="#FFF" mask="url(#b)"/><path d="M409.074 86.088c-.951 0-1.724.774-1.724 1.726v1.66c0 .95.773 1.725 1.724 1.725.952 0 1.726-.774 1.726-1.725v-1.66c0-.952-.774-1.726-1.726-1.726m0 7.11a3.728 3.728 0 0 1-3.724-3.724v-1.66a3.729 3.729 0 0 1 3.724-3.726 3.73 3.73 0 0 1 3.726 3.726v1.66a3.73 3.73 0 0 1-3.726 3.725" fill="#2A67DC" mask="url(#b)"/><path d="M416.3 102.473a2.726 2.726 0 0 1-5.45 0v-1.66a2.725 2.725 0 1 1 5.45 0v1.66z" fill="#FFF" mask="url(#b)"/><path d="M413.574 99.088c-.951 0-1.724.774-1.724 1.726v1.66c0 .95.773 1.725 1.724 1.725.952 0 1.726-.774 1.726-1.725v-1.66c0-.952-.774-1.726-1.726-1.726m0 7.11a3.728 3.728 0 0 1-3.724-3.724v-1.66a3.729 3.729 0 0 1 3.724-3.726 3.73 3.73 0 0 1 3.726 3.726v1.66a3.73 3.73 0 0 1-3.726 3.725" fill="#2A67DC" mask="url(#b)"/><path d="M413.383 115.89a2.726 2.726 0 0 1-5.45 0v-1.66a2.726 2.726 0 1 1 5.45 0v1.66z" fill="#FFF" mask="url(#b)"/><path d="M410.658 112.505c-.952 0-1.725.773-1.725 1.725v1.66c0 .95.774 1.725 1.725 1.725.952 0 1.726-.774 1.726-1.725v-1.66c0-.952-.774-1.725-1.726-1.725m0 7.11a3.728 3.728 0 0 1-3.725-3.725v-1.66a3.728 3.728 0 0 1 3.725-3.725 3.73 3.73 0 0 1 3.726 3.725v1.66a3.73 3.73 0 0 1-3.726 3.725" fill="#2A67DC" mask="url(#b)"/><path d="M409.55 129.64a2.726 2.726 0 0 1-5.45 0v-1.66a2.726 2.726 0 1 1 5.45 0v1.66z" fill="#FFF" mask="url(#b)"/><path d="M406.824 126.255c-.951 0-1.724.773-1.724 1.725v1.66c0 .95.773 1.725 1.724 1.725.952 0 1.726-.774 1.726-1.725v-1.66c0-.952-.774-1.725-1.726-1.725m0 7.11a3.728 3.728 0 0 1-3.724-3.725v-1.66a3.728 3.728 0 0 1 3.724-3.725 3.73 3.73 0 0 1 3.726 3.725v1.66a3.73 3.73 0 0 1-3.726 3.725" fill="#2A67DC" mask="url(#b)"/><path d="M431.613 99.009a3.796 3.796 0 0 1-5.046 1.829l-2.558-1.197a3.795 3.795 0 1 1 3.217-6.875l2.558 1.197a3.795 3.795 0 0 1 1.83 5.046" fill="#FFF" mask="url(#b)"/><path d="M425.618 93.406a2.79 2.79 0 0 0-.954.17 2.774 2.774 0 0 0-1.579 1.442 2.774 2.774 0 0 0-.096 2.138 2.77 2.77 0 0 0 1.442 1.578l2.56 1.198a2.802 2.802 0 0 0 3.716-1.347 2.8 2.8 0 0 0-1.347-3.717l-2.558-1.197a2.795 2.795 0 0 0-1.184-.265m2.55 8.79a4.772 4.772 0 0 1-2.025-.452l-2.559-1.198a4.762 4.762 0 0 1-2.476-2.708 4.767 4.767 0 0 1 .165-3.667 4.767 4.767 0 0 1 2.71-2.477 4.767 4.767 0 0 1 3.667.166l2.558 1.197a4.801 4.801 0 0 1 2.311 6.375 4.803 4.803 0 0 1-4.352 2.763" fill="#2A67DC" mask="url(#b)"/><path fill="#FFF" mask="url(#b)" d="M423.378 180.186h38.382v-9.042h-38.382z"/><path d="M424.378 179.186h36.383v-7.042h-36.383v7.042zm-2.001 2h40.383v-11.042h-40.383v11.042z" fill="#2A67DC" mask="url(#b)"/><path d="M424.378 256h36.383v-74.814h-36.383V256zm-2.001 2h40.383v-78.814h-40.383V258zm30.993-80.706h4.34v-3.472h-4.34z" fill="#2A67DC" mask="url(#b)"/><path fill="#FFF" mask="url(#b)" d="M29.202 242.202h123.036v-78.869H29.202z"/><path d="M30.202 241.202h121.036v-76.869H30.202v76.869zm122.036 2H29.202a1 1 0 0 1-1-1v-78.869a1 1 0 0 1 1-1h123.036a1 1 0 0 1 1 1v78.869a1 1 0 0 1-1 1z" fill="#2A67DC" mask="url(#b)"/><path fill="#FFF" mask="url(#b)" d="M22.892 185.416h138.81v-22.083H22.892z"/><path d="M23.892 184.417h136.81v-20.084H23.892v20.084zm137.81 2H22.892a1 1 0 0 1-1-1v-22.084a1 1 0 0 1 1-1h138.81a1 1 0 0 1 1 1v22.084a1 1 0 0 1-1 1z" fill="#2A67DC" mask="url(#b)"/><path fill="#FFF" mask="url(#b)" d="M41.821 242.202H54.44v-44.167H41.821z"/><path d="M42.82 241.202h10.619v-42.166H42.82v42.166zm11.619 2H41.82a1 1 0 0 1-1-1v-44.166a1 1 0 0 1 1-1h12.619a1 1 0 0 1 1 1v44.166a1 1 0 0 1-1 1z" fill="#2A67DC" mask="url(#b)"/><path fill="#FFF" mask="url(#b)" d="M54.44 242.202h12.619v-44.167H54.44z"/><path d="M55.439 241.202h10.619v-42.166H55.439v42.166zm11.62 2h-12.62a1 1 0 0 1-1-1v-44.166a1 1 0 0 1 1-1h12.62a1 1 0 0 1 1 1v44.166a1 1 0 0 1-1 1z" fill="#2A67DC" mask="url(#b)"/><path fill="#FFF" mask="url(#b)" d="M85.987 251.667h94.643v-53.631H85.987z"/><path d="M86.987 250.667h92.643v-51.631H86.987v51.631zm-2 2h96.643v-55.631H84.987v55.631z" fill="#2A67DC" mask="url(#b)"/><path d="M105.916 238.048h51.786v-26.393h-51.786v26.393zm-2 2h55.786v-30.393h-55.786v30.393zm-26.393-8.31h7.464v-20.083h-7.464v20.083zm-2 2h11.464v-24.083H75.523v24.083z" fill="#2A67DC" mask="url(#b)"/><path d="M83.763 183.072l-2.326 16.626c-.294 2.11 1.823 3.836 4.704 3.836 2.882 0 5.433-1.726 5.67-3.836l1.86-16.626h-9.908z" fill="#CEDAF2" mask="url(#b)"/><path d="M84.633 184.072l-2.206 15.765c-.074.535.084 1.031.472 1.476.664.765 1.877 1.221 3.242 1.221 2.356 0 4.497-1.35 4.676-2.947l1.736-15.515h-7.92zm1.508 20.462c-1.965 0-3.697-.695-4.752-1.908-.76-.875-1.096-1.965-.942-3.067l2.447-17.487H94.79l-1.986 17.737c-.295 2.65-3.223 4.725-6.663 4.725z" fill="#2A67DC" mask="url(#b)"/><path d="M93.672 183.072l-1.861 16.626c-.236 2.11 1.929 3.836 4.811 3.836 2.883 0 5.386-1.726 5.563-3.836l1.396-16.626h-9.909z" fill="#CEDAF2" mask="url(#b)"/><path d="M94.566 184.072l-1.762 15.737c-.074.669.241 1.179.518 1.489.692.774 1.926 1.236 3.3 1.236 2.342 0 4.434-1.337 4.566-2.919l1.305-15.543h-7.927zm2.056 20.462c-1.963 0-3.709-.693-4.79-1.902-.777-.869-1.138-1.95-1.015-3.045l1.96-17.515h11.891l-1.487 17.71c-.22 2.62-3.162 4.752-6.559 4.752z" fill="#2A67DC" mask="url(#b)"/><path d="M103.58 183.072c-.557 6.65-.836 9.976-1.395 16.626-.177 2.11 2.037 3.836 4.919 3.836 2.882 0 5.338-1.726 5.456-3.836l.93-16.626h-9.91z" fill="#CEDAF2" mask="url(#b)"/><path d="M104.5 184.072l-1.319 15.71c-.056.672.276 1.188.566 1.502.72.782 1.975 1.25 3.358 1.25 2.328 0 4.368-1.324 4.456-2.892l.871-15.57h-7.931zm2.605 20.462c-1.962 0-3.722-.691-4.83-1.897-.793-.86-1.178-1.934-1.087-3.022l1.474-17.543h11.885l-.989 17.682c-.148 2.635-3.043 4.78-6.454 4.78z" fill="#2A67DC" mask="url(#b)"/><path d="M113.49 183.072l-.93 16.626c-.118 2.11 2.143 3.836 5.026 3.836 2.882 0 5.29-1.726 5.348-3.836l.465-16.626h-9.909z" fill="#CEDAF2" mask="url(#b)"/><path d="M114.436 184.072l-.878 15.682c-.038.676.313 1.198.614 1.516.748.791 2.024 1.264 3.414 1.264 2.313 0 4.305-1.312 4.348-2.864l.437-15.598h-7.935zm3.15 20.462c-1.958 0-3.732-.689-4.867-1.89-.807-.853-1.219-1.92-1.158-3.002l.984-17.57h11.883l-.494 17.654c-.075 2.651-2.922 4.808-6.348 4.808z" fill="#2A67DC" mask="url(#b)"/><path d="M123.4 183.072l-.466 16.626c-.059 2.11 2.251 3.836 5.133 3.836 2.883 0 5.242-1.726 5.242-3.836v-16.626h-9.91z" fill="#CEDAF2" mask="url(#b)"/><path d="M124.372 184.072l-.438 15.654c-.02.682.35 1.209.665 1.533.776.798 2.073 1.275 3.469 1.275 2.299 0 4.24-1.299 4.24-2.836v-15.626h-7.936zm3.696 20.462c-1.953 0-3.741-.686-4.904-1.882-.822-.846-1.26-1.905-1.23-2.982l.493-17.598h11.883v17.626c0 2.667-2.8 4.836-6.242 4.836z" fill="#2A67DC" mask="url(#b)"/><path d="M133.309 183.072v16.626c0 2.11 2.359 3.836 5.24 3.836 2.883 0 5.194-1.726 5.135-3.836l-.465-16.626h-9.91z" fill="#CEDAF2" mask="url(#b)"/><path d="M134.31 184.072v15.626c0 1.537 1.941 2.836 4.24 2.836 1.396 0 2.693-.477 3.47-1.275.313-.324.683-.851.664-1.533l-.438-15.654h-7.937zm4.24 20.462c-3.44 0-6.24-2.169-6.24-4.836v-17.626h11.881l.492 17.598c.03 1.077-.407 2.136-1.229 2.982-1.163 1.196-2.95 1.882-4.904 1.882z" fill="#2A67DC" mask="url(#b)"/><path d="M143.219 183.072l.465 16.626c.059 2.11 2.465 3.836 5.349 3.836 2.882 0 5.144-1.726 5.026-3.836l-.931-16.626h-9.91z" fill="#CEDAF2" mask="url(#b)"/><path d="M144.247 184.072l.436 15.598c.044 1.552 2.036 2.864 4.35 2.864 1.389 0 2.665-.473 3.413-1.264.3-.318.652-.84.614-1.516l-.877-15.682h-7.936zm4.786 20.462c-3.427 0-6.274-2.157-6.348-4.808l-.495-17.654h11.884l.983 17.57c.06 1.082-.351 2.149-1.158 3.002-1.135 1.201-2.91 1.89-4.866 1.89z" fill="#2A67DC" mask="url(#b)"/><path d="M153.128 183.072l.93 16.626c.118 2.11 2.574 3.836 5.456 3.836 2.882 0 5.096-1.726 4.919-3.836l-1.396-16.626h-9.91z" fill="#CEDAF2" mask="url(#b)"/><path d="M154.185 184.072l.871 15.57c.088 1.568 2.13 2.892 4.457 2.892 1.382 0 2.638-.468 3.358-1.251.29-.313.621-.829.565-1.501l-1.319-15.71h-7.931zm5.328 20.462c-3.41 0-6.306-2.145-6.453-4.78l-.99-17.682h11.887l1.472 17.542c.091 1.089-.293 2.162-1.085 3.023-1.108 1.206-2.87 1.897-4.83 1.897z" fill="#2A67DC" mask="url(#b)"/><path d="M163.037 183.072l1.396 16.626c.177 2.11 2.68 3.836 5.562 3.836 2.883 0 5.048-1.726 4.812-3.836l-1.861-16.626h-9.909z" fill="#CEDAF2" mask="url(#b)"/><path d="M164.125 184.072l1.304 15.542c.132 1.583 2.225 2.92 4.566 2.92 1.375 0 2.608-.462 3.3-1.236.279-.31.593-.82.519-1.489l-1.762-15.737h-7.927zm5.87 20.462c-3.397 0-6.339-2.132-6.559-4.752l-1.487-17.71h11.891l1.96 17.515c.123 1.094-.237 2.175-1.014 3.044-1.08 1.21-2.827 1.903-4.79 1.903z" fill="#2A67DC" mask="url(#b)"/><path d="M172.946 183.072l1.86 16.626c.237 2.11 2.789 3.836 5.67 3.836 2.883 0 5-1.726 4.704-3.836l-2.326-16.626h-9.908z" fill="#CEDAF2" mask="url(#b)"/><path d="M174.064 184.072l1.736 15.515c.18 1.597 2.32 2.947 4.677 2.947 1.365 0 2.578-.456 3.242-1.221.387-.445.546-.941.47-1.476l-2.204-15.765h-7.921zm6.413 20.462c-3.44 0-6.368-2.075-6.664-4.725l-1.985-17.737h11.896l2.446 17.487c.155 1.102-.18 2.191-.941 3.067-1.055 1.213-2.788 1.908-4.752 1.908z" fill="#2A67DC" mask="url(#b)"/><path fill="#CEDAF2" mask="url(#b)" d="M164.857 172.797H19.737l3.155-22.083h138.81z"/><path d="M20.89 171.798h142.814l-2.869-20.084H23.76l-2.869 20.084zm145.12 2H18.583l3.441-24.084H162.57l3.44 24.084zm-51.331 65.25h2v-28.393h-2zm10.762 0h2v-28.393h-2zm10.763 0h2v-28.393h-2zm10.762 0h2v-28.393h-2z" fill="#2A67DC" mask="url(#b)"/><path fill="#FFF" mask="url(#b)" d="M507.954 246.723h28.668v-80.714h-28.668z"/><path d="M508.954 245.723h26.668v-78.714h-26.668v78.714zm-2 2h30.668v-82.714h-30.668v82.714z" fill="#2A67DC" mask="url(#b)"/><path fill="#FFF" mask="url(#b)" d="M512.731 241.944h19.112v-71.157h-19.112z"/><path d="M513.731 240.943h17.112v-69.156h-17.112v69.156zm-1.999 2h21.112v-73.156h-21.112v73.156z" fill="#2A67DC" mask="url(#b)"/><path d="M533.835 206.366c0-5.166-5.17-9.355-11.547-9.355-6.377 0-11.547 4.189-11.547 9.355 0 5.167 5.17 9.355 11.547 9.355 6.377 0 11.547-4.188 11.547-9.355" fill="#FFF" mask="url(#b)"/><path d="M522.288 198.01c-5.815 0-10.547 3.749-10.547 8.355 0 4.608 4.732 8.356 10.547 8.356s10.547-3.748 10.547-8.356c0-4.606-4.732-8.354-10.547-8.354m0 18.71c-6.92 0-12.547-4.646-12.547-10.356s5.628-10.354 12.547-10.354c6.918 0 12.547 4.645 12.547 10.354 0 5.71-5.63 10.356-12.547 10.356" fill="#2A67DC" mask="url(#b)"/><path d="M517.469 210.106l.494-2.264a2.653 2.653 0 0 1-.224-1.11c0-1.04.54-1.677 1.542-1.677 2.314 0 1.85 5.244 5.746 5.244 1.83 0 3.18-1.08 3.529-2.988h1.983v-1.543h-1.926c-.116-1.177-.655-2.467-1.465-3.336l-1.505 1.003c.714.907 1.194 1.813 1.194 2.854 0 1.253-.615 1.87-1.656 1.87-2.544 0-2.178-5.244-5.803-5.244-1.794 0-3.066 1.118-3.375 2.853h-1.966v1.543h1.929c.154 1.234.75 2.081 1.503 2.795" fill="#CEDAF2" mask="url(#b)"/><path d="M524.491 228.47a2.871 2.871 0 1 0-5.742 0 2.871 2.871 0 0 0 5.742 0" fill="#FFF" mask="url(#b)"/><path d="M521.62 226.598c-1.032 0-1.872.84-1.872 1.87 0 1.033.84 1.873 1.872 1.873s1.87-.84 1.87-1.872a1.873 1.873 0 0 0-1.87-1.871m0 5.743a3.876 3.876 0 0 1-3.872-3.872 3.876 3.876 0 0 1 3.872-3.871 3.875 3.875 0 0 1 3.87 3.87 3.876 3.876 0 0 1-3.87 3.873" fill="#2A67DC" mask="url(#b)"/><path d="M524.491 185.349a2.871 2.871 0 1 0-5.742 0 2.871 2.871 0 0 0 5.742 0" fill="#FFF" mask="url(#b)"/><path d="M521.62 183.478c-1.032 0-1.872.84-1.872 1.87 0 1.032.84 1.872 1.872 1.872s1.87-.84 1.87-1.871a1.873 1.873 0 0 0-1.87-1.871m0 5.742a3.876 3.876 0 0 1-3.872-3.871 3.876 3.876 0 0 1 3.872-3.871 3.875 3.875 0 0 1 3.87 3.87 3.875 3.875 0 0 1-3.87 3.872" fill="#2A67DC" mask="url(#b)"/><path fill="#FFF" mask="url(#b)" d="M474.518 246.723h28.668v-80.714h-28.668z"/><path d="M475.518 245.723h26.668v-78.714h-26.668v78.714zm-2 2h30.668v-82.714h-30.668v82.714z" fill="#2A67DC" mask="url(#b)"/><path fill="#FFF" mask="url(#b)" d="M479.296 241.944h19.112v-71.157h-19.112z"/><path d="M480.296 240.943h17.112v-69.156h-17.112v69.156zm-2 2h21.112v-73.156h-21.112v73.156z" fill="#2A67DC" mask="url(#b)"/><path d="M500.4 206.366c0-5.166-5.17-9.355-11.548-9.355-6.377 0-11.547 4.189-11.547 9.355 0 5.167 5.17 9.355 11.547 9.355 6.377 0 11.547-4.188 11.547-9.355" fill="#FFF" mask="url(#b)"/><path d="M488.852 198.01c-5.815 0-10.547 3.749-10.547 8.355 0 4.608 4.732 8.356 10.547 8.356s10.547-3.748 10.547-8.356c0-4.606-4.732-8.354-10.547-8.354m0 18.71c-6.918 0-12.547-4.646-12.547-10.356s5.63-10.354 12.547-10.354c6.92 0 12.547 4.645 12.547 10.354 0 5.71-5.628 10.356-12.547 10.356" fill="#2A67DC" mask="url(#b)"/><path d="M485.325 208.969c-.656-.713-1.022-1.312-1.022-2.237 0-1.041.54-1.676 1.543-1.676 2.313 0 1.85 5.243 5.745 5.243 1.832 0 3.18-1.08 3.53-2.988h1.982v-1.542h-1.926c-.115-1.177-.654-2.468-1.465-3.337l-1.504 1.003c.713.907 1.194 1.814 1.194 2.854 0 1.253-.616 1.87-1.657 1.87-2.544 0-2.178-5.244-5.803-5.244-1.793 0-3.066 1.119-3.374 2.854h-1.966v1.542h1.928c.154 1.234.75 2.082 1.503 2.795l1.292-1.137z" fill="#CEDAF2" mask="url(#b)"/><path d="M491.055 228.47a2.87 2.87 0 1 0-5.74-.002 2.87 2.87 0 0 0 5.74.001" fill="#FFF" mask="url(#b)"/><path d="M488.184 226.598a1.872 1.872 0 0 0 0 3.743c1.032 0 1.871-.84 1.871-1.872a1.873 1.873 0 0 0-1.87-1.871m0 5.743a3.876 3.876 0 0 1-3.872-3.872 3.875 3.875 0 0 1 3.871-3.871 3.875 3.875 0 0 1 3.871 3.87 3.876 3.876 0 0 1-3.87 3.873" fill="#2A67DC" mask="url(#b)"/><path d="M491.055 185.349a2.87 2.87 0 1 0-5.74-.001 2.87 2.87 0 0 0 5.74 0" fill="#FFF" mask="url(#b)"/><path d="M488.184 183.478c-1.032 0-1.87.84-1.87 1.87 0 1.032.838 1.872 1.87 1.872s1.871-.84 1.871-1.871a1.873 1.873 0 0 0-1.87-1.871m0 5.742a3.875 3.875 0 0 1-3.872-3.871 3.875 3.875 0 0 1 3.871-3.871 3.875 3.875 0 0 1 3.871 3.87 3.875 3.875 0 0 1-3.87 3.872" fill="#2A67DC" mask="url(#b)"/><path fill="#CEDAF2" mask="url(#b)" d="M468.918 257h71.37v-61.98h-71.37z"/><path d="M469.918 256h69.37v-59.98h-69.37V256zm-2 2h73.37v-63.98h-73.37V258z" fill="#2A67DC" mask="url(#b)"/><path fill="#FFF" mask="url(#b)" d="M468.918 257h16.904v-61.98h-16.904z"/><path d="M469.918 256h14.903v-59.98h-14.903V256zm-1.999 2h18.903v-63.98h-18.903V258z" fill="#2A67DC" mask="url(#b)"/><path d="M534.654 202.533h-43.198" fill="#CEDAF2" mask="url(#b)"/><path fill="#2A67DC" mask="url(#b)" d="M533.769 203.533h.885v-2h-.885zm-40.978 0h.39v-2h-.39v2zm1.407 0h2.036v-2h-2.036v2zm3.054 0h2.035v-2h-2.035v2zm3.053 0h2.035v-2h-2.035v2zm3.052 0h2.036v-2h-2.036v2zm3.054 0h2.035v-2h-2.035v2zm3.052 0h2.035v-2h-2.035v2zm3.053 0h2.035v-2h-2.035v2zm3.052 0h2.036v-2h-2.036v2zm3.054 0h2.035v-2h-2.035v2zm3.053 0h2.035v-2h-2.035v2zm3.053 0h2.035v-2h-2.035v2zm3.053 0h2.035v-2h-2.035v2zm3.052 0h2.035v-2h-2.035v2zm-39.377 0h.885v-2h-.885z"/><path d="M534.654 249.487h-43.198" fill="#CEDAF2" mask="url(#b)"/><path fill="#2A67DC" mask="url(#b)" d="M533.769 250.487h.885v-2h-.885zm-40.978 0h.39v-2h-.39v2zm1.407 0h2.036v-2h-2.036v2zm3.054 0h2.035v-2h-2.035v2zm3.053 0h2.035v-2h-2.035v2zm3.052 0h2.036v-2h-2.036v2zm3.054 0h2.035v-2h-2.035v2zm3.052 0h2.035v-2h-2.035v2zm3.053 0h2.035v-2h-2.035v2zm3.052 0h2.036v-2h-2.036v2zm3.054 0h2.035v-2h-2.035v2zm3.053 0h2.035v-2h-2.035v2zm3.053 0h2.035v-2h-2.035v2zm3.053 0h2.035v-2h-2.035v2zm3.052 0h2.035v-2h-2.035v2zm-39.377 0h.885v-2h-.885z"/><path d="M455.77 228.479a3.767 3.767 0 0 0 3.757 3.756h16.904a3.767 3.767 0 0 0 3.756-3.756v-11.27h-20.66a3.767 3.767 0 0 0-3.756 3.757v7.513z" fill="#FFF" mask="url(#b)"/><path d="M459.527 218.21a2.759 2.759 0 0 0-2.756 2.756v7.513a2.759 2.759 0 0 0 2.756 2.756h16.903a2.76 2.76 0 0 0 2.757-2.756V218.21h-19.66zm16.903 15.025h-16.903a4.761 4.761 0 0 1-4.756-4.756v-7.513a4.762 4.762 0 0 1 4.756-4.756h21.66v12.269a4.762 4.762 0 0 1-4.757 4.756z" fill="#2A67DC" mask="url(#b)"/><path d="M467.518 224.897a3.058 3.058 0 1 0-6.107-.35 3.058 3.058 0 0 0 6.107.35" fill="#FFF" mask="url(#b)"/><path d="M464.464 222.663a2.062 2.062 0 0 0-2.055 1.941 2.06 2.06 0 0 0 4.111.236 2.062 2.062 0 0 0-2.056-2.177m.002 6.118a4.065 4.065 0 0 1-4.054-4.29c.128-2.234 2.049-3.958 4.284-3.82a4.063 4.063 0 0 1 3.82 4.282 4.066 4.066 0 0 1-4.05 3.828" fill="#2A67DC" mask="url(#b)"/><path d="M360.442 134.184c.467-.234 4.166 2.44 7.13 4.92.595.498 7.573 6.833 2.09 5.989-1.023-.157-2.15-1.481-3.248-1.984-1.66-.76-4.074-1.214-4.549-.976-.789.394-.888 2.122-1.085 2.664-.197.543-.888.888-1.776.74-.888-.148-.79-2.417-1.184-4.194-.395-1.776-1.779-3.817-1.779-3.817l4.401-3.342" fill="#FFF" mask="url(#b)"/><path d="M359.372 144.571c.292.006.444-.08.472-.123.036-.1.064-.27.104-.469.19-.94.45-2.23 1.47-2.74 1.037-.519 4.075.35 5.412.96.568.26 1.088.66 1.592 1.045.495.38 1.055.81 1.39.86.433.067.712.073.882.061-.381-.992-2.577-3.303-3.764-4.294-2.853-2.388-5.35-4.129-6.268-4.599l-3.291 2.5c.474.815 1.152 2.122 1.426 3.354.13.591.208 1.2.282 1.79.068.538.166 1.315.293 1.655m.025 2a3.44 3.44 0 0 1-.556-.048c-1.351-.225-1.552-1.817-1.746-3.357-.07-.544-.14-1.108-.25-1.607-.348-1.563-1.62-3.455-1.632-3.473a1.002 1.002 0 0 1 .224-1.358l4.4-3.34a.932.932 0 0 1 .159-.099c.408-.206 1.368-.682 8.217 5.048.554.463 5.382 4.587 4.389 6.782-.607 1.344-2.48 1.058-3.092.962-.842-.13-1.586-.699-2.304-1.249-.416-.32-.846-.649-1.208-.815-1.341-.613-3.136-.955-3.717-.95-.155.23-.311 1.004-.373 1.308a5.918 5.918 0 0 1-.188.763c-.321.886-1.237 1.432-2.323 1.432" fill="#2A67DC" mask="url(#b)"/><path d="M249.792 134.164c-.467-.234-4.166 2.442-7.129 4.92-.596.499-7.574 6.834-2.09 5.989 1.022-.157 2.15-1.481 3.248-1.984 1.66-.76 4.073-1.213 4.55-.976.788.395.886 2.122 1.084 2.664.197.543.888.888 1.776.74.888-.148.79-2.417 1.183-4.193.395-1.776 1.78-3.818 1.78-3.818l-4.402-3.342" fill="#FFF" mask="url(#b)"/><path d="M247.908 141.06c.371 0 .686.048.91.159 1.019.51 1.279 1.799 1.469 2.739.039.198.068.369.107.478.026.036.19.122.469.116.127-.34.225-1.116.293-1.654.074-.59.151-1.2.282-1.791.274-1.231.952-2.54 1.427-3.355l-3.292-2.5c-.918.47-3.414 2.21-6.268 4.599-1.331 1.115-3.389 3.347-3.762 4.295.171.012.447.006.879-.061.336-.051.896-.481 1.39-.86.504-.386 1.025-.785 1.593-1.045 1.049-.48 3.148-1.12 4.503-1.12zm2.931 5.49c-1.087 0-2.002-.545-2.324-1.431a5.893 5.893 0 0 1-.189-.765c-.06-.298-.211-1.047-.386-1.307h-.026c-.615 0-2.365.35-3.676.95-.363.167-.793.498-1.21.816-.718.55-1.46 1.119-2.303 1.249-.615.096-2.485.383-3.092-.961-.991-2.187 3.834-6.32 4.387-6.783 6.853-5.731 7.813-5.253 8.22-5.048.055.028.108.06.157.098l4.402 3.34c.423.323.52.919.223 1.359-.013.018-1.283 1.91-1.632 3.473-.11.5-.182 1.064-.25 1.609-.194 1.538-.395 3.13-1.744 3.355a3.342 3.342 0 0 1-.557.047zm59.882 79.818c1.065.431 7.413.783 10.296.431 1.91-.23 3.183-.897 3.498-1.83.305-.909-.293-2.174-1.642-3.474-1.41-1.362-3.118-2.687-3.753-3.167l-8.553-.13c-.247 1.743-.418 5.288-.096 7.258.003.021.007.044.008.065l.009.041c.002.006.02.096.02.102l.043.21c.016.067.035.127.053.186l.033.111c.031.1.053.136.072.172a.447.447 0 0 1 .012.025m7.005 2.566c-3.224 0-7.23-.267-8.209-.953a1.779 1.779 0 0 1-.575-.7 3.044 3.044 0 0 1-.166-.362 3.04 3.04 0 0 1-.064-.203 5.945 5.945 0 0 1-.11-.388l-.04-.199.918-.353-.949.202a4.286 4.286 0 0 1-.038-.202 1.024 1.024 0 0 1-.012-.095c-.409-2.67-.063-7.417.293-8.754.12-.443.505-.775.983-.743l9.717.15c.209.002.41.07.579.193.094.071 2.355 1.738 4.209 3.53 2.637 2.542 2.478 4.567 2.149 5.547-.577 1.721-2.409 2.851-5.154 3.181-.786.095-2.08.15-3.531.15m-27.134-10.607c-.635.48-2.345 1.808-3.753 3.167-1.348 1.3-1.946 2.565-1.642 3.473.314.934 1.59 1.601 3.497 1.831 2.87.347 9.174.004 10.303-.439.031-.063.05-.097.065-.139l.035-.124c.03-.09.05-.155.066-.227l.07-.35.008-.064c.322-1.97.15-5.514-.096-7.259l-8.553.131zm1.398 10.607c-1.454 0-2.749-.055-3.535-.15-2.745-.33-4.576-1.46-5.154-3.18-.329-.98-.487-3.006 2.15-5.549 1.853-1.79 4.113-3.458 4.208-3.529a.998.998 0 0 1 .578-.194l9.72-.148a1.02 1.02 0 0 1 .981.742c.356 1.338.701 6.085.293 8.755-.003.032-.006.065-.012.097l-.04.205-.946-.057v.008l.922.172a4.183 4.183 0 0 1-.14.556 3.426 3.426 0 0 1-.078.253c-.054.144-.11.257-.169.367a1.764 1.764 0 0 1-.577.701c-.977.683-4.979.951-8.2.951zm68.337-95.557l.001.001v-.001zm-5.293 2.993l.316.424 4.804-3.649-.315-.423-4.805 3.648zm.26 2.547a1.685 1.685 0 0 1-1.364-.682l-.672-.901a1.716 1.716 0 0 1 .335-2.382l5.28-4.009c.362-.275.808-.39 1.261-.329.452.064.851.3 1.124.665l.673.903a1.71 1.71 0 0 1-.337 2.381l-5.278 4.009a1.686 1.686 0 0 1-1.022.345z" fill="#2A67DC" mask="url(#b)"/><path d="M249.848 132.95l.001.001zm.231.176l4.805 3.65.316-.425-4.806-3.648-.315.423zm4.861 5.772c-.368 0-.723-.119-1.02-.344l-5.28-4.01a1.713 1.713 0 0 1-.339-2.38l.674-.902a1.697 1.697 0 0 1 2.385-.337l5.28 4.007c.744.566.895 1.634.335 2.383l-.67.901a1.68 1.68 0 0 1-1.365.682z" fill="#2A67DC" mask="url(#b)"/><path d="M299.552 61.057h11.173a3.006 3.006 0 0 1 2.998 2.997v18.9a3.007 3.007 0 0 1-2.998 2.998h-11.173a3.007 3.007 0 0 1-2.998-2.998v-18.9a3.006 3.006 0 0 1 2.998-2.997" fill="#FFF" mask="url(#b)"/><path d="M299.552 62.057a2 2 0 0 0-1.998 1.997v18.9a2 2 0 0 0 1.998 1.998h11.173a2 2 0 0 0 1.998-1.998v-18.9a2 2 0 0 0-1.998-1.997h-11.173zm11.173 24.895h-11.173a4.002 4.002 0 0 1-3.998-3.998v-18.9a4.002 4.002 0 0 1 3.998-3.997h11.173a4.002 4.002 0 0 1 3.998 3.997v18.9a4.002 4.002 0 0 1-3.998 3.998zM293.668 40.16l2.943-.325c.647-.07 1.235.4 1.306 1.047v.001c.072.647-.4 1.235-1.047 1.306l-2.943.325a1.187 1.187 0 0 1-1.306-1.047 1.187 1.187 0 0 1 1.047-1.307m22.035 0l-2.942-.325a1.188 1.188 0 0 0-1.307 1.047v.001c-.07.647.4 1.235 1.048 1.306l2.942.325c.647.072 1.235-.4 1.307-1.047.07-.648-.4-1.236-1.048-1.307m-19.694 4.145c.763 0 1.382.585 1.382 1.307s-.62 1.308-1.382 1.308c-.763 0-1.381-.586-1.381-1.308 0-.722.618-1.307 1.38-1.307m17.355 0c-.763 0-1.381.585-1.381 1.307s.618 1.308 1.38 1.308c.764 0 1.383-.586 1.383-1.308 0-.722-.62-1.307-1.382-1.307m-8.558 2.84c.913 0 1.653.409 1.653.913s-.74.913-1.653.913-1.653-.41-1.653-.913c0-.504.74-.913 1.653-.913m-4.825 6.295a.698.698 0 0 1 1.235-.65 4.547 4.547 0 0 0 2.191 2.067 4.278 4.278 0 0 0 1.805.364 3.869 3.869 0 0 0 1.728-.443c.726-.385 1.351-1.028 1.752-1.942a.696.696 0 1 1 1.278.558c-.537 1.223-1.387 2.092-2.38 2.618a5.25 5.25 0 0 1-2.35.602 5.663 5.663 0 0 1-2.39-.479 5.942 5.942 0 0 1-2.869-2.695" fill="#2A67DC" mask="url(#b)"/><path d="M333.408 118.788c7.896 8.873 10.685 10.857 20.479 16.131l4.578-3.646a842.602 842.602 0 0 0-2.185-3.15c-3.414-4.914-7.665-11.03-11.386-16.96-4.72-7.52-7.453-14.31-10.347-21.499-1.08-2.684-2.197-5.456-3.46-8.382l-.038-.05c-3.238-2.7-6.747-4.515-10.458-6.435-1.148-.594-2.308-1.194-3.476-1.828l-4.684 1.408c-1.312 1.418-2.641 2.726-3.929 3.993-.908.895-1.805 1.777-2.676 2.678-.376.388-1.061.39-1.438 0-.869-.9-1.764-1.78-2.671-2.674-1.289-1.268-2.62-2.577-3.933-3.997L293.1 72.97c-1.168.634-2.328 1.234-3.477 1.83-3.714 1.92-7.226 3.736-10.464 6.44-1.27 2.938-2.391 5.721-3.476 8.416-2.892 7.185-5.625 13.971-10.343 21.488-3.718 5.926-7.966 12.04-11.379 16.951a931.949 931.949 0 0 0-2.191 3.16l4.577 3.645c9.828-5.293 12.603-7.27 20.558-16.218a1 1 0 1 1 1.74.788c-.673 5.313-1.044 9.99-1.073 12.132 18.539 3.548 37.057 3.55 55.071.005-.028-2.145-.401-6.836-1.077-12.165a1 1 0 1 1 1.842-.653m20.586 18.324a.997.997 0 0 1-.473-.119c-9.477-5.088-12.82-7.264-19.596-14.647.497 4.508.788 8.578.705 10.135a1 1 0 0 1-.8.928c-18.779 3.805-38.105 3.806-57.44.001a1 1 0 0 1-.805-.928c-.083-1.556.208-5.626.705-10.134-6.762 7.366-10.109 9.542-19.577 14.626a1 1 0 0 1-1.096-.099l-5.822-4.638a.999.999 0 0 1-.201-1.347c.786-1.149 1.71-2.478 2.725-3.938 3.401-4.894 7.634-10.986 11.327-16.87 4.624-7.368 7.324-14.074 10.182-21.174 1.116-2.772 2.27-5.639 3.589-8.682a.997.997 0 0 1 .271-.365c3.461-2.932 7.131-4.83 11.016-6.84 1.255-.649 2.524-1.305 3.803-2.007a.996.996 0 0 1 .769-.08l5.345 1.607a.99.99 0 0 1 .45.281c1.339 1.461 2.717 2.816 4.048 4.127.671.66 1.336 1.315 1.988 1.974.654-.66 1.32-1.317 1.992-1.978 1.331-1.31 2.707-2.664 4.045-4.123a.992.992 0 0 1 .449-.28l5.346-1.609a.997.997 0 0 1 .769.081c1.278.702 2.547 1.358 3.802 2.007 3.885 2.01 7.555 3.908 11.017 6.84a.992.992 0 0 1 .148.156.867.867 0 0 1 .143.23c1.317 3.038 2.469 5.901 3.584 8.67 2.86 7.103 5.561 13.812 10.186 21.183 3.696 5.89 7.932 11.984 11.335 16.881a829.427 829.427 0 0 1 2.718 3.928 1 1 0 0 1-.201 1.348l-5.823 4.637a.994.994 0 0 1-.623.218" fill="#2A67DC" mask="url(#b)"/><path d="M310.682 215.219h8.495l.232-2.296c.275-2.741.542-5.39.817-7.957.537-5.023 1.226-10.93 2.254-16.642 1.09-6.043 2.482-11.875 3.956-18.048.972-4.07 1.977-8.278 2.995-12.94.934-4.28 1.64-8.207 2.156-12.003l.018-.121c.076-.557.132-1.036.188-1.514l.112-.927c.033-.271.066-.542.096-.815.028-.26.052-.521.075-.783l.078-.825c.052-.528.104-1.058.145-1.591l.056-.863c.056-.786.11-1.57.148-2.361l.021-.63c.024-.577.046-1.125.063-1.666a4708.623 4708.623 0 0 0-54.98 0c.005.177.012.355.02.532l.035 1.036c.007.265.015.53.028.795.025.526.061 1.05.096 1.573l.055.844c.015.259.031.518.051.776.043.542.096 1.08.148 1.618l.078.823c.021.24.043.48.07.719.061.584.134 1.162.207 1.742l.088.724c.027.223.052.446.082.666.082.61.174 1.217.265 1.823l.19 1.28c.12.755.25 1.507.382 2.257l.14.816c.15.834.311 1.663.475 2.49l.106.558c.204 1.015.415 2.023.635 3.026 1.02 4.67 2.025 8.885 3 12.96 1.471 6.168 2.863 11.993 3.95 18.029 1.353 7.518 2.15 15.43 3.071 24.592l.233 2.303h8.495c.833-5.783 1.378-13.025 1.953-20.671.588-7.82 1.197-15.905 2.146-22.32.074-.5.536-.84 1.012-.854l1.368.032a.999.999 0 0 1 .968.872c.773 5.995 1.288 13.596 1.786 20.947.532 7.852 1.081 15.96 1.942 21.994m9.4 2h-10.263a1 1 0 0 1-.989-.85c-.946-6.19-1.525-14.741-2.086-23.01-.43-6.374-.876-12.938-1.489-18.447-.757 5.91-1.286 12.95-1.8 19.786-.608 8.064-1.18 15.68-2.097 21.672a.999.999 0 0 1-.989.849h-10.262a1 1 0 0 1-.995-.9l-.323-3.203c-.918-9.12-1.71-16.997-3.05-24.438-1.077-5.98-2.462-11.778-3.928-17.918-.975-4.085-1.984-8.31-3.007-12.998a179.688 179.688 0 0 1-.642-3.06l-.108-.564c-.165-.837-.328-1.676-.48-2.522l-.142-.825c-.133-.763-.267-1.524-.388-2.291l-.192-1.294c-.093-.617-.186-1.234-.269-1.855a40.288 40.288 0 0 1-.086-.698l-.087-.71a85.262 85.262 0 0 1-.21-1.776c-.028-.25-.05-.501-.074-.754l-.076-.807c-.054-.551-.108-1.101-.152-1.656-.02-.27-.037-.542-.053-.813l-.054-.828c-.036-.536-.073-1.073-.099-1.613-.013-.277-.02-.556-.03-.834l-.034-1.015a52.168 52.168 0 0 1-.04-1.256c0-.03 0-.06.002-.09l-.007-.246a.999.999 0 0 1 .994-1.013c19.19-.113 37.846-.113 57.034 0 .267.002.522.11.71.3.185.192.288.448.284.715l-.005.189c.003.036.004.073.004.109a97.756 97.756 0 0 1-.08 2.37l-.023.7a104.38 104.38 0 0 1-.15 2.409l-.058.878a78.37 78.37 0 0 1-.149 1.63l-.076.81c-.024.273-.049.547-.078.818-.03.284-.066.566-.1.847l-.058.47-.052.444c-.058.49-.116.98-.18 1.467-.002.005-.017.109-.018.114-.537 3.94-1.252 7.918-2.197 12.25-1.022 4.682-2.029 8.899-3.003 12.978-1.468 6.146-2.854 11.952-3.933 17.939-1.018 5.65-1.7 11.512-2.235 16.5-.277 2.593-.546 5.266-.825 8.035l-.309 3.069c-.05.51-.486.936-.999.936" fill="#2A67DC" mask="url(#b)"/><path d="M334.169 127.87l-5.701.356c-.276-11.795-2.77-21.565-4.85-33.13-1.295-7.214-2.471-14.462-3.365-21.947-.24-2.014-4.717-2.15-6.476-2.41l.1 12.215c-.106 2.088-1.444 2.977-3.168 2.998-3.627.043-7.36.043-10.986 0-1.724-.02-3.062-.91-3.17-2.998l.102-12.216c-.68.101-1.764.184-2.854.363-.042.006-.084.015-.126.022-.141.024-.282.05-.422.078l-.208.044c-.131.028-.26.058-.387.09-.068.017-.136.034-.203.053a7.785 7.785 0 0 0-.4.122c-.05.016-.1.031-.147.048a4.922 4.922 0 0 0-.493.202c-.033.015-.06.033-.091.05-.12.06-.233.123-.337.192-.045.03-.085.061-.127.092a2.308 2.308 0 0 0-.334.308 1.445 1.445 0 0 0-.164.236c-.022.038-.048.074-.066.113-.057.125-.1.256-.118.398-.894 7.485-2.07 14.733-3.365 21.947-2.08 11.565-4.572 21.335-4.85 33.13l-5.7-.357c-.902.266-1.498 4.727.126 5.784 2.245.263 3.174.501 5.574.74l-2.22 33.056c-.143 2.98-.63 6.242 2.266 6.477a87.497 87.497 0 0 0 1.584.114l.522.034c.237.015.486.03.732.043l.417.024.978.05.213.01c.38.018.77.036 1.168.053l.082.003a207.903 207.903 0 0 0 1.309.052c12.239.455 30.636.328 39.409-.383 2.895-.235 2.409-3.497 2.266-6.477l-2.22-33.056c2.4-.239 3.33-.477 5.575-.74 1.623-1.057 1.027-5.518.125-5.784" fill="#CEDAF2" mask="url(#b)"/><path d="M276.806 132.696a68.94 68.94 0 0 1 2.17.304c.908.137 1.766.267 3.085.398a1 1 0 0 1 .9 1.063l-2.266 33.88c-.194 3.341-.02 4.473 1.394 4.587.321.027.656.053 1.003.077l3.304.192.107.005 2.521.107c12.886.478 30.88.305 39.317-.38 1.415-.115 1.59-1.248 1.395-4.592l-.047-.84-2.218-33.036a1 1 0 0 1 .9-1.063c1.318-.13 2.177-.26 3.086-.398.651-.099 1.316-.2 2.168-.304.166-.203.301-.573.374-1.037.174-1.11-.045-2.268-.244-2.762l-5.225.327a1.014 1.014 0 0 1-.739-.26 1.008 1.008 0 0 1-.323-.714c-.212-9.038-1.753-16.953-3.384-25.332a532.97 532.97 0 0 1-1.449-7.645c-1.518-8.442-2.59-15.434-3.376-22.005-.104-.88-3.242-1.263-4.473-1.402l.092 11.08c-.125 2.464-1.718 3.976-4.157 4.006-3.653.044-7.357.043-11.01 0-2.44-.03-4.032-1.542-4.156-3.946l.09-11.14c-.516.06-1.098.126-1.682.222l-.288-.965.167.986c-.133.023-.264.047-.395.073l-.177.037c-.136.03-.252.057-.367.085l-.18.048c-.124.033-.24.07-.356.108l-.459-.902.334.942c-.14.05-.273.103-.398.163a3.317 3.317 0 0 0-.307.174 5.555 5.555 0 0 0-.08.06 1.185 1.185 0 0 0-.126.107l-.106.138a.334.334 0 0 0-.054.127c-.785 6.572-1.858 13.564-3.374 22.004-.472 2.622-.965 5.152-1.448 7.635-1.632 8.383-3.174 16.3-3.387 25.342a1.003 1.003 0 0 1-.323.714 1.01 1.01 0 0 1-.739.26l-5.224-.327c-.2.494-.418 1.653-.244 2.762.073.464.208.834.374 1.037m28.398 42.884c-5.616 0-11.298-.088-16.228-.272l-1.313-.05-.11-.007-1.254-.056-.108-.005-3.237-.189a179.52 179.52 0 0 1-1.027-.078c-3.6-.292-3.386-3.996-3.229-6.699l.045-.823 2.158-32.116a62.829 62.829 0 0 1-2.226-.308c-.706-.107-1.429-.217-2.403-.33a.997.997 0 0 1-.429-.156c-1.415-.92-1.642-3.147-1.383-4.923.154-1.054.543-2.37 1.52-2.658.112-.033.23-.045.345-.039l4.668.293c.304-8.778 1.806-16.49 3.393-24.639.481-2.473.972-4.993 1.442-7.605 1.51-8.4 2.577-15.357 3.357-21.889a2.29 2.29 0 0 1 .202-.697c.017-.039.082-.154.105-.19a2.499 2.499 0 0 1 .437-.567c.104-.1.213-.195.333-.284.076-.057.125-.094.178-.129.132-.087.278-.17.433-.248.032-.019.072-.04.116-.06a6.22 6.22 0 0 1 .711-.282c.188-.062.337-.108.491-.15l.224-.059c.137-.035.278-.068.421-.098l.224-.048c.148-.029.298-.056.45-.082l.13-.024a37.633 37.633 0 0 1 1.916-.249c.363-.04.69-.077.952-.116a1 1 0 0 1 1.147.998l-.1 12.217c.067 1.302.781 1.972 2.18 1.99 3.637.042 7.325.042 10.962 0 1.398-.018 2.112-.688 2.182-2.05l-.102-12.157a.999.999 0 0 1 1.147-.998c.261.04.584.075.945.115 2.421.27 6.08.676 6.377 3.168.78 6.531 1.847 13.486 3.357 21.89.47 2.615.962 5.138 1.444 7.615 1.586 8.144 3.087 15.854 3.39 24.628l4.67-.293a1.01 1.01 0 0 1 .344.04c.977.286 1.365 1.602 1.52 2.656.26 1.776.033 4.003-1.383 4.924a.988.988 0 0 1-.429.155c-.974.114-1.697.224-2.402.331-.697.106-1.365.206-2.226.308l2.201 32.935c.158 2.705.374 6.411-3.229 6.703-5.259.426-14.192.657-23.299.657m-15.839 38.902c-.26 0-.48.22-.48.48v1.678c0 .26.22.48.48.48h11.546c.26 0 .48-.22.48-.48v-1.678c0-.26-.22-.48-.48-.48h-11.546zm11.546 4.637h-11.546a2.483 2.483 0 0 1-2.48-2.48v-1.678a2.482 2.482 0 0 1 2.48-2.48h11.546a2.482 2.482 0 0 1 2.48 2.48v1.678a2.483 2.483 0 0 1-2.48 2.48zm8.219-4.637c-.26 0-.48.22-.48.48v1.678c0 .26.22.48.48.48h11.547c.26 0 .48-.22.48-.48v-1.678c0-.26-.22-.48-.48-.48H309.13zm11.547 4.637H309.13a2.483 2.483 0 0 1-2.48-2.48v-1.678a2.483 2.483 0 0 1 2.48-2.48h11.546a2.482 2.482 0 0 1 2.48 2.48v1.678a2.483 2.483 0 0 1-2.48 2.48z" fill="#2A67DC" mask="url(#b)"/><path d="M324.746 42.876c-3.755-2.829-6.048-6.96-5.862-10.596a1 1 0 0 0-.908-1.048l-2.222-.203a849.104 849.104 0 0 0-4.258-.384 151.2 151.2 0 0 1-2.714-.266c-2.31-.239-4.783-.495-7.235-.495-2.238 0-4.459.214-6.525.847-5.268 1.618-7.506 5.428-9 8.941a.277.277 0 0 0-.01.026 40.543 40.543 0 0 0-.39.949 67.256 67.256 0 0 1-.219-1.706.947.947 0 0 0-.006-.075 50.743 50.743 0 0 1-.32-4.946c-.006-.425.002-.849.01-1.274l.004-.493c.017-.584.048-1.166.093-1.745.606-7.708 4.617-12.021 12.622-13.573 4.295-.833 7.9-1.059 11.022-.69.4.048.783.102 1.161.161l.318.052c.287.048.566.099.934.173l.165.032c.34.072.668.149.986.232l.103.03.101.028c.252.069.5.142.74.219l.264.086c.257.087.507.178.75.275l.368-.931-.256.973c.272.11.535.228.795.353l.212.106c.194.096.385.198.654.35l.12.067c.236.139.468.284.694.438l.561-.828-.45.907c.192.133.38.271.564.416l.197.155c.174.141.345.287.518.442l.125.11c.206.188.408.385.607.589l.345.364a.87.87 0 0 0 .068.082c.594.656 1.167 1.38 1.751 2.214l.04.053.515.763c.19.29.381.588.572.895.366.919.688 1.758.98 2.551a.977.977 0 0 0 .038.094l-.004.002c.154.42.296.824.428 1.214l.075.215c.152.453.29.889.415 1.31l.073.265c.091.318.178.633.254.939l.093.4c.058.25.114.5.162.746l.077.423c.041.233.078.467.111.698l.055.419c.028.235.05.472.07.709l.03.395c.017.268.026.54.033.811l.01.316c.018 1.837-.175 3.861-.504 6.418zM319.58 54.29c-3.08 3.612-8.34 5.769-14.07 5.769-5.73.001-10.99-2.157-14.072-5.769-4.665-5.471-3.882-11.297-3.546-13.785l.022-.174c1.377-3.203 3.28-6.332 7.695-7.687 3.94-1.211 8.53-.735 12.966-.275.934.096 1.853.192 2.75.269 1.4.121 2.814.251 4.246.383l1.314.12c.177 3.97 2.638 8.238 6.501 11.213-.094 3.744-1.373 7.084-3.806 9.936zm7.67-17.858l-.01-.336c-.008-.3-.018-.597-.036-.888l-.035-.434a20.141 20.141 0 0 0-.262-2.032l-.08-.441a27.863 27.863 0 0 0-.177-.813l-.1-.433a30.608 30.608 0 0 0-.273-1.004l-.077-.281a44.126 44.126 0 0 0-.436-1.379l-.078-.222a60.217 60.217 0 0 0-.443-1.258l-.036-.1-.022-.056c-.3-.816-.632-1.68-1.01-2.627a1.07 1.07 0 0 0-.078-.155 51.635 51.635 0 0 0-.648-1.016l-.338-.501a19.253 19.253 0 0 0-.247-.365 1.545 1.545 0 0 0-.049-.064 24.3 24.3 0 0 0-1.779-2.252 1.047 1.047 0 0 0-.078-.098l-.467-.493a17.019 17.019 0 0 0-.685-.665l-.149-.132a15.663 15.663 0 0 0-.593-.505l-.225-.178a15.023 15.023 0 0 0-.779-.571c-.26-.176-.53-.345-.804-.506l-.233-.131a14.875 14.875 0 0 0-.709-.376l-.196-.098c-.294-.14-.594-.275-.905-.401l-.127-.049c-.274-.108-.555-.21-.845-.308l-.297-.098a23.68 23.68 0 0 0-.899-.265l-.145-.04a23.92 23.92 0 0 0-1.08-.255l-.279-.055a27.551 27.551 0 0 0-.976-.177l-.269-.044a33.41 33.41 0 0 0-1.233-.171c-3.33-.393-7.137-.16-11.637.712-8.902 1.726-13.558 6.757-14.236 15.38-.048.611-.08 1.225-.098 1.84l-.006.52c-.007.445-.015.89-.009 1.369a52.71 52.71 0 0 0 .324 5.033 3.352 3.352 0 0 0 .019.175c.094.842.208 1.681.333 2.517l.087.556c.127.807.262 1.612.41 2.408.543 18.607 11.394 27.082 21.26 27.082 9.88 0 20.746-8.5 21.26-27.161a1 1 0 0 0-.063-.379l-.089-.235c.408-3.049.654-5.39.631-7.541v-.003zM222.847 38.61" fill="#2A67DC" mask="url(#b)"/><path d="M288.368 20.012c11.52-3.528 15.903-3.321 27.92-2.647-.937-3.354-5.738-17.115-9.901-15.128-.536.255-.882.656-1.228 1.05-1.308 1.497-1.486 1.008-2.856.08-1.032-.7-1.825-1.044-2.495-1.067-2.616-.085-9.935 15.025-11.44 17.712" fill="#CEDAF2" mask="url(#b)"/><path d="M299.774 3.3c-1.181.3-4.332 5.31-9.313 14.89l-.098.187c9.708-2.773 14.388-2.655 24.558-2.09-1.474-4.637-4.574-11.939-7.161-13.115-.46-.209-.745-.127-.942-.034-.342.164-.585.44-.891.79-1.502 1.717-2.363 1.564-3.731.585a15.859 15.859 0 0 0-.454-.319c-.867-.587-1.511-.88-1.968-.895m-11.406 17.712a.998.998 0 0 1-.872-1.488c.25-.448.663-1.243 1.19-2.257C294.928 5.263 297.712 1.247 299.84 1.3c.869.03 1.8.411 3.023 1.238.186.125.35.243.498.35.16.113.349.25.469.32.09-.07.268-.226.577-.579.38-.435.835-.955 1.55-1.296.827-.393 1.736-.388 2.63.018 4.679 2.127 8.627 15.61 8.665 15.744a1 1 0 0 1-1.02 1.268c-11.725-.658-16.113-.904-27.571 2.605a1.024 1.024 0 0 1-.293.043" fill="#2A67DC" mask="url(#b)"/><path d="M307.076 2.05a1.948 1.948 0 0 0-.689.187c-.536.255-.882.655-1.228 1.05-1.308 1.496-1.487 1.007-2.856.079-1.032-.698-1.825-1.044-2.496-1.066a.86.86 0 0 0-.22.027c2.081 12.326 5.38 17.218 7.49-.277" fill="#CEDAF2" mask="url(#b)"/><path d="M300.836 3.645c1.272 6.846 2.45 8.412 2.786 8.732.318-.326 1.26-1.807 2.182-8.311-1.427 1.571-2.277 1.4-3.608.447-.135-.097-.285-.205-.454-.319a9.344 9.344 0 0 0-.906-.549m2.718 10.794c-.907 0-3.011-.448-4.953-11.945a1 1 0 0 1 .75-1.139c.175-.042.333-.062.49-.055.868.03 1.8.411 3.022 1.238.186.126.35.243.498.35.16.114.349.249.469.32.092-.069.268-.226.577-.579.38-.435.835-.955 1.55-1.295a2.955 2.955 0 0 1 1.037-.281.999.999 0 0 1 1.075 1.117c-1.293 10.72-2.88 12.231-4.4 12.267a4.12 4.12 0 0 1-.115.002" fill="#2A67DC" mask="url(#b)"/><path d="M163.51 235.77h217.502c4.378 0 7.96 3.583 7.96 7.962v5.307c0 4.379-3.582 7.96-7.96 7.96H163.51c-4.378 0-7.96-3.581-7.96-7.96v-5.307c0-4.38 3.582-7.961 7.96-7.961" fill="#FFF" mask="url(#b)"/><path d="M163.51 236.77c-3.838 0-6.96 3.123-6.96 6.962v5.308a6.968 6.968 0 0 0 6.96 6.96h217.502a6.968 6.968 0 0 0 6.96-6.96v-5.308c0-3.839-3.122-6.962-6.96-6.962H163.51zM381.012 258H163.51c-4.941 0-8.96-4.02-8.96-8.96v-5.308c0-4.941 4.019-8.962 8.96-8.962h217.502c4.941 0 8.96 4.02 8.96 8.962v5.308c0 4.94-4.019 8.96-8.96 8.96z" fill="#2A67DC" mask="url(#b)"/><path d="M163.51 235.77h217.502c4.378 0 7.96 3.583 7.96 7.962v1.813H155.55v-1.813c0-4.38 3.583-7.961 7.961-7.961" fill="#FFF" mask="url(#b)"/><path d="M156.55 244.545h231.423v-.813a6.97 6.97 0 0 0-6.961-6.961H163.51a6.968 6.968 0 0 0-6.96 6.96v.814zm233.423 2H154.55v-2.813c0-4.942 4.02-8.961 8.96-8.961h217.502c4.94 0 8.96 4.019 8.96 8.96v2.814z" fill="#2A67DC" mask="url(#b)"/><path d="M392.748 157.209v68.43c0 5.557-4.55 10.106-10.105 10.106h-220.91c-5.557 0-10.106-4.547-10.106-10.105v-68.431h241.121z" fill="#FFF" mask="url(#b)"/><path d="M152.627 158.209v67.431c0 5.02 4.085 9.105 9.105 9.105h220.911c5.021 0 9.105-4.085 9.105-9.105v-67.431h-239.12zm230.016 78.536h-220.91c-6.124 0-11.106-4.981-11.106-11.105v-69.431h243.121v69.431c0 6.124-4.982 11.105-11.105 11.105z" fill="#2A67DC" mask="url(#b)"/><path d="M344.464 166.034h28.352c5.096 0 9.265 4.17 9.265 9.266v43.004c0 5.096-4.17 9.265-9.265 9.265h-28.352c-5.096 0-9.266-4.17-9.266-9.265V175.3c0-5.096 4.17-9.266 9.266-9.266" fill="#FFF" mask="url(#b)"/><path d="M344.464 167.034c-4.558 0-8.266 3.708-8.266 8.266v43.004c0 4.557 3.708 8.264 8.266 8.264h28.352c4.558 0 8.265-3.707 8.265-8.264V175.3c0-4.558-3.707-8.266-8.265-8.266h-28.352zm28.352 61.534h-28.352c-5.661 0-10.266-4.604-10.266-10.264V175.3c0-5.66 4.605-10.266 10.266-10.266h28.352c5.66 0 10.265 4.605 10.265 10.266v43.004c0 5.66-4.605 10.264-10.265 10.264z" fill="#2A67DC" mask="url(#b)"/><path d="M286.83 166.034h28.351c5.096 0 9.265 4.17 9.265 9.266v43.004c0 5.096-4.169 9.265-9.265 9.265H286.83c-5.096 0-9.266-4.17-9.266-9.265V175.3c0-5.096 4.17-9.266 9.266-9.266" fill="#FFF" mask="url(#b)"/><path d="M286.83 167.034c-4.559 0-8.267 3.708-8.267 8.266v43.004c0 4.557 3.708 8.264 8.266 8.264h28.352c4.558 0 8.265-3.707 8.265-8.264V175.3c0-4.558-3.707-8.266-8.265-8.266H286.83zm28.351 61.534H286.83c-5.66 0-10.266-4.604-10.266-10.264V175.3c0-5.66 4.605-10.266 10.266-10.266h28.352c5.66 0 10.265 4.605 10.265 10.266v43.004c0 5.66-4.605 10.264-10.265 10.264z" fill="#2A67DC" mask="url(#b)"/><path d="M229.195 166.034h28.352c5.095 0 9.265 4.17 9.265 9.266v43.004c0 5.096-4.17 9.265-9.265 9.265h-28.352c-5.096 0-9.266-4.17-9.266-9.265V175.3c0-5.096 4.17-9.266 9.266-9.266" fill="#FFF" mask="url(#b)"/><path d="M229.195 167.034c-4.558 0-8.266 3.708-8.266 8.266v43.004c0 4.557 3.708 8.264 8.266 8.264h28.352c4.558 0 8.265-3.707 8.265-8.264V175.3c0-4.558-3.707-8.266-8.265-8.266h-28.352zm28.352 61.534h-28.352c-5.66 0-10.266-4.604-10.266-10.264V175.3c0-5.66 4.605-10.266 10.266-10.266h28.352c5.66 0 10.265 4.605 10.265 10.266v43.004c0 5.66-4.605 10.264-10.265 10.264z" fill="#2A67DC" mask="url(#b)"/><path d="M171.56 166.034h28.353c5.096 0 9.265 4.17 9.265 9.266v43.004c0 5.096-4.17 9.265-9.265 9.265H171.56c-5.096 0-9.266-4.17-9.266-9.265V175.3c0-5.096 4.17-9.266 9.266-9.266" fill="#FFF" mask="url(#b)"/><path d="M171.56 167.034c-4.557 0-8.265 3.708-8.265 8.266v43.004c0 4.557 3.708 8.264 8.266 8.264h28.352c4.558 0 8.265-3.707 8.265-8.264V175.3c0-4.558-3.707-8.266-8.265-8.266H171.56zm28.353 61.534H171.56c-5.661 0-10.266-4.604-10.266-10.264V175.3c0-5.66 4.605-10.266 10.266-10.266h28.352c5.66 0 10.265 4.605 10.265 10.266v43.004c0 5.66-4.605 10.264-10.265 10.264z" fill="#2A67DC" mask="url(#b)"/><path fill="#FFF" mask="url(#b)" d="M146.081 157.406h251.918v-7.554H146.081z"/><path d="M147.081 156.406h249.918v-5.554H147.081v5.554zm-2 2h253.918v-9.554H145.081v9.554z" fill="#2A67DC" mask="url(#b)"/></g></g></svg>