<svg width="769" height="288" viewBox="0 0 769 288" xmlns="http://www.w3.org/2000/svg" xmlns:xlink="http://www.w3.org/1999/xlink"><title>challenger</title><defs><rect id="a" width="140" height="288" rx="21.6"/></defs><g fill="none" fill-rule="evenodd"><path d="M765.74 211.509H3.001a2.8 2.8 0 1 1 0-5.598h762.737a2.8 2.8 0 1 1 0 5.598" fill="#5476C4"/><path fill="#2866DC" d="M671.427 209.077h5.602V63.957h-5.602z"/><path d="M695.548 141.534c0 9.504-7.777 17.273-17.28 17.273h-8.06c-9.508 0-17.29-7.77-17.29-17.273V90.932c0-9.495 7.782-17.267 17.29-17.267h8.06c9.503 0 17.28 7.772 17.28 17.267v50.602z" fill="#FFF"/><path d="M670.208 76.463c-7.989 0-14.488 6.491-14.488 14.47v50.601c0 7.981 6.5 14.474 14.488 14.474h8.06c7.984 0 14.48-6.493 14.48-14.474V90.932c0-7.978-6.496-14.469-14.48-14.469h-8.06zm8.06 85.142h-8.06c-11.077 0-20.09-9.004-20.09-20.071V90.932c0-11.064 9.013-20.066 20.09-20.066h8.06c11.073 0 20.08 9.002 20.08 20.066v50.602c0 11.067-9.007 20.071-20.08 20.071z" fill="#2866DC"/><path d="M667.5 95.64a6.729 6.729 0 0 1 6.728-6.727 6.73 6.73 0 1 1 0 13.46 6.73 6.73 0 0 1-6.729-6.732" fill="#F8F8F8"/><path d="M674.228 91.711a3.933 3.933 0 0 0-3.928 3.93 3.935 3.935 0 0 0 3.928 3.933 3.94 3.94 0 0 0 3.938-3.933 3.937 3.937 0 0 0-3.938-3.93m0 13.46c-5.255 0-9.53-4.276-9.53-9.53 0-5.253 4.275-9.527 9.53-9.527 5.26 0 9.539 4.274 9.539 9.527 0 5.254-4.279 9.53-9.539 9.53" fill="#2866DC"/><path d="M667.5 116.02a6.728 6.728 0 0 1 6.728-6.726 6.73 6.73 0 0 1 6.738 6.726 6.725 6.725 0 0 1-6.738 6.727 6.725 6.725 0 0 1-6.729-6.727" fill="#F8F8F8"/><path d="M674.228 112.093a3.932 3.932 0 0 0-3.928 3.927 3.932 3.932 0 0 0 7.866 0 3.936 3.936 0 0 0-3.938-3.927m0 13.453c-5.255 0-9.53-4.274-9.53-9.526 0-5.251 4.275-9.524 9.53-9.524 5.26 0 9.539 4.273 9.539 9.524 0 5.252-4.279 9.526-9.539 9.526" fill="#2866DC"/><path d="M667.5 136.405a6.723 6.723 0 0 1 6.728-6.72c3.725 0 6.738 3.006 6.738 6.72 0 3.712-3.013 6.725-6.738 6.725a6.73 6.73 0 0 1-6.729-6.725" fill="#FFF"/><path d="M674.228 132.483a3.929 3.929 0 0 0-3.928 3.922 3.932 3.932 0 0 0 3.928 3.927 3.936 3.936 0 0 0 3.938-3.927c0-2.163-1.766-3.922-3.938-3.922m0 13.446c-5.255 0-9.53-4.273-9.53-9.524 0-5.249 4.275-9.519 9.53-9.519 5.26 0 9.539 4.27 9.539 9.519 0 5.251-4.279 9.524-9.539 9.524" fill="#2866DC"/><path d="M469.867 94.494V71.848" fill="#EE4035"/><path fill="#CEDAF2" d="M468.466 94.494h2.801V71.848h-2.8z"/><path d="M452.658 61.471c0-9.503 7.704-17.203 17.208-17.203 9.505 0 17.21 7.7 17.21 17.203 0 9.499-7.705 17.197-17.21 17.197-9.504 0-17.208-7.698-17.208-17.197" fill="#F8F8F8"/><path d="M469.867 45.668c-8.717 0-15.809 7.089-15.809 15.803 0 8.711 7.092 15.797 15.809 15.797 8.717 0 15.81-7.086 15.81-15.797 0-8.714-7.093-15.803-15.81-15.803m0 34.4c-10.261 0-18.61-8.343-18.61-18.597 0-10.257 8.349-18.602 18.61-18.602s18.61 8.345 18.61 18.602c0 10.254-8.349 18.596-18.61 18.596" fill="#CEDAF2"/><path d="M463.608 80.63a15.91 15.91 0 0 1-.823 5.048 15.754 15.754 0 0 1-11.503 10.284c-.262.053-.544.106-.807.158-.84.14-1.715.209-2.594.209-.332 0-.667-.017-1-.032a15.685 15.685 0 0 1-1.596-.177c-7.434-1.226-13.113-7.69-13.113-15.49 0-1.522.211-2.992.63-4.394a15.682 15.682 0 0 1 15.08-11.319c8.696 0 15.726 7.023 15.726 15.713" fill="#F8F8F8"/><path d="M451.896 91.583c0 1.523-.208 2.996-.615 4.38-.016.052-.032.105-.05.157h-.756c-.84.14-1.715.209-2.594.209-.333 0-.667-.017-1-.032a15.489 15.489 0 0 1-1.596-.177h-24.16a15.572 15.572 0 0 1-.667-4.537c0-2.23.46-4.348 1.28-6.256 2-4.554 6.085-8.005 11.063-9.092a15.351 15.351 0 0 1 3.386-.366c7.89 0 14.413 5.814 15.533 13.383.122.772.176 1.543.176 2.331" fill="#F8F8F8"/><path d="M433.169 96.592h-30.155c1.945-6.484 7.96-11.212 15.077-11.212 1.264 0 2.473.14 3.648.42 5.472 1.315 9.838 5.468 11.43 10.792m43.413-.472h-26.107c-.84.14-1.715.21-2.594.21-.333 0-.667-.018-1-.033.017-.054.037-.126.071-.177.93-2.697 2.612-5.062 4.768-6.868a15.761 15.761 0 0 1 11.065-3.574c6.399.402 11.747 4.644 13.797 10.442" fill="#F8F8F8"/><path d="M432.247 82.225c-.054-.525-.08-1.06-.08-1.598 0-8.68 7.038-15.715 15.72-15.715s15.724 7.036 15.724 15.715c0 3.04-.867 5.883-2.368 8.29" fill="#F8F8F8"/><path d="M462.431 89.657l-2.377-1.479a14.26 14.26 0 0 0 2.157-7.551c0-7.893-6.425-14.316-14.324-14.316-7.896 0-14.32 6.423-14.32 14.316 0 .498.025.987.073 1.453l-2.786.29a16.839 16.839 0 0 1-.088-1.743c0-9.437 7.68-17.114 17.121-17.114 9.442 0 17.125 7.677 17.125 17.114 0 3.2-.893 6.323-2.58 9.03" fill="#CEDAF2"/><path d="M423.038 85.89l-2.57-1.111a17.174 17.174 0 0 1 11.841-9.87l.633 2.727a14.366 14.366 0 0 0-9.904 8.254" fill="#CEDAF2"/><path d="M402.953 96.37c1.854-6.615 7.932-11.463 15.142-11.463 3.256 0 6.283.99 8.792 2.686"/><path d="M404.302 96.747l-2.697-.755c2.06-7.35 8.841-12.484 16.49-12.484 3.433 0 6.744 1.012 9.576 2.926l-1.568 2.318a14.245 14.245 0 0 0-8.008-2.445c-6.398 0-12.07 4.293-13.793 10.44m70.973-.157a14.3 14.3 0 0 0-12.583-9.524l.179-2.792a17.095 17.095 0 0 1 15.044 11.385l-2.64.931z" fill="#CEDAF2"/><path d="M388.813 96.12h106.565" fill="#EE4035"/><path fill="#CEDAF2" d="M388.813 97.52h106.565v-2.8H388.813z"/><path d="M383.912 131.103h106.565" fill="#EE4035"/><path fill="#CEDAF2" d="M383.912 132.503h106.565v-2.799H383.912z"/><path d="M736.373 63.467V40.822" fill="#EE4035"/><path fill="#CEDAF2" d="M734.973 63.468h2.8V40.822h-2.8z"/><path d="M719.164 30.445c0-9.503 7.704-17.203 17.209-17.203 9.505 0 17.21 7.7 17.21 17.203 0 9.498-7.705 17.197-17.21 17.197s-17.209-7.699-17.209-17.197" fill="#F8F8F8"/><path d="M736.373 14.641c-8.716 0-15.808 7.09-15.808 15.804 0 8.71 7.092 15.797 15.808 15.797 8.718 0 15.81-7.086 15.81-15.797 0-8.714-7.092-15.804-15.81-15.804m0 34.4c-10.26 0-18.609-8.342-18.609-18.596 0-10.257 8.348-18.602 18.609-18.602 10.262 0 18.61 8.345 18.61 18.602 0 10.254-8.348 18.596-18.61 18.596" fill="#CEDAF2"/><path d="M228.984 182.166v-22.645" fill="#EE4035"/><path fill="#CEDAF2" d="M227.584 182.166h2.8V159.52h-2.8z"/><path d="M211.774 149.144c0-9.503 7.705-17.203 17.21-17.203 9.504 0 17.21 7.7 17.21 17.203 0 9.498-7.706 17.196-17.21 17.196-9.505 0-17.21-7.698-17.21-17.196" fill="#F8F8F8"/><path d="M228.984 133.34c-8.718 0-15.81 7.09-15.81 15.804 0 8.71 7.092 15.797 15.81 15.797s15.81-7.086 15.81-15.797c0-8.714-7.092-15.803-15.81-15.803m0 34.399c-10.261 0-18.61-8.342-18.61-18.596 0-10.257 8.349-18.602 18.61-18.602 10.262 0 18.61 8.345 18.61 18.602 0 10.254-8.348 18.596-18.61 18.596" fill="#CEDAF2"/><path d="M224.795 34.604a15.91 15.91 0 0 1-.823 5.048 15.754 15.754 0 0 1-11.503 10.284c-.262.052-.543.105-.807.158a15.848 15.848 0 0 1-3.594.176 15.685 15.685 0 0 1-1.596-.176c-7.433-1.226-13.112-7.69-13.112-15.49 0-1.522.21-2.993.628-4.395a15.682 15.682 0 0 1 15.08-11.318c8.697 0 15.727 7.023 15.727 15.713" fill="#F8F8F8"/><path d="M213.084 45.557c0 1.523-.21 2.996-.615 4.379-.017.052-.033.106-.051.157h-.756c-.84.14-1.715.21-2.593.21-.333 0-.668-.017-1-.033a15.685 15.685 0 0 1-1.596-.177h-24.16a15.572 15.572 0 0 1-.668-4.536c0-2.23.46-4.348 1.281-6.256 2-4.554 6.085-8.005 11.062-9.092a15.362 15.362 0 0 1 3.387-.367c7.89 0 14.411 5.814 15.532 13.383.123.773.177 1.543.177 2.332" fill="#F8F8F8"/><path d="M194.356 50.566h-30.154c1.944-6.485 7.96-11.213 15.076-11.213 1.264 0 2.474.141 3.648.42 5.472 1.316 9.839 5.468 11.43 10.793m43.413-.472h-26.107c-.84.14-1.715.209-2.593.209-.334 0-.668-.018-1-.032.016-.054.036-.126.07-.177.93-2.698 2.612-5.063 4.768-6.868a15.761 15.761 0 0 1 11.065-3.574c6.399.402 11.747 4.643 13.797 10.442" fill="#F8F8F8"/><path d="M223.62 43.63l-2.378-1.478a14.265 14.265 0 0 0 2.156-7.552c0-7.893-6.425-14.315-14.323-14.315-7.897 0-14.32 6.422-14.32 14.315 0 .498.024.987.072 1.453l-2.786.29a16.841 16.841 0 0 1-.087-1.743c0-9.437 7.68-17.114 17.12-17.114 9.443 0 17.125 7.677 17.125 17.114 0 3.2-.892 6.323-2.579 9.03" fill="#CEDAF2"/><path d="M182.94 39.308a15.74 15.74 0 0 1 10.872-9.061" fill="#EE4035"/><path d="M184.225 39.864l-2.57-1.112a17.174 17.174 0 0 1 11.842-9.869l.632 2.727a14.365 14.365 0 0 0-9.904 8.254" fill="#CEDAF2"/><path d="M165.489 50.72l-2.696-.754c2.06-7.35 8.84-12.484 16.49-12.484 3.432 0 6.743 1.012 9.575 2.926l-1.568 2.318a14.245 14.245 0 0 0-8.008-2.445c-6.397 0-12.07 4.292-13.793 10.44m70.973-.157a14.299 14.299 0 0 0-12.583-9.524l.18-2.793a17.093 17.093 0 0 1 15.044 11.385l-2.64.932z" fill="#CEDAF2"/><path d="M150 50.094h106.565" fill="#EE4035"/><path fill="#CEDAF2" d="M150 51.799h106.565V49H150z"/><path d="M621.754 86.954a15.92 15.92 0 0 1-.822 5.049 15.757 15.757 0 0 1-11.504 10.283c-.261.053-.543.106-.807.158-.839.14-1.714.209-2.592.209-.334 0-.667-.017-1.001-.033a15.319 15.319 0 0 1-1.597-.176c-7.432-1.226-13.112-7.69-13.112-15.49 0-1.523.21-2.993.628-4.395a15.683 15.683 0 0 1 15.082-11.318c8.696 0 15.725 7.024 15.725 15.713" fill="#F8F8F8"/><path d="M610.044 97.906c0 1.524-.21 2.997-.616 4.38a8.33 8.33 0 0 1-.05.158h-.756c-.84.14-1.715.209-2.593.209-.334 0-.667-.017-1.001-.033a15.319 15.319 0 0 1-1.597-.176h-24.159a15.576 15.576 0 0 1-.667-4.538c0-2.228.46-4.346 1.28-6.255 2-4.554 6.085-8.004 11.063-9.091a15.32 15.32 0 0 1 3.386-.367c7.89 0 14.412 5.814 15.533 13.383.122.772.177 1.542.177 2.33" fill="#F8F8F8"/><path d="M591.316 102.916H561.16c1.944-6.485 7.96-11.212 15.077-11.212 1.264 0 2.474.14 3.648.419 5.47 1.316 9.838 5.467 11.43 10.793m43.413-.472h-26.106c-.84.14-1.715.21-2.593.21-.334 0-.667-.018-1.001-.034.017-.053.036-.125.071-.176.93-2.698 2.612-5.062 4.768-6.868a15.757 15.757 0 0 1 11.065-3.573c6.399.402 11.746 4.643 13.796 10.44" fill="#F8F8F8"/><path d="M590.394 88.549c-.054-.526-.08-1.06-.08-1.6 0-8.678 7.038-15.714 15.721-15.714 8.681 0 15.723 7.036 15.723 15.714a15.64 15.64 0 0 1-2.367 8.293" fill="#F8F8F8"/><path d="M620.58 95.982l-2.379-1.48a14.266 14.266 0 0 0 2.157-7.553c0-7.893-6.426-14.315-14.323-14.315s-14.322 6.422-14.322 14.315c0 .494.026.984.074 1.457l-2.786.286a16.972 16.972 0 0 1-.088-1.743c0-9.436 7.68-17.113 17.122-17.113s17.123 7.677 17.123 17.113c0 3.2-.892 6.324-2.578 9.033" fill="#CEDAF2"/><path d="M581.185 92.215l-2.57-1.112a17.173 17.173 0 0 1 11.841-9.869l.632 2.727a14.357 14.357 0 0 0-9.903 8.254" fill="#CEDAF2"/><path d="M562.45 103.07l-2.698-.754c2.06-7.35 8.841-12.484 16.49-12.484a17.04 17.04 0 0 1 9.576 2.926l-1.569 2.318a14.25 14.25 0 0 0-8.007-2.445c-6.398 0-12.07 4.293-13.793 10.44m70.974-.157a14.304 14.304 0 0 0-12.586-9.525l.18-2.792a17.1 17.1 0 0 1 15.047 11.386l-2.641.931z" fill="#CEDAF2"/><path fill="#CEDAF2" d="M543 104.799h106.565V102H543z"/><path fill="#F8F8F8" d="M301.429 4.472L285.21 53.676h32.441z"/><path d="M287.146 52.276h28.57L301.428 8.944l-14.282 43.332zm32.441 2.799h-36.312L301.428 0l18.159 55.075z" fill="#CEDAF2"/><path fill="#F8F8F8" d="M749.366 117.594l-16.218 49.203h32.442z"/><path d="M735.084 165.397h28.57l-14.287-43.33-14.283 43.33zm32.441 2.799h-36.312l18.154-55.074 18.158 55.074z" fill="#CEDAF2"/><path d="M355.675 210.26c-12.241 0-22.2-9.951-22.2-22.184a22.1 22.1 0 0 1 1.046-6.751l5.336 1.703a16.527 16.527 0 0 0-.781 5.048c0 9.146 7.446 16.587 16.599 16.587 9.152 0 16.598-7.44 16.598-16.587 0-2.24-.438-4.412-1.303-6.455l5.159-2.18a22.026 22.026 0 0 1 1.746 8.635c0 12.233-9.96 22.185-22.2 22.185m120.664-38.771c-9.153 0-16.599 7.44-16.599 16.587 0 9.145 7.446 16.586 16.599 16.586 9.152 0 16.599-7.44 16.599-16.586 0-9.147-7.447-16.588-16.599-16.588m0 38.772c-12.24 0-22.2-9.952-22.2-22.184 0-12.233 9.96-22.185 22.2-22.185 12.24 0 22.2 9.952 22.2 22.185 0 12.232-9.96 22.184-22.2 22.184" fill="#2866DC"/><path d="M467.803 188.077c0-4.711 3.822-8.53 8.536-8.53 4.714 0 8.536 3.819 8.536 8.53 0 4.71-3.822 8.53-8.536 8.53-4.714 0-8.536-3.82-8.536-8.53" fill="#2866DC"/><path d="M469.474 153.782c10.23-.748 19.836 4.925 24.184 14.063a39.873 39.873 0 0 0-12.667.665c-13.967 2.995-24.658 12.951-29.203 25.454a24.589 24.589 0 0 1-4.824-10.229 24.878 24.878 0 0 1-.42-2.638c-1.31-12.454 6.966-24.146 19.492-26.832a24.245 24.245 0 0 1 3.438-.483" fill="#FFF"/><path d="M406.6 157.665l.035.105 7.232 14.224h24.737l8.871-27.756v-37.782l.896-.398 21.103 47.724a24.33 24.33 0 0 0-3.438.483c-12.526 2.686-20.801 14.378-19.492 26.832H325.416s-5.433-46.136 30.261-46.136h47.331v.007c6.427 0 11.643 5.213 11.643 11.635 0 5.17-3.381 9.55-8.052 11.062" fill="#FFF"/><path d="M471.28 156.514c-.532 0-1.07.02-1.601.058-1.023.07-2.046.214-3.058.43-11.035 2.366-18.47 12.6-17.292 23.802.081.777.206 1.565.373 2.346.364 1.7.91 3.32 1.637 4.85 5.826-11.353 16.365-19.503 29.065-22.227 2.661-.57 5.376-.89 8.084-.947-4.12-5.161-10.458-8.312-17.209-8.312m-19.49 40.249a2.802 2.802 0 0 1-2.191-1.055 27.22 27.22 0 0 1-5.374-11.388 28.164 28.164 0 0 1-.466-2.934c-1.477-14.051 7.847-26.889 21.69-29.857a27.247 27.247 0 0 1 3.836-.54 27.206 27.206 0 0 1 1.995-.072c10.585 0 20.362 6.173 24.908 15.726a2.797 2.797 0 0 1-2.832 3.984 37.213 37.213 0 0 0-11.776.619c-12.6 2.702-22.753 11.552-27.158 23.673a2.8 2.8 0 0 1-2.633 1.844" fill="#2866DC"/><path fill="#2866DC" d="M467.11 155.352l-.19-.42-23.19-52.445 5.123-2.263 23.364 52.827zm-19.873 28.543H322.926l-.291-2.47c-.122-1.036-2.84-25.501 9.744-39.643 5.68-6.383 13.52-9.62 23.297-9.62H403.4v5.597h-47.723c-8.11 0-14.539 2.605-19.11 7.743-8.794 9.882-8.872 26.54-8.552 32.796h119.223v5.597z"/><path d="M403.008 161.03v-5.597c.942 0 1.855-.143 2.715-.426a8.811 8.811 0 0 0 6.127-8.404c0-4.872-3.966-8.837-8.842-8.837v-5.597c7.964 0 14.444 6.475 14.444 14.434a14.389 14.389 0 0 1-9.99 13.725 14.256 14.256 0 0 1-4.454.702" fill="#2866DC"/><path fill="#2866DC" d="M440.65 174.793h-28.5l-8.012-15.755 4.994-2.536 6.454 12.694h20.972l8.116-25.394v-37.346h5.602v38.218zm-74.394-13.763h37.459v-5.597h-37.459z"/><path fill="#A3D4FF" d="M326.347 134.912h51.462v-34.634h-51.462z"/><path d="M329.148 132.113h45.86v-29.036h-45.86v29.036zm-5.602 5.597h57.063V97.48h-57.063v40.23z" fill="#2866DC"/><path fill="#2866DC" d="M349.277 134.212h5.602v-33.234h-5.602zm-87.345-30.436h46.911V98.18h-46.91zm14.003 15.394h32.908v-5.598h-32.908zm14.004 15.392h18.904v-5.597h-18.904zm36.184 33.566c-7.268 0-13.18-5.908-13.18-13.17s5.912-13.17 13.18-13.17c2.855 0 5.572.897 7.857 2.594l-3.343 4.491a7.512 7.512 0 0 0-4.514-1.489c-4.18 0-7.578 3.398-7.578 7.574 0 4.175 3.399 7.573 7.578 7.573v5.597zm90.199-78.906a2.798 2.798 0 0 1-2.732-3.426l1.51-6.574h2.23c5.936 0 11.921-.657 14.214-8.513l.588-2.015h4.024l-2.704-15.136a2.8 2.8 0 0 1 5.514-.984l3.88 21.717h-6.618c-3.612 9.027-11.616 10.315-16.66 10.499l-.519 2.259a2.802 2.802 0 0 1-2.727 2.173"/><path d="M446.086 49.338s-.878-19.303-22.17-19.303-24.804 17.328-24.804 26.322h25.024l21.95-7.02z" fill="#A3D4FF"/><path d="M402.007 53.558h21.692l19.298-6.17c-.906-4.477-4.56-14.555-19.081-14.555-6.313 0-20.613 2.086-21.909 20.725zm22.566 5.597H396.31v-2.798c0-14.078 7.253-29.121 27.605-29.121 23.694 0 24.958 21.755 24.968 21.975l.098 2.14-24.41 7.804z" fill="#2866DC"/><path d="M415.574 70.124c-6.628 0-12.02-5.389-12.02-12.012a2.8 2.8 0 0 1 5.601 0c0 3.537 2.879 6.415 6.42 6.415a6.423 6.423 0 0 0 6.418-6.415 2.8 2.8 0 0 1 5.601 0c0 6.623-5.392 12.012-12.02 12.012" fill="#2866DC"/><path d="M398.39 86.43a2.798 2.798 0 0 1-2.739-3.394l5.554-25.519a2.797 2.797 0 0 1 3.33-2.14 2.798 2.798 0 0 1 2.142 3.33l-5.554 25.518a2.8 2.8 0 0 1-2.733 2.204" fill="#2866DC"/><path d="M423.677 137.613c2.237 2.855 5.11 7.828-3.258 30.34 3.743.49 7.326 1.787 10.98 2.642 7.657-20.591 10.053-32.173 3.579-40.42-4.32-5.5-11.308-8.179-17.938-9.263.153-.672.259-1.365.315-2.064l1.756-22.873c.582-7.613-5.188-13.846-12.833-13.846h-.938c-7.646 0-14.941 6.164-16.216 13.692l-3.935 23.18c-1.275 7.529 3.928 13.693 11.574 13.693h5.635c.148 0 .301 0 .449-.014h.02c5.924 0 17.484.7 20.81 4.933" fill="#CEDAF2"/><path d="M424.174 165.803c1.411.325 2.787.708 4.138 1.085.452.126.894.249 1.332.368 6.495-17.824 8.64-28.333 3.13-35.354-4.158-5.293-11.097-7.396-16.187-8.228l-2.943-.481.665-2.906c.123-.535.208-1.095.253-1.663l1.757-22.863c.222-2.898-.701-5.62-2.597-7.665-1.894-2.043-4.538-3.168-7.444-3.168h-.938c-6.251 0-12.413 5.202-13.454 11.36l-3.936 23.182c-.477 2.816.17 5.444 1.822 7.398 1.652 1.952 4.134 3.027 6.991 3.027h5.635c.061 0 .127.002.192-.002l.132-.012h.125c15.94 0 21.271 3.762 23.033 6.004 2.955 3.771 5.448 9.526-1.706 29.918zm8.99 8.08l-2.403-.563c-1.343-.314-2.67-.683-3.953-1.04-2.326-.649-4.522-1.26-6.751-1.55l-3.488-.455 1.225-3.295c8.151-21.933 5.13-25.788 3.678-27.642-1.807-2.3-9.246-3.85-18.522-3.86-.184.012-.37.015-.552.015h-5.635c-4.534 0-8.536-1.781-11.27-5.013-2.733-3.234-3.823-7.476-3.066-11.945l3.936-23.182c1.495-8.834 10.009-16.023 18.977-16.023h.938c4.483 0 8.586 1.762 11.553 4.96 2.968 3.202 4.414 7.427 4.073 11.898l-1.727 22.483c5.676 1.283 12.473 4.009 17.003 9.776 7.388 9.411 4.734 21.906-3.156 43.123l-.86 2.312z" fill="#2866DC"/><path d="M426.12 112.96c-3.823-.553-7.76-1.784-11.763-3.695-7.876-3.76-13.306-8.905-13.534-9.122a5.596 5.596 0 0 1-.177-7.914 5.605 5.605 0 0 1 7.913-.186c.254.242 16.96 15.747 30.927 7.734a5.602 5.602 0 0 1 7.645 2.067 5.595 5.595 0 0 1-2.07 7.641c-5.746 3.297-12.162 4.455-18.94 3.474" fill="#CEDAF2"/><path d="M404.696 93.298a2.78 2.78 0 0 0-2.026.865 2.802 2.802 0 0 0 .088 3.957c.212.202 5.373 5.071 12.806 8.62 3.723 1.776 7.409 2.937 10.957 3.45 6.17.892 11.983-.17 17.146-3.132a2.782 2.782 0 0 0 1.31-1.696 2.776 2.776 0 0 0-.275-2.124 2.813 2.813 0 0 0-2.434-1.406c-.49 0-.958.124-1.387.371-3.088 1.771-6.508 2.67-10.166 2.67-12.535 0-23.969-10.69-24.082-10.798a2.797 2.797 0 0 0-1.937-.777m26.027 22.797c-1.64 0-3.324-.123-5.004-.366-4.107-.593-8.336-1.918-12.569-3.939-8.088-3.86-13.651-9.042-14.258-9.62-3.352-3.204-3.47-8.53-.27-11.876a8.447 8.447 0 0 1 6.074-2.593c2.166 0 4.223.822 5.793 2.315.09.085 9.999 9.26 20.226 9.26 2.668 0 5.149-.649 7.376-1.926a8.4 8.4 0 0 1 4.177-1.115 8.428 8.428 0 0 1 7.291 4.216 8.33 8.33 0 0 1 .824 6.373 8.342 8.342 0 0 1-3.926 5.088c-4.84 2.776-10.132 4.183-15.734 4.183" fill="#2866DC"/><path d="M418.85 98.057l-4.161 10.91" fill="#EE4035"/><path fill="#2866DC" d="M417.306 109.964l-5.235-1.994 4.16-10.91 5.235 1.993z"/><path d="M423.677 137.613l11.4-6.882" fill="#EE4035"/><path fill="#2866DC" d="M425.125 140.008l-2.897-4.791 11.402-6.881 2.895 4.791z"/><path d="M386.986 115.873l29.919 4.22" fill="#EE4035"/><path fill="#2866DC" d="M416.514 122.864l-29.919-4.22.782-5.542 29.92 4.219z"/><path d="M418.19 68.182l6.057 13.574" fill="#EE4035"/><path fill="#2866DC" d="M421.69 82.896l-6.058-13.574 5.116-2.28 6.058 13.573z"/><path d="M468.795 96.758v22.852c-.259.007-.518.014-.777.014-9.858 0-17.848-5.122-17.848-11.44s7.99-11.439 17.848-11.439c.26 0 .518.006.777.013" fill="#FFF"/><path d="M465.995 99.626c-7.242.588-13.024 4.269-13.024 8.559 0 4.29 5.782 7.971 13.024 8.559V99.626zm2.023 22.797c-11.579 0-20.648-6.254-20.648-14.238s9.07-14.238 20.648-14.238c.284 0 .567.007.85.014l2.728.072v28.303l-2.727.072c-.307.008-.58.015-.851.015zm-120.879 65.654c0-4.711 3.82-8.53 8.535-8.53s8.537 3.819 8.537 8.53c0 4.71-3.822 8.53-8.537 8.53-4.714 0-8.535-3.82-8.535-8.53" fill="#2866DC"/><path d="M421.223 161.404s12.707-1.017 18.036 10.603l-22.14-.063 4.104-10.54z" fill="#FFF"/><path d="M421.21 169.157l12.89.036c-3.578-3.91-8.381-4.796-10.969-4.973l-1.921 4.937zm22.42 5.66l-30.602-.086 6.217-15.965 1.754-.151s.364-.032 1.004-.032c3.327 0 14.586.884 19.802 12.258l1.824 3.977z" fill="#2866DC"/><g transform="translate(37)"><use fill="#FFF" xlink:href="#a"/><rect stroke="#2866DC" stroke-width="4.8" x="2.4" y="2.4" width="135.2" height="283.2" rx="21.6"/><path fill="#2A67DC" d="M22.735 37.2h96.923v91.2H22.735z"/><path fill="#CEDAF2" d="M22.735 136.8h96.923v20.4H22.735zm0 25.2h96.923v20.4H22.735zm0 27.6h96.923V210H22.735z"/><rect stroke="#2866DC" stroke-width="2.4" x="11.648" y="26.335" width="117.749" height="214.385" rx="2.4"/><ellipse stroke="#2866DC" stroke-width="1.2" fill="#FFF" cx="70.522" cy="263.389" rx="10.97" ry="10.996"/></g></g></svg>