<svg width="37" height="37" viewBox="0 0 37 37" xmlns="http://www.w3.org/2000/svg"><title>tablet-mobile</title><g stroke="#2A67DC" stroke-width="2.2" fill="none" fill-rule="evenodd"><path d="M22.9 21.8H10.8V6.4h16.5v8.8"/><path d="M6.4 13v2.2" stroke-linecap="square"/><path d="M22.9 26.2H3.1A1.1 1.1 0 0 1 2 25.1v-22A1.1 1.1 0 0 1 3.1 2h27.5a1.1 1.1 0 0 1 1.1 1.1v12.1"/><path d="M28.4 30.6h1.1m3.3 4.4h-7.7a2.2 2.2 0 0 1-2.2-2.2V17.4a2.2 2.2 0 0 1 2.2-2.2h7.7a2.2 2.2 0 0 1 2.2 2.2v15.4a2.2 2.2 0 0 1-2.2 2.2z" stroke-linecap="square"/></g></svg>