<?xml version="1.0" encoding="UTF-8"?>
<svg width="37px" height="37px" viewBox="0 0 37 37" version="1.1" xmlns="http://www.w3.org/2000/svg" xmlns:xlink="http://www.w3.org/1999/xlink">
    <!-- Generator: Sketch 48.2 (47327) - http://www.bohemiancoding.com/sketch -->
    <title>tablet-mobile</title>
    <desc>Created with Sketch.</desc>
    <defs></defs>
    <g id="Orderin-redesign---case-study" stroke="none" stroke-width="1" fill="none" fill-rule="evenodd" transform="translate(-182.000000, -3475.000000)">
        <g id="Group-11" transform="translate(154.000000, 3446.000000)" stroke="#2A67DC" stroke-width="2.2">
            <g id="Group-5-Copy">
                <g id="tablet-mobile" transform="translate(30.000000, 31.000000)">
                    <polyline id="Shape" points="20.9 19.8 8.8 19.8 8.8 4.4 25.3 4.4 25.3 13.2"></polyline>
                    <path d="M4.4,11 L4.4,13.2" id="Shape" stroke-linecap="square"></path>
                    <path d="M20.9,24.2 L1.1,24.2 C0.4928,24.2 0,23.7072 0,23.1 L0,1.1 C0,0.4928 0.4928,0 1.1,0 L28.6,0 C29.2072,0 29.7,0.4928 29.7,1.1 L29.7,13.2" id="Shape"></path>
                    <path d="M26.4,28.6 L27.5,28.6" id="Shape" stroke-linecap="square"></path>
                    <path d="M30.8,33 L23.1,33 C21.8845,33 20.9,32.0155 20.9,30.8 L20.9,15.4 C20.9,14.1845 21.8845,13.2 23.1,13.2 L30.8,13.2 C32.0155,13.2 33,14.1845 33,15.4 L33,30.8 C33,32.0155 32.0155,33 30.8,33 Z" id="Shape" stroke-linecap="square"></path>
                </g>
            </g>
        </g>
    </g>
</svg>