<svg style="position: absolute; width: 0; height: 0; overflow: hidden;" version="1.1" xmlns="http://www.w3.org/2000/svg" xmlns:xlink="http://www.w3.org/1999/xlink">
<defs>
<symbol id="svg-icon-folder-code" viewBox="0 0 33 32">
<title>folder-code</title>
<path fill="none" stroke="#000" stroke-width="1.4545" stroke-miterlimit="4" stroke-linecap="butt" stroke-linejoin="miter" d="M29.818 31.273h-26.182c-1.607 0-2.909-1.303-2.909-2.909v-27.636h11.636l4.364 5.818h16v21.818c0 1.607-1.303 2.909-2.909 2.909z"></path>
<path fill="none" stroke="#000" stroke-width="1.4545" stroke-miterlimit="4" stroke-linecap="butt" stroke-linejoin="miter" d="M13.818 14.545l-4.364 4.364 4.364 4.364"></path>
<path fill="none" stroke="#000" stroke-width="1.4545" stroke-miterlimit="4" stroke-linecap="butt" stroke-linejoin="miter" d="M19.636 23.273l4.364-4.364-4.364-4.364"></path>
</symbol>
<symbol id="svg-icon-optimize" viewBox="0 0 31 32">
<title>optimize</title>
<path d="M23.652 30.609c0 0.384 0.311 0.696 0.696 0.696s0.696-0.311 0.696-0.696v-29.913c0-0.384-0.311-0.696-0.696-0.696s-0.696 0.311-0.696 0.696v29.913z"></path>
<path d="M13.217 32c0.384 0 0.696-0.311 0.696-0.696v-12.522c0-0.384-0.311-0.696-0.696-0.696h-12.522c-0.384 0-0.696 0.311-0.696 0.696v12.522c0 0.384 0.311 0.696 0.696 0.696h12.522zM1.391 31.304v-12.522l-0.696 0.696h12.522l-0.696-0.696v12.522l0.696-0.696h-12.522l0.696 0.696z"></path>
<path d="M23.856 31.101c0.272 0.272 0.712 0.272 0.984 0l6.261-6.261c0.272-0.272 0.272-0.712 0-0.984s-0.712-0.272-0.984 0l-6.261 6.261h0.984l-6.261-6.261c-0.272-0.272-0.712-0.272-0.984 0s-0.272 0.712 0 0.984l6.261 6.261z"></path>
<path d="M0.696 0c-0.384 0-0.696 0.311-0.696 0.696v3.478c0 0.384 0.311 0.696 0.696 0.696s0.696-0.311 0.696-0.696v-3.478l-0.696 0.696h3.478c0.384 0 0.696-0.311 0.696-0.696s-0.311-0.696-0.696-0.696h-3.478z"></path>
<path d="M13.217 13.913c0.384 0 0.696-0.311 0.696-0.696v-3.478c0-0.384-0.311-0.696-0.696-0.696s-0.696 0.311-0.696 0.696v3.478l0.696-0.696h-3.478c-0.384 0-0.696 0.311-0.696 0.696s0.311 0.696 0.696 0.696h3.478z"></path>
<path d="M13.913 0.696c0-0.384-0.311-0.696-0.696-0.696h-3.478c-0.384 0-0.696 0.311-0.696 0.696s0.311 0.696 0.696 0.696h3.478l-0.696-0.696v3.478c0 0.384 0.311 0.696 0.696 0.696s0.696-0.311 0.696-0.696v-3.478z"></path>
<path d="M0 13.217c0 0.384 0.311 0.696 0.696 0.696h3.478c0.384 0 0.696-0.311 0.696-0.696s-0.311-0.696-0.696-0.696h-3.478l0.696 0.696v-3.478c0-0.384-0.311-0.696-0.696-0.696s-0.696 0.311-0.696 0.696v3.478z"></path>
</symbol>
<symbol id="svg-icon-parental" viewBox="0 0 35 32">
<title>parental</title>
<path d="M17.839 1.456h-0.631l16.762 7.619c0.383 0.174 0.835 0.005 1.009-0.378s0.005-0.835-0.378-1.009l-16.762-7.619c-0.2-0.091-0.43-0.091-0.631 0l-16.762 7.619c-0.383 0.174-0.552 0.626-0.378 1.009s0.626 0.552 1.009 0.378l16.762-7.619z"></path>
<path d="M13.825 26.499c-1.632-1.296-3.706-2.118-6.206-2.118s-4.574 0.823-6.206 2.119c-0.898 0.712-1.413 1.805-1.413 2.965v1.774c0 0.421 0.341 0.762 0.762 0.762h13.714c0.421 0 0.762-0.341 0.762-0.762v-1.774c0-1.16-0.514-2.252-1.413-2.965zM13.714 31.238l0.762-0.762h-13.714l0.762 0.762v-1.774c0-0.7 0.306-1.351 0.836-1.771 1.379-1.095 3.128-1.789 5.259-1.789s3.88 0.694 5.259 1.788c0.53 0.42 0.836 1.071 0.836 1.771v1.774z"></path>
<path d="M7.619 20.571c-1.523 0-3.048-1.946-3.048-3.81 0-1.683 1.365-3.048 3.048-3.048s3.048 1.365 3.048 3.048c0 1.863-1.525 3.81-3.048 3.81zM7.619 12.19c-2.524 0-4.571 2.047-4.571 4.571 0 2.635 2.115 5.333 4.571 5.333s4.571-2.699 4.571-5.333c0-2.524-2.047-4.571-4.571-4.571z"></path>
<path d="M33.635 26.499c-1.632-1.296-3.706-2.118-6.206-2.118s-4.574 0.823-6.206 2.119c-0.898 0.712-1.413 1.805-1.413 2.965v1.774c0 0.421 0.341 0.762 0.762 0.762h13.714c0.421 0 0.762-0.341 0.762-0.762v-1.774c0-1.16-0.514-2.252-1.413-2.965zM33.524 31.238l0.762-0.762h-13.714l0.762 0.762v-1.774c0-0.7 0.306-1.351 0.836-1.771 1.379-1.095 3.128-1.789 5.259-1.789s3.88 0.694 5.259 1.788c0.53 0.42 0.836 1.071 0.836 1.771v1.774z"></path>
<path d="M27.429 20.571c-1.523 0-3.048-1.946-3.048-3.81 0-1.683 1.365-3.048 3.048-3.048s3.048 1.365 3.048 3.048c0 1.863-1.525 3.81-3.048 3.81zM27.429 12.19c-2.524 0-4.571 2.047-4.571 4.571 0 2.635 2.115 5.333 4.571 5.333s4.571-2.699 4.571-5.333c0-2.524-2.047-4.571-4.571-4.571z"></path>
</symbol>
<symbol id="svg-icon-pencil" viewBox="0 0 32 32">
<title>pencil</title>
<path d="M10.444 4.348c0.298-0.298 0.298-0.78 0-1.077s-0.78-0.298-1.078 0l-6.095 6.095c-0.298 0.298-0.298 0.78 0 1.078s0.78 0.298 1.077 0l6.095-6.095z"></path>
<path d="M23.080 29.176c-0.298 0.298-0.298 0.78 0 1.078s0.78 0.298 1.078 0l6.095-6.095c0.298-0.298 0.298-0.78 0-1.078s-0.78-0.298-1.078 0l-6.095 6.095z"></path>
<path d="M23.080 30.253c0.106 0.106 0.242 0.179 0.389 0.208l7.619 1.524c0.533 0.107 1.003-0.363 0.897-0.897l-1.524-7.619c-0.029-0.148-0.102-0.283-0.208-0.389l-6.857-6.857c-0.298-0.298-0.78-0.298-1.078 0s-0.298 0.78 0 1.078l6.857 6.857-0.208-0.389 1.524 7.619 0.897-0.897-7.619-1.524 0.389 0.208-6.857-6.857c-0.298-0.298-0.78-0.298-1.078 0s-0.298 0.78 0 1.078l6.857 6.857z"></path>
<path d="M7.396 0.223c-0.298-0.298-0.78-0.298-1.077 0l-6.095 6.095c-0.298 0.298-0.298 0.78 0 1.077l8.381 8.381c0.298 0.298 0.78 0.298 1.078 0s0.298-0.78 0-1.078l-8.381-8.381v1.077l6.095-6.095h-1.077l8.381 8.381c0.298 0.298 0.78 0.298 1.078 0s0.298-0.78 0-1.078l-8.381-8.381z"></path>
<path d="M1.301 23.080v1.078l22.857-22.857h-1.078l7.619 7.619v-1.077l-22.857 22.857h1.078l-7.619-7.619zM8.92 31.777l22.857-22.857c0.298-0.298 0.298-0.78 0-1.077l-7.619-7.619c-0.298-0.298-0.78-0.298-1.078 0l-22.857 22.857c-0.298 0.298-0.298 0.78 0 1.078l7.619 7.619c0.298 0.298 0.78 0.298 1.078 0z"></path>
<path d="M15.461 11.967c0.298 0.298 0.78 0.298 1.078 0s0.298-0.78 0-1.078l-1.524-1.524c-0.298-0.298-0.78-0.298-1.078 0s-0.298 0.78 0 1.078l1.524 1.524z"></path>
<path d="M21.556 8.92c0.298 0.298 0.78 0.298 1.078 0s0.298-0.78 0-1.077l-3.048-3.048c-0.298-0.298-0.78-0.298-1.078 0s-0.298 0.78 0 1.077l3.048 3.048z"></path>
<path d="M12.414 18.063c0.298 0.298 0.78 0.298 1.078 0s0.298-0.78 0-1.078l-3.048-3.048c-0.298-0.298-0.78-0.298-1.078 0s-0.298 0.78 0 1.078l3.048 3.048z"></path>
<path d="M6.318 21.11c0.298 0.298 0.78 0.298 1.077 0s0.298-0.78 0-1.078l-1.524-1.524c-0.298-0.298-0.78-0.298-1.077 0s-0.298 0.78 0 1.078l1.524 1.524z"></path>
</symbol>
<symbol id="svg-icon-prototype" viewBox="0 0 33 32">
<title>prototype</title>
<path d="M32.727 5.818l-0.727-0.727v21.091l0.727-0.727h-19.636c-0.402 0-0.727 0.326-0.727 0.727s0.326 0.727 0.727 0.727h19.636c0.402 0 0.727-0.326 0.727-0.727v-21.091c0-0.402-0.326-0.727-0.727-0.727h-4.364c-0.402 0-0.727 0.326-0.727 0.727s0.326 0.727 0.727 0.727h4.364z"></path>
<path d="M0.727 25.455l0.727 0.727v-21.091l-0.727 0.727h15.273c0.402 0 0.727-0.326 0.727-0.727s-0.326-0.727-0.727-0.727h-15.273c-0.402 0-0.727 0.326-0.727 0.727v21.091c0 0.402 0.326 0.727 0.727 0.727h4.364c0.402 0 0.727-0.326 0.727-0.727s-0.326-0.727-0.727-0.727h-4.364z"></path>
<path d="M16.727 14.545c0 0 0-13.091 0-13.091s10.909 0 10.909 0c-0 0 0 13.091 0 13.091s-10.909 0-10.909 0zM29.091 14.545v-13.091c0-0.803-0.651-1.455-1.455-1.455h-10.909c-0.803 0-1.455 0.651-1.455 1.455v13.091c0 0.803 0.651 1.455 1.455 1.455h10.909c0.803 0 1.455-0.651 1.455-1.455z"></path>
<path d="M5.818 30.545c0 0 0-10.182 0-10.182s6.545 0 6.545 0c-0 0 0 10.182 0 10.182s-6.545 0-6.545 0zM13.818 30.545v-10.182c0-0.803-0.651-1.455-1.455-1.455h-6.545c-0.803 0-1.455 0.651-1.455 1.455v10.182c0 0.803 0.651 1.455 1.455 1.455h6.545c0.803 0 1.455-0.651 1.455-1.455z"></path>
<path d="M20.364 30.545c0.402 0 0.727-0.326 0.727-0.727s-0.326-0.727-0.727-0.727h-4.364c-0.402 0-0.727 0.326-0.727 0.727s0.326 0.727 0.727 0.727h4.364z"></path>
<path d="M9.455 28.364c0.402 0 0.727-0.326 0.727-0.727s-0.326-0.727-0.727-0.727h-0.727c-0.402 0-0.727 0.326-0.727 0.727s0.326 0.727 0.727 0.727h0.727z"></path>
<path d="M23.273 12.364c0.402 0 0.727-0.326 0.727-0.727s-0.326-0.727-0.727-0.727h-2.182c-0.402 0-0.727 0.326-0.727 0.727s0.326 0.727 0.727 0.727h2.182z"></path>
</symbol>
<symbol id="svg-icon-research" viewBox="0 0 34 32">
<title>research</title>
<path d="M6.809 9.532c0 0.376 0.305 0.681 0.681 0.681s0.681-0.305 0.681-0.681v-5.447c0-0.376-0.305-0.681-0.681-0.681s-0.681 0.305-0.681 0.681v5.447z"></path>
<path d="M30.638 10.213c0.376 0 0.681-0.305 0.681-0.681s-0.305-0.681-0.681-0.681h-4.085c-0.376 0-0.681 0.305-0.681 0.681s0.305 0.681 0.681 0.681h4.085z"></path>
<path d="M16.223 10.213c0.376 0 0.681-0.305 0.681-0.681s-0.305-0.681-0.681-0.681h-15.542c-0.376 0-0.681 0.305-0.681 0.681s0.305 0.681 0.681 0.681h15.542z"></path>
<path d="M30.638 4.766l-0.681-0.681v27.234l0.681-0.681h-29.957l0.681 0.681v-27.234l-0.681 0.681h20.989c0.376 0 0.681-0.305 0.681-0.681s-0.305-0.681-0.681-0.681h-20.989c-0.376 0-0.681 0.305-0.681 0.681v27.234c0 0.376 0.305 0.681 0.681 0.681h29.957c0.376 0 0.681-0.305 0.681-0.681v-27.234c0-0.376-0.305-0.681-0.681-0.681h-3.694c-0.376 0-0.681 0.305-0.681 0.681s0.305 0.681 0.681 0.681h3.694z"></path>
<path d="M19.263 9.050c-0.266 0.266-0.266 0.697-0 0.963l10.044 10.045c1.018 1.018 2.668 1.018 3.686 0s1.018-2.668 0-3.686l-10.044-10.045c-0.266-0.266-0.697-0.266-0.963-0l-2.723 2.723zM21.987 7.29l10.044 10.045c0.486 0.486 0.486 1.274 0 1.761s-1.274 0.486-1.761 0l-10.044-10.045-0 0.963 2.723-2.723-0.963-0z"></path>
<path d="M27.915 7.489c0-4.136-3.353-7.489-7.489-7.489s-7.489 3.353-7.489 7.489c0 4.136 3.353 7.489 7.489 7.489s7.489-3.353 7.489-7.489zM14.298 7.489c0-3.384 2.743-6.128 6.128-6.128s6.128 2.743 6.128 6.128c0 3.384-2.743 6.128-6.128 6.128s-6.128-2.743-6.128-6.128z"></path>
<path d="M25.192 26.554c0.376 0 0.681-0.305 0.681-0.681s-0.305-0.681-0.681-0.681h-19.064c-0.376 0-0.681 0.305-0.681 0.681s0.305 0.681 0.681 0.681h19.064z"></path>
</symbol>
<symbol id="svg-icon-user-testing" viewBox="0 0 32 32">
<title>user-testing</title>
<path fill="none" stroke="#000" stroke-width="1.3913" stroke-miterlimit="4" stroke-linecap="butt" stroke-linejoin="miter" d="M31.304 0.696h-16.696v14.609l6.261-4.87h10.435z"></path>
<path fill="none" stroke="#000" stroke-width="1.3913" stroke-miterlimit="4" stroke-linecap="butt" stroke-linejoin="miter" d="M13.217 29.685c0-0.84-0.368-1.64-1.027-2.162-1.006-0.799-2.751-1.784-5.234-1.784s-4.228 0.985-5.234 1.784c-0.659 0.522-1.027 1.322-1.027 2.162v1.619h12.522v-1.619z"></path>
<path fill="none" stroke="#000" stroke-width="1.3913" stroke-miterlimit="4" stroke-linecap="butt" stroke-linejoin="miter" d="M10.435 18.783c0 1.921-1.557 3.478-3.478 3.478s-3.478-1.557-3.478-3.478c0-1.921 1.557-3.478 3.478-3.478s3.478 1.557 3.478 3.478z"></path>
<path fill="none" stroke="#000" stroke-width="1.3913" stroke-miterlimit="4" stroke-linecap="butt" stroke-linejoin="miter" d="M31.304 29.685c0-0.84-0.368-1.64-1.027-2.162-1.006-0.799-2.751-1.784-5.234-1.784s-4.228 0.985-5.234 1.784c-0.659 0.522-1.027 1.322-1.027 2.162v1.619h12.522v-1.619z"></path>
<path fill="none" stroke="#000" stroke-width="1.3913" stroke-miterlimit="4" stroke-linecap="butt" stroke-linejoin="miter" d="M28.522 18.783c0 1.921-1.557 3.478-3.478 3.478s-3.478-1.557-3.478-3.478c0-1.921 1.557-3.478 3.478-3.478s3.478 1.557 3.478 3.478z"></path>
</symbol>
<symbol id="svg-icon-wireframe" viewBox="0 0 33 32">
<title>wireframe</title>
<path d="M8.742 29.658l1.006-1.006-5.689-5.689-1.006 1.006z"></path>
<path d="M21.836 5.186l-1.006 1.006 5.689 5.689 1.006-1.006z"></path>
<path d="M0.711 3.556h-0.711v1.422h13.609v-1.422h-0.711z"></path>
<path d="M0.711 9.244h-0.711v1.422h9.277v-1.422h-0.711z"></path>
<path d="M0.711 14.933h-0.711v1.422h4.354v-1.422h-0.711z"></path>
<path d="M1.994 29.88l0.837 0.837 1.422-7.111-0.194 0.363 22.044-22.044h-1.006l5.689 5.689v-1.006l-22.044 22.044 0.363-0.194-7.111 1.422zM9.595 29.811l22.7-22.7-6.695-6.695-22.7 22.7-1.674 8.368 8.368-1.674z"></path>
</symbol>
</defs>
</svg>
