<?xml version="1.0" standalone="no"?>
<!DOCTYPE svg PUBLIC "-//W3C//DTD SVG 20010904//EN"
 "http://www.w3.org/TR/2001/REC-SVG-20010904/DTD/svg10.dtd">
<svg version="1.0" xmlns="http://www.w3.org/2000/svg"
 width="16.000000pt" height="16.000000pt" viewBox="0 0 16.000000 16.000000"
 preserveAspectRatio="xMidYMid meet">
<metadata>
Created by potrace 1.11, written by Peter Selinger 2001-2013
</metadata>
<g transform="translate(0.000000,16.000000) scale(0.002198,-0.002198)"
fill="#000000" stroke="none">
<path d="M3605 6898 c-15 -29 -38 -71 -49 -93 -12 -22 -24 -41 -28 -43 -5 -2
-8 -8 -8 -14 0 -6 -10 -27 -22 -47 -12 -19 -23 -41 -24 -48 -1 -7 -9 -20 -18
-29 -9 -8 -16 -19 -16 -23 0 -4 -27 -57 -61 -117 -33 -60 -75 -136 -93 -169
-18 -33 -113 -206 -211 -385 -98 -179 -193 -353 -211 -387 -19 -34 -47 -85
-64 -113 -16 -28 -30 -53 -30 -55 0 -2 -17 -34 -39 -72 -21 -37 -54 -97 -73
-133 -20 -36 -47 -85 -60 -110 -14 -25 -47 -85 -74 -135 -27 -49 -57 -103 -66
-120 -10 -16 -28 -50 -40 -75 -13 -25 -25 -47 -28 -50 -3 -3 -14 -23 -26 -45
-11 -22 -34 -65 -51 -95 -17 -30 -47 -86 -68 -125 -21 -38 -53 -96 -71 -128
-19 -32 -34 -60 -34 -61 0 -2 -21 -41 -46 -87 -26 -46 -59 -106 -74 -134 -15
-27 -67 -122 -115 -210 -107 -195 -134 -244 -173 -315 -117 -216 -233 -427
-242 -440 -5 -8 -22 -40 -38 -70 -16 -30 -38 -71 -49 -90 -21 -38 -93 -170
-127 -235 -12 -22 -24 -42 -27 -45 -3 -3 -11 -20 -18 -37 -8 -18 -17 -33 -22
-33 -5 0 -9 -5 -9 -10 0 -6 -93 -180 -207 -388 -250 -457 -243 -444 -254 -458
-5 -6 -6 -14 -2 -17 3 -4 1 -7 -5 -7 -7 0 -12 -6 -12 -14 0 -8 -7 -22 -16 -30
-8 -9 -12 -16 -7 -16 4 0 3 -4 -2 -8 -6 -4 -23 -32 -38 -62 -15 -30 -32 -62
-37 -70 -6 -8 -29 -49 -51 -90 -22 -41 -56 -102 -74 -135 -18 -33 -72 -132
-120 -220 -92 -169 -114 -210 -189 -344 -25 -46 -46 -87 -46 -92 0 -5 -4 -9
-10 -9 -5 0 -10 -9 -10 -20 0 -11 -3 -20 -8 -20 -4 0 -18 -21 -30 -47 -13 -27
-37 -72 -53 -100 l-29 -53 3641 0 3640 0 -29 53 c-16 28 -44 79 -62 112 -18
33 -45 83 -60 110 -61 110 -84 152 -112 203 -16 30 -35 64 -42 75 -7 12 -33
58 -56 102 -54 101 -107 198 -136 250 -13 22 -34 62 -48 88 -14 26 -52 96 -85
155 -33 59 -75 135 -93 168 -46 85 -147 272 -171 314 -11 19 -35 64 -55 100
-19 36 -54 100 -78 142 -24 43 -44 79 -44 82 0 2 -23 44 -51 93 -28 48 -55 97
-61 108 -5 11 -14 29 -21 40 -11 19 -59 106 -137 250 -71 131 -105 193 -145
265 -66 118 -106 191 -135 245 -15 28 -38 70 -52 95 -14 25 -41 74 -60 110
-81 150 -97 177 -120 220 -30 54 -75 136 -116 210 -16 30 -64 118 -107 195
-42 77 -98 178 -123 225 -25 47 -56 103 -69 125 -12 22 -26 47 -29 55 -4 8
-17 29 -28 45 -12 17 -20 32 -20 35 1 3 -8 23 -21 45 -12 22 -50 92 -85 155
-35 63 -74 135 -88 160 -13 25 -38 70 -54 100 -17 30 -40 73 -53 95 -12 22
-38 69 -58 105 -49 92 -87 160 -107 195 -9 17 -33 59 -52 95 -20 36 -87 160
-151 275 -63 116 -129 236 -146 268 -52 96 -87 159 -125 227 -20 36 -46 83
-56 105 -11 22 -28 54 -38 70 -10 17 -37 64 -59 105 -99 184 -198 360 -203
360 -4 0 -19 -24 -35 -52z m-67 -2433 l-3 -1830 -1010 -1 c-555 -1 -1014 1
-1018 3 -4 3 3 24 17 47 13 23 39 68 56 101 18 33 56 103 85 155 29 52 69 127
90 165 21 39 49 88 61 110 31 58 73 134 197 360 60 110 130 238 155 285 25 47
49 87 52 90 4 3 11 16 15 30 4 14 11 27 15 30 3 3 28 46 55 95 26 50 60 113
75 140 15 28 64 118 109 200 44 83 86 157 91 165 5 8 22 40 37 70 16 30 31 57
36 58 4 2 7 7 7 12 0 4 17 39 38 77 22 37 54 95 72 128 18 33 75 139 128 235
125 230 132 243 144 258 6 6 7 12 3 12 -5 0 -1 8 7 18 8 9 33 51 55 92 22 41
127 234 234 429 157 286 195 348 197 325 1 -16 1 -852 0 -1859z m222 1866 c0
-7 110 -212 140 -261 5 -8 23 -42 41 -75 17 -33 52 -95 76 -139 41 -72 44 -82
38 -125 -4 -25 -9 -62 -11 -81 -2 -19 -6 -46 -9 -60 -9 -43 -14 -73 -20 -115
-3 -22 -8 -51 -10 -65 -3 -14 -7 -38 -9 -55 -22 -132 -47 -283 -50 -300 -2
-11 -7 -45 -12 -75 -4 -30 -8 -57 -9 -60 -1 -7 -15 -97 -21 -140 -3 -19 -10
-54 -15 -77 -5 -24 -9 -46 -8 -50 1 -5 0 -10 -1 -13 -1 -3 -4 -18 -6 -35 -3
-16 -11 -68 -19 -115 -8 -47 -17 -103 -20 -125 -3 -22 -10 -62 -15 -90 -6 -27
-12 -68 -15 -90 -3 -22 -8 -51 -11 -65 -2 -14 -7 -43 -9 -65 -3 -22 -10 -62
-15 -90 -15 -77 -18 -98 -19 -124 -1 -13 -4 -22 -7 -19 -3 3 -5 93 -5 200 0
106 0 674 1 1261 0 709 3 1066 10 1062 6 -3 10 -10 10 -14z m505 -926 c61
-111 104 -190 134 -247 l30 -56 -29 -84 c-43 -126 -170 -489 -245 -703 -37
-104 -68 -194 -69 -200 -2 -5 -6 -17 -9 -25 -3 -8 -20 -55 -37 -105 -17 -49
-35 -99 -40 -110 -5 -11 -16 -45 -25 -75 -9 -30 -20 -64 -25 -75 -5 -11 -11
-27 -14 -35 -3 -8 -3 8 0 35 5 52 8 72 24 165 5 30 12 71 15 90 3 19 10 60 15
90 5 30 12 73 15 95 4 22 15 92 25 155 11 63 22 133 25 155 2 22 7 51 10 65 2
13 7 40 10 60 3 20 8 47 10 60 3 14 7 41 10 60 3 19 7 46 9 60 3 14 8 45 11
70 4 25 11 68 16 95 6 28 12 64 14 80 10 67 42 266 51 315 7 34 16 102 17 118
1 25 19 6 52 -53z m452 -825 c103 -188 101 -184 90 -207 -5 -13 -14 -23 -19
-23 -4 0 -8 -7 -8 -15 0 -8 -4 -15 -9 -15 -5 0 -12 -8 -16 -19 -3 -10 -13 -28
-23 -39 -9 -11 -24 -30 -32 -42 -8 -12 -30 -42 -47 -66 -18 -23 -33 -48 -33
-53 0 -6 -4 -11 -10 -11 -5 0 -10 -4 -10 -10 0 -5 -7 -18 -16 -27 -12 -14
-174 -244 -284 -403 -26 -38 -111 -158 -132 -187 -13 -17 -59 -83 -102 -147
-44 -64 -81 -114 -83 -113 -3 3 109 332 137 402 6 17 13 37 15 45 2 8 27 80
56 160 28 80 56 161 61 180 6 19 13 39 15 44 3 5 32 83 63 175 121 348 190
547 197 561 3 8 8 23 10 33 2 10 8 28 14 39 12 22 1 38 166 -262z m241 -437
c34 -64 87 -163 157 -292 43 -79 64 -126 57 -129 -7 -2 -18 -9 -25 -15 -7 -7
-39 -30 -72 -52 -33 -22 -62 -42 -65 -45 -3 -4 -29 -21 -57 -40 -29 -18 -53
-37 -53 -42 0 -4 -4 -8 -10 -8 -8 0 -68 -39 -145 -94 -11 -8 -93 -66 -182
-128 -89 -62 -170 -119 -180 -126 -149 -105 -320 -221 -326 -222 -5 0 9 22 30
49 21 27 81 111 133 187 91 131 270 388 287 409 4 6 33 46 62 90 30 44 59 82
63 83 4 2 8 8 8 14 0 5 6 16 13 23 6 8 70 97 141 199 71 102 133 183 137 181
4 -3 16 -22 27 -42z m348 -636 c4 -12 17 -38 29 -57 21 -34 87 -155 137 -250
12 -25 26 -47 30 -50 3 -3 8 -14 10 -24 3 -16 -16 -24 -147 -58 -82 -21 -159
-40 -170 -42 -11 -2 -40 -9 -65 -16 -25 -7 -52 -14 -60 -15 -8 -2 -197 -49
-420 -105 -223 -57 -409 -103 -415 -105 -5 -1 -23 -5 -38 -10 -37 -10 -45 0
-14 17 14 7 55 34 92 61 36 26 70 47 75 47 4 0 10 4 12 8 2 4 93 70 203 147
110 76 241 167 290 202 50 35 97 68 105 74 8 5 36 24 61 42 26 18 82 56 125
86 44 30 90 63 103 73 27 20 45 12 57 -25z m356 -652 c6 -16 14 -32 17 -35 3
-3 13 -18 22 -35 15 -28 33 -60 112 -205 16 -30 41 -74 54 -98 l25 -42 -33 4
c-19 3 -68 8 -109 11 -41 3 -97 8 -125 10 -115 10 -183 15 -240 20 -33 3 -87
7 -120 10 -33 3 -87 8 -120 10 -33 3 -82 7 -110 10 -27 2 -84 7 -125 10 -41 4
-95 9 -120 11 -25 2 -72 6 -105 9 -113 9 -180 14 -250 21 -38 3 -89 7 -113 9
-52 2 -63 11 -25 19 15 4 37 8 48 11 11 2 45 11 75 20 30 8 71 18 90 21 19 3
38 8 42 11 5 2 16 6 25 8 10 2 101 24 203 50 102 25 196 48 210 51 14 3 34 8
45 11 11 4 25 8 30 9 47 9 541 137 545 140 6 7 37 -35 52 -71z m-2072 -425
c14 0 126 -62 254 -140 125 -77 232 -140 237 -140 5 0 9 -4 9 -10 0 -5 5 -10
11 -10 5 0 31 -14 57 -30 26 -17 173 -107 327 -200 154 -93 285 -173 291 -177
5 -4 21 -14 35 -22 77 -45 325 -196 329 -201 5 -5 32 -21 75 -44 18 -10 104
-63 151 -94 10 -6 30 -18 44 -24 14 -7 27 -15 30 -18 3 -3 16 -11 30 -19 14
-8 135 -82 270 -164 135 -83 257 -157 272 -166 15 -9 112 -68 215 -131 104
-63 225 -137 271 -165 108 -65 126 -76 195 -118 l58 -36 -3206 1 -3206 0 37
66 c20 37 51 94 69 127 60 111 108 199 202 369 51 93 93 172 93 176 0 4 7 13
15 20 8 7 15 21 15 30 0 10 4 20 8 22 8 3 39 58 129 228 10 19 20 37 23 40 3
3 13 21 22 40 10 19 30 58 46 85 16 28 53 95 82 150 29 54 66 121 82 148 15
26 28 49 28 51 0 2 16 33 36 68 20 34 56 100 80 145 84 155 70 142 144 145 49
2 2014 1 2140 -2z m942 -75 c45 -4 106 -9 133 -11 28 -1 50 -3 50 -4 0 -1 25
-3 55 -5 30 -2 84 -7 120 -10 36 -3 92 -8 125 -10 86 -7 162 -13 225 -19 30
-3 87 -8 125 -11 39 -3 86 -7 105 -9 19 -3 76 -8 125 -11 87 -7 108 -8 240
-20 134 -11 168 -15 170 -17 14 -16 132 -238 127 -238 -4 0 -2 -4 3 -8 6 -4
15 -16 21 -27 6 -11 25 -45 41 -75 17 -30 45 -82 63 -115 17 -33 36 -64 41
-70 5 -5 9 -15 9 -22 0 -11 -4 -11 -22 -1 -13 6 -27 13 -33 14 -5 1 -55 19
-110 39 -55 20 -111 40 -125 45 -14 4 -63 22 -110 40 -47 17 -112 40 -145 52
-33 11 -73 26 -90 33 -16 7 -61 24 -100 38 -38 14 -171 62 -295 107 -124 45
-268 98 -320 117 -52 18 -120 43 -150 55 -87 33 -89 34 -215 78 -66 23 -128
46 -137 51 -10 5 -25 9 -33 9 -8 0 -15 4 -15 9 0 6 9 8 19 6 11 -2 57 -7 103
-10z m208 -332 c8 -3 20 -7 25 -9 6 -1 46 -16 90 -32 44 -16 107 -40 140 -52
33 -12 76 -27 95 -35 19 -7 69 -25 110 -40 41 -15 82 -29 90 -32 8 -3 20 -7
25 -9 6 -2 258 -94 560 -205 303 -110 558 -203 567 -206 18 -5 35 -32 108
-168 24 -44 46 -84 50 -90 4 -5 29 -50 55 -100 27 -49 61 -112 76 -140 16 -27
39 -70 52 -95 12 -25 31 -57 41 -72 10 -16 16 -28 12 -28 -9 0 -59 29 -219
128 -81 51 -152 92 -157 92 -6 0 -10 5 -10 10 0 6 -4 10 -9 10 -4 0 -53 27
-107 61 -54 33 -106 65 -114 70 -8 5 -59 36 -113 69 -54 33 -102 60 -106 60
-4 0 -16 8 -27 18 -10 9 -30 23 -44 29 -23 12 -183 108 -220 133 -8 5 -31 19
-50 30 -19 11 -47 28 -62 38 -23 14 -268 164 -373 227 -36 21 -305 186 -364
222 -48 29 -153 92 -207 123 -71 42 -71 50 2 24 38 -14 76 -27 84 -31z"/>
</g>
</svg>
