<svg width="86" height="82" viewBox="0 0 86 82" xmlns="http://www.w3.org/2000/svg"><title>challenge-thumb</title><g fill="none" fill-rule="evenodd"><path d="M79.457 61H6.543C4.033 61 2 58.98 2 56.489V6.511C2 4.019 4.034 2 6.543 2h72.914C81.967 2 84 4.02 84 6.511v49.978C84 58.981 81.966 61 79.457 61z" fill="#FFF"/><path d="M2 15V6.217C2 3.89 3.84 2 6.11 2h73.78C82.16 2 84 3.889 84 6.217V15H2z" fill="#CEDAF2"/><path fill="#2866DC" d="M2 16h82v-3H2zm9-6h3V7h-3zm8 0h3V7h-3zm7 0h3V7h-3z"/><path d="M79.961 63h-1.683v-3.378h1.683c1.478 0 2.68-1.21 2.68-2.696V6.074a2.691 2.691 0 0 0-2.68-2.696H67V0h12.961C83.291 0 86 2.725 86 6.074v50.852C86 60.275 83.29 63 79.961 63M51 3h10V0H51zM7.347 63h-1.29C2.718 63 0 60.275 0 56.926V6.074C0 2.725 2.718 0 6.057 0H49v3.378H6.057A2.695 2.695 0 0 0 3.37 6.074v50.852a2.695 2.695 0 0 0 2.687 2.696h1.29V63z" fill="#2866DC"/><path d="M79 82c0-19.883-16.119-36-36-36C23.117 46 7 62.117 7 82h72z" fill="#CEDAF2"/><path d="M80 81h-3.374c0-18.567-15.308-33.671-34.125-33.671S8.374 62.433 8.374 81H5c0-20.402 16.822-37 37.501-37C63.178 44 80 60.598 80 81" fill="#2866DC"/><path d="M74 81c0-16.568-13.656-30-30.5-30S13 64.432 13 81h61z" fill="#CEDAF2"/><path d="M59 81c0-8.837-7.387-16-16.5-16S26 72.163 26 81h33z" fill="#FFF"/><path d="M47 82a4 4 0 1 0-8 0h8z" fill="#2866DC"/><path d="M75 82h-3.373c0-15.785-12.842-28.627-28.627-28.627-15.785 0-28.627 12.842-28.627 28.627H11c0-17.645 14.355-32 32-32s32 14.355 32 32" fill="#2866DC"/><path fill="#2866DC" d="M43.937 57L41 56.956 41.063 51l2.937.044zm12.085 4L53 59.15 55.978 54 59 55.847zm8.637 10L63 68.015 68.341 65 70 67.983zm-43.398 0L16 67.891 17.739 65 23 68.109zm9.622-10L28 55.764 31.114 54 34 59.236zM43 78.614L57.054 66l.946.93L45.429 81zM41 46h3v-7h-3z"/><path d="M49.132 42H37.868C36.838 42 36 41.209 36 40.235v-3.47c0-.974.837-1.765 1.868-1.765h11.264c1.033 0 1.868.791 1.868 1.765v3.47C51 41.21 50.165 42 49.132 42" fill="#CEDAF2"/><path d="M37.517 36.522l-.12 3.832 11.086.124c.066 0 .12-.056.12-.124v-3.708l-11.086-.124zM48.483 44H37.517C35.578 44 34 42.364 34 40.354v-3.708C34 34.636 35.578 33 37.517 33h10.966C50.422 33 52 34.636 52 36.646v3.708C52 42.364 50.422 44 48.483 44zm15.185 7L61 49.343 63.332 45 66 46.657z" fill="#2866DC"/><path d="M67.37 49.758l-6.474-3.76a1.808 1.808 0 0 1-.655-2.463l.938-1.634a1.788 1.788 0 0 1 2.45-.658l6.476 3.759a1.81 1.81 0 0 1 .654 2.463l-.938 1.633a1.788 1.788 0 0 1-2.45.66" fill="#CEDAF2"/><path d="M67.64 48.719a.113.113 0 0 0 .16-.044l.915-1.584-6.358-3.806-1.074 1.628 6.358 3.806zM67.694 52a3.36 3.36 0 0 1-1.687-.451l-6.314-3.65a3.386 3.386 0 0 1-1.24-4.62l.918-1.587a3.356 3.356 0 0 1 2.052-1.575 3.36 3.36 0 0 1 2.571.34l6.315 3.645a3.365 3.365 0 0 1 1.575 2.057 3.352 3.352 0 0 1-.34 2.569l-.913 1.581A3.388 3.388 0 0 1 67.693 52zm-46.362-1L19 46.657 21.668 45 24 49.343z" fill="#2866DC"/><path d="M18.63 49.758l6.474-3.76a1.808 1.808 0 0 0 .655-2.463l-.938-1.634a1.788 1.788 0 0 0-2.45-.658l-6.474 3.759a1.809 1.809 0 0 0-.656 2.463l.938 1.633a1.788 1.788 0 0 0 2.45.66" fill="#CEDAF2"/><path d="M22.803 43.327l-6.476 3.606.874 1.742.976 1.458-.817-1.414 6.314-3.65-.871-1.742zM17.31 52a3.39 3.39 0 0 1-2.938-1.688l-.915-1.589a3.345 3.345 0 0 1-.34-2.566 3.37 3.37 0 0 1 1.573-2.054l6.32-3.647a3.366 3.366 0 0 1 2.566-.34 3.37 3.37 0 0 1 2.055 1.575l.917 1.586a3.392 3.392 0 0 1-1.237 4.623l-6.317 3.647A3.356 3.356 0 0 1 17.31 52z" fill="#2866DC"/></g></svg>