<svg width="103" height="85" viewBox="0 0 103 85" xmlns="http://www.w3.org/2000/svg" xmlns:xlink="http://www.w3.org/1999/xlink"><title>Page 1</title><defs><path id="a" d="M.787 24.82h47.798V.857H.787z"/><path id="c" d="M32.123.945H.491v16.478h31.632V.945z"/><path id="e" d="M0 85.054h102.033V1.256H0z"/></defs><g transform="translate(0 -1)" fill="none" fill-rule="evenodd"><path d="M29.417 38.606H10.678l-8.78-17.295c-.667-1.316.28-2.877 1.747-2.877h6.48a1.96 1.96 0 0 1 1.444.638l17.848 19.534z" fill="#FFF"/><path d="M29.417 38.606H10.678l-8.78-17.295c-.667-1.316.28-2.877 1.747-2.877h6.48a1.96 1.96 0 0 1 1.444.638l17.848 19.534z" fill="#FFF"/><path d="M5.702 18.434H3.646c-1.466 0-2.416 1.561-1.749 2.877l8.78 17.295h7.302L5.919 19.26a2.187 2.187 0 0 1-.217-.826" fill="#CEDAF2"/><path d="M11.706 36.914h13.883L10.333 20.219a.28.28 0 0 0-.208-.093h-6.48a.268.268 0 0 0-.242.135.28.28 0 0 0-.01.278l8.313 16.375zm21.54 3.384H9.65L.403 22.082a3.667 3.667 0 0 1 .136-3.585 3.61 3.61 0 0 1 3.106-1.756h6.48c1.014 0 1.993.431 2.68 1.185l20.441 22.372z" fill="#2866DC"/><path d="M94.846 29.575h-.215c-.95-3.292-3.959-5.702-7.53-5.702a7.77 7.77 0 0 0-4.232 1.255c-.793-5.185-5.228-9.163-10.598-9.163-4.82 0-8.898 3.201-10.255 7.608a7.267 7.267 0 0 0-1.917-.262c-3.676 0-6.717 2.715-7.275 6.264h-1.202c-3.027 0-5.506 2.498-5.506 5.549v.408c0 3.053 2.479 5.549 5.506 5.549h43.224c3.03 0 5.506-2.496 5.506-5.549v-.408c0-3.05-2.476-5.549-5.506-5.549" fill="#CEDAF2"/><path d="M94.847 42.773v-3.385c2.11 0 3.827-1.73 3.827-3.856v-.408c0-2.126-1.718-3.856-3.827-3.856h-1.263l-.566-1.221c-.76-2.638-3.193-4.481-5.919-4.481-1.175 0-2.324.34-3.322.986l-2.175 1.41-.394-2.575c-.683-4.479-4.442-7.73-8.938-7.73-3.99 0-7.468 2.581-8.652 6.42l-.482 1.559-1.563-.43c-3.316-.908-6.574 1.346-7.089 4.636l-.226 1.426h-2.635a3.848 3.848 0 0 0-3.294 1.902l-2.886-1.73c1.272-2.16 3.587-3.514 6.061-3.557 1.28-3.965 5.155-6.67 9.433-6.221 1.982-4.477 6.369-7.39 11.333-7.39 5.414 0 10.049 3.44 11.733 8.432a9.407 9.407 0 0 1 3.096-.523c3.81 0 7.249 2.33 8.74 5.794 3.576.558 6.193 3.552 6.193 7.149v.408c0 3.994-3.222 7.241-7.185 7.241" fill="#2866DC"/><path d="M77.854 25.173a7.222 7.222 0 0 0-6.09-3.337 7.219 7.219 0 0 0-3.704 1.02l-1.71-2.913a10.559 10.559 0 0 1 5.414-1.491c3.612 0 6.939 1.823 8.907 4.88l-2.817 1.841zM65.738 27.13H62.38c0-1.189-.962-2.16-2.142-2.16v-3.384c3.031 0 5.501 2.487 5.501 5.544" fill="#2866DC"/><path d="M47.873 73.933h-.177c-.777-2.698-3.242-4.67-6.17-4.67a6.36 6.36 0 0 0-3.467 1.026c-.65-4.249-4.284-7.507-8.683-7.507-3.95 0-7.291 2.622-8.404 6.232a6.005 6.005 0 0 0-1.57-.214c-3.013 0-5.506 2.225-5.962 5.133h-.983c-2.483 0-4.512 2.047-4.512 4.547v.334c0 2.502 2.029 4.547 4.512 4.547h35.416c2.481 0 4.512-2.045 4.512-4.547v-.334c0-2.5-2.031-4.547-4.512-4.547" fill="#CEDAF2"/><path d="M18.783 83.361h-6.328c-2.481 0-4.51-2.046-4.51-4.546v-.334c0-2.503 2.029-4.547 4.51-4.547h.985c.457-2.908 2.95-5.133 5.963-5.133.544 0 1.068.079 1.57.214 1.112-3.61 4.453-6.232 8.4-6.232 4.403 0 8.037 3.256 8.686 7.507a6.356 6.356 0 0 1 3.467-1.029c2.928 0 5.394 1.974 6.17 4.673h.178c2.48 0 4.511 2.044 4.511 4.547v.334c0 2.5-2.03 4.546-4.511 4.546H18.783z" fill="#CEDAF2"/><g transform="translate(5.478 60.234)"><mask id="b" fill="#fff"><use xlink:href="#a"/></mask><path d="M6.978 15.392c-1.56 0-2.833 1.279-2.833 2.854v.334c0 1.575 1.272 2.857 2.833 2.857h35.416c1.563 0 2.833-1.282 2.833-2.857v-.334c0-1.575-1.27-2.854-2.833-2.854h-1.26l-.529-1.221c-.584-2.03-2.459-3.45-4.559-3.45-.904 0-1.787.262-2.557.76l-2.174 1.406-.394-2.572c-.538-3.523-3.491-6.075-7.024-6.075-3.14 0-5.87 2.027-6.8 5.044l-.48 1.556-1.565-.426c-2.55-.688-5.036 1.036-5.43 3.55l-.226 1.428H6.978zm35.416 9.43H6.978c-3.413 0-6.191-2.801-6.191-6.242v-.334c0-3.335 2.606-6.065 5.875-6.23 1.13-3.204 4.275-5.359 7.76-5.124A10.416 10.416 0 0 1 23.898.856c4.464 0 8.302 2.77 9.803 6.832a7.907 7.907 0 0 1 2.346-.352c3.189 0 6.07 1.914 7.374 4.78 2.989.543 5.165 3.084 5.165 6.13v.334c0 3.441-2.776 6.241-6.19 6.241z" fill="#2866DC" mask="url(#b)"/></g><path d="M43.246 10.044h-.112c-.495-1.717-2.064-2.972-3.925-2.972-.813 0-1.57.242-2.206.655-.414-2.706-2.727-4.777-5.526-4.777-2.512 0-4.637 1.667-5.345 3.964a3.851 3.851 0 0 0-.998-.135c-1.917 0-3.502 1.415-3.793 3.265h-.627c-1.579 0-2.869 1.302-2.869 2.893v.212c0 1.59 1.29 2.893 2.869 2.893h22.532c1.579 0 2.87-1.302 2.87-2.893v-.212c0-1.591-1.291-2.893-2.87-2.893" fill="#CEDAF2"/><path d="M24.74 16.042h-4.026c-1.579 0-2.869-1.302-2.869-2.893v-.212c0-1.59 1.29-2.893 2.869-2.893h.627c.29-1.85 1.876-3.265 3.793-3.265.345 0 .678.05.998.136.708-2.297 2.833-3.965 5.345-3.965 2.8 0 5.112 2.072 5.526 4.777a4.037 4.037 0 0 1 2.206-.654c1.86 0 3.43 1.254 3.925 2.971h.112c1.579 0 2.87 1.302 2.87 2.893v.212c0 1.591-1.291 2.893-2.87 2.893H24.74z" fill="#CEDAF2"/><g transform="translate(15.674 .31)"><mask id="d" fill="#fff"><use xlink:href="#c"/></mask><path d="M5.041 11.426c-.645 0-1.191.55-1.191 1.2 0 .862.546 1.413 1.191 1.413h22.532c.645 0 1.192-.551 1.192-1.2 0-.863-.547-1.413-1.192-1.413H26.31l-.463-1.221c-.421-1.474-2.318-2.2-3.61-1.368l-2.174 1.41-.394-2.574c-.29-1.906-1.952-3.344-3.865-3.344a3.907 3.907 0 0 0-3.743 2.778l-.48 1.554-1.558-.421c-1.335-.368-2.501.514-2.696 1.757l-.226 1.429h-2.06zm22.532 5.997H5.041c-2.508 0-4.55-2.058-4.55-4.585 0-2.505 1.708-4.44 3.919-4.752a5.486 5.486 0 0 1 4.997-3.31A7.232 7.232 0 0 1 15.804.945a7.22 7.22 0 0 1 6.597 4.235c2.474-.494 5.085.794 6.243 3.005a4.574 4.574 0 0 1 3.48 4.441c0 2.74-2.043 4.797-4.55 4.797z" fill="#2866DC" mask="url(#d)"/></g><path d="M94.656 45.33H92.85c-1.608-4.405-5.772-7.564-10.7-7.564H5.674c0 10.635 8.556 19.256 19.109 19.256h69.872c2.911 0 5.269-2.378 5.269-5.309V50.64c0-2.933-2.358-5.31-5.269-5.31" fill="#FFF"/><path d="M94.656 52.51H24.784c-9.008 0-16.54-6.29-18.558-14.742h-.55c0 10.632 8.555 19.254 19.108 19.254h69.872c2.911 0 5.269-2.376 5.269-5.31V50.64c0-.605-.121-1.178-.307-1.72-.712 2.083-2.653 3.59-4.962 3.59" fill="#CEDAF2"/><path d="M7.435 39.459c.847 8.893 8.305 15.872 17.35 15.872h69.871c1.98 0 3.59-1.625 3.59-3.617V50.64c0-1.995-1.61-3.617-3.59-3.617h-2.978l-.405-1.11c-1.408-3.861-5.076-6.454-9.124-6.454H7.435zm87.221 19.256H24.784c-11.462 0-20.788-9.398-20.788-20.948v-1.693H82.15c5.051 0 9.66 2.995 11.813 7.564h.694c3.831 0 6.948 3.14 6.948 7.002v1.074c0 3.86-3.117 7.001-6.948 7.001z" fill="#2866DC"/><path d="M27.54 43.889H5.486a2.635 2.635 0 0 1-2.624-2.645v-.833a2.635 2.635 0 0 1 2.624-2.644h22.056a2.635 2.635 0 0 1 2.624 2.644v.833a2.635 2.635 0 0 1-2.624 2.645m43.036 15.39H43.502a2.635 2.635 0 0 1-2.624-2.645v-1.958a2.635 2.635 0 0 1 2.624-2.645h27.076a2.635 2.635 0 0 1 2.624 2.645v1.958a2.635 2.635 0 0 1-2.624 2.645" fill="#CEDAF2"/><path d="M5.485 39.459a.95.95 0 0 0-.945.952v.833c0 .523.425.952.945.952H27.54a.95.95 0 0 0 .943-.952v-.833a.948.948 0 0 0-.943-.952H5.485zm22.055 6.122H5.485c-2.374 0-4.304-1.948-4.304-4.337v-.833c0-2.392 1.93-4.337 4.304-4.337H27.54c2.372 0 4.302 1.945 4.302 4.337v.833c0 2.39-1.93 4.337-4.302 4.337zm15.962 8.143a.95.95 0 0 0-.945.953v1.958c0 .524.426.952.945.952h27.076a.95.95 0 0 0 .945-.952v-1.958a.95.95 0 0 0-.945-.953H43.502zm27.076 7.248H43.502c-2.373 0-4.304-1.945-4.304-4.337v-1.958c0-2.392 1.93-4.337 4.304-4.337h27.076c2.37 0 4.303 1.945 4.303 4.337v1.958c0 2.392-1.932 4.337-4.303 4.337z" fill="#2866DC"/><mask id="f" fill="#fff"><use xlink:href="#e"/></mask><path fill="#2866DC" mask="url(#f)" d="M77.404 45.58h9.573v-3.384h-9.573zm-11.197 0h4.787v-3.384h-4.787zm-7.712 0h4.785v-3.384h-4.785zm-7.714 0h4.788v-3.384H50.78zm-7.716 0h4.787v-3.384h-4.787zm-7.711 0h4.785v-3.384h-4.785z"/></g></svg>