<svg width="1119" height="281" viewBox="0 0 1119 281" xmlns="http://www.w3.org/2000/svg" xmlns:xlink="http://www.w3.org/1999/xlink"><title>Group 14</title><defs><path id="a" d="M25.903.215v26.547H0V.215h25.903z"/><rect id="c" x="15.549" y="23.097" width="45.537" height="45.604" rx="2"/><ellipse id="d" cx="13.328" cy="69.813" rx="12.217" ry="12.235"/></defs><g fill="none" fill-rule="evenodd"><g opacity=".212" transform="rotate(-40 513.917 -1138.534)" fill="#26B5DD"><rect x="23.118" y="3.359" width="48.282" height="24.767" rx="12.384"/><rect x="75.203" y="7.348" width="14.059" height="9.863" rx="4.932"/><rect x="97.031" y="9.658" width="8.306" height="7.138" rx="3.569"/><rect x="1.168" y="7.138" width="8.306" height="7.138" rx="3.569"/><rect x=".008" y="43.385" width="8.326" height="7.495" rx="3.747"/><rect x="22.087" y="21.781" width="48.282" height="24.767" rx="12.384"/><rect x=".789" y="11.551" width="68.433" height="24.767" rx="12.384"/><rect x="52.475" y="20.785" width="48.282" height="24.767" rx="12.384"/><rect x="15.718" y=".09" width="48.282" height="24.767" rx="12.384"/><rect opacity=".609" x="43.924" y="37.993" width="34.655" height="16.54" rx="8.27"/><rect opacity=".491" x="18.045" y="41.571" width="48.282" height="24.767" rx="12.384"/><rect opacity=".541" x="32.792" y="71.171" width="23.739" height="12.177" rx="6.089"/><rect x="25.806" y="30.034" width="48.282" height="24.767" rx="12.384"/><rect x="11.744" y="29.744" width="48.282" height="24.767" rx="12.384"/><rect x="14.895" y="19.946" width="48.282" height="18.115" rx="9.058"/><rect x="23.671" y="1.26" width="21.264" height="7.978" rx="3.989"/></g><g transform="translate(883 27)" fill="#FFF" stroke="#455B8E" stroke-linecap="square" stroke-width="2"><path d="M50.078 52.961H0v-3.51c0-5.018 3.238-9.426 7.974-10.85C12.408 37.266 18.374 36 25.039 36c6.555 0 12.558 1.29 17.04 2.635 4.744 1.424 7.999 5.829 7.999 10.858v3.468z"/><ellipse cx="25.386" cy="14.134" rx="13.911" ry="14.134"/></g><g opacity=".212" transform="rotate(-40 327.148 114.003)" fill="#26B5DD"><rect x="20.979" y="3.048" width="43.816" height="22.476" rx="11.238"/><rect x="68.246" y="6.669" width="12.758" height="8.951" rx="4.475"/><rect x="88.055" y="8.764" width="7.538" height="6.478" rx="3.239"/><rect x="1.06" y="6.478" width="7.538" height="6.478" rx="3.239"/><rect x=".007" y="39.371" width="7.556" height="6.801" rx="3.401"/><rect x="20.044" y="19.766" width="43.816" height="22.476" rx="11.238"/><rect x=".716" y="10.482" width="62.102" height="22.476" rx="11.238"/><rect x="47.62" y="18.862" width="43.816" height="22.476" rx="11.238"/><rect x="14.264" y=".082" width="43.816" height="22.476" rx="11.238"/><rect opacity=".609" x="39.86" y="34.478" width="31.449" height="15.01" rx="7.505"/><rect opacity=".491" x="16.376" y="37.725" width="43.816" height="22.476" rx="11.238"/><rect opacity=".541" x="29.758" y="64.586" width="21.543" height="11.051" rx="5.525"/><rect x="23.418" y="27.256" width="43.816" height="22.476" rx="11.238"/><rect x="10.658" y="26.993" width="43.816" height="22.476" rx="11.238"/><rect x="13.517" y="18.1" width="43.816" height="16.439" rx="8.22"/><rect x="21.481" y="1.143" width="19.297" height="7.24" rx="3.62"/></g><g transform="translate(47 201)" fill="#FFF" fill-rule="nonzero" stroke="#455B8E" stroke-width="2"><ellipse cx="12.5" cy="8.065" rx="7.955" ry="8.065"/><path d="M19.318 19.587H5.682C2.549 19.587 0 22.171 0 25.347V36.87c0 .528.355.99.861 1.117l3.756.952 1.07 13.004A1.14 1.14 0 0 0 6.817 53h11.364a1.14 1.14 0 0 0 1.132-1.057l1.069-13.004 3.756-.952A1.15 1.15 0 0 0 25 36.87V25.348c0-3.177-2.549-5.761-5.682-5.761z"/></g><g transform="rotate(-40 173.917 -204.391)" fill="#26B5DD" opacity=".212"><rect x="23.118" y="3.359" width="48.282" height="24.767" rx="12.384"/><rect x="75.203" y="7.348" width="14.059" height="9.863" rx="4.932"/><rect x="97.031" y="9.658" width="8.306" height="7.138" rx="3.569"/><rect x="1.168" y="7.138" width="8.306" height="7.138" rx="3.569"/><rect x=".008" y="43.385" width="8.326" height="7.495" rx="3.747"/><rect x="22.087" y="21.781" width="48.282" height="24.767" rx="12.384"/><rect x=".789" y="11.551" width="68.433" height="24.767" rx="12.384"/><rect x="52.475" y="20.785" width="48.282" height="24.767" rx="12.384"/><rect x="15.718" y=".09" width="48.282" height="24.767" rx="12.384"/><rect opacity=".609" x="43.924" y="37.993" width="34.655" height="16.54" rx="8.27"/><rect opacity=".491" x="18.045" y="41.571" width="48.282" height="24.767" rx="12.384"/><rect opacity=".541" x="32.792" y="71.171" width="23.739" height="12.177" rx="6.089"/><rect x="25.806" y="30.034" width="48.282" height="24.767" rx="12.384"/><rect x="11.744" y="29.744" width="48.282" height="24.767" rx="12.384"/><rect x="14.895" y="19.946" width="48.282" height="18.115" rx="9.058"/><rect x="23.671" y="1.26" width="21.264" height="7.978" rx="3.989"/></g><g fill="#FFF" stroke="#455B8E" stroke-width="2"><path d="M230.364 60.814c-7.28 0-13.182-8.586-13.182-15.907v-2.651c0-7.321 5.901-13.256 13.182-13.256 7.28 0 13.181 5.935 13.181 13.256v2.651c0 7.321-5.901 15.907-13.181 15.907z" stroke-linecap="square"/><path d="M239.173 67.996a70.596 70.596 0 0 0-8.81-.554c-8.288 0-15.128 1.455-19.763 2.842-3.919 1.172-6.6 4.787-6.6 8.897v5.493h32.955"/><path d="M260.104 66.704c-2.885-2.913-7.702-2.437-9.968 1.008-2.268-3.449-7.085-3.918-9.968-1.008-2.527 2.55-2.527 6.686 0 9.235L250.135 86l9.97-10.061c2.526-2.55 2.526-6.685 0-9.235z" stroke-linecap="square"/></g><g transform="rotate(-40 595.392 -1362.48)" fill="#26B5DD" opacity=".213"><rect x="22.775" y="3.308" width="47.567" height="24.389" rx="12.195"/><rect x="74.089" y="7.236" width="13.851" height="9.713" rx="4.856"/><rect x="95.594" y="9.51" width="8.183" height="7.029" rx="3.515"/><rect x="1.15" y="7.029" width="8.183" height="7.029" rx="3.515"/><rect x=".008" y="42.723" width="8.203" height="7.38" rx="3.69"/><rect x="21.76" y="21.449" width="47.567" height="24.389" rx="12.195"/><rect x=".777" y="11.374" width="67.419" height="24.389" rx="12.195"/><rect x="51.698" y="20.468" width="47.567" height="24.389" rx="12.195"/><rect x="15.485" y=".088" width="47.567" height="24.389" rx="12.195"/><rect opacity=".609" x="43.273" y="37.413" width="34.142" height="16.288" rx="8.144"/><rect opacity=".491" x="17.778" y="40.936" width="47.567" height="24.389" rx="12.195"/><rect opacity=".541" x="32.306" y="70.084" width="23.387" height="11.991" rx="5.996"/><rect x="25.423" y="29.576" width="47.567" height="24.389" rx="12.195"/><rect x="11.57" y="29.291" width="47.567" height="24.389" rx="12.195"/><rect x="14.674" y="19.641" width="47.567" height="17.839" rx="8.919"/><rect x="23.32" y="1.24" width="20.949" height="7.856" rx="3.928"/></g><path d="M1050.89 42.68h42.22s5.605 10.66 5.605 16.353c0 5.694-5.606 17.986-5.606 17.986h-42.218v-34.34z" fill="#FFF"/><g stroke="#455B8E" stroke-width="2" transform="translate(1045 26)"><path d="M30.374 27.1c-3.246-.162-5.829-2.856-5.829-6.154 0 3.402-2.747 6.16-6.136 6.16-3.388 0-6.136-2.758-6.136-6.16 0 3.402-2.748 6.16-6.137 6.16C2.748 27.107 0 24.54 0 19.715L9.818 0h29.455l9.818 19.714c0 .82-.08 1.577-.228 2.266M7.364 27.107v22.178h22.09" fill="#FFF"/><path d="M54 32.035c0 7.64-12.273 19.96-12.273 19.96s-12.272-12.32-12.272-19.96c0-7.885 6.381-12.321 12.272-12.321S54 24.15 54 32.035z" stroke-linecap="square"/><ellipse stroke-linecap="square" cx="41.727" cy="32.035" rx="3.682" ry="3.696"/></g><g opacity=".212" transform="rotate(-40 499.213 -354.263)" fill="#26B5DD"><rect x="21.578" y="3.136" width="45.067" height="23.118" rx="11.559"/><rect x="70.195" y="6.859" width="13.123" height="9.206" rx="4.603"/><rect x="90.57" y="9.015" width="7.753" height="6.663" rx="3.332"/><rect x="1.09" y="6.663" width="7.753" height="6.663" rx="3.332"/><rect x=".007" y="40.496" width="7.772" height="6.995" rx="3.498"/><rect x="20.617" y="20.331" width="45.067" height="23.118" rx="11.559"/><rect x=".737" y="10.782" width="63.876" height="23.118" rx="11.559"/><rect x="48.98" y="19.401" width="45.067" height="23.118" rx="11.559"/><rect x="14.672" y=".084" width="45.067" height="23.118" rx="11.559"/><rect opacity=".609" x="40.999" y="35.463" width="32.347" height="15.439" rx="7.719"/><rect opacity=".491" x="16.843" y="38.802" width="45.067" height="23.118" rx="11.559"/><rect opacity=".541" x="30.608" y="66.431" width="22.158" height="11.366" rx="5.683"/><rect x="24.087" y="28.034" width="45.067" height="23.118" rx="11.559"/><rect x="10.962" y="27.764" width="45.067" height="23.118" rx="11.559"/><rect x="13.903" y="18.617" width="45.067" height="16.909" rx="8.454"/><rect x="22.094" y="1.176" width="19.848" height="7.447" rx="3.723"/></g><g transform="translate(404 208)" fill="#FFF" fill-rule="nonzero" stroke="#455B8E" stroke-width="2"><ellipse cx="10.5" cy="6.848" rx="6.682" ry="6.848"/><path d="M16.227 16.63H4.773C2.14 16.63 0 18.825 0 21.522v9.782c0 .45.298.84.724.95l3.154.807.899 11.042a.962.962 0 0 0 .95.897h9.546c.497 0 .91-.39.95-.897l.899-11.042 3.154-.808a.974.974 0 0 0 .724-.949v-9.782c0-2.697-2.141-4.892-4.773-4.892z"/></g><g transform="translate(372 208)" fill="#FFF" fill-rule="nonzero" stroke="#455B8E" stroke-width="2"><ellipse cx="10.5" cy="6.848" rx="6.682" ry="6.848"/><path d="M16.227 16.63H4.773C2.14 16.63 0 18.825 0 21.522v9.782c0 .45.298.84.724.95l3.154.807.899 11.042a.962.962 0 0 0 .95.897h9.546c.497 0 .91-.39.95-.897l.899-11.042 3.154-.808a.974.974 0 0 0 .724-.949v-9.782c0-2.697-2.141-4.892-4.773-4.892z"/></g><g transform="translate(386 202)" fill="#FFF" fill-rule="nonzero" stroke="#455B8E" stroke-width="2"><ellipse cx="12.5" cy="8.065" rx="7.955" ry="8.065"/><path d="M19.318 19.587H5.682C2.549 19.587 0 22.171 0 25.347V36.87c0 .528.355.99.861 1.117l3.756.952 1.07 13.004A1.14 1.14 0 0 0 6.817 53h11.364a1.14 1.14 0 0 0 1.132-1.057l1.069-13.004 3.756-.952A1.15 1.15 0 0 0 25 36.87V25.348c0-3.177-2.549-5.761-5.682-5.761z"/></g><g transform="rotate(-40 668.548 -824.019)" fill="#26B5DD" opacity=".213"><rect x="22.775" y="3.308" width="47.567" height="24.389" rx="12.195"/><rect x="74.089" y="7.236" width="13.851" height="9.713" rx="4.856"/><rect x="95.594" y="9.51" width="8.183" height="7.029" rx="3.515"/><rect x="1.15" y="7.029" width="8.183" height="7.029" rx="3.515"/><rect x=".008" y="42.723" width="8.203" height="7.38" rx="3.69"/><rect x="21.76" y="21.449" width="47.567" height="24.389" rx="12.195"/><rect x=".777" y="11.374" width="67.419" height="24.389" rx="12.195"/><rect x="51.698" y="20.468" width="47.567" height="24.389" rx="12.195"/><rect x="15.485" y=".088" width="47.567" height="24.389" rx="12.195"/><rect opacity=".609" x="43.273" y="37.413" width="34.142" height="16.288" rx="8.144"/><rect opacity=".491" x="17.778" y="40.936" width="47.567" height="24.389" rx="12.195"/><rect opacity=".541" x="32.306" y="70.084" width="23.387" height="11.991" rx="5.996"/><rect x="25.423" y="29.576" width="47.567" height="24.389" rx="12.195"/><rect x="11.57" y="29.291" width="47.567" height="24.389" rx="12.195"/><rect x="14.674" y="19.641" width="47.567" height="17.839" rx="8.919"/><rect x="23.32" y="1.24" width="20.949" height="7.856" rx="3.928"/></g><g transform="translate(718 199)"><circle fill="#FFF" cx="26" cy="29" r="26"/><g transform="translate(1)" stroke="#455B8E" stroke-width="2"><path d="M10.457 49.57c1.546-1.145 2.731-4.055 2.731-4.055s1.336-.93 1.753-2.115c.418-1.185.024-2.796.024-2.796s1.183-3.48.626-4.456c-.558-.976-2.923-1.604-2.923-1.604s-.974-1.813-2.993-2.161c-1.323-.14-2.645-1.046-2.645-2.928 0-1.883 1.88-4.951 1.88-4.951s1.948-.955 2.226-1.652c.279-.697.374-2.322.374-2.322s1.854-3.277.81-5.16c-.333-.601-1.88-1.046-1.88-1.046l-2.168-3.259M43.835 44.53c-2.364-1.135-6.5-2.084-6.5-2.084s-3.022-3.37-5.005-3.091c-1.983.279-4.002 2.51-4.002 2.51s.14 4.114-.487 4.323c-.626.209-2.297-.907-3.341-.07s-.442 3.196-.442 3.196-2.273.71-2.55 1.477c-.279.767.826 2.475 1.037 3.13"/><path d="M27.326 5.077A24.698 24.698 0 0 0 24.5 4.91C10.969 4.91 0 15.9 0 29.455S10.969 54 24.5 54 49 43.011 49 29.455c0-1.662-.165-3.286-.479-4.854"/><ellipse stroke-linecap="square" cx="36.75" cy="11.045" rx="3.675" ry="3.682"/><path d="M47.775 10.8c0 7.61-11.025 17.427-11.025 17.427S25.725 18.41 25.725 10.8C25.725 3.965 31.422 0 36.75 0s11.025 3.965 11.025 10.8z" stroke-linecap="square"/></g></g><g transform="rotate(-40 751.412 -1052.08)" fill="#26B5DD" opacity=".212"><rect x="20.398" y="2.964" width="42.602" height="21.853" rx="10.927"/><rect x="66.356" y="6.484" width="12.405" height="8.703" rx="4.351"/><rect x="85.616" y="8.522" width="7.329" height="6.299" rx="3.149"/><rect x="1.03" y="6.299" width="7.329" height="6.299" rx="3.149"/><rect x=".007" y="38.281" width="7.347" height="6.613" rx="3.306"/><rect x="19.489" y="19.219" width="42.602" height="21.853" rx="10.927"/><rect x=".696" y="10.192" width="60.382" height="21.853" rx="10.927"/><rect x="46.301" y="18.34" width="42.602" height="21.853" rx="10.927"/><rect x="13.869" y=".079" width="42.602" height="21.853" rx="10.927"/><rect opacity=".609" x="38.756" y="33.523" width="30.578" height="14.594" rx="7.297"/><rect opacity=".491" x="15.922" y="36.68" width="42.602" height="21.853" rx="10.927"/><rect opacity=".541" x="28.934" y="62.798" width="20.946" height="10.745" rx="5.372"/><rect x="22.77" y="26.501" width="42.602" height="21.853" rx="10.927"/><rect x="10.362" y="26.245" width="42.602" height="21.853" rx="10.927"/><rect x="13.142" y="17.599" width="42.602" height="15.984" rx="7.992"/><rect x="20.886" y="1.112" width="18.763" height="7.04" rx="3.52"/></g><g stroke="#455B8E" stroke-width="2"><path fill="#FFF" d="M924.605 222.826v25.571l-21.429 6.132-21.428-6.132v-25.571l20.998-13.974z"/><path d="M903.176 206.882v47.647"/><path fill="#FFF" d="M903.176 206.882l5.042 15.944h21.43l-6.303-13.49-20.169-2.454-20.168 2.453-6.302 13.491h21.428l5.042-15.944"/></g><g transform="rotate(-40 412.947 -117.391)" fill="#26B5DD" opacity=".212"><rect x="23.118" y="3.359" width="48.282" height="24.767" rx="12.384"/><rect x="75.203" y="7.348" width="14.059" height="9.863" rx="4.932"/><rect x="97.031" y="9.658" width="8.306" height="7.138" rx="3.569"/><rect x="1.168" y="7.138" width="8.306" height="7.138" rx="3.569"/><rect x=".008" y="43.385" width="8.326" height="7.495" rx="3.747"/><rect x="22.087" y="21.781" width="48.282" height="24.767" rx="12.384"/><rect x=".789" y="11.551" width="68.433" height="24.767" rx="12.384"/><rect x="52.475" y="20.785" width="48.282" height="24.767" rx="12.384"/><rect x="15.718" y=".09" width="48.282" height="24.767" rx="12.384"/><rect opacity=".609" x="43.924" y="37.993" width="34.655" height="16.54" rx="8.27"/><rect opacity=".491" x="18.045" y="41.571" width="48.282" height="24.767" rx="12.384"/><rect opacity=".541" x="32.792" y="71.171" width="23.739" height="12.177" rx="6.089"/><rect x="25.806" y="30.034" width="48.282" height="24.767" rx="12.384"/><rect x="11.744" y="29.744" width="48.282" height="24.767" rx="12.384"/><rect x="14.895" y="19.946" width="48.282" height="18.115" rx="9.058"/><rect x="23.671" y="1.26" width="21.264" height="7.978" rx="3.989"/></g><g stroke="#455B8E" stroke-width="2"><path d="M228.773 194v5.767m-14.318-2.883v5.767m28.635-5.767v5.767" stroke-linecap="square"/><path d="M254.545 214.186H266v11.535c0 3.172-2.577 5.767-5.727 5.767h-7.16" fill="#FFF"/><path d="M228.773 248.79c-14.175 0-25.773-11.678-25.773-25.953v-8.651h51.545v8.651c0 14.275-11.597 25.954-25.772 25.954z" fill="#FFF" stroke-linecap="square"/><path d="M254.545 248.79H203c0 4.038 3.15 7.21 7.16 7.21h37.226c4.01 0 7.16-3.172 7.16-7.21z" fill="#FFF" stroke-linecap="square"/></g><path d="M1051.557 216.982l6.785.613 7.303 14.75-13.117 1.027z" fill="#FFF"/><g opacity=".231" transform="rotate(-40 830.458 -1267.463)" fill="#26B5DD"><rect x="24.88" y="3.616" width="51.962" height="26.661" rx="13.33"/><rect x="80.935" y="7.91" width="15.13" height="10.617" rx="5.309"/><rect x="104.427" y="10.396" width="8.939" height="7.684" rx="3.842"/><rect x="1.257" y="7.684" width="8.939" height="7.684" rx="3.842"/><rect x=".009" y="46.702" width="8.961" height="8.067" rx="4.034"/><rect x="23.771" y="23.446" width="51.962" height="26.661" rx="13.33"/><rect x=".849" y="12.434" width="73.649" height="26.661" rx="13.33"/><rect x="56.474" y="22.374" width="51.962" height="26.661" rx="13.33"/><rect x="16.916" y=".097" width="51.962" height="26.661" rx="13.33"/><rect opacity=".609" x="47.271" y="40.898" width="37.296" height="17.804" rx="8.902"/><rect opacity=".491" x="19.42" y="44.749" width="51.962" height="26.661" rx="13.33"/><rect opacity=".541" x="35.291" y="76.612" width="25.548" height="13.108" rx="6.554"/><rect x="27.772" y="32.33" width="51.962" height="26.661" rx="13.33"/><rect x="12.639" y="32.018" width="51.962" height="26.661" rx="13.33"/><rect x="16.03" y="21.47" width="51.962" height="19.5" rx="9.75"/><rect x="25.475" y="1.356" width="22.885" height="8.588" rx="4.294"/></g><g stroke-width="2"><path d="M1046 235.702h15.07m0 0h15.07m6.918.134l14.935-2.008" stroke="#444"/><path stroke="#455B8E" fill="#FFF" stroke-linecap="square" d="M1046 200.513h15.07v50.269H1046z"/><path d="M1053.535 208.054v12.567" stroke="#444" stroke-linecap="square"/><path stroke="#455B8E" fill="#FFF" stroke-linecap="square" d="M1061.07 200.513h15.07v50.269h-15.07z"/><path d="M1068.605 208.054v12.567" stroke="#444" stroke-linecap="square"/><path stroke="#455B8E" fill="#FFF" stroke-linecap="square" d="M1078.375 200.962l14.936-2.006 6.69 49.821-14.935 2.006z"/><path d="M1086.848 207.43l1.671 12.456" stroke="#444" stroke-linecap="square"/></g><g opacity=".231" transform="rotate(-40 341.8 -664.347)" fill="#26B5DD"><rect x="24.88" y="3.616" width="51.962" height="26.661" rx="13.33"/><rect x="80.935" y="7.91" width="15.13" height="10.617" rx="5.309"/><rect x="104.427" y="10.396" width="8.939" height="7.684" rx="3.842"/><rect x="1.257" y="7.684" width="8.939" height="7.684" rx="3.842"/><rect x=".009" y="46.702" width="8.961" height="8.067" rx="4.034"/><rect x="23.771" y="23.446" width="51.962" height="26.661" rx="13.33"/><rect x=".849" y="12.434" width="73.649" height="26.661" rx="13.33"/><rect x="56.474" y="22.374" width="51.962" height="26.661" rx="13.33"/><rect x="16.916" y=".097" width="51.962" height="26.661" rx="13.33"/><rect opacity=".609" x="47.271" y="40.898" width="37.296" height="17.804" rx="8.902"/><rect opacity=".491" x="19.42" y="44.749" width="51.962" height="26.661" rx="13.33"/><rect opacity=".541" x="35.291" y="76.612" width="25.548" height="13.108" rx="6.554"/><rect x="27.772" y="32.33" width="51.962" height="26.661" rx="13.33"/><rect x="12.639" y="32.018" width="51.962" height="26.661" rx="13.33"/><rect x="16.03" y="21.47" width="51.962" height="19.5" rx="9.75"/><rect x="25.475" y="1.356" width="22.885" height="8.588" rx="4.294"/></g><g fill="#FFF"><path d="M549.557 53.982l6.785.613 7.303 14.75-13.117 1.027z"/><g stroke-width="2" transform="translate(542 22)"><path d="M36.805 39.2H50.57c6.743 0 8.429 5.6 8.429 5.6l-29.78 10.78c-2.248.56-4.776.42-7.024-.28L8.43 48.86" stroke="#525D7D"/><path d="M8.429 30.8h2.81c4.635 0 8.85 2.1 11.237 5.6h8.429c4.074 0 8.428 4.34 8.428 8.4H19.667" stroke="#525D7D"/><ellipse stroke="#00B03D" stroke-linecap="square" cx="43.548" cy="21" rx="7.024" ry="7"/><ellipse stroke="#00B03D" stroke-linecap="square" cx="23.881" cy="7" rx="7.024" ry="7"/><path stroke="#525D7D" stroke-linecap="square" d="M0 28h8.429v22.4H0z"/></g></g><g opacity=".182" transform="rotate(-40 255.3 -426.69)" fill="#26B5DD"><rect x="24.88" y="3.616" width="51.962" height="26.661" rx="13.33"/><rect x="80.935" y="7.91" width="15.13" height="10.617" rx="5.309"/><rect x="104.427" y="10.396" width="8.939" height="7.684" rx="3.842"/><rect x="1.257" y="7.684" width="8.939" height="7.684" rx="3.842"/><rect x=".009" y="46.702" width="8.961" height="8.067" rx="4.034"/><rect x="23.771" y="23.446" width="51.962" height="26.661" rx="13.33"/><rect x=".849" y="12.434" width="73.649" height="26.661" rx="13.33"/><rect x="56.474" y="22.374" width="51.962" height="26.661" rx="13.33"/><rect x="16.916" y=".097" width="51.962" height="26.661" rx="13.33"/><rect opacity=".609" x="47.271" y="40.898" width="37.296" height="17.804" rx="8.902"/><rect opacity=".491" x="19.42" y="44.749" width="51.962" height="26.661" rx="13.33"/><rect opacity=".541" x="35.291" y="76.612" width="25.548" height="13.108" rx="6.554"/><rect x="27.772" y="32.33" width="51.962" height="26.661" rx="13.33"/><rect x="12.639" y="32.018" width="51.962" height="26.661" rx="13.33"/><rect x="16.03" y="21.47" width="51.962" height="19.5" rx="9.75"/><rect x="25.475" y="1.356" width="22.885" height="8.588" rx="4.294"/></g><g transform="translate(372 34)"><circle fill="#FFF" cx="22" cy="22" r="22"/><g stroke-linecap="square" stroke-width="2"><circle stroke="#525D7D" cx="22" cy="22" r="22"/><path stroke="#00B03D" d="M22 10v12h12"/></g></g><g opacity=".179" transform="rotate(-40 428.3 -902.003)" fill="#26B5DD"><rect x="24.88" y="3.616" width="51.962" height="26.661" rx="13.33"/><rect x="80.935" y="7.91" width="15.13" height="10.617" rx="5.309"/><rect x="104.427" y="10.396" width="8.939" height="7.684" rx="3.842"/><rect x="1.257" y="7.684" width="8.939" height="7.684" rx="3.842"/><rect x=".009" y="46.702" width="8.961" height="8.067" rx="4.034"/><rect x="23.771" y="23.446" width="51.962" height="26.661" rx="13.33"/><rect x=".849" y="12.434" width="73.649" height="26.661" rx="13.33"/><rect x="56.474" y="22.374" width="51.962" height="26.661" rx="13.33"/><rect x="16.916" y=".097" width="51.962" height="26.661" rx="13.33"/><rect opacity=".609" x="47.271" y="40.898" width="37.296" height="17.804" rx="8.902"/><rect opacity=".491" x="19.42" y="44.749" width="51.962" height="26.661" rx="13.33"/><rect opacity=".541" x="35.291" y="76.612" width="25.548" height="13.108" rx="6.554"/><rect x="27.772" y="32.33" width="51.962" height="26.661" rx="13.33"/><rect x="12.639" y="32.018" width="51.962" height="26.661" rx="13.33"/><rect x="16.03" y="21.47" width="51.962" height="19.5" rx="9.75"/><rect x="25.475" y="1.356" width="22.885" height="8.588" rx="4.294"/></g><g transform="translate(722 22)" stroke-width="2"><path stroke="#525D7D" fill="#FFF" d="M31.433 39.239V54L20.5 48.476 9.567 54V39.239"/><ellipse stroke="#525D7D" fill="#FFF" stroke-linecap="square" cx="20.5" cy="20.714" rx="20.5" ry="20.714"/><ellipse stroke="#00B03D" stroke-linecap="square" cx="20.5" cy="20.714" rx="6.833" ry="6.905"/></g><g opacity=".128" transform="rotate(-40 579.9 -586.371)" fill="#26B5DD"><rect x="22.585" y="3.488" width="46.799" height="25.715" rx="12.857"/><rect x="73.07" y="7.629" width="13.627" height="10.24" rx="5.12"/><rect x="94.228" y="10.027" width="8.051" height="7.411" rx="3.706"/><rect x="1.309" y="7.411" width="8.051" height="7.411" rx="3.706"/><rect x=".185" y="45.044" width="8.07" height="7.781" rx="3.891"/><rect x="21.586" y="22.614" width="46.799" height="25.715" rx="12.857"/><rect x=".942" y="11.993" width="66.331" height="25.715" rx="12.857"/><rect x="51.04" y="21.58" width="46.799" height="25.715" rx="12.857"/><rect x="15.413" y=".093" width="46.799" height="25.715" rx="12.857"/><rect opacity=".609" x="42.752" y="39.446" width="33.591" height="17.173" rx="8.586"/><rect opacity=".491" x="17.668" y="43.161" width="46.799" height="25.715" rx="12.857"/><rect opacity=".541" x="31.962" y="73.893" width="23.01" height="12.643" rx="6.322"/><rect x="25.19" y="31.183" width="46.799" height="25.715" rx="12.857"/><rect x="11.56" y="30.882" width="46.799" height="25.715" rx="12.857"/><rect x="14.614" y="20.708" width="46.799" height="18.808" rx="9.404"/><rect x="23.121" y="1.308" width="20.611" height="8.283" rx="4.142"/></g><g stroke="#525D7D" stroke-width="2"><path d="M530.16 225.1s18.54-7.691 28.154-11.642c9.616-3.95 41.999-17.183 41.999-17.183s-9.017 19.898-13.41 30.381c-4.395 10.483-11.27 28.497-11.27 28.497l-17.319-11.98 3.3-13.909-12.597 5.518-18.857-9.682z" fill="#FFF"/><path d="M548.971 233.831l-3.107 15.6 12.949-6.37m40.361-44.804s-24.89 20.805-39.292 32.173"/></g><g transform="translate(588.446 232.256)"><ellipse fill="#80BCFE" cx="13.419" cy="14.329" rx="10.979" ry="11.202"/><g transform="translate(0 .086)"><mask id="b" fill="#fff"><use xlink:href="#a"/></mask><path d="M6.512 2.816c.98-.57 2.265-1.256 3.52-1.514a14.918 14.918 0 0 1 3-.305c8.366 0 12.11 5.74 12.11 11.426 0 3.026-1.112 6.313-2.975 8.79-1.592 2.118-4.488 4.643-9.244 4.643-6.865 0-12.042-5.37-12.042-12.49 0-4.489 2.158-8.531 5.631-10.55m6.411 23.946c5.113 0 8.228-2.716 9.941-4.994 1.979-2.632 3.16-6.125 3.16-9.345C26.024 3.95 19.29.091 13.032.091c-1.067 0-2.134.108-3.173.322-1.377.283-2.744 1.011-3.78 1.614C2.329 4.207 0 8.551 0 13.365c0 7.638 5.556 13.397 12.923 13.397" stroke="#525D7D" fill="#525D7D" mask="url(#b)"/></g><path d="M11.65 6.834c0 1.455.152 2.922.298 4.34.114 1.102.231 2.241.275 3.354.004.12.056.234.142.315a.432.432 0 0 0 .319.117c.881-.046 1.776-.112 2.64-.176 1.158-.085 2.354-.173 3.526-.216a.446.446 0 0 0 .423-.466.444.444 0 0 0-.454-.435c-1.188.043-2.392.132-3.556.218-.717.052-1.455.106-2.186.15-.054-.992-.157-1.988-.257-2.956-.143-1.395-.292-2.838-.292-4.245a.445.445 0 0 0-.439-.45.445.445 0 0 0-.438.45" stroke="#FFF" fill="#FFF"/><path d="M21.785 14.135a.427.427 0 0 0 .087-.009c.112-.022.243-.025.382-.027.304-.004.683-.01 1.013-.265a.46.46 0 0 0 .088-.631.43.43 0 0 0-.614-.09c-.102.078-.287.081-.5.084-.164.003-.35.006-.542.045a.45.45 0 0 0-.343.53.442.442 0 0 0 .43.363m-8.246 8.133a.445.445 0 0 0-.439-.45.445.445 0 0 0-.439.45c0 .298.046.58.09.854.04.25.08.484.08.707 0 .25.195.45.438.45a.445.445 0 0 0 .438-.45c0-.298-.046-.58-.09-.855a4.518 4.518 0 0 1-.078-.706M2.814 15.002a5.27 5.27 0 0 0 1.753-.31.454.454 0 0 0 .277-.57.436.436 0 0 0-.554-.285c-.524.18-.993.263-1.476.263a.445.445 0 0 0-.438.451c0 .25.196.451.438.451m8.482-11.961c.04.285.083.58.217.926a.438.438 0 0 0 .57.251.455.455 0 0 0 .245-.586c-.096-.247-.128-.467-.164-.721a8.063 8.063 0 0 0-.066-.414.44.44 0 0 0-.516-.353.45.45 0 0 0-.345.53c.026.129.042.25.06.367" fill="#525D7D"/></g><path d="M542.348 237.933l-13.27 11.56m29.991 9.748l-9.66 8.093m5.951-17.236l-6.635 4.852" stroke="#525D7D" stroke-width="2"/><g opacity=".128" transform="rotate(-40 81.496 34.978)" fill="#26B5DD"><rect x="22.585" y="3.488" width="46.799" height="25.715" rx="12.857"/><rect x="73.07" y="7.629" width="13.627" height="10.24" rx="5.12"/><rect x="94.228" y="10.027" width="8.051" height="7.411" rx="3.706"/><rect x="1.309" y="7.411" width="8.051" height="7.411" rx="3.706"/><rect x=".185" y="45.044" width="8.07" height="7.781" rx="3.891"/><rect x="21.586" y="22.614" width="46.799" height="25.715" rx="12.857"/><rect x=".942" y="11.993" width="66.331" height="25.715" rx="12.857"/><rect x="51.04" y="21.58" width="46.799" height="25.715" rx="12.857"/><rect x="15.413" y=".093" width="46.799" height="25.715" rx="12.857"/><rect opacity=".609" x="42.752" y="39.446" width="33.591" height="17.173" rx="8.586"/><rect opacity=".491" x="17.668" y="43.161" width="46.799" height="25.715" rx="12.857"/><rect opacity=".541" x="31.962" y="73.893" width="23.01" height="12.643" rx="6.322"/><rect x="25.19" y="31.183" width="46.799" height="25.715" rx="12.857"/><rect x="11.56" y="30.882" width="46.799" height="25.715" rx="12.857"/><rect x="14.614" y="20.708" width="46.799" height="18.808" rx="9.404"/><rect x="23.121" y="1.308" width="20.611" height="8.283" rx="4.142"/></g><g transform="rotate(-32 55.732 13.087)"><use fill="#FFF" xlink:href="#c"/><rect stroke="#525D7D" stroke-width="2" x="16.549" y="24.097" width="43.537" height="43.604" rx="2"/></g><path fill="#C5E4FC" d="M47.878 66.723l31.375-19.605 5.034 8.056L52.913 74.78z"/><path stroke="#525D7D" stroke-width="2" stroke-linecap="round" d="M1.828 31.994L16.178 34l27.35 43.767"/><path stroke="#525D7D" stroke-width="2" d="M27.527 51.696l-1.84 8 13.002 20.807"/><path d="M31.684 66.15l2.826-1.766" stroke="#525D7D" stroke-width="2" stroke-linecap="square"/><path d="M59.312 81.02l15.54-9.711" stroke="#525D7D" stroke-width="3" stroke-linecap="round"/><g transform="rotate(-32 55.732 13.087)"><use fill="#FFF" xlink:href="#d"/><ellipse stroke="#525D7D" stroke-width="2" cx="13.328" cy="69.813" rx="11.217" ry="11.235"/><ellipse stroke="#FFF" stroke-width="2" cx="13.328" cy="69.813" rx="13.217" ry="13.235"/></g><path d="M48.13 80.793a3.407 3.407 0 0 0-1.09 4.692 3.407 3.407 0 0 0 4.695 1.078 3.407 3.407 0 0 0 1.089-4.692 3.407 3.407 0 0 0-4.695-1.078" fill="#D7F4FF"/><path d="M51.101 85.895a2.692 2.692 0 0 1-3.706-.851 2.692 2.692 0 0 1 4.566-2.853 2.692 2.692 0 0 1-.86 3.704m-3.716-5.948A4.337 4.337 0 0 0 46 85.916a4.337 4.337 0 0 0 7.356-4.597 4.337 4.337 0 0 0-5.971-1.372" fill="#525D7D"/><path fill="#0077C4" d="M44.15 34.75l5.652-3.532 6.484 10.376-5.652 3.532z"/><path d="M62.261 95.607H43.042a.719.719 0 0 0 0 1.437h19.22a.719.719 0 0 0 0-1.437m-23.156 0h-3.57a.719.719 0 0 0 0 1.437h3.57a.719.719 0 0 0 0-1.437" fill="#525D7D"/></g></svg>