<svg width="960" height="965" viewBox="0 0 960 965" xmlns="http://www.w3.org/2000/svg" xmlns:xlink="http://www.w3.org/1999/xlink"><title>Group 43</title><defs><rect id="a" y="29" width="300" height="50" rx="2"/><rect id="b" y="29" width="300" height="50" rx="2"/><rect id="c" y="29" width="300" height="50" rx="2"/><rect id="d" y="29" width="300" height="50" rx="2"/><rect id="e" y="29" width="300" height="50" rx="2"/><rect id="f" y="29" width="300" height="50" rx="2"/><rect id="h" width="300" height="202" rx="2"/><filter x="-11.7%" y="-15.8%" width="124.7%" height="136.6%" filterUnits="objectBoundingBox" id="g"><feOffset dx="2" dy="5" in="SourceAlpha" result="shadowOffsetOuter1"/><feGaussianBlur stdDeviation="11.5" in="shadowOffsetOuter1" result="shadowBlurOuter1"/><feColorMatrix values="0 0 0 0 0 0 0 0 0 0 0 0 0 0 0 0 0 0 0.11438519 0" in="shadowBlurOuter1"/></filter><rect id="i" width="300" height="50" rx="2"/><rect id="k" y="5" width="450" height="261" rx="2"/><filter x="-7.8%" y="-12.3%" width="116.4%" height="128.4%" filterUnits="objectBoundingBox" id="j"><feOffset dx="2" dy="5" in="SourceAlpha" result="shadowOffsetOuter1"/><feGaussianBlur stdDeviation="11.5" in="shadowOffsetOuter1" result="shadowBlurOuter1"/><feColorMatrix values="0 0 0 0 0 0 0 0 0 0 0 0 0 0 0 0 0 0 0.11438519 0" in="shadowBlurOuter1"/></filter><rect id="l" width="300" height="50" rx="2"/></defs><g fill="none" fill-rule="evenodd"><g transform="translate(0 -2)"><use fill="#F5F9FA" xlink:href="#a"/><rect stroke="#D7E3E8" x=".5" y="29.5" width="299" height="49" rx="2"/></g><text font-family=".AppleSystemUIFont" font-size="16" fill="#343434" transform="translate(0 -2)"><tspan x="0" y="15">Address</tspan></text><text font-family=".AppleSystemUIFont" font-size="14" fill="#AEAEAE" transform="translate(0 -2)"><tspan x="21" y="59">Enter your address</tspan></text><g transform="translate(330 -2)"><use fill="#F5F9FA" xlink:href="#b"/><rect stroke="#1796DD" x=".5" y="29.5" width="299" height="49" rx="2"/></g><text font-family=".AppleSystemUIFont" font-size="16" fill="#343434" transform="translate(330 -2)"><tspan x="0" y="15">Address</tspan></text><text font-family=".AppleSystemUIFont" font-size="14" fill="#AEAEAE" transform="translate(330 -2)"><tspan x="21" y="59">Enter your address</tspan></text><g transform="translate(660 -2)"><use fill="#F5F9FA" xlink:href="#c"/><rect stroke="#D63F21" x=".5" y="29.5" width="299" height="49" rx="2"/></g><path d="M926.551 59.59h18.864c2.362 0 3.183-1.472 1.938-3.482l-9.166-14.802c-1.254-2.026-3.152-2.027-4.408 0l-9.166 14.802c-1.243 2.008-.424 3.482 1.938 3.482z" stroke="#D63F21"/><text font-family=".AppleSystemUIFont" font-size="14" fill="#D63F21" transform="translate(919 39)"><tspan x="15" y="18">!</tspan></text><text font-family=".AppleSystemUIFont" font-size="16" fill="#D63F21" transform="translate(660 -2)"><tspan x="0" y="15">Address</tspan></text><text font-family=".AppleSystemUIFont" font-size="14" fill="#AEAEAE" transform="translate(660 -2)"><tspan x="21" y="59">Enter your address</tspan></text><g transform="translate(0 199)"><use fill="#F5F9FA" xlink:href="#d"/><rect stroke="#D7E3E8" x=".5" y="29.5" width="299" height="49" rx="2"/></g><path fill="#343434" d="M291.314 251.657l-5.657 5.657-5.657-5.657z"/><text font-family=".AppleSystemUIFont" font-size="14" fill="#AEAEAE" transform="translate(0 199)"><tspan x="19" y="59">Select a country</tspan></text><text font-family=".AppleSystemUIFont" font-size="16" transform="translate(0 199)"><tspan x="0" y="15" fill="#343434">Country </tspan> <tspan x="62.195" y="15" fill="#FA7E16">*</tspan></text><g transform="translate(660 199)"><use fill="#F5F9FA" xlink:href="#e"/><rect stroke="#D7E3E8" x=".5" y="29.5" width="299" height="49" rx="2"/></g><path fill="#343434" d="M951.314 251.657l-5.657 5.657-5.657-5.657z"/><text font-family=".AppleSystemUIFont" font-size="14" fill="#4A4A4A" transform="translate(660 199)"><tspan x="19" y="59">United States</tspan></text><text font-family=".AppleSystemUIFont" font-size="16" transform="translate(660 199)"><tspan x="0" y="15" fill="#343434">Country </tspan> <tspan x="62.195" y="15" fill="#FA7E16">*</tspan></text><g transform="translate(330 199)"><use fill="#F5F9FA" xlink:href="#f"/><rect stroke="#1796DD" x=".5" y="29.5" width="299" height="49" rx="2"/></g><path fill="#343434" d="M621.314 251.657l-5.657 5.657-5.657-5.657z"/><text font-family=".AppleSystemUIFont" font-size="14" fill="#343434" transform="translate(330 199)"><tspan x="19" y="59">United States</tspan></text><text font-family=".AppleSystemUIFont" font-size="16" transform="translate(330 199)"><tspan x="0" y="15" fill="#343434">Country </tspan> <tspan x="62.195" y="15" fill="#FA7E16">*</tspan></text><path d="M689.95 76l4.44-4.44 4.442 4.44h259.173A2 2 0 0 1 960 78.002v28.996a1.995 1.995 0 0 1-1.995 2.002h-296.01a2 2 0 0 1-1.995-2.002V78.002c0-1.106.887-2.002 1.995-2.002h27.955z" fill="#D63F21"/><text font-family=".AppleSystemUIFont" font-size="12" fill="#FFF" transform="translate(660 70)"><tspan x="16" y="27">Lorem ipsum met dores</tspan></text><g transform="translate(330 278)"><use fill="#000" filter="url(#g)" xlink:href="#h"/><use fill="#FFF" xlink:href="#h"/><rect fill="#F8F9FA" y="101" width="300" height="50" rx="2"/><path d="M1.66 48.5h296.777M1.66 150.5h296.777M1.66 99.5h296.777" stroke="#979797" opacity=".17" stroke-linecap="square"/><text font-family=".AppleSystemUIFont" font-size="14" fill="#343434"><tspan x="18" y="33">Item 1</tspan></text><text font-family=".AppleSystemUIFont" font-size="14" fill="#343434"><tspan x="18" y="133">Item 3</tspan></text><text font-family=".AppleSystemUIFont" font-size="14" fill="#343434"><tspan x="18" y="80">Item 2</tspan></text><text font-family=".AppleSystemUIFont" font-size="14" fill="#343434"><tspan x="18" y="181">Item 4</tspan></text></g><g transform="matrix(-1 0 0 1 300 610)"><use fill="#F5F9FA" xlink:href="#i"/><rect stroke="#D7E3E8" x=".5" y=".5" width="299" height="49" rx="2"/></g><path d="M284 630.045V643h-19v-12.955m0-4.318h19v4.318h-19zm9.5-1.727v3.455M268.958 624v3.455M279.25 624v3.455" stroke="#343434" stroke-linecap="square"/><text font-family=".AppleSystemUIFont" font-size="14" fill="#AEAEAE" transform="translate(0 610)"><tspan x="17" y="29">Select a date</tspan></text><text font-family=".AppleSystemUIFont" font-size="16" transform="translate(0 585)"><tspan x="0" y="15" fill="#343434">Requested ship date</tspan> <tspan x="149.25" y="15" fill="#FA7E16"> </tspan> <tspan x="0" y="33" fill="#FA7E16">*</tspan></text><g transform="translate(330 671)"><use fill="#000" filter="url(#j)" xlink:href="#k"/><use fill="#FFF" xlink:href="#k"/></g><text opacity=".5" font-family=".AppleSystemUIFont" font-size="12" letter-spacing=".5" fill="#101112" transform="translate(386 671)"><tspan x="51" y="70">MO</tspan> <tspan x="51" y="81">N</tspan></text><text opacity=".5" font-family=".AppleSystemUIFont" font-size="12" letter-spacing=".5" fill="#101112" transform="translate(386 671)"><tspan x="0" y="70">SU</tspan> <tspan x="0" y="81">N</tspan></text><text opacity=".5" font-family=".AppleSystemUIFont" font-size="12" letter-spacing=".5" fill="#101112" transform="translate(386 671)"><tspan x="106" y="70">TU</tspan> <tspan x="106" y="81">E</tspan></text><text opacity=".5" font-family=".AppleSystemUIFont" font-size="12" letter-spacing=".5" fill="#101112" transform="translate(386 671)"><tspan x="156" y="70">WE</tspan> <tspan x="156" y="81">D</tspan></text><text opacity=".5" font-family=".AppleSystemUIFont" font-size="12" letter-spacing=".5" fill="#101112" transform="translate(386 671)"><tspan x="209" y="70">TH</tspan> <tspan x="209" y="81">U</tspan></text><text opacity=".5" font-family=".AppleSystemUIFont" font-size="12" letter-spacing=".5" fill="#101112" transform="translate(386 671)"><tspan x="260" y="70">FR</tspan> <tspan x="275.707" y="70">I</tspan></text><text opacity=".5" font-family=".AppleSystemUIFont" font-size="12" letter-spacing=".5" fill="#101112" transform="translate(386 671)"><tspan x="308" y="70">SA</tspan> <tspan x="308" y="81">T</tspan></text><g font-family=".AppleSystemUIFont" font-size="14"><text opacity=".189" letter-spacing="1" fill="#101112" transform="translate(391 771)"><tspan x=".5" y="14">1</tspan></text><text letter-spacing="1" fill="#101112" transform="translate(391 771)"><tspan x=".5" y="44">8</tspan></text><text opacity=".189" letter-spacing="1" fill="#101112" transform="translate(391 771)"><tspan x="51.5" y="14">2</tspan></text><text letter-spacing="1" fill="#101112" transform="translate(391 771)"><tspan x="51.5" y="44">9</tspan></text><text opacity=".189" letter-spacing="1" fill="#101112" transform="translate(391 771)"><tspan x="106" y="14">3</tspan></text><text letter-spacing="1" fill="#101112" transform="translate(391 771)"><tspan x="106" y="44">10</tspan></text><text opacity=".189" letter-spacing="1" fill="#101112" transform="translate(391 771)"><tspan x="156" y="14">4</tspan></text><text letter-spacing="1" fill="#101112" transform="translate(391 771)"><tspan x="156.5" y="44">11</tspan></text><text letter-spacing="1" fill="#101112" transform="translate(391 771)"><tspan x="209.5" y="14">5</tspan></text><text letter-spacing="1" fill="#101112" transform="translate(391 771)"><tspan x="209" y="44">12</tspan></text><text letter-spacing="1" fill="#101112" transform="translate(391 771)"><tspan x="260.5" y="14">6</tspan></text><text letter-spacing="1" fill="#101112" transform="translate(391 771)"><tspan x="260" y="44">13</tspan></text><text letter-spacing="1" fill="#101112" transform="translate(391 771)"><tspan x="308.5" y="14">7</tspan></text><text letter-spacing="1" fill="#101112" transform="translate(391 771)"><tspan x="308" y="44">14</tspan></text><text letter-spacing="1" fill="#101112" transform="translate(391 771)"><tspan x="0" y="74">15</tspan></text><text letter-spacing="1" fill="#101112" transform="translate(391 771)"><tspan x="51" y="74">16</tspan></text><text letter-spacing="1" fill="#101112" transform="translate(391 771)"><tspan x="106" y="74">17</tspan></text><text letter-spacing="1" fill="#101112" transform="translate(391 771)"><tspan x="156" y="74">18</tspan></text><text letter-spacing="1" fill="#101112" transform="translate(391 771)"><tspan x="209" y="74">19</tspan></text><text letter-spacing="1" fill="#101112" transform="translate(391 771)"><tspan x="260" y="74">2</tspan> <tspan x="260" y="91">0</tspan></text><text letter-spacing="1" fill="#101112" transform="translate(391 771)"><tspan x="308" y="74">21</tspan></text><text letter-spacing="1" fill="#101112" transform="translate(391 771)"><tspan x="0" y="104">2</tspan> <tspan x="0" y="121">2</tspan></text><text fill="#343434" transform="translate(391 771)"><tspan x="4.847" y="134">2</tspan> <tspan x="4.615" y="151">9</tspan></text><text letter-spacing="1" fill="#101112" transform="translate(391 771)"><tspan x="51" y="104">2</tspan> <tspan x="51" y="121">3</tspan></text><text letter-spacing="1" fill="#101112" transform="translate(391 771)"><tspan x="51" y="134">3</tspan> <tspan x="51" y="151">0</tspan></text><text letter-spacing="1" fill="#101112" transform="translate(391 771)"><tspan x="106" y="104">2</tspan> <tspan x="106" y="121">4</tspan></text><text letter-spacing="1" fill="#101112" transform="translate(391 771)"><tspan x="156" y="104">2</tspan> <tspan x="156" y="121">5</tspan></text><text letter-spacing="1" fill="#101112" transform="translate(391 771)"><tspan x="209" y="104">2</tspan> <tspan x="209" y="121">6</tspan></text><text letter-spacing="1" fill="#101112" transform="translate(391 771)"><tspan x="260" y="104">2</tspan> <tspan x="260" y="121">7</tspan></text><text letter-spacing="1" fill="#101112" transform="translate(391 771)"><tspan x="308" y="104">2</tspan> <tspan x="308" y="121">8</tspan></text></g><text font-family=".AppleSystemUIFont" font-size="16" fill="#101112" transform="translate(492 692)"><tspan x="46" y="15">April</tspan></text><path d="M497.898 696.841a.33.33 0 0 0-.101-.233l-.507-.507a.35.35 0 0 0-.233-.101.35.35 0 0 0-.233.101l-4.723 4.723a.35.35 0 0 0-.101.233c0 .081.04.172.101.233l4.723 4.723a.35.35 0 0 0 .233.101.35.35 0 0 0 .233-.101l.507-.507a.35.35 0 0 0 .101-.233.35.35 0 0 0-.101-.233l-3.983-3.983 3.983-3.983a.35.35 0 0 0 .101-.233z" fill="#2C3E50"/><path d="M611.132 696.841a.33.33 0 0 1 .101-.233l.507-.507a.35.35 0 0 1 .233-.101.35.35 0 0 1 .233.101l4.723 4.723a.35.35 0 0 1 .101.233.35.35 0 0 1-.101.233l-4.723 4.723a.35.35 0 0 1-.233.101.35.35 0 0 1-.233-.101l-.507-.507a.35.35 0 0 1-.101-.233.35.35 0 0 1 .101-.233l3.983-3.983-3.983-3.983a.35.35 0 0 1-.101-.233z" fill="#DBE6EB"/><g transform="matrix(-1 0 0 1 630 622)"><use fill="#F5F9FA" xlink:href="#l"/><rect stroke="#1796DD" x=".5" y=".5" width="299" height="49" rx="2"/></g><path d="M614 642.045V655h-19v-12.955m0-4.318h19v4.318h-19zm9.5-1.727v3.455M598.958 636v3.455M609.25 636v3.455" stroke="#343434" stroke-linecap="square"/><text font-family=".AppleSystemUIFont" font-size="14" fill="#AEAEAE" transform="translate(330 622)"><tspan x="17" y="29">Select a date</tspan></text><text font-family=".AppleSystemUIFont" font-size="16" transform="translate(330 597)"><tspan x="0" y="15" fill="#343434">Requested ship date</tspan> <tspan x="149.25" y="15" fill="#FA7E16"> </tspan> <tspan x="0" y="33" fill="#FA7E16">*</tspan></text></g></svg>