<svg width="118" height="40" viewBox="0 0 118 40" xmlns="http://www.w3.org/2000/svg"><title>logo</title><path d="M36.187 24.976c-3.753 0-6.818-3.03-6.818-6.762 0-3.73 3.048-6.76 6.818-6.76 3.77 0 6.801 3.03 6.801 6.76 0 3.731-3.048 6.762-6.801 6.762m0-17.726c-6.08 0-11.03 4.92-11.03 10.964 0 6.045 4.95 10.965 11.03 10.965 6.08 0 11.03-4.92 11.03-10.965 0-6.044-4.95-10.964-11.03-10.964m65.899 10.997c0-6.305-5.392-11.372-11.832-10.9-5.376.408-9.703 4.71-10.112 10.053-.476 6.403 4.621 11.763 10.964 11.763h3.818a.551.551 0 0 0 .558-.554v-3.096a.551.551 0 0 0-.558-.554h-3.687c-3.556 0-6.621-2.688-6.883-6.207-.312-3.926 2.835-7.234 6.752-7.234 3.736 0 6.768 3.014 6.768 6.729v10.378c0 .31.246.554.558.554h3.114a.55.55 0 0 0 .557-.554l-.017-10.378zM76.454 7.43h-5.44V.553A.55.55 0 0 0 70.455 0h-3.114a.55.55 0 0 0-.557.554V21c0 4.448 3.589 8.081 8.047 8.179h1.622a.551.551 0 0 0 .557-.554V25.53a.551.551 0 0 0-.557-.554h-1.508c-2.18-.033-3.933-1.809-3.933-3.976v-9.384h5.441a.55.55 0 0 0 .557-.554V7.967a.57.57 0 0 0-.557-.538m40.99 17.563h-2.622a3.995 3.995 0 0 1-4.081-3.894V.62a.55.55 0 0 0-.558-.554h-3.113a.55.55 0 0 0-.558.554v20.56c.099 4.448 3.77 8 8.228 8h2.687a.55.55 0 0 0 .558-.554V25.53c.016-.293-.23-.537-.541-.537M11.833 7.299C5.392 6.826 0 11.893 0 18.199v21.179c0 .31.246.554.557.554h3.114a.551.551 0 0 0 .557-.554v-21.18c0-3.714 3.032-6.728 6.769-6.728 3.9 0 7.047 3.307 6.752 7.25-.262 3.535-3.327 6.207-6.883 6.207H7.178a.551.551 0 0 0-.557.554v3.095c0 .31.246.554.557.554h3.835c6.343 0 11.44-5.36 10.964-11.763-.442-5.36-4.769-9.66-10.144-10.068m50.297.016h-.196a11.098 11.098 0 0 0-4.59 1.075c-3.457 1.646-5.948 5.05-6.243 9.026-.017.293-.033 11.193-.033 11.193 0 .31.246.554.557.554h3.114a.55.55 0 0 0 .557-.554l.016-10.346c0-3.714 3.032-6.745 6.77-6.76h.065a.55.55 0 0 0 .557-.555V7.853a.573.573 0 0 0-.574-.538" fill="#FFF" fill-rule="evenodd"/></svg>