<svg width="200" height="55" viewBox="0 0 200 55" xmlns="http://www.w3.org/2000/svg" xmlns:xlink="http://www.w3.org/1999/xlink"><title>Logo</title><defs><path id="a" d="M0 .256h41.66V41H0V.256z"/></defs><g fill="none" fill-rule="evenodd"><path d="M89.487 13l-5.541 15.6L78.244 13h-5.487l-5.702 15.548L61.513 13H54l9.857 26h5.861l5.808-15.289L81.281 39h5.862L97 13h-7.513zM101 13h7v27h-7V13zm8-8.949C109 6.307 107.087 8 104.5 8c-2.643 0-4.5-1.693-4.5-3.949C100 1.898 101.857 0 104.5 0c2.587 0 4.5 1.898 4.5 4.051zm31 18.98V39h-7.018V24.502c0-3.677-2.127-6.146-5.37-6.146-3.988 0-6.593 2.626-6.593 9.035V39H114V12.788h7.019v2.364c2.073-2.049 4.838-3.152 8.347-3.152C135.746 12 140 16.518 140 23.031m25 2.996c0-4.923-3.777-8.027-7.553-8.027-4.256 0-7.447 3.104-7.447 8.027 0 4.923 3.191 7.973 7.447 7.973 3.776 0 7.553-3.05 7.553-7.973zm7 16.244C172 50.454 165.58 55 156.965 55c-6.206 0-10.7-2.193-13.002-5.883l5.725-4.867c2.087 2.621 3.8 3.85 7.277 3.85 4.494 0 7.972-2.246 7.972-6.899v-3.796c-2.247 1.818-5.19 2.887-8.828 2.887-6.796 0-13.109-5.722-13.109-14.12C143 17.777 149.313 12 156.109 12c3.638 0 6.581 1.07 8.828 2.941v-2.14H172v29.47zM200 39h-23v-1.876l12.748-18.497h-12.43V13h22.628v2.292l-12.64 18.081H200V39z" fill="#333268"/><path d="M10 11c-.314-1.353-2-3-2-3v26h3V16c0-2.268-.214-3.609-1-5m8 8c-.25-1.283-2-3-2-3v10h3v-2c0-2.155-.264-3.574-1-5" fill="#00B692"/><mask id="b" fill="#fff"><use xlink:href="#a"/></mask><path d="M3 38V8c0-2.22-.223-3.63-1-5-.274-1.31-2-3-2-3v37c0 1.387.444 2.358 1 3l2-2z" fill="#00B692" mask="url(#b)"/><path d="M42 27c.153-1.467-.023-4 0-4L24 41h1c2.73 0 4.348-.307 7-3l7-7c1.282-1.434 2.083-2.607 3-4m0-11c.131-1.42-.016-4 0-4L12 41h1c2.773 0 4.41-.298 7-3l19-18c1.268-1.61 2.047-2.692 3-4M41 4c.144-1.371-.02-4 0-4L1 40c.646.714 1.463 1 2 1 1.504 0 2.366-.302 3-1L38 8c1.304-1.528 2.055-2.653 3-4" fill="#00F9B8"/></g></svg>