<svg width="47" height="52" viewBox="0 0 47 52" fill="none" xmlns="http://www.w3.org/2000/svg">
<path fill-rule="evenodd" clip-rule="evenodd" d="M2.85198 19.67H34.3484V15.033H2.85198V19.67ZM1.42578 21.1017H35.7746V13.6017H1.42578V21.1017Z" fill="white"/>
<path fill-rule="evenodd" clip-rule="evenodd" d="M0 22.5333H37.2012V12.1704H0V22.5333ZM1.4262 21.1016H35.775V13.6017H1.4262V21.1016Z" fill="#2866DC"/>
<path fill-rule="evenodd" clip-rule="evenodd" d="M4.43694 12.1862H32.7631V10.5636H4.43694V12.1862ZM3.01074 13.6177H34.1893V9.13208H3.01074V13.6177Z" fill="#2866DC"/>
<path fill-rule="evenodd" clip-rule="evenodd" d="M2.85198 39.0386V42.6555C2.85198 43.2178 3.30758 43.6756 3.86778 43.6756H33.3326C33.8928 43.6756 34.3484 43.2178 34.3484 42.6555V39.0386H2.85198ZM33.3326 45.1073H3.86778C2.52138 45.1073 1.42578 44.0073 1.42578 42.6555V37.6071H35.7746V42.6555C35.7746 44.0073 34.6792 45.1073 33.3326 45.1073Z" fill="white"/>
<path fill-rule="evenodd" clip-rule="evenodd" d="M1.4262 37.607V42.6557C1.4262 44.0073 2.5218 45.1071 3.8684 45.1071H33.3328C34.6796 45.1071 35.775 44.0073 35.775 42.6557V37.607H1.4262ZM33.3328 46.5386H3.8684C1.7354 46.5386 0 44.7967 0 42.6557V36.1755H37.2012V42.6557C37.2012 44.7967 35.4658 46.5386 33.3328 46.5386Z" fill="#2866DC"/>
<path fill-rule="evenodd" clip-rule="evenodd" d="M4.43694 36.1757H32.7631V34.5532H4.43694V36.1757ZM3.01074 37.6072H34.1893V33.1217H3.01074V37.6072Z" fill="#2866DC"/>
<path fill-rule="evenodd" clip-rule="evenodd" d="M2.85198 31.6897H34.3484V27.0526H2.85198V31.6897ZM1.42578 33.1212H35.7746V25.6213H1.42578V33.1212Z" fill="white"/>
<path fill-rule="evenodd" clip-rule="evenodd" d="M5.02141 48.8728C4.30521 48.8728 3.72461 48.2902 3.72461 47.571V45.8188H6.31821V47.571C6.31821 48.2902 5.73781 48.8728 5.02141 48.8728Z" fill="#2866DC"/>
<path fill-rule="evenodd" clip-rule="evenodd" d="M1.4262 33.1214H35.775V25.6213H1.4262V33.1214ZM0 34.5529H37.2012V24.1898H0V34.5529Z" fill="#2866DC"/>
<path fill-rule="evenodd" clip-rule="evenodd" d="M4.43694 24.1912H32.7631V22.5687H4.43694V24.1912ZM3.01074 25.6229H34.1893V21.1372H3.01074V25.6229Z" fill="#2866DC"/>
<path fill-rule="evenodd" clip-rule="evenodd" d="M7.03472 17.3518C7.03472 16.7216 6.52572 16.2108 5.89812 16.2108C5.27052 16.2108 4.76172 16.7216 4.76172 17.3518C4.76172 17.982 5.27052 18.4928 5.89812 18.4928C6.52572 18.4928 7.03472 17.982 7.03472 17.3518Z" fill="#2866DC"/>
<path fill-rule="evenodd" clip-rule="evenodd" d="M39.8007 19.3307C41.2609 21.0704 43.6759 22.0235 46.1729 21.7747C46.3651 42.2252 31.5879 50.9766 31.5879 50.9766C24.0353 46.8347 16.8745 35.6171 17.0047 21.7747C17.0047 21.7747 21.4235 21.4816 23.6331 18.8824C25.5725 16.6008 28.5221 15.4399 31.5101 15.4399H31.8505C34.9557 15.4399 37.7999 16.9469 39.8007 19.3307Z" fill="white"/>
<path fill-rule="evenodd" clip-rule="evenodd" d="M7.03472 29.3715C7.03472 28.7412 6.52572 28.2305 5.89812 28.2305C5.27052 28.2305 4.76172 28.7412 4.76172 29.3715C4.76172 30.0015 5.27052 30.5122 5.89812 30.5122C6.52572 30.5122 7.03472 30.0015 7.03472 29.3715Z" fill="#2866DC"/>
<path fill-rule="evenodd" clip-rule="evenodd" d="M7.03472 41.357C7.03472 40.727 6.52572 40.2162 5.89812 40.2162C5.27052 40.2162 4.76172 40.727 4.76172 41.357C4.76172 41.9872 5.27052 42.498 5.89812 42.498C6.52572 42.498 7.03472 41.9872 7.03472 41.357Z" fill="#2866DC"/>
<path fill-rule="evenodd" clip-rule="evenodd" d="M23.2374 38.88C25.4258 43.0073 28.3108 46.3447 31.5128 48.433C33.312 47.1017 36.8568 44.061 39.7232 39.0352L31.5044 42.6126L23.2374 38.88ZM31.5662 50.1518L31.1668 49.9062C27.1174 47.4171 23.5312 43.0846 21.068 37.7071L20.2734 35.972L31.515 41.0478L42.8028 36.1347L41.948 37.8808C38.6104 44.7 33.8436 48.545 31.9492 49.8815L31.5662 50.1518Z" fill="white"/>
<path fill-rule="evenodd" clip-rule="evenodd" d="M17.7169 22.4148C17.7597 28.5275 19.2503 34.482 22.0427 39.6732C24.5445 44.3234 27.9137 48.0243 31.5643 50.1422C32.5469 49.4861 35.5131 47.3382 38.4283 43.5555C41.6105 39.426 45.3697 32.4584 45.4603 22.5284C43.0451 22.5427 40.7187 21.5348 39.2555 19.7921C37.3159 17.481 34.6171 16.1555 31.8507 16.1555H31.5103C28.5729 16.1555 25.8997 17.3188 24.1757 19.347C22.3099 21.5416 19.1037 22.2186 17.7169 22.4148ZM31.6015 51.7994L31.2461 51.6046C23.9461 47.6012 16.1529 36.5568 16.2919 21.7677L16.2981 21.1041L16.9577 21.0604C16.9983 21.0576 21.1073 20.7512 23.0909 18.4178C25.0863 16.0704 28.1549 14.724 31.5103 14.724H31.8507C35.0385 14.724 38.1351 16.235 40.3461 18.8695C41.6679 20.4444 43.8735 21.2844 46.1027 21.0624L46.8789 20.9849L46.8861 21.7677C46.9875 32.5377 42.9339 40.0653 39.5157 44.4835C35.8045 49.2805 32.1059 51.5008 31.9503 51.593L31.6015 51.7994Z" fill="#2866DC"/>
<path fill-rule="evenodd" clip-rule="evenodd" d="M2.85198 7.70082H34.3484V4.08371C34.3484 3.52135 33.8928 3.06359 33.3326 3.06359H3.86778C3.30758 3.06359 2.85198 3.52135 2.85198 4.08371V7.70082ZM35.7746 9.13233H1.42578V4.08371C1.42578 2.73191 2.52138 1.63208 3.86778 1.63208H33.3326C34.6792 1.63208 35.7746 2.73191 35.7746 4.08371V9.13233Z" fill="white"/>
<path fill-rule="evenodd" clip-rule="evenodd" d="M7.03472 5.64197C7.03472 5.01174 6.52572 4.50098 5.89812 4.50098C5.27052 4.50098 4.76172 5.01174 4.76172 5.64197C4.76172 6.27199 5.27052 6.78275 5.89812 6.78275C6.52572 6.78275 7.03472 6.27199 7.03472 5.64197Z" fill="#2866DC"/>
<path fill-rule="evenodd" clip-rule="evenodd" d="M1.4262 9.13224H35.775V4.08362C35.775 2.73202 34.6796 1.63219 33.3328 1.63219H3.8684C2.5218 1.63219 1.4262 2.73202 1.4262 4.08362V9.13224ZM37.2012 10.5637H0V4.08362C0 1.94258 1.7354 0.200684 3.8684 0.200684H33.3328C35.4658 0.200684 37.2012 1.94258 37.2012 4.08362V10.5637Z" fill="#2866DC"/>
<path fill-rule="evenodd" clip-rule="evenodd" d="M36.3297 26.3075H34.7969V24.4307C34.7969 22.6392 33.3447 21.1814 31.5599 21.1814C29.7731 21.1814 28.3209 22.6392 28.3209 24.4307V26.3075H26.7881V24.4307C26.7881 21.7905 28.9277 19.6425 31.5579 19.6425C34.1901 19.6425 36.3297 21.7905 36.3297 24.4307V26.3075Z" fill="#2866DC"/>
<path fill-rule="evenodd" clip-rule="evenodd" d="M28.1567 28.4548V32.8837C28.1567 33.0258 28.2717 33.1414 28.4133 33.1414H34.7041C34.8457 33.1414 34.9609 33.0258 34.9609 32.8837V28.4548H28.1567ZM34.7041 34.573H28.4133C27.4855 34.573 26.7305 33.815 26.7305 32.8837V27.0233H36.3869V32.8837C36.3869 33.815 35.6321 34.573 34.7041 34.573Z" fill="white"/>
<path fill-rule="evenodd" clip-rule="evenodd" d="M32.7936 30.0608C32.7936 30.5047 32.5608 30.8926 32.2118 31.1098V31.9368C32.2118 32.1167 32.1374 32.2825 32.0186 32.4018C31.8998 32.5184 31.737 32.5933 31.5578 32.5933C31.1994 32.5933 30.906 32.2988 30.906 31.9368V31.112C30.557 30.8948 30.3242 30.5047 30.3242 30.0608C30.3242 29.3764 30.8758 28.8226 31.5578 28.8226C32.2396 28.8226 32.7936 29.3764 32.7936 30.0608Z" fill="#2866DC"/>
<path fill-rule="evenodd" clip-rule="evenodd" d="M26.7838 27.0769V32.8835C26.7838 33.7853 27.5148 34.5191 28.4132 34.5191H34.7042C35.6026 34.5191 36.3336 33.7853 36.3336 32.8835V27.0769H26.7838ZM34.7042 36.0581H28.4132C26.6696 36.0581 25.251 34.634 25.251 32.8835V25.5382H37.8664V32.8835C37.8664 34.634 36.4478 36.0581 34.7042 36.0581Z" fill="#2866DC"/>
<path fill-rule="evenodd" clip-rule="evenodd" d="M32.1415 46.2463C32.1415 45.8985 31.8605 45.6165 31.5139 45.6165C31.1675 45.6165 30.8867 45.8985 30.8867 46.2463C30.8867 46.594 31.1675 46.8761 31.5139 46.8761C31.8605 46.8761 32.1415 46.594 32.1415 46.2463Z" fill="#2866DC"/>
<path fill-rule="evenodd" clip-rule="evenodd" d="M42.7898 25.335C42.7898 24.9872 42.509 24.705 42.1624 24.705C41.816 24.705 41.5352 24.9872 41.5352 25.335C41.5352 25.6827 41.816 25.9648 42.1624 25.9648C42.509 25.9648 42.7898 25.6827 42.7898 25.335Z" fill="#2866DC"/>
<path fill-rule="evenodd" clip-rule="evenodd" d="M21.7079 25.335C21.7079 24.9872 21.4271 24.705 21.0803 24.705C20.7339 24.705 20.4531 24.9872 20.4531 25.335C20.4531 25.6827 20.7339 25.9648 21.0803 25.9648C21.4271 25.9648 21.7079 25.6827 21.7079 25.335Z" fill="#2866DC"/>
<path fill-rule="evenodd" clip-rule="evenodd" d="M31.5157 41.048L18.7881 35.3011L19.3729 33.9955L31.5263 39.483L43.7349 34.169L44.3021 35.4824L31.5157 41.048Z" fill="#2866DC"/>
<path fill-rule="evenodd" clip-rule="evenodd" d="M17.4302 6.17284H16.2894C15.8956 6.17284 15.5762 5.85241 15.5762 5.45729C15.5762 5.06197 15.8956 4.74133 16.2894 4.74133H17.4302C17.824 4.74133 18.1432 5.06197 18.1432 5.45729C18.1432 5.85241 17.824 6.17284 17.4302 6.17284ZM30.122 6.17284H20.2822C19.8884 6.17284 19.569 5.85241 19.569 5.45729C19.569 5.06197 19.8884 4.74133 20.2822 4.74133H30.122C30.5158 4.74133 30.835 5.06197 30.835 5.45729C30.835 5.85241 30.5158 6.17284 30.122 6.17284Z" fill="white"/>
</svg>
