<svg width="50" height="52" viewBox="0 0 50 52" fill="none" xmlns="http://www.w3.org/2000/svg">
<path fill-rule="evenodd" clip-rule="evenodd" d="M4.91387 40.9292C4.91387 39.7538 3.9722 38.8008 2.81069 38.8008C1.64919 38.8008 0.70752 39.7538 0.70752 40.9292C0.70752 42.1045 1.64919 43.0576 2.81069 43.0576C3.9722 43.0576 4.91387 42.1045 4.91387 40.9292Z" fill="white"/>
<path fill-rule="evenodd" clip-rule="evenodd" d="M4.91387 21.8866C4.91387 20.7112 3.9722 19.7582 2.81069 19.7582C1.64919 19.7582 0.70752 20.7112 0.70752 21.8866C0.70752 23.0619 1.64919 24.0148 2.81069 24.0148C3.9722 24.0148 4.91387 23.0619 4.91387 21.8866Z" fill="white"/>
<path fill-rule="evenodd" clip-rule="evenodd" d="M12.6526 49.0349C12.6526 47.8596 11.7112 46.9067 10.5495 46.9067C9.38796 46.9067 8.44629 47.8596 8.44629 49.0349C8.44629 50.2102 9.38796 51.1633 10.5495 51.1633C11.7112 51.1633 12.6526 50.2102 12.6526 49.0349Z" fill="white"/>
<path fill-rule="evenodd" clip-rule="evenodd" d="M12.6526 29.9923C12.6526 28.817 11.7112 27.8641 10.5495 27.8641C9.38796 27.8641 8.44629 28.817 8.44629 29.9923C8.44629 31.1676 9.38796 32.1207 10.5495 32.1207C11.7112 32.1207 12.6526 31.1676 12.6526 29.9923Z" fill="white"/>
<path fill-rule="evenodd" clip-rule="evenodd" d="M12.6526 10.9498C12.6526 9.77448 11.7112 8.82141 10.5495 8.82141C9.38796 8.82141 8.44629 9.77448 8.44629 10.9498C8.44629 12.1251 9.38796 13.0782 10.5495 13.0782C11.7112 13.0782 12.6526 12.1251 12.6526 10.9498Z" fill="white"/>
<path fill-rule="evenodd" clip-rule="evenodd" d="M23.1893 40.9292C23.1893 39.7538 22.2478 38.8008 21.0861 38.8008C19.9246 38.8008 18.9829 39.7538 18.9829 40.9292C18.9829 42.1045 19.9246 43.0576 21.0861 43.0576C22.2478 43.0576 23.1893 42.1045 23.1893 40.9292Z" fill="white"/>
<path fill-rule="evenodd" clip-rule="evenodd" d="M23.1893 2.84396C23.1893 1.66864 22.2478 0.715576 21.0861 0.715576C19.9246 0.715576 18.9829 1.66864 18.9829 2.84396C18.9829 4.01928 19.9246 4.97215 21.0861 4.97215C22.2478 4.97215 23.1893 4.01928 23.1893 2.84396Z" fill="white"/>
<path fill-rule="evenodd" clip-rule="evenodd" d="M30.9285 49.0349C30.9285 47.8596 29.9869 46.9067 28.8251 46.9067C27.6636 46.9067 26.7222 47.8596 26.7222 49.0349C26.7222 50.2102 27.6636 51.1633 28.8251 51.1633C29.9869 51.1633 30.9285 50.2102 30.9285 49.0349Z" fill="white"/>
<path fill-rule="evenodd" clip-rule="evenodd" d="M30.9285 10.9498C30.9285 9.77448 29.9869 8.82141 28.8251 8.82141C27.6636 8.82141 26.7222 9.77448 26.7222 10.9498C26.7222 12.1251 27.6636 13.0782 28.8251 13.0782C29.9869 13.0782 30.9285 12.1251 30.9285 10.9498Z" fill="white"/>
<path fill-rule="evenodd" clip-rule="evenodd" d="M41.4651 40.9292C41.4651 39.7538 40.5235 38.8008 39.3618 38.8008C38.2003 38.8008 37.2588 39.7538 37.2588 40.9292C37.2588 42.1045 38.2003 43.0576 39.3618 43.0576C40.5235 43.0576 41.4651 42.1045 41.4651 40.9292Z" fill="white"/>
<path fill-rule="evenodd" clip-rule="evenodd" d="M41.4651 21.8866C41.4651 20.7112 40.5235 19.7582 39.3618 19.7582C38.2003 19.7582 37.2588 20.7112 37.2588 21.8866C37.2588 23.0619 38.2003 24.0148 39.3618 24.0148C40.5235 24.0148 41.4651 23.0619 41.4651 21.8866Z" fill="white"/>
<path fill-rule="evenodd" clip-rule="evenodd" d="M41.4651 2.84396C41.4651 1.66864 40.5235 0.715576 39.3618 0.715576C38.2003 0.715576 37.2588 1.66864 37.2588 2.84396C37.2588 4.01928 38.2003 4.97215 39.3618 4.97215C40.5235 4.97215 41.4651 4.01928 41.4651 2.84396Z" fill="white"/>
<path fill-rule="evenodd" clip-rule="evenodd" d="M49.2039 29.9923C49.2039 28.817 48.2622 27.8641 47.1005 27.8641C45.9392 27.8641 44.9976 28.817 44.9976 29.9923C44.9976 31.1676 45.9392 32.1207 47.1005 32.1207C48.2622 32.1207 49.2039 31.1676 49.2039 29.9923Z" fill="white"/>
<path fill-rule="evenodd" clip-rule="evenodd" d="M49.2039 10.9498C49.2039 9.77448 48.2622 8.82141 47.1005 8.82141C45.9392 8.82141 44.9976 9.77448 44.9976 10.9498C44.9976 12.1251 45.9392 13.0782 47.1005 13.0782C48.2622 13.0782 49.2039 12.1251 49.2039 10.9498Z" fill="white"/>
<path fill-rule="evenodd" clip-rule="evenodd" d="M41.2441 41.5916H45.4531V40.1603H41.2441V41.5916Z" fill="#2866DC"/>
<path fill-rule="evenodd" clip-rule="evenodd" d="M41.2441 30.6682H45.4531V29.2367H41.2441V30.6682Z" fill="#2866DC"/>
<path fill-rule="evenodd" clip-rule="evenodd" d="M41.2441 22.5758H45.4531V21.1443H41.2441V22.5758Z" fill="#2866DC"/>
<path fill-rule="evenodd" clip-rule="evenodd" d="M41.2441 11.6522H45.4531V10.2207H41.2441V11.6522Z" fill="#2866DC"/>
<path fill-rule="evenodd" clip-rule="evenodd" d="M30.48 49.6843H37.4865V48.2528H30.48V49.6843Z" fill="#2866DC"/>
<path fill-rule="evenodd" clip-rule="evenodd" d="M30.48 41.5916H37.4865V40.1603H30.48V41.5916Z" fill="#2866DC"/>
<path fill-rule="evenodd" clip-rule="evenodd" d="M30.48 30.6682H37.4865V29.2367H30.48V30.6682Z" fill="#2866DC"/>
<path fill-rule="evenodd" clip-rule="evenodd" d="M30.48 22.5758H37.4865V21.1443H30.48V22.5758Z" fill="#2866DC"/>
<path fill-rule="evenodd" clip-rule="evenodd" d="M30.48 11.6522H37.4865V10.2207H30.48V11.6522Z" fill="#2866DC"/>
<path fill-rule="evenodd" clip-rule="evenodd" d="M30.48 3.55968H37.4865V2.12817H30.48V3.55968Z" fill="#2866DC"/>
<path fill-rule="evenodd" clip-rule="evenodd" d="M22.5127 49.6843H26.7218V48.2528H22.5127V49.6843Z" fill="#2866DC"/>
<path fill-rule="evenodd" clip-rule="evenodd" d="M22.5127 41.5916H26.7218V40.1603H22.5127V41.5916Z" fill="#2866DC"/>
<path fill-rule="evenodd" clip-rule="evenodd" d="M22.5127 11.6522H26.7218V10.2207H22.5127V11.6522Z" fill="#2866DC"/>
<path fill-rule="evenodd" clip-rule="evenodd" d="M22.5127 3.55968H26.7218V2.12817H22.5127V3.55968Z" fill="#2866DC"/>
<path fill-rule="evenodd" clip-rule="evenodd" d="M12.3145 49.6843H19.321V48.2528H12.3145V49.6843Z" fill="#2866DC"/>
<path fill-rule="evenodd" clip-rule="evenodd" d="M12.3145 41.5916H19.321V40.1603H12.3145V41.5916Z" fill="#2866DC"/>
<path fill-rule="evenodd" clip-rule="evenodd" d="M12.3145 30.6682H19.321V29.2367H12.3145V30.6682Z" fill="#2866DC"/>
<path fill-rule="evenodd" clip-rule="evenodd" d="M12.3145 22.5758H19.321V21.1443H12.3145V22.5758Z" fill="#2866DC"/>
<path fill-rule="evenodd" clip-rule="evenodd" d="M12.3145 11.6522H19.321V10.2207H12.3145V11.6522Z" fill="#2866DC"/>
<path fill-rule="evenodd" clip-rule="evenodd" d="M12.3145 3.55968H19.321V2.12817H12.3145V3.55968Z" fill="#2866DC"/>
<path fill-rule="evenodd" clip-rule="evenodd" d="M4.91406 41.5916H9.12319V40.1603H4.91406V41.5916Z" fill="#2866DC"/>
<path fill-rule="evenodd" clip-rule="evenodd" d="M4.91406 30.6682H9.12319V29.2367H4.91406V30.6682Z" fill="#2866DC"/>
<path fill-rule="evenodd" clip-rule="evenodd" d="M4.91406 22.5758H9.12319V21.1443H4.91406V22.5758Z" fill="#2866DC"/>
<path fill-rule="evenodd" clip-rule="evenodd" d="M4.91406 11.6522H9.12319V10.2207H4.91406V11.6522Z" fill="#2866DC"/>
<path fill-rule="evenodd" clip-rule="evenodd" d="M9.84229 9.40457H11.2572V5.14539H9.84229V9.40457Z" fill="#2866DC"/>
<path fill-rule="evenodd" clip-rule="evenodd" d="M20.3789 9.40457H21.7938V5.14539H20.3789V9.40457Z" fill="#2866DC"/>
<path fill-rule="evenodd" clip-rule="evenodd" d="M28.1177 9.40457H29.5326V5.14539H28.1177V9.40457Z" fill="#2866DC"/>
<path fill-rule="evenodd" clip-rule="evenodd" d="M38.6543 9.40457H40.0692V5.14539H38.6543V9.40457Z" fill="#2866DC"/>
<path fill-rule="evenodd" clip-rule="evenodd" d="M2.10303 20.3727H3.51791V13.2828H2.10303V20.3727Z" fill="#2866DC"/>
<path fill-rule="evenodd" clip-rule="evenodd" d="M9.84229 20.3727H11.2572V13.2828H9.84229V20.3727Z" fill="#2866DC"/>
<path fill-rule="evenodd" clip-rule="evenodd" d="M20.3789 20.3727H21.7938V13.2828H20.3789V20.3727Z" fill="#2866DC"/>
<path fill-rule="evenodd" clip-rule="evenodd" d="M28.1177 20.3727H29.5326V13.2828H28.1177V20.3727Z" fill="#2866DC"/>
<path fill-rule="evenodd" clip-rule="evenodd" d="M38.6543 20.3727H40.0692V13.2828H38.6543V20.3727Z" fill="#2866DC"/>
<path fill-rule="evenodd" clip-rule="evenodd" d="M46.3931 20.3727H47.8079V13.2828H46.3931V20.3727Z" fill="#2866DC"/>
<path fill-rule="evenodd" clip-rule="evenodd" d="M2.10303 28.2738H3.51791V24.0148H2.10303V28.2738Z" fill="#2866DC"/>
<path fill-rule="evenodd" clip-rule="evenodd" d="M9.84229 28.2738H11.2572V24.0148H9.84229V28.2738Z" fill="#2866DC"/>
<path fill-rule="evenodd" clip-rule="evenodd" d="M38.6543 28.2738H40.0692V24.0148H38.6543V28.2738Z" fill="#2866DC"/>
<path fill-rule="evenodd" clip-rule="evenodd" d="M46.3931 28.2738H47.8079V24.0148H46.3931V28.2738Z" fill="#2866DC"/>
<path fill-rule="evenodd" clip-rule="evenodd" d="M2.10303 39.0059H3.51791V31.916H2.10303V39.0059Z" fill="#2866DC"/>
<path fill-rule="evenodd" clip-rule="evenodd" d="M9.84229 39.0059H11.2572V31.916H9.84229V39.0059Z" fill="#2866DC"/>
<path fill-rule="evenodd" clip-rule="evenodd" d="M20.3789 39.0059H21.7938V31.916H20.3789V39.0059Z" fill="#2866DC"/>
<path fill-rule="evenodd" clip-rule="evenodd" d="M28.1177 39.0059H29.5326V31.916H28.1177V39.0059Z" fill="#2866DC"/>
<path fill-rule="evenodd" clip-rule="evenodd" d="M38.6543 39.0059H40.0692V31.916H38.6543V39.0059Z" fill="#2866DC"/>
<path fill-rule="evenodd" clip-rule="evenodd" d="M46.3931 39.0059H47.8079V31.916H46.3931V39.0059Z" fill="#2866DC"/>
<path fill-rule="evenodd" clip-rule="evenodd" d="M9.84229 46.9068H11.2572V42.6476H9.84229V46.9068Z" fill="#2866DC"/>
<path fill-rule="evenodd" clip-rule="evenodd" d="M20.3789 46.9068H21.7938V42.6476H20.3789V46.9068Z" fill="#2866DC"/>
<path fill-rule="evenodd" clip-rule="evenodd" d="M28.1177 46.9068H29.5326V42.6476H28.1177V46.9068Z" fill="#2866DC"/>
<path fill-rule="evenodd" clip-rule="evenodd" d="M38.6543 46.9068H40.0692V42.6476H38.6543V46.9068Z" fill="#2866DC"/>
<path fill-rule="evenodd" clip-rule="evenodd" d="M2.81071 39.5167C2.04087 39.5167 1.41488 40.1503 1.41488 40.9291C1.41488 41.7079 2.04087 42.3416 2.81071 42.3416C3.58036 42.3416 4.20635 41.7079 4.20635 40.9291C4.20635 40.1503 3.58036 39.5167 2.81071 39.5167ZM2.81071 43.7731C1.26091 43.7731 0 42.4974 0 40.9291C0 39.3611 1.26091 38.0852 2.81071 38.0852C4.36052 38.0852 5.62123 39.3611 5.62123 40.9291C5.62123 42.4974 4.36052 43.7731 2.81071 43.7731Z" fill="#2866DC"/>
<path fill-rule="evenodd" clip-rule="evenodd" d="M2.81071 28.5799C2.04087 28.5799 1.41488 29.2136 1.41488 29.9924C1.41488 30.7712 2.04087 31.4048 2.81071 31.4048C3.58036 31.4048 4.20635 30.7712 4.20635 29.9924C4.20635 29.2136 3.58036 28.5799 2.81071 28.5799ZM2.81071 32.8363C1.26091 32.8363 0 31.5606 0 29.9924C0 28.4243 1.26091 27.1484 2.81071 27.1484C4.36052 27.1484 5.62123 28.4243 5.62123 29.9924C5.62123 31.5606 4.36052 32.8363 2.81071 32.8363Z" fill="#2866DC"/>
<path fill-rule="evenodd" clip-rule="evenodd" d="M2.81071 20.4741C2.04087 20.4741 1.41488 21.1077 1.41488 21.8865C1.41488 22.6653 2.04087 23.299 2.81071 23.299C3.58036 23.299 4.20635 22.6653 4.20635 21.8865C4.20635 21.1077 3.58036 20.4741 2.81071 20.4741ZM2.81071 24.7305C1.26091 24.7305 0 23.4548 0 21.8865C0 20.3185 1.26091 19.0426 2.81071 19.0426C4.36052 19.0426 5.62123 20.3185 5.62123 21.8865C5.62123 23.4548 4.36052 24.7305 2.81071 24.7305Z" fill="#2866DC"/>
<path fill-rule="evenodd" clip-rule="evenodd" d="M2.81071 9.53734C2.04087 9.53734 1.41488 10.171 1.41488 10.9498C1.41488 11.7286 2.04087 12.3622 2.81071 12.3622C3.58036 12.3622 4.20635 11.7286 4.20635 10.9498C4.20635 10.171 3.58036 9.53734 2.81071 9.53734ZM2.81071 13.7937C1.26091 13.7937 0 12.518 0 10.9498C0 9.38174 1.26091 8.10583 2.81071 8.10583C4.36052 8.10583 5.62123 9.38174 5.62123 10.9498C5.62123 12.518 4.36052 13.7937 2.81071 13.7937Z" fill="#2866DC"/>
<path fill-rule="evenodd" clip-rule="evenodd" d="M10.5495 47.6224C9.77964 47.6224 9.15365 48.2561 9.15365 49.0349C9.15365 49.8139 9.77964 50.4473 10.5495 50.4473C11.3191 50.4473 11.9451 49.8139 11.9451 49.0349C11.9451 48.2561 11.3191 47.6224 10.5495 47.6224ZM10.5495 51.8788C8.99968 51.8788 7.73877 50.6031 7.73877 49.0349C7.73877 47.4668 8.99968 46.1909 10.5495 46.1909C12.0993 46.1909 13.36 47.4668 13.36 49.0349C13.36 50.6031 12.0993 51.8788 10.5495 51.8788Z" fill="#2866DC"/>
<path fill-rule="evenodd" clip-rule="evenodd" d="M10.5495 39.5167C9.77964 39.5167 9.15365 40.1503 9.15365 40.9291C9.15365 41.7079 9.77964 42.3416 10.5495 42.3416C11.3191 42.3416 11.9451 41.7079 11.9451 40.9291C11.9451 40.1503 11.3191 39.5167 10.5495 39.5167ZM10.5495 43.7731C8.99968 43.7731 7.73877 42.4974 7.73877 40.9291C7.73877 39.3611 8.99968 38.0852 10.5495 38.0852C12.0993 38.0852 13.36 39.3611 13.36 40.9291C13.36 42.4974 12.0993 43.7731 10.5495 43.7731Z" fill="#2866DC"/>
<path fill-rule="evenodd" clip-rule="evenodd" d="M10.5495 28.5799C9.77964 28.5799 9.15365 29.2136 9.15365 29.9924C9.15365 30.7712 9.77964 31.4048 10.5495 31.4048C11.3191 31.4048 11.9451 30.7712 11.9451 29.9924C11.9451 29.2136 11.3191 28.5799 10.5495 28.5799ZM10.5495 32.8363C8.99968 32.8363 7.73877 31.5606 7.73877 29.9924C7.73877 28.4243 8.99968 27.1484 10.5495 27.1484C12.0993 27.1484 13.36 28.4243 13.36 29.9924C13.36 31.5606 12.0993 32.8363 10.5495 32.8363Z" fill="#2866DC"/>
<path fill-rule="evenodd" clip-rule="evenodd" d="M10.5495 20.4741C9.77964 20.4741 9.15365 21.1077 9.15365 21.8865C9.15365 22.6653 9.77964 23.299 10.5495 23.299C11.3191 23.299 11.9451 22.6653 11.9451 21.8865C11.9451 21.1077 11.3191 20.4741 10.5495 20.4741ZM10.5495 24.7305C8.99968 24.7305 7.73877 23.4548 7.73877 21.8865C7.73877 20.3185 8.99968 19.0426 10.5495 19.0426C12.0993 19.0426 13.36 20.3185 13.36 21.8865C13.36 23.4548 12.0993 24.7305 10.5495 24.7305Z" fill="#2866DC"/>
<path fill-rule="evenodd" clip-rule="evenodd" d="M10.5495 9.53734C9.77964 9.53734 9.15365 10.171 9.15365 10.9498C9.15365 11.7286 9.77964 12.3622 10.5495 12.3622C11.3191 12.3622 11.9451 11.7286 11.9451 10.9498C11.9451 10.171 11.3191 9.53734 10.5495 9.53734ZM10.5495 13.7937C8.99968 13.7937 7.73877 12.518 7.73877 10.9498C7.73877 9.38174 8.99968 8.10583 10.5495 8.10583C12.0993 8.10583 13.36 9.38174 13.36 10.9498C13.36 12.518 12.0993 13.7937 10.5495 13.7937Z" fill="#2866DC"/>
<path fill-rule="evenodd" clip-rule="evenodd" d="M10.5495 1.43151C9.77964 1.43151 9.15365 2.06494 9.15365 2.84394C9.15365 3.62273 9.77964 4.25637 10.5495 4.25637C11.3191 4.25637 11.9451 3.62273 11.9451 2.84394C11.9451 2.06494 11.3191 1.43151 10.5495 1.43151ZM10.5495 5.68788C8.99968 5.68788 7.73877 4.41217 7.73877 2.84394C7.73877 1.27591 8.99968 0 10.5495 0C12.0993 0 13.36 1.27591 13.36 2.84394C13.36 4.41217 12.0993 5.68788 10.5495 5.68788Z" fill="#2866DC"/>
<path fill-rule="evenodd" clip-rule="evenodd" d="M21.0861 47.6224C20.3163 47.6224 19.6903 48.2561 19.6903 49.0349C19.6903 49.8139 20.3163 50.4473 21.0861 50.4473C21.8557 50.4473 22.4817 49.8139 22.4817 49.0349C22.4817 48.2561 21.8557 47.6224 21.0861 47.6224ZM21.0861 51.8788C19.5363 51.8788 18.2754 50.6031 18.2754 49.0349C18.2754 47.4668 19.5363 46.1909 21.0861 46.1909C22.6359 46.1909 23.8966 47.4668 23.8966 49.0349C23.8966 50.6031 22.6359 51.8788 21.0861 51.8788Z" fill="#2866DC"/>
<path fill-rule="evenodd" clip-rule="evenodd" d="M21.0861 39.5167C20.3163 39.5167 19.6903 40.1503 19.6903 40.9291C19.6903 41.7079 20.3163 42.3416 21.0861 42.3416C21.8557 42.3416 22.4817 41.7079 22.4817 40.9291C22.4817 40.1503 21.8557 39.5167 21.0861 39.5167ZM21.0861 43.7731C19.5363 43.7731 18.2754 42.4974 18.2754 40.9291C18.2754 39.3611 19.5363 38.0852 21.0861 38.0852C22.6359 38.0852 23.8966 39.3611 23.8966 40.9291C23.8966 42.4974 22.6359 43.7731 21.0861 43.7731Z" fill="#2866DC"/>
<path fill-rule="evenodd" clip-rule="evenodd" d="M21.0861 9.53734C20.3163 9.53734 19.6903 10.171 19.6903 10.9498C19.6903 11.7286 20.3163 12.3622 21.0861 12.3622C21.8557 12.3622 22.4817 11.7286 22.4817 10.9498C22.4817 10.171 21.8557 9.53734 21.0861 9.53734ZM21.0861 13.7937C19.5363 13.7937 18.2754 12.518 18.2754 10.9498C18.2754 9.38174 19.5363 8.10583 21.0861 8.10583C22.6359 8.10583 23.8966 9.38174 23.8966 10.9498C23.8966 12.518 22.6359 13.7937 21.0861 13.7937Z" fill="#2866DC"/>
<path fill-rule="evenodd" clip-rule="evenodd" d="M21.0861 1.43151C20.3163 1.43151 19.6903 2.06494 19.6903 2.84394C19.6903 3.62273 20.3163 4.25637 21.0861 4.25637C21.8557 4.25637 22.4817 3.62273 22.4817 2.84394C22.4817 2.06494 21.8557 1.43151 21.0861 1.43151ZM21.0861 5.68788C19.5363 5.68788 18.2754 4.41217 18.2754 2.84394C18.2754 1.27591 19.5363 0 21.0861 0C22.6359 0 23.8966 1.27591 23.8966 2.84394C23.8966 4.41217 22.6359 5.68788 21.0861 5.68788Z" fill="#2866DC"/>
<path fill-rule="evenodd" clip-rule="evenodd" d="M28.8252 47.6224C28.0555 47.6224 27.4295 48.2561 27.4295 49.0349C27.4295 49.8139 28.0555 50.4473 28.8252 50.4473C29.595 50.4473 30.221 49.8139 30.221 49.0349C30.221 48.2561 29.595 47.6224 28.8252 47.6224ZM28.8252 51.8788C27.2754 51.8788 26.0146 50.6031 26.0146 49.0349C26.0146 47.4668 27.2754 46.1909 28.8252 46.1909C30.375 46.1909 31.6359 47.4668 31.6359 49.0349C31.6359 50.6031 30.375 51.8788 28.8252 51.8788Z" fill="#2866DC"/>
<path fill-rule="evenodd" clip-rule="evenodd" d="M28.8252 39.5167C28.0555 39.5167 27.4295 40.1503 27.4295 40.9291C27.4295 41.7079 28.0555 42.3416 28.8252 42.3416C29.595 42.3416 30.221 41.7079 30.221 40.9291C30.221 40.1503 29.595 39.5167 28.8252 39.5167ZM28.8252 43.7731C27.2754 43.7731 26.0146 42.4974 26.0146 40.9291C26.0146 39.3611 27.2754 38.0852 28.8252 38.0852C30.375 38.0852 31.6359 39.3611 31.6359 40.9291C31.6359 42.4974 30.375 43.7731 28.8252 43.7731Z" fill="#2866DC"/>
<path fill-rule="evenodd" clip-rule="evenodd" d="M28.8252 9.53734C28.0555 9.53734 27.4295 10.171 27.4295 10.9498C27.4295 11.7286 28.0555 12.3622 28.8252 12.3622C29.595 12.3622 30.221 11.7286 30.221 10.9498C30.221 10.171 29.595 9.53734 28.8252 9.53734ZM28.8252 13.7937C27.2754 13.7937 26.0146 12.518 26.0146 10.9498C26.0146 9.38174 27.2754 8.10583 28.8252 8.10583C30.375 8.10583 31.6359 9.38174 31.6359 10.9498C31.6359 12.518 30.375 13.7937 28.8252 13.7937Z" fill="#2866DC"/>
<path fill-rule="evenodd" clip-rule="evenodd" d="M28.8252 1.43151C28.0555 1.43151 27.4295 2.06494 27.4295 2.84394C27.4295 3.62273 28.0555 4.25637 28.8252 4.25637C29.595 4.25637 30.221 3.62273 30.221 2.84394C30.221 2.06494 29.595 1.43151 28.8252 1.43151ZM28.8252 5.68788C27.2754 5.68788 26.0146 4.41217 26.0146 2.84394C26.0146 1.27591 27.2754 0 28.8252 0C30.375 0 31.6359 1.27591 31.6359 2.84394C31.6359 4.41217 30.375 5.68788 28.8252 5.68788Z" fill="#2866DC"/>
<path fill-rule="evenodd" clip-rule="evenodd" d="M39.3618 47.6224C38.5921 47.6224 37.9662 48.2561 37.9662 49.0349C37.9662 49.8139 38.5921 50.4473 39.3618 50.4473C40.1316 50.4473 40.7576 49.8139 40.7576 49.0349C40.7576 48.2561 40.1316 47.6224 39.3618 47.6224ZM39.3618 51.8788C37.812 51.8788 36.5513 50.6031 36.5513 49.0349C36.5513 47.4668 37.812 46.1909 39.3618 46.1909C40.9116 46.1909 42.1725 47.4668 42.1725 49.0349C42.1725 50.6031 40.9116 51.8788 39.3618 51.8788Z" fill="#2866DC"/>
<path fill-rule="evenodd" clip-rule="evenodd" d="M39.3618 39.5167C38.5921 39.5167 37.9662 40.1503 37.9662 40.9291C37.9662 41.7079 38.5921 42.3416 39.3618 42.3416C40.1316 42.3416 40.7576 41.7079 40.7576 40.9291C40.7576 40.1503 40.1316 39.5167 39.3618 39.5167ZM39.3618 43.7731C37.812 43.7731 36.5513 42.4974 36.5513 40.9291C36.5513 39.3611 37.812 38.0852 39.3618 38.0852C40.9116 38.0852 42.1725 39.3611 42.1725 40.9291C42.1725 42.4974 40.9116 43.7731 39.3618 43.7731Z" fill="#2866DC"/>
<path fill-rule="evenodd" clip-rule="evenodd" d="M39.3618 28.5799C38.5921 28.5799 37.9662 29.2136 37.9662 29.9924C37.9662 30.7712 38.5921 31.4048 39.3618 31.4048C40.1316 31.4048 40.7576 30.7712 40.7576 29.9924C40.7576 29.2136 40.1316 28.5799 39.3618 28.5799ZM39.3618 32.8363C37.812 32.8363 36.5513 31.5606 36.5513 29.9924C36.5513 28.4243 37.812 27.1484 39.3618 27.1484C40.9116 27.1484 42.1725 28.4243 42.1725 29.9924C42.1725 31.5606 40.9116 32.8363 39.3618 32.8363Z" fill="#2866DC"/>
<path fill-rule="evenodd" clip-rule="evenodd" d="M39.3618 20.4741C38.5921 20.4741 37.9662 21.1077 37.9662 21.8865C37.9662 22.6653 38.5921 23.299 39.3618 23.299C40.1316 23.299 40.7576 22.6653 40.7576 21.8865C40.7576 21.1077 40.1316 20.4741 39.3618 20.4741ZM39.3618 24.7305C37.812 24.7305 36.5513 23.4548 36.5513 21.8865C36.5513 20.3185 37.812 19.0426 39.3618 19.0426C40.9116 19.0426 42.1725 20.3185 42.1725 21.8865C42.1725 23.4548 40.9116 24.7305 39.3618 24.7305Z" fill="#2866DC"/>
<path fill-rule="evenodd" clip-rule="evenodd" d="M39.3618 9.53734C38.5921 9.53734 37.9662 10.171 37.9662 10.9498C37.9662 11.7286 38.5921 12.3622 39.3618 12.3622C40.1316 12.3622 40.7576 11.7286 40.7576 10.9498C40.7576 10.171 40.1316 9.53734 39.3618 9.53734ZM39.3618 13.7937C37.812 13.7937 36.5513 12.518 36.5513 10.9498C36.5513 9.38174 37.812 8.10583 39.3618 8.10583C40.9116 8.10583 42.1725 9.38174 42.1725 10.9498C42.1725 12.518 40.9116 13.7937 39.3618 13.7937Z" fill="#2866DC"/>
<path fill-rule="evenodd" clip-rule="evenodd" d="M39.3618 1.43151C38.5921 1.43151 37.9662 2.06494 37.9662 2.84394C37.9662 3.62273 38.5921 4.25637 39.3618 4.25637C40.1316 4.25637 40.7576 3.62273 40.7576 2.84394C40.7576 2.06494 40.1316 1.43151 39.3618 1.43151ZM39.3618 5.68788C37.812 5.68788 36.5513 4.41217 36.5513 2.84394C36.5513 1.27591 37.812 0 39.3618 0C40.9116 0 42.1725 1.27591 42.1725 2.84394C42.1725 4.41217 40.9116 5.68788 39.3618 5.68788Z" fill="#2866DC"/>
<path fill-rule="evenodd" clip-rule="evenodd" d="M47.1006 39.5167C46.3309 39.5167 45.7049 40.1503 45.7049 40.9291C45.7049 41.7079 46.3309 42.3416 47.1006 42.3416C47.8704 42.3416 48.4964 41.7079 48.4964 40.9291C48.4964 40.1503 47.8704 39.5167 47.1006 39.5167ZM47.1006 43.7731C45.5508 43.7731 44.29 42.4974 44.29 40.9291C44.29 39.3611 45.5508 38.0852 47.1006 38.0852C48.6504 38.0852 49.9113 39.3611 49.9113 40.9291C49.9113 42.4974 48.6504 43.7731 47.1006 43.7731Z" fill="#2866DC"/>
<path fill-rule="evenodd" clip-rule="evenodd" d="M47.1006 28.5799C46.3309 28.5799 45.7049 29.2136 45.7049 29.9924C45.7049 30.7712 46.3309 31.4048 47.1006 31.4048C47.8704 31.4048 48.4964 30.7712 48.4964 29.9924C48.4964 29.2136 47.8704 28.5799 47.1006 28.5799ZM47.1006 32.8363C45.5508 32.8363 44.29 31.5606 44.29 29.9924C44.29 28.4243 45.5508 27.1484 47.1006 27.1484C48.6504 27.1484 49.9113 28.4243 49.9113 29.9924C49.9113 31.5606 48.6504 32.8363 47.1006 32.8363Z" fill="#2866DC"/>
<path fill-rule="evenodd" clip-rule="evenodd" d="M47.1006 20.4741C46.3309 20.4741 45.7049 21.1077 45.7049 21.8865C45.7049 22.6653 46.3309 23.299 47.1006 23.299C47.8704 23.299 48.4964 22.6653 48.4964 21.8865C48.4964 21.1077 47.8704 20.4741 47.1006 20.4741ZM47.1006 24.7305C45.5508 24.7305 44.29 23.4548 44.29 21.8865C44.29 20.3185 45.5508 19.0426 47.1006 19.0426C48.6504 19.0426 49.9113 20.3185 49.9113 21.8865C49.9113 23.4548 48.6504 24.7305 47.1006 24.7305Z" fill="#2866DC"/>
<path fill-rule="evenodd" clip-rule="evenodd" d="M47.1006 9.53734C46.3309 9.53734 45.7049 10.171 45.7049 10.9498C45.7049 11.7286 46.3309 12.3622 47.1006 12.3622C47.8704 12.3622 48.4964 11.7286 48.4964 10.9498C48.4964 10.171 47.8704 9.53734 47.1006 9.53734ZM47.1006 13.7937C45.5508 13.7937 44.29 12.518 44.29 10.9498C44.29 9.38174 45.5508 8.10583 47.1006 8.10583C48.6504 8.10583 49.9113 9.38174 49.9113 10.9498C49.9113 12.518 48.6504 13.7937 47.1006 13.7937Z" fill="#2866DC"/>
<path fill-rule="evenodd" clip-rule="evenodd" d="M47.6282 48.8463C48.152 48.8463 48.5762 49.276 48.5762 49.8056C48.5762 50.3354 48.152 50.7651 47.6282 50.7651C47.1046 50.7651 46.6802 50.3354 46.6802 49.8056C46.6802 49.276 47.1046 48.8463 47.6282 48.8463Z" fill="#2866DC"/>
<path fill-rule="evenodd" clip-rule="evenodd" d="M45.4534 46.5449C45.9772 46.5449 46.4014 46.9746 46.4014 47.5042C46.4014 48.0343 45.9772 48.4639 45.4534 48.4639C44.9298 48.4639 44.5054 48.0343 44.5054 47.5042C44.5054 46.9746 44.9298 46.5449 45.4534 46.5449Z" fill="#2866DC"/>
<path fill-rule="evenodd" clip-rule="evenodd" d="M43.2786 44.2437C43.8024 44.2437 44.2266 44.6731 44.2266 45.2029C44.2266 45.7328 43.8024 46.1624 43.2786 46.1624C42.755 46.1624 42.3306 45.7328 42.3306 45.2029C42.3306 44.6731 42.755 44.2437 43.2786 44.2437Z" fill="#2866DC"/>
<path fill-rule="evenodd" clip-rule="evenodd" d="M3.07953 49.7049C3.07953 50.2349 2.65493 50.6642 2.13132 50.6642C1.60771 50.6642 1.18311 50.2349 1.18311 49.7049C1.18311 49.1751 1.60771 48.7456 2.13132 48.7456C2.65493 48.7456 3.07953 49.1751 3.07953 49.7049Z" fill="#2866DC"/>
<path fill-rule="evenodd" clip-rule="evenodd" d="M5.35375 47.5042C5.35375 48.0343 4.92934 48.4637 4.40573 48.4637C3.88212 48.4637 3.45752 48.0343 3.45752 47.5042C3.45752 46.9744 3.88212 46.5449 4.40573 46.5449C4.92934 46.5449 5.35375 46.9744 5.35375 47.5042Z" fill="#2866DC"/>
<path fill-rule="evenodd" clip-rule="evenodd" d="M7.62816 45.3035C7.62816 45.8336 7.20356 46.263 6.68015 46.263C6.15634 46.263 5.73193 45.8336 5.73193 45.3035C5.73193 44.7737 6.15634 44.3442 6.68015 44.3442C7.20356 44.3442 7.62816 44.7737 7.62816 45.3035Z" fill="#2866DC"/>
<path fill-rule="evenodd" clip-rule="evenodd" d="M47.6282 3.23258C48.152 3.23258 48.5762 2.80293 48.5762 2.27329C48.5762 1.74325 48.152 1.3136 47.6282 1.3136C47.1046 1.3136 46.6802 1.74325 46.6802 2.27329C46.6802 2.80293 47.1046 3.23258 47.6282 3.23258Z" fill="#2866DC"/>
<path fill-rule="evenodd" clip-rule="evenodd" d="M45.4534 5.53397C45.9772 5.53397 46.4014 5.10432 46.4014 4.57448C46.4014 4.04464 45.9772 3.61499 45.4534 3.61499C44.9298 3.61499 44.5054 4.04464 44.5054 4.57448C44.5054 5.10432 44.9298 5.53397 45.4534 5.53397Z" fill="#2866DC"/>
<path fill-rule="evenodd" clip-rule="evenodd" d="M43.2786 7.83528C43.8024 7.83528 44.2266 7.40563 44.2266 6.87599C44.2266 6.34616 43.8024 5.9165 43.2786 5.9165C42.755 5.9165 42.3306 6.34616 42.3306 6.87599C42.3306 7.40563 42.755 7.83528 43.2786 7.83528Z" fill="#2866DC"/>
<path fill-rule="evenodd" clip-rule="evenodd" d="M3.07953 2.37384C3.07953 1.844 2.65493 1.41455 2.13132 1.41455C1.60771 1.41455 1.18311 1.844 1.18311 2.37384C1.18311 2.90388 1.60771 3.33333 2.13132 3.33333C2.65493 3.33333 3.07953 2.90388 3.07953 2.37384Z" fill="#2866DC"/>
<path fill-rule="evenodd" clip-rule="evenodd" d="M5.35375 4.57452C5.35375 4.04469 4.92934 3.61523 4.40573 3.61523C3.88212 3.61523 3.45752 4.04469 3.45752 4.57452C3.45752 5.10456 3.88212 5.53401 4.40573 5.53401C4.92934 5.53401 5.35375 5.10456 5.35375 4.57452Z" fill="#2866DC"/>
<path fill-rule="evenodd" clip-rule="evenodd" d="M7.62816 6.77509C7.62816 6.24525 7.20356 5.8158 6.68015 5.8158C6.15634 5.8158 5.73193 6.24525 5.73193 6.77509C5.73193 7.30512 6.15634 7.73438 6.68015 7.73438C7.20356 7.73438 7.62816 7.30512 7.62816 6.77509Z" fill="#2866DC"/>
<path fill-rule="evenodd" clip-rule="evenodd" d="M29.8365 17.2676H20.0752C19.2329 17.2676 18.5435 17.9651 18.5435 18.8175V33.0531C18.5435 33.9056 19.2329 34.6031 20.0752 34.6031H29.8365C30.6788 34.6031 31.3683 33.9056 31.3683 33.0531V18.8175C31.3683 17.9651 30.6788 17.2676 29.8365 17.2676Z" fill="white"/>
<path fill-rule="evenodd" clip-rule="evenodd" d="M18.5435 25.9353H31.3683V21.6014H18.5435V25.9353Z" fill="white"/>
<path fill-rule="evenodd" clip-rule="evenodd" d="M31.3683 30.2775H18.5435V32.7879C18.5435 33.795 19.3504 34.6113 20.3454 34.6113H29.5663C30.5615 34.6113 31.3683 33.795 31.3683 32.7879V30.2775Z" fill="white"/>
<path fill-rule="evenodd" clip-rule="evenodd" d="M20.075 17.9835C19.6205 17.9835 19.2508 18.3575 19.2508 18.8175V33.0533C19.2508 33.5132 19.6205 33.8873 20.075 33.8873H29.8363C30.2909 33.8873 30.6607 33.5132 30.6607 33.0533V18.8175C30.6607 18.3575 30.2909 17.9835 29.8363 17.9835H20.075ZM29.8363 35.3188H20.075C18.8403 35.3188 17.8359 34.3023 17.8359 33.0533V18.8175C17.8359 17.5685 18.8403 16.552 20.075 16.552H29.8363C31.0711 16.552 32.0754 17.5685 32.0754 18.8175V33.0533C32.0754 34.3023 31.0711 35.3188 29.8363 35.3188Z" fill="#2866DC"/>
<path fill-rule="evenodd" clip-rule="evenodd" d="M18.5435 22.3172H31.3683V20.8857H18.5435V22.3172Z" fill="#2866DC"/>
<path fill-rule="evenodd" clip-rule="evenodd" d="M18.5435 26.6509H31.3683V25.2196H18.5435V26.6509Z" fill="#2866DC"/>
<path fill-rule="evenodd" clip-rule="evenodd" d="M18.5435 30.985H31.3683V29.5535H18.5435V30.985Z" fill="#2866DC"/>
<path fill-rule="evenodd" clip-rule="evenodd" d="M21.3144 19.5577C21.3144 19.2473 21.066 18.996 20.7593 18.996C20.4527 18.996 20.2041 19.2473 20.2041 19.5577C20.2041 19.8679 20.4527 20.1195 20.7593 20.1195C21.066 20.1195 21.3144 19.8679 21.3144 19.5577Z" fill="#2866DC"/>
<path fill-rule="evenodd" clip-rule="evenodd" d="M21.3144 23.7684C21.3144 23.4582 21.066 23.2067 20.7593 23.2067C20.4527 23.2067 20.2041 23.4582 20.2041 23.7684C20.2041 24.0786 20.4527 24.3302 20.7593 24.3302C21.066 24.3302 21.3144 24.0786 21.3144 23.7684Z" fill="#2866DC"/>
<path fill-rule="evenodd" clip-rule="evenodd" d="M21.3144 28.1638C21.3144 27.8534 21.066 27.6021 20.7593 27.6021C20.4527 27.6021 20.2041 27.8534 20.2041 28.1638C20.2041 28.474 20.4527 28.7256 20.7593 28.7256C21.066 28.7256 21.3144 28.474 21.3144 28.1638Z" fill="#2866DC"/>
<path fill-rule="evenodd" clip-rule="evenodd" d="M21.3144 32.4443C21.3144 32.1339 21.066 31.8826 20.7593 31.8826C20.4527 31.8826 20.2041 32.1339 20.2041 32.4443C20.2041 32.7545 20.4527 33.0061 20.7593 33.0061C21.066 33.0061 21.3144 32.7545 21.3144 32.4443Z" fill="#2866DC"/>
<path fill-rule="evenodd" clip-rule="evenodd" d="M35.183 16.0638C35.183 15.4549 34.6951 14.9612 34.0933 14.9612C33.4913 14.9612 33.0034 15.4549 33.0034 16.0638C33.0034 16.6728 33.4913 17.1667 34.0933 17.1667C34.6951 17.1667 35.183 16.6728 35.183 16.0638Z" fill="#2866DC"/>
<path fill-rule="evenodd" clip-rule="evenodd" d="M16.4875 16.0638C16.4875 15.4549 15.9996 14.9612 15.3978 14.9612C14.796 14.9612 14.3081 15.4549 14.3081 16.0638C14.3081 16.6728 14.796 17.1667 15.3978 17.1667C15.9996 17.1667 16.4875 16.6728 16.4875 16.0638Z" fill="#2866DC"/>
<path fill-rule="evenodd" clip-rule="evenodd" d="M35.183 35.9248C35.183 35.3158 34.6951 34.8221 34.0933 34.8221C33.4913 34.8221 33.0034 35.3158 33.0034 35.9248C33.0034 36.5337 33.4913 37.0276 34.0933 37.0276C34.6951 37.0276 35.183 36.5337 35.183 35.9248Z" fill="#2866DC"/>
<path fill-rule="evenodd" clip-rule="evenodd" d="M16.4875 35.9248C16.4875 35.3158 15.9996 34.8221 15.3978 34.8221C14.796 34.8221 14.3081 35.3158 14.3081 35.9248C14.3081 36.5337 14.796 37.0276 15.3978 37.0276C15.9996 37.0276 16.4875 36.5337 16.4875 35.9248Z" fill="#2866DC"/>
</svg>
