<svg width="55" height="55" viewBox="0 0 55 55" fill="none" xmlns="http://www.w3.org/2000/svg">
<path fill-rule="evenodd" clip-rule="evenodd" d="M30.9879 28.2722H7.33545V34.112H29.4242L30.9879 28.2722Z" fill="white"/>
<path fill-rule="evenodd" clip-rule="evenodd" d="M8.05132 33.4013H28.2448L30.2727 30.8209V28.9826H8.05132V33.4013ZM28.9435 34.8222H6.62012V27.5618H31.7039V31.3093L28.9435 34.8222Z" fill="#2866DC"/>
<path fill-rule="evenodd" clip-rule="evenodd" d="M9.32666 28.2826H28.9972V26.2856H9.32666V28.2826Z" fill="white"/>
<path fill-rule="evenodd" clip-rule="evenodd" d="M9.32666 43.9679H28.9972V41.9709H9.32666V43.9679Z" fill="white"/>
<path fill-rule="evenodd" clip-rule="evenodd" d="M9.32666 36.1319H28.9972V34.135H9.32666V36.1319Z" fill="white"/>
<path fill-rule="evenodd" clip-rule="evenodd" d="M10.042 27.5721H28.2816V26.9958H10.042V27.5721ZM8.61084 28.993H29.7128V25.5752H8.61084V28.993Z" fill="#2866DC"/>
<path fill-rule="evenodd" clip-rule="evenodd" d="M30.146 49.8073H8.17751C7.71242 49.8073 7.33545 49.4331 7.33545 48.9715V43.9675H30.9879V48.9715C30.9879 49.4331 30.6109 49.8073 30.146 49.8073Z" fill="white"/>
<path fill-rule="evenodd" clip-rule="evenodd" d="M8.05132 44.6779V47.4235C8.05132 48.3462 8.80747 49.0968 9.73685 49.0968H28.587C29.5168 49.0968 30.2727 48.3462 30.2727 47.4235V44.6779H8.05132ZM28.587 50.5177H9.73685C8.0184 50.5177 6.62012 49.1297 6.62012 47.4235V43.2571H31.7039V47.4235C31.7039 49.1297 30.3056 50.5177 28.587 50.5177Z" fill="#2866DC"/>
<mask id="mask0" mask-type="alpha" maskUnits="userSpaceOnUse" x="0" y="0" width="55" height="55">
<path fill-rule="evenodd" clip-rule="evenodd" d="M0 54.7593H54.9582V0.199341H0V54.7593Z" fill="white"/>
</mask>
<g mask="url(#mask0)">
<path fill-rule="evenodd" clip-rule="evenodd" d="M10.042 43.2574H28.2816V42.6813H10.042V43.2574ZM8.61084 44.6782H29.7128V41.2606H8.61084V44.6782Z" fill="#2866DC"/>
<path fill-rule="evenodd" clip-rule="evenodd" d="M7.33545 41.9706H30.9879V36.1309H7.33545V41.9706Z" fill="white"/>
<path fill-rule="evenodd" clip-rule="evenodd" d="M10.7548 51.8015H9.62607C9.46408 51.8015 9.33301 51.6714 9.33301 51.5108V49.8046H11.0478V51.5108C11.0478 51.6714 10.9168 51.8015 10.7548 51.8015Z" fill="#2866DC"/>
<path fill-rule="evenodd" clip-rule="evenodd" d="M28.6976 51.8015H27.5687C27.407 51.8015 27.2759 51.6714 27.2759 51.5108V49.8046H28.9907V51.5108C28.9907 51.6714 28.8596 51.8015 28.6976 51.8015Z" fill="#2866DC"/>
<path fill-rule="evenodd" clip-rule="evenodd" d="M8.05083 41.2606H30.2722V36.8415H8.05083V41.2606ZM6.61963 42.6815H31.7034V35.4207H6.61963V42.6815Z" fill="#2866DC"/>
<path fill-rule="evenodd" clip-rule="evenodd" d="M10.042 35.4213H28.2816V34.8454H10.042V35.4213ZM8.61084 36.8422H29.7128V33.4248H8.61084V36.8422Z" fill="#2866DC"/>
<path fill-rule="evenodd" clip-rule="evenodd" d="M11.5149 31.1921C11.5149 30.7802 11.1784 30.4462 10.7635 30.4462C10.3484 30.4462 10.0122 30.7802 10.0122 31.1921C10.0122 31.604 10.3484 31.9379 10.7635 31.9379C11.1784 31.9379 11.5149 31.604 11.5149 31.1921Z" fill="#2866DC"/>
<path fill-rule="evenodd" clip-rule="evenodd" d="M11.5149 39.0508C11.5149 38.6389 11.1784 38.3049 10.7635 38.3049C10.3484 38.3049 10.0122 38.6389 10.0122 39.0508C10.0122 39.4627 10.3484 39.7967 10.7635 39.7967C11.1784 39.7967 11.5149 39.4627 11.5149 39.0508Z" fill="#2866DC"/>
<path fill-rule="evenodd" clip-rule="evenodd" d="M11.5149 46.8875C11.5149 46.4756 11.1784 46.1416 10.7635 46.1416C10.3484 46.1416 10.0122 46.4756 10.0122 46.8875C10.0122 47.2994 10.3484 47.6334 10.7635 47.6334C11.1784 47.6334 11.5149 47.2994 11.5149 46.8875Z" fill="#2866DC"/>
<path fill-rule="evenodd" clip-rule="evenodd" d="M22.1146 26.2849H7.33301V22.8295C7.33301 21.5111 8.40952 20.4481 9.73775 20.4481H18.2732L22.1146 26.2849Z" fill="white"/>
<path fill-rule="evenodd" clip-rule="evenodd" d="M11.5149 23.5357C11.5149 23.1238 11.1784 22.7898 10.7635 22.7898C10.3484 22.7898 10.0122 23.1238 10.0122 23.5357C10.0122 23.9476 10.3484 24.2816 10.7635 24.2816C11.1784 24.2816 11.5149 23.9476 11.5149 23.5357Z" fill="#2866DC"/>
<path fill-rule="evenodd" clip-rule="evenodd" d="M31.7041 26.9954H6.61768V22.8296C6.61768 21.1247 8.01737 19.7378 9.73782 19.7378H18.1187L18.1301 21.1586H9.73782C8.80643 21.1586 8.04888 21.9083 8.04888 22.8296V25.5746H30.2727V22.8296C30.2727 22.1361 29.8552 21.5285 29.2086 21.2816C29.0017 21.1967 28.8054 21.1586 28.5894 21.1586H22.0691V19.7378H28.5894C28.9918 19.7378 29.379 19.8135 29.7404 19.9626C30.9261 20.4151 31.7041 21.5434 31.7041 22.8296V26.9954Z" fill="#2866DC"/>
<path fill-rule="evenodd" clip-rule="evenodd" d="M30.1668 28.8961H25.7616C25.4711 28.8961 25.2339 29.1319 25.2339 29.42V33.4235C25.2339 33.7114 25.4711 33.9472 25.7616 33.9472H30.1668C30.4571 33.9472 30.6945 33.7114 30.6945 33.4235V29.42C30.6945 29.1319 30.4571 28.8961 30.1668 28.8961Z" fill="white"/>
<path fill-rule="evenodd" clip-rule="evenodd" d="M26.7384 29.6601C26.3332 29.6601 26.0034 29.9875 26.0034 30.3899V32.4534C26.0034 32.8555 26.3332 33.1831 26.7384 33.1831H29.1895C29.595 33.1831 29.9248 32.8555 29.9248 32.4534V30.3899C29.9248 29.9875 29.595 29.6601 29.1895 29.6601H26.7384ZM29.1895 34.711H26.7384C25.4845 34.711 24.4644 33.6982 24.4644 32.4534V30.3899C24.4644 29.145 25.4845 28.1321 26.7384 28.1321H29.1895C30.4435 28.1321 31.464 29.145 31.464 30.3899V32.4534C31.464 33.6982 30.4435 34.711 29.1895 34.711Z" fill="#2866DC"/>
<path fill-rule="evenodd" clip-rule="evenodd" d="M31.6586 27.6293L31.6363 30.0983C31.6329 30.624 31.2024 31.0486 30.6724 31.0486H25.1128C24.5797 31.0486 24.1455 30.621 24.1455 30.0917V27.6293H31.6586Z" fill="white"/>
<path fill-rule="evenodd" clip-rule="evenodd" d="M33.1881 21.3804C31.958 23.2291 31.8856 24.182 31.6579 26.386V27.6283H24.146V26.4238C23.9381 24.334 23.4892 22.9993 22.9832 21.9856C21.9723 19.9598 20.7334 19.2167 20.7334 16.2937C20.7334 12.3664 23.9439 9.17896 27.8999 9.17896C31.8603 9.17896 35.0705 12.3664 35.0705 16.2937C35.0705 18.4473 33.8949 20.1851 33.1881 21.3804Z" fill="white"/>
<path fill-rule="evenodd" clip-rule="evenodd" d="M24.8619 26.9178H30.9426L30.9625 26.1568C31.1823 24.0193 31.2931 22.944 32.582 21.0029L32.7769 20.6771C33.4429 19.5709 34.355 18.0558 34.355 16.2938C34.355 12.7625 31.4593 9.88971 27.9001 9.88971C24.343 9.88971 21.4493 12.7625 21.4493 16.2938C21.4493 18.1736 22.0003 19.0237 22.698 20.0998C22.9887 20.5481 23.3183 21.0567 23.6246 21.6701C24.2786 22.9803 24.6704 24.4685 24.8585 26.3538L24.8619 26.4238V26.9178ZM32.3738 28.3386H23.4307V26.4591C23.2591 24.7666 22.913 23.4444 22.3421 22.3012C22.0713 21.7585 21.7781 21.3062 21.4944 20.8688C20.7351 19.6976 20.0181 18.5915 20.0181 16.2938C20.0181 11.9791 23.5539 8.46887 27.9001 8.46887C32.2485 8.46887 35.7862 11.9791 35.7862 16.2938C35.7862 18.448 34.7571 20.1578 34.0053 21.406L33.7853 21.7721C32.6817 23.4307 32.595 24.271 32.3862 26.3012L32.3738 26.4222V28.3386Z" fill="#2866DC"/>
<path fill-rule="evenodd" clip-rule="evenodd" d="M24.8609 28.3398V30.092C24.8609 30.2279 24.9737 30.3383 25.1124 30.3383H30.672C30.8083 30.3383 30.9195 30.2285 30.9203 30.0936L30.9364 28.3398H24.8609ZM30.672 31.7591H25.1124C24.1848 31.7591 23.4297 31.0113 23.4297 30.092V26.9189H32.3802L32.3515 30.1044C32.3457 31.016 31.5922 31.7591 30.672 31.7591Z" fill="#2866DC"/>
<path fill-rule="evenodd" clip-rule="evenodd" d="M27.0628 24.2972L25.5605 16.6876C25.5509 16.6296 25.6151 16.588 25.6645 16.6203L27.0184 17.4981C27.0518 17.5196 27.0965 17.5084 27.1156 17.4738L27.8448 16.1376C27.8699 16.0916 27.9362 16.0902 27.9629 16.1354L28.7897 17.52C28.81 17.5543 28.8559 17.5636 28.8882 17.5401L30.1344 16.634C30.1835 16.5982 30.2516 16.6398 30.2416 16.6994L28.7411 24.2972H27.0628Z" fill="white"/>
<path fill-rule="evenodd" clip-rule="evenodd" d="M28.7416 25.0077C28.6958 25.0077 28.6497 25.0037 28.6033 24.9945C28.2153 24.919 27.9626 24.5458 28.0386 24.1608L29.2197 18.1795L29.0537 18.3005L28.6874 18.2471C28.472 18.2024 28.2841 18.0687 28.1725 17.8804L27.9292 17.4733L27.595 18.0857L27.2488 18.1955C27.0356 18.2493 26.809 18.2116 26.6261 18.0922L26.5573 18.0478L27.7646 24.1608C27.8407 24.5458 27.588 24.919 27.2002 24.9945C26.8116 25.0709 26.436 24.819 26.3603 24.4338L24.8579 16.8244C24.8039 16.4974 24.9402 16.1925 25.2003 16.0242C25.4607 15.8566 25.7967 15.857 26.0564 16.0261L26.821 16.5215L27.2155 15.7992C27.3499 15.5531 27.6085 15.3972 27.8905 15.3921C28.1643 15.3785 28.4359 15.5339 28.5794 15.7751L29.0409 16.5483L29.7111 16.061C29.9719 15.8729 30.3143 15.8594 30.5863 16.0271C30.8579 16.1939 30.9996 16.5038 30.947 16.8169L29.443 24.4338C29.3761 24.7729 29.0768 25.0077 28.7416 25.0077Z" fill="#2866DC"/>
<path fill-rule="evenodd" clip-rule="evenodd" d="M39.6569 30.9867L35.7248 33.5281L33.5854 30.2645C34.3281 29.9541 35.0379 29.5735 35.7395 29.1201C36.3856 28.7024 36.991 28.2525 37.5358 27.7505L39.6569 30.9867Z" fill="white"/>
<path fill-rule="evenodd" clip-rule="evenodd" d="M45.9615 37.5855L39.2653 41.9136L34.3452 34.4164L41.0414 30.0884L45.9615 37.5855Z" fill="white"/>
<path fill-rule="evenodd" clip-rule="evenodd" d="M49.0662 44.4579C48.854 45.4539 48.2617 46.37 47.3467 46.9672C45.5044 48.1521 43.0206 47.631 41.8188 45.8072L39.2651 41.9136L45.9613 37.5857L48.515 41.4793C49.1081 42.3932 49.2767 43.4689 49.0662 44.4579Z" fill="white"/>
<path fill-rule="evenodd" clip-rule="evenodd" d="M35.574 23.7043V23.7091C30.8547 28.9805 22.8082 28.1129 19.1909 22.5899C16.4595 18.4261 17.1948 13.0146 20.6476 9.70818C21.1115 9.25243 21.6303 8.84153 22.194 8.47486C29.5632 3.71118 39.135 9.77912 37.9985 18.3306C37.7411 20.3752 36.824 22.2994 35.574 23.7043ZM42.169 14.7498C40.7178 5.83366 31.6793 0.570404 23.2318 3.32419H23.2267C21.6912 3.83214 20.2307 4.58182 18.722 5.75595H18.7169C18.4725 5.95403 18.238 6.15211 18.0136 6.35517C18.0136 6.24836 16.5095 7.92626 16.4419 8.00915V8.01434C16.2773 8.2174 16.1177 8.42544 15.968 8.63827C15.968 8.63827 15.9631 8.63827 15.9631 8.64325C15.8136 8.85627 15.6638 9.0693 15.5292 9.28711C15.5292 9.28711 15.5241 9.28711 15.5241 9.29209C11.8701 15.0567 12.7687 22.3681 17.3749 27.0818C21.5406 31.3463 27.981 32.6488 33.4987 30.3011C33.5236 30.2913 33.5535 30.2762 33.5834 30.2664H33.5884C34.3974 29.93 35.0809 29.5327 35.7386 29.1224V29.1174H35.7437C36.3922 28.7013 36.991 28.2557 37.5346 27.7506C37.6044 27.686 37.6693 27.6268 37.7343 27.5623C40.4032 25.0958 41.9695 21.7825 42.2838 18.3306C42.3936 17.1419 42.3587 15.9383 42.169 14.7498Z" fill="white"/>
<path fill-rule="evenodd" clip-rule="evenodd" d="M40.2556 42.1214L42.4187 45.4196C43.4062 46.9185 45.4431 47.345 46.9576 46.3711C47.6824 45.8979 48.1842 45.1653 48.3663 44.3112C48.5471 43.4613 48.3864 42.5923 47.9136 41.8641L45.7524 38.5685L40.2556 42.1214ZM45.1783 48.3131C43.6359 48.3131 42.1232 47.5668 41.2203 46.1966L38.2754 41.7057L46.1711 36.6027L49.1148 41.0917C49.7953 42.1393 50.0261 43.3862 49.7666 44.6046V44.605C49.5058 45.8281 48.7862 46.8781 47.7398 47.5606C46.9483 48.07 46.0585 48.3131 45.1783 48.3131Z" fill="#2866DC"/>
<path fill-rule="evenodd" clip-rule="evenodd" d="M35.3358 34.624L39.4744 40.9305L44.9712 37.378L40.8326 31.0716L35.3358 34.624ZM39.0563 42.8966L33.355 34.209L41.2507 29.1057L46.952 37.7931L39.0563 42.8966Z" fill="#2866DC"/>
<path fill-rule="evenodd" clip-rule="evenodd" d="M34.6372 30.5667L35.9341 32.5453L38.6668 30.7786L37.3828 28.8195C37.0042 29.122 36.5897 29.4183 36.13 29.7154C35.6302 30.0383 35.1366 30.32 34.6372 30.5667ZM35.5154 34.5112L32.5181 29.9396L33.3075 29.6094C33.9976 29.3215 34.6655 28.9666 35.3492 28.5248C36.013 28.0955 36.569 27.6721 37.0487 27.2299L37.6716 26.6558L40.6468 31.1943L35.5154 34.5112Z" fill="#2866DC"/>
<path fill-rule="evenodd" clip-rule="evenodd" d="M15.9235 9.99747C12.7325 15.2111 13.5324 22.129 17.8888 26.5869C21.844 30.6364 28.0038 31.8667 33.2171 29.6482C33.2752 29.6231 33.3153 29.6066 33.3548 29.5932C33.9715 29.3326 34.7296 28.9254 35.3459 28.5237L35.5306 28.4069C36.1129 28.0223 36.6103 27.6365 37.0461 27.2318C37.1201 27.1638 37.1743 27.1138 37.2287 27.0602C39.7294 24.7482 41.2652 21.632 41.5713 18.2668C41.6773 17.1224 41.6406 15.9771 41.4629 14.8616C40.7971 10.774 38.4759 7.36644 34.9264 5.26567C31.4314 3.1968 27.1479 2.72232 23.4675 3.9949L23.34 4.03455C21.9128 4.50225 20.3269 5.36591 19.1767 6.3049L18.9746 6.46631C18.8102 6.60301 18.6506 6.74031 18.496 6.88L18.1762 7.16935C17.8246 7.53642 17.237 8.18386 17.0437 8.40406L16.9996 8.45966C16.8454 8.64997 16.6957 8.84486 16.5554 9.04473L16.3576 9.32611C16.3173 9.3847 16.2783 9.44269 16.2402 9.50067V9.50207L16.1669 9.61446C16.1575 9.62901 16.1483 9.64395 16.1392 9.6589L15.9235 9.99747ZM27.8293 32.1553C23.7726 32.1553 19.7749 30.5591 16.8617 27.5763C12.0058 22.6072 11.1577 14.8646 14.809 9.08499L14.9732 8.81457L15.1386 8.57942C15.1747 8.52622 15.2113 8.47341 15.2478 8.4206L15.4248 8.18366L15.6015 7.93019C15.6428 7.87558 15.6846 7.82138 15.7267 7.76738V7.76678L15.8815 7.5679C16.6792 6.56993 17.1905 6.07274 17.5367 5.8352L17.5317 5.83002C17.7656 5.61819 18.01 5.41214 18.2642 5.20569L18.4705 5.04548C19.7608 4.04013 21.4764 3.13163 23.0102 2.647L23.0652 2.62986C27.1244 1.24928 31.8265 1.77676 35.6592 4.04511C39.5789 6.36508 42.1418 10.1264 42.8759 14.6366L42.8765 14.639C43.0728 15.8709 43.1133 17.1347 42.9967 18.3957C42.6587 22.1088 40.9631 25.5493 38.2221 28.0825C38.1738 28.1311 38.1071 28.1927 38.0355 28.2585C37.4823 28.7724 36.8634 29.2451 36.1323 29.714L35.9499 29.8278C35.2808 30.249 34.5157 30.6512 33.8653 30.9216L33.7242 30.9768C31.8259 31.7709 29.82 32.1553 27.8293 32.1553Z" fill="#2866DC"/>
<path fill-rule="evenodd" clip-rule="evenodd" d="M45.0914 41.9755C44.4392 41.8386 43.7987 42.2529 43.6606 42.9005C43.5229 43.548 43.94 44.1839 44.5921 44.321C45.2445 44.4577 45.885 44.0436 46.0229 43.3961C46.1608 42.7485 45.7437 42.1124 45.0914 41.9755Z" fill="#2866DC"/>
<path fill-rule="evenodd" clip-rule="evenodd" d="M27.7764 7.5462C22.5199 7.5462 18.2437 11.7916 18.2437 17.0096C18.2437 22.2276 22.5199 26.473 27.7764 26.473C33.0325 26.473 37.3086 22.2276 37.3086 17.0096C37.3086 11.7916 33.0325 7.5462 27.7764 7.5462ZM27.7764 27.8936C21.731 27.8936 16.8125 23.0112 16.8125 17.0096C16.8125 11.008 21.731 6.12537 27.7764 6.12537C33.8218 6.12537 38.7398 11.008 38.7398 17.0096C38.7398 23.0112 33.8218 27.8936 27.7764 27.8936Z" fill="#2866DC"/>
<path fill-rule="evenodd" clip-rule="evenodd" d="M4.01037 25.8754C4.08564 25.9902 4.12559 26.1164 4.1298 26.2437C4.13683 26.4677 4.03064 26.6903 3.82991 26.8288C3.51316 27.0424 3.0846 26.9589 2.86922 26.6498C2.79375 26.535 2.7538 26.4087 2.74979 26.2814C2.74276 26.0574 2.84834 25.8298 3.05449 25.6961C3.1651 25.6214 3.29216 25.5817 3.41541 25.5779C3.64625 25.5708 3.87026 25.676 4.01037 25.8754ZM3.17754 24.2247C3.20022 24.2902 3.21267 24.356 3.21508 24.4271C3.22431 24.7173 3.04305 24.9933 2.74838 25.0943C2.38787 25.2174 1.99685 25.0257 1.87219 24.6678C1.84951 24.6023 1.83727 24.5313 1.83506 24.4654C1.82583 24.175 2.00729 23.8992 2.30176 23.7982C2.3676 23.7759 2.43404 23.7635 2.50068 23.7615C2.79816 23.7522 3.07617 23.9321 3.17754 24.2247ZM2.80679 22.4067C2.80719 22.417 2.80719 22.4218 2.8074 22.427C2.82466 22.7986 2.54183 23.1129 2.16807 23.14C1.78387 23.1621 1.45648 22.8768 1.42918 22.5003H1.434C1.42898 22.4953 1.42878 22.4902 1.42858 22.4852C1.41674 22.1135 1.69957 21.7989 2.07333 21.772C2.08376 21.7718 2.08898 21.7716 2.09902 21.7712C2.46294 21.76 2.7801 22.0404 2.80679 22.4067ZM2.38446 19.7545C2.70502 19.8209 2.92904 20.0941 2.93887 20.4045C2.94068 20.4556 2.93667 20.5068 2.92322 20.558C2.85276 20.9322 2.49104 21.1727 2.11367 21.0978C1.79331 21.0368 1.56929 20.7634 1.55926 20.4476C1.55745 20.397 1.56106 20.3458 1.57491 20.2943C1.63654 19.9763 1.91234 19.7537 2.22969 19.7437C2.27626 19.7425 2.33267 19.7457 2.38446 19.7545ZM3.21327 17.8887C3.44813 18.0039 3.58382 18.2338 3.59626 18.4781C3.59988 18.5899 3.578 18.7029 3.5246 18.8066C3.35579 19.1431 2.93907 19.2836 2.60044 19.1156C2.36579 19.0008 2.22508 18.7705 2.21745 18.5314C2.21404 18.4192 2.23592 18.3066 2.28871 18.198C2.40453 17.965 2.63637 17.8253 2.88769 17.8173C2.99528 17.8142 3.10889 17.8359 3.21327 17.8887ZM4.50336 16.3045C4.6511 16.4322 4.72858 16.6133 4.73922 16.7913C4.74464 16.9645 4.68844 17.1346 4.56458 17.2707C4.31167 17.5539 3.87648 17.5826 3.59125 17.3317C3.44331 17.2036 3.36603 17.0226 3.36041 16.8445C3.35479 16.6713 3.41079 16.5015 3.52962 16.3652C3.66371 16.2184 3.84597 16.1414 4.02563 16.1359C4.19504 16.1307 4.37128 16.1861 4.50336 16.3045ZM6.16942 15.1058C6.23988 15.2156 6.27942 15.3368 6.28323 15.4589C6.29046 15.6881 6.18026 15.921 5.97371 16.0548C5.65696 16.2632 5.2282 16.1799 5.01823 15.8603C4.94758 15.7552 4.90823 15.6343 4.90442 15.5119C4.89719 15.2832 5.00258 15.0504 5.21395 14.9163C5.32435 14.8416 5.44659 14.8073 5.56984 14.8033C5.80068 14.7963 6.02971 14.9012 6.16942 15.1058ZM8.08719 14.3834C8.10968 14.444 8.12212 14.5098 8.12413 14.5708C8.13356 14.8663 7.94729 15.1473 7.65281 15.2483C7.28648 15.3667 6.90088 15.1746 6.78185 14.8115C6.75917 14.7511 6.74692 14.6901 6.74471 14.624C6.73046 14.329 6.91654 14.0477 7.21623 13.947C7.28207 13.9245 7.34851 13.9171 7.41013 13.9151C7.70761 13.9062 7.99044 14.0859 8.08719 14.3834ZM10.1342 14.182C10.1511 14.5588 9.86406 14.8838 9.47986 14.9057C9.10028 14.9227 8.77791 14.6371 8.75603 14.2555C8.73334 13.8793 9.02601 13.5592 9.40539 13.5373C9.41041 13.5371 9.42104 13.5369 9.42586 13.5367C9.795 13.5252 10.1124 13.8107 10.1342 14.182Z" fill="#2866DC"/>
<path fill-rule="evenodd" clip-rule="evenodd" d="M46.0221 21.7928C45.8955 21.7928 45.7672 21.7617 45.6488 21.6964L44.6485 21.143C44.2774 20.9377 44.1441 20.4726 44.3507 20.1042C44.5574 19.7357 45.0255 19.603 45.3973 19.8082L46.3973 20.3612C46.7686 20.5669 46.9019 21.032 46.6954 21.4003C46.5543 21.6511 46.2925 21.7928 46.0221 21.7928ZM51.225 24.67C51.0982 24.67 50.9697 24.6389 50.8515 24.5733L48.1495 23.0793C47.7781 22.8739 47.6448 22.4088 47.8514 22.0403C48.0585 21.6717 48.527 21.5395 48.898 21.7446L51.5998 23.2386C51.9712 23.4438 52.1044 23.9089 51.8979 24.2776C51.757 24.5285 51.4952 24.67 51.225 24.67Z" fill="#2866DC"/>
<path fill-rule="evenodd" clip-rule="evenodd" d="M48.5242 12.2887C48.2542 12.2887 47.9925 12.1472 47.8514 11.8963C47.6448 11.5278 47.7781 11.0627 48.1495 10.8573L50.8515 9.36311C51.2216 9.15845 51.6909 9.29018 51.8981 9.65903C52.1044 10.0275 51.9712 10.4926 51.5998 10.6981L48.898 12.1922C48.7794 12.2576 48.6513 12.2887 48.5242 12.2887ZM45.0237 14.2248C44.7533 14.2248 44.4914 14.0833 44.3507 13.8325C44.1441 13.4638 44.2774 12.9987 44.6485 12.7934L45.6488 12.2404C46.0203 12.0352 46.4884 12.1681 46.6954 12.5362C46.9019 12.9048 46.7686 13.3699 46.3973 13.5752L45.3973 14.1282C45.2786 14.1939 45.1502 14.2248 45.0237 14.2248Z" fill="#2866DC"/>
<path fill-rule="evenodd" clip-rule="evenodd" d="M47.22 17.5293H46.0753C45.6503 17.5293 45.3057 17.1869 45.3057 16.7652C45.3057 16.3434 45.6503 16.0012 46.0753 16.0012H47.22C47.645 16.0012 47.9896 16.3434 47.9896 16.7652C47.9896 17.1869 47.645 17.5293 47.22 17.5293ZM53.273 17.5293H50.0826C49.6577 17.5293 49.313 17.1869 49.313 16.7652C49.313 16.3434 49.6577 16.0012 50.0826 16.0012H53.273C53.698 16.0012 54.0426 16.3434 54.0426 16.7652C54.0426 17.1869 53.698 17.5293 53.273 17.5293Z" fill="#2866DC"/>
<path fill-rule="evenodd" clip-rule="evenodd" d="M38.4971 46.9674H39.5459V45.4213H38.4971V46.9674ZM38.4971 50.0309H39.5459V48.4847H38.4971V50.0309ZM35.9216 50.0309H36.9704V48.4847H35.9216V50.0309ZM35.9216 43.8749H36.9704V42.3285H35.9216V43.8749ZM35.9216 46.9381H36.9704V45.392H35.9216V46.9381ZM33.2739 50.0309H34.3227V48.4847H33.2739V50.0309ZM33.2739 46.9381H34.3227V45.392H33.2739V46.9381ZM33.2739 43.8454H34.3227V42.2988H33.2739V43.8454ZM33.2739 40.7526H34.3227V39.2061H33.2739V40.7526Z" fill="#2866DC"/>
<path fill-rule="evenodd" clip-rule="evenodd" d="M17.4775 47.4907H16.3325C15.9371 47.4907 15.6167 47.1725 15.6167 46.7803C15.6167 46.3879 15.9371 46.0697 16.3325 46.0697H17.4775C17.8727 46.0697 18.1929 46.3879 18.1929 46.7803C18.1929 47.1725 17.8727 47.4907 17.4775 47.4907ZM26.9387 47.4907H20.3399C19.9446 47.4907 19.6241 47.1725 19.6241 46.7803C19.6241 46.3879 19.9446 46.0697 20.3399 46.0697H26.9387C27.3341 46.0697 27.6543 46.3879 27.6543 46.7803C27.6543 47.1725 27.3341 47.4907 26.9387 47.4907Z" fill="white"/>
</g>
</svg>
