<svg width="50" height="54" viewBox="0 0 50 54" fill="none" xmlns="http://www.w3.org/2000/svg">
<path fill-rule="evenodd" clip-rule="evenodd" d="M30.2169 28.6221V32.423C30.2169 33.3179 28.0029 34.0458 25.2723 34.0458C22.5418 34.0458 20.3276 33.3179 20.3276 32.423V28.6221C20.3276 29.5167 22.5418 30.2447 25.2723 30.2447C28.0029 30.2447 30.2169 29.5167 30.2169 28.6221Z" fill="white"/>
<path fill-rule="evenodd" clip-rule="evenodd" d="M30.2169 21.0255V24.821C30.2169 25.7157 28.0029 26.4436 25.2723 26.4436C22.5418 26.4436 20.3276 25.7157 20.3276 24.821V21.0255C20.3276 21.9201 22.5418 22.6427 25.2723 22.6427C28.0029 22.6427 30.2169 21.9201 30.2169 21.0255Z" fill="white"/>
<path fill-rule="evenodd" clip-rule="evenodd" d="M25.2724 1.63818C22.6778 1.63818 20.0838 4.25295 18.1557 8.81172C16.1172 13.6312 14.9947 20.055 14.9947 26.8995C14.9947 33.7438 16.1172 40.1676 18.1557 44.9873C20.0838 49.5461 22.6778 52.1606 25.2724 52.1606C27.867 52.1606 30.4611 49.5461 32.3892 44.9873C34.4276 40.1676 35.5501 33.7438 35.5501 26.8995C35.5501 20.055 34.4276 13.6312 32.3892 8.81172C30.4611 4.25295 27.867 1.63818 25.2724 1.63818ZM25.2724 53.5973C18.7127 53.5973 13.5742 41.8702 13.5742 26.8995C13.5742 11.9286 18.7127 0.201538 25.2724 0.201538C31.8322 0.201538 36.9706 11.9286 36.9706 26.8995C36.9706 41.8702 31.8322 53.5973 25.2724 53.5973Z" fill="#2866DC"/>
<path fill-rule="evenodd" clip-rule="evenodd" d="M19.6081 35.5739C25.2545 39.3461 31.1724 41.9389 36.2716 42.8746C41.0951 43.76 44.6816 43.0116 46.1114 40.8216C47.5415 38.6318 46.814 35.0015 44.116 30.8614C41.2636 26.4848 36.5834 21.9971 30.9369 18.2248C25.2905 14.4527 19.3726 11.8599 14.2734 10.9241C9.45009 10.039 5.86344 10.7873 4.43356 12.9771C3.00368 15.1672 3.73097 18.7974 6.42898 22.9373C9.28137 27.3139 13.9616 31.8018 19.6081 35.5739ZM39.9905 44.6802C38.7756 44.6802 37.4473 44.5506 36.018 44.2883C30.7342 43.3187 24.6282 40.6495 18.8252 36.7728C13.0224 32.8959 8.1989 28.2632 5.24312 23.728C2.1728 19.0169 1.46444 14.9175 3.2485 12.1855C5.03236 9.45323 9.03774 8.50319 14.527 9.51045C19.8111 10.4802 25.9168 13.1492 31.7198 17.0261C37.5226 20.9028 42.3463 25.5356 45.3019 30.0708C48.3722 34.7819 49.0806 38.8812 47.2965 41.6135C45.977 43.6342 43.4419 44.6802 39.9905 44.6802Z" fill="#2866DC"/>
<path fill-rule="evenodd" clip-rule="evenodd" d="M39.933 11.032C38.9551 11.032 37.8961 11.1156 36.7673 11.2855C31.6412 12.057 25.6447 14.4582 19.883 18.0472C14.121 21.6359 9.30192 25.9713 6.31347 30.254C3.48698 34.3052 2.64594 37.9103 4.0063 40.1451C5.36706 42.3798 8.92881 43.2428 13.7768 42.5132C18.9031 41.7417 24.8993 39.3405 30.6613 35.7515L31.0336 36.3632L30.6613 35.7515C36.4232 32.1627 41.2422 27.8274 44.2306 23.5447C47.0573 19.4935 47.8981 15.8884 46.5378 13.6536C45.494 11.9393 43.1549 11.032 39.933 11.032ZM10.624 44.219C6.95829 44.219 4.16068 43.138 2.79714 40.8982C-0.642303 35.2486 6.53539 24.6738 19.1382 16.8239C31.741 8.97395 44.3073 7.25059 47.7471 12.9004C51.1866 18.5503 44.0089 29.1248 31.4059 36.9748C23.7993 41.7129 16.2055 44.219 10.624 44.219Z" fill="#2866DC"/>
<path fill-rule="evenodd" clip-rule="evenodd" d="M25.2725 34.763C22.4579 34.763 19.6177 34.0394 19.6177 32.4227H21.0382C21.0382 32.3912 21.03 32.3687 21.027 32.3624C21.1725 32.6461 22.6005 33.3264 25.2725 33.3264C27.9446 33.3264 29.3727 32.6461 29.5181 32.3624C29.5151 32.3687 29.5069 32.3912 29.5069 32.4227H30.9274C30.9274 34.0394 28.0872 34.763 25.2725 34.763Z" fill="#2866DC"/>
<path fill-rule="evenodd" clip-rule="evenodd" d="M25.2725 30.9632C22.4579 30.9632 19.6177 30.2394 19.6177 28.6229H21.0382C21.0382 28.5912 21.03 28.5687 21.027 28.5626C21.1725 28.8463 22.6005 29.5266 25.2725 29.5266C27.9446 29.5266 29.3727 28.8463 29.5181 28.5626C29.5151 28.5687 29.5069 28.5912 29.5069 28.6229H30.9274C30.9274 30.2394 28.0872 30.9632 25.2725 30.9632Z" fill="#2866DC"/>
<path fill-rule="evenodd" clip-rule="evenodd" d="M25.2725 27.1633C22.4579 27.1633 19.6177 26.4398 19.6177 24.823H21.0382C21.0382 24.7916 21.03 24.769 21.027 24.7629C21.1725 25.0464 22.6005 25.7267 25.2725 25.7267C27.9446 25.7267 29.3727 25.0464 29.5181 24.7629C29.5151 24.769 29.5069 24.7916 29.5069 24.823H30.9274C30.9274 26.4398 28.0872 27.1633 25.2725 27.1633Z" fill="#2866DC"/>
<path fill-rule="evenodd" clip-rule="evenodd" d="M21.0713 21.0232C21.3619 21.332 22.7727 21.9268 25.2725 21.9268C27.7723 21.9268 29.183 21.332 29.4739 21.0232C29.183 20.7143 27.7723 20.1193 25.2725 20.1193C22.7727 20.1193 21.3619 20.7143 21.0713 21.0232ZM25.2725 23.3635C22.4579 23.3635 19.6177 22.6397 19.6177 21.0232C19.6177 19.4064 22.4579 18.6826 25.2725 18.6826C28.0872 18.6826 30.9274 19.4064 30.9274 21.0232C30.9274 22.6397 28.0872 23.3635 25.2725 23.3635Z" fill="#2866DC"/>
<path fill-rule="evenodd" clip-rule="evenodd" d="M19.6177 32.4227H21.0382V21.0231H19.6177V32.4227Z" fill="#2866DC"/>
<path fill-rule="evenodd" clip-rule="evenodd" d="M29.5068 32.4227H30.9274V21.0231H29.5068V32.4227Z" fill="#2866DC"/>
<path fill-rule="evenodd" clip-rule="evenodd" d="M44.2268 27.0383C44.2268 25.8106 43.2429 24.8154 42.0292 24.8154C40.8154 24.8154 39.8315 25.8106 39.8315 27.0383C39.8315 28.266 40.8154 29.2612 42.0292 29.2612C43.2429 29.2612 44.2268 28.266 44.2268 27.0383Z" fill="white"/>
<path fill-rule="evenodd" clip-rule="evenodd" d="M18.405 42.5982C18.405 41.3705 17.4211 40.3754 16.2074 40.3754C14.9936 40.3754 14.0098 41.3705 14.0098 42.5982C14.0098 43.8257 14.9936 44.8211 16.2074 44.8211C17.4211 44.8211 18.405 43.8257 18.405 42.5982Z" fill="white"/>
<path fill-rule="evenodd" clip-rule="evenodd" d="M35.9856 43.1539C35.9856 41.9262 35.0017 40.931 33.7879 40.931C32.5742 40.931 31.5903 41.9262 31.5903 43.1539C31.5903 44.3816 32.5742 45.3768 33.7879 45.3768C35.0017 45.3768 35.9856 44.3816 35.9856 43.1539Z" fill="white"/>
<path fill-rule="evenodd" clip-rule="evenodd" d="M18.9541 10.3669C18.9541 9.13921 17.9702 8.14404 16.7565 8.14404C15.5427 8.14404 14.5591 9.13921 14.5591 10.3669C14.5591 11.5946 15.5427 12.5898 16.7565 12.5898C17.9702 12.5898 18.9541 11.5946 18.9541 10.3669Z" fill="white"/>
<path fill-rule="evenodd" clip-rule="evenodd" d="M10.1638 27.0383C10.1638 25.8106 9.17991 24.8154 7.96616 24.8154C6.75242 24.8154 5.76855 25.8106 5.76855 27.0383C5.76855 28.266 6.75242 29.2612 7.96616 29.2612C9.17991 29.2612 10.1638 28.266 10.1638 27.0383Z" fill="white"/>
<path fill-rule="evenodd" clip-rule="evenodd" d="M35.9856 10.9226C35.9856 9.69488 35.0017 8.69971 33.7879 8.69971C32.5742 8.69971 31.5903 9.69488 31.5903 10.9226C31.5903 12.1503 32.5742 13.1454 33.7879 13.1454C35.0017 13.1454 35.9856 12.1503 35.9856 10.9226Z" fill="white"/>
<path fill-rule="evenodd" clip-rule="evenodd" d="M42.0289 25.5338C41.2087 25.5338 40.5416 26.2088 40.5416 27.0384C40.5416 27.8679 41.2087 28.5429 42.0289 28.5429C42.849 28.5429 43.5163 27.8679 43.5163 27.0384C43.5163 26.2088 42.849 25.5338 42.0289 25.5338ZM42.0289 29.9795C40.4255 29.9795 39.1211 28.6602 39.1211 27.0384C39.1211 25.4165 40.4255 24.0972 42.0289 24.0972C43.6322 24.0972 44.9368 25.4165 44.9368 27.0384C44.9368 28.6602 43.6322 29.9795 42.0289 29.9795Z" fill="#2866DC"/>
<path fill-rule="evenodd" clip-rule="evenodd" d="M16.2071 41.0936C15.387 41.0936 14.7198 41.7686 14.7198 42.5982C14.7198 43.4277 15.387 44.1027 16.2071 44.1027C17.0272 44.1027 17.6945 43.4277 17.6945 42.5982C17.6945 41.7686 17.0272 41.0936 16.2071 41.0936ZM16.2071 45.5394C14.6037 45.5394 13.2993 44.22 13.2993 42.5982C13.2993 40.9764 14.6037 39.657 16.2071 39.657C17.8105 39.657 19.1151 40.9764 19.1151 42.5982C19.1151 44.22 17.8105 45.5394 16.2071 45.5394Z" fill="#2866DC"/>
<path fill-rule="evenodd" clip-rule="evenodd" d="M33.7879 41.6494C32.9677 41.6494 32.3004 42.3244 32.3004 43.154C32.3004 43.9835 32.9677 44.6585 33.7879 44.6585C34.608 44.6585 35.2751 43.9835 35.2751 43.154C35.2751 42.3244 34.608 41.6494 33.7879 41.6494ZM33.7879 46.0949C32.1845 46.0949 30.8799 44.7758 30.8799 43.154C30.8799 41.5321 32.1845 40.2128 33.7879 40.2128C35.3912 40.2128 36.6956 41.5321 36.6956 43.154C36.6956 44.7758 35.3912 46.0949 33.7879 46.0949Z" fill="#2866DC"/>
<path fill-rule="evenodd" clip-rule="evenodd" d="M16.7564 8.86242C15.9363 8.86242 15.2692 9.53742 15.2692 10.367C15.2692 11.1965 15.9363 11.8715 16.7564 11.8715C17.5765 11.8715 18.2439 11.1965 18.2439 10.367C18.2439 9.53742 17.5765 8.86242 16.7564 8.86242ZM16.7564 13.308C15.153 13.308 13.8486 11.9888 13.8486 10.367C13.8486 8.74515 15.153 7.42578 16.7564 7.42578C18.3598 7.42578 19.6644 8.74515 19.6644 10.367C19.6644 11.9888 18.3598 13.308 16.7564 13.308Z" fill="#2866DC"/>
<path fill-rule="evenodd" clip-rule="evenodd" d="M7.96607 25.5338C7.14595 25.5338 6.47862 26.2088 6.47862 27.0384C6.47862 27.8679 7.14595 28.5429 7.96607 28.5429C8.78619 28.5429 9.45332 27.8679 9.45332 27.0384C9.45332 26.2088 8.78619 25.5338 7.96607 25.5338ZM7.96607 29.9795C6.36269 29.9795 5.05811 28.6602 5.05811 27.0384C5.05811 25.4165 6.36269 24.0972 7.96607 24.0972C9.56946 24.0972 10.8738 25.4165 10.8738 27.0384C10.8738 28.6602 9.56946 29.9795 7.96607 29.9795Z" fill="#2866DC"/>
<path fill-rule="evenodd" clip-rule="evenodd" d="M33.7879 9.41809C32.9677 9.41809 32.3004 10.0931 32.3004 10.9226C32.3004 11.7522 32.9677 12.4272 33.7879 12.4272C34.608 12.4272 35.2751 11.7522 35.2751 10.9226C35.2751 10.0931 34.608 9.41809 33.7879 9.41809ZM33.7879 13.8636C32.1845 13.8636 30.8799 12.5444 30.8799 10.9226C30.8799 9.30082 32.1845 7.98145 33.7879 7.98145C35.3912 7.98145 36.6956 9.30082 36.6956 10.9226C36.6956 12.5444 35.3912 13.8636 33.7879 13.8636Z" fill="#2866DC"/>
<path fill-rule="evenodd" clip-rule="evenodd" d="M14.2841 4.80982C14.2841 4.04254 13.6692 3.42053 12.9106 3.42053C12.152 3.42053 11.5371 4.04254 11.5371 4.80982C11.5371 5.57711 12.152 6.19911 12.9106 6.19911C13.6692 6.19911 14.2841 5.57711 14.2841 4.80982Z" fill="#2866DC"/>
<path fill-rule="evenodd" clip-rule="evenodd" d="M39.0073 4.80982C39.0073 4.04254 38.3923 3.42053 37.6338 3.42053C36.8752 3.42053 36.2603 4.04254 36.2603 4.80982C36.2603 5.57711 36.8752 6.19911 37.6338 6.19911C38.3923 6.19911 39.0073 5.57711 39.0073 4.80982Z" fill="#2866DC"/>
<path fill-rule="evenodd" clip-rule="evenodd" d="M14.2841 48.7111C14.2841 47.9438 13.6692 47.3218 12.9106 47.3218C12.152 47.3218 11.5371 47.9438 11.5371 48.7111C11.5371 49.4784 12.152 50.1004 12.9106 50.1004C13.6692 50.1004 14.2841 49.4784 14.2841 48.7111Z" fill="#2866DC"/>
<path fill-rule="evenodd" clip-rule="evenodd" d="M39.0073 48.7111C39.0073 47.9438 38.3923 47.3218 37.6338 47.3218C36.8752 47.3218 36.2603 47.9438 36.2603 48.7111C36.2603 49.4784 36.8752 50.1004 37.6338 50.1004C38.3923 50.1004 39.0073 49.4784 39.0073 48.7111Z" fill="#2866DC"/>
<path fill-rule="evenodd" clip-rule="evenodd" d="M49.9951 27.0382C49.9951 26.2709 49.3801 25.6489 48.6216 25.6489C47.863 25.6489 47.248 26.2709 47.248 27.0382C47.248 27.8055 47.863 28.4275 48.6216 28.4275C49.3801 28.4275 49.9951 27.8055 49.9951 27.0382Z" fill="#2866DC"/>
<path fill-rule="evenodd" clip-rule="evenodd" d="M2.74701 27.0382C2.74701 26.2709 2.13207 25.6489 1.37351 25.6489C0.61494 25.6489 0 26.2709 0 27.0382C0 27.8055 0.61494 28.4275 1.37351 28.4275C2.13207 28.4275 2.74701 27.8055 2.74701 27.0382Z" fill="#2866DC"/>
</svg>
