<svg width="55" height="55" viewBox="0 0 55 55" fill="none" xmlns="http://www.w3.org/2000/svg">
<path fill-rule="evenodd" clip-rule="evenodd" d="M35.6125 47.0848C35.3541 47.6106 35.028 48.115 34.6558 48.5666L33.8033 47.8649C34.1217 47.4783 34.4005 47.0459 34.6215 46.5973L35.6125 47.0848ZM32.7176 48.9121L33.3864 49.7905C32.9181 50.1472 32.4068 50.4493 31.8671 50.6888L31.4192 49.6793C31.8807 49.4745 32.3175 49.2164 32.7176 48.9121ZM29.9786 50.1267L30.1821 51.2119C29.603 51.3209 29.0113 51.3626 28.4235 51.3359L28.4733 50.2327C28.9759 50.2554 29.4826 50.2196 29.9786 50.1267ZM26.9857 49.9904L26.6828 51.0525C26.1163 50.8907 25.5688 50.6625 25.0539 50.3738L25.5942 49.4105C26.034 49.6572 26.5024 49.8525 26.9857 49.9904ZM23.3848 47.3853C23.6668 47.8011 23.999 48.1848 24.3716 48.5259L23.6261 49.3405C23.1899 48.9414 22.8015 48.4926 22.4711 48.0056L23.3848 47.3853ZM22.3183 44.5844C22.3852 45.0848 22.5096 45.5772 22.6883 46.0475L21.6565 46.4401C21.4472 45.8901 21.3014 45.315 21.2236 44.7303L22.3183 44.5844ZM22.615 41.6037C22.4512 42.079 22.3426 42.5742 22.293 43.0763L21.1938 42.9671C21.2523 42.3799 21.3791 41.7998 21.5712 41.2434L22.615 41.6037Z" fill="#2866DC"/>
<path fill-rule="evenodd" clip-rule="evenodd" d="M19.9973 34.9976V39.0876H11.1555C10.025 39.0876 9.00127 38.6292 8.26519 37.8877C7.5239 37.1466 7.06543 36.1281 7.06543 34.9976H19.9973Z" fill="white"/>
<path fill-rule="evenodd" clip-rule="evenodd" d="M50.1905 34.9976C50.1905 37.2532 48.3614 39.0876 46.1002 39.0876H19.9971V34.9976H50.1905Z" fill="white"/>
<path fill-rule="evenodd" clip-rule="evenodd" d="M47.2134 9.08438V34.995H10.2197V26.3849C10.9239 26.4535 11.6566 26.3219 12.3322 25.9728C12.3378 25.9668 12.3493 25.9668 12.3551 25.9611C14.25 24.9822 15.0001 22.6409 14.0266 20.7402C13.6432 19.9902 13.0476 19.4178 12.3551 19.0629C11.7023 18.7192 10.9638 18.5646 10.2197 18.6335V9.08438C10.2197 7.20093 11.7481 5.66675 13.6374 5.66675H43.7958C45.6849 5.66675 47.2134 7.20093 47.2134 9.08438Z" fill="white"/>
<path fill-rule="evenodd" clip-rule="evenodd" d="M10.9356 34.2795H46.4983V9.08432C46.4983 7.59451 45.2859 6.3823 43.7961 6.3823H13.6376C12.1476 6.3823 10.9356 7.59451 10.9356 9.08432V17.9166C11.543 17.9668 12.1382 18.1399 12.6886 18.4297C13.5375 18.8643 14.2232 19.552 14.664 20.4147C15.7987 22.6298 14.9546 25.3529 12.7861 26.5426L12.7426 26.586L12.6245 26.6271C12.0916 26.8969 11.5187 27.0575 10.9356 27.1042V34.2795ZM47.9295 35.7107H9.50439V25.5964L10.2892 25.6726C10.8449 25.7272 11.4049 25.6257 11.9168 25.3804L11.9539 25.3447L12.0599 25.3083C13.5812 24.4998 14.1782 22.6055 13.3899 21.0665C13.0866 20.4729 12.6161 20.0004 12.0292 19.6999C11.4822 19.4123 10.8804 19.2914 10.286 19.346L9.50439 19.4181V9.08432C9.50439 6.80544 11.3585 4.95129 13.6376 4.95129H43.7961C46.0754 4.95129 47.9295 6.80544 47.9295 9.08432V35.7107Z" fill="#2866DC"/>
<path fill-rule="evenodd" clip-rule="evenodd" d="M7.85689 35.7133C7.99218 36.3399 8.30512 36.916 8.77101 37.3815C9.40572 38.0211 10.252 38.3721 11.1553 38.3721H19.2812V35.7133H7.85689ZM20.7124 39.8033H11.1553C9.8676 39.8033 8.66081 39.3021 7.75713 38.392C6.85023 37.4851 6.34961 36.2791 6.34961 34.9977V34.2819H20.7124V39.8033Z" fill="#2866DC"/>
<path fill-rule="evenodd" clip-rule="evenodd" d="M20.7125 38.3721H46.1004C47.7154 38.3721 49.0696 37.2312 49.3984 35.7133H20.7125V38.3721ZM46.1004 39.8033H19.2812V34.2819H50.9058V34.9975C50.9058 37.6475 48.7502 39.8033 46.1004 39.8033Z" fill="#2866DC"/>
<path fill-rule="evenodd" clip-rule="evenodd" d="M11.9609 36.4655C11.6421 36.4655 11.3838 36.7238 11.3838 37.0426C11.3838 37.3613 11.6421 37.6197 11.9609 37.6197C12.2796 37.6197 12.538 37.3613 12.538 37.0426C12.538 36.7238 12.2796 36.4655 11.9609 36.4655Z" fill="#2866DC"/>
<path fill-rule="evenodd" clip-rule="evenodd" d="M13.8906 36.4655C13.5718 36.4655 13.3135 36.7238 13.3135 37.0426C13.3135 37.3613 13.5718 37.6197 13.8906 37.6197C14.2093 37.6197 14.4677 37.3613 14.4677 37.0426C14.4677 36.7238 14.2093 36.4655 13.8906 36.4655Z" fill="#2866DC"/>
<path fill-rule="evenodd" clip-rule="evenodd" d="M15.8203 36.4655C15.5015 36.4655 15.2432 36.7238 15.2432 37.0426C15.2432 37.3613 15.5015 37.6197 15.8203 37.6197C16.139 37.6197 16.3974 37.3613 16.3974 37.0426C16.3974 36.7238 16.139 36.4655 15.8203 36.4655Z" fill="#2866DC"/>
<path fill-rule="evenodd" clip-rule="evenodd" d="M32.5873 17.6237C30.6801 19.5611 27.5704 19.5914 25.627 17.6845C23.6893 15.7711 23.665 12.6614 25.5722 10.718C27.4795 8.79236 30.589 8.76225 32.5327 10.6692C34.4643 12.5703 34.4884 15.68 32.5873 17.6237ZM39.6935 15.4128C39.7967 14.526 39.7845 13.6332 39.6753 12.7586L37.4219 11.9872C37.2155 11.1855 36.8935 10.4203 36.4561 9.69745L37.4586 7.53519C37.1912 7.20117 36.8935 6.86716 36.5716 6.55121C36.2498 6.24148 35.9216 5.9438 35.5693 5.68285L33.4255 6.72143C32.6967 6.29608 31.9253 5.99258 31.1296 5.79807L30.3158 3.55692C29.435 3.45977 28.5424 3.46599 27.6676 3.58121L26.8841 5.8346C26.0945 6.04115 25.317 6.3569 24.6004 6.80031L22.4444 5.79807C22.0979 6.07146 21.7762 6.36915 21.4602 6.68489C21.1445 7.00064 20.853 7.33486 20.5917 7.68112L21.6304 9.83114C21.2053 10.5538 20.8895 11.3312 20.7011 12.1269L18.4659 12.9408C18.369 13.8214 18.369 14.7083 18.4902 15.5889L20.7376 16.3663C20.9502 17.162 21.2597 17.9334 21.7031 18.65L20.7011 20.806C20.9682 21.1525 21.2661 21.4805 21.5877 21.7902C21.9036 22.106 22.2439 22.3974 22.5899 22.6648L24.7279 21.626C25.4507 22.0514 26.2344 22.3611 27.0238 22.5554L27.8436 24.7845C28.7244 24.8939 29.6173 24.8877 30.4921 24.7723L31.2755 22.5191C32.071 22.3063 32.8362 21.9906 33.5468 21.5471L35.7153 22.5554C36.0553 22.2822 36.3833 21.9845 36.6992 21.6686C37.009 21.3468 37.3004 21.0068 37.5738 20.6605L36.5292 18.5225C36.9544 17.7997 37.2701 17.0223 37.4586 16.2266L39.6935 15.4128Z" fill="white"/>
<path fill-rule="evenodd" clip-rule="evenodd" d="M28.3606 24.1175C28.8928 24.1599 29.4289 24.1571 29.9639 24.1103L30.7236 21.9255L31.0904 21.8276C31.8511 21.624 32.5499 21.3256 33.1673 20.9398L33.4965 20.7348L35.6038 21.7148C35.8009 21.5424 35.998 21.3575 36.1925 21.1628C36.3675 20.9813 36.548 20.7796 36.7297 20.5636L35.717 18.4913L35.9119 18.1599C36.3043 17.4926 36.59 16.7869 36.7616 16.062L36.8503 15.6863L39.023 14.8954C39.0605 14.3681 39.0565 13.8299 39.0108 13.2877L36.8248 12.5392L36.7287 12.1657C36.5394 11.4316 36.2417 10.7256 35.8436 10.0678L35.6463 9.74204L36.6183 7.64542C36.4402 7.44007 36.2567 7.24516 36.0701 7.06209C35.9055 6.90332 35.7007 6.71102 35.4769 6.52253L33.3941 7.5312L33.0647 7.3395C32.4146 6.96053 31.7064 6.67569 30.9597 6.49323L30.5877 6.4025L29.7983 4.22879C29.2595 4.19246 28.7237 4.19708 28.1948 4.24304L27.4343 6.4302L27.0649 6.52675C26.3031 6.72607 25.6004 7.02275 24.9767 7.40896L24.6483 7.61189L22.5529 6.63795C22.3676 6.80034 22.1753 6.9814 21.9662 7.19076C21.7775 7.37925 21.5986 7.57456 21.4312 7.77449L22.4407 9.86428L22.247 10.1939C21.8546 10.8607 21.5687 11.5667 21.3973 12.2915L21.3086 12.6671L19.1375 13.4578C19.0989 14.0043 19.1034 14.5405 19.1499 15.06L21.3305 15.8141L21.4284 16.1815C21.6362 16.9585 21.9333 17.6624 22.3114 18.2735L22.5144 18.6017L21.539 20.7009C21.7076 20.896 21.8901 21.0879 22.0836 21.2748C22.2701 21.4611 22.4702 21.6435 22.6844 21.823L24.7597 20.8149L25.0903 21.0092C25.7367 21.3892 26.4447 21.6758 27.1946 21.8607L27.5639 21.9518L28.3606 24.1175ZM29.1162 25.5786C28.6605 25.5786 28.2063 25.5505 27.7552 25.4949L27.3225 25.4411L26.48 23.1508C25.8593 22.9709 25.2648 22.7305 24.7043 22.433L22.5035 23.5021L22.1525 23.2311C21.7574 22.9266 21.3973 22.612 21.0816 22.2961C20.7379 21.9657 20.4163 21.6084 20.1345 21.2439L19.8683 20.8994L20.8961 18.688C20.596 18.1464 20.3467 17.5549 20.152 16.9211L17.8412 16.1216L17.7812 15.6867C17.6561 14.7824 17.6473 13.8323 17.7543 12.8622L17.8032 12.4206L20.1032 11.5829C20.2766 10.9735 20.5181 10.3786 20.8236 9.80627L19.7571 7.59925L20.0201 7.25038C20.2997 6.87943 20.6139 6.51912 20.9541 6.17888C21.3317 5.80091 21.6645 5.50162 22.0009 5.23646L22.3464 4.96366L24.5616 5.99321C25.1108 5.6881 25.7032 5.43859 26.3304 5.2475L27.1362 2.92967L27.5738 2.87166C28.4979 2.74981 29.4468 2.74158 30.3938 2.84556L30.836 2.89454L31.6745 5.20293C32.2921 5.38058 32.8863 5.61925 33.4475 5.91532L35.6471 4.84985L35.9952 5.10779C36.4129 5.41751 36.7879 5.76618 37.0675 6.03576C37.3995 6.36115 37.7173 6.71403 38.0167 7.08819L38.2933 7.43405L37.2612 9.66135C37.5727 10.2268 37.8228 10.8198 38.0089 11.4316L40.3296 12.2263L40.385 12.6699C40.5046 13.6258 40.5106 14.5764 40.404 15.4954L40.3528 15.9342L38.0557 16.7708C37.8823 17.3796 37.6412 17.9738 37.3365 18.5451L38.4136 20.7505L38.1352 21.1036C37.8313 21.4892 37.5211 21.8465 37.214 22.1652C36.8629 22.5169 36.5123 22.8326 36.1632 23.1135L35.8163 23.3919L33.586 22.3549C33.0425 22.6596 32.4539 22.9107 31.8292 23.1036L31.0227 25.4239L30.5851 25.4817C30.0967 25.5463 29.606 25.5786 29.1162 25.5786Z" fill="#2866DC"/>
<path fill-rule="evenodd" clip-rule="evenodd" d="M29.0768 9.97589C27.9892 9.97589 26.9023 10.3916 26.0805 11.2214C24.4586 12.874 24.4795 15.5459 26.1293 17.1757C27.7817 18.7966 30.45 18.7735 32.0759 17.1227C33.6966 15.465 33.6763 12.7992 32.0303 11.1795C31.212 10.3763 30.1441 9.97589 29.0768 9.97589ZM29.0756 19.8064C27.6486 19.8064 26.221 19.2703 25.1252 18.1954C22.9142 16.0116 22.8861 12.433 25.0614 10.217C27.2447 8.01155 30.8205 7.98666 33.0336 10.1588C35.241 12.3311 35.2701 15.904 33.0986 18.1239L33.097 18.1257C31.9952 19.2448 30.5355 19.8064 29.0756 19.8064Z" fill="#2866DC"/>
<path fill-rule="evenodd" clip-rule="evenodd" d="M12.3553 25.9612C12.3497 25.9668 12.3381 25.9668 12.3324 25.9728C11.657 26.3219 10.9241 26.4535 10.22 26.3847C8.92605 26.2759 7.71806 25.5206 7.08275 24.2839C6.10379 22.3661 6.86516 20.0246 8.78293 19.04C9.24661 18.8053 9.73318 18.6735 10.22 18.6335C10.9641 18.5647 11.7025 18.7192 12.3553 19.0629C13.0478 19.4176 13.6434 19.9902 14.0268 20.7402C15.0003 22.6409 14.2502 24.9822 12.3553 25.9612ZM17.3702 22.9498C17.4159 22.2916 17.3645 21.639 17.2214 20.9863L18.5095 19.6181C18.3951 19.2917 18.252 18.9713 18.0916 18.6506C17.9256 18.3414 17.7538 18.0379 17.5534 17.7519L15.6814 17.998C15.2462 17.4942 14.7426 17.0762 14.1872 16.727L14.1356 14.8435C13.5691 14.5744 12.9677 14.38 12.3553 14.2425C12.2865 14.2253 12.2122 14.2082 12.1433 14.1968L10.9871 15.6908C10.7352 15.6737 10.4777 15.6737 10.22 15.6908C9.82512 15.7025 9.42406 15.7597 9.03485 15.8512L7.66687 14.5573C7.34048 14.6775 7.0141 14.815 6.69915 14.9752C6.38421 15.1414 6.08672 15.313 5.80048 15.5077L6.04638 17.3798C5.54837 17.8264 5.11339 18.33 4.77556 18.8796L2.88629 18.9312C2.59443 19.5667 2.37683 20.2363 2.25098 20.9293L3.73939 22.074C3.69924 22.7208 3.74501 23.3794 3.89415 24.0261L2.60005 25.4001C2.72028 25.7265 2.85778 26.0471 3.01797 26.362C3.18417 26.6768 3.36162 26.9859 3.56174 27.2665L5.42813 27.0202C5.86331 27.524 6.37276 27.9476 6.92256 28.2969L6.97395 30.1805C7.60926 30.478 8.2791 30.6956 8.97182 30.8273L10.1226 29.3274C10.1569 29.3274 10.1854 29.3332 10.22 29.3274C10.8324 29.3617 11.4623 29.316 12.0691 29.1672L12.3553 29.4362L13.4487 30.4609C13.7693 30.3407 14.0956 30.209 14.4104 30.043C14.7253 29.8826 15.0286 29.6996 15.3207 29.5107L15.063 27.6385C15.5668 27.2035 16.002 26.6998 16.3398 26.1444L18.2231 26.0928C18.5209 25.4517 18.7385 24.7762 18.87 24.0891L17.3702 22.9498Z" fill="white"/>
<path fill-rule="evenodd" clip-rule="evenodd" d="M10.5667 19.3332C10.4732 19.3332 10.379 19.3374 10.2859 19.3459C9.86878 19.3804 9.47435 19.492 9.10661 19.6785C7.54774 20.4788 6.92427 22.3994 7.71997 23.9583C8.2234 24.9384 9.18088 25.5795 10.2797 25.6719C10.8421 25.7261 11.4046 25.6255 11.9166 25.3804L11.9538 25.3447L12.0595 25.3084C13.5807 24.4998 14.1781 22.6055 13.3896 21.0665C13.0865 20.473 12.6158 20.0005 12.029 19.7C11.568 19.4573 11.0691 19.3332 10.5667 19.3332ZM10.5818 27.1181C10.4381 27.1181 10.2943 27.1111 10.1506 27.0973C8.56584 26.9642 7.1774 26.0342 6.44634 24.6108C5.29154 22.3486 6.19362 19.5649 8.45625 18.4035C8.9936 18.1313 9.56608 17.9693 10.161 17.9205C11.027 17.8404 11.9032 18.0162 12.6884 18.4297C13.5373 18.8643 14.223 19.552 14.6638 20.4148C15.7983 22.6298 14.9545 25.3529 12.786 26.5426L12.7424 26.586L12.6244 26.6272C11.9841 26.9509 11.2859 27.1181 10.5818 27.1181ZM7.67701 29.7062C8.0036 29.8372 8.33942 29.9458 8.68066 30.0309L9.76982 28.612L10.2596 28.613C10.8343 28.6457 11.3861 28.5977 11.8988 28.4723L12.2759 28.3795L13.6078 29.6293C13.7633 29.564 13.9225 29.4914 14.0765 29.4103C14.23 29.332 14.3844 29.2467 14.5488 29.1485L14.3011 27.351L14.5954 27.0971C15.053 26.702 15.434 26.2564 15.7283 25.7724L15.9308 25.4396L17.747 25.3901C17.8783 25.0613 17.9869 24.7244 18.0728 24.382L16.6298 23.286L16.6565 22.9004C16.6966 22.3209 16.6512 21.7285 16.5222 21.1396L16.4415 20.7709L17.6784 19.4571C17.6127 19.3037 17.5375 19.1423 17.4518 18.9709C17.3751 18.8286 17.2906 18.6752 17.1978 18.5203L15.3921 18.7579L15.1395 18.4659C14.7706 18.0385 14.322 17.6571 13.8063 17.3328L13.4819 17.1294L13.4325 15.3176C13.1186 15.1926 12.7832 15.0848 12.4299 14.9961L11.3193 16.4305L10.9387 16.4048C10.7187 16.3905 10.4927 16.3905 10.2672 16.4048C9.90772 16.416 9.55685 16.4636 9.19875 16.5479L8.82298 16.6362L7.50539 15.3897C7.33597 15.4614 7.17619 15.5354 7.02384 15.6133C6.85904 15.6998 6.70889 15.7837 6.56938 15.8666L6.80524 17.6608L6.52402 17.9127C6.05993 18.3286 5.67694 18.78 5.38548 19.2543L5.18254 19.5845L3.36413 19.6339C3.23325 19.9647 3.12646 20.2997 3.04417 20.637L4.47677 21.7388L4.45349 22.1186C4.41615 22.7191 4.46272 23.3071 4.59139 23.8655L4.6773 24.2385L3.43278 25.5599C3.50303 25.7241 3.5769 25.8824 3.65559 26.0372C3.74612 26.2088 3.83163 26.3612 3.91413 26.4985L5.71749 26.2604L5.97 26.5527C6.33935 26.9806 6.78918 27.3644 7.30626 27.6928L7.62743 27.897L7.67701 29.7062ZM9.27121 31.6125L8.83823 31.5304C8.09031 31.3881 7.36066 31.1522 6.67035 30.8284L6.2707 30.6412L6.2173 28.6858C5.82708 28.411 5.47059 28.1075 5.15223 27.7783L3.22924 28.0323L2.97973 27.6826C2.78603 27.4114 2.59734 27.0981 2.38517 26.6958C2.21274 26.3572 2.0648 26.0173 1.92871 25.6472L1.77555 25.2319L3.11944 23.8049C3.04095 23.3522 3.00422 22.8878 3.01044 22.4164L1.46924 21.2307L1.54672 20.8016C1.68021 20.0669 1.91225 19.3372 2.23623 18.6325L2.4221 18.2278L4.38263 18.1746C4.64238 17.8027 4.94568 17.4462 5.28913 17.1093L5.0336 15.1641L5.39792 14.9164C5.68196 14.7229 5.98948 14.5404 6.36524 14.3423C6.69524 14.1745 7.03688 14.0265 7.41948 13.8858L7.83599 13.7325L9.25555 15.0751C9.57572 15.0177 9.89207 14.9846 10.1992 14.9756C10.3417 14.966 10.4912 14.9607 10.646 14.9625L11.8391 13.4205L12.2609 13.491C12.3482 13.5056 12.4427 13.5267 12.5301 13.549C13.2109 13.7008 13.8605 13.9206 14.4428 14.1974L14.8389 14.3856L14.8922 16.3363C15.2821 16.6091 15.6388 16.9116 15.9571 17.24L17.8904 16.9857L18.1397 17.3416C18.3707 17.6714 18.5636 18.017 18.7218 18.3121C18.9223 18.7114 19.0704 19.0556 19.1849 19.3818L19.3284 19.7921L17.9933 21.2103C18.0722 21.676 18.1081 22.1431 18.1009 22.6063L19.6562 23.7878L19.5727 24.2238C19.4295 24.9711 19.1939 25.7014 18.8723 26.3943L18.6854 26.7962L16.7345 26.8492C16.472 27.2277 16.1671 27.584 15.8232 27.914L16.0916 29.8643L15.7092 30.1114C15.3469 30.3459 15.0372 30.5269 14.7353 30.6807C14.3784 30.8692 14.0108 31.0143 13.6993 31.1307L13.2832 31.2869L11.8514 29.9444C11.4058 30.0253 10.9417 30.0598 10.4682 30.0526L9.27121 31.6125Z" fill="#2866DC"/>
<mask id="mask0" mask-type="alpha" maskUnits="userSpaceOnUse" x="0" y="0" width="55" height="55">
<path fill-rule="evenodd" clip-rule="evenodd" d="M0 54.9582H54.9582V0H0V54.9582Z" fill="white"/>
</mask>
<g mask="url(#mask0)">
<path fill-rule="evenodd" clip-rule="evenodd" d="M27.3208 26.5901H51.7753V20.5082H27.3208V26.5901Z" fill="white"/>
<path fill-rule="evenodd" clip-rule="evenodd" d="M28.0364 25.8745H51.0597V21.2238H28.0364V25.8745ZM26.605 27.3057H52.4909V19.7926H26.605V27.3057Z" fill="#2866DC"/>
<path fill-rule="evenodd" clip-rule="evenodd" d="M29.3794 20.519H49.7169V18.4395H29.3794V20.519Z" fill="white"/>
<path fill-rule="evenodd" clip-rule="evenodd" d="M29.3794 36.8545H49.7169V34.7749H29.3794V36.8545Z" fill="white"/>
<path fill-rule="evenodd" clip-rule="evenodd" d="M29.3794 28.6937H49.7169V26.6141H29.3794V28.6937Z" fill="white"/>
<path fill-rule="evenodd" clip-rule="evenodd" d="M30.0953 19.8036H49.0016V19.1551H30.0953V19.8036ZM28.6641 21.2348H50.4328V17.7239H28.6641V21.2348Z" fill="#2866DC"/>
<path fill-rule="evenodd" clip-rule="evenodd" d="M50.9335 42.9362H28.1629C27.6978 42.9362 27.3208 42.5592 27.3208 42.0943V36.8542H51.7753V42.0943C51.7753 42.5592 51.3984 42.9362 50.9335 42.9362Z" fill="white"/>
<path fill-rule="evenodd" clip-rule="evenodd" d="M28.0364 37.5702V40.5352C28.0364 41.4646 28.7925 42.2207 29.7217 42.2207H49.3742C50.3036 42.2207 51.0597 41.4646 51.0597 40.5352V37.5702H28.0364ZM49.3742 43.6519H29.7217C28.0033 43.6519 26.605 42.2536 26.605 40.5352V36.1388H52.4909V40.5352C52.4909 42.2536 51.0926 43.6519 49.3742 43.6519Z" fill="#2866DC"/>
<path fill-rule="evenodd" clip-rule="evenodd" d="M30.0953 36.1388H49.0016V35.4907H30.0953V36.1388ZM28.6641 37.5702H50.4328V34.0594H28.6641V37.5702Z" fill="#2866DC"/>
<path fill-rule="evenodd" clip-rule="evenodd" d="M27.3208 34.7747H51.7753V28.6927H27.3208V34.7747Z" fill="white"/>
<path fill-rule="evenodd" clip-rule="evenodd" d="M30.8662 45.013H29.6791C29.5173 45.013 29.3862 44.882 29.3862 44.7202V42.9335H31.1591V44.7202C31.1591 44.882 31.028 45.013 30.8662 45.013Z" fill="#2866DC"/>
<path fill-rule="evenodd" clip-rule="evenodd" d="M49.417 45.013H48.2299C48.0681 45.013 47.937 44.882 47.937 44.7202V42.9335H49.7099V44.7202C49.7099 44.882 49.5788 45.013 49.417 45.013Z" fill="#2866DC"/>
<path fill-rule="evenodd" clip-rule="evenodd" d="M28.0364 34.0592H51.0597V29.4087H28.0364V34.0592ZM26.605 35.4904H52.4909V27.9773H26.605V35.4904Z" fill="#2866DC"/>
<path fill-rule="evenodd" clip-rule="evenodd" d="M30.0953 27.9783H49.0016V27.3298H30.0953V27.9783ZM28.6641 29.4095H50.4328V25.8986H28.6641V29.4095Z" fill="#2866DC"/>
<path fill-rule="evenodd" clip-rule="evenodd" d="M31.6422 23.549C31.6422 23.1201 31.2944 22.7722 30.8654 22.7722C30.4362 22.7722 30.0884 23.1201 30.0884 23.549C30.0884 23.9782 30.4362 24.3261 30.8654 24.3261C31.2944 24.3261 31.6422 23.9782 31.6422 23.549Z" fill="#2866DC"/>
<path fill-rule="evenodd" clip-rule="evenodd" d="M31.6422 31.7337C31.6422 31.3048 31.2944 30.9569 30.8654 30.9569C30.4362 30.9569 30.0884 31.3048 30.0884 31.7337C30.0884 32.1629 30.4362 32.5106 30.8654 32.5106C31.2944 32.5106 31.6422 32.1629 31.6422 31.7337Z" fill="#2866DC"/>
<path fill-rule="evenodd" clip-rule="evenodd" d="M31.6422 39.8952C31.6422 39.4663 31.2944 39.1184 30.8654 39.1184C30.4362 39.1184 30.0884 39.4663 30.0884 39.8952C30.0884 40.3244 30.4362 40.6723 30.8654 40.6723C31.2944 40.6723 31.6422 40.3244 31.6422 39.8952Z" fill="#2866DC"/>
<path fill-rule="evenodd" clip-rule="evenodd" d="M50.9335 12.3578H28.1629C27.6978 12.3578 27.3208 12.7346 27.3208 13.1996V18.4395H51.7753V13.1996C51.7753 12.7346 51.3984 12.3578 50.9335 12.3578Z" fill="white"/>
<path fill-rule="evenodd" clip-rule="evenodd" d="M31.6422 15.5754C31.6422 15.1462 31.2944 14.7986 30.8654 14.7986C30.4362 14.7986 30.0884 15.1462 30.0884 15.5754C30.0884 16.0046 30.4362 16.3522 30.8654 16.3522C31.2944 16.3522 31.6422 16.0046 31.6422 15.5754Z" fill="#2866DC"/>
<path fill-rule="evenodd" clip-rule="evenodd" d="M28.0364 17.7238H51.0597V14.7588C51.0597 13.8294 50.3036 13.0733 49.3742 13.0733H29.7217C28.7925 13.0733 28.0364 13.8294 28.0364 14.7588V17.7238ZM52.4909 19.155H26.605V14.7588C26.605 13.0404 28.0033 11.6421 29.7217 11.6421H49.3742C51.0926 11.6421 52.4909 13.0404 52.4909 14.7588V19.155Z" fill="#2866DC"/>
<path fill-rule="evenodd" clip-rule="evenodd" d="M38.0014 16.059H36.8564C36.461 16.059 36.1406 15.7386 36.1406 15.3436C36.1406 14.9482 36.461 14.6278 36.8564 14.6278H38.0014C38.3966 14.6278 38.7168 14.9482 38.7168 15.3436C38.7168 15.7386 38.3966 16.059 38.0014 16.059ZM47.3913 16.059H40.8638C40.4686 16.059 40.148 15.7386 40.148 15.3436C40.148 14.9482 40.4686 14.6278 40.8638 14.6278H47.3913C47.7866 14.6278 48.1069 14.9482 48.1069 15.3436C48.1069 15.7386 47.7866 16.059 47.3913 16.059Z" fill="white"/>
<path fill-rule="evenodd" clip-rule="evenodd" d="M10.3142 43.832C10.8436 43.832 11.2725 43.403 11.2725 42.8739C11.2725 42.3444 10.8436 41.9154 10.3142 41.9154C9.78492 41.9154 9.35596 42.3444 9.35596 42.8739C9.35596 43.403 9.78492 43.832 10.3142 43.832Z" fill="#2866DC"/>
<path fill-rule="evenodd" clip-rule="evenodd" d="M13.802 43.832C14.3314 43.832 14.7603 43.403 14.7603 42.8739C14.7603 42.3444 14.3314 41.9154 13.802 41.9154C13.2727 41.9154 12.8438 42.3444 12.8438 42.8739C12.8438 43.403 13.2727 43.832 13.802 43.832Z" fill="#2866DC"/>
<path fill-rule="evenodd" clip-rule="evenodd" d="M13.0864 51.0083H14.5176V45.2968H13.0864V51.0083Z" fill="#2866DC"/>
<path fill-rule="evenodd" clip-rule="evenodd" d="M17.3968 43.832C17.9261 43.832 18.355 43.403 18.355 42.8739C18.355 42.3444 17.9261 41.9154 17.3968 41.9154C16.8674 41.9154 16.4385 42.3444 16.4385 42.8739C16.4385 43.403 16.8674 43.832 17.3968 43.832Z" fill="#2866DC"/>
<path fill-rule="evenodd" clip-rule="evenodd" d="M16.6812 51.0083H18.1124V45.2968H16.6812V51.0083Z" fill="#2866DC"/>
<path fill-rule="evenodd" clip-rule="evenodd" d="M9.59863 51.0083H11.0298V45.2968H9.59863V51.0083Z" fill="#2866DC"/>
</g>
</svg>
