<svg width="55" height="55" viewBox="0 0 55 55" fill="none" xmlns="http://www.w3.org/2000/svg">
<path fill-rule="evenodd" clip-rule="evenodd" d="M46.1456 12.4742C44.8654 12.4742 43.8238 13.5158 43.8238 14.796C43.8238 16.0759 44.8654 17.1175 46.1456 17.1175C47.4259 17.1175 48.4673 16.0759 48.4673 14.796C48.4673 13.5158 47.4259 12.4742 46.1456 12.4742ZM46.1456 18.5489C44.0761 18.5489 42.3926 16.8653 42.3926 14.796C42.3926 12.7267 44.0761 11.043 46.1456 11.043C48.215 11.043 49.8985 12.7267 49.8985 14.796C49.8985 16.8653 48.215 18.5489 46.1456 18.5489Z" fill="#2866DC"/>
<path fill-rule="evenodd" clip-rule="evenodd" d="M46.1456 29.9369C44.8654 29.9369 43.8238 30.9783 43.8238 32.2584C43.8238 33.5386 44.8654 34.5802 46.1456 34.5802C47.4259 34.5802 48.4673 33.5386 48.4673 32.2584C48.4673 30.9783 47.4259 29.9369 46.1456 29.9369ZM46.1456 36.0114C44.0761 36.0114 42.3926 34.3277 42.3926 32.2584C42.3926 30.1891 44.0761 28.5057 46.1456 28.5057C48.215 28.5057 49.8985 30.1891 49.8985 32.2584C49.8985 34.3277 48.215 36.0114 46.1456 36.0114Z" fill="#2866DC"/>
<path fill-rule="evenodd" clip-rule="evenodd" d="M9.57414 12.4742C8.29388 12.4742 7.25249 13.5158 7.25249 14.796C7.25249 16.0759 8.29388 17.1175 9.57414 17.1175C10.8544 17.1175 11.896 16.0759 11.896 14.796C11.896 13.5158 10.8544 12.4742 9.57414 12.4742ZM9.57414 18.5489C7.50481 18.5489 5.82129 16.8653 5.82129 14.796C5.82129 12.7267 7.50481 11.043 9.57414 11.043C11.6437 11.043 13.3272 12.7267 13.3272 14.796C13.3272 16.8653 11.6437 18.5489 9.57414 18.5489Z" fill="#2866DC"/>
<path fill-rule="evenodd" clip-rule="evenodd" d="M9.57414 29.9369C8.29388 29.9369 7.25249 30.9783 7.25249 32.2584C7.25249 33.5386 8.29388 34.5802 9.57414 34.5802C10.8544 34.5802 11.896 33.5386 11.896 32.2584C11.896 30.9783 10.8544 29.9369 9.57414 29.9369ZM9.57414 36.0114C7.50481 36.0114 5.82129 34.3277 5.82129 32.2584C5.82129 30.1891 7.50481 28.5057 9.57414 28.5057C11.6437 28.5057 13.3272 30.1891 13.3272 32.2584C13.3272 34.3277 11.6437 36.0114 9.57414 36.0114Z" fill="#2866DC"/>
<path fill-rule="evenodd" clip-rule="evenodd" d="M35.1569 21.2054C33.8769 21.2054 32.8355 22.247 32.8355 23.5272C32.8355 24.8075 33.8769 25.8491 35.1569 25.8491C36.4372 25.8491 37.4786 24.8075 37.4786 23.5272C37.4786 22.247 36.4372 21.2054 35.1569 21.2054ZM35.1569 27.2803C33.0874 27.2803 31.4043 25.5965 31.4043 23.5272C31.4043 21.4579 33.0874 19.7742 35.1569 19.7742C37.2263 19.7742 38.9098 21.4579 38.9098 23.5272C38.9098 25.5965 37.2263 27.2803 35.1569 27.2803Z" fill="#2866DC"/>
<path fill-rule="evenodd" clip-rule="evenodd" d="M20.5624 21.2054C19.2822 21.2054 18.2408 22.247 18.2408 23.5272C18.2408 24.8075 19.2822 25.8491 20.5624 25.8491C21.8425 25.8491 22.8839 24.8075 22.8839 23.5272C22.8839 22.247 21.8425 21.2054 20.5624 21.2054ZM20.5624 27.2803C18.4931 27.2803 16.8096 25.5965 16.8096 23.5272C16.8096 21.4579 18.4931 19.7742 20.5624 19.7742C22.6319 19.7742 24.3151 21.4579 24.3151 23.5272C24.3151 25.5965 22.6319 27.2803 20.5624 27.2803Z" fill="#2866DC"/>
<path fill-rule="evenodd" clip-rule="evenodd" d="M27.8593 36.1305C26.579 36.1305 25.5376 37.1719 25.5376 38.4522C25.5376 39.7324 26.579 40.774 27.8593 40.774C29.1397 40.774 30.1811 39.7324 30.1811 38.4522C30.1811 37.1719 29.1397 36.1305 27.8593 36.1305ZM27.8593 42.2054C25.79 42.2054 24.1064 40.5217 24.1064 38.4522C24.1064 36.3829 25.79 34.6993 27.8593 34.6993C29.9288 34.6993 31.6123 36.3829 31.6123 38.4522C31.6123 40.5217 29.9288 42.2054 27.8593 42.2054Z" fill="#2866DC"/>
<path fill-rule="evenodd" clip-rule="evenodd" d="M27.8593 5.79095C26.579 5.79095 25.5376 6.83233 25.5376 8.11239C25.5376 9.39264 26.579 10.4342 27.8593 10.4342C29.1397 10.4342 30.1811 9.39264 30.1811 8.11239C30.1811 6.83233 29.1397 5.79095 27.8593 5.79095ZM27.8593 11.8654C25.79 11.8654 24.1064 10.1819 24.1064 8.11239C24.1064 6.04306 25.79 4.35974 27.8593 4.35974C29.9288 4.35974 31.6123 6.04306 31.6123 8.11239C31.6123 10.1819 29.9288 11.8654 27.8593 11.8654Z" fill="#2866DC"/>
<path fill-rule="evenodd" clip-rule="evenodd" d="M43.839 31.0106L37.0332 26.118L37.8684 24.9558L44.6742 29.8484L43.839 31.0106Z" fill="#2866DC"/>
<path fill-rule="evenodd" clip-rule="evenodd" d="M37.8831 22.1707L37.0176 21.0307L43.4955 16.1108L44.3609 17.2506L37.8831 22.1707Z" fill="#2866DC"/>
<path fill-rule="evenodd" clip-rule="evenodd" d="M11.7102 31.0106L10.875 29.8484L17.6809 24.9558L18.5162 26.118L11.7102 31.0106Z" fill="#2866DC"/>
<path fill-rule="evenodd" clip-rule="evenodd" d="M17.6653 22.1707L11.1875 17.2506L12.0528 16.1108L18.5308 21.0307L17.6653 22.1707Z" fill="#2866DC"/>
<mask id="mask0" mask-type="alpha" maskUnits="userSpaceOnUse" x="0" y="0" width="55" height="55">
<path fill-rule="evenodd" clip-rule="evenodd" d="M0 54.9582H54.9582V0H0V54.9582Z" fill="white"/>
</mask>
<g mask="url(#mask0)">
<path fill-rule="evenodd" clip-rule="evenodd" d="M45.4297 29.2213H46.8609V17.8333H45.4297V29.2213Z" fill="#2866DC"/>
<path fill-rule="evenodd" clip-rule="evenodd" d="M8.69434 29.2213H10.1255V17.8333H8.69434V29.2213Z" fill="#2866DC"/>
<path fill-rule="evenodd" clip-rule="evenodd" d="M43.1544 14.1406L30.6152 8.7701L31.1789 7.45471L43.7181 12.825L43.1544 14.1406Z" fill="#2866DC"/>
<path fill-rule="evenodd" clip-rule="evenodd" d="M12.6348 13.9789L12.083 12.6585L24.5467 7.45215L25.0985 8.77255L12.6348 13.9789Z" fill="#2866DC"/>
<path fill-rule="evenodd" clip-rule="evenodd" d="M21.9816 20.8167L20.7158 20.1481L25.8567 10.4153L27.1223 11.0839L21.9816 20.8167Z" fill="#2866DC"/>
<path fill-rule="evenodd" clip-rule="evenodd" d="M33.3461 21.1941L28.3652 11.2897L29.6437 10.6467L34.6246 20.5511L33.3461 21.1941Z" fill="#2866DC"/>
<path fill-rule="evenodd" clip-rule="evenodd" d="M23.5996 24.2427H32.1202V22.8115H23.5996V24.2427Z" fill="#2866DC"/>
<path fill-rule="evenodd" clip-rule="evenodd" d="M31.2028 38.8973L30.7002 37.5572L43.3279 32.8206L43.8305 34.1606L31.2028 38.8973Z" fill="#2866DC"/>
<path fill-rule="evenodd" clip-rule="evenodd" d="M24.6044 39.0282L12.0312 34.4363L12.5222 33.0918L25.0952 37.6837L24.6044 39.0282Z" fill="#2866DC"/>
<path fill-rule="evenodd" clip-rule="evenodd" d="M29.6329 35.9648L28.376 35.2805L33.4055 26.0419L34.6622 26.7264L29.6329 35.9648Z" fill="#2866DC"/>
<path fill-rule="evenodd" clip-rule="evenodd" d="M25.7373 36.1009L21.0908 26.5889L22.3765 25.9604L27.0232 35.4724L25.7373 36.1009Z" fill="#2866DC"/>
<path fill-rule="evenodd" clip-rule="evenodd" d="M26.7285 28.729C26.7285 29.3238 27.2105 29.8059 27.8052 29.8059C28.4 29.8059 28.8821 29.3238 28.8821 28.729C28.8821 28.1343 28.4 27.6521 27.8052 27.6521C27.2105 27.6521 26.7285 28.1343 26.7285 28.729Z" fill="#2866DC"/>
<path fill-rule="evenodd" clip-rule="evenodd" d="M26.7285 18.0812C26.7285 18.676 27.2105 19.1579 27.8052 19.1579C28.4 19.1579 28.8821 18.676 28.8821 18.0812C28.8821 17.4864 28.4 17.0043 27.8052 17.0043C27.2105 17.0043 26.7285 17.4864 26.7285 18.0812Z" fill="#2866DC"/>
<path fill-rule="evenodd" clip-rule="evenodd" d="M17.6953 31.2171C17.6953 31.8118 18.1775 32.2938 18.7722 32.2938C19.367 32.2938 19.8491 31.8118 19.8491 31.2171C19.8491 30.6223 19.367 30.1401 18.7722 30.1401C18.1775 30.1401 17.6953 30.6223 17.6953 31.2171Z" fill="#2866DC"/>
<path fill-rule="evenodd" clip-rule="evenodd" d="M12.1836 23.6C12.1836 24.1948 12.6655 24.6769 13.2603 24.6769C13.8553 24.6769 14.3372 24.1948 14.3372 23.6C14.3372 23.0052 13.8553 22.5231 13.2603 22.5231C12.6655 22.5231 12.1836 23.0052 12.1836 23.6Z" fill="#2866DC"/>
<path fill-rule="evenodd" clip-rule="evenodd" d="M41.3115 23.6C41.3115 24.1948 41.7935 24.6769 42.3884 24.6769C42.9832 24.6769 43.4652 24.1948 43.4652 23.6C43.4652 23.0052 42.9832 22.5231 42.3884 22.5231C41.7935 22.5231 41.3115 23.0052 41.3115 23.6Z" fill="#2866DC"/>
<path fill-rule="evenodd" clip-rule="evenodd" d="M35.8389 31.2171C35.8389 31.8118 36.3208 32.2938 36.9156 32.2938C37.5103 32.2938 37.9925 31.8118 37.9925 31.2171C37.9925 30.6223 37.5103 30.1401 36.9156 30.1401C36.3208 30.1401 35.8389 30.6223 35.8389 31.2171Z" fill="#2866DC"/>
<path fill-rule="evenodd" clip-rule="evenodd" d="M17.6953 15.6769C17.6953 16.2717 18.1775 16.7538 18.7722 16.7538C19.367 16.7538 19.8491 16.2717 19.8491 15.6769C19.8491 15.0821 19.367 14.6 18.7722 14.6C18.1775 14.6 17.6953 15.0821 17.6953 15.6769Z" fill="#2866DC"/>
<path fill-rule="evenodd" clip-rule="evenodd" d="M35.8389 15.6769C35.8389 16.2717 36.3208 16.7538 36.9156 16.7538C37.5103 16.7538 37.9925 16.2717 37.9925 15.6769C37.9925 15.0821 37.5103 14.6 36.9156 14.6C36.3208 14.6 35.8389 15.0821 35.8389 15.6769Z" fill="#2866DC"/>
<path fill-rule="evenodd" clip-rule="evenodd" d="M45.4297 49.8115H46.8609V35.2959H45.4297V49.8115Z" fill="#2866DC"/>
<path fill-rule="evenodd" clip-rule="evenodd" d="M36.6543 45.6078H38.0855V35.9937H36.6543V45.6078Z" fill="#2866DC"/>
<path fill-rule="evenodd" clip-rule="evenodd" d="M8.73926 49.8115H10.1705V35.2959H8.73926V49.8115Z" fill="#2866DC"/>
<path fill-rule="evenodd" clip-rule="evenodd" d="M17.3613 45.6078H18.7925V35.9937H17.3613V45.6078Z" fill="#2866DC"/>
<path fill-rule="evenodd" clip-rule="evenodd" d="M27.2129 49.8115H28.6441V41.5898H27.2129V49.8115Z" fill="#2866DC"/>
<path fill-rule="evenodd" clip-rule="evenodd" d="M11.1004 49.6358C11.1004 48.7269 10.3635 47.99 9.45458 47.99C8.54547 47.99 7.80859 48.7269 7.80859 49.6358C7.80859 50.5447 8.54547 51.2816 9.45458 51.2816C10.3635 51.2816 11.1004 50.5447 11.1004 49.6358Z" fill="#2866DC"/>
<path fill-rule="evenodd" clip-rule="evenodd" d="M19.7508 45.4319C19.7508 44.523 19.0139 43.7861 18.1048 43.7861C17.1957 43.7861 16.459 44.523 16.459 45.4319C16.459 46.3408 17.1957 47.0777 18.1048 47.0777C19.0139 47.0777 19.7508 46.3408 19.7508 45.4319Z" fill="#2866DC"/>
<path fill-rule="evenodd" clip-rule="evenodd" d="M29.6256 49.6358C29.6256 48.7269 28.8887 47.99 27.9798 47.99C27.0707 47.99 26.334 48.7269 26.334 49.6358C26.334 50.5447 27.0707 51.2816 27.9798 51.2816C28.8887 51.2816 29.6256 50.5447 29.6256 49.6358Z" fill="#2866DC"/>
<path fill-rule="evenodd" clip-rule="evenodd" d="M39.0027 45.4319C39.0027 44.523 38.2658 43.7861 37.3567 43.7861C36.4476 43.7861 35.7109 44.523 35.7109 45.4319C35.7109 46.3408 36.4476 47.0777 37.3567 47.0777C38.2658 47.0777 39.0027 46.3408 39.0027 45.4319Z" fill="#2866DC"/>
<path fill-rule="evenodd" clip-rule="evenodd" d="M47.8834 49.6358C47.8834 48.7269 47.1465 47.99 46.2376 47.99C45.3285 47.99 44.5918 48.7269 44.5918 49.6358C44.5918 50.5447 45.3285 51.2816 46.2376 51.2816C47.1465 51.2816 47.8834 50.5447 47.8834 49.6358Z" fill="#2866DC"/>
<path fill-rule="evenodd" clip-rule="evenodd" d="M52.6312 22.9116L49.1436 24.937L52.6312 26.9624V22.9116Z" fill="#2866DC"/>
<path fill-rule="evenodd" clip-rule="evenodd" d="M38.0518 4.11963L38.4526 8.13262L41.7396 5.79572L38.0518 4.11963Z" fill="#2866DC"/>
<path fill-rule="evenodd" clip-rule="evenodd" d="M14.2754 5.55379L18.0138 4.04028L17.4754 8.03742L14.2754 5.55379Z" fill="#2866DC"/>
<path fill-rule="evenodd" clip-rule="evenodd" d="M2.76172 22.9116L6.2494 24.937L2.76172 26.9624V22.9116Z" fill="#2866DC"/>
<path fill-rule="evenodd" clip-rule="evenodd" d="M11.2307 8.3326C10.7554 8.17683 10.2515 8.07345 9.75251 8.0303L9.84726 6.9303C10.4304 6.98048 11.0189 7.10012 11.5753 7.28318L11.2307 8.3326ZM6.78833 8.46468L6.37985 7.43875C6.92864 7.22035 7.50233 7.06639 8.08465 6.98128L8.24463 8.07366C7.74722 8.14652 7.25724 8.2782 6.78833 8.46468ZM13.783 9.89889C13.4251 9.5426 13.0264 9.22886 12.5983 8.9657L13.1764 8.02508C13.6772 8.3326 14.1435 8.69993 14.5618 9.11585L13.783 9.89889ZM4.3318 10.1827L3.50861 9.44665C3.90083 9.00785 4.34444 8.61422 4.8276 8.27659L5.4605 9.18148C5.047 9.47074 4.66742 9.80776 4.3318 10.1827ZM2.90521 12.8153L1.83913 12.5275C1.99289 11.9578 2.21289 11.4066 2.49372 10.8887L3.46465 11.4152C3.22477 11.8572 3.03669 12.3283 2.90521 12.8153ZM1.72452 16.0298C1.60769 15.4531 1.55851 14.8613 1.57859 14.2706L2.6822 14.3077C2.66514 14.8126 2.70709 15.3184 2.80665 15.8108L1.72452 16.0298ZM3.19226 19.2124C2.82913 18.7479 2.51981 18.2414 2.27311 17.7071L3.27576 17.2442C3.48673 17.7013 3.75129 18.1344 4.06222 18.5323L3.19226 19.2124ZM5.927 21.4033C5.39507 21.1512 4.89184 20.8363 4.43136 20.4671L5.12207 19.6054C5.5155 19.9209 5.94567 20.1899 6.39992 20.4055L5.927 21.4033Z" fill="#2866DC"/>
<path fill-rule="evenodd" clip-rule="evenodd" d="M44.0314 7.28326C44.5876 7.10019 45.1763 6.98036 45.7593 6.93018L45.8542 8.03038C45.3552 8.07353 44.8514 8.17671 44.3762 8.33268L44.0314 7.28326ZM47.3621 8.07373L47.5221 6.98116C48.1044 7.06647 48.6779 7.22043 49.2269 7.43862L48.8186 8.46476C48.3497 8.27808 47.8595 8.1466 47.3621 8.07373ZM41.0449 9.11592C41.4634 8.70001 41.9293 8.33268 42.4304 8.02496L43.0085 8.96578C42.5803 9.22873 42.1817 9.54268 41.824 9.89877L41.0449 9.11592ZM50.1462 9.18136L50.7791 8.27647C51.2621 8.6143 51.7059 9.00793 52.0981 9.44653L51.2749 10.1826C50.9393 9.80764 50.5595 9.47061 50.1462 9.18136ZM52.1423 11.4153L53.1132 10.8888C53.3938 11.4067 53.6138 11.9577 53.7676 12.5275L52.7013 12.8154C52.57 12.3284 52.3821 11.8571 52.1423 11.4153ZM52.8001 15.8107C52.8996 15.3183 52.9418 14.8126 52.9245 14.3076L54.0283 14.2707C54.0482 14.8614 53.999 15.453 53.8822 16.0297L52.8001 15.8107ZM51.5445 18.5322C51.8554 18.1345 52.1202 17.7011 52.3312 17.2443L53.3336 17.7072C53.0871 18.2415 52.7778 18.7477 52.4147 19.2124L51.5445 18.5322ZM49.2068 20.4054C49.6611 20.19 50.091 19.921 50.4846 19.6055L51.1756 20.4672C50.7149 20.8363 50.2117 21.1513 49.6797 21.4034L49.2068 20.4054Z" fill="#2866DC"/>
</g>
</svg>
