<svg width="32" height="32" viewBox="0 0 32 32" fill="none" xmlns="http://www.w3.org/2000/svg">
<path d="M15 14H17C17.6 14 18 13.6 18 13C18 12.4 17.6 12 17 12H15C14.4 12 14 12.4 14 13C14 13.6 14.4 14 15 14Z" fill="#DD2C03"/>
<path d="M26 16H19C18.4 16 18 16.4 18 17C18 17.6 18.4 18 19 18H26C26.6 18 27 17.6 27 17C27 16.4 26.6 16 26 16Z" fill="#DD2C03"/>
<path d="M22 20H17C16.4 20 16 20.4 16 21C16 21.6 16.4 22 17 22H22C22.6 22 23 21.6 23 21C23 20.4 22.6 20 22 20Z" fill="#DD2C03"/>
<path d="M17 24H15C14.4 24 14 24.4 14 25C14 25.6 14.4 26 15 26H17C17.6 26 18 25.6 18 25C18 24.4 17.6 24 17 24Z" fill="#DD2C03"/>
<path d="M31 2H1C0.4 2 0 2.4 0 3V7V9V29C0 29.6 0.4 30 1 30H9H11H31C31.6 30 32 29.6 32 29V9V7V3C32 2.4 31.6 2 31 2ZM2 28V9H9V28H2ZM30 28H11V9H30V28ZM2 7V4H30V7H2Z" fill="white"/>
</svg>
