<svg width="44" height="44" viewBox="0 0 44 44" fill="none" xmlns="http://www.w3.org/2000/svg">
<path d="M20.625 19.25H23.375C24.2 19.25 24.75 18.7 24.75 17.875C24.75 17.05 24.2 16.5 23.375 16.5H20.625C19.8 16.5 19.25 17.05 19.25 17.875C19.25 18.7 19.8 19.25 20.625 19.25Z" fill="#DD2C03"/>
<path d="M35.75 22H26.125C25.3 22 24.75 22.55 24.75 23.375C24.75 24.2 25.3 24.75 26.125 24.75H35.75C36.575 24.75 37.125 24.2 37.125 23.375C37.125 22.55 36.575 22 35.75 22Z" fill="#DD2C03"/>
<path d="M30.25 27.5H23.375C22.55 27.5 22 28.05 22 28.875C22 29.7 22.55 30.25 23.375 30.25H30.25C31.075 30.25 31.625 29.7 31.625 28.875C31.625 28.05 31.075 27.5 30.25 27.5Z" fill="#DD2C03"/>
<path d="M23.375 33H20.625C19.8 33 19.25 33.55 19.25 34.375C19.25 35.2 19.8 35.75 20.625 35.75H23.375C24.2 35.75 24.75 35.2 24.75 34.375C24.75 33.55 24.2 33 23.375 33Z" fill="#DD2C03"/>
<path d="M42.625 2.75H1.375C0.55 2.75 0 3.3 0 4.125V9.625V12.375V39.875C0 40.7 0.55 41.25 1.375 41.25H12.375H15.125H42.625C43.45 41.25 44 40.7 44 39.875V12.375V9.625V4.125C44 3.3 43.45 2.75 42.625 2.75ZM2.75 38.5V12.375H12.375V38.5H2.75ZM41.25 38.5H15.125V12.375H41.25V38.5ZM2.75 9.625V5.5H41.25V9.625H2.75Z" fill="#2C2C2C"/>
</svg>
