<svg width="26" height="27" viewBox="0 0 26 27" fill="none" xmlns="http://www.w3.org/2000/svg">
<path opacity="0.4" fill-rule="evenodd" clip-rule="evenodd" d="M20.8104 6.63267C20.7627 3.20838 17.7726 0.400773 13.9344 0.0307617H12.2098C8.37136 0.400894 5.38149 3.20862 5.33377 6.63267H20.8104ZM15.3774 3.56384C15.376 4.04249 15.7723 4.43165 16.2627 4.43298C16.7529 4.43418 17.1516 4.04731 17.153 3.56866V3.56384C17.1543 3.08506 16.758 2.69602 16.2677 2.6947C15.7775 2.69337 15.3789 3.08012 15.3774 3.55902V3.56384ZM8.75036 3.56384C8.74891 4.04249 9.14524 4.43165 9.63568 4.43298C10.1259 4.43418 10.5245 4.04731 10.5259 3.56866V3.56384C10.5273 3.08506 10.1309 2.69602 9.64062 2.6947C9.15042 2.69337 8.7518 3.08012 8.75036 3.55902V3.56384ZM0.799561 10.0724C0.799561 9.12507 1.56787 8.3571 2.51549 8.3571C3.46323 8.3571 4.23155 9.12519 4.23155 10.0725V17.4306C4.23155 18.3778 3.46323 19.1457 2.51549 19.1457C1.56787 19.1457 0.799561 18.3778 0.799561 17.4304V10.0724ZM23.6284 8.3571C22.6807 8.3571 21.9124 9.12507 21.9124 10.0724V17.4304C21.9124 18.3778 22.6807 19.1457 23.6284 19.1457C24.5761 19.1457 25.3444 18.3778 25.3444 17.4306V10.0725C25.3445 9.12519 24.5762 8.3571 23.6284 8.3571ZM7.48496 20.8741H7.40147C6.22273 20.8741 5.27331 19.9081 5.27331 18.7093V7.56115C5.27331 7.49466 5.27572 7.42866 5.28126 7.36386H20.8609C20.8666 7.4289 20.8715 7.49466 20.8715 7.56115V18.7093C20.8715 19.9082 19.9221 20.8741 18.7435 20.8741H18.6591V25.2842C18.6591 26.2315 17.8908 26.9993 16.9432 26.9993C15.9954 26.9993 15.2271 26.2315 15.2271 25.2842V20.8741H10.9169V25.2848C10.9169 26.2321 10.1486 26.9999 9.20101 26.9999C8.25327 26.9999 7.48496 26.2321 7.48496 25.2848V20.8741Z" fill="white"/>
</svg>
