<svg width="23" height="28" viewBox="0 0 23 28" fill="none" xmlns="http://www.w3.org/2000/svg">
<path opacity="0.4" d="M18.7076 14.8753C18.7462 19.1126 22.3597 20.5226 22.3997 20.5406C22.3692 20.6401 21.8223 22.5501 20.496 24.523C19.3494 26.2286 18.1594 27.9281 16.2847 27.9633C14.4427 27.9978 13.8504 26.8515 11.7445 26.8515C9.63922 26.8515 8.98114 27.9281 7.23748 27.9978C5.428 28.0675 4.0501 26.1533 2.89397 24.4539C0.531582 20.9777 -1.27378 14.6309 1.15036 10.3467C2.35462 8.21918 4.50673 6.87194 6.84264 6.83739C8.61951 6.80289 10.2967 8.0541 11.3829 8.0541C12.4684 8.0541 14.5065 6.54941 16.6491 6.77039C17.546 6.80839 20.0638 7.13917 21.6805 9.54778C21.5503 9.62998 18.6763 11.3328 18.7076 14.8753ZM15.2457 4.47056C16.2064 3.287 16.853 1.63938 16.6766 0C15.2919 0.0566449 13.6174 0.93918 12.6242 2.12209C11.734 3.16961 10.9545 4.84624 11.1648 6.45317C12.7083 6.57471 14.285 5.65487 15.2457 4.47056Z" fill="white"/>
</svg>
