<svg width="861" height="922" viewBox="0 0 861 922" fill="none" xmlns="http://www.w3.org/2000/svg">
<path opacity="0.1" fill-rule="evenodd" clip-rule="evenodd" d="M847.234 34.6562L567 229.656L681.137 292.665L847.234 34.6562Z" fill="#D8D8D8" stroke="white"/>
<path opacity="0.4" fill-rule="evenodd" clip-rule="evenodd" d="M860 920.656L791.371 758.656L554 842.281L860 920.656Z" fill="#D8D8D8" stroke="white"/>
<path opacity="0.2" fill-rule="evenodd" clip-rule="evenodd" d="M1.00047 355.576L90.7539 274.656L74.7033 203.656L1.00047 355.576Z" fill="#D8D8D8" stroke="white"/>
<path opacity="0.1" fill-rule="evenodd" clip-rule="evenodd" d="M244.751 488.225L266.029 443.031L216 433.656L244.751 488.225Z" fill="#D8D8D8" stroke="white"/>
<path opacity="0.1" fill-rule="evenodd" clip-rule="evenodd" d="M582.996 571.656L546.668 671.522L474 583.616L582.996 571.656Z" fill="#D8D8D8" stroke="white"/>
<path opacity="0.1" fill-rule="evenodd" clip-rule="evenodd" d="M847.218 500.498L760 432.656L768.83 621.656L847.218 500.498Z" fill="#D8D8D8" stroke="white"/>
<path opacity="0.5" fill-rule="evenodd" clip-rule="evenodd" d="M476 1L451.086 75.6562L294.685 22.2812L476 1Z" fill="#D8D8D8" stroke="white"/>
<path opacity="0.8" fill-rule="evenodd" clip-rule="evenodd" d="M280.877 782.336L212 743.133L246.439 735.656L280.877 782.336Z" fill="#D8D8D8" stroke="white"/>
<path fill-rule="evenodd" clip-rule="evenodd" d="M390.282 311.949L408.866 293.34L379 277.656L390.282 311.949Z" fill="#D8D8D8" stroke="white"/>
</svg>
