<svg width="824" height="950" viewBox="0 0 824 950" fill="none" xmlns="http://www.w3.org/2000/svg">
<path opacity="0.1" fill-rule="evenodd" clip-rule="evenodd" d="M1 949.008L281.234 754.008L167.097 691L1 949.008Z" fill="#D8D8D8" stroke="white"/>
<path opacity="0.4" fill-rule="evenodd" clip-rule="evenodd" d="M457 1L525.629 163L763 79.375L457 1Z" fill="#D8D8D8" stroke="white"/>
<path opacity="0.2" fill-rule="evenodd" clip-rule="evenodd" d="M822.753 590L733 670.92L749.051 741.92L822.753 590Z" fill="#D8D8D8" stroke="white"/>
<path opacity="0.1" fill-rule="evenodd" clip-rule="evenodd" d="M608.279 832L587 877.193L637.029 886.569L608.279 832Z" fill="#D8D8D8" stroke="white"/>
<path opacity="0.1" fill-rule="evenodd" clip-rule="evenodd" d="M313 517.866L349.328 418L421.996 505.906L313 517.866Z" fill="#D8D8D8" stroke="white"/>
<path opacity="0.1" fill-rule="evenodd" clip-rule="evenodd" d="M130 166.158L217.218 234L208.388 45L130 166.158Z" fill="#D8D8D8" stroke="white"/>
<path opacity="0.8" fill-rule="evenodd" clip-rule="evenodd" d="M701 282L769.877 321.203L735.438 328.68L701 282Z" fill="#D8D8D8" stroke="white"/>
<path fill-rule="evenodd" clip-rule="evenodd" d="M445.584 637L427 655.609L456.866 671.293L445.584 637Z" fill="#D8D8D8" stroke="white"/>
</svg>
