<svg width="32" height="32" viewBox="0 0 32 32" fill="none" xmlns="http://www.w3.org/2000/svg">
<path d="M31.2996 14.1001L28.5996 11.4001C27.7996 10.6001 26.4996 10.6001 25.7996 11.4001L24.9996 12.2001L19.3996 6.9001L20.0996 6.2001C20.8996 5.4001 20.8996 4.2001 20.0996 3.4001L17.3996 0.700098C16.5996 -0.0999023 15.3996 -0.0999023 14.5996 0.700098L11.7996 3.5001C10.9996 4.3001 10.9996 5.5001 11.7996 6.3001L12.3996 6.9001L6.99961 12.1001L6.29961 11.4001C5.49961 10.6001 4.29961 10.6001 3.49961 11.4001L0.699609 14.2001C-0.100391 15.0001 -0.100391 16.2001 0.699609 17.0001L3.39961 19.7001C3.79961 20.1001 4.29961 20.3001 4.79961 20.3001C5.29961 20.3001 5.79961 20.1001 6.19961 19.7001L8.99961 16.9001C9.79961 16.1001 9.79961 14.9001 8.99961 14.1001L8.39961 13.5001L13.7996 8.3001L14.4996 9.0001C14.8996 9.4001 15.3996 9.6001 15.8996 9.6001C16.3996 9.6001 16.8996 9.4001 17.2996 9.0001L18.0996 8.2001L23.6996 13.5001L22.9996 14.3001C22.1996 15.1001 22.1996 16.3001 22.9996 17.1001L25.6996 19.8001C26.0996 20.2001 26.5996 20.4001 27.0996 20.4001C27.5996 20.4001 28.0996 20.2001 28.4996 19.8001L31.2996 17.0001C32.0996 16.2001 32.0996 14.9001 31.2996 14.1001ZM4.69961 18.3001L1.99961 15.6001L4.79961 12.8001L7.49961 15.5001L4.69961 18.3001ZM13.2996 5.0001L16.0996 2.2001L18.7996 4.9001L15.9996 7.7001L13.2996 5.0001ZM27.0996 18.3001L24.3996 15.6001L27.1996 12.8001L29.8996 15.5001L27.0996 18.3001Z" fill="white"/>
<path d="M22 29.0001H17C18.4 28.8001 19.7 28.2001 20.7 27.2001C22.7 25.3001 23.2 22.3001 21.9 19.8001L17.9 12.2001C17.5 11.5001 16.8 11.1001 16 11.1001C15.2 11.1001 14.5 11.5001 14.1 12.2001L10.1 19.8001C8.8 22.3001 9.3 25.2001 11.3 27.2001C12.3 28.2001 13.6 28.8001 15 29.0001H10C9.4 29.0001 9 29.4001 9 30.0001C9 30.6001 9.4 31.0001 10 31.0001H22C22.6 31.0001 23 30.6001 23 30.0001C23 29.4001 22.6 29.0001 22 29.0001ZM12 20.8001L15.1 14.8001V21.3001C15.1 21.9001 15.5 22.3001 16.1 22.3001C16.7 22.3001 17.1 21.9001 17.1 21.3001V14.8001L20.2 20.8001C21.1 22.5001 20.7 24.5001 19.3 25.8001C17.5 27.5001 14.6 27.5001 12.8 25.8001C11.4 24.5001 11.1 22.5001 12 20.8001Z" fill="#DD2C03"/>
</svg>
