<svg width="44" height="44" viewBox="0 0 44 44" fill="none" xmlns="http://www.w3.org/2000/svg">
<path d="M43.0367 19.3877L39.3242 15.6752C38.2242 14.5752 36.4367 14.5752 35.4742 15.6752L34.3742 16.7752L26.6742 9.4877L27.6367 8.5252C28.7367 7.4252 28.7367 5.7752 27.6367 4.6752L23.9242 0.962695C22.8242 -0.137305 21.1742 -0.137305 20.0742 0.962695L16.2242 4.8127C15.1242 5.9127 15.1242 7.5627 16.2242 8.6627L17.0492 9.4877L9.62422 16.6377L8.66172 15.6752C7.56172 14.5752 5.91172 14.5752 4.81172 15.6752L0.961719 19.5252C-0.138281 20.6252 -0.138281 22.2752 0.961719 23.3752L4.67422 27.0877C5.22422 27.6377 5.91172 27.9127 6.59922 27.9127C7.28672 27.9127 7.97422 27.6377 8.52422 27.0877L12.3742 23.2377C13.4742 22.1377 13.4742 20.4877 12.3742 19.3877L11.5492 18.5627L18.9742 11.4127L19.9367 12.3752C20.4867 12.9252 21.1742 13.2002 21.8617 13.2002C22.5492 13.2002 23.2367 12.9252 23.7867 12.3752L24.8867 11.2752L32.5867 18.5627L31.6242 19.6627C30.5242 20.7627 30.5242 22.4127 31.6242 23.5127L35.3367 27.2252C35.8867 27.7752 36.5742 28.0502 37.2617 28.0502C37.9492 28.0502 38.6367 27.7752 39.1867 27.2252L43.0367 23.3752C44.1367 22.2752 44.1367 20.4877 43.0367 19.3877ZM6.46172 25.1627L2.74922 21.4502L6.59922 17.6002L10.3117 21.3127L6.46172 25.1627ZM18.2867 6.8752L22.1367 3.0252L25.8492 6.7377L21.9992 10.5877L18.2867 6.8752ZM37.2617 25.1627L33.5492 21.4502L37.3992 17.6002L41.1117 21.3127L37.2617 25.1627Z" fill="#2C2C2C"/>
<path d="M30.25 39.8752H23.375C25.3 39.6002 27.0875 38.7752 28.4625 37.4002C31.2125 34.7877 31.9 30.6627 30.1125 27.2252L24.6125 16.7752C24.0625 15.8127 23.1 15.2627 22 15.2627C20.9 15.2627 19.9375 15.8127 19.3875 16.7752L13.8875 27.2252C12.1 30.6627 12.7875 34.6502 15.5375 37.4002C16.9125 38.7752 18.7 39.6002 20.625 39.8752H13.75C12.925 39.8752 12.375 40.4252 12.375 41.2502C12.375 42.0752 12.925 42.6252 13.75 42.6252H30.25C31.075 42.6252 31.625 42.0752 31.625 41.2502C31.625 40.4252 31.075 39.8752 30.25 39.8752ZM16.5 28.6002L20.7625 20.3502V29.2877C20.7625 30.1127 21.3125 30.6627 22.1375 30.6627C22.9625 30.6627 23.5125 30.1127 23.5125 29.2877V20.3502L27.775 28.6002C29.0125 30.9377 28.4625 33.6877 26.5375 35.4752C24.0625 37.8127 20.075 37.8127 17.6 35.4752C15.675 33.6877 15.2625 30.9377 16.5 28.6002Z" fill="#DD2C03"/>
</svg>
