<svg width="15" height="15" viewBox="0 0 15 15" fill="none" xmlns="http://www.w3.org/2000/svg">
<path fill-rule="evenodd" clip-rule="evenodd" d="M7.5 15C3.375 15 0 11.625 0 7.5C0 3.375 3.375 0 7.5 0C11.625 0 15 3.375 15 7.5C15 11.625 11.625 15 7.5 15ZM13.8125 8.53134C13.5938 8.46884 11.8438 7.93759 9.8125 8.25009C10.6562 10.5626 11 12.4376 11.0625 12.8126C12.5312 11.8438 13.5312 10.3126 13.8125 8.53134ZM10 13.4062C9.90625 12.8438 9.53125 10.875 8.625 8.5625H8.59375C4.96875 9.8125 3.6875 12.3125 3.5625 12.5625C4.65625 13.4062 6 13.9062 7.5 13.9062C8.375 13.9062 9.21875 13.75 10 13.4062ZM2.75 11.7812C2.90625 11.5312 4.65625 8.625 7.96875 7.5625C8.0625 7.53125 8.125 7.5 8.21875 7.5C8.0625 7.125 7.875 6.78125 7.6875 6.40625C4.5 7.375 1.375 7.3125 1.09375 7.3125C1.09375 7.375 1.09375 7.4375 1.09375 7.5C1.09375 9.15625 1.71875 10.6562 2.75 11.7812ZM1.21875 6.1875C1.5 6.1875 4.15625 6.1875 7.15625 5.40625C6.09375 3.53125 4.9375 1.9375 4.78125 1.6875C2.96875 2.5625 1.65625 4.21875 1.21875 6.1875ZM6 1.28125C6.1875 1.53125 7.34375 3.09375 8.375 5.03125C10.6562 4.1875 11.625 2.875 11.7188 2.71875C10.625 1.71875 9.125 1.09375 7.5 1.09375C6.96875 1.09375 6.46875 1.15625 6 1.28125ZM12.4688 3.46875C12.3438 3.65625 11.25 5.03125 8.90625 6C9.0625 6.3125 9.1875 6.625 9.34375 6.9375C9.40625 7.0625 9.4375 7.15625 9.46875 7.28125C11.5938 7 13.7188 7.4375 13.9375 7.5C13.9062 5.9375 13.3438 4.5625 12.4688 3.46875Z" fill="#BEC0C2"/>
</svg>
