<svg width="44" height="44" viewBox="0 0 44 44" fill="none" xmlns="http://www.w3.org/2000/svg">
<path d="M42.625 11H27.5V1.375C27.5 0.55 26.95 0 26.125 0H1.375C0.55 0 0 0.55 0 1.375V31.625C0 32.45 0.55 33 1.375 33H16.5V42.625C16.5 43.45 17.05 44 17.875 44H42.625C43.45 44 44 43.45 44 42.625V12.375C44 11.55 43.45 11 42.625 11ZM2.75 30.25V2.75H24.75V11H17.875C17.05 11 16.5 11.55 16.5 12.375V30.25H2.75ZM41.25 41.25H19.25V33V30.25V13.75H24.75H27.5H41.25V41.25Z" fill="#2C2C2C"/>
<path d="M11.9625 12.7875C11.4125 12.2375 10.5875 12.2375 10.0375 12.7875L7.2875 15.5375C6.7375 16.0875 6.7375 16.9125 7.2875 17.4625L10.0375 20.2125C10.3125 20.4875 10.5875 20.625 11 20.625C11.4125 20.625 11.6875 20.4875 11.9625 20.2125C12.5125 19.6625 12.5125 18.8375 11.9625 18.2875L10.175 16.5L11.9625 14.7125C12.5125 14.1625 12.5125 13.3375 11.9625 12.7875Z" fill="#DD2C03"/>
<path d="M37.125 16.5H23.375C22.55 16.5 22 17.05 22 17.875V22V24.75V37.125C22 37.95 22.55 38.5 23.375 38.5H37.125C37.95 38.5 38.5 37.95 38.5 37.125V24.75V22V17.875C38.5 17.05 37.95 16.5 37.125 16.5ZM35.75 35.75H24.75V24.75H35.75V35.75ZM24.75 22V19.25H35.75V22H24.75Z" fill="#DD2C03"/>
</svg>
