<svg width="32" height="32" viewBox="0 0 32 32" fill="none" xmlns="http://www.w3.org/2000/svg">
<path d="M31 8H20V1C20 0.4 19.6 0 19 0H1C0.4 0 0 0.4 0 1V23C0 23.6 0.4 24 1 24H12V31C12 31.6 12.4 32 13 32H31C31.6 32 32 31.6 32 31V9C32 8.4 31.6 8 31 8ZM2 22V2H18V8H13C12.4 8 12 8.4 12 9V22H2ZM30 30H14V24V22V10H18H20H30V30Z" fill="white"/>
<path d="M8.7 9.3C8.3 8.9 7.7 8.9 7.3 9.3L5.3 11.3C4.9 11.7 4.9 12.3 5.3 12.7L7.3 14.7C7.5 14.9 7.7 15 8 15C8.3 15 8.5 14.9 8.7 14.7C9.1 14.3 9.1 13.7 8.7 13.3L7.4 12L8.7 10.7C9.1 10.3 9.1 9.7 8.7 9.3Z" fill="#DD2C03"/>
<path d="M27 12H17C16.4 12 16 12.4 16 13V16V18V27C16 27.6 16.4 28 17 28H27C27.6 28 28 27.6 28 27V18V16V13C28 12.4 27.6 12 27 12ZM26 26H18V18H26V26ZM18 16V14H26V16H18Z" fill="#DD2C03"/>
</svg>
