<svg width="44" height="44" viewBox="0 0 44 44" fill="none" xmlns="http://www.w3.org/2000/svg">
<path d="M6.1875 31.625C2.75 31.625 0 34.375 0 37.675C0 41.1125 2.75 43.8625 6.1875 43.8625C9.625 43.8625 12.375 41.1125 12.375 37.675C12.375 34.375 9.625 31.625 6.1875 31.625ZM6.1875 41.1125C4.2625 41.1125 2.75 39.6 2.75 37.675C2.75 35.8875 4.2625 34.375 6.1875 34.375C8.1125 34.375 9.625 35.8875 9.625 37.675C9.625 39.6 8.1125 41.1125 6.1875 41.1125Z" fill="#2C2C2C"/>
<path d="M26.4002 31.7627H17.3252C16.5002 31.7627 15.9502 32.3127 15.9502 33.1377V42.2127C15.9502 43.0377 16.5002 43.5877 17.3252 43.5877H26.4002C27.2252 43.5877 27.7752 43.0377 27.7752 42.2127V33.1377C27.7752 32.4502 27.2252 31.7627 26.4002 31.7627ZM25.0252 40.9752H18.7002V34.6502H25.0252V40.9752Z" fill="#2C2C2C"/>
<path d="M43.5875 41.6621L38.0875 31.6246C37.5375 30.7996 36.1625 30.7996 35.6125 31.6246L30.1125 41.6621C29.8375 42.0746 29.8375 42.6246 30.1125 43.0371C30.3875 43.4496 30.8 43.7246 31.35 43.7246H42.35C42.9 43.7246 43.3125 43.4496 43.5875 43.0371C43.8625 42.6246 43.8625 42.0746 43.5875 41.6621ZM33.825 40.9746L36.9875 35.1996L40.15 40.9746H33.825Z" fill="#2C2C2C"/>
<path d="M6.46289 29.5625C7.28789 29.5625 7.83789 29.0125 7.83789 28.1875V25.025H20.6254V27.5C20.6254 28.325 21.1754 28.875 22.0004 28.875C22.8254 28.875 23.3754 28.325 23.3754 27.5V25.025H36.0254V28.1875C36.0254 29.0125 36.5754 29.5625 37.4004 29.5625C38.2254 29.5625 38.7754 29.0125 38.7754 28.1875V23.65C38.7754 22.825 38.2254 22.275 37.4004 22.275H23.3754V19.25C23.3754 18.425 22.8254 17.875 22.0004 17.875C21.1754 17.875 20.6254 18.425 20.6254 19.25V22.275H6.46289C5.63789 22.275 5.08789 22.825 5.08789 23.65V28.1875C5.08789 28.875 5.63789 29.5625 6.46289 29.5625Z" fill="#2C2C2C"/>
<path d="M39.0493 8.25H36.2993C35.4743 8.25 34.9243 8.8 34.9243 9.625C34.9243 10.45 35.4743 11 36.2993 11H39.0493C39.8743 11 40.4243 10.45 40.4243 9.625C40.4243 8.8 39.7368 8.25 39.0493 8.25Z" fill="#DD2C03"/>
<path d="M36.712 14.85C36.162 14.3 35.337 14.3 34.787 14.85C34.237 15.4 34.237 16.225 34.787 16.775L36.712 18.7C36.987 18.975 37.3995 19.1125 37.6745 19.1125C37.9495 19.1125 38.362 18.975 38.637 18.7C39.187 18.15 39.187 17.325 38.637 16.775L36.712 14.85Z" fill="#DD2C03"/>
<path d="M35.7495 4.675C36.162 4.675 36.437 4.5375 36.712 4.2625L38.637 2.3375C39.187 1.7875 39.187 0.9625 38.637 0.4125C38.087 -0.1375 37.262 -0.1375 36.712 0.4125L34.787 2.3375C34.237 2.8875 34.237 3.7125 34.787 4.2625C34.9245 4.5375 35.337 4.675 35.7495 4.675Z" fill="#DD2C03"/>
<path d="M7.69971 11C8.52471 11 9.07471 10.45 9.07471 9.625C9.07471 8.8 8.52471 8.25 7.69971 8.25H4.94971C4.12471 8.25 3.57471 8.8 3.57471 9.625C3.57471 10.45 4.12471 11 4.94971 11H7.69971Z" fill="#DD2C03"/>
<path d="M7.28721 14.85L5.36221 16.775C4.81221 17.325 4.81221 18.15 5.36221 18.7C5.63721 18.975 6.04971 19.1125 6.32471 19.1125C6.59971 19.1125 7.01221 18.975 7.28721 18.7L9.21221 16.775C9.76221 16.225 9.76221 15.4 9.21221 14.85C8.66221 14.3 7.83721 14.3 7.28721 14.85Z" fill="#DD2C03"/>
<path d="M7.28721 0.4125C6.73721 -0.1375 5.91221 -0.1375 5.36221 0.4125C4.81221 0.9625 4.81221 1.7875 5.36221 2.3375L7.28721 4.2625C7.56221 4.5375 7.97471 4.675 8.24971 4.675C8.52471 4.675 8.93721 4.5375 9.21221 4.2625C9.76221 3.7125 9.76221 2.8875 9.21221 2.3375L7.28721 0.4125Z" fill="#DD2C03"/>
<path d="M23.0998 0.274907C19.1123 -0.275093 15.1248 2.19991 14.0248 6.18741C13.0623 9.76241 14.5748 13.6124 17.8748 15.5374V18.0124C17.8748 18.8374 18.4248 19.3874 19.2498 19.3874H24.7498C25.5748 19.3874 26.1248 18.8374 26.1248 18.0124V15.5374C28.5998 14.0249 30.2498 11.4124 30.2498 8.38741C30.2498 4.26241 27.2248 0.824907 23.0998 0.274907ZM27.4998 8.38741C27.4998 10.5874 26.2623 12.5124 24.1998 13.3374C23.6498 13.6124 23.3748 14.0249 23.3748 14.5749V16.4999H20.6248V14.5749C20.6248 14.0249 20.3498 13.4749 19.7998 13.3374C17.3248 12.3749 15.9498 9.48741 16.7748 6.87491C17.4623 4.26241 20.0748 2.61241 22.8248 2.88741C25.4373 3.29991 27.4998 5.63741 27.4998 8.38741Z" fill="#DD2C03"/>
</svg>
