<svg width="32" height="32" viewBox="0 0 32 32" fill="none" xmlns="http://www.w3.org/2000/svg">
<path d="M4.5 23C2 23 0 25 0 27.4C0 29.9 2 31.9 4.5 31.9C7 31.9 9 29.9 9 27.4C9 25 7 23 4.5 23ZM4.5 29.9C3.1 29.9 2 28.8 2 27.4C2 26.1 3.1 25 4.5 25C5.9 25 7 26.1 7 27.4C7 28.8 5.9 29.9 4.5 29.9Z" fill="white"/>
<path d="M19.2001 23.1H12.6001C12.0001 23.1 11.6001 23.5 11.6001 24.1V30.7C11.6001 31.3 12.0001 31.7 12.6001 31.7H19.2001C19.8001 31.7 20.2001 31.3 20.2001 30.7V24.1C20.2001 23.6 19.8001 23.1 19.2001 23.1ZM18.2001 29.8H13.6001V25.2H18.2001V29.8Z" fill="white"/>
<path d="M31.7 30.3L27.7 23C27.3 22.4 26.3 22.4 25.9 23L21.9 30.3C21.7 30.6 21.7 31 21.9 31.3C22.1 31.6 22.4 31.8 22.8 31.8H30.8C31.2 31.8 31.5 31.6 31.7 31.3C31.9 31 31.9 30.6 31.7 30.3ZM24.6 29.8L26.9 25.6L29.2 29.8H24.6Z" fill="white"/>
<path d="M4.7002 21.5C5.3002 21.5 5.7002 21.1 5.7002 20.5V18.2H15.0002V20C15.0002 20.6 15.4002 21 16.0002 21C16.6002 21 17.0002 20.6 17.0002 20V18.2H26.2002V20.5C26.2002 21.1 26.6002 21.5 27.2002 21.5C27.8002 21.5 28.2002 21.1 28.2002 20.5V17.2C28.2002 16.6 27.8002 16.2 27.2002 16.2H17.0002V14C17.0002 13.4 16.6002 13 16.0002 13C15.4002 13 15.0002 13.4 15.0002 14V16.2H4.7002C4.1002 16.2 3.7002 16.6 3.7002 17.2V20.5C3.7002 21 4.1002 21.5 4.7002 21.5Z" fill="white"/>
<path d="M28.3994 6H26.3994C25.7994 6 25.3994 6.4 25.3994 7C25.3994 7.6 25.7994 8 26.3994 8H28.3994C28.9994 8 29.3994 7.6 29.3994 7C29.3994 6.4 28.8994 6 28.3994 6Z" fill="#DD2C03"/>
<path d="M26.6995 10.8C26.2995 10.4 25.6995 10.4 25.2995 10.8C24.8995 11.2 24.8995 11.8 25.2995 12.2L26.6995 13.6C26.8995 13.8 27.1995 13.9 27.3995 13.9C27.5995 13.9 27.8995 13.8 28.0995 13.6C28.4995 13.2 28.4995 12.6 28.0995 12.2L26.6995 10.8Z" fill="#DD2C03"/>
<path d="M25.9995 3.4C26.2995 3.4 26.4995 3.3 26.6995 3.1L28.0995 1.7C28.4995 1.3 28.4995 0.7 28.0995 0.3C27.6995 -0.1 27.0995 -0.1 26.6995 0.3L25.2995 1.7C24.8995 2.1 24.8995 2.7 25.2995 3.1C25.3995 3.3 25.6995 3.4 25.9995 3.4Z" fill="#DD2C03"/>
<path d="M5.59961 8C6.19961 8 6.59961 7.6 6.59961 7C6.59961 6.4 6.19961 6 5.59961 6H3.59961C2.99961 6 2.59961 6.4 2.59961 7C2.59961 7.6 2.99961 8 3.59961 8H5.59961Z" fill="#DD2C03"/>
<path d="M5.29961 10.8L3.89961 12.2C3.49961 12.6 3.49961 13.2 3.89961 13.6C4.09961 13.8 4.39961 13.9 4.59961 13.9C4.79961 13.9 5.09961 13.8 5.29961 13.6L6.69961 12.2C7.09961 11.8 7.09961 11.2 6.69961 10.8C6.29961 10.4 5.69961 10.4 5.29961 10.8Z" fill="#DD2C03"/>
<path d="M5.29961 0.3C4.89961 -0.1 4.29961 -0.1 3.89961 0.3C3.49961 0.7 3.49961 1.3 3.89961 1.7L5.29961 3.1C5.49961 3.3 5.79961 3.4 5.99961 3.4C6.19961 3.4 6.49961 3.3 6.69961 3.1C7.09961 2.7 7.09961 2.1 6.69961 1.7L5.29961 0.3Z" fill="#DD2C03"/>
<path d="M16.7997 0.200001C13.8997 -0.199999 10.9997 1.6 10.1997 4.5C9.4997 7.1 10.5997 9.9 12.9997 11.3V13.1C12.9997 13.7 13.3997 14.1 13.9997 14.1H17.9997C18.5997 14.1 18.9997 13.7 18.9997 13.1V11.3C20.7997 10.2 21.9997 8.3 21.9997 6.1C21.9997 3.1 19.7997 0.600001 16.7997 0.200001ZM19.9997 6.1C19.9997 7.7 19.0997 9.1 17.5997 9.7C17.1997 9.9 16.9997 10.2 16.9997 10.6V12H14.9997V10.6C14.9997 10.2 14.7997 9.8 14.3997 9.7C12.5997 9 11.5997 6.9 12.1997 5C12.6997 3.1 14.5997 1.9 16.5997 2.1C18.4997 2.4 19.9997 4.1 19.9997 6.1Z" fill="#DD2C03"/>
</svg>
