<svg width="24" height="24" viewBox="0 0 24 24" fill="none" xmlns="http://www.w3.org/2000/svg">
<path d="M22.2242 0H1.77042C0.793864 0 0.000244141 0.77474 0.000244141 1.73047V22.2682C0.000244141 23.2239 0.793864 24 1.77042 24H22.2242C23.2027 24 23.9996 23.2239 23.9996 22.2682V1.73047C23.9996 0.77474 23.2027 0 22.2242 0Z" fill="#007BB5"/>
<path fill-rule="evenodd" clip-rule="evenodd" d="M7.40191 5.36833C7.40191 4.229 6.47746 3.3042 5.33878 3.3042C4.19555 3.3042 3.27368 4.229 3.27368 5.36833C3.27368 6.50798 4.19556 7.43277 5.33878 7.43277C6.47745 7.43277 7.40191 6.50798 7.40191 5.36833ZM7.11937 8.99756H3.55623V20.4507H7.11937V8.99756Z" fill="white"/>
<path d="M9.35254 8.99758H12.7647V10.5633H12.8135C13.2881 9.66291 14.4495 8.71338 16.1813 8.71338C19.7855 8.71338 20.4515 11.0848 20.4515 14.1694V20.4507H16.8923V14.881C16.8923 13.5529 16.8695 11.8442 15.0427 11.8442C13.1905 11.8442 12.9079 13.2918 12.9079 14.786V20.4507H9.35254V8.99758H9.35254Z" fill="white"/>
</svg>
