<svg width="12" height="12" viewBox="0 0 12 12" fill="none" xmlns="http://www.w3.org/2000/svg">
<path fill-rule="evenodd" clip-rule="evenodd" d="M1.44075 2.89554C0.645392 2.89554 0 2.23661 0 1.44107C0 0.645536 0.645392 0 1.44075 0C2.23611 0 2.8815 0.645536 2.8815 1.44107C2.8815 2.23661 2.23611 2.89554 1.44075 2.89554ZM2.68602 11.9999H0.198181V3.98828H2.68602V11.9999ZM9.51482 11.9996H11.9973H12V7.59872C12 5.44515 11.5367 3.78711 9.01939 3.78711C7.80895 3.78711 6.99752 4.4514 6.66546 5.08086H6.63064V3.988H4.24457V11.9996H6.72973V8.03265C6.72973 6.988 6.9279 5.97818 8.22136 5.97818C9.49607 5.97818 9.51482 7.17015 9.51482 8.09961V11.9996Z" fill="#BEC0C2"/>
</svg>
