<svg width="44" height="44" viewBox="0 0 44 44" fill="none" xmlns="http://www.w3.org/2000/svg">
<path d="M42.3496 26.8125C41.7996 26.2625 40.9746 26.2625 40.4246 26.8125L26.8121 40.425C26.2621 40.975 25.4371 40.975 24.8871 40.425L3.57461 19.1125C3.29961 18.8375 3.16211 18.5625 3.16211 18.15C3.16211 17.7375 3.29961 17.4625 3.57461 17.1875L17.1871 3.575C17.7371 3.025 18.5621 3.025 19.1121 3.575L21.9996 6.4625C22.5496 7.0125 23.3746 7.0125 23.9246 6.4625C24.4746 5.9125 24.4746 5.0875 23.9246 4.5375L21.0371 1.65C19.5246 0.1375 16.7746 0.1375 15.2621 1.65L1.64961 15.2625C0.824609 16.0875 0.412109 17.05 0.412109 18.15C0.412109 19.25 0.824609 20.35 1.64961 21.0375L23.0996 42.4875C23.9246 43.3125 24.8871 43.725 25.9871 43.725C27.0871 43.725 28.1871 43.3125 28.8746 42.4875L42.4871 28.875C42.8996 28.325 42.8996 27.3625 42.3496 26.8125Z" fill="#2C2C2C"/>
<path d="M12.375 41.25C9.7625 41.25 7.425 40.2875 5.6375 38.5C3.7125 36.575 2.75 34.2375 2.75 31.625C2.75 30.8 2.2 30.25 1.375 30.25C0.55 30.25 0 30.8 0 31.625C0 34.925 1.2375 38.0875 3.575 40.425C5.9125 42.7625 9.075 44 12.375 44C13.2 44 13.75 43.45 13.75 42.625C13.75 41.8 13.2 41.25 12.375 41.25Z" fill="#2C2C2C"/>
<path d="M42.625 8.25H41.25V5.5C41.25 3.9875 40.7 2.6125 39.6 1.65C38.6375 0.55 37.2625 0 35.75 0C34.2375 0 32.8625 0.55 31.9 1.65C30.8 2.6125 30.25 3.9875 30.25 5.5V8.25H28.875C28.05 8.25 27.5 8.8 27.5 9.625V19.25C27.5 20.075 28.05 20.625 28.875 20.625H42.625C43.45 20.625 44 20.075 44 19.25V9.625C44 8.8 43.45 8.25 42.625 8.25ZM33 5.5C33 4.8125 33.275 4.125 33.825 3.575C34.925 2.475 36.7125 2.475 37.675 3.575C38.225 4.125 38.5 4.8125 38.5 5.5V8.25H33V5.5ZM41.25 17.875H30.25V11H33H38.5H41.25V17.875Z" fill="#DD2C03"/>
</svg>
