<svg width="32" height="32" viewBox="0 0 32 32" fill="none" xmlns="http://www.w3.org/2000/svg">
<path d="M30.7998 19.5C30.3998 19.1 29.7998 19.1 29.3998 19.5L19.4998 29.4C19.0998 29.8 18.4998 29.8 18.0998 29.4L2.5998 13.9C2.3998 13.7 2.2998 13.5 2.2998 13.2C2.2998 12.9 2.3998 12.7 2.5998 12.5L12.4998 2.6C12.8998 2.2 13.4998 2.2 13.8998 2.6L15.9998 4.7C16.3998 5.1 16.9998 5.1 17.3998 4.7C17.7998 4.3 17.7998 3.7 17.3998 3.3L15.2998 1.2C14.1998 0.1 12.1998 0.1 11.0998 1.2L1.1998 11.1C0.599805 11.7 0.299805 12.4 0.299805 13.2C0.299805 14 0.599805 14.8 1.1998 15.3L16.7998 30.9C17.3998 31.5 18.0998 31.8 18.8998 31.8C19.6998 31.8 20.4998 31.5 20.9998 30.9L30.8998 21C31.1998 20.6 31.1998 19.9 30.7998 19.5Z" fill="white"/>
<path d="M9 30C7.1 30 5.4 29.3 4.1 28C2.7 26.6 2 24.9 2 23C2 22.4 1.6 22 1 22C0.4 22 0 22.4 0 23C0 25.4 0.9 27.7 2.6 29.4C4.3 31.1 6.6 32 9 32C9.6 32 10 31.6 10 31C10 30.4 9.6 30 9 30Z" fill="white"/>
<path d="M31 6H30V4C30 2.9 29.6 1.9 28.8 1.2C28.1 0.4 27.1 0 26 0C24.9 0 23.9 0.4 23.2 1.2C22.4 1.9 22 2.9 22 4V6H21C20.4 6 20 6.4 20 7V14C20 14.6 20.4 15 21 15H31C31.6 15 32 14.6 32 14V7C32 6.4 31.6 6 31 6ZM24 4C24 3.5 24.2 3 24.6 2.6C25.4 1.8 26.7 1.8 27.4 2.6C27.8 3 28 3.5 28 4V6H24V4ZM30 13H22V8H24H28H30V13Z" fill="#DD2C03"/>
</svg>
