<svg width="85" height="20" viewBox="0 0 85 20" fill="none" xmlns="http://www.w3.org/2000/svg">
<path fill-rule="evenodd" clip-rule="evenodd" d="M12.6339 19.5742V0.549805H14.993V17.4025H22.388V19.5742H12.6339Z" fill="#2c2c2c"/>
<path fill-rule="evenodd" clip-rule="evenodd" d="M58.7666 17.3405C61.6017 17.3405 62.4327 15.9659 62.4327 13.8059C62.4327 11.4 61.0397 10.5898 58.8399 10.5898H55.5152V17.3405H58.7666ZM55.4666 2.73419V8.35566H57.6421C59.8905 8.35566 60.6244 6.8342 60.6244 5.45907C60.6244 3.6181 59.4509 2.73419 57.8864 2.73419H55.4666ZM53.1449 0.549805H57.8864C61.2354 0.549805 62.9947 2.5381 62.9947 5.45907C62.9947 7.03029 62.5551 8.08639 61.6507 9.01859C63.7034 9.65712 64.804 11.3508 64.804 13.781C64.804 17.8069 62.5551 19.5742 58.717 19.5742H53.1449V0.549805Z" fill="#2c2c2c"/>
<path fill-rule="evenodd" clip-rule="evenodd" d="M37.4495 0.370117L31.2178 19.3945H33.6561L37.4495 7.09597L41.2429 19.3945H43.6812L37.4495 0.370117Z" fill="#2c2c2c"/>
<path fill-rule="evenodd" clip-rule="evenodd" d="M0.114136 19.5742H2.50045V0.549805H0.114136V19.5742Z" fill="#2c2c2c"/>
<path fill-rule="evenodd" clip-rule="evenodd" d="M80.2359 8.61663C77.8889 8.37371 75.6391 8.39761 75.6391 5.7981C75.6391 3.92737 76.1467 2.73663 78.736 2.73663C81.0539 2.73663 81.5881 3.82639 81.7105 5.35273L84.0478 4.72298C83.7102 2.03956 82.1729 0.549805 78.736 0.549805C74.8163 0.549805 73.2441 2.34834 73.2441 5.82249C73.2441 9.3942 75.7358 10.4635 77.9132 10.6337C80.2359 10.8274 82.2439 10.8761 82.2439 13.9376C82.2439 16.1244 81.7353 17.3147 79.2193 17.3147H78.7598C76.3648 17.3147 75.6634 16.1 75.542 14.521H75.5342L73.1119 15.1732C73.4782 17.9566 75.2316 19.5742 78.7841 19.5742H79.2436C83.0905 19.5742 84.6146 17.8498 84.6146 13.8161C84.6146 9.90444 82.3891 8.83566 80.2359 8.61663Z" fill="#2c2c2c"/>
</svg>
