<svg width="32" height="32" viewBox="0 0 32 32" fill="none" xmlns="http://www.w3.org/2000/svg">
<path d="M22.0996 32C21.8996 32 21.6996 31.9 21.4996 31.8L16.3996 27.7C15.3996 26.9 14.9996 25.7 15.2996 24.5C15.4996 23.6 16.1996 22.8 17.0996 22.4C17.9996 22 18.9996 22 19.8996 22.4L19.9996 22.5V17C19.9996 15.3 21.2996 14 22.9996 14C24.6996 14 25.9996 15.3 25.9996 17V20.2L27.7996 20.5C30.1996 20.9 31.9996 23 31.9996 25.4V31C31.9996 31.6 31.5996 32 30.9996 32C30.3996 32 29.9996 31.6 29.9996 31V25.4C29.9996 23.9 28.8996 22.7 27.4996 22.4L24.7996 22C24.2996 21.9 23.9996 21.5 23.9996 21V17C23.9996 16.4 23.5996 16 22.9996 16C22.3996 16 21.9996 16.4 21.9996 17V24C21.9996 24.3 21.7996 24.7 21.4996 24.9C21.1996 25.1 20.7996 25.1 20.4996 24.9L18.9996 24.1C18.6996 23.9 18.2996 23.9 17.9996 24.1C17.6996 24.3 17.3996 24.5 17.2996 24.9C17.1996 25.3 17.2996 25.8 17.6996 26.1L22.7996 30.2C23.1996 30.5 23.2996 31.2 22.8996 31.6C22.6996 31.9 22.3996 32 22.0996 32Z" fill="#DD2C03"/>
<path d="M5 22H3C2.4 22 2 21.6 2 21V6H15C15.6 6 16 5.6 16 5V3C16 1.3 14.7 0 13 0H3C1.3 0 0 1.3 0 3V21C0 22.7 1.3 24 3 24H5C5.6 24 6 23.6 6 23C6 22.4 5.6 22 5 22ZM3 2H13C13.6 2 14 2.4 14 3V4H2V3C2 2.4 2.4 2 3 2Z" fill="white"/>
<path d="M29 8H11C9.3 8 8 9.3 8 11V21C8 22.7 9.3 24 11 24C11.6 24 12 23.6 12 23C12 22.4 11.6 22 11 22C10.4 22 10 21.6 10 21V11C10 10.4 10.4 10 11 10H12V21C12 21.6 12.4 22 13 22C13.6 22 14 21.6 14 21V10H26V13C26 13.6 26.4 14 27 14C27.6 14 28 13.6 28 13V10H29C29.6 10 30 10.4 30 11V17C30 17.6 30.4 18 31 18C31.6 18 32 17.6 32 17V11C32 9.3 30.7 8 29 8Z" fill="white"/>
</svg>
