<svg width="44" height="44" viewBox="0 0 44 44" fill="none" xmlns="http://www.w3.org/2000/svg">
<path d="M30.3868 44C30.1118 44 29.8368 43.8625 29.5618 43.725L22.5493 38.0875C21.1743 36.9875 20.6243 35.3375 21.0368 33.6875C21.3118 32.45 22.2743 31.35 23.5118 30.8C24.7493 30.25 26.1243 30.25 27.3618 30.8L27.4993 30.9375V23.375C27.4993 21.0375 29.2868 19.25 31.6243 19.25C33.9618 19.25 35.7493 21.0375 35.7493 23.375V27.775L38.2243 28.1875C41.5243 28.7375 43.9993 31.625 43.9993 34.925V42.625C43.9993 43.45 43.4493 44 42.6243 44C41.7993 44 41.2493 43.45 41.2493 42.625V34.925C41.2493 32.8625 39.7368 31.2125 37.8118 30.8L34.0993 30.25C33.4118 30.1125 32.9993 29.5625 32.9993 28.875V23.375C32.9993 22.55 32.4493 22 31.6243 22C30.7993 22 30.2493 22.55 30.2493 23.375V33C30.2493 33.4125 29.9743 33.9625 29.5618 34.2375C29.1493 34.5125 28.5993 34.5125 28.1868 34.2375L26.1243 33.1375C25.7118 32.8625 25.1618 32.8625 24.7493 33.1375C24.3368 33.4125 23.9243 33.6875 23.7868 34.2375C23.6493 34.7875 23.7868 35.475 24.3368 35.8875L31.3493 41.525C31.8993 41.9375 32.0368 42.9 31.4868 43.45C31.2118 43.8625 30.7993 44 30.3868 44Z" fill="#DD2C03"/>
<path d="M6.875 30.25H4.125C3.3 30.25 2.75 29.7 2.75 28.875V8.25H20.625C21.45 8.25 22 7.7 22 6.875V4.125C22 1.7875 20.2125 0 17.875 0H4.125C1.7875 0 0 1.7875 0 4.125V28.875C0 31.2125 1.7875 33 4.125 33H6.875C7.7 33 8.25 32.45 8.25 31.625C8.25 30.8 7.7 30.25 6.875 30.25ZM4.125 2.75H17.875C18.7 2.75 19.25 3.3 19.25 4.125V5.5H2.75V4.125C2.75 3.3 3.3 2.75 4.125 2.75Z" fill="#2C2C2C"/>
<path d="M39.875 11H15.125C12.7875 11 11 12.7875 11 15.125V28.875C11 31.2125 12.7875 33 15.125 33C15.95 33 16.5 32.45 16.5 31.625C16.5 30.8 15.95 30.25 15.125 30.25C14.3 30.25 13.75 29.7 13.75 28.875V15.125C13.75 14.3 14.3 13.75 15.125 13.75H16.5V28.875C16.5 29.7 17.05 30.25 17.875 30.25C18.7 30.25 19.25 29.7 19.25 28.875V13.75H35.75V17.875C35.75 18.7 36.3 19.25 37.125 19.25C37.95 19.25 38.5 18.7 38.5 17.875V13.75H39.875C40.7 13.75 41.25 14.3 41.25 15.125V23.375C41.25 24.2 41.8 24.75 42.625 24.75C43.45 24.75 44 24.2 44 23.375V15.125C44 12.7875 42.2125 11 39.875 11Z" fill="#2C2C2C"/>
</svg>
