<svg width="32" height="32" viewBox="0 0 32 32" fill="none" xmlns="http://www.w3.org/2000/svg">
<path d="M27 0.600098H5C2.2 0.600098 0 2.8001 0 5.6001V20.6001C0 23.4001 2.2 25.6001 5 25.6001H11.8L11.1 29.4001H9C8.4 29.4001 8 29.8001 8 30.4001C8 31.0001 8.4 31.4001 9 31.4001H23C23.6 31.4001 24 31.0001 24 30.4001C24 29.8001 23.6 29.4001 23 29.4001H20.8L20.1 25.6001H27C29.8 25.6001 32 23.4001 32 20.6001V5.6001C32 2.8001 29.8 0.600098 27 0.600098ZM18.8 29.4001H13.2L13.9 25.6001H18.2L18.8 29.4001ZM30 20.6001C30 22.3001 28.7 23.6001 27 23.6001H19H13H5C3.3 23.6001 2 22.3001 2 20.6001V5.6001C2 3.9001 3.3 2.6001 5 2.6001H27C28.7 2.6001 30 3.9001 30 5.6001V20.6001Z" fill="white"/>
<path d="M7 6.2998C6.4 6.2998 6 6.6998 6 7.2998V11.0998C6 11.6998 6.4 12.0998 7 12.0998C7.6 12.0998 8 11.6998 8 11.0998V7.2998C8 6.7998 7.6 6.2998 7 6.2998Z" fill="#DD2C03"/>
<path d="M19 12.1998C19.6 12.1998 20 11.7998 20 11.1998V7.2998C20 6.6998 19.6 6.2998 19 6.2998C18.4 6.2998 18 6.6998 18 7.2998V11.0998C18 11.6998 18.4 12.1998 19 12.1998Z" fill="#DD2C03"/>
<path d="M25 6.2998C24.4 6.2998 24 6.6998 24 7.2998V11.0998C24 11.6998 24.4 12.0998 25 12.0998C25.6 12.0998 26 11.6998 26 11.0998V7.2998C26 6.7998 25.6 6.2998 25 6.2998Z" fill="#DD2C03"/>
<path d="M25 13.9998C24.4 13.9998 24 14.3998 24 14.9998V18.7998C24 19.3998 24.4 19.7998 25 19.7998C25.6 19.7998 26 19.3998 26 18.7998V14.9998C26 14.4998 25.6 13.9998 25 13.9998Z" fill="#DD2C03"/>
<path d="M13 13.9998C12.4 13.9998 12 14.3998 12 14.9998V18.7998C12 19.3998 12.4 19.7998 13 19.7998C13.6 19.7998 14 19.3998 14 18.7998V14.9998C14 14.4998 13.6 13.9998 13 13.9998Z" fill="#DD2C03"/>
<path d="M7 13.9998C6.4 13.9998 6 14.3998 6 14.9998V18.7998C6 19.3998 6.4 19.7998 7 19.7998C7.6 19.7998 8 19.3998 8 18.7998V14.9998C8 14.4998 7.6 13.9998 7 13.9998Z" fill="#DD2C03"/>
<path d="M13 6.2998C11.3 6.2998 10 7.5998 10 9.1998C10 10.7998 11.3 12.0998 13 12.0998C14.7 12.0998 16 10.7998 16 9.1998C16 7.5998 14.7 6.2998 13 6.2998ZM13 10.1998C12.4 10.1998 12 9.7998 12 9.2998C12 8.7998 12.4 8.3998 13 8.3998C13.6 8.3998 14 8.7998 14 9.2998C14 9.7998 13.6 10.1998 13 10.1998Z" fill="#DD2C03"/>
<path d="M19 13.9998C17.3 13.9998 16 15.2998 16 16.8998C16 18.4998 17.3 19.7998 19 19.7998C20.7 19.7998 22 18.4998 22 16.8998C22 15.2998 20.7 13.9998 19 13.9998ZM19 17.8998C18.4 17.8998 18 17.4998 18 16.9998C18 16.4998 18.4 16.0998 19 16.0998C19.6 16.0998 20 16.4998 20 16.9998C20 17.4998 19.6 17.8998 19 17.8998Z" fill="#DD2C03"/>
</svg>
