<svg width="44" height="44" viewBox="0 0 44 44" fill="none" xmlns="http://www.w3.org/2000/svg">
<path d="M37.125 0.825195H6.875C3.025 0.825195 0 3.8502 0 7.7002V28.3252C0 32.1752 3.025 35.2002 6.875 35.2002H16.225L15.2625 40.4252H12.375C11.55 40.4252 11 40.9752 11 41.8002C11 42.6252 11.55 43.1752 12.375 43.1752H31.625C32.45 43.1752 33 42.6252 33 41.8002C33 40.9752 32.45 40.4252 31.625 40.4252H28.6L27.6375 35.2002H37.125C40.975 35.2002 44 32.1752 44 28.3252V7.7002C44 3.8502 40.975 0.825195 37.125 0.825195ZM25.85 40.4252H18.15L19.1125 35.2002H25.025L25.85 40.4252ZM41.25 28.3252C41.25 30.6627 39.4625 32.4502 37.125 32.4502H26.125H17.875H6.875C4.5375 32.4502 2.75 30.6627 2.75 28.3252V7.7002C2.75 5.3627 4.5375 3.5752 6.875 3.5752H37.125C39.4625 3.5752 41.25 5.3627 41.25 7.7002V28.3252Z" fill="#2C2C2C"/>
<path d="M9.625 8.66211C8.8 8.66211 8.25 9.21211 8.25 10.0371V15.2621C8.25 16.0871 8.8 16.6371 9.625 16.6371C10.45 16.6371 11 16.0871 11 15.2621V10.0371C11 9.34961 10.45 8.66211 9.625 8.66211Z" fill="#DD2C03"/>
<path d="M26.125 16.7746C26.95 16.7746 27.5 16.2246 27.5 15.3996V10.0371C27.5 9.21211 26.95 8.66211 26.125 8.66211C25.3 8.66211 24.75 9.21211 24.75 10.0371V15.2621C24.75 16.0871 25.3 16.7746 26.125 16.7746Z" fill="#DD2C03"/>
<path d="M34.375 8.66211C33.55 8.66211 33 9.21211 33 10.0371V15.2621C33 16.0871 33.55 16.6371 34.375 16.6371C35.2 16.6371 35.75 16.0871 35.75 15.2621V10.0371C35.75 9.34961 35.2 8.66211 34.375 8.66211Z" fill="#DD2C03"/>
<path d="M34.375 19.25C33.55 19.25 33 19.8 33 20.625V25.85C33 26.675 33.55 27.225 34.375 27.225C35.2 27.225 35.75 26.675 35.75 25.85V20.625C35.75 19.9375 35.2 19.25 34.375 19.25Z" fill="#DD2C03"/>
<path d="M17.875 19.25C17.05 19.25 16.5 19.8 16.5 20.625V25.85C16.5 26.675 17.05 27.225 17.875 27.225C18.7 27.225 19.25 26.675 19.25 25.85V20.625C19.25 19.9375 18.7 19.25 17.875 19.25Z" fill="#DD2C03"/>
<path d="M9.625 19.25C8.8 19.25 8.25 19.8 8.25 20.625V25.85C8.25 26.675 8.8 27.225 9.625 27.225C10.45 27.225 11 26.675 11 25.85V20.625C11 19.9375 10.45 19.25 9.625 19.25Z" fill="#DD2C03"/>
<path d="M17.875 8.66211C15.5375 8.66211 13.75 10.4496 13.75 12.6496C13.75 14.8496 15.5375 16.6371 17.875 16.6371C20.2125 16.6371 22 14.8496 22 12.6496C22 10.4496 20.2125 8.66211 17.875 8.66211ZM17.875 14.0246C17.05 14.0246 16.5 13.4746 16.5 12.7871C16.5 12.0996 17.05 11.5496 17.875 11.5496C18.7 11.5496 19.25 12.0996 19.25 12.7871C19.25 13.4746 18.7 14.0246 17.875 14.0246Z" fill="#DD2C03"/>
<path d="M26.125 19.25C23.7875 19.25 22 21.0375 22 23.2375C22 25.4375 23.7875 27.225 26.125 27.225C28.4625 27.225 30.25 25.4375 30.25 23.2375C30.25 21.0375 28.4625 19.25 26.125 19.25ZM26.125 24.6125C25.3 24.6125 24.75 24.0625 24.75 23.375C24.75 22.6875 25.3 22.1375 26.125 22.1375C26.95 22.1375 27.5 22.6875 27.5 23.375C27.5 24.0625 26.95 24.6125 26.125 24.6125Z" fill="#DD2C03"/>
</svg>
