<svg width="32" height="32" viewBox="0 0 32 32" fill="none" xmlns="http://www.w3.org/2000/svg">
<path d="M11 13C8.8 13 7 14.8 7 17C7 19.2 8.8 21 11 21C13.2 21 15 19.2 15 17C15 14.8 13.2 13 11 13ZM11 19C9.9 19 9 18.1 9 17C9 15.9 9.9 15 11 15C12.1 15 13 15.9 13 17C13 18.1 12.1 19 11 19Z" fill="white"/>
<path d="M28 16C27.4 16 27 16.4 27 17V28H18V26C18 25.5 17.9 25 17.6 24.5C17.3 24 17 23.7 16.5 23.4C14.8 22.4 12.9 21.9 11 22C9.1 22 7.1 22.5 5.4 23.4C5 23.7 4.6 24 4.3 24.5C4.1 25 4 25.5 4 26V28H2V9H13C13.6 9 14 8.6 14 8C14 7.4 13.6 7 13 7H1C0.4 7 0 7.4 0 8V29C0 29.6 0.4 30 1 30H4H6H16H18H28C28.6 30 29 29.6 29 29V17C29 16.4 28.6 16 28 16ZM6 28V26C6 25.8 6 25.7 6.1 25.5C6.2 25.3 6.3 25.2 6.4 25.1C7.8 24.4 9.4 24 11 24C12.6 24 14.1 24.4 15.5 25.2C15.6 25.3 15.8 25.4 15.9 25.6C16 25.7 16 25.8 16 26V28H6Z" fill="white"/>
<path d="M20 17C19.8 17 19.7 17 19.5 16.9C19.2 16.7 19 16.4 19 16V13.9C18.3 13.7 17.7 13.4 17.2 12.9C16.4 12.1 16 11.1 16 10V5C16 3.9 16.4 2.9 17.2 2.2C17.9 1.4 18.9 1 20 1H28C29.1 1 30.1 1.4 30.8 2.2C31.6 2.9 32 3.9 32 5V10C32 11.1 31.6 12.1 30.8 12.8C30.1 13.6 29.1 14 28 14H25.3L20.5 16.9C20.4 17 20.2 17 20 17ZM20 3C19.5 3 19 3.2 18.6 3.6C18.2 4 18 4.5 18 5V10C18 10.5 18.2 11 18.6 11.4C19 11.8 19.5 12 20 12C20.6 12 21 12.4 21 13V14.2L24.5 12.1C24.6 12 24.8 12 25 12H28C28.5 12 29 11.8 29.4 11.4C29.8 11 30 10.5 30 10V5C30 4.5 29.8 4 29.4 3.6C29 3.2 28.5 3 28 3H20Z" fill="#DD2C03"/>
</svg>
