<svg width="44" height="44" viewBox="0 0 44 44" fill="none" xmlns="http://www.w3.org/2000/svg">
<path d="M15.125 17.875C12.1 17.875 9.625 20.35 9.625 23.375C9.625 26.4 12.1 28.875 15.125 28.875C18.15 28.875 20.625 26.4 20.625 23.375C20.625 20.35 18.15 17.875 15.125 17.875ZM15.125 26.125C13.6125 26.125 12.375 24.8875 12.375 23.375C12.375 21.8625 13.6125 20.625 15.125 20.625C16.6375 20.625 17.875 21.8625 17.875 23.375C17.875 24.8875 16.6375 26.125 15.125 26.125Z" fill="#2C2C2C"/>
<path d="M38.5 22C37.675 22 37.125 22.55 37.125 23.375V38.5H24.75V35.75C24.75 35.0625 24.6125 34.375 24.2 33.6875C23.7875 33 23.375 32.5875 22.6875 32.175C20.35 30.8 17.7375 30.1125 15.125 30.25C12.5125 30.25 9.7625 30.9375 7.425 32.175C6.875 32.5875 6.325 33 5.9125 33.6875C5.6375 34.375 5.5 35.0625 5.5 35.75V38.5H2.75V12.375H17.875C18.7 12.375 19.25 11.825 19.25 11C19.25 10.175 18.7 9.625 17.875 9.625H1.375C0.55 9.625 0 10.175 0 11V39.875C0 40.7 0.55 41.25 1.375 41.25H5.5H8.25H22H24.75H38.5C39.325 41.25 39.875 40.7 39.875 39.875V23.375C39.875 22.55 39.325 22 38.5 22ZM8.25 38.5V35.75C8.25 35.475 8.25 35.3375 8.3875 35.0625C8.525 34.7875 8.6625 34.65 8.8 34.5125C10.725 33.55 12.925 33 15.125 33C17.325 33 19.3875 33.55 21.3125 34.65C21.45 34.7875 21.725 34.925 21.8625 35.2C22 35.3375 22 35.475 22 35.75V38.5H8.25Z" fill="#2C2C2C"/>
<path d="M27.5 23.375C27.225 23.375 27.0875 23.375 26.8125 23.2375C26.4 22.9625 26.125 22.55 26.125 22V19.1125C25.1625 18.8375 24.3375 18.425 23.65 17.7375C22.55 16.6375 22 15.2625 22 13.75V6.875C22 5.3625 22.55 3.9875 23.65 3.025C24.6125 1.925 25.9875 1.375 27.5 1.375H38.5C40.0125 1.375 41.3875 1.925 42.35 3.025C43.45 3.9875 44 5.3625 44 6.875V13.75C44 15.2625 43.45 16.6375 42.35 17.6C41.3875 18.7 40.0125 19.25 38.5 19.25H34.7875L28.1875 23.2375C28.05 23.375 27.775 23.375 27.5 23.375ZM27.5 4.125C26.8125 4.125 26.125 4.4 25.575 4.95C25.025 5.5 24.75 6.1875 24.75 6.875V13.75C24.75 14.4375 25.025 15.125 25.575 15.675C26.125 16.225 26.8125 16.5 27.5 16.5C28.325 16.5 28.875 17.05 28.875 17.875V19.525L33.6875 16.6375C33.825 16.5 34.1 16.5 34.375 16.5H38.5C39.1875 16.5 39.875 16.225 40.425 15.675C40.975 15.125 41.25 14.4375 41.25 13.75V6.875C41.25 6.1875 40.975 5.5 40.425 4.95C39.875 4.4 39.1875 4.125 38.5 4.125H27.5Z" fill="#DD2C03"/>
</svg>
