<svg width="44" height="44" viewBox="0 0 44 44" fill="none" xmlns="http://www.w3.org/2000/svg">
<path fill-rule="evenodd" clip-rule="evenodd" d="M6.875 11C6.875 10.175 7.425 9.625 8.25 9.625H15.125C15.95 9.625 16.5 10.175 16.5 11C16.5 11.825 15.95 12.375 15.125 12.375H8.25C7.425 12.375 6.875 11.825 6.875 11Z" fill="#DD2C03"/>
<path d="M35.75 12.375C36.575 12.375 37.125 11.825 37.125 11C37.125 10.175 36.575 9.625 35.75 9.625C34.925 9.625 34.375 10.175 34.375 11C34.375 11.825 34.925 12.375 35.75 12.375Z" fill="#DD2C03"/>
<path fill-rule="evenodd" clip-rule="evenodd" d="M6.875 33C6.875 32.175 7.425 31.625 8.25 31.625H15.125C15.95 31.625 16.5 32.175 16.5 33C16.5 33.825 15.95 34.375 15.125 34.375H8.25C7.425 34.375 6.875 33.825 6.875 33Z" fill="#DD2C03"/>
<path d="M35.75 34.375C36.575 34.375 37.125 33.825 37.125 33C37.125 32.175 36.575 31.625 35.75 31.625C34.925 31.625 34.375 32.175 34.375 33C34.375 33.825 34.925 34.375 35.75 34.375Z" fill="#DD2C03"/>
<path d="M42.625 19.25C43.45 19.25 44 18.7 44 17.875V4.125C44 3.3 43.45 2.75 42.625 2.75H1.375C0.55 2.75 0 3.3 0 4.125V17.875C0 18.7 0.55 19.25 1.375 19.25H5.5V24.75H1.375C0.55 24.75 0 25.3 0 26.125V39.875C0 40.7 0.55 41.25 1.375 41.25H42.625C43.45 41.25 44 40.7 44 39.875V26.125C44 25.3 43.45 24.75 42.625 24.75H38.5V19.25H42.625ZM2.75 5.5H41.25V16.5H2.75V5.5ZM41.25 38.5H2.75V27.5H41.25V38.5ZM35.75 24.75H8.25V19.25H35.75V24.75Z" fill="#2C2C2C"/>
</svg>
