<svg width="32" height="32" viewBox="0 0 32 32" fill="none" xmlns="http://www.w3.org/2000/svg">
<path fill-rule="evenodd" clip-rule="evenodd" d="M8 10C10.8 10 13 7.8 13 5C13 2.2 10.8 0 8 0C5.2 0 3 2.2 3 5C3 7.8 5.2 10 8 10ZM8 2C9.7 2 11 3.3 11 5C11 6.7 9.7 8 8 8C6.3 8 5 6.7 5 5C5 3.3 6.3 2 8 2Z" fill="white"/>
<path fill-rule="evenodd" clip-rule="evenodd" d="M4.9 10.6C1.9 11.9 0 14.8 0 18V21C0 21.6 0.4 22 1 22H3.1L4 31.1C4.1 31.6 4.5 32 5 32H11C11.5 32 11.9 31.6 12 31.1L12.4 27.3C12.5 26.8 12.1 26.3 11.5 26.2C11 26.1 10.5 26.5 10.4 27.1L10.1 30H5.9L5 20.9C4.9 20.4 4.5 20 4 20H2V18C2 15.6 3.4 13.4 5.7 12.5C7.9 11.6 10.5 12.1 12.2 13.7C12.6 14.1 13.2 14.1 13.6 13.7C14 13.3 14 12.7 13.6 12.3C11.3 10 7.9 9.4 4.9 10.6Z" fill="white"/>
<path fill-rule="evenodd" clip-rule="evenodd" d="M28.1 11.5C27.2 10 25.9 8.9 24.3 8.4C25.6 7.6 26.5 6.2 26.5 4.5C26.5 2 24.5 0 22 0C19.5 0 17.5 2 17.5 4.5C17.5 6.2 18.4 7.6 19.7 8.4C18.6 8.8 17.5 9.5 16.7 10.4C16.3 10.8 16.4 11.4 16.8 11.8C17.2 12.2 17.8 12.1 18.2 11.7C19.3 10.5 20.8 9.9 22.5 10C24.1 10.2 25.5 11.1 26.3 12.5C26.6 13 27.2 13.1 27.7 12.9C28.2 12.6 28.3 12 28.1 11.5ZM22 7C20.6 7 19.5 5.9 19.5 4.5C19.5 3.1 20.6 2 22 2C23.4 2 24.5 3.1 24.5 4.5C24.5 5.9 23.4 7 22 7Z" fill="white"/>
<path fill-rule="evenodd" clip-rule="evenodd" d="M21 13C16.6 13 13 16.6 13 21C13 25.4 16.6 29 21 29C22.8 29 24.6 28.4 25.9 27.3L30.3 31.7C30.7 32.1 31.3 32.1 31.7 31.7C32.1 31.3 32.1 30.7 31.7 30.3L27.3 25.9C28.4 24.5 29 22.8 29 21C29 16.6 25.4 13 21 13ZM25.3 25.2C26.4 24.1 27 22.6 27 21C27 17.7 24.3 15 21 15C17.7 15 15 17.7 15 21C15 24.3 17.7 27 21 27C22.7 27 24.2 26.3 25.3 25.2C25.2 25.2 25.2 25.2 25.3 25.2C25.2 25.2 25.2 25.2 25.3 25.2Z" fill="#DD2C03"/>
</svg>
