<svg width="44" height="44" viewBox="0 0 44 44" fill="none" xmlns="http://www.w3.org/2000/svg">
<path fill-rule="evenodd" clip-rule="evenodd" d="M11 13.75C14.85 13.75 17.875 10.725 17.875 6.875C17.875 3.025 14.85 0 11 0C7.15 0 4.125 3.025 4.125 6.875C4.125 10.725 7.15 13.75 11 13.75ZM11 2.75C13.3375 2.75 15.125 4.5375 15.125 6.875C15.125 9.2125 13.3375 11 11 11C8.6625 11 6.875 9.2125 6.875 6.875C6.875 4.5375 8.6625 2.75 11 2.75Z" fill="#2C2C2C"/>
<path fill-rule="evenodd" clip-rule="evenodd" d="M6.7375 14.5748C2.6125 16.3623 0 20.3498 0 24.7498V28.8748C0 29.6998 0.55 30.2498 1.375 30.2498H4.2625L5.5 42.7623C5.6375 43.4498 6.1875 43.9998 6.875 43.9998H15.125C15.8125 43.9998 16.3625 43.4498 16.5 42.7623L17.05 37.5373C17.1875 36.8498 16.6375 36.1623 15.8125 36.0248C15.125 35.8873 14.4375 36.4373 14.3 37.2623L13.8875 41.2498H8.1125L6.875 28.7373C6.7375 28.0498 6.1875 27.4998 5.5 27.4998H2.75V24.7498C2.75 21.4498 4.675 18.4248 7.8375 17.1873C10.8625 15.9498 14.4375 16.6373 16.775 18.8373C17.325 19.3873 18.15 19.3873 18.7 18.8373C19.25 18.2873 19.25 17.4623 18.7 16.9123C15.5375 13.7498 10.8625 12.9248 6.7375 14.5748Z" fill="#2C2C2C"/>
<path fill-rule="evenodd" clip-rule="evenodd" d="M38.6374 15.8125C37.3999 13.75 35.6124 12.2375 33.4124 11.55C35.1999 10.45 36.4374 8.525 36.4374 6.1875C36.4374 2.75 33.6874 0 30.2499 0C26.8124 0 24.0624 2.75 24.0624 6.1875C24.0624 8.525 25.2999 10.45 27.0874 11.55C25.5749 12.1 24.0624 13.0625 22.9624 14.3C22.4124 14.85 22.5499 15.675 23.0999 16.225C23.6499 16.775 24.4749 16.6375 25.0249 16.0875C26.5374 14.4375 28.5999 13.6125 30.9374 13.75C33.1374 14.025 35.0624 15.2625 36.1624 17.1875C36.5749 17.875 37.3999 18.0125 38.0874 17.7375C38.7749 17.325 38.9124 16.5 38.6374 15.8125ZM30.2499 9.625C28.3249 9.625 26.8124 8.1125 26.8124 6.1875C26.8124 4.2625 28.3249 2.75 30.2499 2.75C32.1749 2.75 33.6874 4.2625 33.6874 6.1875C33.6874 8.1125 32.1749 9.625 30.2499 9.625Z" fill="#2C2C2C"/>
<path fill-rule="evenodd" clip-rule="evenodd" d="M28.875 17.875C22.825 17.875 17.875 22.825 17.875 28.875C17.875 34.925 22.825 39.875 28.875 39.875C31.35 39.875 33.825 39.05 35.6125 37.5375L41.6625 43.5875C42.2125 44.1375 43.0375 44.1375 43.5875 43.5875C44.1375 43.0375 44.1375 42.2125 43.5875 41.6625L37.5375 35.6125C39.05 33.6875 39.875 31.35 39.875 28.875C39.875 22.825 34.925 17.875 28.875 17.875ZM34.7875 34.65C36.3 33.1375 37.125 31.075 37.125 28.875C37.125 24.3375 33.4125 20.625 28.875 20.625C24.3375 20.625 20.625 24.3375 20.625 28.875C20.625 33.4125 24.3375 37.125 28.875 37.125C31.2125 37.125 33.275 36.1625 34.7875 34.65C34.65 34.65 34.65 34.65 34.7875 34.65C34.65 34.65 34.65 34.65 34.7875 34.65Z" fill="#DD2C03"/>
</svg>
