<svg width="32" height="32" viewBox="0 0 32 32" fill="none" xmlns="http://www.w3.org/2000/svg">
<g clip-path="url(#clip0)">
<path d="M28 22.7C27.4 22.7 27 23.1 27 23.7V26C27 27.7 25.7 29 24 29C22.3 29 21 27.7 21 26V7C21 5.1 20.3 3.4 18.9 2.1C17.6 0.7 15.9 0 14 0C10.1 0 7 3.1 7 7V8H3.8C1.8 7.9 0 9.5 0 11.6V16V24.6C0.2 28.9 3.8 32.2 8 32C8.1 32 8.2 32 8.3 32C12.4 32 15.9 28.7 16 24.6V16.1V11.7C15.9 9.7 14.2 8.1 12.2 8.2L9 8V7C9 4.2 11.2 2 14 2C15.3 2 16.6 2.5 17.5 3.5C18.4 4.5 19 5.7 19 7V26C19 28.8 21.2 31 24 31C26.8 31 29 28.8 29 26V23.7C29 23.1 28.6 22.7 28 22.7ZM3.7 10C3.8 10 3.8 10 3.7 10H7V15H2V11.6C2 10.7 2.8 10 3.7 10ZM8 30C4.8 30.1 2.2 27.6 2 24.5V17H14V24.5C13.9 27.7 11.2 30.1 8 30ZM12.2 10C13.1 10 13.9 10.7 14 11.6V15H9V10H12.2Z" fill="white"/>
<path d="M31.9 5.4998L28.9 0.499805C28.5 -0.100195 27.5 -0.100195 27.2 0.499805L24.2 5.4998C24 5.5998 24 5.7998 24 5.9998V7.9998V18.9998V20.3998C24.1 22.3998 25.8 23.9998 27.8 23.9998C27.9 23.9998 27.9 23.9998 28 23.9998C30.1 24.0998 31.9 22.4998 32 20.2998V5.9998C32 5.7998 32 5.5998 31.9 5.4998ZM26 8.9998H30V17.9998H26V8.9998ZM28 2.8998L30 6.1998V6.9998H26V6.2998L28 2.8998ZM28.1 21.9998H28C27 21.9998 26.1 21.2998 26.1 20.2998V19.9998H30.1V20.2998C29.9 21.2998 29.1 21.9998 28.1 21.9998Z" fill="#DD2C03"/>
</g>
<defs>
<clipPath id="clip0">
<rect width="32" height="32" fill="white"/>
</clipPath>
</defs>
</svg>
