<svg width="44" height="44" viewBox="0 0 44 44" fill="none" xmlns="http://www.w3.org/2000/svg">
<g clip-path="url(#clip0)">
<path d="M38.5 31.2125C37.675 31.2125 37.125 31.7625 37.125 32.5875V35.75C37.125 38.0875 35.3375 39.875 33 39.875C30.6625 39.875 28.875 38.0875 28.875 35.75V9.625C28.875 7.0125 27.9125 4.675 25.9875 2.8875C24.2 0.9625 21.8625 0 19.25 0C13.8875 0 9.625 4.2625 9.625 9.625V11H5.225C2.475 10.8625 0 13.0625 0 15.95V22V33.825C0.275 39.7375 5.225 44.275 11 44C11.1375 44 11.275 44 11.4125 44C17.05 44 21.8625 39.4625 22 33.825V22.1375V16.0875C21.8625 13.3375 19.525 11.1375 16.775 11.275L12.375 11V9.625C12.375 5.775 15.4 2.75 19.25 2.75C21.0375 2.75 22.825 3.4375 24.0625 4.8125C25.3 6.1875 26.125 7.8375 26.125 9.625V35.75C26.125 39.6 29.15 42.625 33 42.625C36.85 42.625 39.875 39.6 39.875 35.75V32.5875C39.875 31.7625 39.325 31.2125 38.5 31.2125ZM5.0875 13.75C5.225 13.75 5.225 13.75 5.0875 13.75H9.625V20.625H2.75V15.95C2.75 14.7125 3.85 13.75 5.0875 13.75ZM11 41.25C6.6 41.3875 3.025 37.95 2.75 33.6875V23.375H19.25V33.6875C19.1125 38.0875 15.4 41.3875 11 41.25ZM16.775 13.75C18.0125 13.75 19.1125 14.7125 19.25 15.95V20.625H12.375V13.75H16.775Z" fill="#2C2C2C"/>
<path d="M43.8625 7.56211L39.7375 0.687109C39.1875 -0.137891 37.8125 -0.137891 37.4 0.687109L33.275 7.56211C33 7.69961 33 7.97461 33 8.24961V10.9996V26.1246V28.0496C33.1375 30.7996 35.475 32.9996 38.225 32.9996C38.3625 32.9996 38.3625 32.9996 38.5 32.9996C41.3875 33.1371 43.8625 30.9371 44 27.9121V8.24961C44 7.97461 44 7.69961 43.8625 7.56211ZM35.75 12.3746H41.25V24.7496H35.75V12.3746ZM38.5 3.98711L41.25 8.52461V9.62461H35.75V8.66211L38.5 3.98711ZM38.6375 30.2496H38.5C37.125 30.2496 35.8875 29.2871 35.8875 27.9121V27.4996H41.3875V27.9121C41.1125 29.2871 40.0125 30.2496 38.6375 30.2496Z" fill="#DD2C03"/>
</g>
<defs>
<clipPath id="clip0">
<path d="M0 0H44V44H0V0Z" fill="white"/>
</clipPath>
</defs>
</svg>
