<svg width="101" height="25" viewBox="0 0 101 25" fill="none" xmlns="http://www.w3.org/2000/svg">
<path fill-rule="evenodd" clip-rule="evenodd" d="M38.959 24.5865C39.3423 24.5865 39.5336 24.3845 39.5336 23.981V21.863C39.5336 21.4595 39.3423 21.2578 38.959 21.2578L30.9853 21.257C31.7525 19.3216 36.6625 14.6093 38.3514 11.9242C38.9789 10.9268 39.2975 10.1565 39.2975 9.65392C39.2975 9.07114 39.0165 7.77064 37.0337 7.77064H27.672C27.2894 7.77064 27.0976 7.97265 27.0976 8.37613V10.4614C27.0976 10.8646 27.2894 11.0666 27.672 11.0666L34.8035 11.0664C34.4453 11.7547 29.7142 16.7815 27.9612 19.7769C27.5004 20.5643 26.863 21.8145 26.863 22.7703C26.863 23.981 27.5836 24.5865 29.0255 24.5865H38.959ZM59.6385 13.5889C59.6385 12.275 58.8153 10.3249 56.3547 10.3249C55.4315 10.3249 53.0196 10.6822 52.6443 14.3624H58.9291C59.4019 14.3624 59.6385 14.1052 59.6385 13.5889ZM59.5035 17.4228H52.4751C52.4751 19.6516 54.0214 21.6269 56.5297 21.6269C58.0613 21.6269 59.4361 21.1001 60.6522 20.0458C61.0592 19.6407 61.3526 20.1007 61.3622 20.1133C61.3622 20.1133 62.5493 21.7859 62.7134 22.0134C62.7561 22.0872 62.8152 22.2657 62.5446 22.5348C60.9446 24.1273 58.9063 24.9227 56.4283 24.9227C51.3165 24.9227 48.691 20.7673 48.691 16.0442C48.691 10.3709 52.3434 7.19895 56.4963 7.19895C60.0711 7.19895 63.1866 9.91578 63.1866 13.6898C63.1866 16.1783 61.9581 17.4228 59.5035 17.4228ZM92.238 10.8984C92.6213 10.8984 92.8126 10.6964 92.8126 10.2929V8.37123C92.8126 7.96774 92.6213 7.77064 92.238 7.77064H88.1157V3.84053C88.1157 3.45974 87.913 3.26883 87.5079 3.26883H84.8721C84.4665 3.26883 84.2638 3.45974 84.2638 3.84053V7.77064H82.0676C81.685 7.77064 81.4932 7.96774 81.4932 8.37123V10.2929C81.4932 10.6964 81.685 10.8984 82.0676 10.8984L84.2638 10.8982V18.97C84.2638 21.372 85.1645 22.6916 85.6152 23.2073C86.0655 23.7233 87.2119 24.8613 89.5348 24.8553C91.6058 24.8499 93.3108 23.7117 94.029 22.9718C94.3123 22.6798 94.2641 22.5128 94.1091 22.3119C94.0653 22.2551 92.7789 20.5842 92.7789 20.5842C92.59 20.3236 92.2639 20.3388 92.0693 20.5168C91.6068 20.8958 90.6219 21.7368 89.2901 21.2441C88.3218 20.8857 88.1157 19.8105 88.1157 19.0035V10.8984H92.238ZM65.7882 24.0146C65.7882 24.3961 65.9909 24.5865 66.3963 24.5865H69.0321C69.4377 24.5865 69.6404 24.3961 69.6404 24.0146V11.3357C70.4273 10.8038 72.8876 9.97821 74.6758 11.0246C75.7606 11.6597 76.1696 13.3903 76.1615 15.4049L76.1613 24.0146C76.1613 24.3961 76.364 24.5865 76.7694 24.5865H79.4054C79.8105 24.5865 80.0137 24.3961 80.0137 24.0146V15.1358C80.0137 9.88946 77.6029 7.23868 72.7826 7.19895C70.4478 7.1796 67.8615 8.07094 66.4979 9.25044C66.0277 9.65728 65.7885 10.1474 65.7885 10.7302L65.7882 24.0146ZM45.2782 7.77064H42.6424C42.237 7.77064 42.0343 7.96155 42.0343 8.34259V24.0146C42.0343 24.3961 42.237 24.5865 42.6424 24.5865H45.2782C45.6836 24.5865 45.8865 24.3961 45.8865 24.0146V8.34259C45.8865 7.96155 45.6836 7.77064 45.2782 7.77064ZM23.2814 7.77064H20.6456C20.2403 7.77064 20.0373 7.96155 20.0373 8.34259V24.0146C20.0373 24.3961 20.2403 24.5865 20.6456 24.5865H23.2814C23.6868 24.5865 23.8895 24.3961 23.8895 24.0146V8.34259C23.8895 7.96155 23.6868 7.77064 23.2814 7.77064ZM43.9604 0.506348C42.6727 0.506348 41.629 1.54525 41.629 2.82717C41.629 4.10857 42.6727 5.14747 43.9604 5.14747C45.2479 5.14747 46.2917 4.10857 46.2917 2.82717C46.2917 1.54525 45.2479 0.506348 43.9604 0.506348ZM21.9634 0.506348C20.6757 0.506348 19.6319 1.54525 19.6319 2.82717C19.6319 4.10857 20.6757 5.14747 21.9634 5.14747C23.2511 5.14747 24.2949 4.10857 24.2949 2.82717C24.2949 1.54525 23.2511 0.506348 21.9634 0.506348ZM7.44007 23.8802C2.98654 18.6534 0.95366 8.44656 0.931887 8.32505C0.887564 8.07739 0.997464 7.77064 1.45935 7.77064H4.33152C4.62389 7.77064 4.80922 7.91563 4.87194 8.20793C6.02615 13.5688 8.24151 18.7022 9.29851 20.1471C10.3555 18.7022 12.5706 13.5688 13.7251 8.20793C13.7878 7.91563 13.9731 7.77064 14.2655 7.77064H17.1377C17.5996 7.77064 17.7095 8.07739 17.6651 8.32505C17.6436 8.44656 15.6105 18.6534 11.157 23.8802C10.6606 24.4627 10.0678 24.7545 9.29825 24.7545C8.52922 24.7545 7.93643 24.4627 7.44007 23.8802Z" fill="#FF4E02"/>
<path fill-rule="evenodd" clip-rule="evenodd" d="M100.303 22.0146L99.5446 23.5894L98.7717 22.0146H98.4197V24.5862H98.7611V22.6503L99.3995 23.9542H99.6825L100.314 22.6286V24.5862H100.659V22.0146H100.303ZM96.0504 22.0146L96.0068 22.3144H96.8412V24.5862H97.2007V22.3144H97.9951L98.0389 22.0146H96.0504Z" fill="#FF4E02"/>
</svg>
