<svg width="114" height="36" viewBox="0 0 114 36" fill="none" xmlns="http://www.w3.org/2000/svg">
<path fill-rule="evenodd" clip-rule="evenodd" d="M11.4997 21.3282L10.7411 22.0849L9.98275 21.3282L10.7411 20.5715L11.4997 21.3282ZM13.7753 23.598L13.0169 24.3547L12.2583 23.598L13.0169 22.8413L13.7753 23.598ZM7.70691 20.5715L8.46552 19.8148L9.22414 20.5715L8.46552 21.3282L7.70691 20.5715ZM11.4997 24.3547L10.7411 25.1111L9.98248 24.3547L10.7411 23.598L11.4997 24.3547ZM9.22386 25.1114L8.46552 25.8681L7.70691 25.1114L8.46552 24.3547L9.22386 25.1114ZM9.98248 27.3814L9.22414 28.1379L8.46552 27.3814L9.22414 26.6248L9.98248 27.3814ZM18.5971 12.7353L11.4997 19.815L10.7411 19.0584L9.98248 18.3017L9.22414 19.0584L8.46552 18.3017L9.22386 17.545L6.9483 15.2749L6.18968 16.0316L6.9483 16.7883L6.18968 17.545L5.43134 16.7883L3.91411 18.3017L4.67273 19.0584L5.43107 18.3017L6.18968 19.0584L6.9483 18.3017L7.70691 19.0584L6.9483 19.815L6.18968 19.0584L5.43134 19.8148L4.67273 19.0584L3.91411 19.815L5.43107 21.3282L6.18968 20.5715L7.70691 22.0849L6.9483 22.8416L7.70691 23.598L6.18968 25.1111L6.9483 25.8681L7.70691 26.6248L6.9483 27.3814L7.70691 28.1381L6.18968 29.6513L5.43134 28.8946L6.9483 27.3814L5.43107 25.8681L4.67273 26.6248L5.43107 27.3814L4.67273 28.1379L3.91411 27.3814L3.1555 28.1381L3.91411 28.8946L3.1555 29.6513L3.91411 30.408L4.67273 29.6513L5.43107 30.408L4.67273 31.1644L3.91411 30.408L2.39689 31.9211L3.1555 32.6778L3.91411 31.9211L4.67273 32.6778L3.1555 34.1912L3.42597 34.4607C3.69562 34.7296 4.13261 34.7296 4.40226 34.4609L6.9483 31.9211L6.18968 31.1644L6.9483 30.4077L7.70691 31.1644L11.4997 27.3814L18.5969 34.4609C18.8668 34.7296 19.3041 34.7296 19.5737 34.4607L22.3899 31.6516C22.6596 31.3826 22.6596 30.9464 22.3897 30.6775L15.2925 23.598L22.3899 16.5188C22.6596 16.2498 22.6596 15.8136 22.3897 15.5447L19.5737 12.7356C19.3041 12.4666 18.8668 12.4666 18.5971 12.7353ZM1.63827 29.6513L0.879931 30.408L1.63827 31.1644L2.39689 30.408L1.63827 29.6513ZM0.879931 31.9211L1.63855 32.6778L2.39689 31.9211L1.63827 31.1644L0.879931 31.9211ZM3.1555 14.5185L2.39689 15.2749L3.1555 16.0316L3.91411 15.2749L3.1555 14.5185ZM5.43107 13.7618L4.67273 14.5185L5.43107 15.2749L6.18968 14.5185L5.43107 13.7618ZM3.1555 16.0316L2.39689 16.7883L3.1555 17.545L3.91411 16.7883L3.1555 16.0316ZM5.43107 15.2749L4.67273 16.0316L5.43134 16.7883L6.18968 16.0316L5.43107 15.2749ZM2.39689 18.3017L3.1555 19.0584L3.91411 18.3017L3.1555 17.545L2.39689 18.3017ZM0.879931 15.2749L0.609465 15.5444C0.339814 15.8136 0.339814 16.2498 0.609465 16.5188L0.879659 16.7883L1.63827 16.0316L0.879931 15.2749ZM4.40226 12.7356C4.13261 12.4666 3.69535 12.4666 3.42569 12.7353L3.1555 13.0051L3.91411 13.7618L4.67273 13.0051L4.40226 12.7356ZM103.628 12.0334C101.609 12.0334 99.7389 12.662 98.1988 13.7311V1.01413C98.1988 0.708248 97.9504 0.460449 97.6437 0.460449H93.4787C93.172 0.460449 92.9239 0.708248 92.9239 1.01413V34.1089C92.9239 34.4148 93.172 34.6626 93.4787 34.6626H97.6437C97.9504 34.6626 98.1988 34.4148 98.1988 34.1089V22.007C98.1988 19.3431 100.364 17.1834 103.035 17.1834C105.705 17.1834 107.87 19.3431 107.87 22.007V34.1089C107.87 34.4148 108.118 34.6626 108.425 34.6626H112.59C112.897 34.6626 113.145 34.4148 113.145 34.1089V21.5266C113.145 16.2837 108.884 12.0334 103.628 12.0334ZM90.6945 12.5339H87.2226V7.6143C87.2226 7.36868 86.9739 7.16946 86.6672 7.16946H82.5022C82.1955 7.16946 81.9471 7.36868 81.9471 7.6143V12.5339H80.0595C79.7189 12.5339 79.4427 12.8094 79.4427 13.1492V16.5649C79.4427 16.905 79.7189 17.1805 80.0595 17.1805H81.9471V34.2175C81.9471 34.4634 82.1955 34.6626 82.5022 34.6626H86.6672C86.9739 34.6626 87.2226 34.4634 87.2226 34.2175V17.1805H90.6945C91.0355 17.1805 91.3117 16.905 91.3117 16.5649V13.1492C91.3117 12.8094 91.0355 12.5339 90.6945 12.5339ZM57.8774 29.9962C54.335 29.9962 51.4635 27.132 51.4635 23.5985C51.4635 20.0653 53.9627 17.2008 57.5052 17.2008C61.0471 17.2008 63.299 20.0653 63.299 23.5985C63.299 27.132 61.4194 29.9962 57.8774 29.9962ZM67.9239 12.5339H63.7586C63.4519 12.5339 63.2035 12.7814 63.2035 13.0873V13.5691C61.6109 12.5944 59.7215 12.0342 57.6206 12.0342C51.2175 12.0342 46.2836 17.2117 46.2836 23.5985C46.2836 29.9854 51.4744 35.1631 57.8774 35.1631C59.8918 35.1631 61.6876 34.6498 63.2035 33.7485V34.1089C63.2035 34.4148 63.4519 34.6626 63.7586 34.6626H67.9239C68.2306 34.6626 68.4787 34.4148 68.4787 34.1089V13.0873C68.4787 12.7814 68.2306 12.5339 67.9239 12.5339ZM33.8135 17.194C36.5644 17.194 38.5371 18.9202 39.2835 21.3453H28.1277C28.941 18.9202 31.0626 17.194 33.8135 17.194ZM44.7873 25.3244V23.1605C44.7873 17.0309 39.8168 11.961 33.6723 12.0342C27.3394 12.1097 22.5921 17.2581 22.5921 23.598C22.5921 29.9851 27.783 35.1631 34.1863 35.1631C37.9464 35.1631 41.2867 33.3764 43.405 30.6088C43.5884 30.3694 43.5337 30.0247 43.2847 29.8537L39.8895 27.5193C39.6596 27.3614 39.3502 27.4124 39.1744 27.6287C37.9973 29.0764 36.2006 30.0022 34.1863 30.0022C31.4353 30.0022 29.0896 28.2763 28.1756 25.8507H44.2594C44.5511 25.8507 44.7873 25.6151 44.7873 25.3244ZM72.2356 34.1089V1.01413C72.2356 0.708248 72.484 0.460449 72.7907 0.460449H76.956C77.2626 0.460449 77.5111 0.708248 77.5111 1.01413V34.1089C77.5111 34.4148 77.2626 34.6626 76.956 34.6626H72.7907C72.484 34.6626 72.2356 34.4148 72.2356 34.1089Z" fill="#00B0FF"/>
</svg>
