<svg width="30" height="175" viewBox="0 0 30 175" xmlns="http://www.w3.org/2000/svg"><title>Group 4</title><g fill="none" fill-rule="evenodd"><path d="M15 11v2m0-8v2m0 0a2 2 0 1 1 .001 3.999A2 2 0 0 1 15 7z" stroke="#231F20" stroke-width="2" stroke-linecap="round" stroke-linejoin="round"/><path d="M17 23h-4c-2.8 0-5-2.2-5-5V6c0-2.8 2.2-5 5-5h4c2.8 0 5 2.2 5 5v12c0 2.8-2.2 5-5 5z" stroke="#231F20" stroke-width="2" stroke-linecap="round" stroke-linejoin="round"/><path d="M15 23.5v150" stroke="#231F20" stroke-width="2" stroke-linecap="square"/><path fill="#231F20" d="M0 173h30v2H0z"/></g></svg>