<svg width="44" height="44" viewBox="0 0 44 44" xmlns="http://www.w3.org/2000/svg"><title>Group 9</title><g stroke-width="2" fill="none" fill-rule="evenodd" stroke-linecap="round" stroke-linejoin="round"><path d="M26.914 4.929l11.893 11.893M22.25 7.517C16.408 5 9.372 6.127 4.601 10.9a15.975 15.975 0 0 0-2.458 3.199l6.855 6.856m27.222.468c2.578 5.864 1.467 12.959-3.335 17.76a15.953 15.953 0 0 1-3.2 2.459l-6.916-6.916" stroke="#444"/><path d="M17.329 37.77L6.015 26.456S15.679 2.415 42.785 1c-1.532 26.988-25.456 36.77-25.456 36.77z" stroke="#444"/><path d="M21.571 16.557a4 4 0 1 1 5.657 5.657 4 4 0 0 1-5.657-5.657zM2.215 35.914a4 4 0 0 1 5.657 5.657c-1.562 1.562-6.829 1.17-6.829 1.17s-.39-5.265 1.172-6.827z" stroke="#2866DC"/></g></svg>