<?xml version="1.0" encoding="UTF-8"?>
<svg width="45px" height="45px" viewBox="0 0 45 45" version="1.1" xmlns="http://www.w3.org/2000/svg" xmlns:xlink="http://www.w3.org/1999/xlink">
    <!-- Generator: Sketch 47.1 (45422) - http://www.bohemiancoding.com/sketch -->
    <title>Group 7</title>
    <desc>Created with Sketch.</desc>
    <defs></defs>
    <g id="Visual-1" stroke="none" stroke-width="1" fill="none" fill-rule="evenodd" stroke-linecap="round" stroke-linejoin="round">
        <g id="05_About-Us" transform="translate(-544.000000, -1609.000000)" stroke-width="2">
            <g id="Group-10" transform="translate(0.000000, 1335.000000)">
                <g id="1-copy" transform="translate(459.000000, 200.000000)">
                    <g id="Group" transform="translate(58.000000, 75.000000)">
                        <g id="Group-7" transform="translate(28.000000, 0.000000)">
                            <path d="M19.9801,17 L25.9801,23" id="Stroke-706" stroke="#444444"></path>
                            <polygon id="Stroke-707" stroke="#444444" points="26.021 11.0192 32.031 17.0292 6.01 43.0512 0 37.0402"></polygon>
                            <path d="M17.9801,10 C15.5801,7.6 10.3801,7.6 7.9801,10 C10.3801,7.6 10.3801,2.4 7.9801,0 C10.3801,2.4 15.5801,2.4 17.9801,0 C15.5801,2.4 15.5801,7.6 17.9801,10 L17.9801,10 Z" id="Stroke-708" stroke="#2866DC"></path>
                            <path d="M42.9801,10 C40.5801,7.6 35.3801,7.6 32.9801,10 C35.3801,7.6 35.3801,2.4 32.9801,0 C35.3801,2.4 40.5801,2.4 42.9801,0 C40.5801,2.4 40.5801,7.6 42.9801,10 L42.9801,10 Z" id="Stroke-709" stroke="#2866DC"></path>
                            <path d="M42.9801,35 C40.5801,32.6 35.3801,32.6 32.9801,35 C35.3801,32.6 35.3801,27.4 32.9801,25 C35.3801,27.4 40.5801,27.4 42.9801,25 C40.5801,27.4 40.5801,32.6 42.9801,35 L42.9801,35 Z" id="Stroke-710" stroke="#2866DC"></path>
                        </g>
                    </g>
                </g>
            </g>
        </g>
    </g>
</svg>