<svg width="46" height="44" viewBox="0 0 46 44" xmlns="http://www.w3.org/2000/svg"><title>Group 6</title><g stroke-width="2" fill="none" fill-rule="evenodd" stroke-linecap="round" stroke-linejoin="round"><path stroke="#444" d="M39 7h6v29H18M7 36H1V7h21"/><path d="M38 21H23a1 1 0 0 1-1-1V2a1 1 0 0 1 1-1h15a1 1 0 0 1 1 1v18a1 1 0 0 1-1 1zM17 43H8a1 1 0 0 1-1-1V28a1 1 0 0 1 1-1h9a1 1 0 0 1 1 1v14a1 1 0 0 1-1 1z" stroke="#2866DC"/><path d="M22 41h6" stroke="#444"/><path d="M12 38h1m16-22h3" stroke="#2866DC"/></g></svg>