<svg width="45" height="45" viewBox="0 0 45 45" xmlns="http://www.w3.org/2000/svg"><title>Group 7</title><g stroke-width="2" fill="none" fill-rule="evenodd" stroke-linecap="round" stroke-linejoin="round"><path d="M20.98 18l6 6m.041-11.98l6.01 6.01L7.01 44.05 1 38.041z" stroke="#444"/><path d="M18.98 11c-2.4-2.4-7.6-2.4-10 0 2.4-2.4 2.4-7.6 0-10 2.4 2.4 7.6 2.4 10 0-2.4 2.4-2.4 7.6 0 10zm25 0c-2.4-2.4-7.6-2.4-10 0 2.4-2.4 2.4-7.6 0-10 2.4 2.4 7.6 2.4 10 0-2.4 2.4-2.4 7.6 0 10zm0 25c-2.4-2.4-7.6-2.4-10 0 2.4-2.4 2.4-7.6 0-10 2.4 2.4 7.6 2.4 10 0-2.4 2.4-2.4 7.6 0 10z" stroke="#2866DC"/></g></svg>