<?xml version="1.0" encoding="UTF-8"?>
<svg width="1101px" height="653px" viewBox="0 0 1101 653" version="1.1" xmlns="http://www.w3.org/2000/svg" xmlns:xlink="http://www.w3.org/1999/xlink">
    <!-- Generator: Sketch 39.1 (31720) - http://www.bohemiancoding.com/sketch -->
    <title>Group 6</title>
    <desc>Created with Sketch.</desc>
    <defs>
        <filter x="-50%" y="-50%" width="200%" height="200%" filterUnits="objectBoundingBox" id="filter-1">
            <feOffset dx="0" dy="0" in="SourceAlpha" result="shadowOffsetOuter1"></feOffset>
            <feGaussianBlur stdDeviation="15" in="shadowOffsetOuter1" result="shadowBlurOuter1"></feGaussianBlur>
            <feColorMatrix values="0 0 0 0 0   0 0 0 0 0   0 0 0 0 0  0 0 0 0.1 0" type="matrix" in="shadowBlurOuter1" result="shadowMatrixOuter1"></feColorMatrix>
            <feMerge>
                <feMergeNode in="shadowMatrixOuter1"></feMergeNode>
                <feMergeNode in="SourceGraphic"></feMergeNode>
            </feMerge>
        </filter>
        <filter x="-50%" y="-50%" width="200%" height="200%" filterUnits="objectBoundingBox" id="filter-2">
            <feOffset dx="0" dy="0" in="SourceAlpha" result="shadowOffsetOuter1"></feOffset>
            <feGaussianBlur stdDeviation="15" in="shadowOffsetOuter1" result="shadowBlurOuter1"></feGaussianBlur>
            <feColorMatrix values="0 0 0 0 0   0 0 0 0 0   0 0 0 0 0  0 0 0 0.1 0" type="matrix" in="shadowBlurOuter1" result="shadowMatrixOuter1"></feColorMatrix>
            <feMerge>
                <feMergeNode in="shadowMatrixOuter1"></feMergeNode>
                <feMergeNode in="SourceGraphic"></feMergeNode>
            </feMerge>
        </filter>
        <path d="M80,53 C80,75.0912 62.0912,93 40,93 C17.9088,93 0,75.0912 0,53 C0,30.9088 17.9088,13 40,13 C62.0912,13 80,30.9088 80,53" id="path-3"></path>
        <filter x="-50%" y="-50%" width="200%" height="200%" filterUnits="objectBoundingBox" id="filter-4">
            <feOffset dx="0" dy="0" in="SourceAlpha" result="shadowOffsetOuter1"></feOffset>
            <feGaussianBlur stdDeviation="20" in="shadowOffsetOuter1" result="shadowBlurOuter1"></feGaussianBlur>
            <feColorMatrix values="0 0 0 0 0   0 0 0 0 0   0 0 0 0 0  0 0 0 0.1 0" type="matrix" in="shadowBlurOuter1"></feColorMatrix>
        </filter>
        <path d="M55,27.5 C55,42.6877 42.6877,55 27.5,55 C12.3123,55 0,42.6877 0,27.5 C0,12.3123 12.3123,0 27.5,0 C42.6877,0 55,12.3123 55,27.5" id="path-5"></path>
        <filter x="-50%" y="-50%" width="200%" height="200%" filterUnits="objectBoundingBox" id="filter-6">
            <feOffset dx="0" dy="0" in="SourceAlpha" result="shadowOffsetOuter1"></feOffset>
            <feGaussianBlur stdDeviation="20" in="shadowOffsetOuter1" result="shadowBlurOuter1"></feGaussianBlur>
            <feColorMatrix values="0 0 0 0 0   0 0 0 0 0   0 0 0 0 0  0 0 0 0.1 0" type="matrix" in="shadowBlurOuter1"></feColorMatrix>
        </filter>
        <circle id="path-7" cx="15" cy="15" r="15"></circle>
        <filter x="-50%" y="-50%" width="200%" height="200%" filterUnits="objectBoundingBox" id="filter-8">
            <feOffset dx="0" dy="0" in="SourceAlpha" result="shadowOffsetOuter1"></feOffset>
            <feGaussianBlur stdDeviation="15" in="shadowOffsetOuter1" result="shadowBlurOuter1"></feGaussianBlur>
            <feColorMatrix values="0 0 0 0 0   0 0 0 0 0   0 0 0 0 0  0 0 0 0.1 0" type="matrix" in="shadowBlurOuter1"></feColorMatrix>
        </filter>
        <circle id="path-9" cx="15" cy="15" r="15"></circle>
        <filter x="-50%" y="-50%" width="200%" height="200%" filterUnits="objectBoundingBox" id="filter-10">
            <feOffset dx="0" dy="0" in="SourceAlpha" result="shadowOffsetOuter1"></feOffset>
            <feGaussianBlur stdDeviation="15" in="shadowOffsetOuter1" result="shadowBlurOuter1"></feGaussianBlur>
            <feColorMatrix values="0 0 0 0 0   0 0 0 0 0   0 0 0 0 0  0 0 0 0.1 0" type="matrix" in="shadowBlurOuter1"></feColorMatrix>
        </filter>
    </defs>
    <g id="Page-1" stroke="none" stroke-width="1" fill="none" fill-rule="evenodd">
        <g id="develop" transform="translate(-170.000000, -213.000000)">
            <g id="Group-6" transform="translate(170.000000, 208.000000)">
                <path d="M613.792969,41.484375 L576.34375,150.398438 C576.34375,150.398438 706.570312,187.664062 716.140625,342.769531 L829.253906,341.726562 C829.253906,341.726562 833.601563,255.582031 777.875,166.667969 C722.148438,77.7539062 613.792969,41.484375 613.792969,41.484375 Z" id="Path-3" fill="#F8FDFF"></path>
                <path d="M201.039062,341.03125 L316.707745,341.03125 C316.707745,341.03125 312.457031,520.847656 506.078125,542.136719 C715.300781,541.359375 715.308594,341.886719 715.308594,341.886719 L830.883184,341.886719 C830.883184,341.886719 831.820313,641.542969 510.09375,657.445312 C193.261719,630.785156 201.039062,341.03125 201.039062,341.03125 Z" id="Path-4" fill="#FFFFFF"></path>
                <path d="M200.222656,340.59375 L316.010177,340.59375 C316.010177,340.59375 308.3125,212.570313 443.652344,154.832031 C521.179687,127.167969 577.25,151.902344 577.25,151.902344 L612.355469,43.0429688 C612.355469,43.0429688 444.847656,-15.6992187 315.605469,98.359375 C186.363281,212.417969 200.222656,340.59375 200.222656,340.59375 Z" id="Path-5" fill="#FEFFF6"></path>
                <text id="Start" font-family="MaisonNeue-Demi, Maison Neue" font-size="16" font-weight="500" letter-spacing="0.5" fill="#231F20">
                    <tspan x="5.63" y="328">Start</tspan>
                </text>
                <text id="Define-Requirements" font-family="MaisonNeue-Book, Maison Neue" font-size="14" font-weight="300" fill="#231F20">
                    <tspan x="0" y="365">Define Requirements</tspan>
                </text>
                <g id="1-copy-7" transform="translate(775.000000, 312.000000)">
                    <path d="M0.802448669,30 L254,30" id="Line" stroke="#2ECC71" stroke-width="2" stroke-linecap="round"></path>
                    <polyline id="Stroke-367" stroke="#2ECC71" stroke-width="2" stroke-linecap="round" stroke-linejoin="round" points="248 23 255 30 248 37"></polyline>
                    <g id="Group-5" transform="translate(265.000000, 0.000000)" stroke-width="2" stroke-linecap="round">
                        <circle id="Oval-4" stroke="#DEDEDE" cx="30" cy="30" r="30"></circle>
                        <g id="Group-4" transform="translate(20.000000, 20.000000)" stroke="#231F20" stroke-linejoin="round">
                            <path d="M12.9570297,1.9644 L18.9040297,7.9114" id="Stroke-3883"></path>
                            <path d="M10.6251297,3.2584 C7.70412968,2.0004 4.18612968,2.5644 1.80012968,4.9504 C1.31112968,5.4394 0.908129677,5.9804 0.572129677,6.5494 L3.99912968,9.9774" id="Stroke-4043"></path>
                            <path d="M17.6097297,10.2114 C18.8997297,13.1434 18.3437297,16.6914 15.9427297,19.0924 C15.4537297,19.5814 14.9127297,19.9844 14.3427297,20.3204 L10.8847297,16.8634" id="Stroke-4045"></path>
                            <path d="M8.16442968,18.385 L2.50742968,12.728 C2.50742968,12.728 7.33942968,0.707 20.8924297,0 C20.1264297,13.494 8.16442968,18.385 8.16442968,18.385 L8.16442968,18.385 Z" id="Stroke-4047"></path>
                            <path d="M10.2857297,7.7784 C11.0667297,6.9974 12.3327297,6.9974 13.1137297,7.7784 C13.8947297,8.5594 13.8947297,9.8254 13.1137297,10.6064 C12.3327297,11.3874 11.0667297,11.3874 10.2857297,10.6064 C9.50472968,9.8254 9.50472968,8.5594 10.2857297,7.7784 L10.2857297,7.7784 Z" id="Stroke-4049"></path>
                            <path d="M0.607629677,17.4568 C1.38862968,16.6758 2.65462968,16.6758 3.43562968,17.4568 C4.21662968,18.2378 4.21662968,19.5038 3.43562968,20.2848 C2.65462968,21.0658 0.0216296771,20.8708 0.0216296771,20.8708 C0.0216296771,20.8708 -0.173370323,18.2378 0.607629677,17.4568 L0.607629677,17.4568 Z" id="Stroke-4051"></path>
                        </g>
                    </g>
                    <text id="to-Beta-Users-to-App" font-family="MaisonNeue-Book, Maison Neue" font-size="14" font-weight="300" line-spacing="20" fill="#231F20">
                        <tspan x="151.354" y="53">to Beta Users</tspan>
                        <tspan x="157.598" y="73">to App Store</tspan>
                        <tspan x="170.478" y="93">to Product</tspan>
                    </text>
                    <text id="release" font-family="MaisonNeue-Demi, Maison Neue" font-size="16" font-weight="500" letter-spacing="0.5" fill="#231F20">
                        <tspan x="180.372" y="16">release</tspan>
                    </text>
                </g>
                <g id="Group-275" transform="translate(200.000000, 27.000000)">
                    <path d="M376.8162,124.736 C357.3492,118.416 336.5732,115 315.0002,115 C204.5432,115 115.0002,204.543 115.0002,315 C115.0002,425.457 204.5432,515 315.0002,515 C425.4572,515 515.0002,425.457 515.0002,315 C515.0002,226.117 457.0192,150.775 376.8162,124.736" id="Fill-1" fill="#FFFFFF"></path>
                    <path d="M97.8691,163.5796 L99.0651,161.9016 C99.7461,160.9466 99.9861,160.0006 99.7871,159.0636 C99.5861,158.1266 98.7481,157.1326 97.2711,156.0796 C95.9471,155.1356 94.7771,154.6986 93.7611,154.7686 C92.7451,154.8386 91.9201,155.3186 91.2851,156.2086 L90.0191,157.9836 L97.8691,163.5796 Z M98.2751,166.7666 L86.8751,158.6406 L89.5331,154.9106 C89.9981,154.2596 90.5491,153.7276 91.1871,153.3146 C91.8251,152.9016 92.5331,152.6206 93.3101,152.4706 C94.0901,152.3216 94.9491,152.3726 95.8901,152.6256 C96.8311,152.8796 97.7791,153.3466 98.7341,154.0276 C99.7771,154.7706 100.5821,155.5586 101.1521,156.3896 C101.7231,157.2216 102.0421,158.0306 102.1111,158.8176 C102.1811,159.6036 102.1111,160.3516 101.9001,161.0606 C101.6891,161.7706 101.3441,162.4616 100.8631,163.1346 L98.2751,166.7666 Z" id="Fill-3" fill="#F39C12"></path>
                    <path d="M102.0312,150.8882 L105.2222,146.8322 C104.6112,146.4022 103.9832,146.2142 103.3392,146.2672 C102.6952,146.3202 102.1212,146.6662 101.6192,147.3052 C101.1482,147.9032 100.9722,148.5362 101.0902,149.2052 C101.2092,149.8752 101.5222,150.4362 102.0312,150.8882 M107.5992,148.3722 L109.6662,147.9112 C110.3312,149.7412 110.0742,151.4052 108.8942,152.9032 C107.9882,154.0562 106.8472,154.6812 105.4722,154.7782 C104.0972,154.8762 102.7462,154.4012 101.4142,153.3542 C100.0842,152.3072 99.3022,151.1072 99.0692,149.7532 C98.8362,148.3992 99.1572,147.1672 100.0312,146.0562 C100.9042,144.9462 102.0182,144.3502 103.3712,144.2692 C104.7242,144.1882 106.0712,144.6762 107.4122,145.7312 L107.9472,146.1512 L103.3712,151.9672 C104.0802,152.4902 104.7832,152.7342 105.4802,152.6982 C106.1792,152.6622 106.7792,152.3252 107.2832,151.6852 C107.5212,151.3822 107.6942,151.0762 107.8012,150.7692 C107.9062,150.4622 107.9472,150.1512 107.9242,149.8362 C107.9002,149.5212 107.8632,149.2662 107.8112,149.0732 C107.7602,148.8802 107.6892,148.6462 107.5992,148.3722" id="Fill-5" fill="#F39C12"></path>
                    <polygon id="Fill-7" fill="#F39C12" points="114.9609 145.0156 104.1409 141.3536 105.6759 139.5616 113.0819 142.1676 113.1079 142.1376 109.3979 135.2186 110.9199 133.4406 116.1969 143.5726"></polygon>
                    <path d="M116.5449,133.6221 L120.0629,129.8471 C119.4899,129.3671 118.8799,129.1271 118.2329,129.1261 C117.5879,129.1251 116.9859,129.4221 116.4329,130.0181 C115.9139,130.5731 115.6859,131.1901 115.7479,131.8671 C115.8099,132.5441 116.0749,133.1291 116.5449,133.6221 M122.3039,131.5791 L124.4019,131.2921 C124.9119,133.1711 124.5169,134.8081 123.2169,136.2021 C122.2169,137.2751 121.0279,137.8031 119.6499,137.7861 C118.2719,137.7681 116.9639,137.1831 115.7249,136.0281 C114.4859,134.8741 113.8069,133.6121 113.6879,132.2441 C113.5679,130.8751 113.9909,129.6741 114.9549,128.6401 C115.9179,127.6061 117.0769,127.1051 118.4319,127.1381 C119.7869,127.1701 121.0889,127.7681 122.3379,128.9321 L122.8349,129.3951 L117.7909,134.8091 C118.4519,135.3901 119.1329,135.6911 119.8319,135.7131 C120.5309,135.7361 121.1569,135.4501 121.7119,134.8541 C121.9749,134.5721 122.1729,134.2821 122.3039,133.9841 C122.4349,133.6871 122.5019,133.3811 122.5049,133.0651 C122.5079,132.7491 122.4919,132.4921 122.4559,132.2951 C122.4209,132.0981 122.3699,131.8591 122.3039,131.5791" id="Fill-9" fill="#F39C12"></path>
                    <polygon id="Fill-11" fill="#F39C12" points="128.0664 130.7085 117.7144 120.4115 119.3784 118.7385 129.7304 129.0355"></polygon>
                    <path d="M133.9131,122.5391 C134.4861,122.0001 134.7361,121.3381 134.6661,120.5531 C134.5961,119.7681 134.1771,118.9671 133.4081,118.1521 C132.6411,117.3361 131.8671,116.8701 131.0881,116.7521 C130.3091,116.6341 129.6331,116.8451 129.0601,117.3841 C128.4771,117.9321 128.2191,118.5971 128.2851,119.3761 C128.3511,120.1571 128.7731,120.9591 129.5501,121.7851 C130.3361,122.6201 131.1131,123.0911 131.8841,123.1991 C132.6541,123.3081 133.3301,123.0871 133.9131,122.5391 M136.8661,120.5551 C136.8781,121.9001 136.3631,123.0611 135.3251,124.0391 C134.2861,125.0171 133.0921,125.4641 131.7401,125.3811 C130.3891,125.2981 129.1111,124.6151 127.9041,123.3341 C126.7171,122.0721 126.1271,120.7501 126.1351,119.3681 C126.1431,117.9871 126.6481,116.8251 127.6481,115.8841 C128.6481,114.9431 129.8331,114.5141 131.2031,114.5981 C132.5721,114.6821 133.8511,115.3541 135.0401,116.6161 C136.2461,117.8981 136.8551,119.2111 136.8661,120.5551" id="Fill-13" fill="#F39C12"></path>
                    <path d="M138.042,112.3291 L139.711,114.2711 C140.109,114.7361 140.623,114.9851 141.249,115.0181 C141.875,115.0521 142.461,114.8341 143.008,114.3651 C143.665,113.8001 143.986,113.1201 143.971,112.3251 C143.955,111.5291 143.578,110.7021 142.84,109.8421 C142.102,108.9821 141.338,108.4871 140.549,108.3561 C139.76,108.2251 139.041,108.4381 138.395,108.9941 C137.838,109.4721 137.538,110.0291 137.494,110.6631 C137.451,111.2991 137.634,111.8531 138.042,112.3291 L138.042,112.3291 Z M143.507,122.1891 L133.667,110.7351 L135.32,109.3141 L135.985,110.0881 L136.016,110.0621 C135.958,108.9521 136.409,107.9831 137.371,107.1581 C138.342,106.3241 139.506,105.9921 140.864,106.1611 C142.223,106.3301 143.457,107.0611 144.569,108.3561 C145.69,109.6611 146.242,110.9841 146.226,112.3251 C146.209,113.6671 145.695,114.7721 144.684,115.6411 C143.764,116.4311 142.759,116.7141 141.67,116.4901 L141.639,116.5161 L145.236,120.7031 L143.507,122.1891 Z" id="Fill-15" fill="#F39C12"></path>
                    <path d="M149.9268,110.7646 L143.4828,102.3486 L145.1348,101.0836 L145.7538,101.8936 L145.7858,101.8696 C145.7518,101.4086 145.8478,100.9366 146.0738,100.4526 C146.2998,99.9696 146.6298,99.5606 147.0648,99.2286 C147.5408,98.8636 148.0528,98.6446 148.5998,98.5696 C149.1468,98.4946 149.6508,98.5496 150.1118,98.7346 L150.1428,98.7096 C150.1038,98.2206 150.1988,97.7096 150.4318,97.1796 C150.6638,96.6486 151.0238,96.1976 151.5098,95.8246 C152.4738,95.0866 153.4418,94.7656 154.4128,94.8616 C155.3848,94.9576 156.2068,95.4446 156.8788,96.3236 L161.2808,102.0716 L159.6138,103.3476 L155.5288,98.0126 C154.6858,96.9116 153.7448,96.7586 152.7068,97.5526 C152.1988,97.9416 151.9178,98.3796 151.8638,98.8676 C151.8078,99.3546 151.9588,99.8306 152.3148,100.2966 L156.4858,105.7436 L154.8018,107.0326 L150.7168,101.6966 C150.3278,101.1886 149.8908,100.8856 149.4048,100.7876 C148.9178,100.6896 148.4198,100.8356 147.9118,101.2246 C147.3928,101.6216 147.1118,102.0646 147.0648,102.5526 C147.0198,103.0416 147.1708,103.5136 147.5198,103.9686 L151.6898,109.4156 L149.9268,110.7646 Z" id="Fill-17" fill="#F39C12"></path>
                    <path d="M161.6318,94.1563 L165.8948,91.2493 C165.4418,90.6553 164.8998,90.2863 164.2698,90.1423 C163.6388,89.9993 162.9878,90.1573 162.3168,90.6153 C161.6878,91.0433 161.3298,91.5943 161.2398,92.2683 C161.1518,92.9433 161.2808,93.5723 161.6318,94.1563 M167.6988,93.4323 L169.8088,93.6153 C169.8918,95.5603 169.1458,97.0693 167.5698,98.1433 C166.3588,98.9693 165.0818,99.2223 163.7418,98.9023 C162.4028,98.5813 161.2548,97.7213 160.3008,96.3223 C159.3478,94.9233 158.9628,93.5433 159.1488,92.1823 C159.3338,90.8213 160.0098,89.7423 161.1778,88.9463 C162.3458,88.1503 163.5868,87.9173 164.9018,88.2473 C166.2158,88.5773 167.3538,89.4483 168.3158,90.8573 L168.6978,91.4193 L162.5838,95.5883 C163.1018,96.3003 163.6988,96.7443 164.3768,96.9203 C165.0528,97.0963 165.7278,96.9553 166.3998,96.4973 C166.7188,96.2793 166.9748,96.0403 167.1678,95.7793 C167.3608,95.5183 167.4938,95.2343 167.5678,94.9263 C167.6398,94.6183 167.6808,94.3643 167.6898,94.1643 C167.6988,93.9653 167.7008,93.7203 167.6988,93.4323" id="Fill-19" fill="#F39C12"></path>
                    <path d="M173.4414,93.8589 L167.8694,84.8419 L169.7404,83.6859 L170.2764,84.5529 L170.3104,84.5319 C170.3634,84.0609 170.5454,83.5799 170.8534,83.0909 C171.1634,82.6029 171.5614,82.2069 172.0484,81.9059 C173.0464,81.2889 174.0164,81.1009 174.9574,81.3419 C175.8984,81.5839 176.6954,82.2319 177.3464,83.2869 L180.9964,89.1899 L179.0734,90.3779 L175.7404,84.9849 C174.8774,83.5899 173.8614,83.2539 172.6934,83.9759 C172.1034,84.3399 171.7384,84.8009 171.5974,85.3589 C171.4564,85.9169 171.5644,86.4839 171.9214,87.0629 L175.3804,92.6599 L173.4414,93.8589 Z" id="Fill-21" fill="#F39C12"></path>
                    <path d="M182.4346,84.2827 L179.9196,79.8457 L178.5276,80.6357 L177.5606,78.9297 L179.0056,78.1117 L177.7226,75.8497 L179.6016,74.7837 L180.8846,77.0457 L183.1986,75.7347 L184.1646,77.4397 L181.8686,78.7407 L184.2656,82.9697 C184.5546,83.4797 184.8346,83.7917 185.1066,83.9067 C185.3776,84.0207 185.7576,83.9397 186.2446,83.6627 L186.9756,83.2487 L188.0606,85.1627 L187.1726,85.6657 C186.0596,86.2977 185.1426,86.4907 184.4216,86.2477 C183.7026,86.0057 183.0386,85.3497 182.4346,84.2827" id="Fill-23" fill="#F39C12"></path>
                    <path d="M200.5098,72.6167 L202.9568,71.9767 C203.5038,73.4607 203.5488,74.8567 203.0898,76.1637 C202.6298,77.4717 201.6988,78.4687 200.2988,79.1537 C198.7048,79.9317 197.1298,80.0117 195.5728,79.3917 C194.0168,78.7727 192.6978,77.3547 191.6138,75.1387 C190.6078,73.0777 190.3598,71.2287 190.8728,69.5907 C191.3858,67.9527 192.3848,66.7707 193.8698,66.0447 C195.1758,65.4067 196.4788,65.2787 197.7778,65.6597 C199.0778,66.0407 200.1328,66.8647 200.9448,68.1307 L198.9188,69.5427 C197.6758,67.7907 196.3188,67.2747 194.8458,67.9937 C193.9218,68.4457 193.3338,69.1927 193.0798,70.2367 C192.8258,71.2817 193.0738,72.5697 193.8238,74.1027 C194.5898,75.6727 195.4648,76.6957 196.4478,77.1727 C197.4298,77.6497 198.3948,77.6577 199.3418,77.1947 C200.9098,76.4277 201.2998,74.9017 200.5098,72.6167" id="Fill-25" fill="#F39C12"></path>
                    <polygon id="Fill-27" fill="#F39C12" points="210.0078 79.2383 209.8688 73.8733 202.0748 66.2163 204.2788 65.2643 209.7248 70.8643 209.7618 70.8483 209.4198 63.0453 211.5858 62.1093 212.0278 78.3663"></polygon>
                    <path d="M221.9443,64.9517 L224.2263,64.5917 C224.4843,65.8627 224.3853,66.9647 223.9283,67.8967 C223.4723,68.8287 222.6583,69.5177 221.4883,69.9667 C220.1423,70.4817 218.8653,70.4437 217.6523,69.8507 C216.4413,69.2587 215.5193,68.1407 214.8903,66.4967 C214.2853,64.9157 214.2323,63.4827 214.7323,62.1997 C215.2323,60.9147 216.1423,60.0207 217.4633,59.5147 C218.5953,59.0807 219.6603,59.0627 220.6543,59.4597 C221.6483,59.8567 222.4163,60.5737 222.9553,61.6087 L221.0863,62.7107 C220.3443,61.4097 219.3883,60.9827 218.2183,61.4307 C217.4593,61.7227 216.9653,62.2437 216.7403,62.9937 C216.5133,63.7437 216.5993,64.6427 217.0013,65.6887 C217.4013,66.7347 217.9293,67.4637 218.5883,67.8757 C219.2463,68.2877 219.9663,68.3437 220.7513,68.0427 C221.9093,67.5987 222.3063,66.5687 221.9443,64.9517" id="Fill-29" fill="#F39C12"></path>
                    <polygon id="Fill-31" fill="#F39C12" points="227.9336 67.2817 223.1546 53.4857 225.3846 52.7137 230.1626 66.5097"></polygon>
                    <path d="M232.9375,58.9048 L237.8665,57.3788 C237.6075,56.6768 237.1975,56.1648 236.6365,55.8428 C236.0765,55.5218 235.4085,55.4808 234.6305,55.7208 C233.9055,55.9468 233.4005,56.3678 233.1175,56.9858 C232.8335,57.6038 232.7745,58.2438 232.9375,58.9048 M238.9495,59.9948 L240.9125,60.7898 C240.4195,62.6728 239.2635,63.8968 237.4435,64.4608 C236.0415,64.8948 234.7485,64.7618 233.5605,64.0618 C232.3745,63.3618 231.5305,62.2028 231.0295,60.5848 C230.5275,58.9678 230.5665,57.5348 231.1425,56.2888 C231.7205,55.0428 232.6835,54.2098 234.0335,53.7918 C235.3825,53.3738 236.6385,53.5158 237.7975,54.2168 C238.9575,54.9188 239.7895,56.0848 240.2945,57.7148 L240.4965,58.3638 L233.4275,60.5538 C233.7125,61.3868 234.1545,61.9868 234.7495,62.3538 C235.3435,62.7208 236.0305,62.7838 236.8065,62.5428 C237.1755,62.4288 237.4925,62.2758 237.7525,62.0828 C238.0145,61.8898 238.2245,61.6568 238.3845,61.3838 C238.5445,61.1118 238.6585,60.8808 238.7255,60.6928 C238.7925,60.5038 238.8675,60.2718 238.9495,59.9948" id="Fill-33" fill="#F39C12"></path>
                    <path d="M473.2422,107.9521 L467.8142,111.5551 L471.1972,114.1441 L473.2742,107.9761 L473.2422,107.9521 Z M469.7332,118.5901 L470.5252,116.1741 L466.0312,112.7331 L463.9212,114.1401 L462.0632,112.7181 L474.5752,104.6651 L476.0992,105.8321 L471.5922,120.0121 L469.7332,118.5901 Z" id="Fill-35" fill="#255EBA"></path>
                    <path d="M480.5576,122.0552 L481.9766,123.8782 C480.9896,124.7202 479.9776,125.1662 478.9406,125.2172 C477.9046,125.2682 476.9066,124.8892 475.9486,124.0822 C474.8466,123.1552 474.2616,122.0182 474.1936,120.6702 C474.1246,119.3232 474.6576,117.9762 475.7906,116.6302 C476.8816,115.3352 478.1106,114.5952 479.4756,114.4122 C480.8416,114.2282 482.0656,114.5922 483.1466,115.5022 C484.0746,116.2842 484.6056,117.2062 484.7396,118.2682 C484.8726,119.3312 484.6176,120.3492 483.9716,121.3222 L482.1036,120.2192 C482.8826,118.9412 482.7936,117.8982 481.8346,117.0912 C481.2126,116.5672 480.5186,116.3882 479.7516,116.5532 C478.9856,116.7182 478.2416,117.2292 477.5206,118.0862 C476.7986,118.9422 476.4166,119.7582 476.3736,120.5332 C476.3316,121.3072 476.6316,121.9662 477.2746,122.5072 C478.2236,123.3052 479.3176,123.1552 480.5576,122.0552" id="Fill-37" fill="#255EBA"></path>
                    <path d="M488.9971,129.6353 L490.3351,131.5193 C489.3101,132.3163 488.2791,132.7173 487.2421,132.7223 C486.2041,132.7273 485.2251,132.3053 484.3031,131.4563 C483.2431,130.4813 482.7091,129.3193 482.7011,127.9693 C482.6921,126.6203 483.2841,125.2993 484.4761,124.0043 C485.6231,122.7583 486.8841,122.0743 488.2561,121.9513 C489.6291,121.8293 490.8351,122.2463 491.8751,123.2033 C492.7671,124.0253 493.2561,124.9703 493.3431,126.0373 C493.4301,127.1053 493.1291,128.1113 492.4411,129.0543 L490.6231,127.8693 C491.4591,126.6273 491.4161,125.5813 490.4941,124.7333 C489.8951,124.1813 489.2101,123.9713 488.4361,124.1023 C487.6641,124.2333 486.8971,124.7113 486.1391,125.5353 C485.3801,126.3593 484.9631,127.1563 484.8861,127.9293 C484.8101,128.7013 485.0801,129.3723 485.6981,129.9413 C486.6101,130.7813 487.7101,130.6783 488.9971,129.6353" id="Fill-39" fill="#255EBA"></path>
                    <path d="M495.1924,132.6592 L498.8264,136.3222 C499.3284,135.7672 499.5924,135.1672 499.6184,134.5222 C499.6444,133.8762 499.3714,133.2642 498.7984,132.6872 C498.2624,132.1472 497.6554,131.8952 496.9764,131.9302 C496.2974,131.9662 495.7034,132.2082 495.1924,132.6592 M497.0074,138.4922 L497.2124,140.6002 C495.3144,141.0362 493.6954,140.5772 492.3524,139.2242 C491.3194,138.1822 490.8384,136.9742 490.9104,135.5982 C490.9814,134.2212 491.6184,132.9372 492.8204,131.7442 C494.0214,130.5522 495.3084,129.9232 496.6804,129.8572 C498.0524,129.7922 499.2364,130.2612 500.2324,131.2642 C501.2274,132.2672 501.6824,133.4462 501.5974,134.7982 C501.5114,136.1512 500.8634,137.4282 499.6524,138.6302 L499.1694,139.1092 L493.9574,133.8562 C493.3514,134.4952 493.0234,135.1632 492.9734,135.8602 C492.9234,136.5582 493.1854,137.1952 493.7574,137.7732 C494.0304,138.0472 494.3124,138.2562 494.6044,138.3982 C494.8954,138.5412 495.1994,138.6202 495.5154,138.6352 C495.8314,138.6512 496.0884,138.6442 496.2864,138.6172 C496.4844,138.5892 496.7244,138.5482 497.0074,138.4922" id="Fill-41" fill="#255EBA"></path>
                    <path d="M504.0156,141.5269 L502.1156,143.2419 C501.6596,143.6529 501.4226,144.1719 501.4056,144.7979 C501.3866,145.4249 501.6196,146.0059 502.1016,146.5409 C502.6816,147.1839 503.3696,147.4879 504.1636,147.4539 C504.9586,147.4199 505.7776,147.0229 506.6186,146.2629 C507.4596,145.5049 507.9366,144.7289 508.0476,143.9369 C508.1596,143.1449 507.9296,142.4319 507.3586,141.7979 C506.8676,141.2539 506.3026,140.9669 505.6676,140.9399 C505.0316,140.9109 504.4816,141.1079 504.0156,141.5269 L504.0156,141.5269 Z M494.2906,147.2289 L505.5026,137.1149 L506.9636,138.7339 L506.2056,139.4169 L506.2336,139.4459 C507.3416,139.3619 508.3206,139.7899 509.1686,140.7299 C510.0266,141.6809 510.3866,142.8369 510.2506,144.1989 C510.1146,145.5609 509.4126,146.8129 508.1456,147.9559 C506.8686,149.1089 505.5596,149.6929 504.2176,149.7089 C502.8756,149.7239 501.7586,149.2369 500.8666,148.2469 C500.0536,147.3459 499.7456,146.3489 499.9446,145.2549 L499.9166,145.2249 L495.8186,148.9219 L494.2906,147.2289 Z" id="Fill-43" fill="#255EBA"></path>
                    <path d="M508.8936,151.6147 L512.8146,148.3537 L511.7916,147.1237 L513.2986,145.8707 L514.3606,147.1467 L516.3596,145.4847 L517.7406,147.1447 L515.7416,148.8077 L517.4416,150.8527 L515.9346,152.1057 L514.2476,150.0757 L510.5096,153.1837 C510.0586,153.5587 509.8006,153.8897 509.7376,154.1777 C509.6726,154.4657 509.8196,154.8237 510.1776,155.2547 L510.7146,155.9007 L509.0236,157.3067 L508.3716,156.5227 C507.5526,155.5387 507.1996,154.6707 507.3106,153.9187 C507.4226,153.1667 507.9506,152.3987 508.8936,151.6147" id="Fill-45" fill="#255EBA"></path>
                    <path d="M516.3213,159.3149 C515.7173,158.8379 515.2453,158.5749 514.9043,158.5259 C514.5633,158.4769 514.2563,158.5589 513.9813,158.7699 C513.3053,159.2909 513.3223,160.0109 514.0303,160.9299 C514.5503,161.6059 515.0813,162.0089 515.6203,162.1409 C516.1593,162.2719 516.6253,162.1879 517.0153,161.8859 L518.6943,160.5919 L518.6703,160.5599 C518.5523,160.5829 518.4363,160.5849 518.3203,160.5649 C518.2033,160.5439 517.9753,160.4349 517.6353,160.2339 C517.2953,160.0329 516.8573,159.7269 516.3213,159.3149 L516.3213,159.3149 Z M514.4333,164.2049 L515.2733,163.5569 L515.2493,163.5259 C515.1533,163.5319 515.0273,163.5279 514.8733,163.5129 C514.7173,163.4979 514.4983,163.4519 514.2133,163.3769 C513.9273,163.3029 513.6173,163.1459 513.2823,162.9079 C512.9473,162.6689 512.6333,162.3599 512.3403,161.9809 C511.5833,160.9979 511.2483,160.0779 511.3353,159.2189 C511.4223,158.3609 511.8143,157.6629 512.5113,157.1259 C513.2293,156.5719 513.9483,156.3629 514.6673,156.4989 C515.3863,156.6349 516.2713,157.1219 517.3233,157.9609 C518.2713,158.7119 518.9323,159.1699 519.3053,159.3369 C519.6783,159.5039 520.0123,159.4739 520.3083,159.2459 C520.5933,159.0259 520.7313,158.7129 520.7213,158.3089 C520.7133,157.9029 520.5123,157.4469 520.1223,156.9399 C519.6743,156.3589 519.2143,156.0369 518.7433,155.9709 C518.2713,155.9049 517.7593,155.9839 517.2083,156.2069 L516.6093,154.2189 C517.4663,153.8449 518.3413,153.7679 519.2343,153.9879 C520.1283,154.2079 520.9283,154.7769 521.6373,155.6959 C522.4193,156.7099 522.7913,157.7279 522.7543,158.7499 C522.7173,159.7719 522.1493,160.7059 521.0503,161.5519 L515.6183,165.7409 L514.4333,164.2049 Z" id="Fill-47" fill="#255EBA"></path>
                    <path d="M517.4316,168.1982 L526.1156,162.1192 L527.3766,163.9212 L526.5406,164.5062 L526.5646,164.5392 C527.0376,164.5652 527.5286,164.7192 528.0346,164.9992 C528.5386,165.2802 528.9566,165.6552 529.2856,166.1252 C529.9586,167.0862 530.2016,168.0432 530.0136,168.9962 C529.8276,169.9492 529.2256,170.7812 528.2086,171.4922 L522.5246,175.4722 L521.2276,173.6212 L526.4216,169.9852 C527.7656,169.0452 528.0426,168.0112 527.2556,166.8872 C526.8586,166.3192 526.3766,165.9802 525.8126,165.8712 C525.2466,165.7612 524.6866,165.9022 524.1296,166.2922 L518.7396,170.0662 L517.4316,168.1982 Z" id="Fill-49" fill="#255EBA"></path>
                    <path d="M531.2617,181.269 L532.0657,183.435 C530.8697,183.939 529.7707,184.06 528.7667,183.796 C527.7627,183.532 526.9257,182.871 526.2547,181.811 C525.4847,180.595 525.2707,179.334 525.6117,178.029 C525.9527,176.724 526.8667,175.601 528.3537,174.659 C529.7837,173.753 531.1787,173.418 532.5357,173.656 C533.8937,173.893 534.9497,174.608 535.7067,175.802 C536.3557,176.827 536.5837,177.867 536.3907,178.92 C536.1977,179.974 535.6467,180.867 534.7387,181.6 L533.2887,179.985 C534.4177,179.001 534.6477,177.98 533.9767,176.921 C533.5417,176.234 532.9337,175.854 532.1537,175.78 C531.3727,175.707 530.5087,175.969 529.5637,176.568 C528.6167,177.167 528.0067,177.83 527.7327,178.556 C527.4577,179.282 527.5457,180 527.9947,180.709 C528.6587,181.757 529.7477,181.943 531.2617,181.269" id="Fill-51" fill="#255EBA"></path>
                    <path d="M536.4707,185.812 L539.0307,190.292 C539.6587,189.887 540.0697,189.376 540.2627,188.759 C540.4547,188.143 540.3497,187.481 539.9467,186.775 C539.5697,186.115 539.0477,185.714 538.3827,185.572 C537.7177,185.429 537.0807,185.51 536.4707,185.812 M536.7107,191.917 L536.3617,194.006 C534.4157,193.935 532.9707,193.071 532.0257,191.416 C531.2967,190.142 531.1467,188.85 531.5727,187.54 C531.9977,186.229 532.9467,185.154 534.4167,184.314 C535.8867,183.474 537.2927,183.2 538.6347,183.493 C539.9777,183.786 540.9987,184.545 541.6997,185.772 C542.4017,186.999 542.5347,188.255 542.1017,189.54 C541.6677,190.824 540.7107,191.889 539.2287,192.736 L538.6387,193.073 L534.9667,186.648 C534.2167,187.108 533.7267,187.668 533.4967,188.329 C533.2687,188.99 533.3557,189.673 533.7587,190.379 C533.9507,190.715 534.1687,190.989 534.4137,191.203 C534.6587,191.416 534.9317,191.571 535.2327,191.668 C535.5337,191.765 535.7837,191.825 535.9817,191.85 C536.1797,191.875 536.4227,191.897 536.7107,191.917" id="Fill-53" fill="#255EBA"></path>
                    <polygon id="Fill-55" fill="#255EBA" points="539.5713 205.0068 550.2063 199.8498 548.3833 196.0888 550.3443 195.1368 555.0123 204.7648 553.0503 205.7158 551.2363 201.9728 540.6003 207.1308"></polygon>
                    <path d="M549.1279,210.4346 L551.1879,215.1656 C551.8569,214.8306 552.3189,214.3676 552.5779,213.7746 C552.8359,213.1826 552.8029,212.5136 552.4789,211.7676 C552.1749,211.0706 551.6999,210.6156 551.0559,210.4026 C550.4089,210.1886 549.7679,210.1996 549.1279,210.4346 M548.7059,216.5296 L548.1319,218.5686 C546.2059,218.2866 544.8629,217.2716 544.1019,215.5236 C543.5169,214.1796 543.5059,212.8786 544.0709,211.6216 C544.6369,210.3646 545.6949,209.3986 547.2479,208.7226 C548.8009,208.0466 550.2289,207.9266 551.5299,208.3626 C552.8329,208.7996 553.7669,209.6646 554.3309,210.9606 C554.8949,212.2566 554.8919,213.5196 554.3219,214.7496 C553.7529,215.9786 552.6859,216.9346 551.1199,217.6166 L550.4969,217.8876 L547.5429,211.1026 C546.7459,211.4786 546.1989,211.9826 545.8989,212.6146 C545.6009,213.2466 545.6129,213.9346 545.9379,214.6816 C546.0919,215.0356 546.2789,215.3316 546.4999,215.5706 C546.7199,215.8096 546.9749,215.9926 547.2639,216.1216 C547.5519,216.2506 547.7939,216.3376 547.9879,216.3846 C548.1829,216.4306 548.4219,216.4786 548.7059,216.5296" id="Fill-57" fill="#255EBA"></path>
                    <path d="M550.2314,220.1128 L551.4434,221.8758 C550.0024,222.6278 549.5554,223.7138 550.0994,225.1328 C550.3524,225.7928 550.6644,226.2618 551.0354,226.5408 C551.4064,226.8198 551.7854,226.8848 552.1704,226.7378 C552.5444,226.5938 552.7534,226.3208 552.7994,225.9188 C552.8444,225.5158 552.8094,224.6788 552.6954,223.4098 C552.5744,222.1278 552.6334,221.1378 552.8744,220.4388 C553.1124,219.7398 553.5934,219.2528 554.3154,218.9758 C555.1124,218.6708 555.9234,218.7308 556.7514,219.1558 C557.5784,219.5818 558.2094,220.3608 558.6434,221.4938 C559.4784,223.6728 559.0314,225.3938 557.3014,226.6558 L556.0914,225.0638 C557.0434,224.2698 557.3034,223.3068 556.8694,222.1738 C556.6644,221.6388 556.3984,221.2618 556.0724,221.0448 C555.7464,220.8268 555.4394,220.7728 555.1534,220.8828 C554.8294,221.0068 554.6464,221.2658 554.6054,221.6598 C554.5634,222.0538 554.6074,222.9618 554.7384,224.3828 C554.8604,225.7068 554.7694,226.6808 554.4654,227.3038 C554.1624,227.9268 553.6294,228.3838 552.8714,228.6758 C552.0864,228.9758 551.2584,228.9108 550.3864,228.4818 C549.5154,228.0518 548.8324,227.1888 548.3354,225.8948 C547.8154,224.5368 547.7624,223.3648 548.1764,222.3788 C548.5904,221.3918 549.2754,220.6358 550.2314,220.1128" id="Fill-59" fill="#255EBA"></path>
                    <path d="M554.4395,231.3906 L559.2665,229.7446 L558.7505,228.2296 L560.6045,227.5966 L561.1405,229.1676 L563.6015,228.3276 L564.2985,230.3726 L561.8375,231.2116 L562.6975,233.7296 L560.8415,234.3626 L559.9895,231.8636 L555.3895,233.4326 C554.8355,233.6226 554.4755,233.8406 554.3135,234.0856 C554.1505,234.3316 554.1595,234.7196 554.3395,235.2496 L554.6115,236.0446 L552.5295,236.7546 L552.2005,235.7896 C551.7875,234.5786 551.7665,233.6406 552.1385,232.9786 C552.5115,232.3156 553.2785,231.7866 554.4395,231.3906" id="Fill-61" fill="#255EBA"></path>
                    <g id="Group" transform="translate(326.332031, 455.218750) rotate(-6.000000) translate(-326.332031, -455.218750) translate(66.832031, 331.218750)" fill="#9C27B0">
                        <polygon id="Fill-137" points="0.4883 2.0352 14.4403 0.8762 14.6443 3.3282 5.2383 9.6882 5.2413 9.7282 15.1073 8.9092 15.3023 11.2612 1.3503 12.4192 1.1523 10.0272 10.5523 3.6072 10.5503 3.5672 0.6833 4.3872"></polygon>
                        <path d="M8.3105,17.1875 L8.9965,22.3015 C9.7305,22.1635 10.3025,21.8435 10.7145,21.3455 C11.1245,20.8465 11.2765,20.1935 11.1675,19.3875 C11.0675,18.6345 10.7355,18.0665 10.1725,17.6845 C9.6105,17.3025 8.9905,17.1365 8.3105,17.1875 M6.2355,22.9345 L5.1245,24.7375 C3.3495,23.9395 2.3355,22.5955 2.0815,20.7065 C1.8875,19.2515 2.2345,17.9995 3.1235,16.9445 C4.0095,15.8905 5.2925,15.2505 6.9715,15.0265 C8.6505,14.8015 10.0555,15.0775 11.1895,15.8535 C12.3225,16.6295 12.9825,17.7185 13.1695,19.1195 C13.3575,20.5195 13.0095,21.7335 12.1245,22.7605 C11.2405,23.7875 9.9515,24.4145 8.2595,24.6405 L7.5855,24.7305 L6.6035,17.3965 C5.7345,17.5395 5.0705,17.8745 4.6095,18.4005 C4.1485,18.9255 3.9715,19.5915 4.0805,20.3985 C4.1305,20.7815 4.2295,21.1185 4.3765,21.4075 C4.5225,21.6975 4.7165,21.9435 4.9585,22.1465 C5.2015,22.3495 5.4105,22.4995 5.5845,22.5975 C5.7595,22.6955 5.9765,22.8075 6.2355,22.9345" id="Fill-139"></path>
                        <polygon id="Fill-141" points="3.2285 26.7959 9.2465 29.4419 13.7035 25.1529 14.1235 27.5159 10.8735 30.5939 10.8805 30.6329 14.9905 32.3789 15.4125 34.7419 9.7505 32.2769 5.0145 36.8179 4.5825 34.3969 8.0405 31.1189 8.0355 31.0789 3.6605 29.2179"></polygon>
                        <path d="M9.1182,39.0078 L14.1012,37.9248 L13.7622,36.3618 L15.6782,35.9448 L16.0302,37.5688 L18.5702,37.0158 L19.0292,39.1268 L16.4882,39.6788 L17.0532,42.2788 L15.1382,42.6948 L14.5782,40.1138 L9.8282,41.1458 C9.2552,41.2708 8.8732,41.4458 8.6832,41.6708 C8.4942,41.8968 8.4582,42.2818 8.5772,42.8298 L8.7562,43.6508 L6.6052,44.1168 L6.3892,43.1208 C6.1172,41.8698 6.2052,40.9368 6.6502,40.3208 C7.0972,39.7058 7.9202,39.2688 9.1182,39.0078" id="Fill-143"></path>
                        <polygon id="Fill-145" points="8.8047 53.0098 22.3227 49.3648 22.9377 51.6448 9.4197 55.2878"></polygon>
                        <path d="M14.0166,58.5371 L18.9016,57.0711 L18.4416,55.5391 L20.3196,54.9751 L20.7966,56.5651 L23.2876,55.8181 L23.9076,57.8881 L21.4166,58.6351 L22.1816,61.1831 L20.3036,61.7461 L19.5446,59.2171 L14.8906,60.6131 C14.3286,60.7821 13.9606,60.9861 13.7886,61.2251 C13.6176,61.4651 13.6126,61.8531 13.7736,62.3901 L14.0146,63.1941 L11.9086,63.8261 L11.6156,62.8491 C11.2456,61.6231 11.2616,60.6861 11.6586,60.0381 C12.0556,59.3901 12.8416,58.8901 14.0166,58.5371" id="Fill-147"></path>
                        <path d="M19.3047,66.1299 L20.9697,71.0139 C21.6637,70.7339 22.1637,70.3109 22.4697,69.7409 C22.7757,69.1719 22.7967,68.5019 22.5347,67.7329 C22.2887,67.0139 21.8537,66.5209 21.2287,66.2559 C20.6017,65.9899 19.9607,65.9479 19.3047,66.1299 M18.3847,72.1699 L17.6457,74.1539 C15.7497,73.7159 14.4937,72.5949 13.8787,70.7899 C13.4047,69.4009 13.5017,68.1049 14.1677,66.8989 C14.8337,65.6929 15.9687,64.8159 17.5717,64.2699 C19.1737,63.7229 20.6077,63.7209 21.8687,64.2619 C23.1307,64.8039 23.9907,65.7429 24.4477,67.0809 C24.9027,68.4179 24.7967,69.6769 24.1277,70.8559 C23.4587,72.0339 22.3177,72.8999 20.7017,73.4499 L20.0587,73.6699 L17.6697,66.6659 C16.8457,66.9749 16.2587,67.4329 15.9087,68.0379 C15.5587,68.6429 15.5147,69.3299 15.7777,70.1009 C15.9027,70.4659 16.0647,70.7769 16.2647,71.0329 C16.4647,71.2889 16.7027,71.4929 16.9807,71.6449 C17.2577,71.7969 17.4917,71.9029 17.6817,71.9659 C17.8707,72.0269 18.1057,72.0959 18.3847,72.1699" id="Fill-149"></path>
                        <path d="M16.7598,77.9766 L26.6558,74.1776 L27.4298,76.1936 L26.3848,76.5956 L26.3988,76.6326 C26.8488,76.6886 27.2578,76.8606 27.6248,77.1476 C27.9918,77.4346 28.2578,77.7896 28.4198,78.2126 C28.5298,78.4986 28.5798,78.8166 28.5708,79.1626 L26.3688,79.6226 C26.3288,79.2226 26.2798,78.9426 26.2168,78.7806 C25.7728,77.6226 24.7288,77.3596 23.0858,77.9906 L17.5778,80.1056 L16.7598,77.9766 Z" id="Fill-151"></path>
                        <path d="M25.085,86.7197 C24.619,86.1067 24.229,85.7337 23.911,85.6007 C23.594,85.4677 23.275,85.4697 22.957,85.6067 C22.172,85.9417 22.008,86.6427 22.463,87.7087 C22.798,88.4937 23.209,89.0177 23.699,89.2807 C24.188,89.5417 24.659,89.5757 25.113,89.3827 L27.063,88.5497 L27.047,88.5137 C26.928,88.5057 26.814,88.4787 26.707,88.4307 C26.6,88.3817 26.406,88.2177 26.127,87.9387 C25.848,87.6587 25.5,87.2527 25.085,86.7197 L25.085,86.7197 Z M22.033,90.9807 L23.008,90.5647 L22.992,90.5277 C22.897,90.5097 22.777,90.4747 22.631,90.4207 C22.484,90.3667 22.283,90.2687 22.026,90.1247 C21.77,89.9807 21.508,89.7507 21.243,89.4367 C20.979,89.1217 20.752,88.7437 20.563,88.3027 C20.076,87.1617 19.982,86.1877 20.282,85.3777 C20.582,84.5687 21.137,83.9907 21.945,83.6457 C22.779,83.2897 23.527,83.2677 24.189,83.5787 C24.852,83.8907 25.586,84.5837 26.395,85.6597 C27.125,86.6237 27.649,87.2347 27.969,87.4897 C28.287,87.7437 28.619,87.7987 28.963,87.6527 C29.293,87.5107 29.506,87.2417 29.598,86.8477 C29.689,86.4527 29.611,85.9617 29.359,85.3727 C29.071,84.6987 28.707,84.2707 28.268,84.0887 C27.827,83.9067 27.313,83.8557 26.723,83.9327 L26.641,81.8587 C27.564,81.7107 28.43,81.8557 29.24,82.2917 C30.05,82.7297 30.683,83.4817 31.139,84.5477 C31.641,85.7257 31.746,86.8037 31.455,87.7837 C31.162,88.7637 30.379,89.5267 29.104,90.0717 L22.795,92.7647 L22.033,90.9807 Z" id="Fill-153"></path>
                        <path d="M27.6816,94.8984 L32.2926,92.7204 L31.6096,91.2734 L33.3826,90.4364 L34.0906,91.9374 L36.4416,90.8274 L37.3646,92.7804 L35.0136,93.8904 L36.1496,96.2954 L34.3766,97.1324 L33.2496,94.7464 L28.8556,96.8214 C28.3246,97.0724 27.9926,97.3284 27.8586,97.5904 C27.7246,97.8534 27.7766,98.2374 28.0156,98.7444 L28.3746,99.5034 L26.3846,100.4434 L25.9496,99.5204 C25.4026,98.3634 25.2776,97.4344 25.5746,96.7344 C25.8696,96.0344 26.5726,95.4214 27.6816,94.8984" id="Fill-155"></path>
                        <path d="M38.8457,97.791 L40.8637,96.771 L41.9277,98.877 L39.9097,99.897 L38.8457,97.791 Z M27.8517,103.395 L37.3107,98.612 L38.3397,100.646 L28.8807,105.43 L27.8517,103.395 Z" id="Fill-157"></path>
                        <path d="M34.1611,111.6279 C34.5401,112.3169 35.1191,112.7259 35.8961,112.8539 C36.6741,112.9819 37.5541,112.7749 38.5351,112.2359 C39.5161,111.6969 40.1621,111.0649 40.4711,110.3399 C40.7791,109.6139 40.7441,108.9069 40.3651,108.2179 C39.9801,107.5169 39.4021,107.1009 38.6301,106.9699 C37.8571,106.8379 36.9751,107.0459 35.9821,107.5919 C34.9761,108.1449 34.3261,108.7789 34.0291,109.4979 C33.7321,110.2169 33.7751,110.9269 34.1611,111.6279 M35.3441,114.9829 C34.0391,114.6579 33.0431,113.8699 32.3551,112.6199 C31.6691,111.3699 31.5341,110.1009 31.9531,108.8139 C32.3711,107.5259 33.3511,106.4589 34.8931,105.6109 C36.4121,104.7759 37.8401,104.5349 39.1761,104.8899 C40.5121,105.2429 41.5101,106.0219 42.1721,107.2259 C42.8321,108.4289 42.9511,109.6839 42.5271,110.9889 C42.1041,112.2939 41.1331,113.3639 39.6141,114.1989 C38.0721,115.0469 36.6481,115.3089 35.3441,114.9829" id="Fill-159"></path>
                        <path d="M36.5293,119.4141 L45.5703,113.8801 L46.7183,115.7561 L45.8483,116.2891 L45.8693,116.3231 C46.3413,116.3781 46.8203,116.5611 47.3083,116.8731 C47.7953,117.1841 48.1893,117.5841 48.4883,118.0731 C49.1013,119.0731 49.2853,120.0441 49.0393,120.9831 C48.7933,121.9231 48.1423,122.7171 47.0843,123.3641 L41.1663,126.9871 L39.9853,125.0601 L45.3923,121.7501 C46.7913,120.8931 47.1333,119.8801 46.4163,118.7091 C46.0523,118.1171 45.5933,117.7501 45.0373,117.6061 C44.4803,117.4631 43.9123,117.5681 43.3323,117.9231 L37.7193,121.3581 L36.5293,119.4141 Z" id="Fill-161"></path>
                        <g id="Group-7" transform="translate(145.000000, 204.500000) rotate(-2.000000) translate(-145.000000, -204.500000) translate(83.000000, 164.000000)">
                            <path d="M12.1719,3.9551 L6.2869,6.7501 L9.2679,9.7941 L12.1999,3.9831 L12.1719,3.9551 Z M7.1859,13.9861 L8.3139,11.7071 L4.3539,7.6621 L2.0659,8.7561 L0.4289,7.0831 L13.9589,0.8911 L15.3009,2.2631 L8.8229,15.6581 L7.1859,13.9861 Z" id="Fill-113"></path>
                            <path d="M18.1641,18.8135 L19.7961,17.0545 C20.2401,16.5755 20.4631,16.0175 20.4631,15.3805 C20.4621,14.7445 20.1881,14.1715 19.6411,13.6645 C19.0161,13.0835 18.3251,12.8565 17.5701,12.9845 C16.8151,13.1115 16.0491,13.5945 15.2681,14.4355 C14.4881,15.2765 14.0621,16.0775 13.9921,16.8395 C13.9221,17.6015 14.1991,18.2735 14.8251,18.8535 C15.3531,19.3425 15.9321,19.5765 16.5631,19.5525 C17.1951,19.5295 17.7281,19.2835 18.1641,18.8135 L18.1641,18.8135 Z M15.5191,21.8985 L16.2131,21.1505 L16.1841,21.1245 C16.0061,21.1585 15.8031,21.1755 15.5771,21.1745 C15.3501,21.1735 14.9901,21.0905 14.4991,20.9245 C14.0081,20.7585 13.5601,20.4905 13.1601,20.1185 C12.1341,19.1665 11.6601,18.0355 11.7381,16.7255 C11.8161,15.4165 12.4351,14.1355 13.5981,12.8845 C14.7581,11.6335 16.0141,10.9435 17.3621,10.8125 C18.7111,10.6815 19.8451,11.0425 20.7641,11.8955 C21.5841,12.6575 21.9601,13.6055 21.8891,14.7405 L21.9181,14.7675 L25.3331,11.0875 L27.0041,12.6385 L17.0731,23.3405 L15.5191,21.8985 Z" id="Fill-115"></path>
                            <path d="M27.9443,16.4365 L29.4223,14.7265 L31.2073,16.2705 L29.7293,17.9795 L27.9443,16.4365 Z M16.4153,27.9365 L17.9713,26.1355 L18.3043,26.4235 C18.7073,26.7725 19.1193,26.7055 19.5373,26.2205 L26.8363,17.7785 L28.5603,19.2695 L20.8963,28.1355 C19.6833,29.5375 18.4313,29.6805 17.1403,28.5645 L16.4153,27.9365 Z" id="Fill-117"></path>
                            <path d="M26.7285,26.7451 L31.0355,21.4051 L32.8095,22.8361 L28.6655,27.9741 C28.1725,28.5861 27.9395,29.1041 27.9645,29.5281 C27.9925,29.9521 28.2645,30.3731 28.7835,30.7921 C29.3025,31.2101 29.8325,31.3971 30.3735,31.3531 C30.9135,31.3101 31.4255,30.9871 31.9125,30.3861 L35.9555,25.3721 L37.7295,26.8041 L31.0755,35.0551 L29.3635,33.6741 L30.0025,32.8801 L29.9715,32.8541 C28.9315,33.1461 27.9445,32.9161 27.0095,32.1621 C26.0665,31.4001 25.5825,30.5571 25.5585,29.6301 C25.5355,28.7031 25.9255,27.7411 26.7285,26.7451" id="Fill-119"></path>
                            <path d="M35.5254,34.0244 L37.4964,34.8554 C36.6894,36.2644 36.8984,37.4204 38.1234,38.3224 C38.6914,38.7414 39.2074,38.9674 39.6714,39.0024 C40.1334,39.0374 40.4884,38.8874 40.7324,38.5544 C40.9704,38.2334 40.9994,37.8904 40.8204,37.5264 C40.6404,37.1624 40.1604,36.4774 39.3784,35.4704 C38.5854,34.4564 38.1004,33.5904 37.9244,32.8734 C37.7494,32.1564 37.8904,31.4864 38.3494,30.8634 C38.8554,30.1764 39.5714,29.7894 40.4984,29.7014 C41.4224,29.6124 42.3754,29.9284 43.3514,30.6474 C45.2304,32.0314 45.7834,33.7214 45.0074,35.7174 L43.1304,35.0304 C43.5044,33.8474 43.2024,32.8974 42.2244,32.1774 C41.7634,31.8374 41.3364,31.6644 40.9444,31.6574 C40.5524,31.6494 40.2654,31.7694 40.0844,32.0164 C39.8784,32.2954 39.8644,32.6124 40.0424,32.9664 C40.2194,33.3214 40.7464,34.0614 41.6234,35.1874 C42.4414,36.2364 42.8894,37.1044 42.9704,37.7934 C43.0504,38.4824 42.8494,39.1544 42.3684,39.8084 C41.8704,40.4854 41.1374,40.8774 40.1714,40.9864 C39.2074,41.0944 38.1654,40.7374 37.0484,39.9154 C35.8794,39.0534 35.2014,38.0954 35.0174,37.0414 C34.8344,35.9864 35.0024,34.9814 35.5254,34.0244" id="Fill-121"></path>
                            <path d="M45.4238,41.1787 L48.2968,36.9647 L46.9748,36.0647 L48.0778,34.4447 L49.4498,35.3797 L50.9148,33.2317 L52.6988,34.4487 L51.2348,36.5967 L53.4338,38.0947 L52.3288,39.7137 L50.1478,38.2277 L47.4098,42.2427 C47.0788,42.7277 46.9228,43.1167 46.9398,43.4107 C46.9568,43.7047 47.1968,44.0097 47.6598,44.3247 L48.3538,44.7987 L47.1148,46.6157 L46.2718,46.0417 C45.2148,45.3217 44.6358,44.5837 44.5368,43.8297 C44.4378,43.0757 44.7328,42.1937 45.4238,41.1787" id="Fill-123"></path>
                            <path d="M63.0371,52.0547 L61.4961,47.5437 C60.9241,47.4387 60.3301,47.4987 59.7171,47.7247 C59.1031,47.9507 58.6231,48.3577 58.2771,48.9427 C57.9121,49.5627 57.8451,50.1607 58.0761,50.7397 C58.3081,51.3177 58.7851,51.8207 59.5091,52.2467 C60.1971,52.6547 60.8591,52.8317 61.4931,52.7807 C62.1271,52.7297 62.6421,52.4877 63.0371,52.0547 L63.0371,52.0547 Z M64.4201,56.5177 L63.6251,54.1657 C63.0101,54.5777 62.2501,54.8227 61.3461,54.8997 C60.4401,54.9767 59.4201,54.6797 58.2831,54.0087 C57.0311,53.2697 56.2191,52.3647 55.8461,51.2917 C55.4721,50.2197 55.6001,49.1507 56.2301,48.0817 C56.7871,47.1407 57.4881,46.5097 58.3361,46.1897 C59.1831,45.8687 60.0121,45.7317 60.8211,45.7757 C60.4511,44.5667 60.5411,43.4967 61.0901,42.5667 C61.5921,41.7167 62.3061,41.2097 63.2321,41.0437 C64.1581,40.8787 65.0571,41.0537 65.9301,41.5687 C66.9291,42.1587 67.6011,42.8927 67.9501,43.7727 C68.2991,44.6517 68.2711,45.6147 67.8691,46.6617 L65.7281,46.0017 C65.9161,45.3687 65.9641,44.8487 65.8731,44.4387 C65.7811,44.0287 65.4961,43.6817 65.0141,43.3967 C64.5761,43.1387 64.1801,43.0517 63.8211,43.1337 C63.4631,43.2167 63.1851,43.4247 62.9881,43.7567 C62.8261,44.0337 62.7541,44.3047 62.7751,44.5717 C62.7951,44.8387 62.8851,45.2047 63.0431,45.6707 L64.5111,49.9507 L64.5451,49.9717 L65.5121,48.3357 L67.2331,49.3527 L65.3621,52.5217 L66.4691,55.7997 L64.4201,56.5177 Z" id="Fill-125"></path>
                            <polygon id="Fill-127" points="75.2227 62.957 80.4807 52.371 76.7377 50.512 77.7067 48.559 87.2897 53.318 86.3207 55.271 82.5947 53.421 77.3357 64.007"></polygon>
                            <path d="M82.418,66.4414 L86.809,56.7944 L88.775,57.6884 L88.311,58.7084 L88.348,58.7244 C88.707,58.4494 89.119,58.2844 89.582,58.2314 C90.046,58.1784 90.484,58.2464 90.897,58.4344 C91.176,58.5614 91.434,58.7524 91.669,59.0054 L90.422,60.8774 C90.113,60.6204 89.881,60.4554 89.724,60.3834 C88.596,59.8704 87.666,60.4144 86.938,62.0154 L84.493,67.3854 L82.418,66.4414 Z" id="Fill-129"></path>
                            <path d="M94.4902,66.8418 C93.7282,66.7308 93.1872,66.7378 92.8692,66.8658 C92.5492,66.9948 92.3242,67.2198 92.1912,67.5398 C91.8672,68.3288 92.2412,68.9448 93.3142,69.3858 C94.1032,69.7098 94.7632,69.7938 95.2972,69.6388 C95.8302,69.4828 96.1892,69.1768 96.3772,68.7198 L97.1832,66.7598 L97.1462,66.7438 C97.0562,66.8228 96.9562,66.8818 96.8452,66.9238 C96.7342,66.9638 96.4822,66.9838 96.0882,66.9798 C95.6922,66.9758 95.1602,66.9298 94.4902,66.8418 L94.4902,66.8418 Z M95.3022,72.0198 L95.7052,71.0388 L95.6682,71.0238 C95.5882,71.0768 95.4772,71.1368 95.3362,71.1998 C95.1932,71.2648 94.9802,71.3358 94.6972,71.4128 C94.4122,71.4908 94.0652,71.5108 93.6562,71.4728 C93.2472,71.4338 92.8202,71.3228 92.3772,71.1408 C91.2292,70.6688 90.4782,70.0388 90.1252,69.2528 C89.7712,68.4658 89.7612,67.6648 90.0952,66.8518 C90.4412,66.0128 90.9592,65.4728 91.6492,65.2308 C92.3402,64.9878 93.3492,64.9668 94.6802,65.1678 C95.8772,65.3428 96.6782,65.4088 97.0862,65.3668 C97.4922,65.3258 97.7652,65.1318 97.9082,64.7868 C98.0452,64.4538 98.0082,64.1138 97.7972,63.7678 C97.5862,63.4218 97.1852,63.1268 96.5932,62.8838 C95.9142,62.6048 95.3552,62.5548 94.9142,62.7348 C94.4722,62.9128 94.0682,63.2378 93.7032,63.7068 L92.1892,62.2838 C92.7442,61.5318 93.4632,61.0278 94.3472,60.7718 C95.2312,60.5148 96.2102,60.6078 97.2832,61.0478 C98.4672,61.5348 99.2982,62.2308 99.7772,63.1338 C100.2562,64.0368 100.2322,65.1298 99.7052,66.4118 L97.0952,72.7568 L95.3022,72.0198 Z" id="Fill-131"></path>
                            <path d="M107.9434,72.2607 L109.9064,73.4787 C109.2714,74.6107 108.4774,75.3797 107.5234,75.7867 C106.5684,76.1947 105.5024,76.1857 104.3224,75.7607 C102.9674,75.2727 102.0254,74.4087 101.4944,73.1687 C100.9634,71.9287 100.9964,70.4807 101.5914,68.8247 C102.1664,67.2327 103.0614,66.1127 104.2794,65.4667 C105.4964,64.8217 106.7694,64.7387 108.0994,65.2167 C109.2414,65.6277 110.0584,66.3097 110.5524,67.2597 C111.0474,68.2097 111.1604,69.2527 110.8924,70.3897 L108.7564,70.0027 C109.0454,68.5337 108.5994,67.5867 107.4204,67.1617 C106.6554,66.8867 105.9414,66.9587 105.2804,67.3797 C104.6194,67.7997 104.0974,68.5367 103.7184,69.5907 C103.3384,70.6447 103.2634,71.5417 103.4924,72.2827 C103.7204,73.0257 104.2304,73.5377 105.0214,73.8227 C106.1874,74.2427 107.1624,73.7227 107.9434,72.2607" id="Fill-133"></path>
                            <polygon id="Fill-135" points="111.4629 77.9287 115.7869 63.9837 117.9649 64.6587 115.4359 72.8157 115.4729 72.8267 120.6949 69.6937 123.4649 70.5527 118.5359 73.4847 120.7079 80.7957 118.2439 80.0317 116.5219 74.2407 116.4839 74.2297 114.6649 75.2987 113.6409 78.6037"></polygon>
                        </g>
                        <path d="M303.1689,239.7832 L306.1719,239.3092 C307.8709,239.0422 308.6049,238.1772 308.3739,236.7152 C308.1439,235.2532 307.1789,234.6562 305.4799,234.9242 L302.4769,235.3972 L303.1689,239.7832 Z M301.9939,247.4802 L299.8129,233.6512 L305.3239,232.7822 C306.7469,232.5572 307.9489,232.7562 308.9309,233.3772 C309.9129,233.9992 310.5119,234.9872 310.7259,236.3442 C310.8919,237.3972 310.7519,238.3102 310.3069,239.0822 C309.8609,239.8542 309.1849,240.4402 308.2759,240.8412 L312.1279,245.8822 L309.5399,246.2902 L305.8969,241.4182 L303.4859,241.7982 L304.3249,247.1122 L301.9939,247.4802 Z" id="Fill-63"></path>
                        <path d="M315.4971,238.7471 L320.5491,237.6961 C320.3571,236.9731 319.9981,236.4251 319.4721,236.0511 C318.9441,235.6781 318.2821,235.5731 317.4861,235.7391 C316.7421,235.8931 316.1991,236.2661 315.8591,236.8531 C315.5181,237.4421 315.3971,238.0731 315.4971,238.7471 M321.3781,240.4031 L323.2571,241.3821 C322.5881,243.2101 321.3211,244.3171 319.4541,244.7061 C318.0181,245.0051 316.7431,244.7491 315.6281,243.9391 C314.5131,243.1301 313.7831,241.8951 313.4371,240.2381 C313.0931,238.5801 313.2671,237.1581 313.9601,235.9731 C314.6521,234.7861 315.6901,234.0491 317.0741,233.7621 C318.4581,233.4741 319.6941,233.7331 320.7811,234.5421 C321.8691,235.3511 322.5871,236.5911 322.9341,238.2621 L323.0731,238.9281 L315.8281,240.4351 C316.0331,241.2911 316.4151,241.9311 316.9731,242.3521 C317.5301,242.7741 318.2071,242.9021 319.0041,242.7361 C319.3821,242.6581 319.7111,242.5351 319.9891,242.3681 C320.2681,242.2011 320.4991,241.9891 320.6841,241.7331 C320.8691,241.4761 321.0041,241.2581 321.0891,241.0771 C321.1741,240.8951 321.2701,240.6711 321.3781,240.4031" id="Fill-65"></path>
                        <path d="M332.1982,237.0537 L334.5072,236.9587 C334.6172,238.2517 334.3912,239.3347 333.8302,240.2067 C333.2682,241.0797 332.3812,241.6717 331.1672,241.9827 C329.7712,242.3387 328.5072,242.1537 327.3712,241.4247 C326.2352,240.6977 325.4492,239.4807 325.0132,237.7757 C324.5942,236.1347 324.7072,234.7057 325.3512,233.4887 C325.9972,232.2707 327.0042,231.4867 328.3742,231.1367 C329.5492,230.8357 330.6072,230.9407 331.5502,231.4497 C332.4922,231.9587 333.1722,232.7587 333.5882,233.8497 L331.6032,234.7287 C331.0172,233.3507 330.1172,232.8167 328.9032,233.1267 C328.1152,233.3287 327.5652,233.7887 327.2542,234.5087 C326.9422,235.2287 326.9262,236.1307 327.2032,237.2157 C327.4802,238.3007 327.9222,239.0857 328.5272,239.5717 C329.1332,240.0557 329.8432,240.1947 330.6562,239.9867 C331.8582,239.6797 332.3722,238.7017 332.1982,237.0537" id="Fill-67"></path>
                        <path d="M341.8496,236.8457 C342.6016,236.6167 343.1206,236.1347 343.4056,235.3997 C343.6906,234.6637 343.6696,233.7617 343.3426,232.6897 C343.0166,231.6177 342.5306,230.8577 341.8836,230.4067 C341.2376,229.9547 340.5376,229.8437 339.7866,230.0737 C339.0206,230.3057 338.4946,230.7867 338.2076,231.5157 C337.9206,232.2437 337.9436,233.1507 338.2736,234.2347 C338.6076,235.3317 339.0956,236.0997 339.7386,236.5377 C340.3796,236.9767 341.0836,237.0787 341.8496,236.8457 M345.3756,236.3777 C344.7896,237.5877 343.8146,238.4007 342.4506,238.8167 C341.0846,239.2327 339.8156,239.1037 338.6416,238.4297 C337.4676,237.7557 336.6236,236.5767 336.1116,234.8937 C335.6066,233.2357 335.6636,231.7887 336.2846,230.5547 C336.9046,229.3207 337.8716,228.5027 339.1856,228.1027 C340.4986,227.7017 341.7506,227.8437 342.9426,228.5267 C344.1326,229.2087 344.9806,230.3787 345.4856,232.0367 C345.9986,233.7207 345.9616,235.1677 345.3756,236.3777" id="Fill-69"></path>
                        <path d="M349.8867,236.1211 L346.4127,226.1061 L348.4527,225.3981 L348.8207,226.4561 L348.8587,226.4431 C348.9287,225.9951 349.1137,225.5931 349.4127,225.2341 C349.7117,224.8771 350.0747,224.6241 350.5037,224.4751 C350.7937,224.3751 351.1117,224.3351 351.4577,224.3561 L351.8447,226.5711 C351.4447,226.5981 351.1627,226.6391 350.9987,226.6951 C349.8277,227.1011 349.5307,228.1371 350.1077,229.7991 L352.0407,235.3731 L349.8867,236.1211 Z" id="Fill-71"></path>
                        <path d="M362.1494,227.2676 L361.2744,225.0326 C361.0364,224.4246 360.6294,223.9826 360.0564,223.7046 C359.4824,223.4286 358.8484,223.4266 358.1534,223.6986 C357.3584,224.0096 356.8544,224.5336 356.6414,225.2676 C356.4274,226.0026 356.5304,226.9046 356.9484,227.9716 C357.3664,229.0396 357.9034,229.7716 358.5584,230.1656 C359.2144,230.5606 359.9394,230.6026 360.7344,230.2906 C361.4054,230.0296 361.8664,229.6086 362.1204,229.0296 C362.3734,228.4516 362.3824,227.8636 362.1494,227.2676 L362.1494,227.2676 Z M363.7784,230.9896 L363.4064,230.0396 L363.3694,230.0546 C363.3234,230.2306 363.2514,230.4196 363.1514,230.6226 C363.0524,230.8266 362.8214,231.1146 362.4584,231.4856 C362.0954,231.8566 361.6594,232.1416 361.1504,232.3406 C359.8464,232.8516 358.6224,232.7876 357.4764,232.1466 C356.3314,231.5066 355.4474,230.3926 354.8254,228.8036 C354.2034,227.2136 354.1264,225.7846 354.5944,224.5116 C355.0634,223.2406 355.8804,222.3756 357.0474,221.9186 C358.0904,221.5106 359.1084,221.5846 360.0994,222.1416 L360.1364,222.1266 L358.3064,217.4536 L360.4294,216.6216 L365.7534,230.2166 L363.7784,230.9896 Z" id="Fill-73"></path>
                        <path d="M379.5146,219.833 L374.9106,218.604 C374.5036,219.021 374.2236,219.547 374.0706,220.182 C373.9166,220.817 373.9866,221.441 374.2806,222.055 C374.5916,222.704 375.0516,223.094 375.6606,223.223 C376.2706,223.353 376.9536,223.235 377.7106,222.872 C378.4326,222.526 378.9486,222.075 379.2586,221.52 C379.5696,220.965 379.6546,220.402 379.5146,219.833 L379.5146,219.833 Z M383.9926,221.169 L381.5966,220.52 C381.5966,221.261 381.3766,222.027 380.9366,222.822 C380.4966,223.617 379.6826,224.3 378.4926,224.871 C377.1816,225.499 375.9776,225.67 374.8786,225.384 C373.7806,225.098 372.9626,224.395 372.4266,223.276 C371.9536,222.291 371.8206,221.357 372.0256,220.475 C372.2316,219.593 372.5776,218.827 373.0656,218.18 C371.8556,217.813 371.0166,217.144 370.5496,216.17 C370.1226,215.28 370.0986,214.404 370.4766,213.543 C370.8546,212.682 371.4996,212.032 372.4136,211.594 C373.4596,211.092 374.4456,210.941 375.3686,211.142 C376.2926,211.342 377.0776,211.9 377.7256,212.817 L375.9846,214.229 C375.5636,213.721 375.1576,213.391 374.7666,213.238 C374.3746,213.086 373.9276,213.131 373.4226,213.372 C372.9656,213.592 372.6716,213.873 372.5406,214.217 C372.4096,214.561 372.4276,214.906 372.5946,215.255 C372.7336,215.544 372.9186,215.754 373.1526,215.886 C373.3856,216.019 373.7406,216.147 374.2146,216.275 L378.5876,217.438 L378.6236,217.421 L377.8026,215.708 L379.6066,214.844 L381.1976,218.162 L384.5366,219.066 L383.9926,221.169 Z" id="Fill-75"></path>
                        <polygon id="Fill-77" points="392.958 217.1182 386.134 204.8932 388.194 203.7432 395.019 215.9672"></polygon>
                        <path d="M398.5098,214.002 L393.0118,204.939 L394.8928,203.799 L395.4218,204.671 L395.4558,204.649 C395.5128,204.179 395.6978,203.7 396.0118,203.214 C396.3238,202.728 396.7258,202.335 397.2158,202.038 C398.2198,201.43 399.1908,201.25 400.1288,201.499 C401.0678,201.748 401.8588,202.402 402.5018,203.463 L406.1018,209.397 L404.1698,210.568 L400.8808,205.148 C400.0308,203.746 399.0178,203.401 397.8438,204.113 C397.2508,204.473 396.8818,204.931 396.7368,205.487 C396.5898,206.044 396.6938,206.612 397.0458,207.194 L400.4588,212.819 L398.5098,214.002 Z" id="Fill-79"></path>
                        <path d="M412.2187,200.2959 L414.3637,199.4349 C414.8997,200.6159 415.0487,201.7129 414.8117,202.7229 C414.5737,203.7339 413.9357,204.5879 412.8957,205.2859 C411.6987,206.0889 410.4447,206.3369 409.1307,206.0299 C407.8177,205.7239 406.6697,204.8399 405.6897,203.3779 C404.7447,201.9729 404.3737,200.5879 404.5747,199.2249 C404.7757,197.8609 405.4627,196.7849 406.6367,195.9979 C407.6437,195.3209 408.6767,195.0669 409.7347,195.2309 C410.7927,195.3959 411.6997,195.9229 412.4577,196.8119 L410.8817,198.3029 C409.8677,197.1999 408.8417,196.9979 407.8007,197.6969 C407.1257,198.1499 406.7617,198.7679 406.7087,199.5499 C406.6557,200.3329 406.9417,201.1889 407.5657,202.1179 C408.1897,203.0489 408.8677,203.6409 409.6017,203.8959 C410.3337,204.1499 411.0497,204.0439 411.7467,203.5749 C412.7767,202.8849 412.9337,201.7909 412.2187,200.2959" id="Fill-81"></path>
                        <path d="M421.2266,196.8926 C421.8596,196.4246 422.1876,195.7976 422.2106,195.0096 C422.2346,194.2216 421.9136,193.3776 421.2476,192.4766 C420.5816,191.5756 419.8706,191.0206 419.1106,190.8106 C418.3506,190.6006 417.6546,190.7296 417.0216,191.1976 C416.3776,191.6716 416.0416,192.3006 416.0146,193.0826 C415.9886,193.8666 416.3116,194.7126 416.9846,195.6246 C417.6646,196.5476 418.3816,197.1086 419.1336,197.3066 C419.8856,197.5056 420.5826,197.3676 421.2266,196.8926 M424.3956,195.2746 C424.2466,196.6106 423.5986,197.7026 422.4506,198.5496 C421.3026,199.3976 420.0636,199.6996 418.7316,199.4556 C417.4006,199.2126 416.2116,198.3826 415.1656,196.9666 C414.1366,195.5736 413.7076,194.1906 413.8806,192.8196 C414.0536,191.4496 414.6926,190.3556 415.7976,189.5396 C416.9026,188.7236 418.1296,188.4396 419.4806,188.6856 C420.8306,188.9316 422.0206,189.7516 423.0496,191.1456 C424.0956,192.5616 424.5436,193.9376 424.3956,195.2746" id="Fill-83"></path>
                        <path d="M428.5488,193.5361 L421.9358,185.2521 L423.6238,183.9041 L424.3228,184.7791 L424.3548,184.7551 C424.2718,184.3081 424.3118,183.8671 424.4738,183.4311 C424.6368,182.9931 424.8958,182.6331 425.2498,182.3501 C425.4888,182.1591 425.7768,182.0151 426.1098,181.9201 L427.2128,183.8801 C426.8438,184.0381 426.5918,184.1711 426.4568,184.2791 C425.4868,185.0531 425.5518,186.1271 426.6508,187.5031 L430.3308,192.1131 L428.5488,193.5361 Z" id="Fill-85"></path>
                        <path d="M432.2334,182.0859 L433.9084,184.0229 C434.3084,184.4869 434.8224,184.7339 435.4494,184.7659 C436.0754,184.7969 436.6614,184.5769 437.2054,184.1069 C437.8614,183.5399 438.1794,182.8579 438.1624,182.0639 C438.1444,181.2679 437.7644,180.4409 437.0234,179.5839 C436.2824,178.7269 435.5164,178.2339 434.7274,178.1059 C433.9374,177.9779 433.2204,178.1919 432.5754,178.7509 C432.0204,179.2309 431.7214,179.7879 431.6804,180.4229 C431.6394,181.0579 431.8234,181.6119 432.2334,182.0859 L432.2334,182.0859 Z M437.7294,191.9289 L427.8534,180.5059 L429.5024,179.0799 L430.1704,179.8529 L430.2004,179.8259 C430.1384,178.7159 430.5874,177.7459 431.5454,176.9179 C432.5134,176.0799 433.6764,175.7439 435.0364,175.9089 C436.3944,176.0739 437.6314,176.8019 438.7484,178.0929 C439.8734,179.3939 440.4294,180.7159 440.4174,182.0569 C440.4044,183.3979 439.8944,184.5049 438.8854,185.3769 C437.9674,186.1709 436.9634,186.4569 435.8744,186.2359 L435.8434,186.2619 L439.4544,190.4379 L437.7294,191.9289 Z" id="Fill-87"></path>
                        <path d="M446.3486,175.8086 C446.9176,175.2666 447.1656,174.6036 447.0916,173.8196 C447.0176,173.0346 446.5946,172.2366 445.8236,171.4236 C445.0506,170.6126 444.2756,170.1496 443.4946,170.0356 C442.7156,169.9216 442.0396,170.1356 441.4706,170.6776 C440.8906,171.2286 440.6356,171.8946 440.7046,172.6736 C440.7756,173.4546 441.2016,174.2546 441.9816,175.0766 C442.7716,175.9076 443.5516,176.3746 444.3226,176.4796 C445.0926,176.5836 445.7686,176.3606 446.3486,175.8086 M449.2916,173.8106 C449.3096,175.1556 448.8016,176.3196 447.7676,177.3016 C446.7336,178.2856 445.5406,178.7386 444.1896,178.6616 C442.8376,178.5846 441.5556,177.9086 440.3436,176.6326 C439.1496,175.3766 438.5526,174.0576 438.5546,172.6756 C438.5566,171.2946 439.0556,170.1306 440.0506,169.1846 C441.0466,168.2386 442.2296,167.8036 443.5996,167.8806 C444.9696,167.9576 446.2516,168.6246 447.4466,169.8806 C448.6596,171.1566 449.2746,172.4666 449.2916,173.8106" id="Fill-89"></path>
                        <path d="M453.207,171.5684 L445.62,164.1654 L447.128,162.6194 L447.93,163.4014 L447.958,163.3734 C447.82,162.9414 447.806,162.4984 447.913,162.0444 C448.02,161.5894 448.232,161.2014 448.55,160.8764 C448.764,160.6574 449.03,160.4794 449.349,160.3434 L450.686,162.1514 C450.34,162.3534 450.106,162.5164 449.985,162.6404 C449.119,163.5284 449.316,164.5874 450.576,165.8154 L454.799,169.9364 L453.207,171.5684 Z" id="Fill-91"></path>
                        <path d="M457.6709,160.3574 C457.3079,161.0364 457.1319,161.5464 457.1439,161.8904 C457.1559,162.2354 457.2899,162.5234 457.5469,162.7554 C458.1799,163.3294 458.8849,163.1864 459.6639,162.3274 C460.2369,161.6954 460.5409,161.1024 460.5749,160.5474 C460.6089,159.9944 460.4439,159.5514 460.0789,159.2194 L458.5089,157.7954 L458.4819,157.8254 C458.5249,157.9364 458.5469,158.0514 458.5479,158.1694 C458.5489,158.2874 458.4809,158.5314 458.3429,158.9014 C458.2049,159.2714 457.9819,159.7564 457.6709,160.3574 L457.6709,160.3574 Z M462.8169,161.3514 L462.0309,160.6394 L462.0049,160.6694 C462.0279,160.7624 462.0459,160.8864 462.0579,161.0424 C462.0699,161.1974 462.0649,161.4214 462.0409,161.7144 C462.0179,162.0084 461.9189,162.3414 461.7429,162.7134 C461.5679,163.0864 461.3189,163.4494 460.9969,163.8054 C460.1639,164.7234 459.3169,165.2154 458.4559,165.2814 C457.5959,165.3474 456.8399,165.0844 456.1879,164.4934 C455.5169,163.8834 455.1839,163.2134 455.1909,162.4814 C455.1969,161.7504 455.5209,160.7934 456.1619,159.6094 C456.7329,158.5444 457.0669,157.8124 457.1659,157.4154 C457.2649,157.0194 457.1759,156.6954 456.8999,156.4444 C456.6329,156.2034 456.3009,156.1224 455.9029,156.2034 C455.5059,156.2844 455.0929,156.5614 454.6619,157.0354 C454.1699,157.5784 453.9329,158.0874 453.9509,158.5634 C453.9699,159.0394 454.1379,159.5294 454.4549,160.0334 L452.6039,160.9724 C452.0839,160.1964 451.8549,159.3484 451.9129,158.4294 C451.9719,157.5114 452.3909,156.6224 453.1699,155.7624 C454.0299,154.8144 454.9669,154.2694 455.9789,154.1254 C456.9909,153.9814 458.0109,154.3754 459.0379,155.3064 L464.1199,159.9154 L462.8169,161.3514 Z" id="Fill-93"></path>
                        <path d="M464.0186,154.584 L460.1166,151.301 L459.0856,152.525 L457.5866,151.264 L458.6556,149.993 L456.6646,148.319 L458.0556,146.667 L460.0456,148.341 L461.7576,146.305 L463.2576,147.566 L461.5586,149.587 L465.2776,152.716 C465.7266,153.094 466.0976,153.288 466.3926,153.301 C466.6866,153.313 467.0146,153.105 467.3746,152.677 L467.9156,152.034 L469.5986,153.45 L468.9426,154.23 C468.1186,155.21 467.3266,155.712 466.5666,155.734 C465.8066,155.758 464.9576,155.374 464.0186,154.584" id="Fill-95"></path>
                        <path d="M467.4775,145.9961 L470.6515,141.9291 C470.0395,141.5011 469.4105,141.3141 468.7665,141.3701 C468.1225,141.4261 467.5495,141.7741 467.0495,142.4151 C466.5815,143.0151 466.4085,143.6481 466.5295,144.3171 C466.6495,144.9871 466.9655,145.5461 467.4775,145.9961 M473.0355,143.4581 L475.1005,142.9901 C475.7725,144.8161 475.5215,146.4811 474.3485,147.9841 C473.4455,149.1411 472.3075,149.7701 470.9335,149.8731 C469.5585,149.9761 468.2055,149.5071 466.8705,148.4651 C465.5355,147.4231 464.7485,146.2251 464.5095,144.8731 C464.2725,143.5201 464.5875,142.2871 465.4565,141.1731 C466.3275,140.0591 467.4385,139.4581 468.7905,139.3721 C470.1435,139.2861 471.4925,139.7681 472.8375,140.8181 L473.3735,141.2361 L468.8215,147.0701 C469.5315,147.5911 470.2355,147.8311 470.9335,147.7931 C471.6315,147.7541 472.2305,147.4141 472.7315,146.7731 C472.9685,146.4691 473.1405,146.1621 473.2455,145.8541 C473.3495,145.5481 473.3895,145.2361 473.3655,144.9211 C473.3395,144.6061 473.3015,144.3511 473.2495,144.1581 C473.1975,143.9661 473.1255,143.7321 473.0355,143.4581" id="Fill-97"></path>
                        <path d="M482.3369,126.9248 L484.1369,125.1468 C485.3529,126.1568 486.0889,127.3438 486.3449,128.7058 C486.6019,130.0688 486.2949,131.3968 485.4239,132.6908 C484.4339,134.1608 483.1089,135.0188 481.4519,135.2608 C479.7939,135.5028 477.9419,134.9358 475.8959,133.5588 C473.9929,132.2788 472.8539,130.7998 472.4789,129.1248 C472.1039,127.4498 472.3769,125.9268 473.2999,124.5558 C474.1109,123.3498 475.1749,122.5868 476.4909,122.2678 C477.8079,121.9468 479.1329,122.1328 480.4689,122.8218 L479.4219,125.0588 C477.4689,124.1628 476.0349,124.3958 475.1199,125.7558 C474.5459,126.6078 474.4109,127.5488 474.7139,128.5798 C475.0159,129.6118 475.8749,130.6038 477.2909,131.5568 C478.7399,132.5308 480.0089,132.9808 481.0989,132.9018 C482.1879,132.8228 483.0259,132.3468 483.6149,131.4728 C484.5899,130.0248 484.1639,128.5078 482.3369,126.9248" id="Fill-99"></path>
                        <path d="M489.9131,125.2764 L477.4041,117.7474 L478.5801,115.7934 L482.8981,118.3924 L482.9191,118.3584 C482.7341,117.9664 482.6691,117.4684 482.7231,116.8624 C482.7751,116.2564 482.9471,115.7134 483.2351,115.2344 C483.8201,114.2634 484.5921,113.6544 485.5501,113.4064 C486.5091,113.1584 487.5021,113.3434 488.5301,113.9624 L494.5441,117.5834 L493.3791,119.5184 L487.8271,116.1764 C487.2331,115.8194 486.6571,115.6914 486.0991,115.7904 C485.5411,115.8904 485.0791,116.2434 484.7151,116.8484 C484.3641,117.4304 484.2541,118.0034 484.3841,118.5624 C484.5131,119.1234 484.8471,119.5654 485.3831,119.8884 L491.0891,123.3234 L489.9131,125.2764 Z" id="Fill-101"></path>
                        <path d="M494.0283,109.2705 C493.8383,110.0165 493.7893,110.5545 493.8823,110.8855 C493.9763,111.2165 494.1753,111.4645 494.4803,111.6295 C495.2313,112.0365 495.8823,111.7285 496.4343,110.7075 C496.8403,109.9575 496.9943,109.3095 496.8953,108.7635 C496.7973,108.2175 496.5303,107.8275 496.0963,107.5915 L494.2313,106.5825 L494.2133,106.6185 C494.2813,106.7165 494.3303,106.8225 494.3593,106.9365 C494.3873,107.0505 494.3803,107.3045 494.3343,107.6965 C494.2893,108.0885 494.1873,108.6135 494.0283,109.2705 L494.0283,109.2705 Z M499.2623,109.0095 L498.3313,108.5055 L498.3113,108.5415 C498.3563,108.6255 498.4043,108.7425 498.4533,108.8895 C498.5023,109.0385 498.5493,109.2565 498.5963,109.5475 C498.6443,109.8385 498.6273,110.1855 498.5463,110.5885 C498.4643,110.9925 498.3083,111.4045 498.0803,111.8265 C497.4903,112.9165 496.7853,113.5965 495.9653,113.8655 C495.1453,114.1345 494.3483,114.0595 493.5743,113.6405 C492.7773,113.2085 492.2943,112.6375 492.1263,111.9245 C491.9583,111.2125 492.0453,110.2065 492.3843,108.9045 C492.6853,107.7325 492.8363,106.9425 492.8373,106.5345 C492.8393,106.1245 492.6743,105.8325 492.3463,105.6545 C492.0303,105.4835 491.6883,105.4845 491.3223,105.6575 C490.9553,105.8305 490.6203,106.1985 490.3153,106.7605 C489.9663,107.4065 489.8573,107.9585 489.9893,108.4155 C490.1203,108.8735 490.4003,109.3085 490.8283,109.7215 L489.2543,111.0765 C488.5643,110.4455 488.1383,109.6765 487.9773,108.7705 C487.8153,107.8655 488.0103,106.9015 488.5623,105.8805 C489.1723,104.7555 489.9513,104.0015 490.9003,103.6215 C491.8483,103.2405 492.9333,103.3795 494.1523,104.0395 L500.1863,107.3035 L499.2623,109.0095 Z" id="Fill-103"></path>
                        <path d="M501.8271,104.1123 L492.2831,99.5003 L493.2411,97.5193 L494.1591,97.9633 L494.1771,97.9263 C493.9681,97.5013 493.8631,96.9983 493.8611,96.4203 C493.8591,95.8413 493.9831,95.2943 494.2321,94.7773 C494.7431,93.7213 495.4601,93.0423 496.3831,92.7403 C497.3061,92.4393 498.3261,92.5573 499.4421,93.0973 L505.6911,96.1173 L504.7081,98.1523 L499.0001,95.3933 C497.5231,94.6793 496.4851,94.9413 495.8891,96.1773 C495.5871,96.8013 495.5251,97.3873 495.7061,97.9333 C495.8871,98.4793 496.2831,98.9003 496.8951,99.1963 L502.8191,102.0593 L501.8271,104.1123 Z" id="Fill-105"></path>
                        <path d="M506.2461,84.8662 L503.8901,83.8652 C503.3121,83.6202 502.7281,83.6142 502.1371,83.8472 C501.5451,84.0822 501.1051,84.5362 500.8181,85.2112 C500.4841,85.9962 500.5001,86.7452 500.8631,87.4582 C501.2271,88.1702 501.9311,88.7482 502.9741,89.1912 C504.0171,89.6352 504.9201,89.7432 505.6821,89.5162 C506.4441,89.2902 506.9951,88.7782 507.3341,87.9802 C507.6161,87.3172 507.6461,86.6932 507.4251,86.1062 C507.2031,85.5192 506.8101,85.1062 506.2461,84.8662 M509.1791,93.4582 L508.8361,91.4002 C509.5101,91.3832 510.0661,91.2492 510.5061,91.0012 C510.9441,90.7532 511.2941,90.3222 511.5551,89.7092 C511.8421,89.0342 511.8841,88.4222 511.6831,87.8732 C511.4811,87.3232 511.0071,86.8892 510.2591,86.5712 L509.0071,86.0402 L508.9911,86.0762 C509.2171,86.4332 509.3511,86.8822 509.3961,87.4232 C509.4421,87.9632 509.3431,88.5222 509.0981,89.0982 C508.5601,90.3632 507.6551,91.2142 506.3831,91.6502 C505.1101,92.0882 503.6771,91.9682 502.0821,91.2892 C500.5111,90.6222 499.4401,89.6642 498.8701,88.4142 C498.3011,87.1652 498.2671,85.9452 498.7741,84.7552 C499.2591,83.6132 500.0371,82.9082 501.1071,82.6382 L501.1231,82.6022 L500.1841,82.2032 L501.0451,80.1792 L510.8551,84.3482 C512.2671,84.9482 513.1791,85.8032 513.5911,86.9122 C514.0031,88.0212 513.9371,89.2152 513.3951,90.4912 C512.9681,91.4972 512.3781,92.2462 511.6251,92.7372 C510.8731,93.2292 510.0581,93.4702 509.1791,93.4582" id="Fill-107"></path>
                        <path d="M506.7734,77.166 L508.5644,72.327 C507.8504,72.105 507.1954,72.118 506.5984,72.367 C506.0024,72.615 505.5624,73.121 505.2804,73.884 C505.0164,74.596 505.0434,75.253 505.3614,75.854 C505.6784,76.455 506.1494,76.893 506.7734,77.166 M511.2994,73.062 L513.1264,71.989 C514.3194,73.526 514.5854,75.188 513.9234,76.977 C513.4144,78.353 512.5204,79.297 511.2424,79.812 C509.9634,80.327 508.5314,80.291 506.9434,79.703 C505.3554,79.115 504.2424,78.213 503.6054,76.995 C502.9674,75.778 502.8944,74.508 503.3854,73.182 C503.8764,71.856 504.7524,70.948 506.0154,70.456 C507.2784,69.964 508.7104,70.014 510.3104,70.606 L510.9484,70.842 L508.3784,77.782 C509.2134,78.062 509.9584,78.078 510.6114,77.83 C511.2654,77.581 511.7334,77.076 512.0154,76.312 C512.1494,75.95 512.2194,75.606 512.2264,75.282 C512.2334,74.957 512.1764,74.648 512.0574,74.355 C511.9384,74.063 511.8254,73.832 511.7164,73.664 C511.6084,73.496 511.4684,73.296 511.2994,73.062" id="Fill-109"></path>
                        <path d="M512.6436,69.2109 L512.8026,67.0779 C514.3966,67.3929 515.4246,66.8269 515.8896,65.3789 C516.1056,64.7069 516.1566,64.1459 516.0406,63.6949 C515.9266,63.2449 515.6726,62.9569 515.2796,62.8309 C514.8986,62.7089 514.5636,62.7909 514.2766,63.0759 C513.9886,63.3619 513.4926,64.0359 512.7876,65.0989 C512.0786,66.1729 511.4126,66.9079 510.7886,67.3029 C510.1646,67.6979 509.4846,67.7769 508.7476,67.5409 C507.9356,67.2799 507.3396,66.7259 506.9606,65.8759 C506.5816,65.0259 506.5786,64.0239 506.9496,62.8679 C507.6626,60.6469 509.0876,59.5849 511.2266,59.6829 L511.1736,61.6819 C509.9346,61.7039 509.1286,62.2939 508.7586,63.4479 C508.5826,63.9949 508.5546,64.4539 508.6726,64.8279 C508.7906,65.2019 508.9966,65.4369 509.2886,65.5299 C509.6186,65.6359 509.9226,65.5479 510.2026,65.2669 C510.4816,64.9849 511.0146,64.2499 511.8026,63.0599 C512.5366,61.9509 513.2166,61.2489 513.8436,60.9529 C514.4706,60.6569 515.1716,60.6329 515.9466,60.8819 C516.7466,61.1389 517.3516,61.7069 517.7616,62.5879 C518.1716,63.4689 518.1656,64.5689 517.7426,65.8899 C517.2976,67.2739 516.6056,68.2209 515.6646,68.7319 C514.7236,69.2409 513.7166,69.4009 512.6436,69.2109" id="Fill-111"></path>
                    </g>
                    <path d="M122.5645,161.7954 L125.3605,166.1934 L127.4845,163.5284 L122.5845,161.7704 L122.5645,161.7954 Z M131.0175,164.7694 L129.0975,164.0984 L126.2755,167.6384 L127.3675,169.3484 L126.2005,170.8124 L119.9575,160.6774 L120.9145,159.4764 L132.1845,163.3064 L131.0175,164.7694 Z" id="Fill-163" fill="#918F8F"></path>
                    <path d="M134.1406,156.082 L132.6896,154.825 C132.2946,154.483 131.8426,154.32 131.3336,154.338 C130.8246,154.355 130.3746,154.59 129.9836,155.041 C129.5366,155.557 129.3736,156.115 129.4956,156.715 C129.6186,157.315 130.0266,157.915 130.7186,158.516 C131.4116,159.117 132.0646,159.435 132.6756,159.471 C133.2866,159.506 133.8166,159.266 134.2636,158.75 C134.6406,158.315 134.8116,157.846 134.7756,157.341 C134.7396,156.837 134.5276,156.417 134.1406,156.082 L134.1406,156.082 Z M136.6796,158.113 L136.0626,157.578 L136.0416,157.603 C136.0746,157.744 136.0936,157.905 136.0996,158.086 C136.1046,158.267 136.0476,158.557 135.9286,158.955 C135.8096,159.353 135.6076,159.717 135.3206,160.047 C134.5866,160.894 133.6956,161.304 132.6466,161.276 C131.5976,161.249 130.5566,160.789 129.5256,159.895 C128.4936,159 127.9066,158.016 127.7656,156.941 C127.6246,155.866 127.8816,154.949 128.5386,154.191 C129.1246,153.515 129.8726,153.188 130.7836,153.214 L130.8036,153.19 L127.7686,150.56 L128.9626,149.182 L137.7896,156.831 L136.6796,158.113 Z" id="Fill-165" fill="#918F8F"></path>
                    <path d="M140.8496,148.7617 L139.4516,147.4467 C139.0706,147.0877 138.6246,146.9077 138.1156,146.9037 C137.6066,146.9007 137.1466,147.1157 136.7386,147.5517 C136.2696,148.0487 136.0846,148.5987 136.1816,149.2037 C136.2796,149.8077 136.6626,150.4247 137.3306,151.0537 C137.9986,151.6817 138.6376,152.0267 139.2466,152.0877 C139.8556,152.1487 140.3946,151.9297 140.8626,151.4327 C141.2576,151.0127 141.4476,150.5517 141.4316,150.0457 C141.4156,149.5407 141.2226,149.1127 140.8496,148.7617 L140.8496,148.7617 Z M143.3026,150.8947 L142.7076,150.3357 L142.6856,150.3587 C142.7126,150.5017 142.7256,150.6627 142.7236,150.8447 C142.7216,151.0257 142.6526,151.3127 142.5176,151.7047 C142.3826,152.0977 142.1646,152.4537 141.8656,152.7717 C141.0976,153.5877 140.1906,153.9607 139.1426,153.8897 C138.0956,153.8207 137.0756,153.3177 136.0796,152.3817 C135.0856,151.4457 134.5406,150.4377 134.4436,149.3587 C134.3476,148.2787 134.6426,147.3737 135.3286,146.6427 C135.9436,145.9907 136.7036,145.6957 137.6116,145.7587 L137.6326,145.7357 L134.7086,142.9837 L135.9586,141.6547 L144.4646,149.6597 L143.3026,150.8947 Z" id="Fill-167" fill="#918F8F"></path>
                    <polygon id="Fill-169" fill="#918F8F" points="149.4414 144.6851 141.7404 136.5531 146.8174 131.7451 148.0164 133.0111 144.3104 136.5211 146.5874 138.9261 149.9574 135.7351 151.1014 136.9431 147.7324 140.1341 150.8124 143.3871"></polygon>
                    <path d="M154.0098,136.3047 L150.3948,132.1767 L151.7668,130.9747 L155.2448,134.9467 C155.6598,135.4197 156.0358,135.6757 156.3728,135.7127 C156.7108,135.7507 157.0798,135.5937 157.4828,135.2427 C157.8828,134.8907 158.1038,134.4987 158.1438,134.0667 C158.1838,133.6357 157.9998,133.1867 157.5918,132.7207 L154.1978,128.8457 L155.5708,127.6437 L161.1568,134.0227 L159.8328,135.1827 L159.2948,134.5687 L159.2718,134.5897 C159.3578,135.4497 159.0398,136.1957 158.3188,136.8277 C157.5878,137.4677 156.8558,137.7327 156.1228,137.6237 C155.3888,137.5147 154.6848,137.0757 154.0098,136.3047" id="Fill-171" fill="#918F8F"></path>
                    <path d="M163.1455,132.3472 L157.8175,125.7502 L159.1865,124.6442 L159.6995,125.2792 L159.7245,125.2592 C159.7185,124.8792 159.8145,124.4802 160.0105,124.0602 C160.2075,123.6412 160.4835,123.2882 160.8395,123.0002 C161.5705,122.4102 162.3215,122.1632 163.0915,122.2612 C163.8635,122.3582 164.5605,122.7922 165.1835,123.5642 L168.6715,127.8832 L167.2655,129.0192 L164.0785,125.0742 C163.2535,124.0532 162.4145,123.8882 161.5605,124.5782 C161.1285,124.9272 160.8845,125.3292 160.8285,125.7862 C160.7715,126.2432 160.9155,126.6822 161.2565,127.1062 L164.5645,131.2012 L163.1455,132.3472 Z" id="Fill-173" fill="#918F8F"></path>
                    <path d="M172.8008,120.5449 L174.4808,119.7729 C174.9548,120.6949 175.1178,121.5659 174.9688,122.3819 C174.8188,123.1989 174.3418,123.9059 173.5368,124.5049 C172.6138,125.1939 171.6208,125.4409 170.5598,125.2489 C169.4978,125.0549 168.5458,124.3939 167.7048,123.2649 C166.8958,122.1789 166.5438,121.0869 166.6508,119.9899 C166.7578,118.8929 167.2638,118.0059 168.1708,117.3309 C168.9488,116.7509 169.7638,116.5059 170.6158,116.5959 C171.4688,116.6859 172.2148,117.0709 172.8548,117.7519 L171.6548,119.0049 C170.8008,118.1649 169.9728,118.0439 169.1678,118.6429 C168.6468,119.0309 168.3798,119.5389 168.3688,120.1669 C168.3578,120.7939 168.6188,121.4659 169.1548,122.1849 C169.6898,122.9029 170.2558,123.3499 170.8518,123.5239 C171.4468,123.6989 172.0138,123.5859 172.5528,123.1839 C173.3478,122.5909 173.4318,121.7119 172.8008,120.5449" id="Fill-175" fill="#918F8F"></path>
                    <g id="Group-8" transform="translate(201.000000, 102.000000) rotate(-1.000000) translate(-201.000000, -102.000000) translate(172.000000, 84.000000)" fill="#918F8F">
                        <path d="M4.3916,33.8667 L2.1236,30.4747 L1.0606,31.1867 L0.1886,29.8837 L1.2926,29.1447 L0.1366,27.4157 L1.5726,26.4557 L2.7286,28.1847 L4.4976,27.0017 L5.3696,28.3047 L3.6136,29.4787 L5.7746,32.7107 C6.0356,33.1017 6.2776,33.3337 6.5006,33.4087 C6.7246,33.4847 7.0226,33.3977 7.3946,33.1487 L7.9536,32.7747 L8.9316,34.2377 L8.2536,34.6917 C7.4026,35.2607 6.6816,35.4697 6.0936,35.3177 C5.5036,35.1667 4.9376,34.6827 4.3916,33.8667" id="Fill-179"></path>
                        <path d="M10.9355,32.9473 L6.3845,25.7923 L7.9235,24.8133 L12.4745,31.9683 L10.9355,32.9473 Z M5.6115,24.6343 L4.6405,23.1093 L6.2335,22.0953 L7.2035,23.6213 L5.6115,24.6343 Z" id="Fill-181"></path>
                        <path d="M16.9043,27.603 C17.4453,27.281 17.7563,26.807 17.8363,26.182 C17.9163,25.557 17.7283,24.859 17.2693,24.089 C16.8103,23.319 16.2873,22.821 15.6993,22.594 C15.1103,22.368 14.5463,22.415 14.0063,22.737 C13.4553,23.065 13.1383,23.539 13.0553,24.16 C12.9723,24.781 13.1623,25.48 13.6273,26.259 C14.0953,27.047 14.6223,27.55 15.2053,27.768 C15.7883,27.986 16.3543,27.931 16.9043,27.603 M19.5543,26.564 C19.3303,27.617 18.7283,28.435 17.7483,29.019 C16.7673,29.603 15.7573,29.746 14.7163,29.447 C13.6753,29.148 12.7943,28.395 12.0733,27.185 C11.3633,25.994 11.1323,24.859 11.3773,23.781 C11.6233,22.704 12.2173,21.884 13.1623,21.321 C14.1053,20.759 15.1053,20.629 16.1603,20.932 C17.2163,21.234 18.0993,21.981 18.8083,23.172 C19.5293,24.381 19.7773,25.513 19.5543,26.564" id="Fill-183"></path>
                        <path d="M22.7646,25.8076 L18.7186,18.3546 L20.2656,17.5156 L20.6546,18.2326 L20.6836,18.2176 C20.7456,17.8436 20.9126,17.4676 21.1816,17.0906 C21.4516,16.7146 21.7866,16.4166 22.1896,16.1976 C23.0146,15.7496 23.7976,15.6436 24.5376,15.8786 C25.2796,16.1136 25.8856,16.6676 26.3596,17.5386 L29.0076,22.4186 L27.4186,23.2816 L24.9986,18.8236 C24.3726,17.6706 23.5766,17.3566 22.6116,17.8806 C22.1246,18.1446 21.8116,18.4966 21.6736,18.9356 C21.5356,19.3746 21.5966,19.8336 21.8556,20.3116 L24.3676,24.9376 L22.7646,25.8076 Z" id="Fill-185"></path>
                        <path d="M32.0908,16.8569 C31.6208,17.2549 31.3398,17.5839 31.2478,17.8429 C31.1558,18.1029 31.1718,18.3569 31.2948,18.6059 C31.5958,19.2179 32.1638,19.3189 32.9958,18.9079 C33.6078,18.6069 34.0078,18.2539 34.1958,17.8519 C34.3848,17.4499 34.3918,17.0719 34.2168,16.7179 L33.4668,15.1969 L33.4378,15.2109 C33.4378,15.3069 33.4198,15.3989 33.3868,15.4859 C33.3518,15.5749 33.2308,15.7359 33.0188,15.9709 C32.8078,16.2059 32.4978,16.5019 32.0908,16.8569 L32.0908,16.8569 Z M35.6278,19.1079 L35.2518,18.3479 L35.2248,18.3619 C35.2138,18.4389 35.1918,18.5359 35.1538,18.6549 C35.1168,18.7739 35.0478,18.9399 34.9448,19.1509 C34.8398,19.3629 34.6678,19.5819 34.4298,19.8069 C34.1898,20.0319 33.8978,20.2299 33.5528,20.3989 C32.6628,20.8379 31.8888,20.9559 31.2288,20.7519 C30.5698,20.5479 30.0838,20.1299 29.7728,19.4989 C29.4508,18.8489 29.4008,18.2519 29.6208,17.7099 C29.8418,17.1669 30.3628,16.5489 31.1878,15.8569 C31.9258,15.2319 32.3898,14.7859 32.5788,14.5199 C32.7698,14.2529 32.7978,13.9859 32.6658,13.7189 C32.5388,13.4609 32.3148,13.3029 31.9958,13.2459 C31.6758,13.1899 31.2868,13.2749 30.8278,13.5009 C30.3018,13.7609 29.9768,14.0699 29.8498,14.4299 C29.7248,14.7889 29.7048,15.2029 29.7928,15.6709 L28.1388,15.8269 C27.9808,15.0959 28.0588,14.3979 28.3728,13.7319 C28.6858,13.0649 29.2598,12.5269 30.0918,12.1159 C31.0098,11.6629 31.8668,11.5319 32.6618,11.7219 C33.4578,11.9129 34.1018,12.5049 34.5918,13.4999 L37.0198,18.4219 L35.6278,19.1079 Z" id="Fill-187"></path>
                        <polygon id="Fill-189" points="39.2715 17.3872 34.4045 6.7692 36.1205 5.9832 40.9885 16.6002"></polygon>
                        <path d="M43.4551,15.4985 L40.0701,7.7235 L41.7421,6.9955 L45.1271,14.7705 L43.4551,15.4985 Z M39.4851,6.4595 L38.7641,4.8015 L40.4941,4.0485 L41.2171,5.7065 L39.4851,6.4595 Z" id="Fill-191"></path>
                        <path d="M46.8926,10.9463 L45.3496,7.1693 L44.1636,7.6533 L43.5726,6.2013 L44.8016,5.6993 L44.0156,3.7733 L45.6156,3.1203 L46.4016,5.0463 L48.3716,4.2413 L48.9646,5.6933 L47.0086,6.4913 L48.4786,10.0913 C48.6566,10.5263 48.8466,10.8023 49.0506,10.9203 C49.2536,11.0393 49.5636,11.0133 49.9786,10.8443 L50.6006,10.5903 L51.2656,12.2193 L50.5096,12.5283 C49.5626,12.9153 48.8146,12.9753 48.2676,12.7093 C47.7206,12.4423 47.2626,11.8553 46.8926,10.9463" id="Fill-193"></path>
                        <polygon id="Fill-195" points="55.2969 14.5068 55.4099 10.2148 49.5019 3.7728 51.3019 3.1038 55.4189 7.8048 55.4489 7.7938 55.5019 1.5448 57.2719 0.8878 56.9459 13.8938"></polygon>
                    </g>
                    <path d="M630,315 C630,488.97 488.97,630 315,630 C141.03,630 0,488.97 0,315 C0,141.03 141.03,0 315,0 C488.97,0 630,141.03 630,315 Z" id="Stroke-273" stroke="#DEDEDE" stroke-width="2" stroke-linecap="round" stroke-dasharray="4"></path>
                </g>
                <g id="Group-284" transform="translate(578.000000, 43.000000)" stroke="#DEDEDE" stroke-width="2" stroke-linecap="round" stroke-dasharray="4">
                    <path d="M0,110 L35,1" id="Stroke-282"></path>
                </g>
                <path d="M376.279158,487 L294,563" id="Stroke-285" stroke="#DEDEDE" stroke-width="2" stroke-linecap="round" stroke-dasharray="4"></path>
                <g id="Group-29" filter="url(#filter-1)" transform="translate(415.000000, 242.000000)">
                    <path d="M200,100 C200,155.228 155.228,200 100,200 C44.772,200 0,155.228 0,100 C0,44.772 44.772,0 100,0 C155.228,0 200,44.772 200,100" id="Fill-291" fill="#2866DC"></path>
                    <text id="Agile" font-family="MaisonNeue-Demi, Maison Neue" font-size="24" font-weight="500" fill="#FFFFFF">
                        <tspan x="72.1367" y="92.2002">Agile</tspan>
                    </text>
                </g>
                <text id="Development" font-family="MaisonNeue-Demi, Maison Neue" font-size="24" font-weight="500" fill="#FFFFFF">
                    <tspan x="441.3927" y="363.0002">D</tspan>
                    <tspan x="457.1607" y="363.0002" letter-spacing="-0.48">ev</tspan>
                    <tspan x="482.0247" y="363.0002">elopment</tspan>
                </text>
                <g id="Group-305" transform="translate(563.000000, 141.000000)" stroke-width="2">
                    <path d="M13.8161,10.7361 C81.2626273,32.6335368 132.993911,89.3977106 147.743634,159.760519" id="Stroke-295" stroke="#255EBA"></path>
                    <polyline id="Stroke-299" stroke="#F39C12" stroke-linecap="round" stroke-linejoin="round" points="6.3333 0.3333 13.8153 10.7513 0.6663 14.6663"></polyline>
                </g>
                <g id="2" transform="translate(0.000000, 199.000000)">
                    <path d="M150,10 L223,10" id="Line" stroke="#DEDEDE" stroke-width="2" stroke-linecap="round"></path>
                    <text id="Review-Iterate-&amp;-Tes" font-family="MaisonNeue-Book, Maison Neue" font-size="14" font-weight="300" fill="#231F20">
                        <tspan x="0" y="14">Review Iterate &amp; Test</tspan>
                    </text>
                    <circle id="Oval-5" stroke="#DEDEDE" stroke-width="2" stroke-linecap="round" fill="#FFFFFF" cx="230" cy="10" r="6"></circle>
                </g>
                <g id="2-copy" transform="translate(92.000000, 109.000000)">
                    <path d="M99.3847656,10 L194.384766,10" id="Line" stroke="#DEDEDE" stroke-width="2" stroke-linecap="round"></path>
                    <text id="Iterate-&amp;-Test" font-family="MaisonNeue-Book, Maison Neue" font-size="14" font-weight="300" fill="#231F20">
                        <tspan x="0" y="14">Iterate &amp; Test</tspan>
                    </text>
                    <circle id="Oval-5" stroke="#DEDEDE" stroke-width="2" stroke-linecap="round" fill="#FFFFFF" cx="201" cy="10" r="6"></circle>
                </g>
                <g id="2-copy-2" transform="translate(217.000000, 32.000000)">
                    <path d="M99,10 L194,10" id="Line" stroke="#DEDEDE" stroke-width="2" stroke-linecap="round"></path>
                    <text id="Iterate-&amp;-Test" font-family="MaisonNeue-Book, Maison Neue" font-size="14" font-weight="300" fill="#231F20">
                        <tspan x="0" y="14">Iterate &amp; Test</tspan>
                    </text>
                    <circle id="Oval-5" stroke="#DEDEDE" stroke-width="2" stroke-linecap="round" fill="#FFFFFF" cx="201" cy="10" r="6"></circle>
                </g>
                <text id="Continuous-Visibilit" font-family="MaisonNeue-Demi, Maison Neue" font-size="24" font-weight="500" line-spacing="32" fill="#231F20">
                    <tspan x="885.896" y="24">Continuous</tspan>
                    <tspan x="916.88" y="56">Visibility</tspan>
                </text>
                <g id="Group-278" transform="translate(1.000000, 340.000000)" stroke="#060606" stroke-width="2" stroke-linecap="round">
                    <path d="M0.910164494,1.5 L314.027289,1.5" id="Line"></path>
                </g>
                <g id="Group-289" transform="translate(526.000000, 543.000000)" stroke="#DEDEDE" stroke-width="2" stroke-linecap="round" stroke-dasharray="4">
                    <path d="M0.663,0 L6,111" id="Stroke-287"></path>
                </g>
                <g id="2-copy-3" transform="translate(773.000000, 153.000000)">
                    <path d="M13,17 L108,17" id="Line" stroke="#DEDEDE" stroke-width="2" stroke-linecap="round"></path>
                    <text id="Clients-Developers-&amp;" font-family="MaisonNeue-Book, Maison Neue" font-size="14" font-weight="300" fill="#231F20">
                        <tspan x="117" y="14">Clients Developers </tspan>
                        <tspan x="117" y="31">&amp; Users</tspan>
                    </text>
                    <circle id="Oval-5" stroke="#DEDEDE" stroke-width="2" stroke-linecap="round" fill="#FFFFFF" cx="6" cy="17" r="6"></circle>
                </g>
                <g id="Group-29" filter="url(#filter-2)" transform="translate(415.000000, 242.000000)">
                    <path d="M200,100 C200,155.228 155.228,200 100,200 C44.772,200 0,155.228 0,100 C0,44.772 44.772,0 100,0 C155.228,0 200,44.772 200,100" id="Fill-291" fill="#2866DC"></path>
                    <text id="Agile" font-family="MaisonNeue-Demi, Maison Neue" font-size="24" font-weight="500" fill="#FFFFFF">
                        <tspan x="72.1367" y="92.2002">Agile</tspan>
                    </text>
                </g>
                <text id="Development" font-family="MaisonNeue-Demi, Maison Neue" font-size="24" font-weight="500" fill="#FFFFFF">
                    <tspan x="441.3927" y="363.0002">D</tspan>
                    <tspan x="457.1607" y="363.0002" letter-spacing="-0.48">ev</tspan>
                    <tspan x="482.0247" y="363.0002">elopment</tspan>
                </text>
                <g id="Group-305" transform="translate(310.000000, 141.000000)" stroke-width="2">
                    <path d="M5,201 C5,90.543 94.543,1 205,1 C226.574,1 247.349,4.416 266.816,10.736" id="Stroke-293" stroke="#F39C12"></path>
                    <path d="M405,201 C405,311.457 315.457,401 205,401 C104.674621,401 21.6025442,327.130226 7.20712033,230.814027" id="Stroke-297" stroke="#9C27B0"></path>
                    <polyline id="Stroke-299" stroke="#F39C12" stroke-linecap="round" stroke-linejoin="round" points="259.3333 0.3333 266.8153 10.7513 253.6663 14.6663"></polyline>
                    <polyline id="Stroke-303" stroke="#9C27B0" stroke-linecap="round" stroke-linejoin="round" points="0 239.414 7.488 229 15.392 240.213"></polyline>
                </g>
                <g id="Group-25" transform="translate(675.000000, 289.000000)">
                    <g id="Fill-1">
                        <use fill="black" fill-opacity="1" filter="url(#filter-4)" xlink:href="#path-3"></use>
                        <use fill="#FFFFFF" fill-rule="evenodd" xlink:href="#path-3"></use>
                    </g>
                    <path d="M35,12 C58.74804,12 78,29.9088 78,52" id="Fill-1" stroke="#255EBA" stroke-width="2" stroke-linecap="round"></path>
                    <polyline id="Stroke-301" stroke="#255EBA" stroke-width="2" stroke-linecap="round" stroke-linejoin="round" transform="translate(33.675213, 6.962979) rotate(-12.000000) translate(-33.675213, -6.962979) " points="41.3792131 1.48197867 34.7192131 12.4439787 25.9712131 1.87597867"></polyline>
                    <text id="APPROVE" font-family="MaisonNeue-Demi, Maison Neue" font-size="12" font-weight="500" fill="#231F20">
                        <tspan x="14.16" y="58">APPROVE</tspan>
                    </text>
                </g>
                <g id="Group-25-Copy" transform="translate(289.000000, 313.000000)">
                    <g id="Group-3" transform="translate(20.000000, 18.000000)"></g>
                    <g id="Group-2">
                        <g id="Fill-1">
                            <use fill="black" fill-opacity="1" filter="url(#filter-6)" xlink:href="#path-5"></use>
                            <use fill="#FFFFFF" fill-rule="evenodd" xlink:href="#path-5"></use>
                        </g>
                        <path d="M0,27.5 C0,12.3123 12.3123,0 27.5,0" id="Fill-1" stroke="#060606" stroke-width="2" stroke-linecap="round"></path>
                        <path d="M22,18 L22,40" id="Stroke-77" stroke="#231F20" stroke-width="2" stroke-linecap="round" stroke-linejoin="round"></path>
                        <polygon id="Stroke-78" stroke="#231F20" stroke-width="2" stroke-linecap="round" stroke-linejoin="round" points="25 32 25 20 36 26"></polygon>
                    </g>
                </g>
                <g id="Group-26" transform="translate(746.000000, 327.000000)">
                    <g id="Oval-3">
                        <use fill="black" fill-opacity="1" filter="url(#filter-8)" xlink:href="#path-7"></use>
                        <use fill="#FFFFFF" fill-rule="evenodd" xlink:href="#path-7"></use>
                    </g>
                    <polyline id="Stroke-222" stroke="#2ECC71" stroke-width="2" stroke-linecap="round" stroke-linejoin="round" points="6 15 12 21 24 9"></polyline>
                </g>
                <g id="Group-26-Copy" transform="translate(696.000000, 363.000000)">
                    <g id="Oval-3">
                        <use fill="black" fill-opacity="1" filter="url(#filter-10)" xlink:href="#path-9"></use>
                        <use fill="#FFFFFF" fill-rule="evenodd" xlink:href="#path-9"></use>
                    </g>
                    <g id="Group-28" transform="translate(9.000000, 9.000000)" stroke="#FF3B30" stroke-width="2" stroke-linecap="round" stroke-linejoin="round">
                        <path d="M12,0 L0,12" id="Stroke-730"></path>
                        <path d="M12,12 L0,0" id="Stroke-731"></path>
                    </g>
                </g>
            </g>
        </g>
    </g>
</svg>