<svg width="1101" height="653" viewBox="0 0 1101 653" xmlns="http://www.w3.org/2000/svg" xmlns:xlink="http://www.w3.org/1999/xlink"><title>Group 6</title><defs><filter x="-50%" y="-50%" width="200%" height="200%" filterUnits="objectBoundingBox" id="a"><feOffset in="SourceAlpha" result="shadowOffsetOuter1"/><feGaussianBlur stdDeviation="15" in="shadowOffsetOuter1" result="shadowBlurOuter1"/><feColorMatrix values="0 0 0 0 0 0 0 0 0 0 0 0 0 0 0 0 0 0 0.1 0" in="shadowBlurOuter1" result="shadowMatrixOuter1"/><feMerge><feMergeNode in="shadowMatrixOuter1"/><feMergeNode in="SourceGraphic"/></feMerge></filter><filter x="-50%" y="-50%" width="200%" height="200%" filterUnits="objectBoundingBox" id="b"><feOffset in="SourceAlpha" result="shadowOffsetOuter1"/><feGaussianBlur stdDeviation="15" in="shadowOffsetOuter1" result="shadowBlurOuter1"/><feColorMatrix values="0 0 0 0 0 0 0 0 0 0 0 0 0 0 0 0 0 0 0.1 0" in="shadowBlurOuter1" result="shadowMatrixOuter1"/><feMerge><feMergeNode in="shadowMatrixOuter1"/><feMergeNode in="SourceGraphic"/></feMerge></filter><path d="M80 53c0 22.091-17.909 40-40 40S0 75.091 0 53s17.909-40 40-40 40 17.909 40 40" id="d"/><filter x="-50%" y="-50%" width="200%" height="200%" filterUnits="objectBoundingBox" id="c"><feOffset in="SourceAlpha" result="shadowOffsetOuter1"/><feGaussianBlur stdDeviation="20" in="shadowOffsetOuter1" result="shadowBlurOuter1"/><feColorMatrix values="0 0 0 0 0 0 0 0 0 0 0 0 0 0 0 0 0 0 0.1 0" in="shadowBlurOuter1"/></filter><path d="M55 27.5C55 42.688 42.688 55 27.5 55S0 42.688 0 27.5 12.312 0 27.5 0 55 12.312 55 27.5" id="f"/><filter x="-50%" y="-50%" width="200%" height="200%" filterUnits="objectBoundingBox" id="e"><feOffset in="SourceAlpha" result="shadowOffsetOuter1"/><feGaussianBlur stdDeviation="20" in="shadowOffsetOuter1" result="shadowBlurOuter1"/><feColorMatrix values="0 0 0 0 0 0 0 0 0 0 0 0 0 0 0 0 0 0 0.1 0" in="shadowBlurOuter1"/></filter><circle id="h" cx="15" cy="15" r="15"/><filter x="-50%" y="-50%" width="200%" height="200%" filterUnits="objectBoundingBox" id="g"><feOffset in="SourceAlpha" result="shadowOffsetOuter1"/><feGaussianBlur stdDeviation="15" in="shadowOffsetOuter1" result="shadowBlurOuter1"/><feColorMatrix values="0 0 0 0 0 0 0 0 0 0 0 0 0 0 0 0 0 0 0.1 0" in="shadowBlurOuter1"/></filter><circle id="j" cx="15" cy="15" r="15"/><filter x="-50%" y="-50%" width="200%" height="200%" filterUnits="objectBoundingBox" id="i"><feOffset in="SourceAlpha" result="shadowOffsetOuter1"/><feGaussianBlur stdDeviation="15" in="shadowOffsetOuter1" result="shadowBlurOuter1"/><feColorMatrix values="0 0 0 0 0 0 0 0 0 0 0 0 0 0 0 0 0 0 0.1 0" in="shadowBlurOuter1"/></filter></defs><g fill="none" fill-rule="evenodd"><path d="M613.793 36.484l-37.45 108.914S706.57 182.664 716.142 337.77l113.113-1.043s4.348-86.145-51.379-175.059S613.793 36.484 613.793 36.484z" fill="#F8FDFF"/><path d="M201.04 336.031h115.668s-4.251 179.817 189.37 201.106c209.223-.778 209.23-200.25 209.23-200.25h115.575s.937 299.656-320.79 315.558c-316.83-26.66-309.053-316.414-309.053-316.414z" fill="#FFF"/><path d="M200.223 335.594H316.01s-7.697-128.024 127.642-185.762c77.528-27.664 133.598-2.93 133.598-2.93l35.105-108.859s-167.507-58.742-296.75 55.316C186.363 207.418 200.223 335.594 200.223 335.594z" fill="#FEFFF6"/><text font-family="MaisonNeue-Demi, Maison Neue" font-size="16" font-weight="500" letter-spacing=".5" fill="#231F20" transform="translate(0 -5)"><tspan x="5.63" y="328">Start</tspan></text><text font-family="MaisonNeue-Book, Maison Neue" font-size="14" font-weight="300" fill="#231F20" transform="translate(0 -5)"><tspan x="0" y="365">Define Requirements</tspan></text><path d="M775.802 337H1029" stroke="#2ECC71" stroke-width="2" stroke-linecap="round"/><path stroke="#2ECC71" stroke-width="2" stroke-linecap="round" stroke-linejoin="round" d="M1023 330l7 7-7 7"/><g transform="translate(1040 307)" stroke-width="2" stroke-linecap="round"><circle stroke="#DEDEDE" cx="30" cy="30" r="30"/><g stroke="#231F20" stroke-linejoin="round"><path d="M32.957 21.964l5.947 5.947m-8.279-4.653A8.003 8.003 0 0 0 21.8 24.95a7.998 7.998 0 0 0-1.228 1.6L24 29.976m13.61.235a8.003 8.003 0 0 1-1.667 8.881 7.975 7.975 0 0 1-1.6 1.228l-3.458-3.457"/><path d="M28.164 38.385l-5.657-5.657S27.34 20.707 40.892 20c-.766 13.494-12.728 18.385-12.728 18.385z"/><path d="M30.286 27.778a2 2 0 1 1 2.828 2.828 2 2 0 0 1-2.828-2.828zm-9.678 9.679a2 2 0 1 1 2.828 2.828c-.781.78-3.414.586-3.414.586s-.195-2.633.586-3.414z"/></g></g><text font-family="MaisonNeue-Book, Maison Neue" font-size="14" font-weight="300" fill="#231F20" transform="translate(775 307)"><tspan x="151.354" y="53">to Beta Users</tspan> <tspan x="157.598" y="73">to App Store</tspan> <tspan x="170.478" y="93">to Product</tspan></text><text font-family="MaisonNeue-Demi, Maison Neue" font-size="16" font-weight="500" letter-spacing=".5" fill="#231F20" transform="translate(775 307)"><tspan x="180.372" y="16">release</tspan></text><path d="M576.816 146.736C557.35 140.416 536.573 137 515 137c-110.457 0-200 89.543-200 200s89.543 200 200 200 200-89.543 200-200c0-88.883-57.98-164.225-138.184-190.264" fill="#FFF"/><path d="M297.87 185.58l1.195-1.678c.681-.955.921-1.901.722-2.838-.2-.937-1.039-1.931-2.516-2.984-1.324-.944-2.494-1.381-3.51-1.311-1.016.07-1.84.55-2.476 1.44l-1.266 1.775 7.85 5.596zm.405 3.187l-11.4-8.126 2.658-3.73a6.097 6.097 0 0 1 1.654-1.596 5.938 5.938 0 0 1 2.123-.844c.78-.15 1.64-.098 2.58.155.941.254 1.89.72 2.844 1.402 1.043.743 1.848 1.53 2.418 2.362.571.832.89 1.64.96 2.428.07.786 0 1.534-.212 2.243a6.989 6.989 0 0 1-1.037 2.074l-2.588 3.632zm3.756-15.879l3.191-4.056c-.61-.43-1.239-.618-1.883-.565-.644.053-1.218.4-1.72 1.038-.47.598-.647 1.231-.529 1.9.12.67.432 1.231.941 1.683m5.568-2.516l2.067-.46c.665 1.83.408 3.493-.772 4.991-.906 1.153-2.047 1.778-3.422 1.875-1.375.098-2.726-.377-4.058-1.424-1.33-1.047-2.112-2.247-2.345-3.6-.233-1.355.088-2.587.962-3.698.873-1.11 1.987-1.706 3.34-1.787 1.353-.08 2.7.407 4.041 1.462l.535.42-4.576 5.816c.71.523 1.412.767 2.11.731.698-.036 1.298-.373 1.802-1.013.238-.303.411-.609.518-.916.105-.307.146-.618.123-.933a4.305 4.305 0 0 0-.113-.763 12.774 12.774 0 0 0-.212-.7m7.361-3.357l-10.82-3.662 1.536-1.792 7.406 2.606.026-.03-3.71-6.92 1.522-1.777 5.277 10.132zm1.585-11.394l3.518-3.775c-.573-.48-1.183-.72-1.83-.72-.645-.002-1.247.295-1.8.891-.52.555-.747 1.172-.685 1.85a2.85 2.85 0 0 0 .797 1.754m5.759-2.043l2.098-.287c.51 1.88.115 3.516-1.185 4.91-1 1.073-2.19 1.601-3.567 1.584-1.378-.018-2.686-.603-3.925-1.758-1.24-1.154-1.918-2.416-2.037-3.784-.12-1.369.303-2.57 1.267-3.604.963-1.034 2.122-1.535 3.477-1.502 1.355.032 2.657.63 3.906 1.794l.497.463-5.044 5.414c.66.581 1.342.882 2.04.904.7.023 1.326-.263 1.88-.859.264-.282.462-.572.593-.87.13-.297.198-.603.2-.919a4.224 4.224 0 0 0-.048-.77 13.537 13.537 0 0 0-.152-.716m5.762-.871l-10.352-10.296 1.664-1.674 10.352 10.297zm5.847-8.168c.573-.54.823-1.202.753-1.987-.07-.785-.489-1.586-1.258-2.4-.767-.817-1.54-1.283-2.32-1.4-.779-.119-1.455.092-2.028.631-.583.548-.84 1.213-.775 1.992.066.781.488 1.583 1.265 2.41.786.834 1.563 1.305 2.334 1.413.77.11 1.446-.112 2.03-.66m2.952-1.984c.012 1.345-.503 2.506-1.54 3.484-1.04.978-2.234 1.425-3.586 1.342-1.35-.083-2.629-.766-3.836-2.047-1.187-1.262-1.777-2.584-1.769-3.966.008-1.38.513-2.543 1.513-3.484 1-.94 2.185-1.37 3.555-1.286 1.37.084 2.648.756 3.837 2.018 1.206 1.282 1.815 2.595 1.826 3.94m1.176-8.226l1.669 1.941c.398.465.912.714 1.538.747.626.034 1.212-.184 1.759-.653.657-.565.978-1.245.963-2.04-.016-.796-.393-1.623-1.131-2.483-.738-.86-1.502-1.355-2.291-1.486-.789-.13-1.508.082-2.154.638-.557.478-.857 1.035-.901 1.67a2.23 2.23 0 0 0 .548 1.665zm5.465 9.86l-9.84-11.455 1.653-1.42.665.773.031-.026c-.058-1.11.393-2.079 1.355-2.904.971-.834 2.135-1.166 3.493-.997 1.359.17 2.593.9 3.705 2.195 1.121 1.305 1.673 2.628 1.657 3.97-.017 1.341-.531 2.446-1.542 3.315-.92.79-1.925 1.073-3.014.85l-.031.025 3.597 4.187-1.729 1.486zm6.42-11.425l-6.444-8.416 1.652-1.265.619.81.032-.024c-.034-.461.062-.933.288-1.417a3.26 3.26 0 0 1 .99-1.224 3.212 3.212 0 0 1 1.536-.66 2.928 2.928 0 0 1 1.512.166l.03-.025c-.038-.49.057-1 .29-1.53a3.418 3.418 0 0 1 1.078-1.355c.964-.738 1.932-1.06 2.903-.963.972.096 1.794.583 2.466 1.462l4.402 5.748-1.667 1.276-4.085-5.335c-.843-1.101-1.784-1.254-2.822-.46-.508.389-.79.827-.843 1.315-.056.487.095.963.45 1.429l4.172 5.447-1.684 1.289-4.085-5.336c-.39-.508-.826-.811-1.312-.91-.487-.097-.985.049-1.493.438-.52.397-.8.84-.847 1.328-.045.489.106.96.455 1.416l4.17 5.447-1.763 1.349zm11.705-16.609l4.263-2.907c-.453-.594-.995-.963-1.625-1.107-.631-.143-1.282.015-1.953.473-.63.428-.987.98-1.077 1.653a2.849 2.849 0 0 0 .392 1.888m6.067-.724l2.11.183c.083 1.945-.663 3.454-2.24 4.528-1.21.826-2.487 1.08-3.827.76-1.34-.322-2.487-1.182-3.441-2.58-.953-1.4-1.338-2.78-1.152-4.14.185-1.362.86-2.44 2.029-3.237 1.168-.796 2.409-1.029 3.724-.699 1.314.33 2.452 1.201 3.414 2.61l.382.562-6.114 4.17c.518.711 1.115 1.155 1.793 1.331.676.176 1.35.035 2.023-.423.319-.218.575-.457.768-.718a2.34 2.34 0 0 0 .4-.853 4.35 4.35 0 0 0 .122-.762c.009-.199.01-.444.009-.732m5.742.427l-5.572-9.017 1.871-1.156.536.867.034-.021c.053-.471.235-.952.543-1.441.31-.488.708-.884 1.195-1.185.998-.617 1.968-.805 2.91-.564.94.242 1.737.89 2.388 1.945l3.65 5.903-1.923 1.188-3.333-5.393c-.863-1.395-1.879-1.731-3.047-1.01-.59.365-.955.826-1.096 1.384-.14.558-.033 1.125.324 1.704l3.46 5.597-1.94 1.199zm8.994-9.576l-2.515-4.437-1.392.79-.967-1.706 1.445-.818-1.283-2.262 1.879-1.066 1.283 2.262 2.314-1.311.966 1.705-2.296 1.3 2.397 4.23c.289.51.569.822.84.937.272.114.652.033 1.139-.244l.73-.414 1.086 1.914-.888.503c-1.113.632-2.03.825-2.751.582-.72-.242-1.383-.898-1.987-1.965m18.075-11.666l2.447-.64c.547 1.484.592 2.88.133 4.187-.46 1.308-1.391 2.305-2.791 2.99-1.594.778-3.17.858-4.726.238s-2.875-2.037-3.96-4.253c-1.005-2.061-1.253-3.91-.74-5.548.513-1.638 1.512-2.82 2.997-3.546 1.306-.638 2.609-.766 3.908-.385 1.3.38 2.355 1.205 3.167 2.47l-2.026 1.413c-1.243-1.752-2.6-2.268-4.073-1.55-.924.453-1.512 1.2-1.766 2.244-.254 1.045-.006 2.333.744 3.866.766 1.57 1.64 2.593 2.624 3.07.982.477 1.947.485 2.894.022 1.568-.767 1.958-2.293 1.168-4.578m9.498 6.621l-.14-5.365-7.793-7.657 2.204-.952 5.446 5.6.037-.016-.342-7.803 2.166-.936.442 16.257zm11.936-14.286l2.282-.36c.258 1.27.16 2.373-.298 3.305-.456.932-1.27 1.62-2.44 2.07-1.346.515-2.623.477-3.836-.116-1.21-.592-2.133-1.71-2.762-3.354-.605-1.581-.658-3.014-.158-4.297.5-1.285 1.41-2.18 2.731-2.685 1.132-.434 2.197-.452 3.191-.055.994.397 1.762 1.114 2.301 2.149l-1.869 1.102c-.742-1.301-1.698-1.728-2.868-1.28-.759.292-1.253.813-1.478 1.563-.227.75-.14 1.649.261 2.695.4 1.046.928 1.775 1.587 2.187.658.412 1.378.468 2.163.167 1.158-.444 1.555-1.474 1.193-3.091m5.99 2.33l-4.78-13.796 2.23-.772 4.779 13.796zm5.004-8.377l4.929-1.526c-.26-.702-.67-1.214-1.23-1.536-.56-.321-1.229-.362-2.007-.122-.725.226-1.23.647-1.513 1.265a2.842 2.842 0 0 0-.18 1.919m6.012 1.09l1.963.795c-.493 1.883-1.649 3.107-3.469 3.67-1.402.435-2.695.302-3.883-.398-1.186-.7-2.03-1.86-2.53-3.477-.502-1.617-.464-3.05.113-4.296.577-1.246 1.54-2.08 2.89-2.497 1.35-.418 2.605-.276 3.764.425 1.16.702 1.992 1.868 2.497 3.498l.202.649-7.069 2.19c.285.833.727 1.433 1.322 1.8.594.367 1.281.43 2.057.189.37-.114.687-.267.947-.46.262-.193.472-.426.632-.7.16-.271.274-.502.34-.69.068-.19.143-.421.225-.698" fill="#F39C12"/><path d="M673.242 129.952l-5.428 3.603 3.383 2.59 2.077-6.169-.032-.024zm-3.509 10.638l.792-2.416-4.494-3.44-2.11 1.406-1.858-1.422 12.512-8.053 1.524 1.167-4.507 14.18-1.859-1.422zm10.825 3.465l1.419 1.823c-.987.842-2 1.288-3.036 1.34-1.036.05-2.034-.329-2.992-1.136-1.102-.927-1.687-2.064-1.755-3.412-.07-1.347.464-2.694 1.597-4.04 1.09-1.295 2.32-2.035 3.685-2.218 1.366-.184 2.59.18 3.67 1.09.929.782 1.46 1.704 1.594 2.766.133 1.063-.122 2.081-.768 3.054l-1.868-1.103c.779-1.278.69-2.32-.27-3.128-.621-.524-1.315-.703-2.082-.538-.766.165-1.51.676-2.231 1.533-.722.856-1.104 1.672-1.147 2.447-.042.774.258 1.433.9 1.974.95.798 2.044.648 3.284-.452m8.439 7.58l1.338 1.884c-1.025.797-2.056 1.198-3.093 1.203-1.038.005-2.017-.417-2.939-1.266-1.06-.975-1.594-2.137-1.602-3.487-.009-1.349.583-2.67 1.775-3.965 1.147-1.246 2.408-1.93 3.78-2.053 1.373-.122 2.58.295 3.62 1.252.891.822 1.38 1.767 1.467 2.834.087 1.068-.214 2.074-.902 3.017l-1.818-1.185c.836-1.242.793-2.288-.129-3.136-.599-.552-1.284-.762-2.058-.63-.772.13-1.539.608-2.297 1.432-.759.824-1.176 1.621-1.253 2.394-.076.772.194 1.443.812 2.012.912.84 2.012.737 3.3-.306m6.194 3.025l3.634 3.662c.502-.555.766-1.155.792-1.8.026-.646-.247-1.258-.82-1.835-.536-.54-1.143-.792-1.822-.757a2.85 2.85 0 0 0-1.784.73m1.815 5.832l.205 2.108c-1.898.436-3.517-.023-4.86-1.376-1.033-1.042-1.514-2.25-1.442-3.626.071-1.377.708-2.66 1.91-3.854 1.201-1.192 2.488-1.82 3.86-1.887 1.372-.065 2.556.404 3.552 1.407.995 1.003 1.45 2.182 1.365 3.534-.086 1.353-.734 2.63-1.945 3.832l-.483.48-5.212-5.254c-.606.64-.934 1.307-.984 2.004-.05.698.212 1.335.784 1.913.273.274.555.483.847.625.291.143.595.222.911.237.316.016.573.01.771-.018.198-.028.438-.069.721-.125m7.009 3.035l-1.9 1.715c-.456.41-.693.93-.71 1.556-.02.627.214 1.208.696 1.743.58.643 1.268.947 2.062.913.795-.034 1.614-.431 2.455-1.191.84-.758 1.318-1.534 1.429-2.326.112-.792-.118-1.505-.69-2.14-.49-.543-1.055-.83-1.69-.857a2.228 2.228 0 0 0-1.652.587zm-9.725 5.702l11.212-10.114 1.46 1.619-.757.683.028.029c1.108-.084 2.087.344 2.935 1.284.858.95 1.218 2.107 1.082 3.469-.136 1.362-.838 2.614-2.105 3.757-1.277 1.153-2.586 1.737-3.928 1.753-1.342.015-2.46-.472-3.351-1.462-.813-.901-1.121-1.898-.922-2.992l-.028-.03-4.098 3.697-1.528-1.693zm14.603 4.386l3.92-3.261-1.022-1.23 1.507-1.253 1.062 1.276 1.999-1.662 1.38 1.66-1.998 1.663 1.7 2.045-1.507 1.253-1.687-2.03-3.738 3.108c-.451.375-.71.706-.772.994-.065.288.082.646.44 1.077l.537.646-1.691 1.406-.652-.784c-.82-.984-1.172-1.852-1.061-2.604.112-.752.64-1.52 1.583-2.304m7.427 7.7c-.604-.477-1.076-.74-1.417-.79a1.183 1.183 0 0 0-.923.245c-.676.52-.659 1.24.05 2.16.52.676 1.05 1.079 1.59 1.21.538.132 1.004.048 1.394-.254l1.68-1.294-.025-.032a.959.959 0 0 1-.35.005c-.117-.021-.345-.13-.685-.331-.34-.201-.778-.507-1.314-.92zm-1.888 4.89l.84-.648-.024-.031a2.455 2.455 0 0 1-.376-.013 4.521 4.521 0 0 1-.66-.136c-.286-.074-.596-.231-.93-.47a4.522 4.522 0 0 1-.943-.926c-.757-.983-1.092-1.903-1.005-2.762.087-.858.48-1.556 1.176-2.093.718-.554 1.437-.763 2.156-.627.72.136 1.604.623 2.656 1.462.948.75 1.61 1.209 1.982 1.376.373.167.707.137 1.003-.091.285-.22.423-.533.413-.937-.008-.406-.209-.862-.599-1.37-.448-.58-.908-.902-1.379-.968-.472-.066-.984.013-1.535.236l-.599-1.988a4.003 4.003 0 0 1 2.625-.231c.894.22 1.694.789 2.403 1.708.782 1.014 1.154 2.032 1.117 3.054-.037 1.022-.605 1.956-1.704 2.802l-5.432 4.189-1.185-1.536zm2.999 3.993l8.684-6.079 1.26 1.802-.835.585.024.033c.473.026.964.18 1.47.46.504.281.922.656 1.25 1.126.674.961.917 1.918.729 2.871-.186.953-.788 1.785-1.805 2.496l-5.684 3.98-1.297-1.85 5.194-3.637c1.344-.94 1.62-1.974.834-3.098-.397-.568-.88-.907-1.443-1.016-.566-.11-1.126.031-1.683.421l-5.39 3.774-1.308-1.868zm13.83 13.071l.804 2.166c-1.196.504-2.295.625-3.3.361-1.003-.264-1.84-.925-2.511-1.985-.77-1.216-.984-2.477-.643-3.782.34-1.305 1.255-2.428 2.742-3.37 1.43-.906 2.825-1.241 4.182-1.003 1.358.237 2.414.952 3.17 2.146.65 1.025.878 2.065.685 3.118-.193 1.054-.744 1.947-1.652 2.68l-1.45-1.615c1.129-.984 1.359-2.005.688-3.064-.435-.687-1.043-1.067-1.823-1.141-.781-.073-1.645.189-2.59.788-.947.599-1.557 1.262-1.831 1.988-.275.726-.187 1.444.262 2.153.664 1.048 1.753 1.234 3.267.56m5.208 4.543l2.56 4.48c.629-.405 1.04-.916 1.233-1.533.192-.616.087-1.278-.316-1.984-.377-.66-.9-1.061-1.564-1.203a2.845 2.845 0 0 0-1.912.24m.24 6.105l-.35 2.089c-1.945-.071-3.39-.935-4.335-2.59-.73-1.274-.88-2.566-.453-3.876.425-1.311 1.374-2.386 2.844-3.226 1.47-.84 2.876-1.114 4.218-.821 1.343.293 2.364 1.052 3.065 2.279.702 1.227.835 2.483.402 3.768-.434 1.284-1.391 2.349-2.873 3.196l-.59.337-3.672-6.425c-.75.46-1.24 1.02-1.47 1.681-.228.661-.141 1.344.262 2.05.192.336.41.61.655.824.245.213.518.368.819.465.3.097.55.157.749.182.198.025.44.047.729.067m2.86 13.09l10.635-5.157-1.823-3.761 1.961-.952 4.668 9.628-1.962.95-1.814-3.742-10.636 5.158zm9.557 5.428l2.06 4.73c.669-.334 1.13-.797 1.39-1.39.258-.592.225-1.261-.1-2.007-.303-.697-.778-1.152-1.422-1.365a2.844 2.844 0 0 0-1.928.032m-.422 6.095l-.574 2.039c-1.926-.282-3.27-1.297-4.03-3.045-.585-1.344-.596-2.645-.031-3.902.566-1.257 1.624-2.223 3.177-2.9 1.553-.675 2.98-.795 4.282-.36 1.303.438 2.237 1.303 2.8 2.599.565 1.296.562 2.559-.008 3.789-.57 1.229-1.636 2.185-3.202 2.867l-.623.27-2.954-6.784c-.797.376-1.344.88-1.644 1.512-.298.632-.286 1.32.039 2.067.154.354.34.65.562.889.22.239.475.422.764.55.288.13.53.217.724.264.195.046.434.094.718.145m1.525 3.583l1.212 1.763c-1.44.752-1.888 1.838-1.344 3.257.253.66.565 1.129.936 1.408.371.279.75.344 1.135.197.374-.144.583-.417.63-.82.044-.402.01-1.24-.105-2.508-.12-1.282-.062-2.272.18-2.971.237-.7.718-1.186 1.44-1.463.797-.305 1.608-.245 2.436.18.827.426 1.458 1.205 1.892 2.338.835 2.179.388 3.9-1.342 5.162l-1.21-1.592c.952-.794 1.212-1.757.778-2.89-.205-.535-.47-.912-.797-1.13-.326-.217-.633-.271-.919-.161-.324.124-.507.383-.548.777-.042.394.002 1.302.133 2.723.122 1.324.031 2.298-.273 2.92-.303.624-.836 1.08-1.594 1.373-.785.3-1.613.235-2.485-.194-.87-.43-1.554-1.293-2.05-2.587-.52-1.358-.574-2.53-.16-3.516a4.507 4.507 0 0 1 2.055-2.266m4.209 11.277l4.826-1.645-.515-1.515 1.854-.633.535 1.57 2.462-.84.697 2.046-2.462.839.86 2.518-1.856.633-.851-2.5-4.6 1.57c-.554.19-.914.408-1.077.653-.163.246-.154.634.027 1.164l.271.795-2.082.71-.328-.965c-.413-1.211-.435-2.15-.063-2.811.373-.663 1.14-1.192 2.301-1.588" fill="#255EBA"/><path d="M255.99 382.996l13.755-2.61.459 2.416-8.69 7.309.008.04 9.726-1.847.44 2.32-13.755 2.61-.447-2.359 8.678-7.367-.007-.04-9.727 1.847zm9.364 14.252l1.216 5.014c.716-.214 1.251-.592 1.61-1.13.355-.54.438-1.205.245-1.995-.178-.738-.568-1.268-1.168-1.59a2.843 2.843 0 0 0-1.903-.3m-1.463 5.933l-.917 1.91c-1.848-.609-2.997-1.84-3.447-3.691-.345-1.427-.131-2.709.643-3.85.77-1.141 1.98-1.912 3.626-2.31 1.646-.4 3.073-.272 4.281.381 1.208.654 1.979 1.668 2.311 3.041.333 1.373.114 2.617-.659 3.73-.772 1.114-1.988 1.873-3.647 2.274l-.66.16-1.744-7.19c-.85.232-1.475.635-1.878 1.206-.404.57-.51 1.251-.318 2.042.09.376.224.7.4.973.176.273.394.497.656.674.263.177.487.304.67.383.184.08.412.168.683.267m-2.587 4.155l6.261 2.002 3.985-4.731.664 2.306-2.91 3.4.011.039 4.27 1.307.667 2.306-5.889-1.86-4.235 5.011-.683-2.362 3.096-3.622-.009-.04-4.545-1.393zm7.134 11.529l4.842-1.598-.5-1.519 1.862-.615.52 1.579 2.468-.816.677 2.052-2.47.814.834 2.527-1.86.614-.828-2.509-4.616 1.523c-.556.184-.918.398-1.084.642-.164.245-.16.631.016 1.164l.264.798-2.09.688-.32-.968c-.4-1.216-.41-2.153-.032-2.812.38-.658 1.153-1.179 2.317-1.564m1.152 13.958l13.063-5.038.85 2.203-13.064 5.036zm5.76 4.952l4.706-1.968-.618-1.476 1.809-.757.64 1.532 2.4-1.004.833 1.994-2.4 1.003 1.028 2.454-1.81.757-1.019-2.436-4.482 1.875c-.541.227-.886.468-1.032.724-.145.256-.11.643.107 1.16l.323.774-2.028.849-.393-.941c-.497-1.18-.579-2.114-.252-2.8.328-.686 1.057-1.266 2.189-1.74m6.052 6.999l2.167 4.683c.66-.35 1.114-.824 1.359-1.423.244-.598.195-1.266-.146-2.003-.32-.69-.804-1.135-1.453-1.333a2.845 2.845 0 0 0-1.927.076m-.283 6.103l-.528 2.05c-1.931-.237-3.297-1.22-4.098-2.951-.616-1.332-.655-2.631-.119-3.9.536-1.27 1.573-2.26 3.11-2.97 1.537-.712 2.963-.864 4.273-.458 1.312.407 2.265 1.251 2.86 2.534.592 1.282.618 2.545.076 3.788-.542 1.241-1.586 2.222-3.136 2.938l-.617.286-3.108-6.716c-.787.393-1.323.91-1.607 1.548-.285.639-.257 1.327.085 2.066.162.35.356.642.582.876.225.234.483.412.776.534.291.122.535.203.73.246.195.04.436.085.72.129m-1.009 5.944l9.446-4.812.98 1.924-.997.51.018.035a2.45 2.45 0 0 1 1.273.384c.395.247.696.572.902.976.139.273.222.584.25.929l-2.143.687c-.081-.393-.16-.667-.239-.821-.563-1.105-1.628-1.258-3.196-.459l-5.257 2.68-1.036-2.032zm9.194 7.826c-.527-.561-.954-.891-1.284-.99-.33-.1-.646-.064-.948.105-.746.415-.836 1.13-.272 2.142.415.746.879 1.224 1.394 1.435.513.208.985.193 1.417-.047l1.852-1.032-.02-.034a.987.987 0 0 1-.347-.047c-.111-.038-.321-.18-.628-.429a13.82 13.82 0 0 1-1.164-1.103zm-2.59 4.556l.927-.515-.02-.035a2.331 2.331 0 0 1-.37-.069 4.549 4.549 0 0 1-.633-.231c-.27-.117-.554-.318-.85-.603a4.53 4.53 0 0 1-.795-1.056c-.604-1.084-.8-2.043-.586-2.88.214-.836.706-1.469 1.473-1.896.792-.441 1.534-.542 2.225-.301.692.24 1.494.853 2.411 1.839.827.882 1.412 1.435 1.757 1.655.343.22.679.24 1.006.058.313-.175.497-.465.547-.867.05-.402-.08-.882-.392-1.442-.357-.64-.764-1.027-1.22-1.163-.457-.134-.973-.131-1.552.007l-.298-2.054a4.003 4.003 0 0 1 2.63.159c.851.35 1.56 1.032 2.124 2.045.623 1.119.84 2.18.653 3.185-.19 1.005-.888 1.846-2.1 2.521l-5.992 3.338-.945-1.695zm6.028 3.306l4.358-2.648-.83-1.368 1.675-1.017.861 1.418 2.222-1.35 1.122 1.847-2.222 1.35 1.381 2.272-1.676 1.018-1.37-2.255-4.153 2.523c-.502.305-.805.594-.911.869-.106.276-.014.652.277 1.131l.436.718-1.88 1.142-.53-.872c-.665-1.094-.886-2.004-.664-2.732.22-.727.855-1.41 1.904-2.046m11.405 1.71l1.9-1.225 1.279 1.983-1.9 1.225-1.28-1.983zm-10.348 6.722l8.907-5.745 1.236 1.915-8.907 5.747-1.236-1.917zm7.135 7.529c.45.645 1.068.992 1.854 1.038.787.046 1.64-.252 2.56-.89.92-.64 1.496-1.335 1.727-2.089.23-.754.122-1.453-.327-2.1-.456-.656-1.075-1.01-1.856-1.059-.783-.05-1.638.249-2.569.896-.942.655-1.522 1.353-1.743 2.1-.22.745-.103 1.447.354 2.104m1.528 3.213c-1.332-.187-2.405-.867-3.22-2.038-.813-1.171-1.08-2.42-.798-3.743.281-1.325 1.144-2.488 2.59-3.493 1.423-.989 2.818-1.378 4.184-1.165 1.365.212 2.44.882 3.223 2.01.782 1.128 1.032 2.364.747 3.706-.285 1.342-1.138 2.507-2.562 3.497-1.445 1.004-2.834 1.414-4.164 1.226m1.641 4.283l8.413-6.449 1.338 1.746-.81.62.025.032c.475.006.97.138 1.489.397.517.258.95.615 1.299 1.07.714.93.998 1.877.852 2.837-.146.96-.71 1.818-1.696 2.572l-5.506 4.222-1.376-1.793 5.031-3.857c1.302-.999 1.536-2.042.7-3.132-.423-.55-.918-.868-1.486-.953-.57-.084-1.123.08-1.663.494l-5.223 4.003-1.387-1.81zm62.342 44.027l-5.44 3.587 3.376 2.6 2.095-6.163-.031-.024zm-3.542 10.627l.8-2.414-4.484-3.454-2.114 1.402-1.854-1.43 12.537-8.014 1.52 1.172-4.551 14.166-1.854-1.428zm11.543 3.253l1.372-1.97c.373-.536.516-1.12.427-1.75-.09-.63-.44-1.159-1.053-1.585-.7-.488-1.415-.617-2.145-.385-.73.23-1.421.816-2.078 1.757-.655.942-.966 1.794-.929 2.558.037.765.405 1.392 1.105 1.879.591.41 1.197.562 1.819.45a2.215 2.215 0 0 0 1.482-.954zm-2.19 3.423l.584-.838-.033-.021a3.25 3.25 0 0 1-.594.134c-.225.03-.593-.002-1.102-.098a3.677 3.677 0 0 1-1.438-.612c-1.149-.8-1.776-1.854-1.88-3.162-.106-1.307.329-2.662 1.307-4.062.974-1.4 2.122-2.259 3.439-2.576 1.317-.317 2.49-.118 3.52.6.917.64 1.422 1.526 1.51 2.66l.032.023 2.87-4.12 1.87 1.303-8.345 11.98-1.74-1.211zm11.544-7.138l1.226-1.9 1.983 1.281-1.226 1.898-1.982-1.28zm-9.816 12.992l1.29-2 .37.239c.448.29.847.166 1.193-.373l6.053-9.375 1.915 1.236-6.356 9.847c-1.006 1.557-2.226 1.873-3.66.947l-.805-.52zm10.047-2.615l3.522-5.887 1.956 1.17-3.389 5.665c-.403.674-.561 1.22-.477 1.636.086.416.414.795.986 1.138.573.341 1.123.453 1.653.334.529-.118.99-.509 1.39-1.172l3.305-5.528 1.956 1.171-5.44 9.097-1.888-1.13.522-.874-.034-.022c-.99.434-1.999.344-3.03-.273-1.04-.623-1.636-1.39-1.789-2.305-.152-.915.1-1.922.757-3.02m9.725 5.984l2.067.549c-.603 1.507-.235 2.623 1.104 3.346.62.336 1.163.488 1.627.458.462-.03.793-.228.988-.592.191-.35.172-.694-.056-1.03-.228-.335-.8-.947-1.714-1.835-.926-.894-1.527-1.684-1.8-2.37-.274-.685-.228-1.368.14-2.049.406-.75 1.06-1.234 1.967-1.45.902-.217 1.89-.036 2.956.54 2.054 1.109 2.837 2.706 2.346 4.79l-1.954-.419c.205-1.223-.226-2.122-1.295-2.7-.503-.272-.95-.384-1.34-.336-.389.047-.656.206-.801.475-.165.305-.135.621.09.947.225.327.85.986 1.875 1.98.956.924 1.52 1.721 1.697 2.392.175.672.07 1.365-.316 2.08-.399.74-1.07 1.23-2.012 1.472-.94.241-2.02.032-3.241-.626-1.278-.691-2.083-1.545-2.412-2.563a4.513 4.513 0 0 1 .084-3.059m10.797 5.707l2.259-4.573-1.434-.707.866-1.758 1.49.735 1.15-2.33 1.937.956-1.15 2.331 2.385 1.178-.869 1.757-2.366-1.168-2.153 4.357c-.26.526-.36.933-.303 1.222.058.288.338.557.84.805l.754.372-.974 1.972-.915-.451c-1.147-.566-1.823-1.216-2.026-1.949-.203-.733-.034-1.647.51-2.749m18.955 8.319l-2.154-4.252c-.58-.025-1.16.117-1.736.426-.577.31-.996.78-1.257 1.407-.275.665-.258 1.266.051 1.807.31.54.853.972 1.629 1.293.738.309 1.418.392 2.039.253.62-.139 1.097-.45 1.428-.934zm1.99 4.227l-1.114-2.218c-.552.493-1.27.842-2.155 1.044-.886.202-1.938.05-3.157-.456-1.343-.558-2.273-1.34-2.791-2.352-.52-1.01-.542-2.086-.067-3.232.42-1.01 1.027-1.732 1.822-2.166.795-.436 1.596-.687 2.404-.756-.535-1.146-.595-2.218-.18-3.216.378-.911 1.015-1.513 1.909-1.806.894-.292 1.808-.244 2.744.145 1.072.445 1.84 1.078 2.307 1.901.468.822.575 1.78.322 2.872l-2.212-.355c.098-.653.074-1.175-.074-1.568-.148-.394-.478-.698-.995-.913-.47-.194-.874-.225-1.218-.094-.343.132-.59.377-.738.733-.122.297-.156.575-.098.836.057.262.197.612.418 1.051l2.05 4.035.036.016.73-1.755 1.846.768-1.412 3.398 1.553 3.092-1.93.996zm11.594 4.873l3.734-11.214-3.966-1.32.688-2.07 10.152 3.38-.687 2.069-3.948-1.314-3.734 11.215zm7.61 2.45l3.006-10.165 2.071.612-.317 1.075.039.01a2.45 2.45 0 0 1 1.153-.66 2.45 2.45 0 0 1 1.33.018c.295.087.577.24.845.458l-.975 2.028c-.342-.212-.594-.343-.76-.392-1.188-.351-2.033.317-2.532 2.004l-1.673 5.658-2.187-.646zm12.011-1.284c-.77-.004-1.305.078-1.602.25a1.19 1.19 0 0 0-.578.761c-.21.827.245 1.384 1.37 1.672.826.21 1.491.202 1.998-.026.506-.228.82-.581.942-1.06l.525-2.053-.039-.01a.972.972 0 0 1-.273.22c-.104.054-.35.11-.741.16-.393.051-.926.08-1.602.086zm1.525 5.015l.262-1.028-.039-.01a2.356 2.356 0 0 1-.304.22 4.498 4.498 0 0 1-.603.3c-.271.118-.612.186-1.022.205a4.5 4.5 0 0 1-1.313-.15c-1.203-.308-2.034-.828-2.493-1.557-.46-.73-.582-1.522-.364-2.373.226-.88.664-1.486 1.313-1.822.65-.337 1.647-.498 2.993-.484 1.21.007 2.012-.04 2.41-.138.397-.097.64-.327.734-.689.089-.349.005-.68-.252-.993-.257-.314-.695-.55-1.315-.708-.712-.182-1.272-.154-1.684.086-.413.238-.768.616-1.064 1.131l-1.697-1.198a4.001 4.001 0 0 1 1.927-1.798c.84-.378 1.822-.422 2.945-.135 1.24.317 2.16.89 2.76 1.718.6.828.729 1.913.385 3.256l-1.701 6.647-1.878-.48zm12.551-1.521l2.114.933c-.472 1.21-1.15 2.081-2.039 2.617-.889.537-1.946.676-3.173.42-1.41-.295-2.463-1.02-3.162-2.174-.698-1.154-.867-2.592-.508-4.315.348-1.656 1.078-2.89 2.194-3.7 1.116-.807 2.365-1.067 3.748-.778 1.189.248 2.093.81 2.714 1.681.622.872.88 1.89.772 3.053l-2.169-.086c.082-1.495-.492-2.371-1.718-2.628-.796-.166-1.493.005-2.09.514-.595.508-1.01 1.31-1.238 2.407-.23 1.096-.18 1.995.15 2.697.33.704.906 1.14 1.73 1.312 1.212.254 2.105-.397 2.675-1.953m4.274 5.123l2.342-14.411 2.25.365-1.369 8.43.038.005 4.735-3.829 2.863.465-4.473 3.59 3.168 6.937-2.546-.413-2.511-5.495-.04-.006-1.652 1.312-.554 3.415zm106.8-11.624l2.937-.785c1.662-.443 2.302-1.38 1.92-2.81-.382-1.43-1.405-1.923-3.066-1.479l-2.937.784 1.146 4.29zm-.364 7.778l-3.614-13.526 5.39-1.44c1.391-.372 2.608-.3 3.65.215 1.04.516 1.74 1.436 2.094 2.763.276 1.03.232 1.952-.13 2.767-.363.814-.974 1.468-1.836 1.961l4.358 4.611-2.531.676-4.133-4.464-2.358.63 1.39 5.197-2.28.61zm12.517-10.097l4.914-1.573c-.266-.7-.68-1.207-1.243-1.524-.564-.316-1.233-.35-2.008-.102-.723.23-1.224.658-1.501 1.277a2.844 2.844 0 0 0-.162 1.922m6.022 1.032l1.97.777c-.474 1.888-1.618 3.122-3.434 3.704-1.397.447-2.692.326-3.885-.363-1.194-.688-2.049-1.84-2.566-3.452-.516-1.613-.491-3.045.074-4.296.564-1.253 1.52-2.094 2.866-2.525 1.346-.43 2.603-.302 3.768.389 1.167.69 2.01 1.849 2.53 3.474l.208.648-7.048 2.256c.294.83.74 1.427 1.34 1.787.598.361 1.284.418 2.06.17a3.13 3.13 0 0 0 .94-.47c.26-.195.468-.43.625-.704.158-.275.269-.505.335-.694.065-.19.137-.423.217-.7m10.411-4.463l2.286-.336c.244 1.275.133 2.375-.334 3.301-.468.927-1.288 1.609-2.463 2.045-1.351.5-2.627.448-3.833-.158-1.206-.605-2.115-1.733-2.727-3.383-.588-1.588-.625-3.021-.112-4.299.515-1.279 1.435-2.163 2.76-2.655 1.138-.422 2.201-.428 3.192-.02.99.407 1.75 1.132 2.278 2.173l-1.882 1.082c-.727-1.31-1.678-1.746-2.853-1.311-.763.283-1.262.798-1.496 1.547-.235.748-.156 1.647.233 2.697s.91 1.785 1.563 2.205c.653.418 1.374.482 2.16.19 1.164-.43 1.573-1.457 1.227-3.078m9.577-1.216c.724-.306 1.19-.84 1.396-1.6.207-.762.092-1.657-.346-2.689-.436-1.032-.999-1.737-1.69-2.118-.689-.382-1.397-.42-2.12-.112-.737.31-1.21.844-1.42 1.6-.208.753-.09 1.653.35 2.696.448 1.057 1.013 1.77 1.698 2.138.684.37 1.395.397 2.132.085m3.458-.834c-.456 1.265-1.341 2.175-2.654 2.732-1.315.556-2.59.56-3.829.013-1.238-.548-2.2-1.632-2.886-3.252-.675-1.596-.77-3.041-.281-4.333.488-1.292 1.364-2.207 2.629-2.742 1.264-.536 2.524-.526 3.78.029 1.255.554 2.221 1.629 2.897 3.225.686 1.62.8 3.064.344 4.328m4.459-.726l-4.501-9.597 1.954-.918.477 1.014.036-.017a2.45 2.45 0 0 1 .425-1.26 2.45 2.45 0 0 1 1.006-.869c.278-.13.59-.203.936-.218l.616 2.162c-.395.069-.67.14-.828.212-1.122.526-1.31 1.588-.562 3.18l2.505 5.342-2.064.969zm11.271-10.088l-1.104-2.13c-.3-.58-.752-.977-1.35-1.194-.6-.214-1.23-.15-1.894.193-.758.392-1.204.966-1.34 1.719-.135.753.061 1.64.589 2.657.527 1.018 1.138 1.69 1.83 2.013.694.325 1.42.29 2.177-.103.64-.33 1.055-.796 1.247-1.399a2.22 2.22 0 0 0-.155-1.755zm2.009 3.532l-.47-.906-.035.02c-.027.179-.08.374-.157.587-.077.213-.277.524-.6.93a3.677 3.677 0 0 1-1.21.987c-1.244.645-2.468.71-3.675.192-1.206-.517-2.201-1.533-2.986-3.048-.785-1.516-1.01-2.93-.678-4.244.333-1.313 1.055-2.26 2.168-2.836.995-.514 2.015-.547 3.059-.097l.035-.019-2.308-4.456 2.024-1.049 6.716 12.964-1.883.975zm14.483-12.74L651 559.24c-.361.457-.584 1.01-.67 1.657a2.73 2.73 0 0 0 .404 1.84c.378.614.876.953 1.495 1.018.62.066 1.287-.123 2.002-.563.682-.42 1.148-.922 1.398-1.507.251-.584.277-1.153.078-1.704zm4.594.86l-2.451-.395c.077.737-.061 1.522-.416 2.359-.354.836-1.093 1.6-2.216 2.293-1.239.762-2.418 1.058-3.54.888-1.123-.17-2.01-.783-2.66-1.84-.573-.93-.803-1.845-.691-2.744.112-.899.376-1.697.794-2.391-1.242-.239-2.146-.816-2.712-1.736-.518-.84-.633-1.71-.348-2.605.286-.896.86-1.61 1.723-2.14.988-.61 1.953-.863 2.892-.76.94.103 1.779.576 2.519 1.42l-1.584 1.587c-.472-.462-.91-.747-1.315-.859-.406-.11-.845-.018-1.323.274-.431.267-.694.577-.788.933-.095.355-.04.697.162 1.026.168.273.374.463.62.57.246.107.613.198 1.098.275l4.47.7.034-.02-.995-1.619 1.703-1.047 1.93 3.133 3.415.55-.321 2.148zm8.492-4.965l-8.064-11.445 1.928-1.36 8.066 11.445zm5.196-3.68l-6.415-8.438 1.751-1.33.618.811.031-.025c.008-.474.142-.97.403-1.486.26-.516.618-.948 1.075-1.295.935-.71 1.881-.99 2.84-.84.96.149 1.815.717 2.566 1.705l4.2 5.525-1.799 1.366-3.837-5.046c-.992-1.306-2.036-1.543-3.129-.712-.552.42-.871.914-.957 1.482-.088.57.075 1.124.485 1.666l3.983 5.237-1.815 1.38zm12.202-15.064l2.042-1.08c.657 1.118.92 2.194.79 3.223-.131 1.03-.677 1.946-1.638 2.75-1.106.923-2.328 1.3-3.667 1.133-1.337-.167-2.571-.927-3.699-2.278-1.087-1.299-1.6-2.637-1.543-4.014.057-1.377.628-2.52 1.714-3.425.93-.778 1.931-1.139 3-1.086 1.07.053 2.027.482 2.874 1.287l-1.412 1.648c-1.124-.991-2.165-1.085-3.127-.28-.624.52-.922 1.173-.893 1.956.03.785.403 1.606 1.121 2.465.718.86 1.454 1.378 2.21 1.555.755.176 1.456-.004 2.1-.543.953-.794.995-1.899.127-3.31m8.603-4.327c.58-.532.841-1.19.782-1.976-.059-.786-.466-1.592-1.223-2.418-.756-.826-1.521-1.304-2.3-1.433-.777-.13-1.456.071-2.036.603-.591.538-.86 1.2-.805 1.98.056.782.466 1.59 1.23 2.426.773.847 1.545 1.33 2.314 1.449.768.119 1.447-.091 2.038-.631m2.983-1.94c-.009 1.344-.54 2.498-1.592 3.46-1.054.963-2.254 1.393-3.604 1.29-1.35-.103-2.619-.804-3.807-2.103-1.169-1.278-1.74-2.608-1.711-3.99.028-1.38.55-2.535 1.563-3.462 1.014-.927 2.204-1.338 3.574-1.235 1.368.104 2.637.795 3.806 2.074 1.189 1.299 1.778 2.62 1.77 3.966m3.949-2.163l-7.442-7.548 1.537-1.517.787.797.03-.027a2.45 2.45 0 0 1-.02-1.33 2.45 2.45 0 0 1 .658-1.155 2.43 2.43 0 0 1 .81-.518l1.302 1.834c-.35.196-.587.354-.71.476-.884.871-.707 1.932.53 3.186l4.142 4.2-1.624 1.602zm2.467-11.774l1.87 1.752c.445.42.982.612 1.61.578.625-.035 1.185-.315 1.677-.839.593-.632.838-1.344.738-2.132-.101-.79-.565-1.572-1.392-2.347-.826-.775-1.64-1.185-2.438-1.23-.799-.045-1.49.243-2.073.866-.501.536-.74 1.121-.715 1.757.026.636.267 1.167.724 1.596zm6.496 9.215l-11.016-10.328 1.49-1.59.746.699.027-.03c-.178-1.098.167-2.11 1.033-3.033.875-.934 1.997-1.39 3.367-1.368 1.368.022 2.674.617 3.92 1.784 1.255 1.176 1.946 2.433 2.074 3.768.127 1.335-.264 2.489-1.177 3.462-.83.885-1.798 1.275-2.904 1.169l-.028.029 4.027 3.775-1.56 1.663zm6.887-16.932c.509-.599.686-1.284.53-2.056-.155-.773-.66-1.523-1.511-2.25-.853-.726-1.673-1.106-2.461-1.138-.787-.031-1.437.252-1.946.85-.52.61-.703 1.298-.553 2.066.152.769.66 1.52 1.52 2.256.873.744 1.698 1.127 2.476 1.15.776.024 1.425-.269 1.945-.878m2.718-2.295c.158 1.336-.225 2.546-1.151 3.631-.926 1.087-2.065 1.662-3.416 1.727-1.353.064-2.699-.474-4.037-1.616-1.32-1.125-2.05-2.374-2.193-3.749-.143-1.373.232-2.583 1.123-3.628s2.022-1.601 3.393-1.668c1.37-.066 2.715.463 4.035 1.587 1.34 1.142 2.088 2.381 2.246 3.716m3.659-2.639l-8.32-6.57 1.339-1.695.88.694.024-.03a2.446 2.446 0 0 1-.183-1.318 2.43 2.43 0 0 1 .511-1.228c.19-.24.436-.445.739-.614l1.519 1.659c-.323.237-.54.423-.646.56-.769.973-.462 2.006.92 3.095l4.63 3.657-1.413 1.79zm3.268-11.617c-.29.714-.412 1.24-.364 1.58.048.342.211.614.491.818.69.505 1.376.29 2.06-.647.505-.688.745-1.31.72-1.865-.023-.554-.234-.977-.631-1.269l-1.71-1.252-.024.033a.969.969 0 0 1 .101.335c.014.117-.029.367-.127.75-.099.382-.27.887-.516 1.517zm5.221.451l-.856-.626-.022.033c.032.09.063.211.091.365.028.153.047.376.054.67.007.295-.056.637-.192 1.025a4.47 4.47 0 0 1-.628 1.164c-.733 1-1.524 1.578-2.373 1.733-.848.156-1.628-.027-2.338-.546-.73-.537-1.132-1.168-1.202-1.897-.07-.728.152-1.713.666-2.958.456-1.119.712-1.881.769-2.287.057-.404-.065-.717-.366-.937-.29-.212-.63-.258-1.017-.136-.386.122-.768.44-1.147.957-.433.592-.615 1.123-.547 1.594.068.472.287.941.654 1.41l-1.742 1.127a4 4 0 0 1-.953-2.457c-.038-.92.286-1.847.971-2.784.756-1.033 1.631-1.673 2.623-1.922.991-.249 2.047.037 3.165.855l5.536 4.053-1.146 1.564zm.488-6.856l-4.224-2.857-.897 1.325-1.623-1.097.93-1.376-2.154-1.457 1.21-1.788 2.154 1.457 1.49-2.204 1.624 1.097-1.479 2.188 4.026 2.723c.486.329.875.483 1.17.465.294-.019.598-.26.911-.723l.471-.696 1.822 1.232-.57.844c-.718 1.061-1.453 1.643-2.207 1.745-.753.103-1.637-.19-2.654-.878m2.543-8.902l2.73-4.377c-.652-.361-1.298-.482-1.932-.359-.635.123-1.168.53-1.599 1.22-.402.645-.508 1.292-.318 1.945.19.654.562 1.177 1.118 1.57m5.263-3.104l2.004-.682c.86 1.746.784 3.428-.225 5.046-.778 1.245-1.844 1.99-3.2 2.235-1.356.246-2.75-.079-4.187-.975-1.437-.897-2.345-2.006-2.724-3.326-.377-1.32-.192-2.58.555-3.779.75-1.198 1.792-1.912 3.128-2.14 1.336-.226 2.728.112 4.176 1.016l.577.36-3.918 6.277c.76.444 1.486.61 2.176.499.69-.112 1.25-.513 1.682-1.203a3.17 3.17 0 0 0 .415-.967 2.33 2.33 0 0 0 .022-.94 4.459 4.459 0 0 0-.195-.747 14.448 14.448 0 0 0-.286-.674m7.522-17.415l1.604-1.957c1.315.878 2.171 1.981 2.568 3.309.398 1.329.232 2.682-.5 4.06-.83 1.565-2.058 2.557-3.68 2.97-1.624.415-3.526.044-5.704-1.111-2.027-1.074-3.314-2.426-3.862-4.053-.548-1.627-.436-3.17.339-4.63.68-1.284 1.659-2.154 2.934-2.609 1.276-.457 2.614-.41 4.014.135l-.807 2.335c-2.036-.687-3.438-.306-4.206 1.143-.482.907-.517 1.857-.108 2.85.408.995 1.366 1.892 2.874 2.692 1.543.817 2.852 1.132 3.927.94 1.075-.193 1.859-.754 2.353-1.685.819-1.542.236-3.006-1.746-4.39m7.362-2.431l-13.227-6.18.965-2.066 4.566 2.133.018-.036c-.225-.37-.342-.859-.352-1.467a3.736 3.736 0 0 1 .34-1.673c.48-1.026 1.184-1.713 2.11-2.06.928-.346 1.935-.266 3.022.242l6.36 2.973-.957 2.046-5.87-2.744c-.629-.293-1.215-.36-1.76-.203-.544.158-.966.557-1.265 1.197-.288.615-.338 1.197-.15 1.74.187.544.565.948 1.132 1.213l6.034 2.82-.966 2.065zm2.42-16.348c-.111.762-.104 1.302.024 1.621.128.32.351.546.672.678.79.326 1.405-.048 1.847-1.121.325-.789.41-1.45.255-1.982-.154-.533-.46-.893-.917-1.082l-1.96-.808-.014.037c.078.09.137.19.178.301.04.11.06.364.055.759-.004.394-.05.927-.14 1.597zm5.178-.807l-.979-.404-.016.038c.054.08.114.19.178.332.064.143.134.355.21.64.079.283.098.63.06 1.04-.04.41-.151.836-.334 1.28-.473 1.145-1.103 1.895-1.89 2.248-.788.354-1.588.362-2.402.027-.838-.347-1.378-.864-1.62-1.556-.24-.69-.26-1.7-.058-3.03.177-1.197.244-1.999.202-2.404-.04-.408-.235-.682-.58-.824-.332-.137-.672-.1-1.018.11-.347.21-.642.611-.886 1.202-.28.679-.33 1.24-.151 1.68.178.442.502.845.97 1.211l-1.423 1.512a3.998 3.998 0 0 1-1.511-2.16c-.256-.883-.163-1.862.28-2.935.489-1.183 1.184-2.014 2.089-2.491.903-.478 1.996-.453 3.277.076l6.343 2.615-.741 1.793zm2.039-5.138l-9.974-3.59.746-2.07.96.346.013-.039c-.252-.4-.41-.89-.472-1.464a3.707 3.707 0 0 1 .198-1.673c.397-1.104 1.04-1.854 1.926-2.25.886-.397 1.913-.386 3.08.035l6.53 2.35-.765 2.126-5.965-2.147c-1.544-.556-2.549-.186-3.012 1.105-.235.652-.236 1.241.001 1.766.238.524.675.901 1.315 1.131l6.19 2.228-.771 2.146zm2.383-19.603l-2.448-.749a2.232 2.232 0 0 0-1.745.165c-.564.296-.954.794-1.17 1.495-.25.815-.155 1.559.28 2.23.437.67 1.197 1.171 2.28 1.503 1.085.332 1.994.345 2.728.04.734-.305 1.229-.871 1.482-1.7.212-.69.176-1.313-.105-1.874a2.095 2.095 0 0 0-1.302-1.11m3.815 8.239l-.556-2.011c.668-.088 1.207-.279 1.619-.572.41-.292.712-.757.908-1.394.215-.701.193-1.314-.065-1.84-.258-.525-.775-.907-1.552-1.145l-1.3-.398-.013.038c.262.331.443.764.544 1.297.102.532.062 1.099-.121 1.697-.403 1.314-1.214 2.255-2.434 2.822-1.22.569-2.658.599-4.315.09-1.632-.499-2.797-1.34-3.495-2.523-.696-1.183-.858-2.393-.478-3.629.363-1.186 1.063-1.969 2.1-2.35l.011-.037-.975-.298.644-2.103 10.192 3.12c1.467.45 2.464 1.205 2.99 2.264.525 1.06.584 2.255.179 3.58-.32 1.045-.828 1.852-1.526 2.419a4.27 4.27 0 0 1-2.357.973m-4.096-15.952l1.276-5c-.734-.146-1.384-.064-1.951.246-.567.309-.952.858-1.153 1.646-.188.736-.092 1.387.287 1.951.378.565.892.95 1.541 1.157m4.073-4.554l1.704-1.259c1.348 1.404 1.786 3.03 1.314 4.878-.362 1.422-1.152 2.454-2.37 3.1-1.218.645-2.646.76-4.286.34-1.641-.418-2.842-1.199-3.603-2.344-.762-1.143-.967-2.399-.618-3.769.35-1.37 1.126-2.364 2.331-2.986 1.205-.621 2.634-.721 4.287-.3l.66.168-1.831 7.171c.86.191 1.602.13 2.226-.186.624-.316 1.037-.867 1.237-1.656a3.17 3.17 0 0 0 .103-1.046 2.306 2.306 0 0 0-.265-.905 4.266 4.266 0 0 0-.412-.651c-.125-.156-.285-.34-.477-.555m.934-3.97l-.065-2.139c1.618.147 2.581-.524 2.893-2.012.144-.691.136-1.254-.026-1.69-.16-.436-.443-.696-.847-.78-.392-.082-.717.035-.972.348-.257.315-.68 1.037-1.27 2.168-.593 1.142-1.178 1.942-1.757 2.4-.58.458-1.248.608-2.005.45-.835-.174-1.486-.663-1.952-1.469-.465-.805-.573-1.802-.325-2.99.477-2.283 1.783-3.488 3.92-3.615l.157 1.994c-1.23.151-1.97.822-2.217 2.009-.118.562-.098 1.022.058 1.381.157.36.386.572.686.634.34.07.633-.048.882-.357.248-.31.701-1.096 1.36-2.362.615-1.18 1.217-1.95 1.81-2.31.593-.359 1.287-.456 2.084-.29.823.172 1.484.674 1.984 1.507.5.834.608 1.928.326 3.286-.298 1.423-.887 2.437-1.77 3.044a4.52 4.52 0 0 1-2.954.792" fill="#9C27B0"/><path d="M322.565 183.795l2.796 4.398 2.124-2.665-4.9-1.758-.02.025zm8.453 2.974l-1.92-.67-2.822 3.54 1.092 1.71-1.167 1.463-6.243-10.135.957-1.2 11.27 3.83-1.167 1.462zm3.122-8.687l-1.45-1.257a1.904 1.904 0 0 0-1.356-.487c-.51.017-.96.252-1.35.703-.447.516-.61 1.074-.488 1.674.123.6.53 1.2 1.223 1.801.693.601 1.346.919 1.957.955.61.035 1.14-.205 1.588-.721.377-.435.548-.904.512-1.409a1.775 1.775 0 0 0-.635-1.259zm2.54 2.031l-.617-.535-.021.025c.033.141.052.302.058.483.005.181-.052.471-.171.869a2.928 2.928 0 0 1-.608 1.092c-.734.847-1.625 1.257-2.674 1.229-1.05-.027-2.09-.487-3.121-1.381-1.032-.895-1.62-1.879-1.76-2.954-.141-1.075.116-1.992.773-2.75.586-.676 1.334-1.003 2.245-.977l.02-.024-3.035-2.63 1.194-1.378 8.827 7.649-1.11 1.282zm4.17-9.351l-1.398-1.315a1.91 1.91 0 0 0-1.336-.543c-.51-.003-.97.212-1.377.648-.47.497-.654 1.047-.557 1.652.098.604.48 1.22 1.149 1.85.668.628 1.307.973 1.916 1.034.609.06 1.148-.158 1.616-.655.395-.42.585-.881.569-1.387a1.777 1.777 0 0 0-.582-1.284zm2.453 2.133l-.595-.56-.022.024c.027.143.04.304.038.486-.002.18-.071.468-.206.86a2.944 2.944 0 0 1-.652 1.067c-.768.816-1.675 1.189-2.723 1.118-1.047-.07-2.067-.572-3.063-1.508-.994-.936-1.54-1.944-1.636-3.023-.096-1.08.199-1.985.885-2.716.615-.652 1.375-.947 2.283-.884l.02-.023-2.923-2.752 1.25-1.33 8.506 8.006-1.162 1.235zm6.138-6.21l-7.7-8.132 5.076-4.808 1.2 1.266-3.707 3.51 2.277 2.405 3.37-3.19 1.144 1.207-3.369 3.191 3.08 3.253zm4.569-8.38l-3.615-4.128 1.372-1.202 3.478 3.972c.415.473.79.729 1.128.766.338.038.707-.12 1.11-.47.4-.352.62-.744.66-1.176.04-.431-.143-.88-.551-1.346l-3.394-3.875 1.373-1.202 5.586 6.379-1.324 1.16-.538-.614-.023.02c.086.86-.232 1.607-.953 2.239-.731.64-1.463.905-2.196.796-.734-.11-1.438-.548-2.113-1.32m9.135-3.957l-5.328-6.597 1.37-1.106.513.635.025-.02c-.006-.38.09-.779.286-1.199a2.97 2.97 0 0 1 .828-1.06c.732-.59 1.483-.837 2.253-.739.772.097 1.469.531 2.092 1.303l3.488 4.32-1.406 1.135-3.187-3.945c-.825-1.02-1.664-1.186-2.518-.496-.432.35-.676.751-.732 1.208-.057.457.087.896.428 1.32l3.308 4.095-1.42 1.146zm9.655-11.802l1.68-.772c.475.922.638 1.793.489 2.609-.15.817-.627 1.524-1.432 2.123-.923.689-1.916.936-2.977.744-1.062-.194-2.014-.855-2.855-1.984-.81-1.086-1.161-2.178-1.054-3.275.107-1.097.613-1.984 1.52-2.66.778-.58 1.593-.824 2.445-.734.853.09 1.599.475 2.239 1.156l-1.2 1.253c-.854-.84-1.682-.961-2.487-.362-.521.388-.788.896-.8 1.524-.01.627.25 1.299.787 2.018.535.718 1.1 1.165 1.697 1.339.595.175 1.162.062 1.7-.34.796-.593.88-1.472.249-2.64m3.871-2.25l-2.327-3.352-1.05.73-.895-1.287 1.091-.758-1.186-1.709 1.42-.985 1.185 1.709 1.748-1.214.895 1.288-1.735 1.204 2.217 3.194c.268.386.514.614.738.685.225.072.522-.02.89-.276l.552-.383 1.003 1.445-.67.466c-.84.584-1.558.806-2.149.664-.592-.14-1.167-.615-1.727-1.421m6.528-1.034l-4.676-7.074 1.522-1.006 4.675 7.075-1.522 1.005zm-5.47-8.219l-.997-1.507 1.575-1.042.997 1.509-1.574 1.04zm11.344 2.772a1.85 1.85 0 0 0 .907-1.437c.069-.627-.131-1.321-.604-2.083-.472-.762-1.004-1.25-1.595-1.468a1.852 1.852 0 0 0-1.69.173c-.546.338-.855.817-.927 1.44-.072.622.13 1.317.609 2.088.481.78 1.017 1.273 1.604 1.481.587.208 1.152.143 1.696-.194m2.631-1.085c-.205 1.056-.793 1.885-1.763 2.486-.97.6-1.978.761-3.024.48-1.046-.28-1.94-1.018-2.682-2.215-.73-1.178-.981-2.31-.755-3.391.227-1.081.807-1.912 1.742-2.491.933-.578 1.93-.726 2.99-.441 1.062.283 1.957 1.015 2.687 2.193.742 1.196 1.01 2.324.805 3.379m3.197-.813l-4.176-7.381 1.532-.866.402.71.029-.015c.055-.375.216-.754.478-1.136a2.98 2.98 0 0 1 .992-.91c.817-.463 1.598-.582 2.342-.36.746.222 1.362.765 1.85 1.628l2.734 4.833-1.574.89-2.497-4.415c-.646-1.142-1.448-1.442-2.404-.9-.482.272-.789.629-.919 1.07-.13.442-.061.9.206 1.373l2.592 4.581-1.587.898zm9.168-9.112c-.463.406-.738.74-.825 1a.945.945 0 0 0 .06.763c.312.606.881.697 1.706.272.607-.312 1-.672 1.181-1.077.182-.405.183-.783.002-1.134l-.777-1.508-.029.015a.771.771 0 0 1-.046.276c-.033.09-.151.252-.36.491-.206.239-.51.54-.912.902zm3.576 2.19l-.39-.754-.026.014a1.83 1.83 0 0 1-.066.294c-.035.12-.1.287-.2.5a2.41 2.41 0 0 1-.503.665 3.589 3.589 0 0 1-.867.607c-.882.455-1.654.586-2.318.394a2.338 2.338 0 0 1-1.477-1.228c-.333-.644-.394-1.24-.183-1.786.211-.547.721-1.174 1.534-1.88.727-.638 1.183-1.092 1.368-1.361.186-.27.21-.538.073-.802-.132-.256-.359-.41-.679-.462-.32-.05-.708.042-1.163.276-.521.269-.84.583-.962.946-.118.36-.131.775-.035 1.241l-1.651.185a3.2 3.2 0 0 1 .197-2.099c.302-.672.866-1.22 1.69-1.645.91-.47 1.765-.615 2.564-.44.799.178 1.453.759 1.96 1.745l2.514 4.879-1.38.71zm3.614-1.785l-5.052-10.531 1.702-.816 5.052 10.53zm4.15-1.961l-3.52-7.715 1.658-.757 3.52 7.715-1.659.757zm-4.128-8.969l-.75-1.645 1.717-.783.752 1.645-1.719.783zm7.485 4.357l-1.609-3.75-1.177.505-.617-1.441 1.22-.524-.819-1.912 1.588-.68.82 1.912 1.956-.84.618 1.442-1.942.832 1.533 3.574c.185.431.38.704.586.818.205.116.515.084.927-.092l.617-.265.693 1.618-.75.322c-.94.403-1.687.476-2.239.22-.551-.258-1.02-.836-1.405-1.739m8.465 3.413l.038-4.293-6.02-6.338 1.789-.7 4.198 4.628.03-.011-.056-6.25 1.758-.687-.099 13.01z" fill="#918F8F"/><path d="M830 337c0 173.97-141.03 315-315 315S200 510.97 200 337 341.03 22 515 22s315 141.03 315 315zM578 148l35-109M376.28 482L294 558" stroke="#DEDEDE" stroke-width="2" stroke-linecap="round" stroke-dasharray="4"/><g filter="url(#a)" transform="translate(415 237)"><path d="M200 100c0 55.228-44.772 100-100 100S0 155.228 0 100 44.772 0 100 0s100 44.772 100 100" fill="#2866DC"/><text font-family="MaisonNeue-Demi, Maison Neue" font-size="24" font-weight="500" fill="#FFF"><tspan x="72.137" y="92.2">Agile</tspan></text></g><text font-family="MaisonNeue-Demi, Maison Neue" font-size="24" font-weight="500" fill="#FFF" transform="translate(0 -5)"><tspan x="441.393" y="363">D</tspan> <tspan x="457.161" y="363" letter-spacing="-.48">ev</tspan> <tspan x="482.025" y="363">elopment</tspan></text><g stroke-width="2"><path d="M576.816 146.736c67.447 21.898 119.178 78.662 133.928 149.025" stroke="#255EBA"/><path stroke="#F39C12" stroke-linecap="round" stroke-linejoin="round" d="M569.333 136.333l7.482 10.418-13.149 3.915"/></g><g transform="translate(0 194)"><path d="M150 10h73" stroke="#DEDEDE" stroke-width="2" stroke-linecap="round"/><text font-family="MaisonNeue-Book, Maison Neue" font-size="14" font-weight="300" fill="#231F20"><tspan x="0" y="14">Review Iterate &amp; Test</tspan></text><circle stroke="#DEDEDE" stroke-width="2" stroke-linecap="round" fill="#FFF" cx="230" cy="10" r="6"/></g><g transform="translate(92 104)"><path d="M99.385 10h95" stroke="#DEDEDE" stroke-width="2" stroke-linecap="round"/><text font-family="MaisonNeue-Book, Maison Neue" font-size="14" font-weight="300" fill="#231F20"><tspan x="0" y="14">Iterate &amp; Test</tspan></text><circle stroke="#DEDEDE" stroke-width="2" stroke-linecap="round" fill="#FFF" cx="201" cy="10" r="6"/></g><g transform="translate(217 27)"><path d="M99 10h95" stroke="#DEDEDE" stroke-width="2" stroke-linecap="round"/><text font-family="MaisonNeue-Book, Maison Neue" font-size="14" font-weight="300" fill="#231F20"><tspan x="0" y="14">Iterate &amp; Test</tspan></text><circle stroke="#DEDEDE" stroke-width="2" stroke-linecap="round" fill="#FFF" cx="201" cy="10" r="6"/></g><text font-family="MaisonNeue-Demi, Maison Neue" font-size="24" font-weight="500" fill="#231F20" transform="translate(0 -5)"><tspan x="885.896" y="24">Continuous</tspan> <tspan x="916.88" y="56">Visibility</tspan></text><path d="M1.91 336.5h313.117" stroke="#060606" stroke-width="2" stroke-linecap="round"/><path d="M526.663 538L532 649" stroke="#DEDEDE" stroke-width="2" stroke-linecap="round" stroke-dasharray="4"/><g transform="translate(773 148)"><path d="M13 17h95" stroke="#DEDEDE" stroke-width="2" stroke-linecap="round"/><text font-family="MaisonNeue-Book, Maison Neue" font-size="14" font-weight="300" fill="#231F20"><tspan x="117" y="14">Clients Developers </tspan> <tspan x="117" y="31">&amp; Users</tspan></text><circle stroke="#DEDEDE" stroke-width="2" stroke-linecap="round" fill="#FFF" cx="6" cy="17" r="6"/></g><g filter="url(#b)" transform="translate(415 237)"><path d="M200 100c0 55.228-44.772 100-100 100S0 155.228 0 100 44.772 0 100 0s100 44.772 100 100" fill="#2866DC"/><text font-family="MaisonNeue-Demi, Maison Neue" font-size="24" font-weight="500" fill="#FFF"><tspan x="72.137" y="92.2">Agile</tspan></text></g><text font-family="MaisonNeue-Demi, Maison Neue" font-size="24" font-weight="500" fill="#FFF" transform="translate(0 -5)"><tspan x="441.393" y="363">D</tspan> <tspan x="457.161" y="363" letter-spacing="-.48">ev</tspan> <tspan x="482.025" y="363">elopment</tspan></text><g stroke-width="2"><path d="M315 337c0-110.457 89.543-200 200-200 21.574 0 42.349 3.416 61.816 9.736" stroke="#F39C12"/><path d="M715 337c0 110.457-89.543 200-200 200-100.325 0-183.397-73.87-197.793-170.186" stroke="#9C27B0"/><path stroke="#F39C12" stroke-linecap="round" stroke-linejoin="round" d="M569.333 136.333l7.482 10.418-13.149 3.915"/><path stroke="#9C27B0" stroke-linecap="round" stroke-linejoin="round" d="M310 375.414L317.488 365l7.904 11.213"/></g><g transform="translate(675 284)"><use fill="#000" filter="url(#c)" xlink:href="#d"/><use fill="#FFF" xlink:href="#d"/></g><path d="M710 296c23.748 0 43 17.909 43 40" stroke="#255EBA" stroke-width="2" stroke-linecap="round"/><path stroke="#255EBA" stroke-width="2" stroke-linecap="round" stroke-linejoin="round" d="M715.071 284l-4.235 12.107-10.754-8.518"/><text font-family="MaisonNeue-Demi, Maison Neue" font-size="12" font-weight="500" fill="#231F20" transform="translate(675 284)"><tspan x="14.16" y="58">APPROVE</tspan></text><g transform="translate(289 308)"><use fill="#000" filter="url(#e)" xlink:href="#f"/><use fill="#FFF" xlink:href="#f"/></g><path d="M289 335.5c0-15.188 12.312-27.5 27.5-27.5" stroke="#060606" stroke-width="2" stroke-linecap="round"/><path d="M311 326v22m3-8v-12l11 6z" stroke="#231F20" stroke-width="2" stroke-linecap="round" stroke-linejoin="round"/><g transform="translate(746 322)"><use fill="#000" filter="url(#g)" xlink:href="#h"/><use fill="#FFF" xlink:href="#h"/></g><path stroke="#2ECC71" stroke-width="2" stroke-linecap="round" stroke-linejoin="round" d="M752 337l6 6 12-12"/><g transform="translate(696 358)"><use fill="#000" filter="url(#i)" xlink:href="#j"/><use fill="#FFF" xlink:href="#j"/></g><path d="M717 367l-12 12m12 0l-12-12" stroke="#FF3B30" stroke-width="2" stroke-linecap="round" stroke-linejoin="round"/></g></svg>