<svg width="153" height="36" viewBox="0 0 153 36" xmlns="http://www.w3.org/2000/svg"><title>cision-logo-orange</title><g fill="#F15D22" fill-rule="evenodd"><path d="M31.315 1.037h7.93v34.261h-7.93zm39.08 0h7.93v34.261h-7.93zm75.906 0h-8.71v22.851l-12.226-22.85h-8.441v34.26h7.72V14.431l11.114 20.867h9.552V5.98c0-3.57.991-4.943.991-4.943M97.67.519c-9.613 0-17.393 7.901-17.393 17.664 0 9.763 7.78 17.664 17.392 17.664 9.613 0 17.393-7.901 17.393-17.664 0-9.763-7.78-17.664-17.393-17.664m0 28.006c-5.617 0-10.183-4.637-10.183-10.342 0-5.705 4.566-10.342 10.183-10.342 5.618 0 10.183 4.637 10.183 10.342 0 5.736-4.565 10.342-10.183 10.342m-80.232-.335c-5.617 0-10.183-4.637-10.183-10.343 0-5.705 4.566-10.342 10.183-10.342h.24c5.137.305 6.759 4.271 6.759 4.271l4.386-7.322C25.758 1.77 21.792.153 17.437.153 7.825.153.045 8.054.045 17.817c0 9.763 7.78 17.664 17.392 17.664 4.356 0 8.32-1.617 11.385-4.301l-4.146-6.102a9.88 9.88 0 0 1-7.239 3.112zm42.324-12.326c-1.081-.457-3.574-1.342-5.046-1.922-1.502-.61-3.335-1.77-3.335-3.844s1.863-3.081 4.386-3.081c1.232 0 2.613.366 3.905.946 2.373 1.25 3.214 3.325 3.214 3.325l3.785-6.346h-.03l.03-.03C63.876 2.105 59.88.427 55.976.427c-3.905 0-6.999 1.098-8.891 2.715-1.953 1.648-3.515 4.485-3.515 7.75 0 3.233 1.172 5.216 2.644 6.59 1.472 1.433 3.184 2.074 3.995 2.47 1.111.489 3.665 1.404 5.136 1.923 1.472.549 3.965 1.433 3.965 3.783 0 2.288-2.042 3.325-4.595 3.325-2.584 0-6.278-1.556-8.711-4.119l-3.905 5.858c2.733 2.593 7.089 4.79 11.985 5.156 3.634.275 7.3-.183 9.852-2.685 2.223-2.196 3.245-5.064 3.245-8.329 0-6.254-6.278-8.45-7.42-9zM151.378 2.99a.474.474 0 0 0 .18-.244c.03-.092.06-.214.06-.366 0-.244-.06-.427-.21-.55-.15-.122-.42-.213-.781-.213h-1.232v2.837h.36V3.142h.602l.78 1.282h.451l-.84-1.312c.12 0 .21-.03.33-.061.12.06.21 0 .3-.061zm-1.592-1.068h.78c.091 0 .181 0 .241.03.09 0 .15.031.21.062.06.03.12.091.15.152s.06.153.06.244c0 .153-.03.244-.09.305a.653.653 0 0 1-.24.153c-.09.03-.21.03-.3.03h-.811v-.976z"/><path d="M152.64 2.075c-.12-.306-.3-.58-.541-.794a3.612 3.612 0 0 0-.781-.549 2.595 2.595 0 0 0-.961-.213c-.36 0-.661.06-.962.213-.3.122-.57.305-.78.55a2.46 2.46 0 0 0-.541.793c-.12.305-.21.64-.21.976 0 .335.06.671.21.976.12.305.3.58.54.793.21.244.481.427.781.55.3.122.631.213.962.213.33 0 .66-.061.96-.214.301-.122.572-.305.782-.549.21-.213.39-.488.54-.793.12-.305.18-.64.18-.976 0-.336-.06-.671-.18-.976zm-2.313 3.172c-.3 0-.571-.06-.841-.183a2.139 2.139 0 0 1-.661-.457 1.816 1.816 0 0 1-.42-.702 2.661 2.661 0 0 1-.151-.854c0-.305.06-.58.15-.854.09-.275.24-.489.42-.702.18-.183.391-.336.662-.458.24-.122.54-.183.84-.183.301 0 .571.061.842.183.24.122.48.275.66.458.18.183.33.427.421.702.09.274.15.549.15.854 0 .305-.06.61-.15.854-.09.275-.24.488-.42.702a2.14 2.14 0 0 1-.661.457c-.24.122-.541.183-.841.183z"/></g></svg>