<svg width="156" height="156" viewBox="0 0 156 156" xmlns="http://www.w3.org/2000/svg" xmlns:xlink="http://www.w3.org/1999/xlink"><title>cision-icon-prototype</title><defs><path id="a" d="M23 23h110v110H23z"/><mask id="b" x="0" y="0" width="110" height="110" fill="#fff"><use xlink:href="#a"/></mask></defs><g fill="none" fill-rule="evenodd"><use stroke="#DEDEDE" mask="url(#b)" stroke-width="2" fill="#F8F8F8" transform="rotate(45 78 78)" xlink:href="#a"/><path fill="#F8F8F8" d="M18 18h120v120H18z"/><g stroke="#231F20" stroke-width="2" stroke-linecap="round" stroke-linejoin="round"><path d="M94 63h6v29H73m-11 0h-6V63h21"/><path d="M93 77H78a1 1 0 0 1-1-1V58a1 1 0 0 1 1-1h15a1 1 0 0 1 1 1v18a1 1 0 0 1-1 1zM72 99h-9a1 1 0 0 1-1-1V84a1 1 0 0 1 1-1h9a1 1 0 0 1 1 1v14a1 1 0 0 1-1 1zm5-2h6m-16-3h1m16-22h3"/></g></g></svg>