<?xml version="1.0" encoding="UTF-8"?>
<svg width="156px" height="156px" viewBox="0 0 156 156" version="1.1" xmlns="http://www.w3.org/2000/svg" xmlns:xlink="http://www.w3.org/1999/xlink">
    <!-- Generator: Sketch 39.1 (31720) - http://www.bohemiancoding.com/sketch -->
    <title>cision-icon-library</title>
    <desc>Created with Sketch.</desc>
    <defs>
        <rect id="path-1" x="23" y="23" width="110" height="110"></rect>
        <mask id="mask-2" maskContentUnits="userSpaceOnUse" maskUnits="objectBoundingBox" x="0" y="0" width="110" height="110" fill="white">
            <use xlink:href="#path-1"></use>
        </mask>
    </defs>
    <g id="Visual-1" stroke="none" stroke-width="1" fill="none" fill-rule="evenodd">
        <g id="02_Case-Study-Cision" transform="translate(-1134.000000, -3237.000000)">
            <g id="Group-26" transform="translate(1129.000000, 3237.000000)">
                <g id="cision-icon-library" transform="translate(5.000000, 0.000000)">
                    <use id="Rectangle-5" stroke="#DEDEDE" mask="url(#mask-2)" stroke-width="2" fill="#F8F8F8" transform="translate(78.000000, 78.000000) rotate(45.000000) translate(-78.000000, -78.000000) " xlink:href="#path-1"></use>
                    <rect id="Rectangle-3" fill="#F8F8F8" x="18" y="18" width="120" height="120"></rect>
                    <g id="files-48px-outline_folder-dev" transform="translate(56.000000, 59.000000)" stroke-width="2" stroke="#231F20">
                        <g id="Group">
                            <path d="M40,42 L4,42 C1.791,42 0,40.209 0,38 L0,0 L16,0 L22,8 L44,8 L44,38 C44,40.209 42.209,42 40,42 Z" id="Shape"></path>
                            <polyline id="Shape" points="18 19 12 25 18 31"></polyline>
                            <polyline id="Shape" points="26 31 32 25 26 19"></polyline>
                        </g>
                    </g>
                </g>
            </g>
        </g>
    </g>
</svg>