<?xml version="1.0" encoding="UTF-8"?>
<svg width="156px" height="156px" viewBox="0 0 156 156" version="1.1" xmlns="http://www.w3.org/2000/svg" xmlns:xlink="http://www.w3.org/1999/xlink">
    <!-- Generator: Sketch 39.1 (31720) - http://www.bohemiancoding.com/sketch -->
    <title>cision-icon-prototype</title>
    <desc>Created with Sketch.</desc>
    <defs>
        <rect id="path-1" x="23" y="23" width="110" height="110"></rect>
        <mask id="mask-2" maskContentUnits="userSpaceOnUse" maskUnits="objectBoundingBox" x="0" y="0" width="110" height="110" fill="white">
            <use xlink:href="#path-1"></use>
        </mask>
    </defs>
    <g id="Visual-1" stroke="none" stroke-width="1" fill="none" fill-rule="evenodd">
        <g id="02_Case-Study-Cision" transform="translate(-640.000000, -3237.000000)">
            <g id="Group-21" transform="translate(640.000000, 3237.000000)">
                <g id="cision-icon-prototype">
                    <use id="Rectangle-5" stroke="#DEDEDE" mask="url(#mask-2)" stroke-width="2" fill="#F8F8F8" transform="translate(78.000000, 78.000000) rotate(45.000000) translate(-78.000000, -78.000000) " xlink:href="#path-1"></use>
                    <rect id="Rectangle-3" fill="#F8F8F8" x="18" y="18" width="120" height="120"></rect>
                    <g id="Group-8" transform="translate(56.000000, 57.000000)" stroke="#231F20" stroke-width="2" stroke-linecap="round" stroke-linejoin="round">
                        <polyline id="Stroke-600" points="38 6 44 6 44 35 17 35"></polyline>
                        <polyline id="Stroke-601" points="6 35 0 35 0 6 21 6"></polyline>
                        <path d="M37,20 L22,20 C21.448,20 21,19.552 21,19 L21,1 C21,0.448 21.448,0 22,0 L37,0 C37.552,0 38,0.448 38,1 L38,19 C38,19.552 37.552,20 37,20 L37,20 Z" id="Stroke-602"></path>
                        <path d="M16,42 L7,42 C6.448,42 6,41.552 6,41 L6,27 C6,26.448 6.448,26 7,26 L16,26 C16.552,26 17,26.448 17,27 L17,41 C17,41.552 16.552,42 16,42 L16,42 Z" id="Stroke-603"></path>
                        <path d="M21,40 L27,40" id="Stroke-604"></path>
                        <path d="M11,37 L12,37" id="Stroke-605"></path>
                        <path d="M28,15 L31,15" id="Stroke-606"></path>
                    </g>
                </g>
            </g>
        </g>
    </g>
</svg>