<?xml version="1.0" encoding="UTF-8" standalone="no"?>
<svg width="200px" height="55px" viewBox="0 0 200 55" version="1.1" xmlns="http://www.w3.org/2000/svg" xmlns:xlink="http://www.w3.org/1999/xlink" xmlns:sketch="http://www.bohemiancoding.com/sketch/ns">
    <!-- Generator: Sketch 3.4.2 (15857) - http://www.bohemiancoding.com/sketch -->
    <title>Logo</title>
    <desc>Created with Sketch.</desc>
    <defs>
        <path id="path-1" d="M0,0.25584 L41.6607059,0.25584 L41.6607059,41 L0,41 L0,0.25584 Z"></path>
    </defs>
    <g id="Page-1" stroke="none" stroke-width="1" fill="none" fill-rule="evenodd" sketch:type="MSPage">
        <g id="Airport-1.0" sketch:type="MSArtboardGroup" transform="translate(-250.000000, -42.000000)">
            <g id="Header" sketch:type="MSLayerGroup" transform="translate(-5.000000, 0.000000)">
                <g id="Top-(Logo-+-Menu)" transform="translate(255.000000, 42.000000)">
                    <g id="Logo">
                        <g id="Text" transform="translate(54.000000, 0.000000)" fill="#333268" sketch:type="MSShapeGroup">
                            <g id="Page-1">
                                <path d="M35.486935,13 L29.9456979,28.5998336 L24.2441911,13 L18.7566614,13 L13.0551546,28.5482529 L7.51306503,13 L-3.55271368e-15,13 L9.85743458,39 L15.7183584,39 L21.5264274,23.7113145 L27.2807891,39 L33.1425654,39 L43,13 L35.486935,13 Z" id="Fill-1"></path>
                                <g id="Group-7">
                                    <path d="M47,13 L54,13 L54,40 L47,40 L47,13 Z M55,4.05127679 C55,6.30745565 53.0875,8 50.5,8 C47.8567,8 46,6.30745565 46,4.05127679 C46,1.89765152 47.8567,-2.84217094e-14 50.5,-2.84217094e-14 C53.0875,-2.84217094e-14 55,1.89765152 55,4.05127679 L55,4.05127679 Z" id="Fill-2"></path>
                                    <path d="M86,23.0312821 L86,39 L78.9819395,39 L78.9819395,24.5020077 C78.9819395,20.8251938 76.8552545,18.3560557 73.6116346,18.3560557 C69.6236749,18.3560557 67.0189111,20.9823513 67.0189111,27.3913531 L67.0189111,39 L60,39 L60,12.7883089 L67.0189111,12.7883089 L67.0189111,15.1515548 C69.0920037,13.1034644 71.8566941,12 75.3657244,12 C81.74663,12 86,16.5180689 86,23.0312821" id="Fill-4"></path>
                                    <path d="M111,26.0269677 C111,21.1042859 107.223193,18 103.447237,18 C99.1913083,18 96,21.1042859 96,26.0269677 C96,30.9496495 99.1913083,34 103.447237,34 C107.223193,34 111,30.9496495 111,26.0269677 L111,26.0269677 Z M118,42.2707952 C118,50.4537332 111.579525,55 102.96496,55 C96.7585016,55 92.2641693,52.8068734 89.9630712,49.1171496 L95.6884225,44.25 C97.7746487,46.8709703 99.4876314,48.100593 102.96496,48.100593 C107.459293,48.100593 110.937478,45.8544138 110.937478,41.201186 L110.937478,37.4045013 C108.690312,39.2228369 105.747166,40.2924461 102.108897,40.2924461 C95.3134668,40.2924461 89,34.5696092 89,26.1727493 C89,17.7758895 95.3134668,12 102.108897,12 C105.747166,12 108.690312,13.0696092 110.937478,14.9409974 L110.937478,12.801779 L118,12.801779 L118,42.2707952 Z" id="Fill-5"></path>
                                    <path d="M146,39 L123,39 L123,37.1243387 L135.748411,18.6269839 L123.318689,18.6269839 L123.318689,13 L145.94646,13 L145.94646,15.2924749 L133.305129,33.3730161 L146,33.3730161 L146,39 Z" id="Fill-6"></path>
                                </g>
                            </g>
                        </g>
                        <g id="Icon">
                            <path d="M10,11 C9.68592934,9.64746924 8,8 8,8 L8,34 L11,34 L11,16 C11,13.7319231 10.7858444,12.3911899 10,11" id="Fill-1" fill="#00B692" sketch:type="MSShapeGroup"></path>
                            <path d="M18,19 C17.7496661,17.717372 16,16 16,16 L16,26 L19,26 L19,24 C19,21.8449724 18.7355833,20.4263471 18,19" id="Fill-3" fill="#00B692" sketch:type="MSShapeGroup"></path>
                            <g id="Group-7">
                                <mask id="mask-2" sketch:name="Clip 6" fill="white">
                                    <use xlink:href="#path-1"></use>
                                </mask>
                                <g id="Clip-6"></g>
                                <path d="M3,38 L3,8 C3,5.77946144 2.7767391,4.37052779 2,3 C1.72599247,1.68981695 0,0 0,0 L0,37 C0,38.3865636 0.44397232,39.3577464 1,40 L3,38 Z" id="Fill-5" fill="#00B692" sketch:type="MSShapeGroup" mask="url(#mask-2)"></path>
                            </g>
                            <path d="M42,27 C42.1532286,25.532958 41.9772363,23 42,23 L24,41 L25,41 C27.7301268,41 29.3483466,40.6930129 32,38 L39,31 C40.2821748,29.5660904 41.0832287,28.3934247 42,27" id="Fill-8" fill="#00F9B8" sketch:type="MSShapeGroup"></path>
                            <path d="M42,16 C42.1310521,14.5790997 41.9842631,12 42,12 L12,41 L13,41 C15.7730205,41 17.4102822,40.7017534 20,38 L39,20 C40.2683794,18.3907075 41.047072,17.3081376 42,16" id="Fill-10" fill="#00F9B8" sketch:type="MSShapeGroup"></path>
                            <path d="M41,4 C41.144042,2.62892449 40.9798887,0 41,0 L1,40 C1.64599608,40.7140859 2.4630872,41 3,41 C4.5043858,41 5.36639447,40.6975829 6,40 L38,8 C39.304464,6.4724682 40.0545871,5.34737764 41,4" id="Fill-12" fill="#00F9B8" sketch:type="MSShapeGroup"></path>
                        </g>
                    </g>
                </g>
            </g>
        </g>
    </g>
</svg>