<?xml version="1.0" encoding="UTF-8"?>
<svg width="156px" height="156px" viewBox="0 0 156 156" version="1.1" xmlns="http://www.w3.org/2000/svg" xmlns:xlink="http://www.w3.org/1999/xlink">
    <!-- Generator: Sketch 39.1 (31720) - http://www.bohemiancoding.com/sketch -->
    <title>dcom-solution-ios</title>
    <desc>Created with Sketch.</desc>
    <defs>
        <rect id="path-1" x="22.7817459" y="22.7817459" width="110" height="110"></rect>
        <mask id="mask-2" maskContentUnits="userSpaceOnUse" maskUnits="objectBoundingBox" x="0" y="0" width="110" height="110" fill="white">
            <use xlink:href="#path-1"></use>
        </mask>
    </defs>
    <g id="Page-1" stroke="none" stroke-width="1" fill="none" fill-rule="evenodd">
        <g id="02_Dcom" transform="translate(-487.000000, -3970.000000)">
            <g id="Group-5-Copy" transform="translate(487.000000, 3970.000000)">
                <g id="Group-19">
                    <g id="Group-15">
                        <g id="dcom-solution-ios">
                            <use id="Rectangle-5" stroke="#DEDEDE" mask="url(#mask-2)" stroke-width="2" fill="#FFFFFF" transform="translate(77.781746, 77.781746) rotate(45.000000) translate(-77.781746, -77.781746) " xlink:href="#path-1"></use>
                            <rect id="Rectangle-3" fill="#FFFFFF" x="18" y="18" width="120" height="120"></rect>
                            <g id="design-48px-outline-2_apple" transform="translate(58.000000, 52.000000)" stroke-width="2" stroke="#444444">
                                <g id="Group">
                                    <path d="M21.3124118,3.77968182 C24.1769412,0.0178181818 28.1591176,0 28.1591176,0 C28.1591176,0 28.7514706,3.53690909 25.9059412,6.94352273 C22.8670588,10.5817727 19.4135294,9.98597727 19.4135294,9.98597727 C19.4135294,9.98597727 18.7652941,7.12504545 21.3124118,3.77968182 Z" id="Shape"></path>
                                    <path d="M19.5979412,16.5887273 C21.1402941,16.5887273 24.0014706,14.4772727 27.7265882,14.4772727 C34.1385294,14.4772727 36.6610588,19.0231364 36.6610588,19.0231364 C36.6610588,19.0231364 31.7277647,21.5366136 31.7277647,27.6348864 C31.7277647,34.5138182 37.8737059,36.88475 37.8737059,36.88475 C37.8737059,36.88475 33.5774706,48.9331818 27.7746471,48.9331818 C25.1090588,48.9331818 23.0380588,47.1435682 20.2294118,47.1435682 C17.3682353,47.1435682 14.5282941,49 12.6785882,49 C7.37982353,49 0.686235294,37.57075 0.686235294,28.3843636 C0.686235294,19.3460909 6.35270588,14.6042273 11.6671176,14.6042273 C15.1206471,14.6042273 17.8018824,16.5887273 19.5979412,16.5887273 Z" id="Shape"></path>
                                </g>
                            </g>
                        </g>
                    </g>
                </g>
            </g>
        </g>
    </g>
</svg>