<?xml version="1.0" encoding="UTF-8"?>
<svg width="156px" height="156px" viewBox="0 0 156 156" version="1.1" xmlns="http://www.w3.org/2000/svg" xmlns:xlink="http://www.w3.org/1999/xlink">
    <!-- Generator: Sketch 39.1 (31720) - http://www.bohemiancoding.com/sketch -->
    <title>dcom-solution-design</title>
    <desc>Created with Sketch.</desc>
    <defs>
        <rect id="path-1" x="22.7817459" y="22.7817459" width="110" height="110"></rect>
        <mask id="mask-2" maskContentUnits="userSpaceOnUse" maskUnits="objectBoundingBox" x="0" y="0" width="110" height="110" fill="white">
            <use xlink:href="#path-1"></use>
        </mask>
    </defs>
    <g id="Page-1" stroke="none" stroke-width="1" fill="none" fill-rule="evenodd">
        <g id="02_Dcom" transform="translate(-343.000000, -3695.000000)">
            <g id="Group-5" transform="translate(343.000000, 3695.000000)">
                <g id="Group-15">
                    <g id="dcom-solution-design">
                        <use id="Rectangle-5" stroke="#DEDEDE" mask="url(#mask-2)" stroke-width="2" fill="#FFFFFF" transform="translate(77.781746, 77.781746) rotate(45.000000) translate(-77.781746, -77.781746) " xlink:href="#path-1"></use>
                        <rect id="Rectangle-3" fill="#FFFFFF" x="18" y="18" width="120" height="120"></rect>
                        <g id="design-48px-outline-2_ruler-pencil" transform="translate(57.000000, 59.000000)" stroke-width="2" stroke="#231F20">
                            <g id="Group">
                                <path d="M27,33 L41,33" id="Shape"></path>
                                <path d="M27,8 L41,8" id="Shape"></path>
                                <polygon id="Shape" points="41 33 34 42 27 33 27 0 41 0"></polygon>
                                <path d="M0,10 L8,10" id="Shape"></path>
                                <path d="M0,18 L6,18" id="Shape"></path>
                                <path d="M0,26 L8,26" id="Shape"></path>
                                <path d="M0,34 L6,34" id="Shape"></path>
                                <rect id="Rectangle-path" x="0" y="0" width="16" height="44"></rect>
                            </g>
                        </g>
                    </g>
                </g>
            </g>
        </g>
    </g>
</svg>