<svg width="156" height="156" viewBox="0 0 156 156" xmlns="http://www.w3.org/2000/svg" xmlns:xlink="http://www.w3.org/1999/xlink"><title>dcom-solution-ios</title><defs><path id="a" d="M22.782 22.782h110v110h-110z"/><mask id="b" x="0" y="0" width="110" height="110" fill="#fff"><use xlink:href="#a"/></mask></defs><g fill="none" fill-rule="evenodd"><use stroke="#DEDEDE" mask="url(#b)" stroke-width="2" fill="#FFF" transform="rotate(45 77.782 77.782)" xlink:href="#a"/><path fill="#FFF" d="M18 18h120v120H18z"/><path d="M79.312 55.78C82.177 52.018 86.16 52 86.16 52s.592 3.537-2.253 6.944c-3.039 3.638-6.492 3.042-6.492 3.042s-.649-2.861 1.898-6.206zm-1.714 12.809c1.542 0 4.403-2.112 8.129-2.112 6.412 0 8.934 4.546 8.934 4.546s-4.933 2.514-4.933 8.612c0 6.879 6.146 9.25 6.146 9.25s-4.297 12.048-10.1 12.048c-2.665 0-4.736-1.79-7.545-1.79-2.86 0-5.7 1.857-7.55 1.857-5.3 0-11.993-11.43-11.993-20.616 0-9.038 5.667-13.78 10.981-13.78 3.454 0 6.135 1.985 7.93 1.985z" stroke-width="2" stroke="#444"/></g></svg>