<svg width="164" height="38" viewBox="0 0 164 38" xmlns="http://www.w3.org/2000/svg"><title>Group 4</title><g fill="#3C77BF" fill-rule="evenodd" opacity=".843"><path d="M102.667 25.067c-.887.043-1.401.25-1.584 1.223a2.24 2.24 0 0 0-.042.396c0 .485.202 1.062 1.165 1.062.645 0 1.242-.162 1.706-.445.1-.06.169-.164.19-.286l.262-1.51a.42.42 0 0 0-.09-.34.404.404 0 0 0-.312-.149h-.002l-1.293.05zm2.7 4.64c-.543 0-1.248-.028-1.697-.1.035-.212.105-.651.165-1.094l.02-.152h-.027l-.039.061c-.572.896-1.218 1.214-2.145 1.214a5.2 5.2 0 0 1-.321-.01c-1.875-.118-2.749-.932-2.749-2.563 0-.233.02-.476.06-.743.404-2.217 1.963-2.723 4.347-2.819l1.459-.054a.412.412 0 0 0 .387-.341l.226-1.28a.548.548 0 0 0-.348-.613 5.747 5.747 0 0 0-1.75-.29 9.94 9.94 0 0 0-2.315.312h-.014c-.072 0-.101-.034-.105-.087a7.535 7.535 0 0 1-.028-.662c0-.398.008-.861.069-1.283a.14.14 0 0 1 .103-.114c.875-.224 1.86-.347 2.774-.347 1.475 0 2.98.35 3.93.912.22.129.342.4.304.673-.01.056-.994 6.007-1.084 6.62-.003.024-.285 2.08-.328 2.732-.238.017-.556.027-.894.027zm-65.2 6.06c-7.162 0-12.99-5.928-12.99-13.213 0-7.285 5.828-13.212 12.99-13.212 3.28 0 6.28 1.246 8.569 3.295h2.981c-2.776-3.34-6.923-5.468-11.55-5.468-2.507 0-4.87.628-6.954 1.73l-5.35-8.25a1.055 1.055 0 0 0-1.48-.308 1.099 1.099 0 0 0-.303 1.505l5.312 8.19a15.318 15.318 0 0 0-2.128 1.873L15.984.686a1.055 1.055 0 0 0-1.504.14 1.1 1.1 0 0 0 .14 1.531l13.276 11.22a15.475 15.475 0 0 0-1.258 2.111L1.77 2.403a1.058 1.058 0 0 0-1.44.456 1.096 1.096 0 0 0 .448 1.468l25.039 13.377a15.471 15.471 0 0 0-.65 2.903l-21.28-5.313a1.067 1.067 0 0 0-1.291.796c-.14.583.21 1.172.782 1.314l21.671 5.41c.017 1.045.137 2.064.35 3.048l-14.836 1.005a1.08 1.08 0 0 0-.995 1.155c.04.599.548 1.052 1.137 1.012l15.318-1.037c2.167 5.805 7.688 9.943 14.144 9.943 4.439 0 8.438-1.957 11.207-5.065h-3.11a12.792 12.792 0 0 1-8.097 2.892"/><path d="M42.165 17.28c-.437 0-1.137.017-1.67.067l-.1.01-1.657 9.612.14.015c.414.044 1.364.067 1.89.067 2.706 0 4.322-2.457 4.322-6.573 0-2.063-1.039-3.199-2.925-3.199M40.29 29.69c-1.521 0-3.666-.098-4.93-.288l2.49-14.465c1.287-.171 3.62-.297 4.905-.297 3.545 0 5.497 2.128 5.497 5.993 0 5.418-3.2 9.057-7.962 9.057m12.266-12.144c-.86 0-1.165-.639-1.165-1.186 0-1.02.729-1.76 1.732-1.76.844 0 1.145.611 1.145 1.184 0 1.07-.672 1.762-1.712 1.762zm-3.267 11.959l1.817-10.494h2.468l-1.817 10.494h-2.468zm9.728.207c-2.659 0-4.183-1.522-4.183-4.176 0-.456.041-.962.12-1.463.56-3.496 2.323-5.268 5.239-5.268.912 0 1.988.17 2.724.427-.142.666-.371 1.56-.703 2.315-.548-.224-1.246-.352-1.94-.352-1.508 0-2.268.851-2.622 2.937a8.067 8.067 0 0 0-.124 1.28c0 1.355.595 1.908 2.057 1.908.617 0 1.437-.196 2.059-.486.123.876.186 1.635.191 2.31-.635.292-1.99.568-2.818.568m8.286 0c-1.956 0-2.948-.906-2.948-2.691 0-.355.05-.71.1-1.01l.837-4.835h-1.3l.377-2.165h1.302l.39-2.254a13.99 13.99 0 0 1 2.542-.417l-.464 2.67h2.742c-.084.607-.236 1.423-.508 2.166h-2.614l-.85 4.956c-.022.136-.022.246-.022.353 0 .825.619.939 1.287.939.467 0 1.07-.131 1.461-.273.015.238.028.502.028.777 0 .508-.04 1.025-.073 1.393-.614.255-1.706.39-2.287.39m7.232-12.165c-.86 0-1.165-.639-1.165-1.186 0-1.02.729-1.76 1.732-1.76.844 0 1.145.611 1.145 1.184 0 1.07-.672 1.762-1.712 1.762zm-3.267 11.959l1.818-10.494h2.466l-1.816 10.494h-2.468zm10.822-8.619c-1.343 0-2.078 1.002-2.46 3.35a9.212 9.212 0 0 0-.124 1.383c0 1.334.583 2.01 1.733 2.01 1.37 0 2.06-.938 2.46-3.348.08-.476.124-.98.124-1.384 0-1.334-.583-2.01-1.733-2.01m-1.033 8.824c-2.697 0-4.245-1.514-4.245-4.154 0-.537.076-1.12.14-1.569.52-3.342 2.41-5.183 5.321-5.183 2.698 0 4.244 1.513 4.244 4.154 0 .427-.05.998-.14 1.567-.52 3.344-2.409 5.185-5.32 5.185m12.354-.206l1.23-7.142c.021-.157.021-.244.021-.352 0-.715-.474-1.063-1.449-1.063-.63 0-1.243.19-1.93.596l-.053.03-1.37 7.93h-2.467l1.8-10.403a23.92 23.92 0 0 1 2.485-.151l-.182 1.071h.355l.04-.04c1.024-1.085 1.935-1.176 2.78-1.176.966 0 2.584.309 2.584 2.38 0 .211-.025.474-.079.804l-1.298 7.516h-2.467zm15.599 0l1.799-10.404a24.13 24.13 0 0 1 2.485-.151l-.243 1.38h.063l.04-.05c1.023-1.307 2.135-1.475 2.73-1.475a3.1 3.1 0 0 1 .62.068 15.46 15.46 0 0 1-.684 2.649c-.28-.063-.617-.1-.93-.1-.706 0-1.48.2-2.07.534l-.055.03-1.289 7.519h-2.467zm7.5 4.454c-.365 0-1.252-.034-1.856-.33.192-.892.43-1.663.708-2.292.416.145 1.09.21 1.614.21.762 0 1.128-.24 1.632-1.074l.516-.876-.015-.056c-.659-2.364-1.471-6.503-1.613-10.442a23.284 23.284 0 0 1 2.36-.15l.655 6.334c.025.195.081.702.081 1.243v.134h.371l.03-.095a8.09 8.09 0 0 1 .498-1.236l2.964-6.38c.703.003 1.7.041 2.43.138l-5.103 10.286c-1.905 3.835-3.376 4.586-5.272 4.586m10.034-4.247c-.767 0-1.225-.428-1.225-1.145 0-1.255.912-1.7 1.692-1.7.707 0 1.164.457 1.164 1.164 0 1.24-.878 1.68-1.63 1.68m7.649.001c-2.658 0-4.182-1.522-4.182-4.176 0-.46.04-.965.118-1.463.561-3.496 2.324-5.268 5.24-5.268.912 0 1.988.17 2.724.427-.143.669-.373 1.565-.704 2.315-.547-.224-1.245-.352-1.94-.352-1.507 0-2.267.851-2.622 2.937a8.095 8.095 0 0 0-.123 1.28c0 1.355.596 1.908 2.057 1.908.638 0 1.342-.158 1.92-.428.098.764.115 1.608.116 2.353-.637.293-1.804.467-2.604.467m9.502-8.826c-1.343 0-2.08 1.002-2.46 3.35a9.212 9.212 0 0 0-.124 1.383c0 1.334.583 2.01 1.733 2.01 1.369 0 2.059-.938 2.46-3.348.079-.476.123-.98.123-1.384 0-1.334-.583-2.01-1.732-2.01m-1.033 8.824c-2.698 0-4.245-1.514-4.245-4.154 0-.537.075-1.12.14-1.569.52-3.342 2.41-5.183 5.32-5.183 2.698 0 4.245 1.513 4.245 4.154 0 .427-.051.998-.14 1.567-.52 3.344-2.41 5.185-5.32 5.185m17.459-.206l1.229-7.142c.022-.135.022-.226.022-.332 0-.494-.223-1.083-1.287-1.083-.545 0-1.196.231-1.698.603l-.044.032-1.367 7.922h-2.468l1.23-7.142a2.64 2.64 0 0 0 .042-.394c0-.465-.213-1.02-1.226-1.02-.555 0-1.102.183-1.77.596l-.052.031-1.37 7.929h-2.466l1.8-10.404c.723-.087 1.67-.145 2.485-.151L153 20.02h.354l.038-.04c.949-.983 1.725-1.176 2.743-1.176 1.14 0 1.787.437 1.978 1.337l.05.236.171-.168c1.017-.998 1.906-1.405 3.07-1.405.957 0 2.562.309 2.562 2.38 0 .263-.04.587-.078.802l-1.299 7.518h-2.467z"/></g></svg>