<?xml version="1.0" encoding="UTF-8"?>
<svg width="156px" height="156px" viewBox="0 0 156 156" version="1.1" xmlns="http://www.w3.org/2000/svg" xmlns:xlink="http://www.w3.org/1999/xlink">
    <!-- Generator: Sketch 39.1 (31720) - http://www.bohemiancoding.com/sketch -->
    <title>dcom-solution-android</title>
    <desc>Created with Sketch.</desc>
    <defs>
        <rect id="path-1" x="22.7817459" y="22.7817459" width="110" height="110"></rect>
        <mask id="mask-2" maskContentUnits="userSpaceOnUse" maskUnits="objectBoundingBox" x="0" y="0" width="110" height="110" fill="white">
            <use xlink:href="#path-1"></use>
        </mask>
    </defs>
    <g id="Page-1" stroke="none" stroke-width="1" fill="none" fill-rule="evenodd">
        <g id="02_Dcom" transform="translate(-796.000000, -3970.000000)">
            <g id="Group-5-Copy" transform="translate(487.000000, 3970.000000)">
                <g id="Group-19">
                    <g id="Group-21" transform="translate(309.000000, 0.000000)">
                        <g id="dcom-solution-android">
                            <use id="Rectangle-5" stroke="#DEDEDE" mask="url(#mask-2)" stroke-width="2" fill="#FFFFFF" transform="translate(77.781746, 77.781746) rotate(45.000000) translate(-77.781746, -77.781746) " xlink:href="#path-1"></use>
                            <rect id="Rectangle-3" fill="#FFFFFF" x="18" y="18" width="120" height="120"></rect>
                            <g id="design-48px-outline-2_android" transform="translate(58.000000, 53.000000)" stroke-width="2" stroke="#444444">
                                <g id="Group">
                                    <path d="M13.6216216,40.0909091 L13.6216216,49" id="Shape"></path>
                                    <path d="M27.2432432,40.0909091 L27.2432432,49" id="Shape"></path>
                                    <path d="M14.8032973,5.64502273 L11.3513514,0" id="Shape"></path>
                                    <path d="M26.0604324,5.64502273 L29.5135135,0" id="Shape"></path>
                                    <path d="M6.81081081,17.8181818 L34.0540541,17.8181818" id="Shape"></path>
                                    <path d="M34.0540541,40.0909091 L6.81081081,40.0909091 L6.81081081,17.8181818 C6.81081081,10.4381136 12.9098919,4.45454545 20.4324324,4.45454545 L20.4324324,4.45454545 C27.954973,4.45454545 34.0540541,10.4381136 34.0540541,17.8181818 L34.0540541,40.0909091 Z" id="Shape"></path>
                                    <path d="M0,18.9318182 L0,31.1818182" id="Shape"></path>
                                    <path d="M40.8648649,18.9318182 L40.8648649,31.1818182" id="Shape"></path>
                                </g>
                            </g>
                        </g>
                    </g>
                </g>
            </g>
        </g>
    </g>
</svg>