<svg width="71" height="72" viewBox="0 0 71 72" xmlns="http://www.w3.org/2000/svg"><title>Group 4</title><g fill="none" fill-rule="evenodd"><path d="M7.029 39.82c9.868 4.517 17.144 13.714 19.176 24.701M54.971 39.82c-9.868 4.517-17.144 13.714-19.176 24.701M8.538 32.53S19.795 31.116 31 31.116c11.206 0 22.462 1.412 22.462 1.412" stroke="#231F20" stroke-width="2" stroke-linecap="round" stroke-linejoin="round"/><path d="M31 11c16.569 0 30 13.431 30 30 0 16.569-13.431 30-30 30C14.431 71 1 57.569 1 41c0-16.569 13.431-30 30-30z" stroke="#000" stroke-width="2" stroke-linecap="round" stroke-linejoin="round"/><path d="M31 17c13.255 0 24 10.745 24 24S44.255 65 31 65 7 54.255 7 41s10.745-24 24-24z" stroke="#000" stroke-width="2" stroke-linecap="round" stroke-linejoin="round"/><path d="M31 38a6 6 0 1 1 0 12 6 6 0 0 1 0-12z" stroke="#000" stroke-width="2" stroke-linecap="round" stroke-linejoin="round"/><g transform="translate(34 1)"><circle stroke="#000" stroke-width="2" fill="#F8F8F8" cx="18" cy="18" r="18"/><g fill="#000"><path d="M18 10l-5 6h3v9c0 .6.4 1 1 1h2c.6 0 1-.4 1-1v-9h3l-5-6m-5 11h-2c-.6 0-1 .4-1 1v3c0 .6.4 1 1 1h2c.6 0 1-.4 1-1v-3c0-.6-.4-1-1-1"/><path d="M25 18h-2c-.6 0-1 .4-1 1v6c0 .6.4 1 1 1h2c.6 0 1-.4 1-1v-6c0-.6-.4-1-1-1"/></g></g></g></svg>