<?xml version="1.0" encoding="UTF-8"?>
<svg width="71px" height="72px" viewBox="0 0 71 72" version="1.1" xmlns="http://www.w3.org/2000/svg" xmlns:xlink="http://www.w3.org/1999/xlink">
    <!-- Generator: Sketch 39.1 (31720) - http://www.bohemiancoding.com/sketch -->
    <title>Group 4</title>
    <desc>Created with Sketch.</desc>
    <defs></defs>
    <g id="Case-Study" stroke="none" stroke-width="1" fill="none" fill-rule="evenodd">
        <g id="02_Case-Study-Edriving" transform="translate(-276.000000, -3228.000000)">
            <g id="Group-29" transform="translate(-230.000000, 3229.000000)">
                <g id="features" transform="translate(364.000000, 0.000000)">
                    <g id="1">
                        <g id="Group-4" transform="translate(143.000000, 0.000000)">
                            <path d="M6.0286,38.8191 C15.8966,43.3371 23.1726,52.5341 25.2046,63.5211" id="Stroke-256" stroke="#231F20" stroke-width="2" stroke-linecap="round" stroke-linejoin="round"></path>
                            <path d="M53.9714,38.8191 C44.1034,43.3371 36.8274,52.5341 34.7954,63.5211" id="Stroke-257" stroke="#231F20" stroke-width="2" stroke-linecap="round" stroke-linejoin="round"></path>
                            <path d="M7.5379,31.5294 C7.5379,31.5294 18.7949,30.1174 29.9999,30.1174 C41.2059,30.1174 52.4619,31.5294 52.4619,31.5294" id="Stroke-258" stroke="#231F20" stroke-width="2" stroke-linecap="round" stroke-linejoin="round"></path>
                            <path d="M30,10 C46.569,10 60,23.431 60,40 C60,56.569 46.569,70 30,70 C13.431,70 0,56.569 0,40 C0,23.431 13.431,10 30,10 L30,10 Z" id="Stroke-259" stroke="#000000" stroke-width="2" stroke-linecap="round" stroke-linejoin="round"></path>
                            <path d="M30,16 C43.255,16 54,26.745 54,40 C54,53.255 43.255,64 30,64 C16.745,64 6,53.255 6,40 C6,26.745 16.745,16 30,16 L30,16 Z" id="Stroke-260" stroke="#000000" stroke-width="2" stroke-linecap="round" stroke-linejoin="round"></path>
                            <path d="M30,37 C33.314,37 36,39.686 36,43 C36,46.314 33.314,49 30,49 C26.686,49 24,46.314 24,43 C24,39.686 26.686,37 30,37 L30,37 Z" id="Stroke-261" stroke="#000000" stroke-width="2" stroke-linecap="round" stroke-linejoin="round"></path>
                            <g id="Group-11" transform="translate(33.000000, 0.000000)">
                                <circle id="Oval" stroke="#000000" stroke-width="2" fill="#F8F8F8" cx="18" cy="18" r="18"></circle>
                                <g id="Group-5" transform="translate(10.000000, 10.000000)" fill="#000000">
                                    <path d="M8,0 L3,6 L6,6 L6,15 C6,15.6 6.4,16 7,16 L9,16 C9.6,16 10,15.6 10,15 L10,6 L13,6 L8,0" id="Fill-82"></path>
                                    <path d="M3,11 L1,11 C0.4,11 0,11.4 0,12 L0,15 C0,15.6 0.4,16 1,16 L3,16 C3.6,16 4,15.6 4,15 L4,12 C4,11.4 3.6,11 3,11" id="Fill-83"></path>
                                    <path d="M15,8 L13,8 C12.4,8 12,8.4 12,9 L12,15 C12,15.6 12.4,16 13,16 L15,16 C15.6,16 16,15.6 16,15 L16,9 C16,8.4 15.6,8 15,8" id="Fill-84"></path>
                                </g>
                            </g>
                        </g>
                    </g>
                </g>
            </g>
        </g>
    </g>
</svg>