<?xml version="1.0" encoding="UTF-8"?>
<svg width="77px" height="72px" viewBox="0 0 77 72" version="1.1" xmlns="http://www.w3.org/2000/svg" xmlns:xlink="http://www.w3.org/1999/xlink">
    <!-- Generator: Sketch 39.1 (31720) - http://www.bohemiancoding.com/sketch -->
    <title>Group 9</title>
    <desc>Created with Sketch.</desc>
    <defs></defs>
    <g id="Case-Study" stroke="none" stroke-width="1" fill="none" fill-rule="evenodd">
        <g id="02_Case-Study-Edriving" transform="translate(-694.000000, -3228.000000)">
            <g id="Group-29" transform="translate(-230.000000, 3229.000000)">
                <g id="features" transform="translate(364.000000, 0.000000)">
                    <g id="2" transform="translate(420.000000, 0.000000)">
                        <g id="Group-9" transform="translate(141.000000, 0.000000)">
                            <path d="M0,70 L18,14" id="Stroke-5693" stroke="#000000" stroke-width="2" stroke-linecap="round" stroke-linejoin="round"></path>
                            <path d="M42,14 L60,70" id="Stroke-5694" stroke="#444444" stroke-width="2" stroke-linecap="round" stroke-linejoin="round"></path>
                            <path d="M30,20 L30,26" id="Stroke-5695" stroke="#444444" stroke-width="2" stroke-linecap="round" stroke-linejoin="round"></path>
                            <path d="M30,36 L30,44" id="Stroke-5696" stroke="#444444" stroke-width="2" stroke-linecap="round" stroke-linejoin="round"></path>
                            <path d="M30,54 L30,64" id="Stroke-5697" stroke="#444444" stroke-width="2" stroke-linecap="round" stroke-linejoin="round"></path>
                            <g id="Group-11" transform="translate(39.000000, 0.000000)">
                                <circle id="Oval" stroke="#000000" stroke-width="2" fill="#F8F8F8" cx="18" cy="18" r="18"></circle>
                                <polygon id="Fill-333" fill="#000000" points="20 10 16 10 16 16 10 16 10 20 16 20 16 26 20 26 20 20 26 20 26 16 20 16"></polygon>
                            </g>
                        </g>
                    </g>
                </g>
            </g>
        </g>
    </g>
</svg>