<?xml version="1.0" encoding="UTF-8"?>
<svg width="91px" height="83px" viewBox="0 0 91 83" version="1.1" xmlns="http://www.w3.org/2000/svg" xmlns:xlink="http://www.w3.org/1999/xlink">
    <!-- Generator: Sketch 39.1 (31720) - http://www.bohemiancoding.com/sketch -->
    <title>Fill 1</title>
    <desc>Created with Sketch.</desc>
    <defs></defs>
    <g id="Case-Study" stroke="none" stroke-width="1" fill="none" fill-rule="evenodd">
        <g id="02_Case-Study-Edriving" transform="translate(-680.000000, -9729.000000)" fill="#231F1F">
            <g id="Group-29" transform="translate(-230.000000, 3229.000000)">
                <g id="Footer" transform="translate(237.000000, 5903.000000)">
                    <g id="Logo" transform="translate(547.000000, 597.000000)">
                        <path d="M171.499501,0 L126,83 L217,83 L171.499501,0 Z M172.744478,7.4666711 L176.794143,14.8535089 L172.730512,39.8583968 L172.744478,7.4666711 Z M170.250534,7.47420254 L170.230583,54.0933233 L144.694599,54.0933233 L170.250534,7.47420254 Z M178.74291,18.4093535 L181.379008,23.2179279 L174.989525,41.510293 L178.74291,18.4093535 Z M182.994086,26.1632236 L186.252672,32.1075393 L175.624483,47.2592933 L182.994086,26.1632236 Z M187.591421,34.5502368 L190.786661,40.3785684 L176.552729,50.2884391 L187.591421,34.5502368 Z M191.99772,42.5877912 L195.048311,48.1535265 L177.801197,52.4715529 L191.99772,42.5877912 Z M179.094057,54.7350021 L196.295283,50.4285239 L199.610731,56.4747651 L179.094057,54.7350021 Z M143.318441,56.6043059 L171.1294,56.6043059 L210.411501,80.4895195 L130.224241,80.4895195 L143.318441,56.6043059 Z M180.74405,57.3946052 L201.058715,59.117799 L204.956748,66.2279819 L180.74405,57.3946052 Z M182.995582,60.8861815 L206.786803,69.5659167 L211.544748,78.2461541 L182.995582,60.8861815 Z" id="Fill-1"></path>
                    </g>
                </g>
            </g>
        </g>
    </g>
</svg>