<svg width="91" height="83" viewBox="0 0 91 83" xmlns="http://www.w3.org/2000/svg"><title>Fill 1</title><path d="M45.5 0L0 83h91L45.5 0zm1.244 7.467l4.05 7.387-4.063 25.004.013-32.391zm-2.493.007l-.02 46.62H18.695L44.25 7.473zm8.492 10.935l2.636 4.809-6.39 18.292 3.754-23.1zm4.251 7.754l3.259 5.945-10.629 15.151 7.37-21.096zm4.597 8.387l3.196 5.829-14.234 9.91L61.59 34.55zm4.407 8.038l3.05 5.566-17.247 4.318 14.197-9.884zM53.094 54.735l17.201-4.306 3.316 6.046-20.517-1.74zm-35.776 1.87H45.13L84.412 80.49H4.224l13.094-23.886zm37.426.79l20.315 1.723 3.898 7.11-24.213-8.833zm2.252 3.491l23.79 8.68 4.759 8.68-28.55-17.36z" fill="#231F1F" fill-rule="evenodd"/></svg>