<?xml version="1.0" encoding="UTF-8"?>
<svg width="84px" height="82px" viewBox="0 0 84 82" version="1.1" xmlns="http://www.w3.org/2000/svg" xmlns:xlink="http://www.w3.org/1999/xlink">
    <!-- Generator: Sketch 39.1 (31720) - http://www.bohemiancoding.com/sketch -->
    <title>gs-challenge-icon-2</title>
    <desc>Created with Sketch.</desc>
    <defs>
        <polygon id="path-1" points="0 0 72.4567095 0 72.4567095 38.4545455 63.1373207 38.4545455 51.5241028 50.7272727 51.5241028 38.4545455 0 38.4545455"></polygon>
        <mask id="mask-2" maskContentUnits="userSpaceOnUse" maskUnits="objectBoundingBox" x="0" y="0" width="72.4567095" height="50.7272727" fill="white">
            <use xlink:href="#path-1"></use>
        </mask>
    </defs>
    <g id="Visual-1" stroke="none" stroke-width="1" fill="none" fill-rule="evenodd">
        <g id="02_Case-Study-GS-Compact" transform="translate(-527.000000, -2337.000000)">
            <g id="gs-challenge-icon-2" transform="translate(528.000000, 2337.000000)">
                <g id="Group-32" transform="translate(9.861386, 0.000000)">
                    <use id="Rectangle-21" stroke="#231F20" mask="url(#mask-2)" stroke-width="4" fill="#FFFFFF" xlink:href="#path-1"></use>
                    <g id="Group-30" transform="translate(19.722772, 13.090909)" fill="#231F20" opacity="0.457710598">
                        <polygon id="Star" points="5.86865227 8.76441114 2.41914502 10.5699791 3.07794228 6.74572476 0.287232287 4.03737277 4.14389864 3.47942158 5.86865227 0 7.5934059 3.47942158 11.4500723 4.03737277 8.65936227 6.74572476 9.31815953 10.5699791"></polygon>
                        <polygon id="Star-Copy" points="18.1953849 8.76441114 14.7458777 10.5699791 15.404675 6.74572476 12.613965 4.03737277 16.4706313 3.47942158 18.1953849 0 19.9201386 3.47942158 23.7768049 4.03737277 20.9860949 6.74572476 21.6448922 10.5699791"></polygon>
                        <polygon id="Star-Copy-2" points="30.5221176 8.76441114 27.0726104 10.5699791 27.7314076 6.74572476 24.9406976 4.03737277 28.797364 3.47942158 30.5221176 0 32.2468712 3.47942158 36.1035376 4.03737277 33.3128276 6.74572476 33.9716249 10.5699791"></polygon>
                    </g>
                </g>
                <g id="Group-13" transform="translate(22.188119, 45.818182)" stroke="#231F20" stroke-width="2" fill="#FFFFFF">
                    <path d="M27.9405941,31.6208063 C27.9405941,29.772996 27.119451,28.0154348 25.6494653,26.8666719 C23.4049043,25.1106403 19.5118482,22.944664 13.970297,22.944664 C8.42874587,22.944664 4.53568977,25.1106403 2.29112871,26.8666719 C0.821143014,28.0154348 0,29.772996 0,31.6208063 L0,35.1818182 L27.9405941,35.1818182 L27.9405941,31.6208063 Z" id="Shape"></path>
                    <ellipse id="Oval" cx="13.970297" cy="7.64822134" rx="7.76127613" ry="7.64822134"></ellipse>
                </g>
                <g id="Group-13-Copy" transform="translate(0.000000, 57.272727)" stroke="#231F20" stroke-width="2" fill="#FFFFFF">
                    <path d="M18.9009901,21.3256601 C18.9009901,20.0794625 18.345511,18.8941304 17.3511089,18.1193834 C15.8327294,16.935083 13.1991914,15.4743083 9.45049505,15.4743083 C5.70179868,15.4743083 3.06826073,16.935083 1.54988119,18.1193834 C0.555479098,18.8941304 0,20.0794625 0,21.3256601 L0,23.7272727 L18.9009901,23.7272727 L18.9009901,21.3256601 Z" id="Shape"></path>
                    <ellipse id="Oval" cx="9.45049505" cy="5.15810277" rx="5.25027503" ry="5.15810277"></ellipse>
                </g>
                <g id="Group-13-Copy-2" transform="translate(53.415842, 57.272727)" stroke="#231F20" stroke-width="2" fill="#FFFFFF">
                    <path d="M18.9009901,21.3256601 C18.9009901,20.0794625 18.345511,18.8941304 17.3511089,18.1193834 C15.8327294,16.935083 13.1991914,15.4743083 9.45049505,15.4743083 C5.70179868,15.4743083 3.06826073,16.935083 1.54988119,18.1193834 C0.555479098,18.8941304 0,20.0794625 0,21.3256601 L0,23.7272727 L18.9009901,23.7272727 L18.9009901,21.3256601 Z" id="Shape"></path>
                    <ellipse id="Oval" cx="9.45049505" cy="5.15810277" rx="5.25027503" ry="5.15810277"></ellipse>
                </g>
            </g>
        </g>
    </g>
</svg>