<svg width="84" height="82" viewBox="0 0 84 82" xmlns="http://www.w3.org/2000/svg" xmlns:xlink="http://www.w3.org/1999/xlink"><title>gs-challenge-icon-2</title><defs><path id="a" d="M0 0h72.457v38.455h-9.32L51.524 50.727V38.455H0z"/><mask id="b" x="0" y="0" width="72.457" height="50.727" fill="#fff"><use xlink:href="#a"/></mask></defs><g fill="none" fill-rule="evenodd"><g transform="translate(10.861)"><use stroke="#231F20" mask="url(#b)" stroke-width="4" fill="#FFF" xlink:href="#a"/><path d="M25.591 21.855l-3.45 1.806.66-3.824-2.791-2.709 3.857-.558 1.724-3.48 1.725 3.48 3.857.558-2.79 2.709.658 3.824zm12.327 0l-3.45 1.806.66-3.824-2.791-2.709 3.856-.558 1.725-3.48 1.725 3.48 3.857.558-2.791 2.709.659 3.824zm12.327 0l-3.45 1.806.66-3.824-2.792-2.709 3.857-.558 1.725-3.48 1.725 3.48 3.856.558-2.79 2.709.658 3.824z" fill="#231F20" opacity=".458"/></g><g transform="translate(23.188 45.818)" stroke="#231F20" stroke-width="2" fill="#FFF"><path d="M27.94 31.62c0-1.847-.82-3.605-2.29-4.753-2.245-1.756-6.138-3.922-11.68-3.922-5.541 0-9.434 2.166-11.679 3.922C.821 28.015 0 29.773 0 31.62v3.56h27.94v-3.56z"/><ellipse cx="13.97" cy="7.648" rx="7.761" ry="7.648"/></g><g transform="translate(1 57.273)" stroke="#231F20" stroke-width="2" fill="#FFF"><path d="M18.901 21.326a4.048 4.048 0 0 0-1.55-3.207c-1.518-1.184-4.152-2.645-7.9-2.645-3.75 0-6.383 1.461-7.901 2.645A4.048 4.048 0 0 0 0 21.326v2.401h18.901v-2.401z"/><ellipse cx="9.45" cy="5.158" rx="5.25" ry="5.158"/></g><g transform="translate(54.416 57.273)" stroke="#231F20" stroke-width="2" fill="#FFF"><path d="M18.901 21.326a4.048 4.048 0 0 0-1.55-3.207c-1.518-1.184-4.152-2.645-7.9-2.645-3.75 0-6.383 1.461-7.901 2.645A4.048 4.048 0 0 0 0 21.326v2.401h18.901v-2.401z"/><ellipse cx="9.45" cy="5.158" rx="5.25" ry="5.158"/></g></g></svg>