<svg width="73" height="71" viewBox="0 0 73 71" xmlns="http://www.w3.org/2000/svg"><title>gs-challenge-icon-3</title><g fill="none" fill-rule="evenodd"><path d="M36.437 38.228c-4.666 0-13.705 2.55-13.705 7.487v15.078c0 2.907 2.08 4.89 4.983 4.89h1.246v4.991h14.951v-4.992h1.246c2.903 0 4.984-1.982 4.984-4.89V45.716c0-4.938-9.04-7.487-13.705-7.487" fill="#FFF"/><path d="M58.048 38.228c-4.666 0-13.706 2.55-13.706 7.487v15.078c0 2.907 2.081 4.89 4.984 4.89h1.246v4.991h14.951v-4.992h1.246c2.903 0 4.984-1.982 4.984-4.89V45.716c0-4.938-9.04-7.487-13.705-7.487m-41.988-.001c-4.665 0-13.704 2.55-13.704 7.487v15.078c0 2.907 2.08 4.89 4.983 4.89h1.246v4.991h14.951v-4.992h1.246c2.903 0 4.984-1.982 4.984-4.89V45.716c0-4.938-9.04-7.487-13.705-7.487" fill="#FFF"/><path d="M45.346 65.492c2.903 0 4.983-2.084 4.983-4.992V45.422c0-4.938-9.039-7.487-13.705-7.487s-13.705 2.55-13.705 7.487V60.5c0 2.908 2.08 4.992 4.984 4.992" stroke="#231F20" stroke-width="2"/><path d="M36.624 34.176c3.479 0 6.23-2.85 6.23-6.367v-2.124c0-3.516-2.751-6.367-6.23-6.367-3.478 0-6.23 2.851-6.23 6.367v2.124c0 3.516 2.752 6.367 6.23 6.367" fill="#FFF"/><path d="M36.624 34.176c3.479 0 6.23-2.85 6.23-6.367v-2.124c0-3.516-2.751-6.367-6.23-6.367-3.478 0-6.23 2.851-6.23 6.367v2.124c0 3.516 2.752 6.367 6.23 6.367z" stroke="#231F20" stroke-width="2"/><path d="M26.657 16.602c3.478 0 6.23-2.85 6.23-6.367V8.111c0-3.515-2.752-6.367-6.23-6.367-3.479 0-6.23 2.852-6.23 6.367v2.124c0 3.517 2.751 6.367 6.23 6.367" fill="#CDCDCD"/><path d="M26.657 16.602c3.478 0 6.23-2.85 6.23-6.367V8.111c0-3.515-2.752-6.367-6.23-6.367-3.479 0-6.23 2.852-6.23 6.367v2.124c0 3.517 2.751 6.367 6.23 6.367z" stroke="#231F20" stroke-width="2"/><path d="M46.592 16.602c3.478 0 6.23-2.85 6.23-6.367V8.111c0-3.515-2.752-6.367-6.23-6.367-3.479 0-6.23 2.852-6.23 6.367v2.124c0 3.517 2.751 6.367 6.23 6.367" fill="#E9E9E9"/><path d="M46.592 16.602c3.478 0 6.23-2.85 6.23-6.367V8.111c0-3.515-2.752-6.367-6.23-6.367-3.479 0-6.23 2.852-6.23 6.367v2.124c0 3.517 2.751 6.367 6.23 6.367zM44.1 70.382V50.415m-14.951 0v19.967m-21.181 0V50.415" stroke="#231F20" stroke-width="2"/><path d="M15.443 34.074c-3.478 0-6.23-2.85-6.23-6.367v-2.124c0-3.516 2.752-6.367 6.23-6.367 3.479 0 6.23 2.851 6.23 6.367v2.124c0 3.516-2.751 6.367-6.23 6.367" fill="#E8E8E8"/><path d="M15.443 34.074c-3.478 0-6.23-2.85-6.23-6.367v-2.124c0-3.516 2.752-6.367 6.23-6.367 3.479 0 6.23 2.851 6.23 6.367v2.124c0 3.516-2.751 6.367-6.23 6.367zm7.477 5.299c-2.582-.954-5.444-1.438-7.477-1.438-4.666 0-13.705 2.55-13.705 7.488V60.5c0 2.908 2.08 4.992 4.983 4.992m58.559 4.89V50.415" stroke="#231F20" stroke-width="2"/><path d="M57.805 34.074c3.479 0 6.23-2.85 6.23-6.367v-2.124c0-3.516-2.751-6.367-6.23-6.367-3.479 0-6.23 2.851-6.23 6.367v2.124c0 3.516 2.751 6.367 6.23 6.367" fill="#BABABA"/><path d="M57.805 34.074c3.479 0 6.23-2.85 6.23-6.367v-2.124c0-3.516-2.751-6.367-6.23-6.367-3.479 0-6.23 2.851-6.23 6.367v2.124c0 3.516 2.751 6.367 6.23 6.367zm-7.475 5.299c2.582-.954 5.444-1.438 7.476-1.438 4.666 0 13.704 2.55 13.704 7.488V60.5c0 2.908-2.08 4.992-4.982 4.992" stroke="#231F20" stroke-width="2"/></g></svg>