<?xml version="1.0" encoding="UTF-8"?>
<svg width="73px" height="71px" viewBox="0 0 73 71" version="1.1" xmlns="http://www.w3.org/2000/svg" xmlns:xlink="http://www.w3.org/1999/xlink">
    <!-- Generator: Sketch 39.1 (31720) - http://www.bohemiancoding.com/sketch -->
    <title>gs-challenge-icon-3</title>
    <desc>Created with Sketch.</desc>
    <defs></defs>
    <g id="Visual-1" stroke="none" stroke-width="1" fill="none" fill-rule="evenodd">
        <g id="02_Case-Study-GS-Compact" transform="translate(-856.000000, -2346.000000)">
            <g id="gs-challenge-icon-3" transform="translate(857.000000, 2347.000000)">
                <g id="Page-1">
                    <path d="M35.4367592,37.2275436 C30.7707439,37.2275436 21.7315074,39.7770833 21.7315074,44.7151786 L21.7315074,59.7927796 C21.7315074,62.7004778 23.8122138,64.6822052 26.7152353,64.6822052 L27.9611673,64.6822052 L27.9611673,69.6739618 L42.9123511,69.6739618 L42.9123511,64.6822052 L44.1582831,64.6822052 C47.0613046,64.6822052 49.1420111,62.7004778 49.1420111,59.7927796 L49.1420111,44.7151786 C49.1420111,39.7770833 40.1027745,37.2275436 35.4367592,37.2275436" id="Fill-1" fill="#FFFFFF"></path>
                    <path d="M57.0476149,37.2275436 C52.3815996,37.2275436 43.3423631,39.7770833 43.3423631,44.7151786 L43.3423631,59.7927796 C43.3423631,62.7004778 45.4230695,64.6822052 48.326091,64.6822052 L49.572023,64.6822052 L49.572023,69.6739618 L64.5232068,69.6739618 L64.5232068,64.6822052 L65.7691388,64.6822052 C68.6721603,64.6822052 70.7528667,62.7004778 70.7528667,59.7927796 L70.7528667,44.7151786 C70.7528667,39.7770833 61.7136302,37.2275436 57.0476149,37.2275436" id="Fill-1-Copy" fill="#FFFFFF"></path>
                    <path d="M15.0608096,37.2275436 C10.3947943,37.2275436 1.35555778,39.7770833 1.35555778,44.7151786 L1.35555778,59.7927796 C1.35555778,62.7004778 3.43626419,64.6822052 6.33928571,64.6822052 L7.5852177,64.6822052 L7.5852177,69.6739618 L22.5364015,69.6739618 L22.5364015,64.6822052 L23.7823335,64.6822052 C26.685355,64.6822052 28.7660614,62.7004778 28.7660614,59.7927796 L28.7660614,44.7151786 C28.7660614,39.7770833 19.7268249,37.2275436 15.0608096,37.2275436" id="Fill-1-Copy-2" fill="#FFFFFF"></path>
                    <path d="M44.3457242,64.4918517 C47.2487457,64.4918517 49.3294521,62.4077933 49.3294521,59.5000951 L49.3294521,44.4224942 C49.3294521,39.4843989 40.2902156,36.9348592 35.6242003,36.9348592 C30.958185,36.9348592 21.9189485,39.4843989 21.9189485,44.4224942 L21.9189485,59.5000951 C21.9189485,62.4077933 23.9996549,64.4918517 26.9026764,64.4918517" id="Stroke-5" stroke="#231F20" stroke-width="2"></path>
                    <path d="M35.6242003,33.1755672 C39.1028424,33.1755672 41.8538602,30.3252742 41.8538602,26.8085816 L41.8538602,24.6845892 C41.8538602,21.1691446 39.1028424,18.3176036 35.6242003,18.3176036 C32.1455582,18.3176036 29.3945404,21.1691446 29.3945404,24.6845892 L29.3945404,26.8085816 C29.3945404,30.3252742 32.1455582,33.1755672 35.6242003,33.1755672" id="Fill-7" fill="#FFFFFF"></path>
                    <path d="M35.6242003,33.1755672 C39.1028424,33.1755672 41.8538602,30.3252742 41.8538602,26.8085816 L41.8538602,24.6845892 C41.8538602,21.1691446 39.1028424,18.3176036 35.6242003,18.3176036 C32.1455582,18.3176036 29.3945404,21.1691446 29.3945404,24.6845892 L29.3945404,26.8085816 C29.3945404,30.3252742 32.1455582,33.1755672 35.6242003,33.1755672 Z" id="Stroke-9" stroke="#231F20" stroke-width="2"></path>
                    <path d="M25.6567444,15.6024624 C29.1353865,15.6024624 31.8864044,12.7521693 31.8864044,9.23547675 L31.8864044,7.1114843 C31.8864044,3.59603968 29.1353865,0.744498696 25.6567444,0.744498696 C22.1781023,0.744498696 19.4270845,3.59603968 19.4270845,7.1114843 L19.4270845,9.23547675 C19.4270845,12.7521693 22.1781023,15.6024624 25.6567444,15.6024624" id="Fill-11" fill="#CDCDCD"></path>
                    <path d="M25.6567444,15.6024624 C29.1353865,15.6024624 31.8864044,12.7521693 31.8864044,9.23547675 L31.8864044,7.1114843 C31.8864044,3.59603968 29.1353865,0.744498696 25.6567444,0.744498696 C22.1781023,0.744498696 19.4270845,3.59603968 19.4270845,7.1114843 L19.4270845,9.23547675 C19.4270845,12.7521693 22.1781023,15.6024624 25.6567444,15.6024624 Z" id="Stroke-13" stroke="#231F20" stroke-width="2"></path>
                    <path d="M45.5916562,15.6024624 C49.0702983,15.6024624 51.8213161,12.7521693 51.8213161,9.23547675 L51.8213161,7.1114843 C51.8213161,3.59603968 49.0702983,0.744498696 45.5916562,0.744498696 C42.1130141,0.744498696 39.3619963,3.59603968 39.3619963,7.1114843 L39.3619963,9.23547675 C39.3619963,12.7521693 42.1130141,15.6024624 45.5916562,15.6024624" id="Fill-15" fill="#E9E9E9"></path>
                    <path d="M45.5916562,15.6024624 C49.0702983,15.6024624 51.8213161,12.7521693 51.8213161,9.23547675 L51.8213161,7.1114843 C51.8213161,3.59603968 49.0702983,0.744498696 45.5916562,0.744498696 C42.1130141,0.744498696 39.3619963,3.59603968 39.3619963,7.1114843 L39.3619963,9.23547675 C39.3619963,12.7521693 42.1130141,15.6024624 45.5916562,15.6024624 Z" id="Stroke-17" stroke="#231F20" stroke-width="2"></path>
                    <path d="M43.0997922,69.3816518 L43.0997922,49.4146252" id="Stroke-19" stroke="#231F20" stroke-width="2"></path>
                    <path d="M28.1486084,49.4146252 L28.1486084,69.3816518" id="Stroke-21" stroke="#231F20" stroke-width="2"></path>
                    <path d="M6.96776468,69.3816518 L6.96776468,49.4146252" id="Stroke-23" stroke="#231F20" stroke-width="2"></path>
                    <path d="M14.4433566,33.0736106 C10.9647145,33.0736106 8.21369666,30.2233176 8.21369666,26.706625 L8.21369666,24.5826326 C8.21369666,21.0671879 10.9647145,18.215647 14.4433566,18.215647 C17.9219987,18.215647 20.6730165,21.0671879 20.6730165,24.5826326 L20.6730165,26.706625 C20.6730165,30.2233176 17.9219987,33.0736106 14.4433566,33.0736106" id="Fill-25" fill="#E8E8E8"></path>
                    <path d="M14.4433566,33.0736106 C10.9647145,33.0736106 8.21369666,30.2233176 8.21369666,26.706625 L8.21369666,24.5826326 C8.21369666,21.0671879 10.9647145,18.215647 14.4433566,18.215647 C17.9219987,18.215647 20.6730165,21.0671879 20.6730165,24.5826326 L20.6730165,26.706625 C20.6730165,30.2233176 17.9219987,33.0736106 14.4433566,33.0736106 Z" id="Stroke-27" stroke="#231F20" stroke-width="2"></path>
                    <path d="M21.920942,38.3728595 C19.338125,37.419434 16.4762192,36.9352336 14.4428582,36.9352336 C9.77684293,36.9352336 0.737606385,39.4847733 0.737606385,44.4228685 L0.737606385,59.5004695 C0.737606385,62.4081677 2.8183128,64.4922261 5.72133432,64.4922261" id="Stroke-29" stroke="#231F20" stroke-width="2"></path>
                    <path d="M64.280636,69.3816518 L64.280636,49.4146252" id="Stroke-31" stroke="#231F20" stroke-width="2"></path>
                    <path d="M56.8050441,33.0736106 C60.2836862,33.0736106 63.034704,30.2233176 63.034704,26.706625 L63.034704,24.5826326 C63.034704,21.0671879 60.2836862,18.215647 56.8050441,18.215647 C53.326402,18.215647 50.5753841,21.0671879 50.5753841,24.5826326 L50.5753841,26.706625 C50.5753841,30.2233176 53.326402,33.0736106 56.8050441,33.0736106" id="Fill-33" fill="#BABABA"></path>
                    <path d="M56.8050441,33.0736106 C60.2836862,33.0736106 63.034704,30.2233176 63.034704,26.706625 L63.034704,24.5826326 C63.034704,21.0671879 60.2836862,18.215647 56.8050441,18.215647 C53.326402,18.215647 50.5753841,21.0671879 50.5753841,24.5826326 L50.5753841,26.706625 C50.5753841,30.2233176 53.326402,33.0736106 56.8050441,33.0736106 Z" id="Stroke-35" stroke="#231F20" stroke-width="2"></path>
                    <path d="M49.3294521,38.3728595 C51.9122692,37.419434 54.7741749,36.9352336 56.80629,36.9352336 C61.4723053,36.9352336 70.5102959,39.4847733 70.5102959,44.4228685 L70.5102959,59.5004695 C70.5102959,62.4081677 68.4308354,64.4922261 65.5278139,64.4922261" id="Stroke-37" stroke="#231F20" stroke-width="2"></path>
                </g>
            </g>
        </g>
    </g>
</svg>