<svg width="75" height="79" viewBox="0 0 75 79" xmlns="http://www.w3.org/2000/svg" xmlns:xlink="http://www.w3.org/1999/xlink"><title>gs-challenge-icon-1</title><defs><path id="a" d="M8.468 13.369h53.329v53.76H8.468z"/><mask id="e" x="0" y="0" width="53.329" height="53.76" fill="#fff"><use xlink:href="#a"/></mask><path id="b" d="M0 .043h21.894v22.071H0z"/><mask id="f" x="0" y="0" width="21.894" height="22.071" fill="#fff"><use xlink:href="#b"/></mask><path id="c" d="M49.597 52.869H75v25.609H49.597z"/><mask id="g" x="0" y="0" width="25.403" height="25.609" fill="#fff"><use xlink:href="#c"/></mask><path id="d" d="M3.588 52.232h17.54v17.682H3.588z"/><mask id="h" x="0" y="0" width="17.54" height="17.682" fill="#fff"><use xlink:href="#d"/></mask></defs><g fill="none" fill-rule="evenodd"><use stroke="#4C4C4C" mask="url(#e)" stroke-width="4" fill="#FFF" xlink:href="#a"/><path fill-opacity=".236" fill="#8D8D8D" d="M18.75 28.562h33.266v4.862H18.75zm0 9.115h21.169v4.862H18.75z"/><use stroke="#4C4C4C" mask="url(#f)" stroke-width="4" fill="#FFF" xlink:href="#b"/><path fill-opacity=".236" fill="#8D8D8D" d="M4.234 9.723h7.863v7.927H4.234z"/><use stroke="#4C4C4C" mask="url(#g)" stroke-width="4" fill="#FFF" xlink:href="#c"/><path fill-opacity=".236" fill="#8D8D8D" d="M53.831 69.388h4.763v4.802h-4.763z"/><use stroke="#4C4C4C" mask="url(#h)" stroke-width="4" fill="#FFF" xlink:href="#d"/><path fill-opacity=".236" fill="#8D8D8D" d="M8.468 56.515h7.863v7.927H8.468z"/></g></svg>