<svg width="90" height="74" viewBox="0 0 90 74" xmlns="http://www.w3.org/2000/svg"><title>Page 1</title><g fill="none" fill-rule="evenodd"><path d="M51.092 54.199H4.298A2.797 2.797 0 0 1 1.5 51.403V4.607a2.797 2.797 0 0 1 2.798-2.796h46.794a2.796 2.796 0 0 1 2.796 2.796v46.796a2.796 2.796 0 0 1-2.796 2.796" fill="#FFF"/><path d="M55.389 19.704h-3V4.42a1.11 1.11 0 0 0-1.11-1.108h-3.45v-3h3.45a4.115 4.115 0 0 1 4.11 4.108v15.284zM38.888 3.31h4.17v-3h-4.17zM28.67 55.7H4.11A4.114 4.114 0 0 1 0 51.588V4.42A4.113 4.113 0 0 1 4.11.312h32.37v3H4.11A1.11 1.11 0 0 0 3 4.42v47.168c0 .614.499 1.112 1.11 1.112h24.56v3z" fill="#2866DC"/><path fill="#CEDAF2" d="M22.696 52.709h9.996V1.81h-9.996z"/><path fill="#2866DC" d="M24.197 54.2h-3V.312h12.996v25.322h-3V3.312h-6.996zM4.516 9.565h14.132v-3H4.516zm0 5.69h9.306v-3H4.516zM67.81 63.044l-5.928-5.928 2.12-2.12 5.93 5.926z"/><path d="M60.237 53.35c-6.004 6.004-15.738 6.004-21.744 0-6.004-6.004-6.004-15.738.002-21.742 6.004-6.006 15.738-6.006 21.742 0 6.004 6.004 6.004 15.738 0 21.742M35.055 28.17c-7.902 7.902-7.902 20.716 0 28.618 7.904 7.904 20.718 7.904 28.62 0 7.904-7.902 7.904-20.716 0-28.62-7.902-7.902-20.716-7.902-28.62.002" fill="#CEDAF2"/><path d="M49.365 64.215a21.594 21.594 0 0 1-15.37-6.368c-8.474-8.474-8.474-22.262 0-30.74 8.474-8.47 22.266-8.476 30.742 0a21.77 21.77 0 0 1 5.596 9.628l-2.894.788a18.738 18.738 0 0 0-4.824-8.294c-7.306-7.304-19.194-7.304-26.498 0-7.306 7.306-7.306 19.194 0 26.498a18.612 18.612 0 0 0 13.248 5.488c5.006 0 9.71-1.95 13.25-5.488a18.622 18.622 0 0 0 5.178-9.85l2.952.544a21.63 21.63 0 0 1-6.008 11.426 21.599 21.599 0 0 1-15.372 6.368" fill="#2866DC"/><path d="M57.483 35.792c-4.834-4.832-12.702-4.836-17.536 0l-2.122-2.122c6.004-6.002 15.776-6.002 21.78 0l-2.122 2.122z" fill="#2866DC"/><path fill="#CEDAF2" d="M64.297 63.063l9.456 9.454 5.652-5.652-9.454-9.456z"/><path fill="#2866DC" d="M72.691 73.579L62.175 63.063l7.774-7.776 10.516 10.516-2.12 2.122-8.396-8.394-3.532 3.532 8.396 8.394z"/><path fill="#2866DC" d="M69.289 68.33l-2.122-2.121 5.93-5.928 2.12 2.12z"/><path d="M57.811 42.479a8.447 8.447 0 1 1-16.893-.002 8.447 8.447 0 0 1 16.893.002" fill="#CEDAF2"/><path d="M49.366 40.409c-1.14 0-2.07.93-2.07 2.07 0 1.14.93 2.068 2.07 2.068a2.07 2.07 0 0 0 2.068-2.068c0-1.14-.928-2.07-2.068-2.07m0 7.138a5.074 5.074 0 0 1-5.07-5.068 5.077 5.077 0 0 1 5.07-5.07 5.076 5.076 0 0 1 5.068 5.07 5.073 5.073 0 0 1-5.068 5.068" fill="#2866DC"/><path fill="#2866DC" d="M76.905 43.98H53.59v-3h20.312l-.028-25.297H89.65v3H76.877z"/></g></svg>