<svg width="153" height="62" viewBox="0 0 153 62" xmlns="http://www.w3.org/2000/svg" xmlns:xlink="http://www.w3.org/1999/xlink"><title>gs-logo</title><defs><path d="M9.365.168C6.58.22 4.84 1.487 4.9 4.413L3.748 21.068c.043 2.052.538 2.66 2.251 2.626 1.177-.022 1.7-.648 2.297-2.83L13.79 4.431C15.205 1.907 13.507.165 9.62.165l-.255.003zm-4.641 26.58c-1.928.037-2.67.359-3.353 1.04-.996.994-1.336 2.644-1.308 3.978.037 1.796 1.285 2.594 3.694 2.547 1.98-.038 2.67-.307 3.352-.988 1.051-.995 1.338-2.644 1.31-3.978-.036-1.749-1.172-2.6-3.504-2.6l-.191.001z" id="a"/><path id="b" d="M.768.335l-.679 7.73H1.12V.336H.768z"/></defs><g fill="none" fill-rule="evenodd"><path d="M3.257 58.414l2.781-3.186c1.777 1.358 3.76 2.075 5.846 2.075 1.339 0 2.06-.445 2.06-1.185v-.05c0-.716-.592-1.11-3.039-1.654-3.837-.84-6.798-1.876-6.798-5.432v-.05c0-3.21 2.652-5.53 6.979-5.53 3.064 0 5.46.79 7.416 2.296l-2.498 3.383c-1.648-1.111-3.45-1.704-5.047-1.704-1.21 0-1.803.494-1.803 1.111v.05c0 .79.618 1.135 3.116 1.678 4.146.865 6.721 2.148 6.721 5.383v.05c0 3.53-2.91 5.629-7.287 5.629-3.194 0-6.232-.963-8.447-2.864m17.539-6.024v-.05c0-5.037 4.043-8.987 9.503-8.987 3.682 0 6.051 1.48 7.648 3.604l-3.76 2.79c-1.03-1.234-2.215-2.024-3.94-2.024-2.524 0-4.3 2.049-4.3 4.567v.05c0 2.592 1.776 4.617 4.3 4.617 1.88 0 2.987-.84 4.07-2.099l3.759 2.568c-1.7 2.247-3.992 3.901-7.984 3.901-5.15 0-9.296-3.777-9.296-8.938m19.419-8.691h4.996v6.47h6.412v-6.47h4.996v17.284h-4.996v-6.568h-6.412v6.568h-4.996zm33.299 8.692v-.05c0-2.494-1.88-4.667-4.635-4.667-2.73 0-4.558 2.124-4.558 4.617v.05c0 2.494 1.88 4.666 4.61 4.666 2.755 0 4.583-2.123 4.583-4.617m-14.317 0v-.05c0-4.962 4.17-8.986 9.734-8.986 5.562 0 9.683 3.975 9.683 8.937v.05c0 4.963-4.173 8.987-9.735 8.987-5.562 0-9.682-3.975-9.682-8.938m35.719.001v-.05c0-2.494-1.879-4.667-4.634-4.667-2.73 0-4.559 2.124-4.559 4.617v.05c0 2.494 1.88 4.666 4.61 4.666 2.755 0 4.583-2.123 4.583-4.617m-14.317 0v-.05c0-4.962 4.17-8.986 9.734-8.986 5.562 0 9.683 3.975 9.683 8.937v.05c0 4.963-4.173 8.987-9.734 8.987-5.563 0-9.683-3.975-9.683-8.938m22.02-8.691h4.996v13.086h8.73v4.198h-13.726zm14.501 14.716l2.78-3.186c1.777 1.358 3.76 2.075 5.846 2.075 1.339 0 2.06-.445 2.06-1.185v-.05c0-.716-.592-1.11-3.039-1.654-3.837-.84-6.798-1.876-6.798-5.432v-.05c0-3.21 2.652-5.53 6.979-5.53 3.064 0 5.46.79 7.416 2.296l-2.498 3.383c-1.648-1.111-3.45-1.704-5.047-1.704-1.21 0-1.803.494-1.803 1.111v.05c0 .79.618 1.135 3.116 1.678 4.146.865 6.721 2.148 6.721 5.383v.05c0 3.53-2.91 5.629-7.287 5.629-3.194 0-6.232-.963-8.447-2.864" fill="#2BA3DC"/><path d="M0 18.561v-.1C0 8.496 8.095.334 19.167.334c6.58 0 10.55 1.702 14.363 4.807L28.464 11c-2.82-2.254-5.328-3.556-9.558-3.556-5.849 0-10.497 4.958-10.497 10.917v.1c0 6.41 4.595 11.116 11.072 11.116 2.924 0 5.535-.701 7.572-2.103v-5.007h-8.095v-6.66h15.877V31.03c-3.76 3.054-8.93 5.558-15.616 5.558C7.834 36.588 0 28.926 0 18.56m39.637-9.413h7.938v5.408c1.62-3.705 4.23-6.11 8.931-5.909v7.962h-.418c-5.275 0-8.513 3.054-8.513 9.464v9.915h-7.938V9.147zM77.76 20.464c-.47-3.405-2.558-5.709-5.9-5.709-3.291 0-5.432 2.254-6.06 5.709h11.96zm-19.74 2.253v-.1c0-7.661 5.692-13.97 13.84-13.97 9.348 0 13.63 6.96 13.63 14.57 0 .602-.052 1.303-.104 2.004h-19.48c.783 3.455 3.29 5.258 6.84 5.258 2.665 0 4.597-.802 6.79-2.754l4.544 3.855c-2.611 3.105-6.371 5.008-11.437 5.008-8.409 0-14.624-5.659-14.624-13.87zm47.836 3.806V25.17c-1.358-.6-3.133-1-5.066-1-3.395 0-5.484 1.302-5.484 3.705v.1c0 2.053 1.776 3.255 4.335 3.255 3.708 0 6.215-1.953 6.215-4.707M87.63 28.275v-.1c0-5.858 4.648-8.563 11.281-8.563 2.82 0 4.857.451 6.841 1.102v-.45c0-3.156-2.036-4.908-6.005-4.908-3.03 0-5.171.55-7.73 1.452L90.031 11c3.081-1.302 6.11-2.153 10.864-2.153 4.334 0 7.468 1.1 9.453 3.004 2.089 2.003 3.028 4.957 3.028 8.563v15.573H105.7v-2.905c-1.932 2.054-4.595 3.405-8.46 3.405-5.275 0-9.61-2.903-9.61-8.212m31.803.1V15.656h-3.343v-6.51h3.343v-6.86h7.938v6.86h6.58v6.51h-6.58v11.468c0 1.752.784 2.604 2.559 2.604a8.344 8.344 0 0 0 3.917-.952v6.109c-1.67.951-3.604 1.553-6.267 1.553-4.857 0-8.147-1.853-8.147-8.063" fill="#4E575E"/><use fill="#2BA3DC" xlink:href="#a" transform="translate(138.008 1.895)"/><g transform="translate(142.102 8.623)"><mask id="c" fill="#fff"><use xlink:href="#b"/></mask><path d="M-10.652.588c-4.96-.562-10.094-.226-14.783 1.38-.24.082-.478.169-.715.257l.122 5.84a26.04 26.04 0 0 1 12.437-3.01 25.97 25.97 0 0 1 6.23.843 68.748 68.748 0 0 1 3.066-.727C-2.563 4.556-.83 3.94.902 3.328-2.846 2.03-6.7 1.036-10.652.588" fill="#F8941F" mask="url(#c)"/></g></g></svg>