<?xml version="1.0" encoding="UTF-8"?>
<svg width="153px" height="62px" viewBox="0 0 153 62" version="1.1" xmlns="http://www.w3.org/2000/svg" xmlns:xlink="http://www.w3.org/1999/xlink">
    <!-- Generator: Sketch 39.1 (31720) - http://www.bohemiancoding.com/sketch -->
    <title>gs-logo</title>
    <desc>Created with Sketch.</desc>
    <defs>
        <path d="M9.36469307,0.167644904 C6.5811325,0.221470693 4.83965279,1.48693741 4.90105486,4.4125933 L3.74845027,21.0677501 C3.79113933,23.120419 4.28586459,23.7270805 5.99927477,23.694 C7.17585542,23.6721333 7.69923498,23.0458478 8.29571224,20.8631 L13.7903205,4.4316566 C15.2049072,1.90745139 13.5067014,0.165402163 9.62082742,0.165402163 C9.53603409,0.165402163 9.45124075,0.166523534 9.36469307,0.167644904 L9.36469307,0.167644904 Z M4.72386603,26.7480529 C2.79642577,26.7850581 2.05375309,27.1068914 1.37131293,27.7875634 C0.374845027,28.7822191 0.0345021163,30.4317553 0.0625716347,31.7656256 C0.0999976592,33.5620613 1.34792166,34.3599165 3.75663721,34.3133796 C5.7372926,34.275253 6.42733493,34.006124 7.10919031,33.3254521 C8.1600429,32.329675 8.44717069,30.6812602 8.41910117,29.3473899 C8.38284471,27.5980518 7.24719877,26.7463708 4.91450484,26.7463708 C4.85193321,26.7463708 4.78819201,26.7469315 4.72386603,26.7480529 L4.72386603,26.7480529 Z" id="path-1"></path>
        <polygon id="path-3" points="0.767806341 0.334882456 0.0891621369 8.06557016 1.12043245 8.06557016 1.12043245 0.334882456 0.767806341 0.334882456"></polygon>
    </defs>
    <g id="Visual-1" stroke="none" stroke-width="1" fill="none" fill-rule="evenodd">
        <g id="02_Case-Study-GS-Compact" transform="translate(-646.000000, -11184.000000)">
            <g id="Group-26" transform="translate(617.000000, 11184.000000)">
                <g id="gs-logo" transform="translate(29.000000, 0.000000)">
                    <g id="Group-25" transform="translate(0.000000, 0.212500)">
                        <path d="M3.25711674,58.2012085 L6.03833818,55.0159553 C7.81490478,56.3739351 9.7978993,57.090491 11.8838154,57.090491 C13.2229653,57.090491 13.9440011,56.6458675 13.9440011,55.9052022 L13.9440011,55.8553012 C13.9440011,55.1398668 13.3516173,54.7445837 10.9054757,54.2012796 C7.06813864,53.3619337 4.10680445,52.3252266 4.10680445,48.7693604 L4.10680445,48.7200201 C4.10680445,45.5100968 6.75937394,43.1894203 11.0855885,43.1894203 C14.1498442,43.1894203 16.5451098,43.9794259 18.5023739,45.4854266 L16.0041868,48.868041 C14.3556873,47.7573235 12.5533904,47.1641184 10.9569365,47.1641184 C9.74643852,47.1641184 9.15405472,47.6580822 9.15405472,48.2759574 L9.15405472,48.3252977 C9.15405472,49.1153033 9.77216891,49.4606854 12.270356,50.0039895 C16.4164578,50.8680055 18.9912513,52.1519748 18.9912513,55.3865683 L18.9912513,55.4359086 C18.9912513,58.966544 16.0813779,61.065189 11.7037026,61.065189 C8.51021015,61.065189 5.47168478,60.1024924 3.25711674,58.2012085" id="Fill-1" fill="#2BA3DC"></path>
                        <path d="M20.7960044,52.1765889 L20.7960044,52.1272486 C20.7960044,47.0906126 24.8391846,43.140024 30.298706,43.140024 C33.9810759,43.140024 36.3500263,44.6213545 37.9470649,46.7446698 L34.186919,49.5346398 C33.1571186,48.3005715 31.972351,47.5105659 30.2472452,47.5105659 C27.7233276,47.5105659 25.946761,49.55931 25.946761,52.0779083 L25.946761,52.1272486 C25.946761,54.7198574 27.7233276,56.7444921 30.2472452,56.7444921 C32.1267333,56.7444921 33.2343098,55.9051462 34.3161558,54.645847 L38.0757169,57.2137857 C36.3763415,59.4604516 34.0839975,61.1144733 30.092278,61.1144733 C24.9421062,61.1144733 20.7960044,57.3371364 20.7960044,52.1765889" id="Fill-3" fill="#2BA3DC"></path>
                        <polygon id="Fill-5" fill="#2BA3DC" points="40.2151405 43.4854061 45.21093 43.4854061 45.21093 49.9545931 51.6230606 49.9545931 51.6230606 43.4854061 56.6188501 43.4854061 56.6188501 60.7690911 51.6230606 60.7690911 51.6230606 54.2012235 45.21093 54.2012235 45.21093 60.7690911 40.2151405 60.7690911"></polygon>
                        <path d="M73.5143025,52.1765889 L73.5143025,52.1272486 C73.5143025,49.6338811 71.6348144,47.4606649 68.8793233,47.4606649 C66.1495626,47.4606649 64.3209505,49.5845408 64.3209505,52.0779083 L64.3209505,52.1272486 C64.3209505,54.6211768 66.2010234,56.7938324 68.9307841,56.7938324 C71.6862751,56.7938324 73.5143025,54.6705171 73.5143025,52.1765889 M59.196509,52.1765889 L59.196509,52.1272486 C59.196509,47.164623 63.3677564,43.140024 68.9307841,43.140024 C74.493227,43.140024 78.6135984,47.1152827 78.6135984,52.0779083 L78.6135984,52.1272486 C78.6135984,57.0904349 74.4411814,61.1144733 68.8793233,61.1144733 C63.3168804,61.1144733 59.196509,57.1397752 59.196509,52.1765889" id="Fill-7" fill="#2BA3DC"></path>
                        <path d="M94.9164916,52.1765889 L94.9164916,52.1272486 C94.9164916,49.6338811 93.0370034,47.4606649 90.2815124,47.4606649 C87.5517517,47.4606649 85.7231395,49.5845408 85.7231395,52.0779083 L85.7231395,52.1272486 C85.7231395,54.6211768 87.6032125,56.7938324 90.3329732,56.7938324 C93.0884642,56.7938324 94.9164916,54.6705171 94.9164916,52.1765889 M80.5986981,52.1765889 L80.5986981,52.1272486 C80.5986981,47.164623 84.7699455,43.140024 90.3329732,43.140024 C95.8954161,43.140024 100.015787,47.1152827 100.015787,52.0779083 L100.015787,52.1272486 C100.015787,57.0904349 95.8433705,61.1144733 90.2815124,61.1144733 C84.7190695,61.1144733 80.5986981,57.1397752 80.5986981,52.1765889" id="Fill-9" fill="#2BA3DC"></path>
                        <polygon id="Fill-11" fill="#2BA3DC" points="102.618884 43.4854061 107.614674 43.4854061 107.614674 56.571801 116.344879 56.571801 116.344879 60.7690911 102.618884 60.7690911"></polygon>
                        <path d="M117.119071,58.2012085 L119.900293,55.0159553 C121.676859,56.3739351 123.659854,57.090491 125.74577,57.090491 C127.08492,57.090491 127.805956,56.6458675 127.805956,55.9052022 L127.805956,55.8553012 C127.805956,55.1398668 127.213572,54.7445837 124.76743,54.2012796 C120.930093,53.3619337 117.968759,52.3252266 117.968759,48.7693604 L117.968759,48.7200201 C117.968759,45.5100968 120.621328,43.1894203 124.947543,43.1894203 C128.011799,43.1894203 130.407064,43.9794259 132.364328,45.4854266 L129.866141,48.868041 C128.218227,47.7573235 126.415345,47.1641184 124.818891,47.1641184 C123.608393,47.1641184 123.016009,47.6580822 123.016009,48.2759574 L123.016009,48.3252977 C123.016009,49.1153033 123.634123,49.4606854 126.132311,50.0039895 C130.277828,50.8680055 132.853206,52.1519748 132.853206,55.3865683 L132.853206,55.4359086 C132.853206,58.966544 129.943332,61.065189 125.565657,61.065189 C122.372165,61.065189 119.333639,60.1024924 117.119071,58.2012085" id="Fill-13" fill="#2BA3DC"></path>
                        <path d="M0,18.3484825 L0,18.2481198 C0,8.28305998 8.09513214,0.121164093 19.1673876,0.121164093 C25.7479353,0.121164093 29.7168482,1.82396534 33.5296245,4.92847984 L28.4636612,10.7870805 C25.6432594,8.53368631 23.1363005,7.23177505 18.9059902,7.23177505 C13.0570043,7.23177505 8.4085751,12.1893545 8.4085751,18.1483178 L8.4085751,18.2481198 C8.4085751,24.6578741 13.0043739,29.3648272 19.4808305,29.3648272 C22.4053235,29.3648272 25.0163735,28.6634099 27.0531679,27.2616967 L27.0531679,22.2542163 L18.9580358,22.2542163 L18.9580358,15.5943963 L34.8354419,15.5943963 L34.8354419,30.8170021 C31.0747112,33.8716156 25.9046568,36.3750755 19.2194331,36.3750755 C7.83373475,36.3750755 0,28.7138716 0,18.3484825" id="Fill-15" fill="#4E575E"></path>
                        <path d="M39.6369669,8.93429596 L47.5753776,8.93429596 L47.5753776,14.3426663 C49.1940531,10.6370972 51.8056879,8.23343934 56.5061627,8.43360399 L56.5061627,16.3953352 L56.0880438,16.3953352 C50.8133135,16.3953352 47.5753776,19.4499487 47.5753776,25.8597031 L47.5753776,35.7743012 L39.6369669,35.7743012 L39.6369669,8.93429596 Z" id="Fill-17" fill="#4E575E"></path>
                        <path d="M77.7608113,20.2512241 C77.2906469,16.8461823 75.2018069,14.5428871 71.8591951,14.5428871 C68.5686288,14.5428871 66.4277433,16.7962813 65.8008574,20.2512241 L77.7608113,20.2512241 Z M58.0191682,22.5046183 L58.0191682,22.4042556 C58.0191682,14.7430517 63.7120174,8.43366006 71.8591951,8.43366006 C81.2075143,8.43366006 85.4904549,15.3940074 85.4904549,23.0053103 C85.4904549,23.6063649 85.4378246,24.3072215 85.385779,25.0080782 L65.9055333,25.0080782 C66.6885559,28.4635817 69.1955147,30.2661849 72.7468936,30.2661849 C75.4105739,30.2661849 77.3426924,29.4649656 79.5362084,27.5120987 L84.0799616,31.3679315 C81.4689116,34.472446 77.7087657,36.3754119 72.6428025,36.3754119 C64.2342274,36.3754119 58.0191682,30.7169759 58.0191682,22.5046183 L58.0191682,22.5046183 Z" id="Fill-19" fill="#4E575E"></path>
                        <path d="M105.85606,26.3103258 L105.85606,24.9579529 C104.498197,24.3574589 102.7228,23.956569 100.790097,23.956569 C97.3954394,23.956569 95.3060146,25.2590409 95.3060146,27.6621381 L95.3060146,27.7625008 C95.3060146,29.8151696 97.0819965,31.0172789 99.6410009,31.0172789 C103.349101,31.0172789 105.85606,29.064412 105.85606,26.3103258 M87.6290014,28.0624674 L87.6290014,27.9626654 C87.6290014,22.1040647 92.2768458,19.3998795 98.9100238,19.3998795 C101.729841,19.3998795 103.76722,19.8506705 105.751384,20.5016261 L105.751384,20.0508352 C105.751384,16.895859 103.71459,15.1437174 99.7456768,15.1437174 C96.7165079,15.1437174 94.5750376,15.6943104 92.0160332,16.5958924 L90.0312843,10.7871927 C93.1124987,9.4852814 96.1416676,8.63416112 100.894773,8.63416112 C105.229174,8.63416112 108.363019,9.73534705 110.347768,11.6383129 C112.436608,13.6410808 113.376352,16.5958924 113.376352,20.2010988 L113.376352,35.774133 L105.699339,35.774133 L105.699339,32.8697832 C103.76722,34.9230127 101.10354,36.274825 97.2387179,36.274825 C91.9639876,36.274825 87.6290014,33.3710358 87.6290014,28.0624674" id="Fill-21" fill="#4E575E"></path>
                        <path d="M119.432526,28.1629422 L119.432526,15.4437962 L116.089914,15.4437962 L116.089914,8.93423989 L119.432526,8.93423989 L119.432526,2.07425526 L127.370937,2.07425526 L127.370937,8.93423989 L133.951484,8.93423989 L133.951484,15.4437962 L127.370937,15.4437962 L127.370937,26.9114926 C127.370937,28.6636342 128.154544,29.5153151 129.929941,29.5153151 C131.39248,29.5153151 132.698297,29.1643261 133.846808,28.5632715 L133.846808,34.6724985 C132.176087,35.6239815 130.243384,36.2250361 127.580288,36.2250361 C122.722507,36.2250361 119.432526,34.3725319 119.432526,28.1629422" id="Fill-23" fill="#4E575E"></path>
                    </g>
                    <g id="Group-44" transform="translate(138.008465, 1.894556)">
                        <g id="Group-28">
                            <mask id="mask-2" fill="white">
                                <use xlink:href="#path-1"></use>
                            </mask>
                            <use id="Clip-27" fill="#2BA3DC" xlink:href="#path-1"></use>
                        </g>
                        <g id="Group-40" transform="translate(4.093471, 6.728224)">
                            <mask id="mask-4" fill="white">
                                <use xlink:href="#path-3"></use>
                            </mask>
                            <g id="Clip-39"></g>
                            <path d="M-10.6519729,0.588271015 C-15.6115059,0.0264643461 -20.7464734,0.361754155 -25.4352526,1.96811754 C-25.675013,2.04997759 -25.9130191,2.13688381 -26.1498557,2.22547209 L-26.0282211,8.06557016 C-24.2990218,7.14941038 -22.4557901,6.43061183 -20.5505716,5.92599506 C-18.2880514,5.32662247 -15.9389836,5.02833789 -13.5910854,5.05581147 C-11.4882106,5.08104231 -9.39001411,5.36867387 -7.36023706,5.89796079 C-6.34505615,5.63219596 -5.32285786,5.38997991 -4.29539653,5.17075196 C-2.56327333,4.55624087 -0.829980571,3.94172979 0.902142625,3.32777938 C-2.84572286,2.03147497 -6.70118816,1.03625857 -10.6519729,0.588271015" id="Fill-38" fill="#F8941F" mask="url(#mask-4)"></path>
                        </g>
                    </g>
                </g>
            </g>
        </g>
    </g>
</svg>