<svg width="415" height="68" viewBox="0 0 415 68" xmlns="http://www.w3.org/2000/svg"><title>Page 1 Copy</title><path d="M185.7 53.976v6.574c0 2.67-2.187 4.736-4.894 4.736-2.71 0-4.806-2.066-4.806-4.736V9.733C176 7.065 178.096 5 180.806 5c2.707 0 4.894 2.065 4.894 4.733v20.672h22.635V9.733c0-2.668 2.099-4.733 4.808-4.733 2.71 0 4.894 2.065 4.894 4.733V60.55c0 2.67-2.184 4.736-4.894 4.736s-4.808-2.066-4.808-4.736V39.88H185.7v5.722m-93.998 8.374v6.574c0 2.67-2.271 4.736-4.893 4.736-2.71 0-4.809-2.066-4.809-4.736V9.733C82 7.065 84.099 5 86.809 5c2.622 0 4.893 2.065 4.893 4.733v35.87m33.494 16.779C113.91 57.605 106 46.812 106 34.092 106 16.78 120.506 3 138.25 3c7.428 0 14.508 2.498 19.925 6.72 2.272 1.634 2.62 4.823.962 6.973-1.663 2.065-4.894 2.498-7.08.778-3.757-2.843-8.566-4.654-13.807-4.654-6.291 0-11.799 2.326-15.733 6.284-4.11 3.878-6.554 9.132-6.554 14.99 0 5.682 2.444 10.941 6.554 14.814 3.934 3.958 9.442 6.286 15.733 6.286 4.365 0 8.475-1.295 11.974-3.273V40.121H137.72c-2.707 0-4.979-2.24-4.979-4.912 0-2.755 2.272-4.82 4.979-4.82h17.396c2.795 0 5.07 2.065 5.07 4.82v19.035c0 .605-.176.947-.264 1.46-.087.178-.087.263-.175.435v.085c-.26.775-.787 1.465-1.66 2.065a32.5 32.5 0 0 1-19.838 6.72M244.7 45.007l-14.346-33.51c-.964-2.326.085-5.169 2.62-6.111 2.359-1.035 5.244.085 6.203 2.495l17.13 39.877 11.275-26.444c.79-1.896 2.625-2.928 4.543-2.928a5 5 0 0 1 4.546 2.928l11.272 26.444L304.99 7.88c1.05-2.41 3.844-3.53 6.379-2.495 2.356.942 3.496 3.785 2.446 6.11L292.402 61.71c-.085.254-.26.602-.435.775l-.085.085c-.09.172-.26.342-.439.52 0 .17-.09.17-.09.255a2.545 2.545 0 0 0-.608.435h-.09c-.261.165-.44.428-.787.513h-.088s-.085 0-.085.085c-.175 0-.435.087-.701.172h-.173c-.26.085-.523.085-.877.085-.257 0-.52 0-.783-.085h-.263c-.263-.085-.439-.172-.611-.172-.088-.085-.088-.085-.176-.085-.35-.085-.61-.348-.789-.513h-.085c-.263-.178-.435-.347-.61-.435-.088-.085-.088-.085-.173-.255-.088-.178-.266-.348-.354-.52-.175 0-.175-.085-.175-.085-.173-.173-.26-.52-.345-.775l-11.455-26.7-11.447 26.7c-.085.255-.26.603-.348.776-.088 0-.088.085-.088.085-.175.172-.348.342-.526.52 0 .17-.085.17-.085.255-.173.088-.35.257-.526.435h-.178c-.26.165-.52.428-.699.513h-.085s-.085 0-.085.085c-.35 0-.526.087-.701.172h-.263c-.26.085-.52.085-.787.085-.257 0-.608 0-.871-.085h-.263c-.263-.085-.436-.172-.611-.172-.088-.085-.088-.085-.178-.085-.26-.085-.611-.348-.784-.513h-.087c-.264-.178-.348-.347-.611-.435-.09-.085-.09-.085-.176-.255-.175-.178-.263-.348-.436-.52v-.085c-.175-.173-.263-.52-.438-.775l-3.65-8.525m93.676-23.242l-2.655-6.938-7.075 18.516h14.155l-1.523-3.996m-12.944 13.471h-3.184l-4.285 11.195c-.787 1.895-2.622 3.013-4.543 3.013a5.142 5.142 0 0 1-1.658-.258c-2.537-.945-3.76-3.7-2.885-6.198l19.314-50.726c.784-1.901 2.71-3.104 4.628-3.019 2.014-.085 3.852 1.118 4.636 3.019l19.312 50.726c.876 2.498-.348 5.253-2.88 6.198-.436.173-1.05.258-1.666.258-1.918 0-3.757-1.118-4.455-3.013l-4.28-11.195h-9.078m42.939-5.99v-8.335l-17.744-24.2c-1.658-2.066-1.222-4.994.964-6.544 2.187-1.554 5.157-1.12 6.645 1.032l14.941 20.157L403.501 6.96c1.663-2.153 4.633-2.586 6.73-1.032 2.098 1.55 2.537 4.478 1.049 6.543l-17.914 24.2v23.256c0 2.67-2.102 4.736-4.809 4.736-2.534 0-4.806-2.066-4.806-4.736v-6.692M27.761 29.699l-.054-12.354C27.707 10.528 22.175 5 15.352 5 8.532 5 3 10.528 3 17.345 3 24.171 8.532 29.7 15.352 29.7H52.33c6.823 0 12.355-5.528 12.355-12.354C64.686 10.528 59.154 5 52.33 5c-6.82 0-12.352 5.528-12.352 12.345v3.66M39.924 40l.055 12.353c0 6.815 5.532 12.348 12.355 12.348 6.82 0 12.352-5.533 12.352-12.348C64.686 45.528 59.154 40 52.334 40h-36.98C8.533 40 3 45.528 3 52.353c0 6.815 5.532 12.348 12.355 12.348 6.82 0 12.352-5.533 12.352-12.348v-3.659" stroke="#231E1F" stroke-width="5" fill="none" stroke-linecap="round" stroke-linejoin="round"/></svg>