<?xml version="1.0" encoding="UTF-8"?>
<svg width="415px" height="68px" viewBox="0 0 415 68" version="1.1" xmlns="http://www.w3.org/2000/svg" xmlns:xlink="http://www.w3.org/1999/xlink">
    <!-- Generator: Sketch 39.1 (31720) - http://www.bohemiancoding.com/sketch -->
    <title>Page 1 Copy</title>
    <desc>Created with Sketch.</desc>
    <defs></defs>
    <g id="Case-Study" stroke="none" stroke-width="1" fill="none" fill-rule="evenodd" stroke-linecap="round" stroke-linejoin="round">
        <g id="02_Case-Study-Highway" transform="translate(-514.000000, -3628.000000)" stroke="#231E1F" stroke-width="5">
            <g id="Page-1-Copy" transform="translate(517.000000, 3631.000000)">
                <path d="M182.6996,50.9756522 L182.6996,57.5495652 C182.6996,60.2202174 180.51308,62.2855217 177.80596,62.2855217 C175.0961,62.2855217 173,60.2202174 173,57.5495652 L173,6.73321739 C173,4.06530435 175.0961,2 177.80596,2 C180.51308,2 182.6996,4.06530435 182.6996,6.73321739 L182.6996,27.4054348 L205.33474,27.4054348 L205.33474,6.73321739 C205.33474,4.06530435 207.43358,2 210.14344,2 C212.8533,2 215.03708,4.06530435 215.03708,6.73321739 L215.03708,57.5495652 C215.03708,60.2202174 212.8533,62.2855217 210.14344,62.2855217 C207.43358,62.2855217 205.33474,60.2202174 205.33474,57.5495652 L205.33474,36.880087 L182.6996,36.880087 L182.6996,42.6021304" id="Stroke-1"></path>
                <path d="M88.70234,50.9756522 L88.70234,57.5495652 C88.70234,60.2202174 86.43088,62.2855217 83.8087,62.2855217 C81.09884,62.2855217 79,60.2202174 79,57.5495652 L79,6.73321739 C79,4.06530435 81.09884,2 83.8087,2 C86.43088,2 88.70234,4.06530435 88.70234,6.73321739 L88.70234,42.6021304" id="Stroke-3"></path>
                <path d="M122.19644,59.3816087 C110.91038,54.6045652 103,43.8123913 103,31.0918696 C103,13.7805652 117.50556,0 135.2498,0 C142.67794,0 149.7581,2.49808696 155.17508,6.71908696 C157.44654,8.35434783 157.79452,11.5426957 156.13682,13.692913 C154.47364,15.7582174 151.24318,16.191 149.05666,14.4708261 C145.30012,11.6276087 140.49142,9.81704348 135.2498,9.81704348 C128.95876,9.81704348 123.45136,12.1425652 119.51672,16.1006087 C115.40672,19.9792174 112.96264,25.2328696 112.96264,31.0918696 C112.96264,36.7728261 115.40672,42.0319565 119.51672,45.905087 C123.45136,49.8631304 128.95876,52.1913913 135.2498,52.1913913 C139.61462,52.1913913 143.72462,50.8957826 147.2236,48.9181304 L147.2236,37.1206957 L134.72098,37.1206957 C132.01386,37.1206957 129.7424,34.880087 129.7424,32.2094348 C129.7424,29.4538696 132.01386,27.3885652 134.72098,27.3885652 L151.93914,27.3885652 L152.02956,27.3885652 L152.11724,27.3885652 C154.91204,27.3885652 157.18624,29.4538696 157.18624,32.2094348 L157.18624,51.2436522 C157.18624,51.849 157.01088,52.1913913 156.9232,52.7036087 C156.83552,52.8816522 156.83552,52.9665652 156.74784,53.1391304 L156.74784,53.2240435 C156.48754,53.9992174 155.96146,54.6894783 155.0874,55.2893478 C152.3337,57.4012174 149.23202,59.0830435 145.88922,60.2334783 C142.54642,61.3811739 138.9625,62.0084348 135.2498,62.0084348" id="Stroke-5"></path>
                <path d="M241.700692,42.0074492 L227.354052,8.49692743 C226.389572,6.17140569 227.438992,3.3281883 229.973492,2.38592743 C232.332632,1.35053613 235.217852,2.47084048 236.176852,4.88127526 L253.307332,44.7575361 L264.582432,18.3139709 C265.371552,16.4184927 267.207352,15.3858405 269.125352,15.3858405 C270.963892,15.3858405 272.796952,16.4184927 273.671012,18.3139709 L284.943372,44.7575361 L301.988912,4.88127526 C303.038332,2.47084048 305.833132,1.35053613 308.367632,2.38592743 C310.724032,3.3281883 311.863872,6.17140569 310.814452,8.49692743 L289.401352,58.7106666 C289.316412,58.9654057 289.141052,59.3132753 288.965692,59.4858405 L288.880752,59.5707535 C288.790332,59.7433187 288.620452,59.9131448 288.442352,60.0911883 C288.442352,60.2610144 288.351932,60.2610144 288.351932,60.3459274 C288.179312,60.4335796 287.916272,60.6034057 287.743652,60.7814492 L287.653232,60.7814492 C287.392932,60.945797 287.214832,61.2087535 286.866852,61.2936666 L286.779172,61.2936666 C286.779172,61.2936666 286.694232,61.2936666 286.694232,61.3785796 C286.518872,61.3785796 286.258572,61.4662318 285.992792,61.5511448 L285.820172,61.5511448 C285.559872,61.6360579 285.296832,61.6360579 284.943372,61.6360579 C284.685812,61.6360579 284.422772,61.6360579 284.159732,61.5511448 L283.896692,61.5511448 C283.633652,61.4662318 283.458292,61.3785796 283.285672,61.3785796 C283.197992,61.2936666 283.197992,61.2936666 283.110312,61.2936666 C282.759592,61.2087535 282.499292,60.945797 282.321192,60.7814492 L282.236252,60.7814492 C281.973212,60.6034057 281.800592,60.4335796 281.625232,60.3459274 C281.537552,60.2610144 281.537552,60.2610144 281.452612,60.0911883 C281.364932,59.9131448 281.186832,59.7433187 281.099152,59.5707535 C280.923792,59.5707535 280.923792,59.4858405 280.923792,59.4858405 C280.751172,59.3132753 280.663492,58.9654057 280.578552,58.7106666 L269.125352,32.0096231 L257.677632,58.7106666 C257.592692,58.9654057 257.417332,59.3132753 257.329652,59.4858405 C257.241972,59.4858405 257.241972,59.5707535 257.241972,59.5707535 C257.066612,59.7433187 256.893992,59.9131448 256.715892,60.0911883 C256.715892,60.2610144 256.630952,60.2610144 256.630952,60.3459274 C256.458332,60.4335796 256.280232,60.6034057 256.104872,60.7814492 L255.926772,60.7814492 C255.666472,60.945797 255.406172,61.2087535 255.228072,61.2936666 L255.143132,61.2936666 C255.143132,61.2936666 255.058192,61.2936666 255.058192,61.3785796 C254.707472,61.3785796 254.532112,61.4662318 254.356752,61.5511448 L254.093712,61.5511448 C253.833412,61.6360579 253.573112,61.6360579 253.307332,61.6360579 C253.049772,61.6360579 252.699052,61.6360579 252.436012,61.5511448 L252.172972,61.5511448 C251.909932,61.4662318 251.737312,61.3785796 251.561952,61.3785796 C251.474272,61.2936666 251.474272,61.2936666 251.383852,61.2936666 C251.123552,61.2087535 250.772832,60.945797 250.600212,60.7814492 L250.512532,60.7814492 C250.249492,60.6034057 250.164552,60.4335796 249.901512,60.3459274 C249.811092,60.2610144 249.811092,60.2610144 249.726152,60.0911883 C249.550792,59.9131448 249.463112,59.7433187 249.290492,59.5707535 L249.290492,59.4858405 C249.115132,59.3132753 249.027452,58.9654057 248.852092,58.7106666 L245.202412,50.1864927" id="Stroke-7"></path>
                <path d="M338.878063,26.9440045 L336.223003,20.0057871 L329.148323,38.5223088 L343.303163,38.5223088 L341.779723,34.5259175 M328.835963,47.996961 L325.652083,47.996961 L321.366723,59.1917871 C320.580343,61.0872653 318.744543,62.2048305 316.823803,62.2048305 C316.215523,62.2048305 315.689443,62.1199175 315.166103,61.9473523 C312.628863,61.0023523 311.406823,58.2467871 312.280883,55.7487001 L331.595143,5.02274359 C332.378783,3.12178707 334.305003,1.91930881 336.223003,2.00422185 C338.236903,1.91930881 340.075443,3.12178707 340.859083,5.02274359 L360.170603,55.7487001 C361.047403,58.2467871 359.822623,61.0023523 357.290863,61.9473523 C356.855203,62.1199175 356.241443,62.2048305 355.624943,62.2048305 C353.706943,62.2048305 351.868403,61.0872653 351.169703,59.1917871 L346.889823,47.996961 L337.812203,47.996961" id="Stroke-9"></path>
                <path d="M380.751136,42.0066844 L380.751136,33.6715105 L363.006896,9.4712931 C361.349196,7.40598875 361.784856,4.47785832 363.971376,2.92751049 C366.157896,1.37442354 369.128056,1.80720614 370.615876,3.96016267 L385.557096,24.1174235 L400.501056,3.96016267 C402.164236,1.80720614 405.134396,1.37442354 407.230496,2.92751049 C409.329336,4.47785832 409.767736,7.40598875 408.279916,9.4712931 L390.365796,33.6715105 L390.365796,56.9267279 C390.365796,59.5973801 388.264216,61.6626844 385.557096,61.6626844 C383.022596,61.6626844 380.751136,59.5973801 380.751136,56.9267279 L380.751136,50.2350322" id="Stroke-11"></path>
                <path d="M24.76138,26.6987391 L24.70658,14.3452609 C24.70658,7.52756522 19.17452,2 12.35192,2 C5.53206,2 0,7.52756522 0,14.3452609 C0,21.1711739 5.53206,26.6987391 12.35192,26.6987391 L49.33096,26.6987391 C56.15356,26.6987391 61.68562,21.1711739 61.68562,14.3452609 C61.68562,7.52756522 56.15356,2 49.33096,2 C42.5111,2 36.97904,7.52756522 36.97904,14.3452609 L36.97904,18.0047391" id="Stroke-13"></path>
                <path d="M36.92424,37 L36.97904,49.3534783 C36.97904,56.1684348 42.5111,61.7014783 49.3337,61.7014783 C56.15356,61.7014783 61.68562,56.1684348 61.68562,49.3534783 C61.68562,42.5275652 56.15356,37 49.3337,37 L12.35466,37 C5.53206,37 0,42.5275652 0,49.3534783 C0,56.1684348 5.53206,61.7014783 12.35466,61.7014783 C19.17452,61.7014783 24.70658,56.1684348 24.70658,49.3534783 L24.70658,45.694" id="Stroke-15"></path>
            </g>
        </g>
    </g>
</svg>