<?xml version="1.0" encoding="UTF-8"?>
<svg width="415px" height="68px" viewBox="0 0 415 68" version="1.1" xmlns="http://www.w3.org/2000/svg" xmlns:xlink="http://www.w3.org/1999/xlink">
    <!-- Generator: Sketch 39.1 (31720) - http://www.bohemiancoding.com/sketch -->
    <title>Page 1</title>
    <desc>Created with Sketch.</desc>
    <defs></defs>
    <g id="Case-Study" stroke="none" stroke-width="1" fill="none" fill-rule="evenodd" stroke-linecap="round" stroke-linejoin="round">
        <g id="02_Case-Study-Highway" transform="translate(-512.000000, -3226.000000)" stroke="#FFFFFF" stroke-width="5">
            <g id="Concept" transform="translate(0.000000, 2787.000000)">
                <g id="Group-6" transform="translate(315.000000, 80.000000)">
                    <g id="Page-1" transform="translate(199.000000, 362.000000)">
                        <path d="M183.244798,50.699387 L183.244798,57.2733 C183.244798,59.9439522 181.058278,62.0092565 178.351158,62.0092565 C175.641298,62.0092565 173.545198,59.9439522 173.545198,57.2733 L173.545198,6.45695217 C173.545198,3.78903913 175.641298,1.72373478 178.351158,1.72373478 C181.058278,1.72373478 183.244798,3.78903913 183.244798,6.45695217 L183.244798,27.1291696 L205.879938,27.1291696 L205.879938,6.45695217 C205.879938,3.78903913 207.978778,1.72373478 210.688638,1.72373478 C213.398498,1.72373478 215.582278,3.78903913 215.582278,6.45695217 L215.582278,57.2733 C215.582278,59.9439522 213.398498,62.0092565 210.688638,62.0092565 C207.978778,62.0092565 205.879938,59.9439522 205.879938,57.2733 L205.879938,36.6038217 L183.244798,36.6038217 L183.244798,42.3258652" id="Stroke-1"></path>
                        <path d="M89.892176,50.699387 L89.892176,57.2733 C89.892176,59.9439522 87.620716,62.0092565 84.998536,62.0092565 C82.288676,62.0092565 80.189836,59.9439522 80.189836,57.2733 L80.189836,6.45695217 C80.189836,3.78903913 82.288676,1.72373478 84.998536,1.72373478 C87.620716,1.72373478 89.892176,3.78903913 89.892176,6.45695217 L89.892176,42.3258652" id="Stroke-3"></path>
                        <path d="M122.723952,59.3821565 C111.437892,54.605113 103.527512,43.8129391 103.527512,31.0924174 C103.527512,13.781113 118.033072,0.000547826087 135.777312,0.000547826087 C143.205452,0.000547826087 150.285612,2.49863478 155.702592,6.71963478 C157.974052,8.35489565 158.322032,11.5432435 156.664332,13.6934609 C155.001152,15.7587652 151.770692,16.1915478 149.584172,14.4713739 C145.827632,11.6281565 141.018932,9.8175913 135.777312,9.8175913 C129.486272,9.8175913 123.978872,12.143113 120.044232,16.1011565 C115.934232,19.9797652 113.490152,25.2334174 113.490152,31.0924174 C113.490152,36.7733739 115.934232,42.0325043 120.044232,45.9056348 C123.978872,49.8636783 129.486272,52.1919391 135.777312,52.1919391 C140.142132,52.1919391 144.252132,50.8963304 147.751112,48.9186783 L147.751112,37.1212435 L135.248492,37.1212435 C132.541372,37.1212435 130.269912,34.8806348 130.269912,32.2099826 C130.269912,29.4544174 132.541372,27.389113 135.248492,27.389113 L152.466652,27.389113 L152.557072,27.389113 L152.644752,27.389113 C155.439552,27.389113 157.713752,29.4544174 157.713752,32.2099826 L157.713752,51.2442 C157.713752,51.8495478 157.538392,52.1919391 157.450712,52.7041565 C157.363032,52.8822 157.363032,52.967113 157.275352,53.1396783 L157.275352,53.2245913 C157.015052,53.9997652 156.488972,54.6900261 155.614912,55.2898957 C152.861212,57.4017652 149.759532,59.0835913 146.416732,60.2340261 C143.073932,61.3817217 139.490012,62.0089826 135.777312,62.0089826" id="Stroke-5"></path>
                        <path d="M242.507984,42.3803739 L228.161344,8.86985217 C227.196864,6.54433043 228.246284,3.70111304 230.780784,2.75885217 C233.139924,1.72346087 236.025144,2.84376522 236.984144,5.2542 L254.114624,45.1304609 L265.389724,18.6868957 C266.178844,16.7914174 268.014644,15.7587652 269.932644,15.7587652 C271.771184,15.7587652 273.604244,16.7914174 274.478304,18.6868957 L285.750664,45.1304609 L302.796204,5.2542 C303.845624,2.84376522 306.640424,1.72346087 309.174924,2.75885217 C311.531324,3.70111304 312.671164,6.54433043 311.621744,8.86985217 L290.208644,59.0835913 C290.123704,59.3383304 289.948344,59.6862 289.772984,59.8587652 L289.688044,59.9436783 C289.597624,60.1162435 289.427744,60.2860696 289.249644,60.464113 C289.249644,60.6339391 289.159224,60.6339391 289.159224,60.7188522 C288.986604,60.8065043 288.723564,60.9763304 288.550944,61.1543739 L288.460524,61.1543739 C288.200224,61.3187217 288.022124,61.5816783 287.674144,61.6665913 L287.586464,61.6665913 C287.586464,61.6665913 287.501524,61.6665913 287.501524,61.7515043 C287.326164,61.7515043 287.065864,61.8391565 286.800084,61.9240696 L286.627464,61.9240696 C286.367164,62.0089826 286.104124,62.0089826 285.750664,62.0089826 C285.493104,62.0089826 285.230064,62.0089826 284.967024,61.9240696 L284.703984,61.9240696 C284.440944,61.8391565 284.265584,61.7515043 284.092964,61.7515043 C284.005284,61.6665913 284.005284,61.6665913 283.917604,61.6665913 C283.566884,61.5816783 283.306584,61.3187217 283.128484,61.1543739 L283.043544,61.1543739 C282.780504,60.9763304 282.607884,60.8065043 282.432524,60.7188522 C282.344844,60.6339391 282.344844,60.6339391 282.259904,60.464113 C282.172224,60.2860696 281.994124,60.1162435 281.906444,59.9436783 C281.731084,59.9436783 281.731084,59.8587652 281.731084,59.8587652 C281.558464,59.6862 281.470784,59.3383304 281.385844,59.0835913 L269.932644,32.3825478 L258.484924,59.0835913 C258.399984,59.3383304 258.224624,59.6862 258.136944,59.8587652 C258.049264,59.8587652 258.049264,59.9436783 258.049264,59.9436783 C257.873904,60.1162435 257.701284,60.2860696 257.523184,60.464113 C257.523184,60.6339391 257.438244,60.6339391 257.438244,60.7188522 C257.265624,60.8065043 257.087524,60.9763304 256.912164,61.1543739 L256.734064,61.1543739 C256.473764,61.3187217 256.213464,61.5816783 256.035364,61.6665913 L255.950424,61.6665913 C255.950424,61.6665913 255.865484,61.6665913 255.865484,61.7515043 C255.514764,61.7515043 255.339404,61.8391565 255.164044,61.9240696 L254.901004,61.9240696 C254.640704,62.0089826 254.380404,62.0089826 254.114624,62.0089826 C253.857064,62.0089826 253.506344,62.0089826 253.243304,61.9240696 L252.980264,61.9240696 C252.717224,61.8391565 252.544604,61.7515043 252.369244,61.7515043 C252.281564,61.6665913 252.281564,61.6665913 252.191144,61.6665913 C251.930844,61.5816783 251.580124,61.3187217 251.407504,61.1543739 L251.319824,61.1543739 C251.056784,60.9763304 250.971844,60.8065043 250.708804,60.7188522 C250.618384,60.6339391 250.618384,60.6339391 250.533444,60.464113 C250.358084,60.2860696 250.270404,60.1162435 250.097784,59.9436783 L250.097784,59.8587652 C249.922424,59.6862 249.834744,59.3383304 249.659384,59.0835913 L246.009704,50.5594174" id="Stroke-7"></path>
                        <path d="M340.058834,26.7481565 L337.403774,19.8099391 L330.329094,38.3264609 L344.483934,38.3264609 L342.960494,34.3300696 M330.016734,47.801113 L326.832854,47.801113 L322.547494,58.9959391 C321.761114,60.8914174 319.925314,62.0089826 318.004574,62.0089826 C317.396294,62.0089826 316.870214,61.9240696 316.346874,61.7515043 C313.809634,60.8065043 312.587594,58.0509391 313.461654,55.5528522 L332.775914,4.82689565 C333.559554,2.92593913 335.485774,1.72346087 337.403774,1.80837391 C339.417674,1.72346087 341.256214,2.92593913 342.039854,4.82689565 L361.351374,55.5528522 C362.228174,58.0509391 361.003394,60.8065043 358.471634,61.7515043 C358.035974,61.9240696 357.422214,62.0089826 356.805714,62.0089826 C354.887714,62.0089826 353.049174,60.8914174 352.350474,58.9959391 L348.070594,47.801113 L338.992974,47.801113" id="Stroke-9"></path>
                        <path d="M381.80657,42.3535304 L381.80657,34.0183565 L364.06233,9.81813913 C362.40463,7.75283478 362.84029,4.82470435 365.02681,3.27435652 C367.21333,1.72126957 370.18349,2.15405217 371.67131,4.3070087 L386.61253,24.4642696 L401.55649,4.3070087 C403.21967,2.15405217 406.18983,1.72126957 408.28593,3.27435652 C410.38477,4.82470435 410.82317,7.75283478 409.33535,9.81813913 L391.42123,34.0183565 L391.42123,57.2735739 C391.42123,59.9442261 389.31965,62.0095304 386.61253,62.0095304 C384.07803,62.0095304 381.80657,59.9442261 381.80657,57.2735739 L381.80657,50.5818783" id="Stroke-11"></path>
                        <path d="M25.761654,26.8229348 L25.706854,14.4694565 C25.706854,7.65176087 20.174794,2.12419565 13.352194,2.12419565 C6.532334,2.12419565 1.000274,7.65176087 1.000274,14.4694565 C1.000274,21.2953696 6.532334,26.8229348 13.352194,26.8229348 L50.331234,26.8229348 C57.153834,26.8229348 62.685894,21.2953696 62.685894,14.4694565 C62.685894,7.65176087 57.153834,2.12419565 50.331234,2.12419565 C43.511374,2.12419565 37.979314,7.65176087 37.979314,14.4694565 L37.979314,18.1289348" id="Stroke-13"></path>
                        <path d="M37.923144,36.6454565 L37.977944,48.9989348 C37.977944,55.8138913 43.510004,61.3469348 50.332604,61.3469348 C57.152464,61.3469348 62.684524,55.8138913 62.684524,48.9989348 C62.684524,42.1730217 57.152464,36.6454565 50.332604,36.6454565 L13.353564,36.6454565 C6.530964,36.6454565 0.998904,42.1730217 0.998904,48.9989348 C0.998904,55.8138913 6.530964,61.3469348 13.353564,61.3469348 C20.173424,61.3469348 25.705484,55.8138913 25.705484,48.9989348 L25.705484,45.3394565" id="Stroke-15"></path>
                    </g>
                </g>
            </g>
        </g>
    </g>
</svg>