<svg width="415" height="68" viewBox="0 0 415 68" xmlns="http://www.w3.org/2000/svg"><title>Page 1</title><path d="M185.245 53.7v6.573c0 2.671-2.187 4.736-4.894 4.736-2.71 0-4.806-2.065-4.806-4.736V9.457c0-2.668 2.096-4.733 4.806-4.733 2.707 0 4.894 2.065 4.894 4.733v20.672h22.635V9.457c0-2.668 2.099-4.733 4.809-4.733s4.893 2.065 4.893 4.733v50.816c0 2.671-2.184 4.736-4.893 4.736-2.71 0-4.81-2.065-4.81-4.736v-20.67h-22.634v5.723M91.892 53.7v6.573c0 2.671-2.271 4.736-4.893 4.736-2.71 0-4.81-2.065-4.81-4.736V9.457c0-2.668 2.1-4.733 4.81-4.733 2.622 0 4.893 2.065 4.893 4.733v35.869m32.832 17.056c-11.286-4.777-19.196-15.57-19.196-28.29 0-17.31 14.505-31.091 32.25-31.091 7.427 0 14.508 2.498 19.925 6.719 2.271 1.635 2.619 4.823.961 6.973-1.663 2.066-4.893 2.499-7.08.778-3.756-2.843-8.565-4.653-13.807-4.653-6.29 0-11.798 2.325-15.733 6.283-4.11 3.879-6.554 9.132-6.554 14.991 0 5.681 2.444 10.94 6.554 14.814 3.935 3.958 9.442 6.286 15.733 6.286 4.365 0 8.475-1.296 11.974-3.273V40.12h-12.503c-2.707 0-4.978-2.24-4.978-4.911 0-2.756 2.271-4.82 4.978-4.82h17.397c2.795 0 5.069 2.064 5.069 4.82v19.034c0 .606-.176.948-.263 1.46-.088.178-.088.263-.176.436v.085c-.26.775-.786 1.465-1.66 2.065a32.5 32.5 0 0 1-19.838 6.719M244.508 45.38l-14.347-33.51c-.964-2.326.085-5.169 2.62-6.111 2.359-1.036 5.244.085 6.203 2.495l17.13 39.876 11.276-26.443c.789-1.896 2.625-2.928 4.543-2.928a5 5 0 0 1 4.545 2.928l11.273 26.443 17.045-39.876c1.05-2.41 3.844-3.53 6.379-2.495 2.356.942 3.496 3.785 2.447 6.11l-21.413 50.215c-.085.254-.26.602-.436.775l-.085.085c-.09.172-.26.342-.438.52 0 .17-.09.17-.09.255a2.545 2.545 0 0 0-.61.435h-.09c-.26.165-.438.428-.786.513h-.088s-.084 0-.084.085c-.176 0-.436.087-.702.172h-.173c-.26.085-.523.085-.876.085-.258 0-.52 0-.784-.085h-.263c-.263-.085-.438-.172-.611-.172-.088-.085-.088-.085-.175-.085-.351-.085-.611-.348-.79-.513h-.084c-.263-.178-.436-.347-.611-.435-.088-.085-.088-.085-.173-.255-.088-.178-.266-.348-.354-.52-.175 0-.175-.085-.175-.085-.173-.173-.26-.52-.345-.775l-11.453-26.701-11.448 26.7c-.085.255-.26.603-.348.776-.088 0-.088.085-.088.085-.175.172-.348.342-.526.52 0 .17-.085.17-.085.255-.172.088-.35.257-.526.435h-.178c-.26.165-.52.428-.699.513h-.085s-.085 0-.085.085c-.35 0-.526.087-.701.172h-.263c-.26.085-.52.085-.786.085-.258 0-.609 0-.872-.085h-.263c-.263-.085-.435-.172-.61-.172-.088-.085-.088-.085-.179-.085-.26-.085-.61-.348-.783-.513h-.088c-.263-.178-.348-.347-.611-.435-.09-.085-.09-.085-.176-.255-.175-.178-.263-.348-.435-.52v-.085c-.176-.173-.263-.52-.439-.775l-3.65-8.525m94.05-23.811l-2.655-6.938-7.075 18.516h14.155l-1.524-3.996m-12.943 13.471h-3.184l-4.286 11.195c-.786 1.895-2.622 3.013-4.542 3.013a5.142 5.142 0 0 1-1.658-.257c-2.537-.945-3.76-3.701-2.885-6.2l19.314-50.725c.784-1.901 2.71-3.104 4.628-3.019 2.014-.085 3.852 1.118 4.636 3.019l19.311 50.726c.877 2.498-.348 5.254-2.88 6.199-.435.172-1.049.257-1.665.257-1.918 0-3.757-1.118-4.456-3.013L350.07 50.8h-9.077m42.814-5.446v-8.336l-17.745-24.2c-1.657-2.065-1.222-4.993.965-6.544 2.186-1.553 5.156-1.12 6.644 1.033l14.942 20.157 14.943-20.157c1.664-2.153 4.634-2.586 6.73-1.033 2.099 1.55 2.537 4.479 1.05 6.544l-17.915 24.2v23.256c0 2.67-2.101 4.736-4.808 4.736-2.535 0-4.806-2.066-4.806-4.736v-6.692M27.762 29.823l-.055-12.354c0-6.817-5.532-12.345-12.355-12.345C8.532 5.124 3 10.652 3 17.47c0 6.826 5.532 12.354 12.352 12.354h36.98c6.822 0 12.354-5.528 12.354-12.354 0-6.817-5.532-12.345-12.355-12.345-6.82 0-12.352 5.528-12.352 12.345v3.66m-.056 18.515L39.978 52c0 6.815 5.532 12.348 12.355 12.348 6.82 0 12.352-5.533 12.352-12.348 0-6.826-5.533-12.354-12.352-12.354h-36.98C8.532 39.645 3 45.173 3 52c0 6.815 5.532 12.348 12.355 12.348 6.82 0 12.351-5.533 12.351-12.348v-3.66" stroke="#FFF" stroke-width="5" fill="none" stroke-linecap="round" stroke-linejoin="round"/></svg>