<?xml version="1.0" encoding="UTF-8"?>
<svg width="44px" height="44px" viewBox="0 0 44 44" version="1.1" xmlns="http://www.w3.org/2000/svg" xmlns:xlink="http://www.w3.org/1999/xlink">
    <!-- Generator: Sketch 39.1 (31720) - http://www.bohemiancoding.com/sketch -->
    <title>home-services-4</title>
    <desc>Created with Sketch.</desc>
    <defs></defs>
    <g id="HomePage" stroke="none" stroke-width="1" fill="none" fill-rule="evenodd" stroke-linecap="round" stroke-linejoin="round">
        <g id="01_Home-Services-3" transform="translate(-1090.000000, -428.000000)" stroke="#231F20" stroke-width="2">
            <g id="Services" transform="translate(250.000000, 372.000000)">
                <g id="4" transform="translate(784.000000, 0.000000)">
                    <g id="home-services-4" transform="translate(57.000000, 57.000000)">
                        <path d="M25.9141594,3.9289 L37.8071594,15.8219" id="Stroke-4060"></path>
                        <path d="M21.2502594,6.5168 C15.4082594,4.0008 8.37225935,5.1278 3.60125935,9.8998 C2.62225935,10.8788 1.81525935,11.9598 1.14325935,13.0988 L7.99825935,19.9548" id="Stroke-4220"></path>
                        <path d="M35.2194594,20.4228 C37.7984594,26.2868 36.6874594,33.3818 31.8854594,38.1838 C30.9064594,39.1628 29.8254594,39.9698 28.6854594,40.6418 L21.7694594,33.7258" id="Stroke-4222"></path>
                        <path d="M5.01485935,25.456 C5.01485935,25.456 14.6788594,1.415 41.7848594,0 C40.2528594,26.988 16.3288594,36.77 16.3288594,36.77 L5.01485935,25.456 Z" id="Stroke-4224"></path>
                        <path d="M26.2284594,15.5567 C27.7904594,17.1187 27.7904594,19.6517 26.2284594,21.2137 C24.6664594,22.7757 22.1334594,22.7757 20.5714594,21.2137 C19.0094594,19.6517 19.0094594,17.1187 20.5714594,15.5567 C22.1334594,13.9947 24.6664594,13.9947 26.2284594,15.5567 Z" id="Stroke-4226"></path>
                        <path d="M1.21525935,34.9136 C2.77725935,33.3516 5.31025935,33.3516 6.87225935,34.9136 C8.43425935,36.4756 8.43425935,39.0086 6.87225935,40.5706 C5.31025935,42.1326 0.0432593541,41.7416 0.0432593541,41.7416 C0.0432593541,41.7416 -0.346740646,36.4756 1.21525935,34.9136 L1.21525935,34.9136 Z" id="Stroke-4228"></path>
                    </g>
                </g>
            </g>
        </g>
    </g>
</svg>