<?xml version="1.0" encoding="UTF-8"?>
<svg width="46px" height="46px" viewBox="0 0 46 46" version="1.1" xmlns="http://www.w3.org/2000/svg" xmlns:xlink="http://www.w3.org/1999/xlink">
    <!-- Generator: Sketch 39.1 (31720) - http://www.bohemiancoding.com/sketch -->
    <title>home-services-3</title>
    <desc>Created with Sketch.</desc>
    <defs></defs>
    <g id="HomePage" stroke="none" stroke-width="1" fill="none" fill-rule="evenodd" stroke-linecap="round" stroke-linejoin="round">
        <g id="01_Home-Services-3" transform="translate(-828.000000, -427.000000)" stroke="#231F20" stroke-width="2">
            <g id="Services" transform="translate(250.000000, 372.000000)">
                <g id="3" transform="translate(523.000000, 0.000000)">
                    <g id="home-services-3" transform="translate(56.000000, 56.000000)">
                        <path d="M10,4.00075 L10,12.00075" id="Stroke-717"></path>
                        <path d="M38,12.00075 L44,12.00075" id="Stroke-718"></path>
                        <path d="M0,12.00075 L22.828,12.00075" id="Stroke-719"></path>
                        <polyline id="Stroke-720" points="38.575 4.00075 44 4.00075 44 44.00075 0 44.00075 0 4.00075 30.828 4.00075"></polyline>
                        <path d="M23.248,19.58175 L19.248,15.58175 L34,0.82875 C35.105,-0.27625 36.895,-0.27625 38,0.82875 C39.105,1.93375 39.105,3.72375 38,4.82875 L23.248,19.58175 L23.248,19.58175 Z" id="Stroke-721"></path>
                        <path d="M11.65,21.52175 C13.212,19.95975 15.745,19.95975 17.307,21.52175 C18.869,23.08375 18.869,25.61675 17.307,27.17875 C15.745,28.74075 10.236,28.59275 10.236,28.59275 C10.236,28.59275 10.088,23.08375 11.65,21.52175 L11.65,21.52175 Z" id="Stroke-722"></path>
                        <path d="M8,36.00075 L36,36.00075" id="Stroke-723"></path>
                    </g>
                </g>
            </g>
        </g>
    </g>
</svg>