<?xml version="1.0" encoding="UTF-8"?>
<svg width="47px" height="46px" viewBox="0 0 47 46" version="1.1" xmlns="http://www.w3.org/2000/svg" xmlns:xlink="http://www.w3.org/1999/xlink">
    <!-- Generator: Sketch 39.1 (31720) - http://www.bohemiancoding.com/sketch -->
    <title>Group 20</title>
    <desc>Created with Sketch.</desc>
    <defs></defs>
    <g id="Visual-1" stroke="none" stroke-width="1" fill="none" fill-rule="evenodd" stroke-linecap="round" stroke-linejoin="round">
        <g id="02_Case-Study-Portal" transform="translate(-1121.000000, -3658.000000)" stroke="#444444" stroke-width="2">
            <g id="Group-26" transform="translate(218.000000, 3091.000000)">
                <g id="solution" transform="translate(0.000000, 441.000000)">
                    <g id="Group-25" transform="translate(0.000000, 72.000000)">
                        <g id="Group-8-Copy" transform="translate(849.000000, 0.000000)">
                            <g id="Group-10">
                                <g id="Group-20" transform="translate(55.000000, 55.000000)">
                                    <path d="M20,24 L20,24 C14.477,24 10,17.523 10,12 L10,10 C10,4.477 14.477,0 20,0 C25.523,0 30,4.477 30,10 L30,12 C30,17.523 25.523,24 20,24 L20,24 Z" id="Stroke-76"></path>
                                    <path d="M21,29.009 C20.67,29.003 20.337,29 20,29 C13.712,29 8.523,30.098 5.007,31.144 C2.034,32.028 0,34.755 0,37.856 L0,42 L21,42" id="Stroke-77"></path>
                                    <path d="M27.223,32 C28.133,27.992 31.717,25 36,25 C39.534,25 42.527,27.037 44,30" id="Stroke-78"></path>
                                    <polyline id="Stroke-79" points="44 24 44 30 38 30"></polyline>
                                    <path d="M44.777,36 C43.867,40.008 40.283,43 36,43 C32.466,43 29.473,40.963 28,38" id="Stroke-80"></path>
                                    <polyline id="Stroke-81" points="28 44 28 38 34 38"></polyline>
                                </g>
                            </g>
                        </g>
                    </g>
                </g>
            </g>
        </g>
    </g>
</svg>