<?xml version="1.0" encoding="UTF-8"?>
<svg width="54px" height="46px" viewBox="0 0 54 46" version="1.1" xmlns="http://www.w3.org/2000/svg" xmlns:xlink="http://www.w3.org/1999/xlink">
    <!-- Generator: Sketch 39.1 (31720) - http://www.bohemiancoding.com/sketch -->
    <title>Page 1</title>
    <desc>Created with Sketch.</desc>
    <defs></defs>
    <g id="Visual-1" stroke="none" stroke-width="1" fill="none" fill-rule="evenodd" stroke-linecap="round" stroke-linejoin="round">
        <g id="02_Case-Study-Portal" transform="translate(-834.000000, -3658.000000)" stroke="#444444" stroke-width="2">
            <g id="Group-26" transform="translate(218.000000, 3091.000000)">
                <g id="solution" transform="translate(0.000000, 441.000000)">
                    <g id="Group-25" transform="translate(0.000000, 72.000000)">
                        <g id="Group-8" transform="translate(566.000000, 0.000000)">
                            <g id="Group-10">
                                <g id="Page-1" transform="translate(51.000000, 55.000000)">
                                    <path d="M11.6756757,5.86671067 L8.75675676,1.46671067" id="Stroke-1"></path>
                                    <path d="M23.3513514,5.86671067 L26.2702703,1.46671067" id="Stroke-3"></path>
                                    <path d="M0,17.600044 L0,27.8667107" id="Stroke-5"></path>
                                    <path d="M11,36.6667136 L11,44.0000469" id="Stroke-7"></path>
                                    <path d="M5.83783784,16.1333773 L14.6426969,16.1663201" id="Stroke-9"></path>
                                    <path d="M14.6280877,36.6667107 L5.83783784,36.6667107 L5.83783784,16.1333773 C5.83783784,9.653644 11.0656216,4.400044 17.5135135,4.400044 C21.1957443,4.400044 24.4800535,6.11337907 26.6200589,8.78996507" id="Stroke-11"></path>
                                    <path d="M51.5413578,33.290444 C50.5839524,35.3833773 50.1271416,36.317644 48.8924389,38.1671107 C47.1746551,40.7499107 44.7490335,43.9663107 41.7454659,43.9941773 C39.0761146,44.0191107 38.3901686,42.2811107 34.7677903,42.3001773 C31.1454119,42.319244 30.3894148,44.0249773 27.7200635,44.000044 C24.7164959,43.973644 22.4207662,41.0681773 20.7000635,38.4839107 C15.8911445,31.2605773 15.3890905,22.7847107 18.3547121,18.2791107 C20.4621716,15.0759107 23.7882797,13.2029773 26.9144418,13.2029773 C30.0975229,13.2029773 32.0984389,14.924844 34.7313038,14.924844 C37.2853578,14.924844 38.8396822,13.200044 42.5218984,13.200044 C45.3036281,13.200044 48.2517362,14.6945773 50.3518984,17.2773773 C43.470547,21.001244 44.588493,30.6973773 51.5413578,33.290444 L51.5413578,33.290444 Z" id="Stroke-13"></path>
                                    <path d="M40.674608,6.925644 C42.0683918,5.12897733 43.1250404,2.59311067 42.7412026,4.39999999e-05 C40.4644458,0.156977333 37.8038512,1.61191067 36.2495269,3.50831067 C34.8396884,5.22871067 33.6735802,7.78217733 34.1260127,10.2637773 C36.6100134,10.3415107 39.181581,8.85137733 40.674608,6.925644 L40.674608,6.925644 Z" id="Stroke-15"></path>
                                </g>
                            </g>
                        </g>
                    </g>
                </g>
            </g>
        </g>
    </g>
</svg>