<?xml version="1.0" encoding="UTF-8"?>
<svg width="46px" height="44px" viewBox="0 0 46 44" version="1.1" xmlns="http://www.w3.org/2000/svg" xmlns:xlink="http://www.w3.org/1999/xlink">
    <!-- Generator: Sketch 39.1 (31720) - http://www.bohemiancoding.com/sketch -->
    <title>Group 31</title>
    <desc>Created with Sketch.</desc>
    <defs></defs>
    <g id="Visual-1" stroke="none" stroke-width="1" fill="none" fill-rule="evenodd" stroke-linecap="round" stroke-linejoin="round">
        <g id="02_Case-Study-Portal" transform="translate(-272.000000, -3659.000000)" stroke="#231F20" stroke-width="2">
            <g id="Group-26" transform="translate(218.000000, 3091.000000)">
                <g id="solution" transform="translate(0.000000, 441.000000)">
                    <g id="Group-25" transform="translate(0.000000, 72.000000)">
                        <g id="Group-4">
                            <g id="Group-10">
                                <g id="Group-31" transform="translate(55.000000, 56.000000)">
                                    <path d="M28,34 L28,42" id="Stroke-340"></path>
                                    <path d="M16,42 L16,34" id="Stroke-341"></path>
                                    <path d="M10,42 L34,42" id="Stroke-342"></path>
                                    <path d="M40,34 L4,34 C1.791,34 0,32.209 0,30 L0,4 C0,1.791 1.791,0 4,0 L40,0 C42.209,0 44,1.791 44,4 L44,30 C44,32.209 42.209,34 40,34 L40,34 Z" id="Stroke-344"></path>
                                    <path d="M0,26 L44,26" id="Stroke-345"></path>
                                    <path d="M29,21 L15,21 C15,17.686 17.686,15 21,15 L23,15 C26.314,15 29,17.686 29,21 L29,21 Z" id="Stroke-300"></path>
                                    <path d="M22,4 C24.209,4 26,5.791 26,8 C26,10.209 24.209,12 22,12 C19.791,12 18,10.209 18,8 C18,5.791 19.791,4 22,4 L22,4 Z" id="Stroke-301"></path>
                                </g>
                            </g>
                        </g>
                    </g>
                </g>
            </g>
        </g>
    </g>
</svg>