<svg width="54" height="46" viewBox="0 0 54 46" xmlns="http://www.w3.org/2000/svg"><title>Page 1</title><g stroke="#444" stroke-width="2" fill="none" fill-rule="evenodd" stroke-linecap="round" stroke-linejoin="round"><path d="M12.676 6.867l-2.92-4.4m14.595 4.4l2.92-4.4M1 18.6v10.267m11 8.8V45M6.838 17.133l8.805.033m-.015 20.501h-8.79V17.133c0-6.48 5.228-11.733 11.676-11.733a11.63 11.63 0 0 1 9.106 4.39"/><path d="M52.541 34.29c-.957 2.093-1.414 3.028-2.649 4.877-1.717 2.583-4.143 5.8-7.147 5.827-2.669.025-3.355-1.713-6.977-1.694-3.623.02-4.379 1.725-7.048 1.7-3.004-.026-5.3-2.932-7.02-5.516-4.809-7.223-5.31-15.7-2.345-20.205 2.107-3.203 5.433-5.076 8.56-5.076 3.183 0 5.183 1.722 7.816 1.722 2.554 0 4.109-1.725 7.79-1.725 2.783 0 5.73 1.495 7.83 4.077-6.88 3.724-5.763 13.42 1.19 16.013zM41.675 7.926C43.068 6.129 44.125 3.593 43.74 1c-2.277.157-4.937 1.612-6.491 3.508-1.41 1.72-2.576 4.274-2.124 6.756 2.484.078 5.056-1.413 6.549-3.338z"/></g></svg>