<?xml version="1.0" encoding="UTF-8"?>
<svg width="46px" height="44px" viewBox="0 0 46 44" version="1.1" xmlns="http://www.w3.org/2000/svg" xmlns:xlink="http://www.w3.org/1999/xlink">
    <!-- Generator: Sketch 39.1 (31720) - http://www.bohemiancoding.com/sketch -->
    <title>Group 16</title>
    <desc>Created with Sketch.</desc>
    <defs></defs>
    <g id="Visual-1" stroke="none" stroke-width="1" fill="none" fill-rule="evenodd" stroke-linecap="round" stroke-linejoin="round">
        <g id="02_Case-Study-Portal" transform="translate(-555.000000, -3659.000000)" stroke="#444444" stroke-width="2">
            <g id="Group-26" transform="translate(218.000000, 3091.000000)">
                <g id="solution" transform="translate(0.000000, 441.000000)">
                    <g id="Group-25" transform="translate(0.000000, 72.000000)">
                        <g id="Group-5" transform="translate(283.000000, 0.000000)">
                            <g id="Group-10">
                                <g id="Group-16" transform="translate(55.000000, 56.000000)">
                                    <polyline id="Stroke-600" points="38 6 44 6 44 35 17 35"></polyline>
                                    <polyline id="Stroke-601" points="6 35 0 35 0 6 21 6"></polyline>
                                    <path d="M37,20 L22,20 C21.448,20 21,19.552 21,19 L21,1 C21,0.448 21.448,0 22,0 L37,0 C37.552,0 38,0.448 38,1 L38,19 C38,19.552 37.552,20 37,20 L37,20 Z" id="Stroke-602"></path>
                                    <path d="M16,42 L7,42 C6.448,42 6,41.552 6,41 L6,27 C6,26.448 6.448,26 7,26 L16,26 C16.552,26 17,26.448 17,27 L17,41 C17,41.552 16.552,42 16,42 L16,42 Z" id="Stroke-603"></path>
                                    <path d="M21,40 L27,40" id="Stroke-604"></path>
                                    <path d="M11,37 L12,37" id="Stroke-605"></path>
                                    <path d="M28,15 L31,15" id="Stroke-606"></path>
                                </g>
                            </g>
                        </g>
                    </g>
                </g>
            </g>
        </g>
    </g>
</svg>