<svg width="46" height="46" viewBox="0 0 46 46" xmlns="http://www.w3.org/2000/svg"><title>spaceship</title><g transform="translate(1 1)" stroke="#231F20" stroke-width="2" fill="none" fill-rule="evenodd"><path d="M27.87 4.187L39.764 16.08M23.207 6.775c-5.842-2.516-12.878-1.389-17.649 3.383A15.975 15.975 0 0 0 3.1 13.357l6.855 6.855m27.23.492a15.972 15.972 0 0 1-3.343 17.738 15.975 15.975 0 0 1-3.199 2.458l-6.884-6.884"/><path d="M18.285 37.028L6.971 25.714S16.635 1.672 43.741.258c-1.532 26.988-25.456 36.77-25.456 36.77zM0 39a5 5 0 1 1 5 5H0v-5z" stroke-linecap="square"/><circle stroke-linecap="square" cx="25" cy="19" r="4"/></g></svg>