<svg width="46" height="45" viewBox="0 0 46 45" xmlns="http://www.w3.org/2000/svg"><title>b-check</title><g transform="translate(1 2)" stroke="#231F20" stroke-width="2" fill="none" fill-rule="evenodd" stroke-linecap="square"><path d="M16 6l4 4L30 0M18 39.672c0-1.208-.529-2.357-1.476-3.108C15.078 35.416 12.57 34 9 34s-6.078 1.416-7.524 2.564C.529 37.315 0 38.464 0 39.672V42h18v-2.328z"/><circle cx="9" cy="24" r="5"/><path d="M44 39.672c0-1.208-.529-2.357-1.476-3.108C41.078 35.416 38.57 34 35 34s-6.078 1.416-7.524 2.564c-.947.751-1.476 1.9-1.476 3.108V42h18v-2.328z"/><circle cx="35" cy="24" r="5"/></g></svg>