<svg width="284" height="259" viewBox="0 0 284 259" xmlns="http://www.w3.org/2000/svg"><title>Logo</title><g fill="#FFF" fill-rule="evenodd"><path d="M142.01 5.396c3.486 0 3.486-5.396 0-5.396-3.484 0-3.484 5.396 0 5.396"/><path d="M139.159 8.543c2.323 0 2.323-3.597 0-3.597s-2.323 3.597 0 3.597"/><path d="M142.01 7.344c1.163 0 1.163-1.798 0-1.798-1.161 0-1.161 1.798 0 1.798m3.153 1.349c2.323 0 2.323-3.597 0-3.597s-2.323 3.597 0 3.597m-3.303 4.797c3.485 0 3.485-5.396 0-5.396-3.484 0-3.484 5.396 0 5.396"/><path d="M146.214 11.84c1.935 0 1.935-2.997 0-2.997-1.936 0-1.936 2.998 0 2.998m-9.757 1.199c3.097 0 3.097-4.796 0-4.796-3.098 0-3.098 4.796 0 4.796m1.801 3.447c2.323 0 2.323-3.597 0-3.597s-2.323 3.597 0 3.597m4.803 2.249c3.098 0 3.098-4.797 0-4.797-3.097 0-3.097 4.797 0 4.797"/><path d="M146.814 15.588c2.323 0 2.323-3.597 0-3.597s-2.323 3.597 0 3.597m-7.505 3.897c1.548 0 1.548-2.398 0-2.398-1.549 0-1.549 2.398 0 2.398m-5.154.899c3.485 0 3.485-5.396 0-5.396s-3.485 5.396 0 5.396m3.603 3.597c2.71 0 2.71-4.196 0-4.196s-2.71 4.196 0 4.196m4.202-1.998c1.936 0 1.936-2.998 0-2.998-1.935 0-1.935 2.998 0 2.998"/><path d="M142.16 28.778c4.26 0 4.26-6.595 0-6.595-4.259 0-4.259 6.595 0 6.595m5.205-6.096c3.097 0 3.097-4.796 0-4.796-3.098 0-3.098 4.796 0 4.796m2.401-5.395c1.549 0 1.549-2.399 0-2.399-1.548 0-1.548 2.399 0 2.399m2.002 4.196c2.323 0 2.323-3.597 0-3.597s-2.323 3.597 0 3.597m-1.601 4.197c1.548 0 1.548-2.398 0-2.398-1.549 0-1.549 2.398 0 2.398"/><path d="M153.97 26.28c3.097 0 3.097-4.797 0-4.797-3.098 0-3.098 4.797 0 4.797m-2.803 4.196c2.323 0 2.323-3.597 0-3.597s-2.323 3.597 0 3.597"/><path d="M155.77 31.076c3.098 0 3.098-4.796 0-4.796-3.097 0-3.097 4.796 0 4.796m-10.807 2.398c3.097 0 3.097-4.796 0-4.796-3.098 0-3.098 4.796 0 4.796m-5.203-.999c2.322 0 2.322-3.597 0-3.597-2.324 0-2.324 3.597 0 3.597m.6 5.195c3.097 0 3.097-4.795 0-4.795-3.098 0-3.098 4.796 0 4.796m4.603 1.299c2.71 0 2.71-4.197 0-4.197s-2.71 4.197 0 4.197m-3.103 2.248c1.936 0 1.936-2.998 0-2.998-1.935 0-1.935 2.998 0 2.998m3.303 1.199c1.548 0 1.548-2.398 0-2.398-1.549 0-1.549 2.398 0 2.398"/><path d="M139.009 40.918c1.548 0 1.548-2.398 0-2.398-1.549 0-1.549 2.398 0 2.398m1.951 3.148c1.548 0 1.548-2.398 0-2.398s-1.548 2.398 0 2.398m3.002 2.248c2.323 0 2.323-3.597 0-3.597s-2.323 3.597 0 3.597m-4.653.45c1.548 0 1.548-2.398 0-2.398-1.549 0-1.549 2.398 0 2.398"/><path d="M142.16 51.11c3.098 0 3.098-4.796 0-4.796-3.097 0-3.097 4.797 0 4.797m-3.452 2.697c2.323 0 2.323-3.597 0-3.597s-2.323 3.597 0 3.597m3.002-.149c1.162 0 1.162-1.799 0-1.799-1.161 0-1.161 1.799 0 1.799m2.853 1.049c2.323 0 2.323-3.597 0-3.597s-2.323 3.597 0 3.597m-4.803 1.648c1.548 0 1.548-2.398 0-2.398-1.55 0-1.55 2.398 0 2.398m3.452 2.698c2.71 0 2.71-4.196 0-4.196s-2.71 4.196 0 4.196"/><path d="M139.61 60.853c2.322 0 2.322-3.597 0-3.597-2.324 0-2.324 3.597 0 3.597m2.851 1.049c1.549 0 1.549-2.398 0-2.398-1.548 0-1.548 2.398 0 2.398"/><path d="M145.163 62.352c1.548 0 1.548-2.398 0-2.398-1.549 0-1.549 2.398 0 2.398m-4.953 4.496c3.097 0 3.097-4.796 0-4.796-3.098 0-3.098 4.796 0 4.796"/><path d="M144.112 65.5c1.936 0 1.936-2.998 0-2.998s-1.936 2.997 0 2.997m-.15 4.497c2.71 0 2.71-4.197 0-4.197s-2.71 4.197 0 4.197m-4.653.749c1.936 0 1.936-2.997 0-2.997s-1.936 2.997 0 2.997m2.551 1.199c1.162 0 1.162-1.798 0-1.798-1.161 0-1.161 1.798 0 1.798m2.102.15c1.162 0 1.162-1.798 0-1.798s-1.162 1.798 0 1.798m-4.202 2.249c1.935 0 1.935-2.998 0-2.998-1.937 0-1.937 2.998 0 2.998m3.602 3.447c3.485 0 3.485-5.396 0-5.396s-3.485 5.396 0 5.396m-4.003-1.449c1.162 0 1.162-1.799 0-1.799s-1.162 1.799 0 1.799m4.703 4.796c1.936 0 1.936-2.997 0-2.997s-1.936 2.997 0 2.997m-4.503-.999c1.936 0 1.936-2.998 0-2.998s-1.936 2.998 0 2.998"/><path d="M141.36 82.336c1.549 0 1.549-2.398 0-2.398-1.548 0-1.548 2.398 0 2.398m2.002.3c.774 0 .774-1.199 0-1.199-.775 0-.775 1.2 0 1.2m1.101 3.397c1.935 0 1.935-2.998 0-2.998-1.936 0-1.936 2.998 0 2.998"/><path d="M141.96 84.685c1.163 0 1.163-1.799 0-1.799-1.161 0-1.161 1.799 0 1.799m-2.801-.15c1.936 0 1.936-2.998 0-2.998s-1.936 2.998 0 2.998m1.401 5.795c3.485 0 3.485-5.396 0-5.396s-3.485 5.396 0 5.396m4.603-.1c2.323 0 2.323-3.597 0-3.597s-2.323 3.597 0 3.597m-2.402 3.598c2.323 0 2.323-3.598 0-3.598s-2.323 3.598 0 3.598m-3.602 4.496c3.485 0 3.485-5.396 0-5.396s-3.485 5.396 0 5.396m-.401-5.496c1.549 0 1.549-2.398 0-2.398-1.548 0-1.548 2.398 0 2.398"/><path d="M144.162 97.325c1.936 0 1.936-2.998 0-2.998-1.935 0-1.935 2.998 0 2.998m-1 6.195c3.484 0 3.484-5.396 0-5.396-3.485 0-3.485 5.396 0 5.396m-3.402 4.896c3.097 0 3.097-4.796 0-4.796-3.098 0-3.098 4.796 0 4.796"/><path d="M144.162 107.717c1.936 0 1.936-2.998 0-2.998-1.935 0-1.935 2.998 0 2.998m-5.404-5.696c1.549 0 1.549-2.398 0-2.398-1.548 0-1.548 2.398 0 2.398m3.202 13.789c4.647 0 4.647-7.194 0-7.194-4.645 0-4.645 7.195 0 7.195m1.852 5.196c3.098 0 3.098-4.797 0-4.797s-3.098 4.797 0 4.797m-4.653-2.099c1.936 0 1.936-2.998 0-2.998s-1.936 2.998 0 2.998m.801 5.796c2.71 0 2.71-4.197 0-4.197-2.711 0-2.711 4.197 0 4.197m4.703 3.147c3.872 0 3.872-5.995 0-5.995s-3.872 5.995 0 5.995"/><path d="M139.61 130.849c3.484 0 3.484-5.396 0-5.396-3.486 0-3.486 5.396 0 5.396m4.802 1.799c2.71 0 2.71-4.197 0-4.197s-2.71 4.197 0 4.197m6.155.899c4.646 0 4.646-7.195 0-7.195s-4.646 7.195 0 7.195m-8.707 8.693c6.196 0 6.196-9.592 0-9.592-6.195 0-6.195 9.592 0 9.592m9.007.3c5.42 0 5.42-8.394 0-8.394s-5.42 8.394 0 8.394"/><path d="M146.514 149.135c4.646 0 4.646-7.195 0-7.195s-4.646 7.195 0 7.195m-7.055-.75c3.872 0 3.872-5.995 0-5.995s-3.872 5.995 0 5.995"/><path d="M152.968 149.285c3.485 0 3.485-5.396 0-5.396-3.484 0-3.484 5.396 0 5.396m-10.958 3.897c2.711 0 2.711-4.197 0-4.197-2.71 0-2.71 4.197 0 4.197m5.855 2.698c3.872 0 3.872-5.996 0-5.996s-3.872 5.996 0 5.996m5.554-1.949c2.71 0 2.71-4.197 0-4.197s-2.71 4.197 0 4.197m.15 8.993c5.42 0 5.42-8.393 0-8.393s-5.42 8.393 0 8.393m-13.959-4.346c3.097 0 3.097-4.797 0-4.797-3.099 0-3.099 4.797 0 4.797m5.553 5.245c5.033 0 5.033-7.793 0-7.793s-5.033 7.793 0 7.793m-6.154-.599c2.323 0 2.323-3.597 0-3.597s-2.323 3.597 0 3.597m2.101 4.046c2.323 0 2.323-3.596 0-3.596s-2.323 3.597 0 3.597m4.353 2.249c3.485 0 3.485-5.397 0-5.397s-3.485 5.396 0 5.396"/><path d="M150.267 166.222c2.323 0 2.323-3.598 0-3.598s-2.323 3.598 0 3.598m1.2 7.644c4.646 0 4.646-7.195 0-7.195s-4.646 7.195 0 7.195m5.554-5.396c3.872 0 3.872-5.995 0-5.995s-3.872 5.995 0 5.995"/><path d="M157.472 172.517c1.935 0 1.935-2.998 0-2.998-1.936 0-1.936 2.998 0 2.998m3.602-1.499c2.323 0 2.323-3.597 0-3.597s-2.323 3.597 0 3.597m2.102-3.748c2.71 0 2.71-4.196 0-4.196s-2.71 4.197 0 4.197m-24.167 4.796c2.71 0 2.71-4.197 0-4.197s-2.71 4.197 0 4.197m4.578 2.773c3.485 0 3.485-5.396 0-5.396s-3.485 5.396 0 5.396m6.079 4.571c3.098 0 3.098-4.796 0-4.796-3.097 0-3.097 4.796 0 4.796m6.304-1.199c3.485 0 3.485-5.395 0-5.395-3.484 0-3.484 5.395 0 5.395m5.705-1.648c2.71 0 2.71-4.197 0-4.197s-2.71 4.197 0 4.197m4.353-2.998c3.485 0 3.485-5.396 0-5.396s-3.485 5.396 0 5.396m-11.858 9.143c2.71 0 2.71-4.197 0-4.197-2.711 0-2.711 4.197 0 4.197m3.902-1.649c1.936 0 1.936-2.998 0-2.998s-1.936 2.998 0 2.998"/><path d="M162.725 181.66c3.098 0 3.098-4.797 0-4.797-3.097 0-3.097 4.797 0 4.797"/><path d="M168.58 180.61c4.646 0 4.646-7.194 0-7.194-4.647 0-4.647 7.195 0 7.195m-8.256 7.794c4.259 0 4.259-6.595 0-6.595-4.26 0-4.26 6.595 0 6.595m5.704-3.448c2.323 0 2.323-3.597 0-3.597s-2.323 3.597 0 3.597m.15 5.396c3.097 0 3.097-4.796 0-4.796-3.098 0-3.098 4.796 0 4.796m5.704 3.447c4.26 0 4.26-6.595 0-6.595s-4.26 6.595 0 6.595"/><path d="M169.93 184.208c1.936 0 1.936-2.998 0-2.998-1.935 0-1.935 2.998 0 2.998m3.153 2.548c1.935 0 1.935-2.998 0-2.998-1.936 0-1.936 2.998 0 2.998"/><path d="M174.784 183.858c3.485 0 3.485-5.396 0-5.396s-3.485 5.396 0 5.396m2.602 5.296c3.097 0 3.097-4.796 0-4.796-3.098 0-3.098 4.796 0 4.796"/><path d="M179.987 184.458c2.71 0 2.71-4.197 0-4.197s-2.71 4.197 0 4.197m-2.001 10.092c3.098 0 3.098-4.797 0-4.797-3.097 0-3.097 4.797 0 4.797"/><path d="M179.987 199.846c3.485 0 3.485-5.396 0-5.396-3.484 0-3.484 5.396 0 5.396"/><path d="M182.79 195.05c2.71 0 2.71-4.197 0-4.197s-2.71 4.196 0 4.196m3.602 5.196c3.485 0 3.485-5.395 0-5.395s-3.485 5.395 0 5.395m2.001 5.596c3.485 0 3.485-5.396 0-5.396-3.484 0-3.484 5.396 0 5.396"/><path d="M191.596 201.045c2.71 0 2.71-4.197 0-4.197s-2.71 4.197 0 4.197m2.001 5.495c3.098 0 3.098-4.796 0-4.796-3.097 0-3.097 4.797 0 4.797"/><path d="M195.398 201.444c1.936 0 1.936-2.997 0-2.997-1.935 0-1.935 2.997 0 2.997m2.802 3.498c2.323 0 2.323-3.597 0-3.597s-2.323 3.597 0 3.597m-.4 4.396c2.323 0 2.323-3.597 0-3.597s-2.323 3.597 0 3.597"/><path d="M201.803 207.74c3.097 0 3.097-4.797 0-4.797-3.098 0-3.098 4.797 0 4.797m-.2 4.996c3.097 0 3.097-4.797 0-4.797-3.098 0-3.098 4.797 0 4.797m-50.436-87.133c3.872 0 3.872-5.995 0-5.995s-3.872 5.995 0 5.995m-2.401-6.895c2.71 0 2.71-4.196 0-4.196s-2.71 4.196 0 4.196m4.503-.299c1.935 0 1.935-2.998 0-2.998-1.936 0-1.936 2.998 0 2.998m-1.201-3.598c3.097 0 3.097-4.796 0-4.796-3.098 0-3.098 4.796 0 4.796m-1.801-5.395c2.323 0 2.323-3.598 0-3.598s-2.323 3.598 0 3.598"/><path d="M154.77 108.816c3.097 0 3.097-4.796 0-4.796-3.098 0-3.098 4.796 0 4.796"/><path d="M151.467 104.919c3.098 0 3.098-4.796 0-4.796-3.097 0-3.097 4.796 0 4.796"/><path d="M154.77 100.722c3.872 0 3.872-5.995 0-5.995s-3.872 5.995 0 5.995m0-6.894c5.033 0 5.033-7.794 0-7.794-5.034 0-5.034 7.794 0 7.794m0-8.394c3.485 0 3.485-5.396 0-5.396s-3.485 5.396 0 5.396m4.803 0c1.936 0 1.936-2.998 0-2.998s-1.936 2.998 0 2.998m.3-4.197c3.872 0 3.872-5.995 0-5.995s-3.872 5.995 0 5.995m-5.403-3.297c3.872 0 3.872-5.996 0-5.996-3.873 0-3.873 5.996 0 5.996m5.103-5.396c5.033 0 5.033-7.794 0-7.794s-5.033 7.794 0 7.794m-3.002-8.994c4.26 0 4.26-6.594 0-6.594s-4.26 6.595 0 6.595"/><path d="M162.875 64.15c3.485 0 3.485-5.395 0-5.395-3.484 0-3.484 5.395 0 5.395m-2.101-6.894c5.033 0 5.033-7.794 0-7.794s-5.033 7.794 0 7.794m-.6-8.993c3.872 0 3.872-5.996 0-5.996-3.873 0-3.873 5.996 0 5.996m-6.004-11.991c3.097 0 3.097-4.796 0-4.796-3.098 0-3.098 4.796 0 4.796m5.703 1.498c3.872 0 3.872-5.995 0-5.995s-3.872 5.996 0 5.996"/><path d="M156.27 42.867c3.486 0 3.486-5.396 0-5.396-3.484 0-3.484 5.396 0 5.396m6.605-.6c3.098 0 3.098-4.796 0-4.796-3.097 0-3.097 4.796 0 4.796m2.102 2.998c1.548 0 1.548-2.398 0-2.398-1.549 0-1.549 2.398 0 2.398m.3 5.395c3.098 0 3.098-4.795 0-4.795-3.097 0-3.097 4.796 0 4.796m1.201 3.597c1.936 0 1.936-2.998 0-2.998s-1.936 2.998 0 2.998m1.802 5.696c3.484 0 3.484-5.396 0-5.396-3.486 0-3.486 5.396 0 5.396m1.8-6.895c2.324 0 2.324-3.597 0-3.597-2.323 0-2.323 3.597 0 3.597m3.003 5.096c2.323 0 2.323-3.597 0-3.597s-2.323 3.597 0 3.597m-.901 7.795c3.485 0 3.485-5.397 0-5.397s-3.485 5.396 0 5.396m6.004 3.897c3.872 0 3.872-5.995 0-5.995s-3.872 5.995 0 5.995m-4.803 5.196c3.872 0 3.872-5.995 0-5.995s-3.872 5.995 0 5.995"/><path d="M179.787 79.139c5.034 0 5.034-7.794 0-7.794-5.033 0-5.033 7.794 0 7.794m-7.205 2.398c3.485 0 3.485-5.396 0-5.396s-3.485 5.396 0 5.396m2.802 3.797c2.71 0 2.71-4.197 0-4.197s-2.71 4.197 0 4.197"/><path d="M170.781 92.229c5.42 0 5.42-8.394 0-8.394s-5.42 8.394 0 8.394m.2 6.395c3.872 0 3.872-5.996 0-5.996s-3.872 5.996 0 5.996m-5.103-2.398c3.097 0 3.097-4.797 0-4.797-3.098 0-3.098 4.797 0 4.797m-.301 4.196c2.323 0 2.323-3.597 0-3.597s-2.323 3.597 0 3.597m3.903 2.698c2.71 0 2.71-4.196 0-4.196s-2.71 4.196 0 4.196m-5.404 3.298c3.872 0 3.872-5.996 0-5.996s-3.872 5.996 0 5.996m4.804.3c1.935 0 1.935-2.998 0-2.998-1.936 0-1.936 2.998 0 2.998m-2.852 3.597c2.323 0 2.323-3.597 0-3.597s-2.323 3.597 0 3.597m-4.504-.75c1.936 0 1.936-2.997 0-2.997-1.935 0-1.935 2.997 0 2.997m1.502 2.998c1.935 0 1.935-2.998 0-2.998-1.936 0-1.936 2.998 0 2.998m1.801 4.797c3.097 0 3.097-4.797 0-4.797-3.098 0-3.098 4.796 0 4.796m-4.653-1.799c2.323 0 2.323-3.596 0-3.596s-2.323 3.597 0 3.597m.3 3.897c2.323 0 2.323-3.597 0-3.597s-2.323 3.597 0 3.597m-3.303 2.398c2.323 0 2.323-3.597 0-3.597s-2.323 3.597 0 3.597m4.053 3.147c3.098 0 3.098-4.796 0-4.796-3.097 0-3.097 4.796 0 4.796m-5.104 3.148c3.098 0 3.098-4.796 0-4.796-3.097 0-3.097 4.796 0 4.796m.901 7.944c3.872 0 3.872-5.995 0-5.995s-3.872 5.995 0 5.995m3.153-6.745c1.935 0 1.935-2.998 0-2.998-1.936 0-1.936 2.998 0 2.998m-.801 23.232c3.872 0 3.872-5.995 0-5.995s-3.872 5.995 0 5.995m0-6.795c3.872 0 3.872-5.995 0-5.995s-3.872 5.995 0 5.995m4.403 1.899c2.71 0 2.71-4.197 0-4.197s-2.71 4.197 0 4.197m.801-4.496c2.323 0 2.323-3.598 0-3.598s-2.323 3.597 0 3.597"/><path d="M162.175 140.092c1.936 0 1.936-2.998 0-2.998s-1.936 2.998 0 2.998m3.202-.999c1.936 0 1.936-2.998 0-2.998s-1.936 2.998 0 2.998m.2-3.298c3.098 0 3.098-4.796 0-4.796-3.097 0-3.097 4.796 0 4.796m3.803 3.597c3.098 0 3.098-4.796 0-4.796s-3.098 4.796 0 4.796m1.801-5.096c4.26 0 4.26-6.595 0-6.595s-4.26 6.595 0 6.595m.401-7.194c2.71 0 2.71-4.197 0-4.197s-2.71 4.197 0 4.197m3.802 1.998c1.936 0 1.936-2.997 0-2.997-1.935 0-1.935 2.997 0 2.997m1.001-3.197c3.485 0 3.485-5.396 0-5.396s-3.485 5.396 0 5.396m1.201-5.596c3.485 0 3.485-5.396 0-5.396s-3.485 5.396 0 5.396"/><path d="M180.788 123.205c2.323 0 2.323-3.597 0-3.597s-2.323 3.597 0 3.597m2.602-3.697c3.485 0 3.485-5.396 0-5.396s-3.485 5.396 0 5.396m-3.603-4.297c2.323 0 2.323-3.597 0-3.597s-2.323 3.597 0 3.597m4.203-1.799c3.098 0 3.098-4.796 0-4.796-3.097 0-3.097 4.796 0 4.796m1.401-4.796c3.872 0 3.872-5.995 0-5.995s-3.872 5.995 0 5.995"/><path d="M189.394 112.613c3.098 0 3.098-4.796 0-4.796-3.097 0-3.097 4.796 0 4.796m1.601-4.996c2.323 0 2.323-3.597 0-3.597s-2.323 3.597 0 3.597m-2.001-4.197c1.548 0 1.548-2.398 0-2.398-1.549 0-1.549 2.398 0 2.398m4.603.6c3.872 0 3.872-5.996 0-5.996s-3.872 5.996 0 5.996m-4.603-4.397c3.097 0 3.097-4.796 0-4.796-3.098 0-3.098 4.796 0 4.796m4.403-2.198c2.323 0 2.323-3.597 0-3.597s-2.323 3.597 0 3.597m-2.402-3.398c3.098 0 3.098-4.796 0-4.796-3.097 0-3.097 4.796 0 4.796"/><path d="M186.392 94.427c2.323 0 2.323-3.597 0-3.597s-2.323 3.597 0 3.597"/><path d="M184.59 90.93c3.486 0 3.486-5.396 0-5.396-3.484 0-3.484 5.396 0 5.396m4.804-1.699c2.323 0 2.323-3.597 0-3.597s-2.323 3.597 0 3.597m-3.202-4.097c3.485 0 3.485-5.396 0-5.396s-3.485 5.396 0 5.396m-5.004-1.399c2.71 0 2.71-4.196 0-4.196s-2.71 4.196 0 4.196m3.602-4.196c1.937 0 1.937-2.998 0-2.998-1.935 0-1.935 2.998 0 2.998m10.808 29.477c3.098 0 3.098-4.796 0-4.796-3.097 0-3.097 4.796 0 4.796m2.802-4.696c1.936 0 1.936-2.998 0-2.998-1.935 0-1.935 2.997 0 2.997m1.802 4.097c2.323 0 2.323-3.597 0-3.597s-2.323 3.597 0 3.597"/><path d="M198.4 115.31c4.26 0 4.26-6.594 0-6.594-4.259 0-4.259 6.595 0 6.595m5.604-.001c2.71 0 2.71-4.196 0-4.196s-2.71 4.197 0 4.197m-2.802 4.097c2.324 0 2.324-3.597 0-3.597-2.323 0-2.323 3.597 0 3.597m4.804 1.099c3.485 0 3.485-5.396 0-5.396s-3.485 5.396 0 5.396"/><path d="M202.403 124.404c3.098 0 3.098-4.796 0-4.796-3.097 0-3.097 4.796 0 4.796m5.404 2.598c3.872 0 3.872-5.995 0-5.995s-3.872 5.995 0 5.995m-5.404 2.598c3.098 0 3.098-4.796 0-4.796-3.097 0-3.097 4.796 0 4.796m6.005 4.297c4.259 0 4.259-6.595 0-6.595-4.26 0-4.26 6.595 0 6.595m4.002-5.796c1.936 0 1.936-2.998 0-2.998-1.935 0-1.935 2.998 0 2.998m-50.835 34.873c3.872 0 3.872-5.995 0-5.995-3.873 0-3.873 5.995 0 5.995m-2.402-6.095c1.936 0 1.936-2.998 0-2.998s-1.936 2.998 0 2.998m4.003-.2c2.71 0 2.71-4.197 0-4.197s-2.71 4.197 0 4.197m3.202 2.598c1.936 0 1.936-2.998 0-2.998s-1.936 2.998 0 2.998"/><path d="M168.98 156.28c4.26 0 4.26-6.596 0-6.596s-4.26 6.595 0 6.595"/><path d="M172.182 149.984c3.098 0 3.098-4.796 0-4.796s-3.098 4.796 0 4.796m2.001 3.298c1.936 0 1.936-2.998 0-2.998-1.935 0-1.935 2.998 0 2.998"/><path d="M177.786 151.583c3.872 0 3.872-5.995 0-5.995s-3.872 5.995 0 5.995m-2.402-5.895c2.71 0 2.71-4.197 0-4.197s-2.71 4.196 0 4.196"/><path d="M179.187 144.988c1.548 0 1.548-2.398 0-2.398-1.549 0-1.549 2.398 0 2.398m3.603 2.698c2.71 0 2.71-4.197 0-4.197s-2.71 4.197 0 4.197"/><path d="M181.389 142.89c2.71 0 2.71-4.197 0-4.197s-2.71 4.197 0 4.197"/><path d="M184.79 143.19c1.55 0 1.55-2.399 0-2.399-1.548 0-1.548 2.398 0 2.398m2.403 2.698c1.935 0 1.935-2.997 0-2.997-1.936 0-1.936 2.997 0 2.997"/><path d="M188.193 141.89c4.26 0 4.26-6.594 0-6.594s-4.26 6.594 0 6.594m5.404-1.099c2.323 0 2.323-3.597 0-3.597s-2.323 3.597 0 3.597m-.6-4.396c3.097 0 3.097-4.797 0-4.797-3.098 0-3.098 4.797 0 4.797m4.403 1.299c1.936 0 1.936-2.998 0-2.998s-1.936 2.998 0 2.998"/><path d="M200.402 135.595c3.872 0 3.872-5.995 0-5.995s-3.872 5.995 0 5.995m-4.603-3.497c1.935 0 1.935-2.998 0-2.998-1.936 0-1.936 2.998 0 2.998m17.812 1.099c2.323 0 2.323-3.597 0-3.597s-2.323 3.597 0 3.597m-1.601 5.696c3.485 0 3.485-5.396 0-5.396s-3.485 5.396 0 5.396"/><path d="M216.813 138.093c2.71 0 2.71-4.196 0-4.196s-2.71 4.196 0 4.196m-2.401 3.397c1.936 0 1.936-2.997 0-2.997s-1.936 2.998 0 2.998m4.203 1.999c3.485 0 3.485-5.397 0-5.397s-3.485 5.396 0 5.396m-3.803 1.599c1.936 0 1.936-2.998 0-2.998s-1.936 2.998 0 2.998"/><path d="M218.014 148.785c3.098 0 3.098-4.796 0-4.796-3.097 0-3.097 4.796 0 4.796m4.403-.799c2.323 0 2.323-3.598 0-3.598s-2.323 3.598 0 3.598m-54.438 18.086c3.485 0 3.485-5.396 0-5.396s-3.485 5.396 0 5.396m3.202 1.698c1.549 0 1.549-2.398 0-2.398-1.548 0-1.548 2.398 0 2.398"/><path d="M172.582 164.973c1.549 0 1.549-2.399 0-2.399-1.548 0-1.548 2.399 0 2.399m.601-2.498c2.71 0 2.71-4.197 0-4.197s-2.71 4.197 0 4.197m2.602 4.795c2.71 0 2.71-4.196 0-4.196s-2.71 4.197 0 4.197"/><path d="M176.585 162.574c1.549 0 1.549-2.398 0-2.398-1.548 0-1.548 2.398 0 2.398m4.203 3.398c3.872 0 3.872-5.996 0-5.996s-3.872 5.996 0 5.996m.4-6.595c2.323 0 2.323-3.597 0-3.597s-2.323 3.597 0 3.597"/><path d="M185.391 161.375c3.098 0 3.098-4.796 0-4.796-3.097 0-3.097 4.796 0 4.796m.601 2.998c1.548 0 1.548-2.398 0-2.398-1.549 0-1.549 2.398 0 2.398m4.003-1.099c2.71 0 2.71-4.197 0-4.197s-2.71 4.197 0 4.197"/><path d="M189.594 158.677c2.71 0 2.71-4.196 0-4.196s-2.71 4.196 0 4.196m5.204 3.098c3.872 0 3.872-5.995 0-5.995s-3.872 5.995 0 5.995"/><path d="M198 156.18c2.323 0 2.323-3.598 0-3.598s-2.323 3.597 0 3.597"/><path d="M200.802 160.776c3.098 0 3.098-4.796 0-4.796-3.097 0-3.097 4.796 0 4.796m.801-5.196c1.548 0 1.548-2.398 0-2.398-1.549 0-1.549 2.398 0 2.398m3.402.4c2.323 0 2.323-3.598 0-3.598s-2.323 3.598 0 3.598m.4 3.996c2.323 0 2.323-3.597 0-3.597s-2.323 3.597 0 3.597"/><path d="M210.009 158.078c3.484 0 3.484-5.396 0-5.396-3.485 0-3.485 5.396 0 5.396m1.401-5.596c1.935 0 1.935-2.997 0-2.997-1.936 0-1.936 2.997 0 2.997"/><path d="M215.212 152.982c3.098 0 3.098-4.796 0-4.796-3.097 0-3.097 4.796 0 4.796m0 4.197c2.323 0 2.323-3.598 0-3.598s-2.323 3.598 0 3.598m5.404-2.899c3.485 0 3.485-5.395 0-5.395s-3.485 5.396 0 5.396m5.404 1.399c3.485 0 3.485-5.396 0-5.396s-3.485 5.396 0 5.396m-3.603 1.998c1.936 0 1.936-2.997 0-2.997-1.935 0-1.935 2.997 0 2.997m3.803 4.097c3.872 0 3.872-5.995 0-5.995s-3.872 5.995 0 5.995m1 5.595c3.098 0 3.098-4.796 0-4.796-3.097 0-3.097 4.797 0 4.797m3.203-4.497c1.936 0 1.936-2.997 0-2.997s-1.936 2.997 0 2.997m1.801 4.596c2.71 0 2.71-4.196 0-4.196s-2.71 4.197 0 4.197"/><path d="M229.422 173.366c3.872 0 3.872-5.995 0-5.995s-3.872 5.995 0 5.995"/><path d="M235.226 172.567c3.098 0 3.098-4.797 0-4.797-3.097 0-3.097 4.797 0 4.797m1.201 6.894c4.26 0 4.26-6.595 0-6.595s-4.26 6.595 0 6.595m-6.004-1.898c2.323 0 2.323-3.597 0-3.597s-2.323 3.597 0 3.597"/><path d="M231.424 183.059c3.485 0 3.485-5.396 0-5.396s-3.485 5.396 0 5.396m-6.604-2.399c4.258 0 4.258-6.594 0-6.594-4.26 0-4.26 6.594 0 6.594m2.6 2.499c1.55 0 1.55-2.399 0-2.399-1.548 0-1.548 2.399 0 2.399m-55.238-9.493c2.71 0 2.71-4.197 0-4.197s-2.71 4.197 0 4.197m2.402 3.797c2.71 0 2.71-4.197 0-4.197s-2.71 4.197 0 4.197"/><path d="M176.385 173.266c1.936 0 1.936-2.997 0-2.997s-1.936 2.997 0 2.997m3.202 5.196c3.485 0 3.485-5.396 0-5.396s-3.485 5.396 0 5.396m5.604-2.398c3.485 0 3.485-5.396 0-5.396s-3.485 5.396 0 5.396m-4.803-3.297c2.323 0 2.323-3.598 0-3.598s-2.323 3.598 0 3.598m3.602 6.395c1.549 0 1.549-2.399 0-2.399-1.548 0-1.548 2.399 0 2.399m4.003.399c2.323 0 2.323-3.597 0-3.597s-2.323 3.597 0 3.597m3.603-2.997c3.872 0 3.872-5.996 0-5.996s-3.872 5.996 0 5.996m2.401 4.096c2.71 0 2.71-4.196 0-4.196s-2.71 4.196 0 4.196m3.003-4.196c2.71 0 2.71-4.197 0-4.197s-2.71 4.197 0 4.197m1.2 2.698c1.549 0 1.549-2.399 0-2.399-1.548 0-1.548 2.399 0 2.399m4.203-1.899c3.485 0 3.485-5.396 0-5.396s-3.485 5.396 0 5.396m-1.401 2.698c1.549 0 1.549-2.398 0-2.398-1.548 0-1.548 2.398 0 2.398"/><path d="M207.007 180.46c3.484 0 3.484-5.395 0-5.395-3.485 0-3.485 5.396 0 5.396m3.803-4.097c2.322 0 2.322-3.597 0-3.597-2.324 0-2.324 3.597 0 3.597m1.8 4.396c2.324 0 2.324-3.597 0-3.597-2.323 0-2.323 3.597 0 3.597m1.802-4.096c1.936 0 1.936-2.998 0-2.998s-1.936 2.998 0 2.998"/><path d="M218.415 182.36c3.872 0 3.872-5.996 0-5.996-3.873 0-3.873 5.995 0 5.995m-.401-6.195c1.549 0 1.549-2.398 0-2.398-1.548 0-1.548 2.398 0 2.398m17.963 6.395c1.548 0 1.548-2.398 0-2.398-1.549 0-1.549 2.398 0 2.398m4.203.749c2.71 0 2.71-4.196 0-4.196s-2.71 4.196 0 4.196m-58.691 4.947c1.935 0 1.935-2.998 0-2.998-1.936 0-1.936 2.998 0 2.998m2.401-2.848c1.936 0 1.936-2.998 0-2.998s-1.936 2.998 0 2.998"/><path d="M185.541 190.653c3.098 0 3.098-4.797 0-4.797-3.097 0-3.097 4.797 0 4.797"/><path d="M187.493 186.156c1.936 0 1.936-2.997 0-2.997s-1.936 2.997 0 2.997m3.002 2.848c2.71 0 2.71-4.197 0-4.197s-2.71 4.197 0 4.197m-.901 3.148c1.936 0 1.936-2.998 0-2.998s-1.936 2.998 0 2.998"/><path d="M193.647 193.2c3.098 0 3.098-4.795 0-4.795-3.097 0-3.097 4.796 0 4.796"/><path d="M196.95 189.604c2.322 0 2.322-3.598 0-3.598-2.324 0-2.324 3.598 0 3.598m.6 2.847c1.548 0 1.548-2.398 0-2.398-1.549 0-1.549 2.398 0 2.398m1.2 3.598c2.324 0 2.324-3.598 0-3.598-2.322 0-2.322 3.598 0 3.598"/><path d="M201.002 192.601c3.098 0 3.098-4.796 0-4.796-3.097 0-3.097 4.796 0 4.796m1.802 3.747c2.323 0 2.323-3.597 0-3.597s-2.323 3.597 0 3.597"/><path d="M206.856 194.85c3.485 0 3.485-5.396 0-5.396-3.484 0-3.484 5.396 0 5.396m-.6 3.297c1.936 0 1.936-2.998 0-2.998s-1.936 2.998 0 2.998m5.154 1.399c4.26 0 4.26-6.595 0-6.595s-4.26 6.595 0 6.595m3.702 2.498c1.936 0 1.936-2.998 0-2.998s-1.936 2.998 0 2.998m1.801-3.297c2.71 0 2.71-4.197 0-4.197s-2.71 4.197 0 4.197m3.303 4.896c3.485 0 3.485-5.396 0-5.396s-3.485 5.396 0 5.396m3.602-4.397c1.936 0 1.936-2.998 0-2.998-1.935 0-1.935 2.998 0 2.998"/><path d="M225.92 204.442c3.097 0 3.097-4.796 0-4.796-3.098 0-3.098 4.796 0 4.796"/><path d="M230.123 202.194c2.323 0 2.323-3.597 0-3.597s-2.323 3.597 0 3.597m-.901 3.147c1.549 0 1.549-2.398 0-2.398-1.548 0-1.548 2.398 0 2.398"/><path d="M231.624 204.442c1.548 0 1.548-2.398 0-2.398-1.549 0-1.549 2.398 0 2.398m.15 3.898c2.323 0 2.323-3.598 0-3.598s-2.323 3.597 0 3.597m4.203-1.799c3.485 0 3.485-5.395 0-5.395s-3.485 5.396 0 5.396m1.651 4.496c2.71 0 2.71-4.197 0-4.197s-2.71 4.197 0 4.197m3.152-3.897c2.71 0 2.71-4.197 0-4.197s-2.71 4.197 0 4.197m2.552 5.396c3.485 0 3.485-5.396 0-5.396s-3.485 5.396 0 5.396m1.651-5.696c2.323 0 2.323-3.597 0-3.597s-2.323 3.597 0 3.597"/><path d="M246.935 209.238c1.548 0 1.548-2.398 0-2.398-1.549 0-1.549 2.398 0 2.398m2.401 5.096c3.485 0 3.485-5.395 0-5.395s-3.485 5.395 0 5.395m1.051-6.894c4.26 0 4.26-6.595 0-6.595s-4.26 6.595 0 6.595"/><path d="M253.69 211.037c2.71 0 2.71-4.197 0-4.197s-2.71 4.197 0 4.197m1.65-4.347c1.936 0 1.936-2.997 0-2.997-1.935 0-1.935 2.997 0 2.997m-9.306-4.346c2.71 0 2.71-4.197 0-4.197s-2.71 4.197 0 4.197"/><path d="M250.237 200.395c3.485 0 3.485-5.396 0-5.396s-3.485 5.396 0 5.396m-5.854-2.698c4.26 0 4.26-6.595 0-6.595s-4.26 6.595 0 6.595"/><path d="M249.186 194.85c1.549 0 1.549-2.399 0-2.399-1.548 0-1.548 2.399 0 2.399m-3.602-4.047c2.323 0 2.323-3.598 0-3.598s-2.323 3.598 0 3.598m-5.254 1.049c3.098 0 3.098-4.796 0-4.796s-3.098 4.796 0 4.796"/><path d="M243.032 187.205c2.323 0 2.323-3.597 0-3.597s-2.323 3.597 0 3.597m-4.803-.299c2.71 0 2.71-4.197 0-4.197s-2.71 4.197 0 4.197m15.311 28.328c1.935 0 1.935-2.998 0-2.998-1.936 0-1.936 2.998 0 2.998"/><path d="M258.042 215.234c3.873 0 3.873-5.996 0-5.996-3.872 0-3.872 5.996 0 5.996m-2.702 4.046c2.324 0 2.324-3.597 0-3.597-2.322 0-2.322 3.598 0 3.598m4.804 1.349c3.485 0 3.485-5.396 0-5.396s-3.485 5.396 0 5.396m-3.452 1.648c1.548 0 1.548-2.398 0-2.398-1.549 0-1.549 2.398 0 2.398m2.701 2.399c2.323 0 2.323-3.598 0-3.598s-2.323 3.598 0 3.598m3.903-1.05c2.323 0 2.323-3.597 0-3.597s-2.323 3.597 0 3.597"/><path d="M262.396 227.225c2.323 0 2.323-3.598 0-3.598-2.324 0-2.324 3.598 0 3.598m-57.491-18.286c1.549 0 1.549-2.398 0-2.398-1.548 0-1.548 2.398 0 2.398m4.203 3.747c3.872 0 3.872-5.996 0-5.996s-3.872 5.996 0 5.996m-3.603.749c1.549 0 1.549-2.398 0-2.398-1.548 0-1.548 2.398 0 2.398m3.003 2.248c1.548 0 1.548-2.398 0-2.398-1.549 0-1.549 2.398 0 2.398m3.452.9c2.323 0 2.323-3.597 0-3.597s-2.323 3.597 0 3.597"/><path d="M213.461 212.986c1.549 0 1.549-2.399 0-2.399-1.548 0-1.548 2.399 0 2.399m3.753 5.245c4.26 0 4.26-6.594 0-6.594s-4.26 6.594 0 6.594m.6 3.448c1.936 0 1.936-2.998 0-2.998s-1.936 2.998 0 2.998m4.503-.749c3.098 0 3.098-4.797 0-4.797-3.097 0-3.097 4.796 0 4.796m-.75 2.848c1.548 0 1.548-2.398 0-2.398-1.549 0-1.549 2.398 0 2.398"/><path d="M225.77 225.126c3.097 0 3.097-4.796 0-4.796-3.098 0-3.098 4.796 0 4.796m.45-5.096c1.936 0 1.936-2.998 0-2.998s-1.936 2.998 0 2.998m5.254 5.995c4.26 0 4.26-6.594 0-6.594s-4.26 6.594 0 6.594m-.451 3.748c2.323 0 2.323-3.598 0-3.598s-2.323 3.598 0 3.598"/><path d="M234.026 228.124c1.548 0 1.548-2.398 0-2.398-1.549 0-1.549 2.398 0 2.398m2.401-1.799c2.323 0 2.323-3.597 0-3.597s-2.323 3.597 0 3.597m.451 6.145c3.097 0 3.097-4.796 0-4.796-3.098 0-3.098 4.796 0 4.796m3.002-4.196c1.935 0 1.935-2.998 0-2.998-1.936 0-1.936 2.998 0 2.998"/><path d="M242.431 233.52c3.485 0 3.485-5.396 0-5.396-3.484 0-3.484 5.396 0 5.396m.751 2.698c1.548 0 1.548-2.399 0-2.399s-1.548 2.399 0 2.399m3.152-.6c2.323 0 2.323-3.597 0-3.597s-2.323 3.597 0 3.597"/><path d="M250.687 237.267c3.098 0 3.098-4.797 0-4.797-3.097 0-3.097 4.797 0 4.797"/><path d="M247.085 239.365c2.323 0 2.323-3.597 0-3.597s-2.323 3.597 0 3.597m4.653 2.998c3.098 0 3.098-4.796 0-4.796s-3.098 4.796 0 4.796"/><path d="M254.44 237.866c1.936 0 1.936-2.997 0-2.997s-1.936 2.997 0 2.997"/><path d="M257.592 241.464c3.098 0 3.098-4.797 0-4.797-3.097 0-3.097 4.797 0 4.797m-2.402 3.596c2.323 0 2.323-3.596 0-3.596s-2.323 3.597 0 3.597m4.654 1.949c3.485 0 3.485-5.397 0-5.397s-3.485 5.396 0 5.396m1.951-5.695c1.936 0 1.936-2.998 0-2.998s-1.936 2.998 0 2.998m3.152 3.297c2.71 0 2.71-4.197 0-4.197s-2.71 4.197 0 4.197m-.9 3.747c1.935 0 1.935-2.997 0-2.997-1.936 0-1.936 2.997 0 2.997m-1.051-16.637c2.71 0 2.71-4.197 0-4.197s-2.71 4.197 0 4.197m2.702-4.646c1.548 0 1.548-2.398 0-2.398-1.549 0-1.549 2.398 0 2.398"/><path d="M267.95 233.82c3.872 0 3.872-5.996 0-5.996-3.873 0-3.873 5.995 0 5.995"/><path d="M265.548 237.716c2.71 0 2.71-4.196 0-4.196s-2.71 4.196 0 4.196m3.902 4.497c3.485 0 3.485-5.396 0-5.396-3.484 0-3.484 5.396 0 5.396m1.201-5.696c1.936 0 1.936-2.997 0-2.997-1.935 0-1.935 2.997 0 2.997m-1.201 13.34c4.647 0 4.647-7.194 0-7.194-4.646 0-4.646 7.194 0 7.194m4.354-6.145c2.323 0 2.323-3.597 0-3.597s-2.323 3.597 0 3.597"/><path d="M276.055 249.108c3.098 0 3.098-4.797 0-4.797-3.097 0-3.097 4.797 0 4.797m1.351 7.644c4.646 0 4.646-7.195 0-7.195s-4.646 7.195 0 7.195m4.954.449c1.935 0 1.935-2.997 0-2.997-1.936 0-1.936 2.997 0 2.997m-10.658-3.297c2.71 0 2.71-4.197 0-4.197s-2.71 4.197 0 4.197m.3 3.597c1.936 0 1.936-2.998 0-2.998-1.935 0-1.935 2.998 0 2.998m-4.352-.449c3.097 0 3.097-4.797 0-4.797-3.098 0-3.098 4.797 0 4.797"/><path d="M265.698 252.555c2.323 0 2.323-3.597 0-3.597s-2.323 3.597 0 3.597m-3.603 4.796c3.485 0 3.485-5.396 0-5.396s-3.485 5.396 0 5.396m-.75-5.695c1.936 0 1.936-2.998 0-2.998s-1.936 2.998 0 2.998"/><path d="M256.842 254.953c3.872 0 3.872-5.995 0-5.995-3.873 0-3.873 5.995 0 5.995m.9 2.847c1.549 0 1.549-2.397 0-2.397-1.548 0-1.548 2.398 0 2.398m-4.502.149c2.322 0 2.322-3.596 0-3.596-2.324 0-2.324 3.597 0 3.597"/><path d="M251.438 253.904c2.71 0 2.71-4.197 0-4.197s-2.71 4.197 0 4.197"/><path d="M249.486 257.501c2.323 0 2.323-3.597 0-3.597s-2.323 3.597 0 3.597m-3.602-2.548c3.872 0 3.872-5.995 0-5.995s-3.872 5.995 0 5.995m-.3 2.847c1.548 0 1.548-2.397 0-2.397-1.549 0-1.549 2.398 0 2.398"/><path d="M242.431 257.651c2.324 0 2.324-3.597 0-3.597-2.323 0-2.323 3.597 0 3.597m-1.201-3.747c1.55 0 1.55-2.398 0-2.398-1.548 0-1.548 2.398 0 2.398m.3-2.548c1.55 0 1.55-2.398 0-2.398-1.548 0-1.548 2.398 0 2.398"/><path d="M237.778 257.8c3.098 0 3.098-4.795 0-4.795-3.097 0-3.097 4.796 0 4.796m.15-5.096c2.323 0 2.323-3.597 0-3.597s-2.323 3.597 0 3.597"/><path d="M234.626 254.104c1.936 0 1.936-2.998 0-2.998s-1.936 2.998 0 2.998m-.3-3.198c1.162 0 1.162-1.798 0-1.798s-1.162 1.798 0 1.798m-1.301 7.394c2.71 0 2.71-4.196 0-4.196s-2.71 4.197 0 4.197m-3.102-3.798c3.872 0 3.872-5.995 0-5.995s-3.872 5.995 0 5.995m-.801 3.297c1.936 0 1.936-2.997 0-2.997s-1.936 2.998 0 2.998m-3.402-1.099c1.935 0 1.935-2.998 0-2.998-1.936 0-1.936 2.998 0 2.998m-.9-3.198c2.71 0 2.71-4.197 0-4.197-2.711 0-2.711 4.197 0 4.197"/><path d="M223.018 255.503c1.162 0 1.162-1.799 0-1.799s-1.162 1.799 0 1.799m.4 1.998c1.162 0 1.162-1.798 0-1.798s-1.162 1.798 0 1.798"/><path d="M219.916 257.601c2.71 0 2.71-4.197 0-4.197s-2.71 4.197 0 4.197m.9-4.397c1.549 0 1.549-2.398 0-2.398-1.548 0-1.548 2.398 0 2.398"/><path d="M216.713 254.004c3.098 0 3.098-4.796 0-4.796-3.097 0-3.097 4.796 0 4.796m-1 3.796c2.323 0 2.323-3.596 0-3.596s-2.323 3.597 0 3.597"/><path d="M213.311 254.603c1.548 0 1.548-2.398 0-2.398-1.549 0-1.549 2.398 0 2.398m-.701-2.598c1.936 0 1.936-2.997 0-2.997-1.935 0-1.935 2.997 0 2.997m-.3 5.795c1.936 0 1.936-2.997 0-2.997-1.935 0-1.935 2.998 0 2.998"/><path d="M209.608 255.703c3.098 0 3.098-4.797 0-4.797-3.097 0-3.097 4.797 0 4.797m-.1 1.698c.775 0 .775-1.199 0-1.199-.774 0-.774 1.2 0 1.2m.301-6.796c.774 0 .774-1.199 0-1.199-.775 0-.775 1.2 0 1.2"/><path d="M206.606 252.205c1.549 0 1.549-2.398 0-2.398-1.548 0-1.548 2.398 0 2.398m.601 5.595c1.548 0 1.548-2.397 0-2.397-1.549 0-1.549 2.398 0 2.398"/><path d="M205.005 255.802c2.323 0 2.323-3.597 0-3.597s-2.323 3.597 0 3.597m-2.201-3.197c2.323 0 2.323-3.597 0-3.597s-2.323 3.597 0 3.597"/><path d="M199.101 257.9c4.26 0 4.26-6.594 0-6.594s-4.26 6.595 0 6.595m4.303-.3c1.162 0 1.162-1.799 0-1.799s-1.162 1.8 0 1.8m-3.903-6.496c1.162 0 1.162-1.799 0-1.799s-1.162 1.8 0 1.8m-3.101.699c1.935 0 1.935-2.998 0-2.998-1.937 0-1.937 2.998 0 2.998"/><path d="M195.098 253.504c1.162 0 1.162-1.798 0-1.798s-1.162 1.798 0 1.798m-1.101 3.398c1.936 0 1.936-2.998 0-2.998-1.935 0-1.935 2.998 0 2.998"/><path d="M191.496 254.204c3.097 0 3.097-4.797 0-4.797-3.098 0-3.098 4.797 0 4.797m-1.201 3.596c2.323 0 2.323-3.596 0-3.596s-2.323 3.597 0 3.597m-3.403-2.398c1.936 0 1.936-2.998 0-2.998-1.935 0-1.935 2.998 0 2.998m.751-3.448c1.162 0 1.162-1.798 0-1.798s-1.162 1.798 0 1.798m-4.353 2.099c3.097 0 3.097-4.796 0-4.796-3.098 0-3.098 4.796 0 4.796m.45 3.746c2.323 0 2.323-3.596 0-3.596s-2.323 3.597 0 3.597"/><path d="M180.738 255.852c1.549 0 1.549-2.398 0-2.398-1.548 0-1.548 2.398 0 2.398"/><path d="M177.886 254.503c3.485 0 3.485-5.395 0-5.395s-3.485 5.395 0 5.395m0 2.848c1.549 0 1.549-2.398 0-2.398-1.548 0-1.548 2.398 0 2.398m-4.053 0c2.323 0 2.323-3.597 0-3.597s-2.323 3.597 0 3.597m-.9-4.047c2.323 0 2.323-3.597 0-3.597-2.324 0-2.324 3.597 0 3.597m-4.353 4.496c3.484 0 3.484-5.395 0-5.395-3.485 0-3.485 5.396 0 5.396m0-5.696c2.322 0 2.322-3.597 0-3.597-2.324 0-2.324 3.597 0 3.597"/><path d="M164.226 254.354c2.71 0 2.71-4.197 0-4.197s-2.71 4.197 0 4.197m-.3 3.297c1.936 0 1.936-2.998 0-2.998s-1.936 2.998 0 2.998m-3.152-1.649c1.936 0 1.936-2.997 0-2.997s-1.936 2.997 0 2.997m-.6-3.447c1.935 0 1.935-2.998 0-2.998-1.936 0-1.936 2.998 0 2.998m-3.603 2.998c2.71 0 2.71-4.197 0-4.197s-2.71 4.197 0 4.197m.6-4.347c1.549 0 1.549-2.398 0-2.398-1.548 0-1.548 2.398 0 2.398m.601 6.894c1.548 0 1.548-2.397 0-2.397-1.549 0-1.549 2.398 0 2.398m-2.702-.6c1.162 0 1.162-1.798 0-1.798s-1.162 1.798 0 1.798m-3.302-2.998c3.484 0 3.484-5.395 0-5.395-3.485 0-3.485 5.395 0 5.395m.6 3.148c1.936 0 1.936-2.998 0-2.998s-1.936 2.998 0 2.998"/><path d="M149.516 256.002c1.162 0 1.162-1.798 0-1.798s-1.162 1.798 0 1.798m-3.002.6c2.323 0 2.323-3.597 0-3.597s-2.323 3.597 0 3.597m.901-3.897c1.548 0 1.548-2.398 0-2.398-1.549 0-1.549 2.398 0 2.398"/><path d="M142.311 254.354c3.872 0 3.872-5.996 0-5.996s-3.872 5.996 0 5.996m.901 3.147c1.935 0 1.935-2.998 0-2.998-1.936 0-1.936 2.998 0 2.998"/><path d="M139.91 256.602c1.548 0 1.548-2.398 0-2.398-1.55 0-1.55 2.398 0 2.398"/><path d="M135.706 257.501c3.485 0 3.485-5.396 0-5.396s-3.485 5.396 0 5.396m1.651-5.695c1.549 0 1.549-2.399 0-2.399-1.548 0-1.548 2.399 0 2.399m-2.701-.15c1.161 0 1.161-1.799 0-1.799-1.162 0-1.162 1.799 0 1.799"/><path d="M131.804 253.304c2.323 0 2.323-3.597 0-3.597s-2.323 3.597 0 3.597m-.451 2.998c1.549 0 1.549-2.398 0-2.398-1.548 0-1.548 2.398 0 2.398"/><path d="M127 257.8c3.872 0 3.872-5.994 0-5.994s-3.872 5.995 0 5.995m1.501-6.145c1.936 0 1.936-2.998 0-2.998s-1.936 2.998 0 2.998m-4.053.449c1.936 0 1.936-2.997 0-2.997-1.935 0-1.935 2.997 0 2.997"/><path d="M121.296 255.852c3.098 0 3.098-4.796 0-4.796-3.097 0-3.097 4.796 0 4.796"/><path d="M123.097 258.1c1.549 0 1.549-2.397 0-2.397-1.548 0-1.548 2.398 0 2.398m-7.955-.45c4.26 0 4.26-6.595 0-6.595s-4.26 6.595 0 6.595"/><path d="M118.294 251.955c1.549 0 1.549-2.398 0-2.398-1.548 0-1.548 2.398 0 2.398m-7.505.6c2.323 0 2.323-3.597 0-3.597s-2.323 3.597 0 3.597"/><path d="M109.288 257.201c3.097 0 3.097-4.796 0-4.796-3.098 0-3.098 4.796 0 4.796m-2.102-5.096c1.549 0 1.549-2.398 0-2.398-1.548 0-1.548 2.398 0 2.398m-1.051 1.649c.775 0 .775-1.199 0-1.199-.774 0-.774 1.2 0 1.2"/><path d="M103.434 253.754c2.71 0 2.71-4.197 0-4.197s-2.71 4.197 0 4.197m1.2 4.196c2.71 0 2.71-4.196 0-4.196s-2.71 4.197 0 4.197"/><path d="M99.53 258.25c3.873 0 3.873-5.995 0-5.995-3.871 0-3.871 5.996 0 5.996m-.15-6.146c1.936 0 1.936-2.997 0-2.997-1.935 0-1.935 2.997 0 2.997"/><path d="M95.628 253.155c2.71 0 2.71-4.197 0-4.197s-2.71 4.197 0 4.197m-.75 3.297c1.935 0 1.935-2.998 0-2.998-1.936 0-1.936 2.998 0 2.998"/><path d="M90.825 257.052c3.097 0 3.097-4.797 0-4.797-3.098 0-3.098 4.797 0 4.797m.9-5.097c1.549 0 1.549-2.398 0-2.398-1.548 0-1.548 2.398 0 2.398"/><path d="M88.123 253.005c2.323 0 2.323-3.598 0-3.598s-2.323 3.598 0 3.598m-1.051 2.398c1.549 0 1.549-2.398 0-2.398-1.548 0-1.548 2.398 0 2.398m.6 2.023c1.162 0 1.162-1.798 0-1.798-1.161 0-1.161 1.798 0 1.798"/><path d="M83.995 257.8c2.71 0 2.71-4.196 0-4.196s-2.71 4.197 0 4.197m.901-4.497c1.935 0 1.935-2.997 0-2.997-1.936 0-1.936 2.997 0 2.997"/><path d="M80.768 254.054c3.097 0 3.097-4.796 0-4.796-3.098 0-3.098 4.796 0 4.796m-.226 2.848c1.549 0 1.549-2.399 0-2.399-1.548 0-1.548 2.399 0 2.399"/><path d="M77.315 257.052c2.323 0 2.323-3.598 0-3.598s-2.323 3.598 0 3.598m.15-3.822c1.162 0 1.162-1.8 0-1.8s-1.162 1.8 0 1.8m-2.026-.975c1.936 0 1.936-2.997 0-2.997s-1.936 2.997 0 2.997"/><path d="M72.962 257.126c3.485 0 3.485-5.395 0-5.395s-3.485 5.395 0 5.395m-.45-5.546c1.548 0 1.548-2.397 0-2.397-1.549 0-1.549 2.398 0 2.398m-3.452 1.649c2.322 0 2.322-3.598 0-3.598-2.324 0-2.324 3.597 0 3.597m.15 2.249c1.161 0 1.161-1.799 0-1.799-1.162 0-1.162 1.799 0 1.799m.15 2.622c1.548 0 1.548-2.397 0-2.397-1.549 0-1.549 2.398 0 2.398"/><path d="M66.282 256.227c2.323 0 2.323-3.597 0-3.597s-2.323 3.597 0 3.597m.751 2.023c1.162 0 1.162-1.798 0-1.798s-1.162 1.799 0 1.799m-2.026-5.846c2.323 0 2.323-3.597 0-3.597-2.324 0-2.324 3.597 0 3.597m-1.351 1.949c1.161 0 1.161-1.799 0-1.799-1.162 0-1.162 1.799 0 1.799m-.526 3.147c1.936 0 1.936-2.998 0-2.998s-1.936 2.998 0 2.998"/><path d="M60.729 254.354c2.71 0 2.71-4.197 0-4.197s-2.71 4.197 0 4.197m-.601 2.772c1.549 0 1.549-2.398 0-2.398-1.548 0-1.548 2.398 0 2.398"/><path d="M57.05 256.752c2.324 0 2.324-3.597 0-3.597-2.322 0-2.322 3.597 0 3.597m.376-3.672c1.162 0 1.162-1.799 0-1.799s-1.162 1.799 0 1.799m.676-1.874c1.935 0 1.935-2.998 0-2.998-1.936 0-1.936 2.998 0 2.998"/><path d="M53.974 253.829c3.097 0 3.097-4.796 0-4.796-3.098 0-3.098 4.796 0 4.796m-.451 3.148c1.936 0 1.936-2.998 0-2.998-1.935 0-1.935 2.998 0 2.998"/><path d="M49.02 257.276c3.872 0 3.872-5.995 0-5.995s-3.872 5.995 0 5.995m1.426-6.145c1.162 0 1.162-1.799 0-1.799s-1.162 1.8 0 1.8m-3.902.598c1.548 0 1.548-2.398 0-2.398-1.549 0-1.549 2.399 0 2.399m-2.327 3.222c2.323 0 2.323-3.597 0-3.597s-2.323 3.597 0 3.597m.675 2.773c1.549 0 1.549-2.398 0-2.398-1.548 0-1.548 2.398 0 2.398"/><path d="M40.99 257.95c2.71 0 2.71-4.196 0-4.196s-2.71 4.197 0 4.197m-.826-4.347c3.485 0 3.485-5.396 0-5.396s-3.485 5.396 0 5.396"/><path d="M37.087 256.602c2.323 0 2.323-3.597 0-3.597s-2.323 3.597 0 3.597m-2.177-3.148c3.098 0 3.098-4.796 0-4.796-3.097 0-3.097 4.796 0 4.796m-.975 2.548c1.548 0 1.548-2.398 0-2.398-1.549 0-1.549 2.398 0 2.398m1.05 1.424c.775 0 .775-1.199 0-1.199-.774 0-.774 1.2 0 1.2m-3.152.149c1.162 0 1.162-1.799 0-1.799s-1.162 1.8 0 1.8"/><path d="M30.933 255.328c2.323 0 2.323-3.597 0-3.597-2.324 0-2.324 3.597 0 3.597m.3-3.748c1.548 0 1.548-2.397 0-2.397-1.549 0-1.549 2.398 0 2.398m-1.726 6.145c1.548 0 1.548-2.398 0-2.398-1.549 0-1.549 2.398 0 2.398"/><path d="M25.829 255.628c4.26 0 4.26-6.595 0-6.595s-4.26 6.595 0 6.595"/><path d="M22.076 259c2.71 0 2.71-4.197 0-4.197s-2.71 4.197 0 4.197"/><path d="M26.18 258.2c1.548 0 1.548-2.398 0-2.398-1.55 0-1.55 2.399 0 2.399m-5.004-3.498c1.548 0 1.548-2.398 0-2.398-1.549 0-1.549 2.398 0 2.398m-.2-2.598c2.323 0 2.323-3.597 0-3.597-2.324 0-2.324 3.597 0 3.597m-2.802 4.897c2.323 0 2.323-3.598 0-3.598s-2.323 3.598 0 3.598m-.1-3.798c1.548 0 1.548-2.398 0-2.398-1.549 0-1.549 2.398 0 2.398m-2.402-1.299c1.548 0 1.548-2.398 0-2.398-1.549 0-1.549 2.398 0 2.398"/><path d="M13.57 257.101c3.485 0 3.485-5.395 0-5.395s-3.485 5.395 0 5.395m-8.005-.399c4.26 0 4.26-6.595 0-6.595s-4.26 6.595 0 6.595m-4.403.599c1.548 0 1.548-2.398 0-2.398-1.549 0-1.549 2.398 0 2.398m8.706-.2c1.548 0 1.548-2.398 0-2.398-1.549 0-1.549 2.398 0 2.398"/><path d="M10.268 252.405c2.71 0 2.71-4.197 0-4.197s-2.71 4.197 0 4.197m-3.703-2.598c3.098 0 3.098-4.796 0-4.796-3.097 0-3.097 4.796 0 4.796m4.303-1.898c2.323 0 2.323-3.598 0-3.598s-2.323 3.598 0 3.598m-2.701-3.198c1.548 0 1.548-2.398 0-2.398-1.549 0-1.549 2.398 0 2.398"/><path d="M13.77 244.81c3.485 0 3.485-5.395 0-5.395-3.484 0-3.484 5.396 0 5.396"/><path d="M9.567 242.413c1.936 0 1.936-2.998 0-2.998-1.935 0-1.935 2.998 0 2.998m2.203-2.698c1.16 0 1.16-1.799 0-1.799-1.163 0-1.163 1.799 0 1.799m2.6-1.499c3.098 0 3.098-4.796 0-4.796-3.097 0-3.097 4.796 0 4.796m3.103 2.298c1.936 0 1.936-2.997 0-2.997s-1.936 2.997 0 2.997m1.001-3.547c1.936 0 1.936-2.998 0-2.998s-1.936 2.998 0 2.998m-4.204-4.197c1.163 0 1.163-1.798 0-1.798-1.161 0-1.161 1.798 0 1.798"/><path d="M16.823 234.12c1.548 0 1.548-2.399 0-2.399-1.549 0-1.549 2.398 0 2.398m-.151-3.297c2.324 0 2.324-3.597 0-3.597-2.323 0-2.323 3.597 0 3.597"/><path d="M20.425 233.67c3.098 0 3.098-4.797 0-4.797-3.097 0-3.097 4.797 0 4.797m-.75-5.696c3.097 0 3.097-4.796 0-4.796-3.098 0-3.098 4.796 0 4.796"/><path d="M22.827 228.873c1.548 0 1.548-2.398 0-2.398-1.549 0-1.549 2.398 0 2.398m1.201-2.698c1.935 0 1.935-2.997 0-2.997-1.936 0-1.936 2.997 0 2.997m-2.702-3.297c1.936 0 1.936-2.998 0-2.998s-1.936 2.998 0 2.998"/><path d="M24.478 222.728c1.548 0 1.548-2.398 0-2.398-1.549 0-1.549 2.398 0 2.398m1.802 1.349c1.161 0 1.161-1.799 0-1.799-1.163 0-1.163 1.799 0 1.799m-3.003-4.047c2.71 0 2.71-4.197 0-4.197s-2.71 4.197 0 4.197"/><path d="M27.33 221.529c2.71 0 2.71-4.197 0-4.197s-2.71 4.197 0 4.197m-.45-4.497c1.548 0 1.548-2.398 0-2.398-1.549 0-1.549 2.398 0 2.398"/><path d="M29.882 217.782c2.323 0 2.323-3.597 0-3.597s-2.323 3.597 0 3.597m-5.554-2.398c1.548 0 1.548-2.398 0-2.398-1.549 0-1.549 2.398 0 2.398m2.852-1.499c2.71 0 2.71-4.197 0-4.197s-2.71 4.197 0 4.197"/><path d="M30.782 214.035c1.936 0 1.936-2.998 0-2.998-1.935 0-1.935 2.998 0 2.998m-.6-3.398c1.936 0 1.936-2.997 0-2.997s-1.936 2.997 0 2.997m-2.902-1.199c1.162 0 1.162-1.798 0-1.798s-1.162 1.798 0 1.798m5.404 2.099c1.162 0 1.162-1.799 0-1.799s-1.162 1.799 0 1.799m.4-2.199c1.162 0 1.162-1.798 0-1.798s-1.162 1.798 0 1.798m-3.903-1.898c1.936 0 1.936-2.998 0-2.998-1.935 0-1.935 2.998 0 2.998m3.503-.1c2.71 0 2.71-4.197 0-4.197s-2.71 4.197 0 4.197m-2.402-3.697c1.936 0 1.936-2.998 0-2.998s-1.936 2.998 0 2.998m5.604 2.797c1.162 0 1.162-1.798 0-1.798s-1.162 1.799 0 1.799m-2.001-3.398c2.323 0 2.323-3.597 0-3.597s-2.323 3.597 0 3.597"/><path d="M36.687 204.042c1.548 0 1.548-2.398 0-2.398-1.549 0-1.549 2.398 0 2.398m1.501-2.398c3.485 0 3.485-5.396 0-5.396s-3.485 5.396 0 5.396m-4.804-2.398c1.936 0 1.936-2.998 0-2.998-1.935 0-1.935 2.998 0 2.998"/><path d="M35.486 196.548c1.936 0 1.936-2.997 0-2.997s-1.936 2.997 0 2.997m3.202-.599c1.936 0 1.936-2.998 0-2.998s-1.936 2.998 0 2.998m2.802 1.399c1.548 0 1.548-2.399 0-2.399s-1.548 2.399 0 2.399m-5.004-4.198c2.71 0 2.71-4.196 0-4.196s-2.71 4.197 0 4.197"/><path d="M42.19 193.85c3.873 0 3.873-5.995 0-5.995-3.872 0-3.872 5.995 0 5.995m.1-6.395c3.873 0 3.873-5.995 0-5.995-3.872 0-3.872 5.995 0 5.995m-3.802 1.199c1.162 0 1.162-1.798 0-1.798s-1.162 1.798 0 1.798"/><path d="M45.993 189.454c2.323 0 2.323-3.598 0-3.598s-2.323 3.598 0 3.598"/><path d="M47.894 185.956c3.485 0 3.485-5.395 0-5.395-3.484 0-3.484 5.395 0 5.395m-3.902-4.396c2.71 0 2.71-4.197 0-4.197s-2.71 4.197 0 4.197"/><path d="M49.195 180.16c4.26 0 4.26-6.594 0-6.594-4.259 0-4.259 6.595 0 6.595m-1.2-6.895c2.71 0 2.71-4.197 0-4.197s-2.71 4.197 0 4.197"/><path d="M54.299 174.665c5.42 0 5.42-8.393 0-8.393s-5.42 8.393 0 8.393m-1.801-8.293c2.71 0 2.71-4.197 0-4.197s-2.71 4.197 0 4.197m8.806 8.593c3.098 0 3.098-4.796 0-4.796s-3.098 4.796 0 4.796"/><path d="M60.103 169.769c1.936 0 1.936-2.998 0-2.998s-1.936 2.998 0 2.998m3.903.699c2.323 0 2.323-3.597 0-3.597s-2.323 3.597 0 3.597m1.201 3.098c1.935 0 1.935-2.998 0-2.998-1.936 0-1.936 2.998 0 2.998m2.101 1.299c1.162 0 1.162-1.799 0-1.799s-1.162 1.799 0 1.799m.701-3.597c2.71 0 2.71-4.197 0-4.197s-2.71 4.197 0 4.197m2.301 3.497c2.323 0 2.323-3.597 0-3.597s-2.323 3.597 0 3.597m1.101-3.797c1.162 0 1.162-1.799 0-1.799s-1.162 1.799 0 1.799m-.301-2.098c1.163 0 1.163-1.799 0-1.799-1.161 0-1.161 1.799 0 1.799m2.703 1.399c1.936 0 1.936-2.998 0-2.998s-1.936 2.998 0 2.998m.2 3.497c1.936 0 1.936-2.998 0-2.998s-1.936 2.998 0 2.998m3.803 1.399c2.71 0 2.71-4.197 0-4.197s-2.71 4.197 0 4.197m-1.602-4.197c1.162 0 1.162-1.799 0-1.799-1.161 0-1.161 1.799 0 1.799m.301-2.198c1.161 0 1.161-1.799 0-1.799-1.162 0-1.162 1.799 0 1.799m2.702 2.198c2.323 0 2.323-3.597 0-3.597s-2.323 3.597 0 3.597m2.401 2.698c1.936 0 1.936-2.998 0-2.998s-1.936 2.998 0 2.998"/><path d="M82.92 170.768c2.322 0 2.322-3.597 0-3.597-2.324 0-2.324 3.597 0 3.597"/><path d="M85.721 175.065c3.098 0 3.098-4.796 0-4.796-3.097 0-3.097 4.796 0 4.796m.801-4.996c1.548 0 1.548-2.398 0-2.398-1.549 0-1.549 2.398 0 2.398m3.502 1.798c2.71 0 2.71-4.196 0-4.196s-2.71 4.196 0 4.196"/><path d="M89.424 174.365c1.548 0 1.548-2.398 0-2.398-1.549 0-1.549 2.398 0 2.398m3.102.4c1.936 0 1.936-2.998 0-2.998s-1.936 2.998 0 2.998m1.101-3.098c1.935 0 1.935-2.997 0-2.997-1.936 0-1.936 2.997 0 2.997m2.101-2.397c1.162 0 1.162-1.8 0-1.8s-1.162 1.8 0 1.8"/><path d="M97.53 174.965c3.484 0 3.484-5.396 0-5.396-3.485 0-3.485 5.396 0 5.396"/><path d="M99.831 169.969c1.936 0 1.936-2.998 0-2.998s-1.936 2.998 0 2.998m1.901 2.997c1.936 0 1.936-2.997 0-2.997-1.935 0-1.935 2.997 0 2.997m-.4 1.599c.775 0 .775-1.199 0-1.199-.774 0-.774 1.2 0 1.2m2.202.799c1.548 0 1.548-2.399 0-2.399-1.549 0-1.549 2.399 0 2.399"/><path d="M104.634 172.467c1.549 0 1.549-2.398 0-2.398-1.548 0-1.548 2.398 0 2.398"/><path d="M103.334 170.169c2.323 0 2.323-3.598 0-3.598s-2.323 3.598 0 3.598m3.702 5.695c2.71 0 2.71-4.197 0-4.197s-2.71 4.197 0 4.197m.3-4.496c2.71 0 2.71-4.197 0-4.197s-2.71 4.197 0 4.197"/><path d="M110.238 173.266c1.936 0 1.936-2.997 0-2.997-1.935 0-1.935 2.997 0 2.997m0 2.199c1.162 0 1.162-1.8 0-1.8-1.161 0-1.161 1.8 0 1.8"/><path d="M112.54 175.165c1.549 0 1.549-2.398 0-2.398-1.548 0-1.548 2.398 0 2.398m-.8-4.797c2.323 0 2.323-3.597 0-3.597-2.324 0-2.324 3.597 0 3.597"/><path d="M113.54 172.667c1.55 0 1.55-2.398 0-2.398-1.548 0-1.548 2.398 0 2.398m2.002 2.897c1.936 0 1.936-2.997 0-2.997s-1.936 2.997 0 2.997"/><path d="M115.242 170.468c1.936 0 1.936-2.997 0-2.997s-1.936 2.997 0 2.997m.8 1.899c1.162 0 1.162-1.799 0-1.799-1.161 0-1.161 1.799 0 1.799m2.202 1.499c1.549 0 1.549-2.398 0-2.398-1.548 0-1.548 2.398 0 2.398m.801-2.498c2.71 0 2.71-4.197 0-4.197s-2.71 4.197 0 4.197m3.202 4.496c3.485 0 3.485-5.396 0-5.396s-3.485 5.396 0 5.396m-3.403-.1c1.162 0 1.162-1.798 0-1.798-1.161 0-1.161 1.798 0 1.798"/><path d="M122.847 170.368c1.936 0 1.936-2.997 0-2.997-1.935 0-1.935 2.997 0 2.997m2.402 1.2c1.162 0 1.162-1.8 0-1.8s-1.162 1.8 0 1.8"/><path d="M125.55 169.569c1.161 0 1.161-1.799 0-1.799-1.163 0-1.163 1.799 0 1.799m.9 4.896c1.548 0 1.548-2.398 0-2.398-1.549 0-1.549 2.398 0 2.398m1.1-2.598c1.55 0 1.55-2.398 0-2.398-1.548 0-1.548 2.398 0 2.398m.801-2.797c1.162 0 1.162-1.8 0-1.8s-1.162 1.8 0 1.8"/><path d="M130.353 175.564c3.097 0 3.097-4.796 0-4.796-3.098 0-3.098 4.796 0 4.796m.8-5.096c1.936 0 1.936-2.997 0-2.997s-1.936 2.997 0 2.997"/><path d="M133.355 172.267c1.548 0 1.548-2.398 0-2.398-1.549 0-1.549 2.398 0 2.398m1-2.698c1.549 0 1.549-2.398 0-2.398-1.548 0-1.548 2.398 0 2.398m1.702 1.199c.774 0 .774-1.199 0-1.199-.775 0-.775 1.2 0 1.2"/><path d="M135.556 173.566c1.549 0 1.549-2.398 0-2.398-1.548 0-1.548 2.398 0 2.398m2.902 2.798c2.71 0 2.71-4.197 0-4.197s-2.71 4.197 0 4.197"/><path d="M134.155 175.265c1.162 0 1.162-1.799 0-1.799s-1.162 1.799 0 1.799m11.683 2.348c1.936 0 1.936-2.998 0-2.998-1.935 0-1.935 2.998 0 2.998"/><path d="M147.565 174.84c1.548 0 1.548-2.398 0-2.398-1.549 0-1.549 2.398 0 2.398m-89.363-8.718c1.548 0 1.548-2.398 0-2.398-1.549 0-1.549 2.398 0 2.398"/><path d="M55.9 166.272c1.162 0 1.162-1.799 0-1.799s-1.162 1.799 0 1.799m.6-2.648c3.873 0 3.873-5.996 0-5.996-3.872 0-3.872 5.996 0 5.996"/><path d="M60.854 161.126c1.548 0 1.548-2.399 0-2.399-1.549 0-1.549 2.399 0 2.399"/><path d="M59.703 158.877c1.548 0 1.548-2.398 0-2.398-1.549 0-1.549 2.398 0 2.398m-2.803-1.548c2.324 0 2.324-3.598 0-3.598-2.322 0-2.322 3.598 0 3.598m4.704-1.099c3.485 0 3.485-5.396 0-5.396s-3.485 5.395 0 5.395"/><path d="M62.555 158.677c1.548 0 1.548-2.398 0-2.398-1.549 0-1.549 2.398 0 2.398m-4.553-5.196c1.161 0 1.161-1.798 0-1.798-1.162 0-1.162 1.798 0 1.798m1.401-1.998c1.161 0 1.161-1.799 0-1.799-1.162 0-1.162 1.799 0 1.799"/><path d="M62.004 150.584c3.098 0 3.098-4.797 0-4.797-3.097 0-3.097 4.797 0 4.797"/><path d="M64.556 152.033c1.549 0 1.549-2.399 0-2.399-1.548 0-1.548 2.399 0 2.399m2.352-1.349c1.548 0 1.548-2.399 0-2.399-1.549 0-1.549 2.399 0 2.399m-1.701-1.999c.774 0 .774-1.199 0-1.199-.775 0-.775 1.2 0 1.2m2.201-.7c2.71 0 2.71-4.197 0-4.197s-2.71 4.197 0 4.197m-4.303-2.149c1.936 0 1.936-2.997 0-2.997s-1.936 2.997 0 2.997m3.102-2.647c3.098 0 3.098-4.797 0-4.797-3.097 0-3.097 4.796 0 4.796"/><path d="M69.66 144.239c1.936 0 1.936-2.998 0-2.998s-1.936 2.998 0 2.998m1.5-3.248c3.098 0 3.098-4.796 0-4.796-3.097 0-3.097 4.796 0 4.796m-3.802-2.748c1.549 0 1.549-2.398 0-2.398-1.548 0-1.548 2.398 0 2.398m2.352-2.198c2.323 0 2.323-3.597 0-3.597s-2.323 3.597 0 3.597m2.852 0c1.162 0 1.162-1.799 0-1.799s-1.162 1.799 0 1.799"/><path d="M74.113 137.494c1.162 0 1.162-1.799 0-1.799s-1.162 1.799 0 1.799m.65-1.899c1.162 0 1.162-1.798 0-1.798-1.161 0-1.161 1.798 0 1.798m-1.851-1.399c1.936 0 1.936-2.997 0-2.997s-1.936 2.997 0 2.997m-2.652-2.148c1.162 0 1.162-1.799 0-1.799s-1.162 1.799 0 1.799m6.255.999c2.71 0 2.71-4.196 0-4.196s-2.71 4.196 0 4.196"/><path d="M72.462 130.899c3.097 0 3.097-4.796 0-4.796-3.098 0-3.098 4.796 0 4.796"/><path d="M76.164 128.65c1.936 0 1.936-2.997 0-2.997-1.935 0-1.935 2.998 0 2.998m2.302.449c1.162 0 1.162-1.798 0-1.798s-1.162 1.798 0 1.798"/><path d="M74.113 126.053c1.936 0 1.936-2.998 0-2.998s-1.936 2.998 0 2.998m3.102-.5c1.936 0 1.936-2.998 0-2.998s-1.936 2.998 0 2.998m1.801 1.549c1.162 0 1.162-1.799 0-1.799-1.161 0-1.161 1.799 0 1.799"/><path d="M80.417 125.353c1.936 0 1.936-2.998 0-2.998-1.935 0-1.935 2.998 0 2.998m-3.402-3.047c2.71 0 2.71-4.197 0-4.197s-2.71 4.197 0 4.197"/><path d="M80.718 122.206c1.548 0 1.548-2.399 0-2.399-1.549 0-1.549 2.399 0 2.399m-.251-2.448c2.323 0 2.323-3.598 0-3.598s-2.323 3.598 0 3.598m2.503.999c1.161 0 1.161-1.799 0-1.799-1.163 0-1.163 1.799 0 1.799m-5.104-2.798c1.161 0 1.161-1.799 0-1.799-1.162 0-1.162 1.799 0 1.799m1.401-1.999c1.161 0 1.161-1.798 0-1.798-1.162 0-1.162 1.798 0 1.798m4.853 2.099c2.323 0 2.323-3.597 0-3.597s-2.323 3.597 0 3.597m-2.652-2.099c.775 0 .775-1.199 0-1.199-.774 0-.774 1.2 0 1.2m.25-1.699c2.71 0 2.71-4.197 0-4.197s-2.71 4.197 0 4.197m2.552.1c.775 0 .775-1.2 0-1.2-.774 0-.774 1.2 0 1.2"/><path d="M86.422 115.061c1.548 0 1.548-2.398 0-2.398-1.549 0-1.549 2.398 0 2.398"/><path d="M85.17 112.763c1.55 0 1.55-2.398 0-2.398-1.548 0-1.548 2.398 0 2.398m-1.45-2.548c2.71 0 2.71-4.197 0-4.197s-2.71 4.197 0 4.197"/><path d="M86.972 110.665c1.549 0 1.549-2.399 0-2.399-1.548 0-1.548 2.399 0 2.399m.65 2.048c1.162 0 1.162-1.799 0-1.799-1.161 0-1.161 1.799 0 1.799m1.351-1.849c.775 0 .775-1.199 0-1.199-.774 0-.774 1.2 0 1.2m.551-1.849c1.936 0 1.936-2.998 0-2.998s-1.936 2.998 0 2.998m-2.602-1.699c1.936 0 1.936-2.998 0-2.998s-1.936 2.998 0 2.998m-2.702-1.499c1.162 0 1.162-1.798 0-1.798s-1.162 1.798 0 1.798"/><path d="M85.821 104.37c1.936 0 1.936-2.998 0-2.998s-1.936 2.997 0 2.997m4.954 1.549c4.26 0 4.26-6.595 0-6.595s-4.26 6.595 0 6.595m-3.803-4.796c1.162 0 1.162-1.799 0-1.799s-1.162 1.799 0 1.799"/><path d="M88.623 99.673c1.936 0 1.936-2.998 0-2.998s-1.936 2.998 0 2.998m3.503-.6c2.71 0 2.71-4.196 0-4.196s-2.71 4.196 0 4.196"/><path d="M94.477 101.072c1.549 0 1.549-2.398 0-2.398-1.548 0-1.548 2.398 0 2.398m1.301-2.798c1.549 0 1.549-2.398 0-2.398-1.548 0-1.548 2.398 0 2.398m-3.252-3.547c2.71 0 2.71-4.197 0-4.197s-2.71 4.197 0 4.197m3.853.899c1.935 0 1.935-2.998 0-2.998-1.936 0-1.936 2.998 0 2.998"/><path d="M96.078 92.429c2.323 0 2.323-3.598 0-3.598s-2.323 3.598 0 3.598m-2.952-2.299c1.162 0 1.162-1.798 0-1.798-1.161 0-1.161 1.798 0 1.798m5.454 3.098c1.162 0 1.162-1.799 0-1.799s-1.162 1.799 0 1.799"/><path d="M94.878 88.682c1.935 0 1.935-2.998 0-2.998-1.936 0-1.936 2.998 0 2.998"/><path d="M99.58 89.93c3.486 0 3.486-5.395 0-5.395-3.484 0-3.484 5.396 0 5.396m-3.101-4.447c1.162 0 1.162-1.799 0-1.799s-1.162 1.799 0 1.799"/><path d="M98.43 84.035c2.323 0 2.323-3.597 0-3.597s-2.323 3.597 0 3.597"/><path d="M101.432 84.735c1.549 0 1.549-2.399 0-2.399-1.548 0-1.548 2.399 0 2.399"/><path d="M103.484 84.185c.774 0 .774-1.2 0-1.2-.775 0-.775 1.2 0 1.2m-.851 1.749c.775 0 .775-1.2 0-1.2s-.775 1.2 0 1.2m-1.101-3.691c1.549 0 1.549-2.398 0-2.398-1.548 0-1.548 2.398 0 2.398"/><path d="M104.084 82.486c1.549 0 1.549-2.398 0-2.398-1.548 0-1.548 2.398 0 2.398m-4.754-2.048c2.324 0 2.324-3.597 0-3.597-2.322 0-2.322 3.597 0 3.597"/><path d="M102.87 79.888c1.936 0 1.936-2.997 0-2.997-1.935 0-1.935 2.997 0 2.997m2.515.225c1.162 0 1.162-1.798 0-1.798s-1.162 1.798 0 1.798m-4.954-3.373c1.162 0 1.162-1.798 0-1.798-1.161 0-1.161 1.799 0 1.799m1.914.112c1.162 0 1.162-1.798 0-1.798s-1.162 1.798 0 1.798"/><path d="M105.648 78.052c2.323 0 2.323-3.597 0-3.597s-2.323 3.597 0 3.597m-2.74-3.11c1.936 0 1.936-2.998 0-2.998s-1.936 2.998 0 2.998"/><path d="M105.422 74.155c1.162 0 1.162-1.798 0-1.798-1.161 0-1.161 1.798 0 1.798m2.74 1.125c1.936 0 1.936-2.998 0-2.998s-1.936 2.997 0 2.997m-2.702-3.297c3.485 0 3.485-5.396 0-5.396s-3.485 5.396 0 5.396"/><path d="M109.55 72.282c1.936 0 1.936-2.998 0-2.998-1.935 0-1.935 2.998 0 2.998m-.187-3.26c1.548 0 1.548-2.398 0-2.398-1.549 0-1.549 2.398 0 2.398m1.877.337c.774 0 .774-1.2 0-1.2-.775 0-.775 1.2 0 1.2m-3.453-2.249c.774 0 .774-1.198 0-1.198-.775 0-.775 1.199 0 1.199m-1.689-.525c1.548 0 1.548-2.398 0-2.398-1.549 0-1.549 2.398 0 2.398"/><path d="M108.875 66.136c1.548 0 1.548-2.398 0-2.398-1.549 0-1.549 2.398 0 2.398"/><path d="M111.24 67.073c1.548 0 1.548-2.398 0-2.398-1.55 0-1.55 2.398 0 2.398"/><path d="M112.553 68.572c1.161 0 1.161-1.799 0-1.799-1.162 0-1.162 1.799 0 1.799m-2.928-5.096c2.323 0 2.323-3.597 0-3.597s-2.323 3.597 0 3.597m3.453 1.536c2.323 0 2.323-3.597 0-3.597s-2.323 3.597 0 3.597m.188 1.537c.774 0 .774-1.2 0-1.2-.775 0-.775 1.2 0 1.2"/><path d="M112.252 61.04c1.549 0 1.549-2.398 0-2.398-1.548 0-1.548 2.398 0 2.398m3.303.862c2.71 0 2.71-4.197 0-4.197s-2.71 4.197 0 4.197m-2.552-3.784c2.71 0 2.71-4.197 0-4.197s-2.71 4.197 0 4.197m-2.777 1.162c1.162 0 1.162-1.8 0-1.8s-1.162 1.8 0 1.8m5.929-1.762c1.162 0 1.162-1.799 0-1.799s-1.162 1.8 0 1.8m1.989.749c1.162 0 1.162-1.8 0-1.8s-1.162 1.8 0 1.8"/><path d="M117.656 56.282c1.162 0 1.162-1.8 0-1.8s-1.162 1.8 0 1.8"/><path d="M119.683 55.195c2.323 0 2.323-3.597 0-3.597-2.324 0-2.324 3.597 0 3.597m-3.903-.225c1.548 0 1.548-2.398 0-2.398-1.549 0-1.549 2.398 0 2.398"/><path d="M116.793 52.534c3.098 0 3.098-4.796 0-4.796s-3.098 4.796 0 4.796m4.203-.936c1.936 0 1.936-2.998 0-2.998s-1.936 2.998 0 2.998"/><path d="M119.495 48.75c1.162 0 1.162-1.799 0-1.799s-1.162 1.799 0 1.799m-2.027-1.124c1.936 0 1.936-2.998 0-2.998-1.935 0-1.935 2.998 0 2.998m5.067.862c2.71 0 2.71-4.197 0-4.197s-2.71 4.197 0 4.197"/><path d="M119.795 45.64c1.549 0 1.549-2.398 0-2.398-1.548 0-1.548 2.398 0 2.398m-6.417 8.094c1.549 0 1.549-2.399 0-2.399-1.548 0-1.548 2.399 0 2.399m6.042-10.567c1.548 0 1.548-2.398 0-2.398-1.549 0-1.549 2.398 0 2.398m2.777.862c1.936 0 1.936-2.998 0-2.998s-1.936 2.998 0 2.998m2.401.599c1.162 0 1.162-1.799 0-1.799-1.161 0-1.161 1.799 0 1.799"/><path d="M125.5 42.792c2.71 0 2.71-4.197 0-4.197-2.711 0-2.711 4.197 0 4.197m-4.241-1.724c1.935 0 1.935-2.997 0-2.997-1.936 0-1.936 2.997 0 2.997"/><path d="M123.81 38.558c3.098 0 3.098-4.797 0-4.797-3.097 0-3.097 4.797 0 4.797"/><path d="M127.526 38.932c1.935 0 1.935-2.997 0-2.997-1.936 0-1.936 2.997 0 2.997m-.338-3.484c1.162 0 1.162-1.799 0-1.799s-1.162 1.799 0 1.799"/><path d="M129.74 36.647c1.935 0 1.935-2.998 0-2.998-1.936 0-1.936 2.998 0 2.998m-3.79-3.073c2.71 0 2.71-4.197 0-4.197s-2.71 4.197 0 4.197m4.84.038c3.485 0 3.485-5.396 0-5.396s-3.485 5.396 0 5.396"/><path d="M127.45 29.452c1.936 0 1.936-2.997 0-2.997-1.935 0-1.935 2.997 0 2.997"/><path d="M130.678 27.841c3.485 0 3.485-5.396 0-5.396s-3.485 5.396 0 5.396"/><path d="M133.905 29.078c1.549 0 1.549-2.399 0-2.399-1.548 0-1.548 2.399 0 2.399m1.426-2.736c1.936 0 1.936-2.998 0-2.998s-1.936 2.998 0 2.998m-1.238-3.11c1.548 0 1.548-2.398 0-2.398-1.549 0-1.549 2.398 0 2.398m-2.627-.899c1.548 0 1.548-2.398 0-2.398-1.549 0-1.549 2.398 0 2.398"/></g></svg>