<svg width="85" height="20" viewBox="0 0 85 20" xmlns="http://www.w3.org/2000/svg"><title>Logo</title><path d="M12.634 19.575V.55h2.359v16.853h7.395v2.172zm46.133-2.235c2.835 0 3.666-1.374 3.666-3.534 0-2.406-1.393-3.216-3.593-3.216h-3.325v6.75h3.252zm-3.3-14.606v5.622h2.175c2.249 0 2.982-1.522 2.982-2.897 0-1.84-1.173-2.725-2.737-2.725h-2.42zM53.145.55h4.742c3.349 0 5.108 1.988 5.108 4.91 0 1.57-.44 2.627-1.344 3.559 2.052.638 3.153 2.332 3.153 4.762 0 4.026-2.249 5.793-6.087 5.793h-5.572V.55zM37.45.37l-6.232 19.025h2.438L37.45 7.096l3.794 12.299h2.438zM.114 19.575H2.5V.55H.114zM80.236 8.617c-2.347-.243-4.597-.22-4.597-2.819 0-1.87.508-3.061 3.097-3.061 2.318 0 2.852 1.09 2.974 2.616l2.338-.63C83.71 2.04 82.173.55 78.736.55c-3.92 0-5.492 1.798-5.492 5.273 0 3.571 2.492 4.64 4.67 4.81 2.322.195 4.33.243 4.33 3.305 0 2.187-.509 3.377-3.025 3.377h-.46c-2.394 0-3.096-1.215-3.217-2.794h-.008l-2.422.652c.366 2.784 2.12 4.401 5.672 4.401h.46c3.846 0 5.37-1.724 5.37-5.758 0-3.911-2.225-4.98-4.378-5.2" fill="#231F20" fill-rule="evenodd"/></svg>