<?xml version="1.0" encoding="UTF-8"?>
<svg width="99px" height="111px" viewBox="0 0 99 111" version="1.1" xmlns="http://www.w3.org/2000/svg" xmlns:xlink="http://www.w3.org/1999/xlink">
    <!-- Generator: Sketch 43.2 (39069) - http://www.bohemiancoding.com/sketch -->
    <title>portal-how-1</title>
    <desc>Created with Sketch.</desc>
    <defs></defs>
    <g id="Visual-1" stroke="none" stroke-width="1" fill="none" fill-rule="evenodd">
        <g id="02_Case-Study-Portal" transform="translate(-253.000000, -2122.000000)">
            <g id="solution" transform="translate(205.000000, 2051.000000)">
                <g id="1" transform="translate(0.000000, 72.000000)">
                    <g id="portal-how-1" transform="translate(49.000000, 0.000000)">
                        <circle id="Oval-3" stroke="#2866DC" stroke-width="2" cx="48.5" cy="60.5" r="48.5"></circle>
                        <g id="Page-1" transform="translate(26.000000, 48.000000)">
                            <path d="M0.7505,14.5253896 C0.7505,14.5253896 2.0005,4.04769781 6.5005,2.52586646 C11.0005,1.0040351 24.3105,0.417778837 31.2505,1.0040351 C38.1905,1.59122788 42.375,2.81899459 44,14.5253896 C44,14.5253896 26,17.843263 0.7505,14.5253896 Z" id="Fill-1" fill="#CEDAF2"></path>
                            <path d="M22.5,22.9829 C26.494,22.9829 30.426,22.9899 33.874,23.0029 L34.005,23.0029 L34.007,23.0029 C38.045,23.0029 40.835,22.2589 42.303,20.7879 C43.604,19.4819 43.601,17.8639 43.599,16.7919 C43.594,14.7999 43.342,12.3109 41.535,7.6149 C39.833,3.1899 36.527,2.3459 34.938,1.9399 L34.856,1.9179 C34.009,1.7009 29.289,1.5019 22.831,1.4099 C22.798,1.4099 22.769,1.4089 22.736,1.4039 L22.51,1.4069 L22.492,1.4069 L22.262,1.4039 C22.231,1.4089 22.202,1.4099 22.171,1.4099 C15.713,1.5019 10.993,1.7009 10.144,1.9179 L10.062,1.9399 C8.473,2.3459 5.167,3.1899 3.467,7.6149 C1.66,12.3109 1.408,14.7999 1.403,16.7919 C1.399,17.8639 1.396,19.4819 2.699,20.7879 C4.165,22.2589 6.956,23.0029 10.996,23.0029 L11.127,23.0029 C14.574,22.9899 18.506,22.9829 22.5,22.9829 M34.007,24.4069 L34.005,24.4069 L33.869,24.4049 C30.423,24.3919 26.491,24.3839 22.5,24.3839 C18.509,24.3839 14.577,24.3919 11.132,24.4049 L10.996,24.4069 C6.57,24.4069 3.446,23.5199 1.706,21.7789 C-0.006,20.0599 -0.003,17.9319 3.84581256e-13,16.7889 C0.003,14.6619 0.269,12.0199 2.156,7.1119 C4.119,2.0119 8.041,1.0079 9.715,0.5819 L9.797,0.5599 C11.186,0.2029 18.739,0.0589 22.045,0.0099 C22.084,0.0029 22.126,-0.000100000001 22.169,-0.000100000001 L22.5,0.0029 L22.831,-0.000100000001 C22.874,-0.000100000001 22.918,0.0029 22.959,0.0099 C26.268,0.0589 33.814,0.2029 35.205,0.5599 L35.285,0.5819 C36.961,1.0079 40.881,2.0119 42.844,7.1119 C44.731,12.0199 44.997,14.6619 45,16.7889 C45.003,17.9319 45.01,20.0619 43.296,21.7789 C41.556,23.5199 38.43,24.4069 34.007,24.4069" id="Fill-3" fill="#2866DC"></path>
                            <path d="M35.0161,21.448 C34.9051,21.451 26.9031,21.597 20.2551,21.597 C16.8941,21.597 13.7221,21.558 11.7631,21.448 C6.1191,21.127 4.7311,20.191 4.5121,20.006 L5.4101,18.93 C5.4101,18.93 5.4031,18.923 5.3831,18.912 C5.3971,18.92 6.6431,19.752 11.8431,20.049 C17.6211,20.377 34.8191,20.051 34.9871,20.047" id="Fill-6" fill="#2866DC"></path>
                            <path d="M40.2946,18.327 C39.4186,19.493 37.8796,19.724 37.8556,19.728 C37.8176,19.733 37.7886,19.752 37.7516,19.764 L38.2336,21.083 C38.7746,20.976 40.3746,20.557 41.4156,19.167 L40.2946,18.327 Z" id="Fill-8" fill="#2866DC"></path>
                            <path d="M26.7922,9.3658 C26.7922,8.9558 26.4612,8.6258 26.0522,8.6258 L18.9502,8.6258 C18.5422,8.6258 18.2092,8.9558 18.2092,9.3658 C18.2092,9.7758 18.5422,10.1058 18.9502,10.1058 L26.0522,10.1058 C26.4612,10.1058 26.7922,9.7758 26.7922,9.3658" id="Fill-10" fill="#2866DC"></path>
                        </g>
                        <circle id="Oval-2" stroke="#2866DC" stroke-width="2" fill="#FFFFFF" cx="49" cy="12" r="12"></circle>
                        <polygon id="1" fill="#2866DC" points="49.086 18 49.086 7.776 46.368 9.486 46.368 7.2 49.266 5.4 51.102 5.4 51.102 18"></polygon>
                    </g>
                </g>
            </g>
        </g>
    </g>
</svg>