<svg width="333" height="215" viewBox="0 0 333 215" xmlns="http://www.w3.org/2000/svg"><title>portal-desk</title><g fill="none" fill-rule="evenodd"><path d="M242.397 10.428l-7.652-.544a147.866 147.866 0 0 0-22.128.31s-14.915 1.79-20.077 1.79h-.42c-5.165 0-20.082-1.79-20.082-1.79a147.83 147.83 0 0 0-22.126-.31l-7.01.544a2.479 2.479 0 0 0-2.295 2.9s.496 29.998 2.966 39.617c2.472 9.623 6.13 23.877 6.13 23.877.942 5.396.952 10.92.036 16.32a16.921 16.921 0 0 1-3.676 7.972c-.255.305.017.728.411.788.347.052.676.211.941.481 2.894 2.967 9.583 11.587 12.211 29.933.121.834-.311 1.626-.663 2.39l-6.344 9.41h79.268l-6.197-9.399c-.342-.772-.776-1.562-.653-2.398 2.69-18.71 9.238-26.993 12.156-29.848.208-.202.449-.344.7-.43.501-.166.879-.7.549-1.113a16.914 16.914 0 0 1-3.524-7.786 48.19 48.19 0 0 1 .032-16.32l6.134-23.877c2.47-9.62 3.606-39.617 3.606-39.617a2.478 2.478 0 0 0-2.293-2.9" fill="#759198"/><path d="M242.397 10.428l-7.652-.544a147.866 147.866 0 0 0-22.128.31s-14.915 1.79-20.077 1.79h-.42c-5.165 0-20.082-1.79-20.082-1.79a147.83 147.83 0 0 0-22.126-.31l-7.01.544a2.479 2.479 0 0 0-2.295 2.9s.496 29.998 2.966 39.617c2.472 9.623 6.13 23.877 6.13 23.877.942 5.396.952 10.92.036 16.32a16.921 16.921 0 0 1-3.676 7.972c-.255.305.017.728.411.788.347.052.676.211.941.481 2.894 2.967 9.583 11.587 12.211 29.933.121.834-.311 1.626-.663 2.39l-6.344 9.41h79.268l-6.197-9.399c-.342-.772-.776-1.562-.653-2.398 2.69-18.71 9.238-26.993 12.156-29.848.208-.202.449-.344.7-.43.501-.166.879-.7.549-1.113a16.914 16.914 0 0 1-3.524-7.786 48.19 48.19 0 0 1 .032-16.32l6.134-23.877c2.47-9.62 3.606-39.617 3.606-39.617a2.478 2.478 0 0 0-2.293-2.9z" stroke="#254053" stroke-width="3.994"/><path d="M185.932 133.027c-9.768-7.783-29.775-15.341-29.775-15.341-8.992-3.01-17.916-4.004-23.377.564l.353.069a12.54 12.54 0 0 1 9.292 7.995l7.795 21.501c-.722 1.86.623 4 2.753 4h33.192c9.041-4.36 23.02-13.313-.233-18.788" fill="#000"/><path d="M130.565 114.864s.744.26 1.958.689a12.24 12.24 0 0 0-1.958-.69" fill="#F2D541"/><path d="M245.014 67.862a6.413 6.413 0 0 1-6.415 6.408H146.05a6.411 6.411 0 0 1-6.415-6.408V12.918c0-3.54 2.87-6.412 6.415-6.412h92.55a6.415 6.415 0 0 1 6.415 6.412v54.944z" fill="#F6F6F6"/><path fill="#D1E0E3" d="M21.405 213.983h287.333V104.849H21.405z"/><path stroke="#274154" stroke-width="4" d="M21.405 213.983h287.333V104.849H21.405z"/><path fill="#264053" d="M275.947 106.794H59.197v107.188h18.837V124.01h197.913z"/><path fill="#8CA5AA" d="M259.832 214.046h40.57V106.518h-40.57z"/><path stroke="#264154" stroke-width="3.994" d="M259.832 214.046h40.57V106.518h-40.57z"/><path fill="#8CA5AA" d="M29.185 214.046h40.57V106.518h-40.57z"/><path stroke="#264153" stroke-width="3.994" d="M29.185 214.046h40.57V106.518h-40.57z"/><path fill="#D1E0E3" d="M2.51 111.237h328.46v-13.33H2.51z"/><path stroke="#264154" stroke-width="4" d="M2.51 111.237h328.46v-13.33H2.51z"/><path d="M101.356 95.365c.03.224.223.394.455.394h18.418c.226 0 .417-.17.446-.394l3.357-25.625H97.997l3.359 25.625z" fill="#759198"/><path d="M101.356 95.365c.03.224.223.394.455.394h18.418c.226 0 .417-.17.446-.394l3.357-25.625H97.997l3.359 25.625z" stroke="#2F545C" stroke-width="1.997"/><path fill="#F8F8F8" d="M99.138 78.433l-.48-3.664h24.715l-.475 3.664z"/><path d="M101.356 95.365c.03.224.223.394.455.394h18.418c.226 0 .417-.17.446-.394l3.357-25.625H97.997l3.359 25.625z" stroke="#2F545C" stroke-width="1.997"/><path d="M96.157 68.583c0 1.081.873 2.518 1.958 2.518h25.802c1.084 0 1.961-1.645 1.961-2.726 0-1.08-.877-2.309-1.96-2.309H98.114c-1.085 0-1.958 1.438-1.958 2.517" fill="#FFF"/><path d="M96.157 68.583c0 1.081.873 2.518 1.958 2.518h25.802c1.084 0 1.961-1.645 1.961-2.726 0-1.08-.877-2.309-1.96-2.309H98.114c-1.085 0-1.958 1.438-1.958 2.517z" stroke="#2F545C" stroke-width="1.997"/><path d="M245.014 67.862a6.413 6.413 0 0 1-6.415 6.408H146.05a6.411 6.411 0 0 1-6.415-6.408V12.918c0-3.54 2.87-6.412 6.415-6.412h92.55a6.415 6.415 0 0 1 6.415 6.412v54.944z" stroke="#264154" stroke-width="3.994"/><path d="M206.905 90.958c0 2.031-1.722 3.678-3.846 3.678H181.59c-2.124 0-3.844-1.647-3.844-3.678V45.175c0-2.03 1.72-3.677 3.844-3.677h21.468c2.124 0 3.846 1.647 3.846 3.677v45.783z" fill="#F6F6F6"/><path d="M206.905 90.958c0 2.031-1.722 3.678-3.846 3.678H181.59c-2.124 0-3.844-1.647-3.844-3.678V45.175c0-2.03 1.72-3.677 3.844-3.677h21.468c2.124 0 3.846 1.647 3.846 3.677v45.783z" stroke="#264154" stroke-width="3.994"/><path d="M218.335 95.01a2.03 2.03 0 0 1-2.031 2.027h-47.96a2.03 2.03 0 0 1-2.028-2.027v-1.144c0-1.122.911-2.028 2.028-2.028h47.96a2.03 2.03 0 0 1 2.031 2.028v1.144z" fill="#F6F6F6"/><path d="M218.335 95.01a2.03 2.03 0 0 1-2.031 2.027h-47.96a2.03 2.03 0 0 1-2.028-2.027v-1.144c0-1.122.911-2.028 2.028-2.028h47.96a2.03 2.03 0 0 1 2.031 2.028v1.144z" stroke="#254053" stroke-width="3.994"/><path fill="#264053" d="M20.282 122.964h49.661V112.07H20.282z"/><path fill="#264154" d="M308.559 113.07h-49.662v10.893h43.14v89.284h4.987v-89.284h1.535z"/><path fill="#848484" d="M57.512 16.216l.716 2.458 7.863-2.295-.72-2.46z"/><path d="M49.785 94.087h-3.553v-1.336c0-.702-.57-1.27-1.27-1.27h-1.94a1.27 1.27 0 0 0-1.272 1.27v1.336H30.81v-4.056h-4.055v4.056h-2.462a2.464 2.464 0 0 0-2.464 2.464v1.592h30.418v-1.592a2.463 2.463 0 0 0-2.462-2.464" fill="#A3B8BD"/><path d="M49.785 94.087h-3.553v-1.336c0-.702-.57-1.27-1.27-1.27h-1.94a1.27 1.27 0 0 0-1.272 1.27v1.336H30.81v-4.056h-4.055v4.056h-2.462a2.464 2.464 0 0 0-2.464 2.464v1.592h30.418v-1.592a2.463 2.463 0 0 0-2.462-2.464z" stroke="#264154" stroke-width="3"/><path fill="#35495E" d="M28.87 84.78l-1.581.721L6.621 40.243l1.578-.722z"/><path stroke="#2F545C" stroke-width=".75" d="M28.87 84.78l-1.581.721L6.621 40.243l1.578-.722z"/><path fill="#35495E" d="M26.03 86.95l-1.582.723-20.67-45.26 1.581-.722z"/><path stroke="#2F545C" stroke-width=".75" d="M26.03 86.95l-1.582.723-20.67-45.26 1.581-.722z"/><path fill="#35495E" d="M10.072 39.595l-.686-1.597L55.1 18.355l.687 1.595z"/><path stroke="#2F545C" stroke-width=".75" d="M10.072 39.595l-.686-1.597L55.1 18.355l.687 1.595z"/><path fill="#35495E" d="M7.97 36.706l-.687-1.597 45.71-19.644.688 1.596z"/><path stroke="#2F545C" stroke-width=".75" d="M7.97 36.706l-.687-1.597 45.71-19.644.688 1.596z"/><path d="M7.748 34.16a1.857 1.857 0 0 0-2.838.862l-2.42 6.593a1.858 1.858 0 0 0 1.608 2.494l2.974.217a3.267 3.267 0 0 0 3.305-2.131l.924-2.515a3.267 3.267 0 0 0-1.142-3.763L7.748 34.16z" fill="#35495E"/><path d="M7.748 34.16a1.857 1.857 0 0 0-2.838.862l-2.42 6.593a1.858 1.858 0 0 0 1.608 2.494l2.974.217a3.267 3.267 0 0 0 3.305-2.131l.924-2.515a3.267 3.267 0 0 0-1.142-3.763L7.748 34.16z" stroke="#2F545C" stroke-width=".75"/><path d="M8.827 38.432a.886.886 0 1 0 1.774 0 .887.887 0 0 0-1.774 0m-3.041-2.68a.887.887 0 1 0 1.774.004.887.887 0 0 0-1.774-.004M3.378 42.2a.887.887 0 1 0 1.774-.003.887.887 0 0 0-1.774.002m3.693.145c0 .49.395.887.888.887a.886.886 0 1 0-.888-.887" fill="#AAA"/><path d="M76.418 13.992L70.614 3.527a3.106 3.106 0 0 0-4.224-1.21l-.173.096-.433-.777a1.722 1.722 0 0 0-2.338-.67L59.294 3.27a1.716 1.716 0 0 0-.67 2.337l.43.776-.173.098a3.106 3.106 0 0 0-1.212 4.225l5.806 10.465.382 23.295 32.119-17.811-19.558-12.662z" fill="#A3B8BD"/><path d="M76.418 13.992L70.614 3.527a3.106 3.106 0 0 0-4.224-1.21l-.173.096-.433-.777a1.722 1.722 0 0 0-2.338-.67L59.294 3.27a1.716 1.716 0 0 0-.67 2.337l.43.776-.173.098a3.106 3.106 0 0 0-1.212 4.225l5.806 10.465.382 23.295 32.119-17.811-19.558-12.662z" stroke="#2F545C" stroke-width="1.5"/><path d="M59.121 21.088c1.656-.477 2.174-2.568.936-3.766l-3.79-3.656c-1.237-1.195-3.305-.599-3.716 1.071l-1.259 5.112c-.412 1.674 1.14 3.167 2.797 2.69l5.032-1.45z" fill="#35495E"/><path d="M59.121 21.088c1.656-.477 2.174-2.568.936-3.766l-3.79-3.656c-1.237-1.195-3.305-.599-3.716 1.071l-1.259 5.112c-.412 1.674 1.14 3.167 2.797 2.69l5.032-1.45z" stroke="#2F545C" stroke-width=".75"/><path d="M53.584 15.511c.173.616.816.97 1.432.795.615-.178.969-.82.794-1.436a1.16 1.16 0 0 0-1.437-.791 1.153 1.153 0 0 0-.79 1.433m-1.311 5.126c.175.614.817.97 1.434.792.614-.177.966-.818.793-1.434a1.163 1.163 0 0 0-1.437-.793 1.157 1.157 0 0 0-.79 1.435m5.081-1.464c.175.615.817.97 1.433.793a1.16 1.16 0 1 0-.644-2.228 1.158 1.158 0 0 0-.789 1.435" fill="#AAA"/><path d="M31.11 90.405c1.726 0 2.803-1.864 1.942-3.36l-2.627-4.562c-.857-1.49-3.008-1.49-3.866 0l-2.628 4.562c-.86 1.496.218 3.36 1.942 3.36h5.236z" fill="#35495E"/><path d="M31.11 90.405c1.726 0 2.803-1.864 1.942-3.36l-2.627-4.562c-.857-1.49-3.008-1.49-3.866 0l-2.628 4.562c-.86 1.496.218 3.36 1.942 3.36h5.236z" stroke="#2F545C" stroke-width=".75"/><path d="M27.334 83.513a1.16 1.16 0 1 0 2.318 0 1.16 1.16 0 0 0-2.318 0m-2.681 4.563a1.16 1.16 0 1 0 2.32-.003 1.16 1.16 0 0 0-2.32.003m5.287 0a1.16 1.16 0 1 0 2.32-.003 1.16 1.16 0 0 0-2.32.003" fill="#AAA"/><path d="M70.308 4.503c-.769-1.386-2.046-2.334-3.43-1.565l-.981.47-.4-.718c-.423-.767-.69-1.734-2.038-.902L60.1 3.65c-.816.363-1.2 1.004-.771 1.77l.721 1.169-.191.149c-1.387.768-2.846 1.892-.962 4.62l5.32 9.594 11.52-6.691-5.428-9.758z" fill="#FFF"/><g transform="translate(267 72)"><path d="M2.622 23.77s-2.238-.262-1.493-3.908C2.174 18.609 6.34 14.178 16.012 14h10.985c9.672.178 13.838 4.609 14.883 5.862.745 3.646-1.493 3.907-1.493 3.907H2.622z" stroke="#2F545C" stroke-width="1.955" fill="#FFF"/><ellipse fill="#81D854" cx="12.5" cy="17.5" rx="1.5" ry=".5"/><path d="M1.13 20.446h40.75" stroke="#2F545C" stroke-width="1.955"/><path d="M18.242 9.052s3.606-2.604 7.819 0M15.636 5.96s6.01-4.528 13.03 0M13.03 2.976s8.414-6.695 18.243 0" stroke="#81D854" stroke-width="1.303" stroke-linecap="round"/></g></g></svg>