<svg width="99" height="111" viewBox="0 0 99 111" xmlns="http://www.w3.org/2000/svg"><title>Group 30</title><g transform="translate(1 1)" fill="none" fill-rule="evenodd"><circle stroke="#2866DC" stroke-width="2" cx="48.5" cy="60.5" r="48.5"/><path d="M65.29 70.775H26.75v-20.95c0-1.09.883-1.973 1.973-1.973h34.592c1.09 0 1.974.883 1.974 1.973v20.95z" fill="#CEDAF2"/><path d="M66.04 57.46h-1.5v-7.635c0-.674-.55-1.222-1.224-1.222h-23.47v-1.5h23.47a2.726 2.726 0 0 1 2.724 2.722v7.636zm-30.967-8.857h2.884v-1.5h-2.884z" fill="#2866DC"/><path d="M65.29 71.525H26v-21.7a2.727 2.727 0 0 1 2.724-2.723h4.917v1.5h-4.917c-.675 0-1.224.55-1.224 1.223v20.2h37.79v1.5z" fill="#2866DC"/><path fill="#FFF" d="M29 68.106h34.4V50H29z"/><path fill="#0686D8" d="M44 59.787h4.074v-1.5H44z"/><path fill="#2866DC" d="M44 59.787h4.074v-1.5H44z"/><path fill="#2866DC" d="M45.287 61.074h1.5V57h-1.5z"/><path fill="#2866DC" d="M45.287 61.074h1.5V57h-1.5z"/><path fill="#CEDAF2" d="M40.214 77.686h11.611v-3.437H40.214z"/><path d="M40.964 80.373h10.111V75H40.964v5.373zm-1.499 1.5h13.111V73.5H39.465v8.373z" fill="#0686D8"/><path d="M65.29 69.933H26.75v3.205a2 2 0 0 0 2 2h34.54a2 2 0 0 0 2-2v-3.205z" fill="#FFF"/><path d="M54.885 75.889H28.75a2.752 2.752 0 0 1-2.75-2.75v-3.955h28.885v1.5H27.5v2.455c0 .689.56 1.25 1.25 1.25h26.135v1.5z" fill="#2866DC"/><path fill="#0686D8" d="M37.957 82.002h16.277v-1.5H37.957z"/><path d="M68.334 81.251H58.032c-.766 0-1.39-.623-1.39-1.39V60.196c0-.767.623-1.39 1.39-1.39h10.302a1.39 1.39 0 0 1 1.39 1.39v19.665a1.39 1.39 0 0 1-1.39 1.39" fill="#FFF"/><path fill="#CEDAF2" d="M57.812 77.067h10.742V62.506H57.812z"/><path d="M58.033 59.557a.64.64 0 0 0-.641.64v19.665c0 .353.287.64.64.64h10.302a.64.64 0 0 0 .64-.64V60.197a.64.64 0 0 0-.64-.64H58.033zm10.3 22.445h-10.3a2.143 2.143 0 0 1-2.141-2.14V60.197c0-1.18.96-2.14 2.14-2.14h10.302c1.18 0 2.14.96 2.14 2.14v19.665c0 1.18-.96 2.14-2.14 2.14z" fill="#2866DC"/><path fill="#2866DC" d="M60.646 61.688h5.074v-1.5h-5.074zm2.537 16.869a.205.205 0 0 0-.205.205c0 .227.41.227.41 0a.205.205 0 0 0-.205-.205m0 1.5a1.297 1.297 0 0 1-1.295-1.295 1.296 1.296 0 1 1 1.295 1.295"/><circle stroke="#2866DC" stroke-width="2" fill="#FFF" cx="49" cy="12" r="12"/><path d="M44.784 13.878l2.052-.432c.132.984.417 1.719.855 2.205s1.059.729 1.863.729c.78 0 1.38-.186 1.8-.558.42-.372.63-.87.63-1.494 0-1.392-.852-2.088-2.556-2.088h-.774v-1.71h.612c.588 0 1.101-.132 1.539-.396.438-.264.657-.702.657-1.314 0-.552-.177-.99-.531-1.314-.354-.324-.843-.486-1.467-.486-1.188 0-1.89.69-2.106 2.07l-1.944-.36c.108-1.104.534-1.98 1.278-2.628.744-.648 1.692-.972 2.844-.972 1.14 0 2.076.312 2.808.936.732.624 1.098 1.494 1.098 2.61 0 .66-.174 1.194-.522 1.602-.348.408-.726.69-1.134.846v.054c.6.168 1.125.531 1.575 1.089.45.558.675 1.281.675 2.169 0 1.152-.399 2.079-1.197 2.781s-1.887 1.053-3.267 1.053c-1.332 0-2.421-.366-3.267-1.098-.846-.732-1.353-1.83-1.521-3.294z" fill="#2866DC"/></g></svg>