<?xml version="1.0" encoding="UTF-8"?>
<svg width="333px" height="215px" viewBox="0 0 333 215" version="1.1" xmlns="http://www.w3.org/2000/svg" xmlns:xlink="http://www.w3.org/1999/xlink">
    <!-- Generator: Sketch 39.1 (31720) - http://www.bohemiancoding.com/sketch -->
    <title>portal-desk</title>
    <desc>Created with Sketch.</desc>
    <defs></defs>
    <g id="Visual-1" stroke="none" stroke-width="1" fill="none" fill-rule="evenodd">
        <g id="02_Case-Study-Portal" transform="translate(-553.000000, -2796.000000)">
            <g id="Challenge" transform="translate(0.000000, 2354.000000)">
                <g id="portal-desk" transform="translate(555.000000, 442.000000)">
                    <path d="M240.396855,10.4281101 L232.745176,9.88402752 C225.370385,9.4343945 217.972964,9.53815596 210.61681,10.1939817 C210.61681,10.1939817 195.70216,11.9832018 190.539806,11.9832018 L190.120482,11.9832018 C184.955466,11.9832018 170.038154,10.1939817 170.038154,10.1939817 C162.683331,9.53815596 155.285909,9.4343945 147.91245,9.88402752 L140.902405,10.4281101 C139.424784,10.5159083 138.354507,11.8687982 138.607433,13.3281101 C138.607433,13.3281101 139.102636,43.3258165 141.573324,52.9450367 C144.045343,62.5682477 147.703453,76.8221468 147.703453,76.8221468 C148.644604,82.2177431 148.655253,87.7423761 147.739395,93.1419633 C147.233543,96.1058165 145.946282,98.8515046 144.062649,101.114303 C143.808392,101.418936 144.079954,101.841963 144.473986,101.901826 C144.821427,101.953706 145.150231,102.113339 145.415138,102.383385 C148.309144,105.349899 154.998372,113.970083 157.626141,132.315908 C157.747279,133.149991 157.314642,133.941505 156.963208,134.706413 L150.618758,144.11545 L229.887112,144.11545 L223.690424,134.717055 C223.348308,133.945495 222.91434,133.155312 223.03681,132.318569 C225.727144,113.609578 232.275266,105.325954 235.193234,102.471183 C235.4009,102.268982 235.641845,102.126642 235.89344,102.041505 C236.393967,101.87522 236.772025,101.34045 236.44189,100.928064 C234.643453,98.7011835 233.408109,96.026 232.918231,93.1419633 C232.001041,87.7423761 232.011691,82.2177431 232.950179,76.8221468 C232.950179,76.8221468 236.612282,62.5682477 239.084302,52.9450367 C241.553659,43.3258165 242.690495,13.3281101 242.690495,13.3281101 C242.944752,11.8687982 241.873144,10.5159083 240.396855,10.4281101" id="Fill-5" fill="#759198"></path>
                    <path d="M240.396855,10.4281101 L232.745176,9.88402752 C225.370385,9.4343945 217.972964,9.53815596 210.61681,10.1939817 C210.61681,10.1939817 195.70216,11.9832018 190.539806,11.9832018 L190.120482,11.9832018 C184.955466,11.9832018 170.038154,10.1939817 170.038154,10.1939817 C162.683331,9.53815596 155.285909,9.4343945 147.91245,9.88402752 L140.902405,10.4281101 C139.424784,10.5159083 138.354507,11.8687982 138.607433,13.3281101 C138.607433,13.3281101 139.102636,43.3258165 141.573324,52.9450367 C144.045343,62.5682477 147.703453,76.8221468 147.703453,76.8221468 C148.644604,82.2177431 148.655253,87.7423761 147.739395,93.1419633 C147.233543,96.1058165 145.946282,98.8515046 144.062649,101.114303 C143.808392,101.418936 144.079954,101.841963 144.473986,101.901826 C144.821427,101.953706 145.150231,102.113339 145.415138,102.383385 C148.309144,105.349899 154.998372,113.970083 157.626141,132.315908 C157.747279,133.149991 157.314642,133.941505 156.963208,134.706413 L150.618758,144.11545 L229.887112,144.11545 L223.690424,134.717055 C223.348308,133.945495 222.91434,133.155312 223.03681,132.318569 C225.727144,113.609578 232.275266,105.325954 235.193234,102.471183 C235.4009,102.268982 235.641845,102.126642 235.89344,102.041505 C236.393967,101.87522 236.772025,101.34045 236.44189,100.928064 C234.643453,98.7011835 233.408109,96.026 232.918231,93.1419633 C232.001041,87.7423761 232.011691,82.2177431 232.950179,76.8221468 C232.950179,76.8221468 236.612282,62.5682477 239.084302,52.9450367 C241.553659,43.3258165 242.690495,13.3281101 242.690495,13.3281101 C242.944752,11.8687982 241.873144,10.5159083 240.396855,10.4281101 L240.396855,10.4281101 Z" id="Stroke-7" stroke="#254053" stroke-width="3.99356913"></path>
                    <path d="M183.931781,133.026541 C174.163511,125.244431 154.15706,117.685807 154.15706,117.685807 C145.164874,114.676725 136.240578,113.681679 130.780038,118.249844 L131.132803,118.319018 C135.40326,119.179706 138.940231,122.222046 140.424507,126.313972 L148.219954,147.815211 C147.49845,149.674936 148.842951,151.815349 150.972855,151.815349 L184.164739,151.815349 C193.206179,147.454706 207.185003,138.501954 183.931781,133.026541" id="Fill-39" fill="#000000"></path>
                    <path d="M128.565205,114.863894 C128.565205,114.863894 129.30934,115.123298 130.523385,115.552977 C129.916362,115.27894 129.26541,115.046142 128.565205,114.863894" id="Fill-87" fill="#F2D541"></path>
                    <path d="M243.013707,67.8624771 C243.013707,71.3996789 240.141,74.2704128 236.598704,74.2704128 L144.050402,74.2704128 C140.505444,74.2704128 137.635399,71.3996789 137.635399,67.8624771 L137.635399,12.9181193 C137.635399,9.37825688 140.505444,6.50619266 144.050402,6.50619266 L236.598704,6.50619266 C240.141,6.50619266 243.013707,9.37825688 243.013707,12.9181193 L243.013707,67.8624771 Z" id="Fill-95" fill="#F6F6F6"></path>
                    <polygon id="Fill-97" fill="#D1E0E3" points="19.405119 213.982569 306.738424 213.982569 306.738424 104.84945 19.405119 104.84945"></polygon>
                    <polygon id="Stroke-99" stroke="#274154" stroke-width="4" points="19.405119 213.982569 306.738424 213.982569 306.738424 104.84945 19.405119 104.84945"></polygon>
                    <polygon id="Fill-100" fill="#264053" points="273.946962 106.793913 57.1973286 106.793913 57.1973286 213.98217 76.033663 213.98217 76.033663 124.010335 273.946962 124.010335"></polygon>
                    <polygon id="Fill-101" fill="#8CA5AA" points="257.831846 214.046422 298.402514 214.046422 298.402514 106.517615 257.831846 106.517615"></polygon>
                    <polygon id="Stroke-102" stroke="#264154" stroke-width="3.99356913" points="257.831846 214.046422 298.402514 214.046422 298.402514 106.517615 257.831846 106.517615"></polygon>
                    <polygon id="Fill-103" fill="#8CA5AA" points="27.1845916 214.046422 67.7552605 214.046422 67.7552605 106.517615 27.1845916 106.517615"></polygon>
                    <polygon id="Stroke-104" stroke="#264153" stroke-width="3.99356913" points="27.1845916 214.046422 67.7552605 214.046422 67.7552605 106.517615 27.1845916 106.517615"></polygon>
                    <polygon id="Fill-105" fill="#D1E0E3" points="0.510212219 111.237431 328.969293 111.237431 328.969293 97.9067431 0.510212219 97.9067431"></polygon>
                    <polygon id="Stroke-106" stroke="#264154" stroke-width="4" points="0.510212219 111.237431 328.969293 111.237431 328.969293 97.9067431 0.510212219 97.9067431"></polygon>
                    <g id="Group-6" transform="translate(94.000000, 66.000000)">
                        <path d="M5.35552283,29.365055 C5.38614019,29.5885413 5.5791627,29.7588165 5.81078971,29.7588165 L24.2291305,29.7588165 C24.4554328,29.7588165 24.6457929,29.5885413 24.6750791,29.365055 L28.0323395,3.7399633 L1.99693119,3.7399633 L5.35552283,29.365055 Z" id="Fill-89" fill="#759198"></path>
                        <path d="M5.35552283,29.365055 C5.38614019,29.5885413 5.5791627,29.7588165 5.81078971,29.7588165 L24.2291305,29.7588165 C24.4554328,29.7588165 24.6457929,29.5885413 24.6750791,29.365055 L28.0323395,3.7399633 L1.99693119,3.7399633 L5.35552283,29.365055 L5.35552283,29.365055 Z" id="Stroke-91" stroke="#2F545C" stroke-width="1.99678457"></path>
                        <polygon id="Fill-93" fill="#F8F8F8" points="3.13776077 12.4326468 2.65853248 8.76906881 27.3734006 8.76906881 26.8981659 12.4326468"></polygon>
                        <path d="M5.35552283,29.365055 C5.38614019,29.5885413 5.5791627,29.7588165 5.81078971,29.7588165 L24.2291305,29.7588165 C24.4554328,29.7588165 24.6457929,29.5885413 24.6750791,29.365055 L28.0323395,3.7399633 L1.99693119,3.7399633 L5.35552283,29.365055 L5.35552283,29.365055 Z" id="Stroke-179" stroke="#2F545C" stroke-width="1.99678457"></path>
                        <path d="M0.156827653,2.58288991 C0.156827653,3.66440367 1.0300881,5.10110092 2.11500772,5.10110092 L27.9174579,5.10110092 C29.0010463,5.10110092 29.8783003,3.45555046 29.8783003,2.37536697 C29.8783003,1.29518349 29.0010463,0.0660091743 27.9174579,0.0660091743 L2.11500772,0.0660091743 C1.0300881,0.0660091743 0.156827653,1.5040367 0.156827653,2.58288991" id="Fill-180" fill="#FFFFFF"></path>
                        <path d="M0.156827653,2.58288991 C0.156827653,3.66440367 1.0300881,5.10110092 2.11500772,5.10110092 L27.9174579,5.10110092 C29.0010463,5.10110092 29.8783003,3.45555046 29.8783003,2.37536697 C29.8783003,1.29518349 29.0010463,0.0660091743 27.9174579,0.0660091743 L2.11500772,0.0660091743 C1.0300881,0.0660091743 0.156827653,1.5040367 0.156827653,2.58288991 L0.156827653,2.58288991 Z" id="Stroke-181" stroke="#2F545C" stroke-width="1.99678457"></path>
                    </g>
                    <path d="M243.013707,67.8624771 C243.013707,71.3996789 240.141,74.2704128 236.598704,74.2704128 L144.050402,74.2704128 C140.505444,74.2704128 137.635399,71.3996789 137.635399,67.8624771 L137.635399,12.9181193 C137.635399,9.37825688 140.505444,6.50619266 144.050402,6.50619266 L236.598704,6.50619266 C240.141,6.50619266 243.013707,9.37825688 243.013707,12.9181193 L243.013707,67.8624771 L243.013707,67.8624771 Z" id="Stroke-182" stroke="#264154" stroke-width="3.99356913"></path>
                    <path d="M204.904541,90.9579174 C204.904541,92.9892477 203.183313,94.6361284 201.058734,94.6361284 L179.590638,94.6361284 C177.46739,94.6361284 175.747493,92.9892477 175.747493,90.9579174 L175.747493,45.1751651 C175.747493,43.1451651 177.46739,41.4982844 179.590638,41.4982844 L201.058734,41.4982844 C203.183313,41.4982844 204.904541,43.1451651 204.904541,45.1751651 L204.904541,90.9579174 Z" id="Fill-192" fill="#F6F6F6"></path>
                    <path d="M204.904541,90.9579174 C204.904541,92.9892477 203.183313,94.6361284 201.058734,94.6361284 L179.590638,94.6361284 C177.46739,94.6361284 175.747493,92.9892477 175.747493,90.9579174 L175.747493,45.1751651 C175.747493,43.1451651 177.46739,41.4982844 179.590638,41.4982844 L201.058734,41.4982844 C203.183313,41.4982844 204.904541,43.1451651 204.904541,45.1751651 L204.904541,90.9579174 L204.904541,90.9579174 Z" id="Stroke-193" stroke="#264154" stroke-width="3.99356913"></path>
                    <path d="M216.335334,95.0098028 C216.335334,96.1285642 215.424801,97.0371422 214.303939,97.0371422 L166.343836,97.0371422 C165.226968,97.0371422 164.316434,96.1285642 164.316434,95.0098028 L164.316434,93.8657661 C164.316434,92.744344 165.226968,91.8384266 166.343836,91.8384266 L214.303939,91.8384266 C215.424801,91.8384266 216.335334,92.744344 216.335334,93.8657661 L216.335334,95.0098028 Z" id="Fill-194" fill="#F6F6F6"></path>
                    <path d="M216.335334,95.0098028 C216.335334,96.1285642 215.424801,97.0371422 214.303939,97.0371422 L166.343836,97.0371422 C165.226968,97.0371422 164.316434,96.1285642 164.316434,95.0098028 L164.316434,93.8657661 C164.316434,92.744344 165.226968,91.8384266 166.343836,91.8384266 L214.303939,91.8384266 C215.424801,91.8384266 216.335334,92.744344 216.335334,93.8657661 L216.335334,95.0098028 L216.335334,95.0098028 Z" id="Stroke-195" stroke="#254053" stroke-width="3.99356913"></path>
                    <polygon id="Fill-196" fill="#264053" points="18.2815949 122.963807 67.9429582 122.963807 67.9429582 112.070183 18.2815949 112.070183"></polygon>
                    <polygon id="Fill-197" fill="#264154" points="306.558581 113.069518 256.897217 113.069518 256.897217 123.963142 300.037082 123.963142 300.037082 213.247225 305.023719 213.247225 305.023719 123.963142 306.558581 123.963142"></polygon>
                    <g id="Page-1">
                        <polygon id="Fill-1" fill="#848484" points="55.5116 16.2156 56.2276 18.6736 64.0906 16.3786 63.3716 13.9186"></polygon>
                        <g id="Group-60" transform="translate(0.000000, 0.643300)">
                            <path d="M47.7851,93.4439 L44.2321,93.4439 L44.2321,92.1079 C44.2321,91.4059 43.6611,90.8379 42.9621,90.8379 L41.0211,90.8379 C40.3181,90.8379 39.7501,91.4059 39.7501,92.1079 L39.7501,93.4439 L28.8091,93.4439 L28.8091,89.3879 L24.7551,89.3879 L24.7551,93.4439 L22.2931,93.4439 C20.9321,93.4439 19.8291,94.5479 19.8291,95.9079 L19.8291,97.4999 L50.2471,97.4999 L50.2471,95.9079 C50.2471,94.5479 49.1451,93.4439 47.7851,93.4439" id="Fill-2" fill="#A3B8BD"></path>
                            <path d="M47.7851,93.4439 L44.2321,93.4439 L44.2321,92.1079 C44.2321,91.4059 43.6611,90.8379 42.9621,90.8379 L41.0211,90.8379 C40.3181,90.8379 39.7501,91.4059 39.7501,92.1079 L39.7501,93.4439 L28.8091,93.4439 L28.8091,89.3879 L24.7551,89.3879 L24.7551,93.4439 L22.2931,93.4439 C20.9321,93.4439 19.8291,94.5479 19.8291,95.9079 L19.8291,97.4999 L50.2471,97.4999 L50.2471,95.9079 C50.2471,94.5479 49.1451,93.4439 47.7851,93.4439 L47.7851,93.4439 Z" id="Stroke-4" stroke="#264154" stroke-width="3"></path>
                            <polygon id="Fill-6" fill="#35495E" points="26.87 84.1368 25.289 84.8578 4.621 39.5998 6.199 38.8778"></polygon>
                            <polygon id="Stroke-8" stroke="#2F545C" stroke-width="0.75" points="26.87 84.1368 25.289 84.8578 4.621 39.5998 6.199 38.8778"></polygon>
                            <polygon id="Fill-10" fill="#35495E" points="24.0292 86.3067 22.4482 87.0297 1.7782 41.7697 3.3592 41.0477"></polygon>
                            <polygon id="Stroke-12" stroke="#2F545C" stroke-width="0.75" points="24.0292 86.3067 22.4482 87.0297 1.7782 41.7697 3.3592 41.0477"></polygon>
                            <polygon id="Fill-14" fill="#35495E" points="8.0722 38.9517 7.3862 37.3547 53.1002 17.7117 53.7872 19.3067"></polygon>
                            <polygon id="Stroke-16" stroke="#2F545C" stroke-width="0.75" points="8.0722 38.9517 7.3862 37.3547 53.1002 17.7117 53.7872 19.3067"></polygon>
                            <polygon id="Fill-18" fill="#35495E" points="5.9696 36.0625 5.2826 34.4655 50.9936 14.8215 51.6806 16.4175"></polygon>
                            <polygon id="Stroke-20" stroke="#2F545C" stroke-width="0.75" points="5.9696 36.0625 5.2826 34.4655 50.9936 14.8215 51.6806 16.4175"></polygon>
                            <path d="M5.748,33.5166 C4.752,32.7886 3.337,33.2186 2.91,34.3786 L0.49,40.9716 C0.065,42.1306 0.864,43.3746 2.098,43.4656 L5.072,43.6826 C6.524,43.7896 7.878,42.9176 8.377,41.5516 L9.301,39.0366 C9.803,37.6706 9.336,36.1306 8.159,35.2736 L5.748,33.5166 Z" id="Fill-22" fill="#35495E"></path>
                            <path d="M5.748,33.5166 C4.752,32.7886 3.337,33.2186 2.91,34.3786 L0.49,40.9716 C0.065,42.1306 0.864,43.3746 2.098,43.4656 L5.072,43.6826 C6.524,43.7896 7.878,42.9176 8.377,41.5516 L9.301,39.0366 C9.803,37.6706 9.336,36.1306 8.159,35.2736 L5.748,33.5166 L5.748,33.5166 Z" id="Stroke-24" stroke="#2F545C" stroke-width="0.75"></path>
                            <path d="M6.8271,37.7891 C6.8271,38.2801 7.2231,38.6771 7.7121,38.6771 C8.2051,38.6771 8.6011,38.2801 8.6011,37.7891 C8.6011,37.3001 8.2051,36.9021 7.7121,36.9021 C7.2231,36.9021 6.8271,37.3001 6.8271,37.7891" id="Fill-26" fill="#AAAAAA"></path>
                            <path d="M3.786,35.1084 C3.786,35.5994 4.182,35.9974 4.671,35.9974 C5.164,35.9974 5.559,35.5994 5.559,35.1084 C5.559,34.6204 5.164,34.2234 4.671,34.2234 C4.182,34.2234 3.786,34.6204 3.786,35.1084" id="Fill-28" fill="#AAAAAA"></path>
                            <path d="M1.3778,41.5562 C1.3778,42.0452 1.7758,42.4422 2.2648,42.4422 C2.7548,42.4422 3.1528,42.0452 3.1528,41.5562 C3.1528,41.0662 2.7548,40.6682 2.2648,40.6682 C1.7758,40.6682 1.3778,41.0662 1.3778,41.5562" id="Fill-30" fill="#AAAAAA"></path>
                            <path d="M5.0712,41.7002 C5.0712,42.1912 5.4662,42.5872 5.9592,42.5872 C6.4482,42.5872 6.8442,42.1912 6.8442,41.7002 C6.8442,41.2112 6.4482,40.8142 5.9592,40.8142 C5.4662,40.8142 5.0712,41.2112 5.0712,41.7002" id="Fill-32" fill="#AAAAAA"></path>
                            <path d="M74.4179,13.3492 L68.6139,2.8842 C67.7809,1.3832 65.8909,0.8402 64.3899,1.6732 L64.2169,1.7702 L63.7839,0.9922 C63.3229,0.1622 62.2769,-0.1368 61.4459,0.3222 L57.2939,2.6272 C56.4629,3.0862 56.1629,4.1332 56.6249,4.9642 L57.0549,5.7402 L56.8809,5.8372 C55.3789,6.6692 54.8359,8.5602 55.6689,10.0622 L61.4749,20.5282 L61.8569,43.8222 L93.9759,26.0112 L74.4179,13.3492 Z" id="Fill-34" fill="#A3B8BD"></path>
                            <path d="M74.4179,13.3492 L68.6139,2.8842 C67.7809,1.3832 65.8909,0.8402 64.3899,1.6732 L64.2169,1.7702 L63.7839,0.9922 C63.3229,0.1622 62.2769,-0.1368 61.4459,0.3222 L57.2939,2.6272 C56.4629,3.0862 56.1629,4.1332 56.6249,4.9642 L57.0549,5.7402 L56.8809,5.8372 C55.3789,6.6692 54.8359,8.5602 55.6689,10.0622 L61.4749,20.5282 L61.8569,43.8222 L93.9759,26.0112 L74.4179,13.3492 L74.4179,13.3492 Z" id="Stroke-36" stroke="#2F545C" stroke-width="1.5"></path>
                            <path d="M57.121,20.4449 C58.777,19.9679 59.295,17.8769 58.057,16.6789 L54.267,13.0229 C53.03,11.8279 50.962,12.4239 50.551,14.0939 L49.292,19.2059 C48.88,20.8799 50.432,22.3729 52.089,21.8949 L57.121,20.4449 Z" id="Fill-38" fill="#35495E"></path>
                            <path d="M57.121,20.4449 C58.777,19.9679 59.295,17.8769 58.057,16.6789 L54.267,13.0229 C53.03,11.8279 50.962,12.4239 50.551,14.0939 L49.292,19.2059 C48.88,20.8799 50.432,22.3729 52.089,21.8949 L57.121,20.4449 L57.121,20.4449 Z" id="Stroke-40" stroke="#2F545C" stroke-width="0.75"></path>
                            <path d="M51.5839,14.8682 C51.7569,15.4832 52.3999,15.8382 53.0159,15.6622 C53.6309,15.4842 53.9849,14.8422 53.8099,14.2262 C53.6319,13.6122 52.9889,13.2562 52.3729,13.4352 C51.7569,13.6112 51.4049,14.2542 51.5839,14.8682" id="Fill-42" fill="#AAAAAA"></path>
                            <path d="M50.2724,19.9951 C50.4474,20.6091 51.0894,20.9651 51.7064,20.7871 C52.3204,20.6101 52.6724,19.9691 52.4994,19.3531 C52.3214,18.7381 51.6784,18.3841 51.0624,18.5601 C50.4474,18.7381 50.0944,19.3791 50.2724,19.9951" id="Fill-44" fill="#AAAAAA"></path>
                            <path d="M55.3534,18.5308 C55.5284,19.1458 56.1704,19.5008 56.7864,19.3238 C57.4014,19.1458 57.7564,18.5038 57.5794,17.8888 C57.4014,17.2738 56.7574,16.9188 56.1424,17.0958 C55.5284,17.2738 55.1754,17.9168 55.3534,18.5308" id="Fill-46" fill="#AAAAAA"></path>
                            <path d="M29.1093,89.7618 C30.8363,89.7618 31.9133,87.8978 31.0523,86.4018 L28.4253,81.8398 C27.5683,80.3488 25.4173,80.3488 24.5593,81.8398 L21.9313,86.4018 C21.0713,87.8978 22.1493,89.7618 23.8733,89.7618 L29.1093,89.7618 Z" id="Fill-48" fill="#35495E"></path>
                            <path d="M29.1093,89.7618 C30.8363,89.7618 31.9133,87.8978 31.0523,86.4018 L28.4253,81.8398 C27.5683,80.3488 25.4173,80.3488 24.5593,81.8398 L21.9313,86.4018 C21.0713,87.8978 22.1493,89.7618 23.8733,89.7618 L29.1093,89.7618 L29.1093,89.7618 Z" id="Stroke-50" stroke="#2F545C" stroke-width="0.75"></path>
                            <path d="M25.3339,82.8701 C25.3339,83.5091 25.8519,84.0291 26.4929,84.0291 C27.1319,84.0291 27.6519,83.5091 27.6519,82.8701 C27.6519,82.2291 27.1319,81.7111 26.4929,81.7111 C25.8519,81.7111 25.3339,82.2291 25.3339,82.8701" id="Fill-52" fill="#AAAAAA"></path>
                            <path d="M22.6532,87.4326 C22.6532,88.0716 23.1732,88.5906 23.8122,88.5906 C24.4542,88.5906 24.9712,88.0716 24.9712,87.4326 C24.9712,86.7926 24.4542,86.2736 23.8122,86.2736 C23.1732,86.2736 22.6532,86.7926 22.6532,87.4326" id="Fill-54" fill="#AAAAAA"></path>
                            <path d="M27.9403,87.4326 C27.9403,88.0716 28.4603,88.5906 29.0993,88.5906 C29.7393,88.5906 30.2583,88.0716 30.2583,87.4326 C30.2583,86.7926 29.7393,86.2736 29.0993,86.2736 C28.4603,86.2736 27.9403,86.7926 27.9403,87.4326" id="Fill-56" fill="#AAAAAA"></path>
                            <path d="M68.3075,3.8594 C67.5395,2.4734 66.2625,1.5254 64.8775,2.2944 L63.8965,2.7644 L63.4965,2.0464 C63.0735,1.2794 62.8065,0.3124 61.4595,1.1444 L58.0995,3.0064 C57.2825,3.3694 56.8995,4.0104 57.3275,4.7774 L58.0495,5.9454 L57.8575,6.0944 C56.4705,6.8624 55.0115,7.9864 56.8955,10.7154 L62.2165,20.3084 L73.7365,13.6174 L68.3075,3.8594 Z" id="Fill-58" fill="#FFFFFF"></path>
                        </g>
                    </g>
                    <g id="Page-1" transform="translate(265.000000, 72.000000)">
                        <path d="M2.62221818,23.7694342 C2.62221818,23.7694342 0.383612121,23.5079878 1.12894545,19.8616605 C2.17397576,18.608574 6.34106667,14.1779074 16.0121576,14 L26.996703,14 C36.669097,14.1779074 40.8348848,18.608574 41.8799152,19.8616605 C42.6252485,23.5079878 40.3866424,23.7694342 40.3866424,23.7694342 L2.62221818,23.7694342 L2.62221818,23.7694342 Z" id="Stroke-1" stroke="#2F545C" stroke-width="1.95454545" fill="#FFFFFF"></path>
                        <ellipse id="Oval-64" fill="#81D854" cx="12.5" cy="17.5" rx="1.5" ry="0.5"></ellipse>
                        <path d="M1.12959697,20.4460132 L41.8792636,20.4460132" id="Stroke-3" stroke="#2F545C" stroke-width="1.95454545"></path>
                        <path d="M18.2424242,9.05176359 C18.2424242,9.05176359 21.8482266,6.44845341 26.0606061,9.05176359" id="Path-213" stroke="#81D854" stroke-width="1.3030303" stroke-linecap="round"></path>
                        <path d="M15.6363636,5.959875 C15.6363636,5.959875 21.6460343,1.43173519 28.6666667,5.959875" id="Path-213-Copy" stroke="#81D854" stroke-width="1.3030303" stroke-linecap="round"></path>
                        <path d="M13.030303,2.97553779 C13.030303,2.97553779 21.443842,-3.71942224 31.2727273,2.97553779" id="Path-213-Copy-2" stroke="#81D854" stroke-width="1.3030303" stroke-linecap="round"></path>
                    </g>
                </g>
            </g>
        </g>
    </g>
</svg>