<?xml version="1.0" encoding="UTF-8"?>
<svg width="99px" height="111px" viewBox="0 0 99 111" version="1.1" xmlns="http://www.w3.org/2000/svg" xmlns:xlink="http://www.w3.org/1999/xlink">
    <!-- Generator: Sketch 43.2 (39069) - http://www.bohemiancoding.com/sketch -->
    <title>portal-how-2</title>
    <desc>Created with Sketch.</desc>
    <defs>
        <polygon id="path-1" points="6.77626358e-21 0.4629 6.77626358e-21 2.9009 2.4379 2.9009 2.4379 0.4629 0 0.4629"></polygon>
    </defs>
    <g id="Visual-1" stroke="none" stroke-width="1" fill="none" fill-rule="evenodd">
        <g id="02_Case-Study-Portal" transform="translate(-671.000000, -2122.000000)">
            <g id="solution" transform="translate(205.000000, 2051.000000)">
                <g id="1-copy" transform="translate(407.000000, 72.000000)">
                    <g id="portal-how-2" transform="translate(60.000000, 0.000000)">
                        <circle id="Oval-3" stroke="#2866DC" stroke-width="2" cx="48.5" cy="60.5" r="48.5"></circle>
                        <g id="Page-1" transform="translate(32.000000, 40.000000)">
                            <path d="M18.654,7.3884 C17.657,7.1844 16.607,7.1874 15.622,7.3874 L15.321,5.9184 C16.503,5.6754 17.759,5.6724 18.955,5.9194 L18.654,7.3884 Z" id="Fill-1" fill="#2866DC"></path>
                            <path d="M18.9958,4.5632 C17.7898,4.3182 16.4948,4.3132 15.2808,4.5622 L14.9798,3.0932 C16.3908,2.8022 17.8938,2.8052 19.2968,3.0942 L18.9958,4.5632 Z" id="Fill-3" fill="#2866DC"></path>
                            <path d="M19.4069,1.7321 C18.6659,1.5811 17.9029,1.5031 17.1379,1.5031 L17.1249,1.5031 C16.3669,1.5031 15.6089,1.5801 14.8709,1.7311 L14.5699,0.2621 C15.4109,0.0891 16.2789,-0.0219 17.1389,0.0031 C18.0039,0.0031 18.8679,0.0901 19.7079,0.2631 L19.4069,1.7321 Z" id="Fill-5" fill="#2866DC"></path>
                            <g id="Group-10" transform="translate(0.000000, 5.658900)">
                                <mask id="mask-2" fill="white">
                                    <use xlink:href="#path-1"></use>
                                </mask>
                                <g id="Clip-9"></g>
                            </g>
                            <path d="M33.2382,33.2049 L1.2192,33.2049 L1.2192,16.1329 C1.2192,15.0429 2.1022,14.1599 3.1922,14.1599 L31.2642,14.1599 C32.3542,14.1599 33.2382,15.0429 33.2382,16.1329 L33.2382,33.2049 Z" id="Fill-21" fill="#CEDAF2"></path>
                            <path d="M33.988,33.9548 L0.469,33.9548 L0.469,15.7078 C0.469,14.4408 1.501,13.4098 2.767,13.4098 L6.369,13.4098 L6.369,14.9098 L2.767,14.9098 C2.328,14.9098 1.969,15.2678 1.969,15.7078 L1.969,32.4548 L32.488,32.4548 L32.488,15.7078 C32.488,15.2678 32.13,14.9098 31.69,14.9098 L27.897,14.9098 L27.897,13.4098 L31.69,13.4098 C32.957,13.4098 33.988,14.4408 33.988,15.7078 L33.988,33.9548 Z" id="Fill-23" fill="#2866DC"></path>
                            <polygon id="Fill-25" fill="#FFFFFF" points="2.956 31.0649 31.536 31.0649 31.536 16.0219 2.956 16.0219"></polygon>
                            <polygon id="Fill-28" fill="#CEDAF2" points="12.405 38.9469 22.052 38.9469 22.052 36.0919 12.405 36.0919"></polygon>
                            <path d="M13.155,41.0519 L21.302,41.0519 L21.302,36.8419 L13.155,36.8419 L13.155,41.0519 Z M11.655,42.5519 L22.802,42.5519 L22.802,35.3419 L11.655,35.3419 L11.655,42.5519 Z" id="Fill-29" fill="#2866DC"></path>
                            <path d="M33.2382,32.5055 L1.2192,32.5055 L1.2192,34.8295 C1.2192,35.9345 2.1142,36.8295 3.2182,36.8295 L31.2382,36.8295 C32.3432,36.8295 33.2382,35.9345 33.2382,34.8295 L33.2382,32.5055 Z" id="Fill-30" fill="#FFFFFF"></path>
                            <path d="M1.9694,33.2555 L1.9694,34.8295 C1.9694,35.5195 2.5304,36.0795 3.2184,36.0795 L31.2384,36.0795 C31.9274,36.0795 32.4884,35.5195 32.4884,34.8295 L32.4884,33.2555 L1.9694,33.2555 Z M31.2384,37.5795 L3.2184,37.5795 C1.7024,37.5795 0.4694,36.3465 0.4694,34.8295 L0.4694,31.7555 L33.9884,31.7555 L33.9884,34.8295 C33.9884,36.3465 32.7544,37.5795 31.2384,37.5795 L31.2384,37.5795 Z" id="Fill-31" fill="#2866DC"></path>
                            <polygon id="Fill-32" fill="#2866DC" points="10.53 42.6589 24.053 42.6589 24.053 41.1589 10.53 41.1589"></polygon>
                            <path d="M17.1501,9.6598 C12.1971,9.6598 8.1671,13.6888 8.1671,18.6418 C8.1671,23.5968 12.1971,27.6268 17.1501,27.6268 C22.1041,27.6268 26.1341,23.5968 26.1341,18.6418 C26.1341,13.6888 22.1041,9.6598 17.1501,9.6598 M17.1501,29.1268 C11.3701,29.1268 6.6671,24.4238 6.6671,18.6418 C6.6671,12.8618 11.3701,8.1598 17.1501,8.1598 C22.9311,8.1598 27.6341,12.8618 27.6341,18.6418 C27.6341,24.4238 22.9311,29.1268 17.1501,29.1268" id="Fill-33" fill="#2866DC"></path>
                            <path d="M21.1628,28.1696 L19.8918,27.3746 C21.3758,25.0006 22.1928,21.8906 22.1928,18.6166 C22.1928,15.3716 21.3908,12.2846 19.9328,9.9226 L21.2078,9.1356 C22.8098,11.7306 23.6928,15.0976 23.6928,18.6166 C23.6928,22.1686 22.7948,25.5616 21.1628,28.1696" id="Fill-34" fill="#2866DC"></path>
                            <path d="M13.3864,28.1696 C11.7544,25.5616 10.8554,22.1686 10.8554,18.6166 C10.8554,15.1006 11.7384,11.7336 13.3404,9.1356 L14.6184,9.9226 C13.1594,12.2866 12.3554,15.3746 12.3554,18.6166 C12.3554,21.8916 13.1724,25.0016 14.6574,27.3746 L13.3864,28.1696 Z" id="Fill-35" fill="#2866DC"></path>
                            <polygon id="Fill-36" fill="#2866DC" points="16.4 28.3769 17.9 28.3769 17.9 8.9099 16.4 8.9099"></polygon>
                            <polygon id="Fill-37" fill="#2866DC" points="7.417 19.3919 26.885 19.3919 26.885 17.8919 7.417 17.8919"></polygon>
                            <polygon id="Fill-38" fill="#2866DC" points="8.914 14.7679 25.725 14.7679 25.725 13.2679 8.914 13.2679"></polygon>
                            <polygon id="Fill-39" fill="#2866DC" points="8.586 24.0179 25.547 24.0179 25.547 22.5179 8.586 22.5179"></polygon>
                        </g>
                        <circle id="Oval-2" stroke="#2866DC" stroke-width="2" fill="#FFFFFF" cx="49" cy="12" r="12"></circle>
                        <path d="M45.225,18 L45.225,16.416 C45.225,15.2879944 45.4829974,14.3880034 45.999,13.716 C46.4790024,13.115997 47.420993,12.4620035 48.825,11.754 C49.9770058,11.1419969 50.6969986,10.7220011 50.985,10.494 C51.5130026,10.0619978 51.777,9.51000336 51.777,8.838 C51.777,8.34599754 51.579002,7.9200018 51.183,7.56 C50.786998,7.1999982 50.2410035,7.02 49.545,7.02 C48.0929927,7.02 47.2950007,7.8899913 47.151,9.63 L45.135,9.378 C45.2190004,8.02199322 45.656996,6.97500369 46.449,6.237 C47.241004,5.49899631 48.3089933,5.13 49.653,5.13 C50.8770061,5.13 51.8729962,5.48099649 52.641,6.183 C53.4090038,6.88500351 53.793,7.81799418 53.793,8.982 C53.793,9.5220027 53.7030009,10.0079978 53.523,10.44 C53.3429991,10.8720022 53.0700018,11.2529983 52.704,11.583 C52.3379982,11.9130017 51.9930016,12.179999 51.669,12.384 C51.3449984,12.588001 50.9310025,12.8219987 50.427,13.086 C49.1669937,13.7340032 48.4170012,14.159999 48.177,14.364 C48.0329993,14.4840006 47.9190004,14.6099993 47.835,14.742 C47.630999,15.0540016 47.529,15.4619975 47.529,15.966 L53.865,15.966 L53.865,18 L45.225,18 Z" id="2" fill="#2866DC"></path>
                    </g>
                </g>
            </g>
        </g>
    </g>
</svg>