<svg width="99" height="111" viewBox="0 0 99 111" xmlns="http://www.w3.org/2000/svg"><title>portal-how-2</title><g transform="translate(1 1)" fill="none" fill-rule="evenodd"><circle stroke="#2866DC" stroke-width="2" cx="48.5" cy="60.5" r="48.5"/><path d="M50.654 47.388a7.66 7.66 0 0 0-3.032 0l-.301-1.47a9.076 9.076 0 0 1 3.634.001l-.301 1.47zm.342-2.825a9.405 9.405 0 0 0-3.715 0l-.301-1.47a10.82 10.82 0 0 1 4.317.001l-.301 1.47zm.411-2.831a11.385 11.385 0 0 0-2.27-.229h-.012c-.758 0-1.516.077-2.254.228l-.301-1.469c.84-.173 1.709-.284 2.569-.259.865 0 1.729.087 2.569.26l-.301 1.47z" fill="#2866DC"/><path d="M65.238 73.205H33.22V56.133c0-1.09.883-1.973 1.973-1.973h28.072c1.09 0 1.974.883 1.974 1.973v17.072z" fill="#CEDAF2"/><path d="M65.988 73.955H32.469V55.708a2.301 2.301 0 0 1 2.298-2.298h3.602v1.5h-3.602a.8.8 0 0 0-.798.798v16.747h30.519V55.708a.799.799 0 0 0-.798-.798h-3.793v-1.5h3.793a2.3 2.3 0 0 1 2.298 2.298v18.247z" fill="#2866DC"/><path fill="#FFF" d="M34.956 71.065h28.58V56.022h-28.58z"/><path fill="#CEDAF2" d="M44.405 78.947h9.647v-2.855h-9.647z"/><path d="M45.155 81.052h8.147v-4.21h-8.147v4.21zm-1.5 1.5h11.147v-7.21H43.655v7.21z" fill="#2866DC"/><path d="M65.238 72.505H33.22v2.325a2 2 0 0 0 2 2h28.02a2 2 0 0 0 2-2v-2.325z" fill="#FFF"/><path d="M33.97 73.255v1.575c0 .69.56 1.25 1.248 1.25h28.02c.69 0 1.25-.56 1.25-1.25v-1.575H33.97zm29.268 4.325h-28.02a2.752 2.752 0 0 1-2.749-2.75v-3.075h33.52v3.075a2.753 2.753 0 0 1-2.75 2.75zM42.53 82.659h13.523v-1.5H42.53zm6.62-32.999c-4.953 0-8.983 4.029-8.983 8.982 0 4.955 4.03 8.985 8.983 8.985 4.954 0 8.984-4.03 8.984-8.985 0-4.953-4.03-8.982-8.984-8.982m0 19.467c-5.78 0-10.483-4.703-10.483-10.485 0-5.78 4.703-10.482 10.483-10.482 5.781 0 10.484 4.702 10.484 10.482 0 5.782-4.703 10.485-10.484 10.485" fill="#2866DC"/><path d="M53.163 68.17l-1.271-.795c1.484-2.374 2.3-5.484 2.3-8.758 0-3.245-.801-6.332-2.26-8.694l1.276-.787c1.602 2.595 2.485 5.962 2.485 9.48 0 3.553-.898 6.946-2.53 9.554m-7.777 0c-1.632-2.608-2.53-6.001-2.53-9.553 0-3.516.882-6.883 2.484-9.481l1.278.787c-1.459 2.364-2.263 5.452-2.263 8.694 0 3.275.817 6.385 2.302 8.758l-1.27.795zm3.014.207h1.5V48.91h-1.5z" fill="#2866DC"/><path fill="#2866DC" d="M39.417 59.392h19.468v-1.5H39.417zm1.497-4.624h16.811v-1.5H40.914zm-.328 9.25h16.961v-1.5H40.586z"/><circle stroke="#2866DC" stroke-width="2" fill="#FFF" cx="49" cy="12" r="12"/><path d="M45.225 18v-1.584c0-1.128.258-2.028.774-2.7.48-.6 1.422-1.254 2.826-1.962 1.152-.612 1.872-1.032 2.16-1.26.528-.432.792-.984.792-1.656 0-.492-.198-.918-.594-1.278-.396-.36-.942-.54-1.638-.54-1.452 0-2.25.87-2.394 2.61l-2.016-.252c.084-1.356.522-2.403 1.314-3.141s1.86-1.107 3.204-1.107c1.224 0 2.22.351 2.988 1.053.768.702 1.152 1.635 1.152 2.799 0 .54-.09 1.026-.27 1.458-.18.432-.453.813-.819 1.143-.366.33-.711.597-1.035.801a18.5 18.5 0 0 1-1.242.702c-1.26.648-2.01 1.074-2.25 1.278-.144.12-.258.246-.342.378-.204.312-.306.72-.306 1.224h6.336V18h-8.64z" fill="#2866DC"/></g></svg>