<svg width="110" height="121" viewBox="0 0 110 121" xmlns="http://www.w3.org/2000/svg"><title>Page 1</title><g fill="none" fill-rule="evenodd"><path d="M92.477 24.786c0 12.86-10.424 23.284-23.284 23.284S45.91 37.646 45.91 24.786 56.333 1.502 69.193 1.502s23.284 10.424 23.284 23.284z" fill="#CEDAF2"/><path d="M81.349 24.786c0 6.714-5.442 12.156-12.156 12.156-6.712 0-12.156-5.442-12.156-12.156S62.48 12.63 69.193 12.63c6.714 0 12.156 5.442 12.156 12.156" fill="#FFF"/><path d="M69.194 24.428a.36.36 0 0 0-.36.358c0 .394.718.394.718 0a.358.358 0 0 0-.358-.358m0 3a2.645 2.645 0 0 1-2.642-2.642 2.645 2.645 0 0 1 2.642-2.644 2.645 2.645 0 0 1 2.64 2.644 2.644 2.644 0 0 1-2.64 2.642" fill="#2866DC"/><path d="M78.29 47.847l-1.102-2.79c8.378-3.308 13.79-11.264 13.79-20.272 0-11.336-8.844-20.878-20.134-21.722-2.682-.2-5.43.094-8 .876l-.874-2.868a24.94 24.94 0 0 1 9.1-1c12.846.96 22.908 11.818 22.908 24.714 0 10.248-6.158 19.3-15.688 23.062M53.678 9.493l-2.136-2.106a24.817 24.817 0 0 1 6.542-4.762l1.348 2.68a21.887 21.887 0 0 0-5.754 4.188m-6.269 15.293h-3c0-4.938 1.448-9.706 4.188-13.792l2.492 1.674a21.666 21.666 0 0 0-3.68 12.118" fill="#2866DC"/><path fill="#2866DC" d="M67.694 7.548h3V3.502h-3zm11.432 3.07l-2.598-1.504 2.028-3.502 2.598 1.504zm5.761 6.88l-1.496-2.602L86.9 12.88l1.496 2.602zm5.586 8.853l-4.046-.012.006-3 4.048.012zM86.827 36.8l-3.496-2.038 1.512-2.59 3.496 2.036zm-8.389 7.216l-2.006-3.514 2.606-1.488 2.006 3.516zm-26.496-17.89l-4.046-.038.026-3 4.048.038zm1.648-8.822l-3.481-2.06 1.526-2.582 3.484 2.06zm5.848-6.808l-1.984-3.528 2.612-1.47 1.986 3.528zm8.255 14.356l.62-14.318h1.76l.62 14.318z"/><path fill="#2866DC" d="M69.154 23.352l12.62.294.046 1.762-12.588.942z"/><path d="M32.597 94.57H45.55V66.356l-4.78 6.466c-1.376 1.862-2.992 3.516-4.654 5.128a11.592 11.592 0 0 0-3.52 8.32v8.3zm45.352 0H64.995V66.356l4.78 6.466c1.376 1.862 2.992 3.516 4.654 5.128a11.592 11.592 0 0 1 3.52 8.32v8.3z" fill="#CEDAF2"/><path d="M66.494 93.07h9.956v-6.8c0-2.715-1.118-5.355-3.068-7.243-1.63-1.582-3.342-3.322-4.812-5.312l-2.076-2.806v22.16zm12.956 3H63.494V61.802l7.488 10.128c1.342 1.818 2.952 3.448 4.49 4.942a13.153 13.153 0 0 1 3.978 9.396v9.8zm-45.354-3h9.954V70.91l-2.074 2.805c-1.472 1.99-3.182 3.73-4.814 5.312a10.14 10.14 0 0 0-3.066 7.242v6.8zm12.954 3H31.096v-9.8a13.16 13.16 0 0 1 3.976-9.397c1.54-1.494 3.15-3.124 4.492-4.942l7.486-10.128V96.07z" fill="#2866DC"/><path d="M66.103 94.57H44.775V50.374a16.65 16.65 0 0 1 6.47-13.176l1.906-1.47a3.743 3.743 0 0 1 4.578 0l2.076 1.604a16.203 16.203 0 0 1 6.298 12.822V94.57z" fill="#FFF"/><path d="M55.932 37.198l1.85-1.43-.054-.042a3.749 3.749 0 0 0-4.578 0l-1.904 1.472a16.646 16.646 0 0 0-6.472 13.176V94.57h4.688V50.374a16.65 16.65 0 0 1 6.47-13.176" fill="#CEDAF2"/><path d="M67.602 96.07H43.276V50.372c0-5.582 2.636-10.95 7.054-14.362l1.904-1.472a5.252 5.252 0 0 1 6.412 0l2.076 1.604-1.832 2.376-2.078-1.604a2.24 2.24 0 0 0-2.744-.002l-1.906 1.472c-3.686 2.846-5.886 7.328-5.886 11.988V93.07h18.326V50.155c0-2.226-.518-4.46-1.494-6.46l2.696-1.318a17.813 17.813 0 0 1 1.798 7.778V96.07z" fill="#2866DC"/><path d="M61.834 41.567a14.104 14.104 0 0 0-.85-1.074l2.254-1.976c.368.416.71.85 1.034 1.3l-2.438 1.75z" fill="#2866DC"/><path d="M59.188 55.625a3.748 3.748 0 1 1-7.5 0 3.748 3.748 0 0 1 7.5 0m0 13.041a3.748 3.748 0 1 1-7.5 0 3.748 3.748 0 0 1 7.5 0m0 13.041a3.748 3.748 0 1 1-7.5 0 3.748 3.748 0 0 1 7.5 0" fill="#9ECFEF"/><path d="M55.44 53.376a2.252 2.252 0 0 0-2.25 2.248c0 1.24 1.01 2.25 2.25 2.25s2.248-1.01 2.248-2.25a2.25 2.25 0 0 0-2.248-2.248m0 7.498a5.257 5.257 0 0 1-5.25-5.25 5.255 5.255 0 0 1 5.25-5.248 5.254 5.254 0 0 1 5.248 5.248 5.255 5.255 0 0 1-5.248 5.25m0 5.543a2.252 2.252 0 0 0-2.25 2.248c0 1.24 1.01 2.25 2.25 2.25s2.248-1.01 2.248-2.25a2.25 2.25 0 0 0-2.248-2.248m0 7.498a5.257 5.257 0 0 1-5.25-5.25 5.255 5.255 0 0 1 5.25-5.248 5.254 5.254 0 0 1 5.248 5.248 5.255 5.255 0 0 1-5.248 5.25m0 5.543c-1.24 0-2.25 1.01-2.25 2.25s1.01 2.248 2.25 2.248a2.25 2.25 0 0 0 0-4.498m0 7.498a5.255 5.255 0 0 1-5.25-5.248 5.257 5.257 0 0 1 5.25-5.25 5.255 5.255 0 0 1 5.248 5.25 5.254 5.254 0 0 1-5.248 5.248" fill="#2866DC"/><path d="M96.863 118.216c0-2.626-1.284-4.936-3.24-6.392.974-1.298 1.572-2.894 1.572-4.642a7.773 7.773 0 1 0-15.546 0c0 .146.036.282.044.424a5.546 5.546 0 0 0-4.152 2.688 7.001 7.001 0 0 0-4.182-1.396c-2.098 0-3.964.932-5.258 2.384-.976-.836-2.226-1.358-3.612-1.358-.29 0-.568.042-.846.084.046-.268.082-.542.082-.826a4.9 4.9 0 1 0-9.802 0c0 .24.038.468.072.698a6.067 6.067 0 0 0-2.292-.454c-2.33 0-4.33 1.326-5.35 3.25a3.827 3.827 0 0 0-2.604-1.03 3.83 3.83 0 0 0-2.986 1.444 5.574 5.574 0 0 0-5.482-4.584c-.28 0-.55.042-.82.082.272-.808.454-1.658.454-2.56a8.05 8.05 0 0 0-16.098 0 8.01 8.01 0 0 0 1.422 4.56c-3.308.976-5.738 4.002-5.738 7.628h84.362z" fill="#FFF"/><path d="M98.363 118.216h-3c0-2.05-.96-3.942-2.636-5.19l-1.208-.9.904-1.202c.832-1.108 1.272-2.402 1.272-3.742a6.28 6.28 0 0 0-6.274-6.272 6.28 6.28 0 0 0-6.272 6.272l.04.342.076 1.412-1.404.16a4.033 4.033 0 0 0-3.03 1.964l-.846 1.428-1.334-.986c-2.294-1.698-5.546-1.336-7.43.778l-.978 1.098-1.116-.958c-.534-.454-1.422-.996-2.638-.996-.212 0-.416.036-.616.068l-2.05.318.338-2.048c.034-.188.064-.38.064-.58 0-1.874-1.526-3.4-3.402-3.4a3.405 3.405 0 0 0-3.4 3.4c0 .142.026.278.046.412l.378 2.598-2.42-.924c-2.172-.884-4.668.07-5.748 2.11l-.912 1.716-1.43-1.316c-.972-.896-2.578-.778-3.41.256l-2.058 2.55-.584-3.226c-.382-2.124-2.466-3.602-4.544-3.296l-2.418.354.716-2.308c.252-.75.374-1.43.374-2.08a6.554 6.554 0 0 0-6.548-6.548 6.554 6.554 0 0 0-6.548 6.548c0 1.326.4 2.608 1.158 3.71l1.172 1.702-1.986.586c-2.788.822-4.662 3.312-4.662 6.19h-3a9.371 9.371 0 0 1 5.11-8.384 9.491 9.491 0 0 1-.792-3.804c0-5.266 4.282-9.548 9.548-9.548s9.548 4.282 9.548 9.548c0 .35-.02.702-.066 1.056a7.07 7.07 0 0 1 5.124 3.578 5.388 5.388 0 0 1 4.466-.04c1.6-1.904 4.088-2.936 6.602-2.65a6.408 6.408 0 0 1 6.284-5.19c3.286 0 6 2.486 6.36 5.676.97.1 1.912.404 2.77.892 2.548-2.098 6.272-2.53 9.21-1.044a6.97 6.97 0 0 1 3.018-1.906c.398-4.748 4.392-8.49 9.24-8.49 5.114 0 9.274 4.16 9.274 9.272 0 1.53-.38 3.012-1.11 4.356a9.36 9.36 0 0 1 2.778 6.678" fill="#2866DC"/><path fill="#2866DC" d="M0 118h110v3H0z"/></g></svg>