<?xml version="1.0" encoding="UTF-8"?>
<svg width="99px" height="111px" viewBox="0 0 99 111" version="1.1" xmlns="http://www.w3.org/2000/svg" xmlns:xlink="http://www.w3.org/1999/xlink">
    <!-- Generator: Sketch 39.1 (31720) - http://www.bohemiancoding.com/sketch -->
    <title>portal-how-3</title>
    <desc>Created with Sketch.</desc>
    <defs></defs>
    <g id="Visual-1" stroke="none" stroke-width="1" fill="none" fill-rule="evenodd">
        <g id="02_Case-Study-Portal" transform="translate(-1088.000000, -2122.000000)">
            <g id="solution" transform="translate(205.000000, 2051.000000)">
                <g id="1-copy-2" transform="translate(844.000000, 72.000000)">
                    <g id="portal-how-3" transform="translate(40.000000, 0.000000)">
                        <circle id="Oval-3" stroke="#2866DC" stroke-width="2" cx="48.5" cy="60.5" r="48.5"></circle>
                        <g id="Page-1" transform="translate(26.000000, 47.000000)">
                            <path d="M39.2894,23.7754 L0.7504,23.7754 L0.7504,2.8254 C0.7504,1.7354 1.6334,0.8524 2.7234,0.8524 L37.3154,0.8524 C38.4054,0.8524 39.2894,1.7354 39.2894,2.8254 L39.2894,23.7754 Z" id="Fill-1" fill="#CEDAF2"></path>
                            <path d="M40.0396,10.4609 L38.5396,10.4609 L38.5396,2.8249 C38.5396,2.1509 37.9906,1.6029 37.3156,1.6029 L13.8466,1.6029 L13.8466,0.1029 L37.3156,0.1029 C38.8176,0.1029 40.0396,1.3239 40.0396,2.8249 L40.0396,10.4609 Z" id="Fill-3" fill="#2866DC"></path>
                            <polygon id="Fill-5" fill="#2866DC" points="9.073 1.6029 11.957 1.6029 11.957 0.1029 9.073 0.1029"></polygon>
                            <path d="M39.2896,24.5253 L-0.0004,24.5253 L-0.0004,2.8253 C-0.0004,1.3243 1.2216,0.1023 2.7236,0.1023 L7.6406,0.1023 L7.6406,1.6023 L2.7236,1.6023 C2.0486,1.6023 1.4996,2.1513 1.4996,2.8253 L1.4996,23.0253 L39.2896,23.0253 L39.2896,24.5253 Z" id="Fill-7" fill="#2866DC"></path>
                            <polygon id="Fill-8" fill="#FFFFFF" points="3 21.106 37.4 21.106 37.4 3 3 3"></polygon>
                            <g transform="translate(18.000000, 10.000000)">
                                <polygon id="Fill-1" fill="#0686D8" points="0 2.78719 4.074 2.78719 4.074 1.28719 0 1.28719"></polygon>
                                <polygon id="Fill-2" fill="#2866DC" points="0 2.78719 4.074 2.78719 4.074 1.28719 0 1.28719"></polygon>
                                <polygon id="Fill-3" fill="#2866DC" points="1.287 4.07419 2.787 4.07419 2.787 0.000190000001 1.287 0.000190000001"></polygon>
                                <polygon id="Fill-4" fill="#2866DC" points="1.287 4.07419 2.787 4.07419 2.787 0.000190000001 1.287 0.000190000001"></polygon>
                            </g>
                            <polygon id="Fill-10" fill="#CEDAF2" points="14.214 30.6859 25.825 30.6859 25.825 27.2489 14.214 27.2489"></polygon>
                            <path d="M14.964,33.3729 L25.075,33.3729 L25.075,27.9999 L14.964,27.9999 L14.964,33.3729 Z M13.465,34.8729 L26.576,34.8729 L26.576,26.4999 L13.465,26.4999 L13.465,34.8729 Z" id="Fill-11" fill="#0686D8"></path>
                            <path d="M39.2894,22.9335 L0.7504,22.9335 L0.7504,26.1385 C0.7504,27.2425 1.6454,28.1385 2.7494,28.1385 L37.2894,28.1385 C38.3944,28.1385 39.2894,27.2425 39.2894,26.1385 L39.2894,22.9335 Z" id="Fill-12" fill="#FFFFFF"></path>
                            <path d="M28.8853,28.8886 L2.7503,28.8886 C1.2333,28.8886 0.0003,27.6556 0.0003,26.1386 L0.0003,22.1836 L28.8853,22.1836 L28.8853,23.6836 L1.5003,23.6836 L1.5003,26.1386 C1.5003,26.8276 2.0603,27.3886 2.7503,27.3886 L28.8853,27.3886 L28.8853,28.8886 Z" id="Fill-13" fill="#2866DC"></path>
                            <polygon id="Fill-14" fill="#0686D8" points="11.957 35.0019 28.234 35.0019 28.234 33.5019 11.957 33.5019"></polygon>
                            <path d="M42.3335,34.2515 L32.0325,34.2515 C31.2655,34.2515 30.6425,33.6285 30.6425,32.8605 L30.6425,13.1965 C30.6425,12.4285 31.2655,11.8065 32.0325,11.8065 L42.3335,11.8065 C43.1015,11.8065 43.7245,12.4285 43.7245,13.1965 L43.7245,32.8605 C43.7245,33.6285 43.1015,34.2515 42.3335,34.2515" id="Fill-18" fill="#FFFFFF"></path>
                            <polygon id="Fill-19" fill="#CEDAF2" points="31.812 30.0669 42.554 30.0669 42.554 15.5059 31.812 15.5059"></polygon>
                            <path d="M32.0327,12.5566 C31.6787,12.5566 31.3917,12.8436 31.3917,13.1966 L31.3917,32.8616 C31.3917,33.2146 31.6787,33.5016 32.0327,33.5016 L42.3337,33.5016 C42.6867,33.5016 42.9737,33.2146 42.9737,32.8616 L42.9737,13.1966 C42.9737,12.8436 42.6867,12.5566 42.3337,12.5566 L32.0327,12.5566 Z M42.3337,35.0016 L32.0327,35.0016 C30.8517,35.0016 29.8917,34.0416 29.8917,32.8616 L29.8917,13.1966 C29.8917,12.0166 30.8517,11.0566 32.0327,11.0566 L42.3337,11.0566 C43.5147,11.0566 44.4737,12.0166 44.4737,13.1966 L44.4737,32.8616 C44.4737,34.0416 43.5147,35.0016 42.3337,35.0016 L42.3337,35.0016 Z" id="Fill-20" fill="#2866DC"></path>
                            <polygon id="Fill-21" fill="#2866DC" points="34.646 14.6879 39.72 14.6879 39.72 13.1879 34.646 13.1879"></polygon>
                            <path d="M37.1831,31.5566 C37.0701,31.5566 36.9781,31.6486 36.9781,31.7616 C36.9781,31.9886 37.3881,31.9886 37.3881,31.7616 C37.3881,31.6486 37.2961,31.5566 37.1831,31.5566 M37.1831,33.0566 C36.4691,33.0566 35.8881,32.4756 35.8881,31.7616 C35.8881,31.0476 36.4691,30.4666 37.1831,30.4666 C37.8971,30.4666 38.4781,31.0476 38.4781,31.7616 C38.4781,32.4756 37.8971,33.0566 37.1831,33.0566" id="Fill-22" fill="#2866DC"></path>
                        </g>
                        <circle id="Oval-2" stroke="#2866DC" stroke-width="2" fill="#FFFFFF" cx="49" cy="12" r="12"></circle>
                        <text id="3" font-family="MaisonNeue-Demi, Maison Neue" font-size="18" font-weight="500" fill="#2866DC">
                            <tspan x="44.154" y="18">3</tspan>
                        </text>
                    </g>
                </g>
            </g>
        </g>
    </g>
</svg>