<svg width="99" height="111" viewBox="0 0 99 111" xmlns="http://www.w3.org/2000/svg"><title>portal-how-1</title><g transform="translate(1 1)" fill="none" fill-rule="evenodd"><circle stroke="#2866DC" stroke-width="2" cx="48.5" cy="60.5" r="48.5"/><path d="M26.75 62.525s1.25-10.477 5.75-12c4.5-1.521 17.81-2.107 24.75-1.521 6.94.587 11.125 1.815 12.75 13.521 0 0-18 3.318-43.25 0z" fill="#CEDAF2"/><path d="M48.5 70.983c3.994 0 7.926.007 11.374.02h.133c4.038 0 6.828-.744 8.296-2.215 1.301-1.306 1.298-2.924 1.296-3.996-.005-1.992-.257-4.481-2.064-9.177-1.702-4.425-5.008-5.27-6.597-5.675l-.082-.022c-.847-.217-5.567-.416-12.025-.508a.606.606 0 0 1-.095-.006l-.226.003h-.018l-.23-.003a.557.557 0 0 1-.091.006c-6.458.092-11.178.29-12.027.508l-.082.022c-1.589.406-4.895 1.25-6.595 5.675-1.807 4.696-2.059 7.185-2.064 9.177-.004 1.072-.007 2.69 1.296 3.996 1.466 1.47 4.257 2.215 8.297 2.215h.131c3.447-.013 7.379-.02 11.373-.02m11.507 1.424h-.002l-.136-.002a3072.054 3072.054 0 0 0-22.737 0l-.136.002c-4.426 0-7.55-.887-9.29-2.628-1.712-1.72-1.709-3.847-1.706-4.99.003-2.127.269-4.77 2.156-9.677 1.963-5.1 5.885-6.104 7.559-6.53l.082-.022c1.389-.357 8.942-.501 12.248-.55a.708.708 0 0 1 .124-.01l.331.003.331-.003c.043 0 .087.003.128.01 3.309.049 10.855.193 12.246.55l.08.022c1.676.426 5.596 1.43 7.559 6.53 1.887 4.908 2.153 7.55 2.156 9.677.003 1.143.01 3.273-1.704 4.99-1.74 1.74-4.866 2.628-9.289 2.628" fill="#2866DC"/><path d="M61.016 69.448c-.11.003-8.113.149-14.76.149-3.362 0-6.534-.039-8.493-.149-5.644-.321-7.032-1.257-7.25-1.442l.897-1.076s-.007-.007-.027-.018c.014.008 1.26.84 6.46 1.137 5.778.328 22.976.002 23.144-.002m5.308-1.72c-.876 1.166-2.415 1.397-2.44 1.401-.037.005-.066.024-.103.036l.482 1.319c.54-.107 2.14-.526 3.182-1.916l-1.121-.84zm-13.503-8.961c0-.41-.33-.74-.74-.74H44.95a.74.74 0 1 0 0 1.48h7.102c.41 0 .74-.33.74-.74" fill="#2866DC"/><circle stroke="#2866DC" stroke-width="2" fill="#FFF" cx="49" cy="12" r="12"/><path fill="#2866DC" d="M49.086 18V7.776l-2.718 1.71V7.2l2.898-1.8h1.836V18z"/></g></svg>